M48
; DRILL file {KiCad (6.0.11)} date Thu Jul  6 17:16:21 2023
; FORMAT={-:-/ absolute / inch / decimal}
; #@! TF.CreationDate,2023-07-06T17:16:21+01:00
; #@! TF.GenerationSoftware,Kicad,Pcbnew,(6.0.11)
; #@! TF.FileFunction,Plated,1,4,PTH
FMAT,2
INCH
; #@! TA.AperFunction,Plated,PTH,ViaDrill
T1C0.0157
; #@! TA.AperFunction,Plated,PTH,ViaDrill
T2C0.0236
; #@! TA.AperFunction,Plated,PTH,ComponentDrill
T3C0.0394
; #@! TA.AperFunction,Plated,PTH,ComponentDrill
T4C0.0512
%
G90
G05
T1
X2.0167Y-4.0984
X2.063Y-4.1929
X2.1063Y-5.2638
X2.1417Y-3.9134
X2.1496Y-5.1969
X2.1535Y-4.8228
X2.1535Y-4.9488
X2.1575Y-3.7874
X2.1575Y-4.1654
X2.1575Y-5.3268
X2.1614Y-4.8858
X2.1717Y-3.7023
X2.252Y-2.8819
X2.3745Y-3.1186
X2.4213Y-2.7638
X2.4213Y-3.6929
X2.4213Y-3.9055
X2.4213Y-4.185
X2.4213Y-4.3976
X2.4213Y-5.0669
X2.4213Y-5.3465
X2.4252Y-3.2436
X2.4252Y-4.8543
X2.4252Y-5.5591
X2.5827Y-3.0197
X2.5862Y-4.0909
X2.5902Y-5.2524
X2.6024Y-3.0984
X2.6107Y-2.8224
X2.6614Y-3.4488
X2.7205Y-2.7205
X2.7244Y-3.8898
X2.7244Y-3.9921
X2.7244Y-5.0512
X2.7244Y-5.1535
X2.8031Y-3.8898
X2.8031Y-3.9921
X2.8031Y-5.0512
X2.8031Y-5.1535
X2.8071Y-2.7244
X2.8071Y-2.8189
X2.811Y-3.1496
X2.8228Y-5.5669
X2.8661Y-4.437
X2.9335Y-3.7909
X2.9374Y-4.9524
X2.9409Y-3.1417
X2.956Y-3.3986
X3.1024Y-3.7638
X3.1024Y-3.9724
X3.1024Y-4.185
X3.1063Y-3.4803
X3.1063Y-4.6417
X3.1063Y-4.9252
X3.1063Y-5.1339
X3.1063Y-5.3465
X3.1102Y-3.0709
X3.1181Y-2.8228
X3.2126Y-4.1654
X3.2126Y-5.3268
X3.3268Y-4.2717
X3.3268Y-5.4291
X3.3661Y-4.8228
X3.3701Y-3.6614
X3.3858Y-4.0394
X3.4055Y-5.1378
X3.4252Y-3.8504
X3.4575Y-5.0789
T2
X2.189Y-4.437
X2.1929Y-5.6024
X2.5551Y-5.6024
X2.5866Y-3.9055
X2.5866Y-4.4567
X2.5906Y-3.2151
X2.5906Y-3.6929
X2.5906Y-4.8543
X2.5945Y-5.0669
X2.5965Y-2.7382
X2.8701Y-3.4222
X2.8701Y-3.0079
X2.9213Y-5.3425
X2.9331Y-4.1654
X2.9331Y-4.5866
X2.9358Y-3.9831
X2.9382Y-5.1429
X2.9409Y-2.8307
X3.3346Y-5.4843
X3.3731Y-4.2717
T3
X2.063Y-2.4724
X2.063Y-2.5724
X2.063Y-2.6724
X2.063Y-2.7724
X2.063Y-2.8724
X2.063Y-2.9724
X2.063Y-3.0724
X2.063Y-3.1724
X2.063Y-3.2724
X2.063Y-3.3724
X2.3146Y-5.8228
X2.4146Y-5.8228
X2.5146Y-5.8228
X2.5614Y-2.1441
X2.5614Y-2.2441
X2.6146Y-5.8228
X2.6614Y-2.1441
X2.6614Y-2.2441
X2.7146Y-5.8228
X2.7614Y-2.1441
X2.7614Y-2.2441
X2.8146Y-5.8228
X2.8614Y-2.1441
X2.8614Y-2.2441
X2.9146Y-5.8228
X2.9614Y-2.1441
X2.9614Y-2.2441
X3.0146Y-5.8228
X3.1146Y-5.8228
X3.2146Y-5.8228
X3.4606Y-2.4724
X3.4606Y-2.5724
X3.4606Y-2.6724
X3.4606Y-2.7724
X3.4606Y-2.8724
X3.4606Y-2.9724
X3.4606Y-3.0724
X3.4606Y-3.1724
X3.4606Y-3.2724
X3.4606Y-3.3724
T4
X2.2362Y-2.4606
X3.1654Y-2.4646
X3.311Y-2.4646
X3.4803Y-5.8268
T0
M30
