M48
; DRILL file {KiCad (6.0.11)} date Tue Jan 31 16:53:51 2023
; FORMAT={-:-/ absolute / inch / decimal}
; #@! TF.CreationDate,2023-01-31T16:53:51+00:00
; #@! TF.GenerationSoftware,Kicad,Pcbnew,(6.0.11)
; #@! TF.FileFunction,Plated,1,2,PTH
FMAT,2
INCH
; #@! TA.AperFunction,Plated,PTH,ViaDrill
T1C0.0157
; #@! TA.AperFunction,Plated,PTH,ViaDrill
T2C0.0236
; #@! TA.AperFunction,Plated,PTH,ComponentDrill
T3C0.0394
%
G90
G05
T1
X2.2283Y-2.6181
X2.3976Y-2.9449
X2.4173Y-3.1535
X2.5433Y-2.689
X2.6339Y-3.0669
X2.7441Y-2.8465
X2.752Y-2.4724
X2.7573Y-3.0459
X2.9567Y-2.6181
T2
X2.4961Y-3.185
X2.7008Y-2.5906
X2.7008Y-2.9528
T3
X1.811Y-1.8079
X1.811Y-1.9079
X1.811Y-2.0079
X1.811Y-2.2835
X1.811Y-2.3835
X1.811Y-2.4835
X1.811Y-2.8051
X1.811Y-2.9051
X1.811Y-3.0051
X1.811Y-3.1051
X1.811Y-3.2051
X1.811Y-3.3051
X3.437Y-2.2638
X3.437Y-2.9331
X3.4409Y-3.5827
X3.5354Y-2.2638
X3.5354Y-2.9331
X3.5394Y-3.5827
X3.6339Y-2.2638
X3.6339Y-2.9331
X3.6378Y-3.5827
T0
M30
