%TF.GenerationSoftware,KiCad,Pcbnew,(6.0.11)*%
%TF.CreationDate,2023-01-31T16:53:48+00:00*%
%TF.ProjectId,Quilter,5175696c-7465-4722-9e6b-696361645f70,rev?*%
%TF.SameCoordinates,Original*%
%TF.FileFunction,Copper,L2,Bot*%
%TF.FilePolarity,Positive*%
%FSLAX46Y46*%
G04 Gerber Fmt 4.6, Leading zero omitted, Abs format (unit mm)*
G04 Created by KiCad (PCBNEW (6.0.11)) date 2023-01-31 16:53:48*
%MOMM*%
%LPD*%
G01*
G04 APERTURE LIST*
%TA.AperFunction,ComponentPad*%
%ADD10C,1.800000*%
%TD*%
%TA.AperFunction,WasherPad*%
%ADD11C,4.000000*%
%TD*%
%TA.AperFunction,ComponentPad*%
%ADD12R,1.700000X1.700000*%
%TD*%
%TA.AperFunction,ComponentPad*%
%ADD13O,1.700000X1.700000*%
%TD*%
%TA.AperFunction,ViaPad*%
%ADD14C,0.800000*%
%TD*%
%TA.AperFunction,ViaPad*%
%ADD15C,1.000000*%
%TD*%
%TA.AperFunction,Conductor*%
%ADD16C,0.400000*%
%TD*%
%TA.AperFunction,Conductor*%
%ADD17C,0.250000*%
%TD*%
G04 APERTURE END LIST*
D10*
%TO.P,FREQ_OFFSET1,3,3*%
%TO.N,-12V*%
X87300000Y-57500000D03*
%TO.P,FREQ_OFFSET1,2,2*%
%TO.N,Net-(FREQ_OFFSET1-Pad2)*%
X89800000Y-57500000D03*
%TO.P,FREQ_OFFSET1,1,1*%
%TO.N,+12V*%
X92300000Y-57500000D03*
D11*
%TO.P,FREQ_OFFSET1,*%
%TO.N,*%
X85400000Y-50500000D03*
X94200000Y-50500000D03*
%TD*%
D10*
%TO.P,Q_CTRL1,3,3*%
%TO.N,GND*%
X87300000Y-74500000D03*
%TO.P,Q_CTRL1,2,2*%
%TO.N,Net-(R12-Pad1)*%
X89800000Y-74500000D03*
%TO.P,Q_CTRL1,1,1*%
%TO.N,+12V*%
X92300000Y-74500000D03*
D11*
%TO.P,Q_CTRL1,*%
%TO.N,*%
X85400000Y-67500000D03*
X94200000Y-67500000D03*
%TD*%
D10*
%TO.P,V_OCT1,3,3*%
%TO.N,Net-(R9-Pad2)*%
X87400000Y-91000000D03*
%TO.P,V_OCT1,2,2*%
X89900000Y-91000000D03*
%TO.P,V_OCT1,1,1*%
%TO.N,Net-(R8-Pad1)*%
X92400000Y-91000000D03*
D11*
%TO.P,V_OCT1,*%
%TO.N,*%
X85500000Y-84000000D03*
X94300000Y-84000000D03*
%TD*%
D12*
%TO.P,J3,1,Pin_1*%
%TO.N,+12V*%
X46000000Y-51000000D03*
D13*
%TO.P,J3,2,Pin_2*%
%TO.N,-12V*%
X46000000Y-48460000D03*
%TO.P,J3,3,Pin_3*%
%TO.N,GND*%
X46000000Y-45920000D03*
%TD*%
D12*
%TO.P,J2,1,Pin_1*%
%TO.N,+12V*%
X46000000Y-58000000D03*
D13*
%TO.P,J2,2,Pin_2*%
%TO.N,GND*%
X46000000Y-60540000D03*
%TO.P,J2,3,Pin_3*%
%TO.N,-12V*%
X46000000Y-63080000D03*
%TD*%
D12*
%TO.P,J1,1,Pin_1*%
%TO.N,/SIG_IN+*%
X46000000Y-71250000D03*
D13*
%TO.P,J1,2,Pin_2*%
%TO.N,/SIG_IN-*%
X46000000Y-73790000D03*
%TO.P,J1,3,Pin_3*%
%TO.N,GND*%
X46000000Y-76330000D03*
%TO.P,J1,4,Pin_4*%
%TO.N,/FREQ1*%
X46000000Y-78870000D03*
%TO.P,J1,5,Pin_5*%
%TO.N,/FREQ2*%
X46000000Y-81410000D03*
%TO.P,J1,6,Pin_6*%
%TO.N,/MIX_OUT*%
X46000000Y-83950000D03*
%TD*%
D14*
%TO.N,GND*%
X69700000Y-72300000D03*
X69900000Y-62800000D03*
X75100000Y-66500000D03*
X56600000Y-66500000D03*
%TO.N,/MIX_OUT*%
X70035000Y-77365000D03*
%TO.N,GND*%
X61400000Y-80100000D03*
X60900000Y-74800000D03*
D15*
%TO.N,-12V*%
X63400000Y-80900000D03*
D14*
%TO.N,Net-(C8-Pad2)*%
X66900000Y-77900000D03*
X64600000Y-68300000D03*
D15*
%TO.N,+12V*%
X68599999Y-65799999D03*
X68599999Y-74999999D03*
%TD*%
D16*
%TO.N,+12V*%
X90500000Y-59300000D02*
X92300000Y-57500000D01*
X86200000Y-59300000D02*
X90500000Y-59300000D01*
X84900000Y-58000000D02*
X86200000Y-59300000D01*
X68700000Y-58000000D02*
X84900000Y-58000000D01*
D17*
%TO.N,/MIX_OUT*%
X70035000Y-78365000D02*
X64450000Y-83950000D01*
X70035000Y-77365000D02*
X70035000Y-78365000D01*
X64450000Y-83950000D02*
X46000000Y-83950000D01*
D16*
%TO.N,-12V*%
X63400000Y-80480000D02*
X63400000Y-80900000D01*
X46000000Y-63080000D02*
X63400000Y-80480000D01*
D17*
%TO.N,Net-(C8-Pad2)*%
X66900000Y-70600000D02*
X66900000Y-77900000D01*
X64600000Y-68300000D02*
X66900000Y-70600000D01*
D16*
%TO.N,+12V*%
X68599999Y-65799999D02*
X68599999Y-74999999D01*
X68600000Y-58100000D02*
X68599999Y-65799999D01*
X68700000Y-58000000D02*
X68600000Y-58100000D01*
X46000000Y-58000000D02*
X68700000Y-58000000D01*
%TD*%
%TA.AperFunction,Conductor*%
%TO.N,GND*%
G36*
X99433621Y-40528502D02*
G01*
X99480114Y-40582158D01*
X99491500Y-40634500D01*
X99491500Y-95365500D01*
X99471498Y-95433621D01*
X99417842Y-95480114D01*
X99365500Y-95491500D01*
X38634500Y-95491500D01*
X38566379Y-95471498D01*
X38519886Y-95417842D01*
X38508500Y-95365500D01*
X38508500Y-90965469D01*
X85987095Y-90965469D01*
X85987392Y-90970622D01*
X85987392Y-90970625D01*
X85993067Y-91069041D01*
X86000427Y-91196697D01*
X86001564Y-91201743D01*
X86001565Y-91201749D01*
X86033741Y-91344523D01*
X86051346Y-91422642D01*
X86053288Y-91427424D01*
X86053289Y-91427428D01*
X86136540Y-91632450D01*
X86138484Y-91637237D01*
X86259501Y-91834719D01*
X86411147Y-92009784D01*
X86589349Y-92157730D01*
X86789322Y-92274584D01*
X87005694Y-92357209D01*
X87010760Y-92358240D01*
X87010761Y-92358240D01*
X87063846Y-92369040D01*
X87232656Y-92403385D01*
X87363324Y-92408176D01*
X87458949Y-92411683D01*
X87458953Y-92411683D01*
X87464113Y-92411872D01*
X87469233Y-92411216D01*
X87469235Y-92411216D01*
X87542270Y-92401860D01*
X87693847Y-92382442D01*
X87698795Y-92380957D01*
X87698802Y-92380956D01*
X87910747Y-92317369D01*
X87915690Y-92315886D01*
X87996236Y-92276427D01*
X88119049Y-92216262D01*
X88119052Y-92216260D01*
X88123684Y-92213991D01*
X88312243Y-92079494D01*
X88476303Y-91916005D01*
X88545370Y-91819888D01*
X88601365Y-91776240D01*
X88672068Y-91769794D01*
X88735033Y-91802597D01*
X88755128Y-91827584D01*
X88756799Y-91830311D01*
X88756804Y-91830317D01*
X88759501Y-91834719D01*
X88911147Y-92009784D01*
X89089349Y-92157730D01*
X89289322Y-92274584D01*
X89505694Y-92357209D01*
X89510760Y-92358240D01*
X89510761Y-92358240D01*
X89563846Y-92369040D01*
X89732656Y-92403385D01*
X89863324Y-92408176D01*
X89958949Y-92411683D01*
X89958953Y-92411683D01*
X89964113Y-92411872D01*
X89969233Y-92411216D01*
X89969235Y-92411216D01*
X90042270Y-92401860D01*
X90193847Y-92382442D01*
X90198795Y-92380957D01*
X90198802Y-92380956D01*
X90410747Y-92317369D01*
X90415690Y-92315886D01*
X90496236Y-92276427D01*
X90619049Y-92216262D01*
X90619052Y-92216260D01*
X90623684Y-92213991D01*
X90812243Y-92079494D01*
X90976303Y-91916005D01*
X91045370Y-91819888D01*
X91101365Y-91776240D01*
X91172068Y-91769794D01*
X91235033Y-91802597D01*
X91255128Y-91827584D01*
X91256799Y-91830311D01*
X91256804Y-91830317D01*
X91259501Y-91834719D01*
X91411147Y-92009784D01*
X91589349Y-92157730D01*
X91789322Y-92274584D01*
X92005694Y-92357209D01*
X92010760Y-92358240D01*
X92010761Y-92358240D01*
X92063846Y-92369040D01*
X92232656Y-92403385D01*
X92363324Y-92408176D01*
X92458949Y-92411683D01*
X92458953Y-92411683D01*
X92464113Y-92411872D01*
X92469233Y-92411216D01*
X92469235Y-92411216D01*
X92542270Y-92401860D01*
X92693847Y-92382442D01*
X92698795Y-92380957D01*
X92698802Y-92380956D01*
X92910747Y-92317369D01*
X92915690Y-92315886D01*
X92996236Y-92276427D01*
X93119049Y-92216262D01*
X93119052Y-92216260D01*
X93123684Y-92213991D01*
X93312243Y-92079494D01*
X93476303Y-91916005D01*
X93611458Y-91727917D01*
X93658641Y-91632450D01*
X93711784Y-91524922D01*
X93711785Y-91524920D01*
X93714078Y-91520280D01*
X93781408Y-91298671D01*
X93811640Y-91069041D01*
X93813327Y-91000000D01*
X93807032Y-90923434D01*
X93794773Y-90774318D01*
X93794772Y-90774312D01*
X93794349Y-90769167D01*
X93737925Y-90544533D01*
X93735866Y-90539797D01*
X93647630Y-90336868D01*
X93647628Y-90336865D01*
X93645570Y-90332131D01*
X93519764Y-90137665D01*
X93363887Y-89966358D01*
X93359836Y-89963159D01*
X93359832Y-89963155D01*
X93186177Y-89826011D01*
X93186172Y-89826008D01*
X93182123Y-89822810D01*
X93177607Y-89820317D01*
X93177604Y-89820315D01*
X92983879Y-89713373D01*
X92983875Y-89713371D01*
X92979355Y-89710876D01*
X92974486Y-89709152D01*
X92974482Y-89709150D01*
X92765903Y-89635288D01*
X92765899Y-89635287D01*
X92761028Y-89633562D01*
X92755935Y-89632655D01*
X92755932Y-89632654D01*
X92538095Y-89593851D01*
X92538089Y-89593850D01*
X92533006Y-89592945D01*
X92460096Y-89592054D01*
X92306581Y-89590179D01*
X92306579Y-89590179D01*
X92301411Y-89590116D01*
X92072464Y-89625150D01*
X91852314Y-89697106D01*
X91847726Y-89699494D01*
X91847722Y-89699496D01*
X91821065Y-89713373D01*
X91646872Y-89804052D01*
X91642739Y-89807155D01*
X91642736Y-89807157D01*
X91617625Y-89826011D01*
X91461655Y-89943117D01*
X91301639Y-90110564D01*
X91254836Y-90179174D01*
X91199927Y-90224175D01*
X91129402Y-90232346D01*
X91065655Y-90201092D01*
X91044959Y-90176609D01*
X91022577Y-90142013D01*
X91022574Y-90142009D01*
X91019764Y-90137665D01*
X90863887Y-89966358D01*
X90859836Y-89963159D01*
X90859832Y-89963155D01*
X90686177Y-89826011D01*
X90686172Y-89826008D01*
X90682123Y-89822810D01*
X90677607Y-89820317D01*
X90677604Y-89820315D01*
X90483879Y-89713373D01*
X90483875Y-89713371D01*
X90479355Y-89710876D01*
X90474486Y-89709152D01*
X90474482Y-89709150D01*
X90265903Y-89635288D01*
X90265899Y-89635287D01*
X90261028Y-89633562D01*
X90255935Y-89632655D01*
X90255932Y-89632654D01*
X90038095Y-89593851D01*
X90038089Y-89593850D01*
X90033006Y-89592945D01*
X89960096Y-89592054D01*
X89806581Y-89590179D01*
X89806579Y-89590179D01*
X89801411Y-89590116D01*
X89572464Y-89625150D01*
X89352314Y-89697106D01*
X89347726Y-89699494D01*
X89347722Y-89699496D01*
X89321065Y-89713373D01*
X89146872Y-89804052D01*
X89142739Y-89807155D01*
X89142736Y-89807157D01*
X89117625Y-89826011D01*
X88961655Y-89943117D01*
X88801639Y-90110564D01*
X88754836Y-90179174D01*
X88699927Y-90224175D01*
X88629402Y-90232346D01*
X88565655Y-90201092D01*
X88544959Y-90176609D01*
X88522577Y-90142013D01*
X88522574Y-90142009D01*
X88519764Y-90137665D01*
X88363887Y-89966358D01*
X88359836Y-89963159D01*
X88359832Y-89963155D01*
X88186177Y-89826011D01*
X88186172Y-89826008D01*
X88182123Y-89822810D01*
X88177607Y-89820317D01*
X88177604Y-89820315D01*
X87983879Y-89713373D01*
X87983875Y-89713371D01*
X87979355Y-89710876D01*
X87974486Y-89709152D01*
X87974482Y-89709150D01*
X87765903Y-89635288D01*
X87765899Y-89635287D01*
X87761028Y-89633562D01*
X87755935Y-89632655D01*
X87755932Y-89632654D01*
X87538095Y-89593851D01*
X87538089Y-89593850D01*
X87533006Y-89592945D01*
X87460096Y-89592054D01*
X87306581Y-89590179D01*
X87306579Y-89590179D01*
X87301411Y-89590116D01*
X87072464Y-89625150D01*
X86852314Y-89697106D01*
X86847726Y-89699494D01*
X86847722Y-89699496D01*
X86821065Y-89713373D01*
X86646872Y-89804052D01*
X86642739Y-89807155D01*
X86642736Y-89807157D01*
X86617625Y-89826011D01*
X86461655Y-89943117D01*
X86301639Y-90110564D01*
X86298730Y-90114829D01*
X86298724Y-90114837D01*
X86283152Y-90137665D01*
X86171119Y-90301899D01*
X86073602Y-90511981D01*
X86011707Y-90735169D01*
X85987095Y-90965469D01*
X38508500Y-90965469D01*
X38508500Y-83916695D01*
X44637251Y-83916695D01*
X44650110Y-84139715D01*
X44651247Y-84144761D01*
X44651248Y-84144767D01*
X44675304Y-84251508D01*
X44699222Y-84357639D01*
X44759014Y-84504890D01*
X44776662Y-84548351D01*
X44783266Y-84564616D01*
X44899987Y-84755088D01*
X45046250Y-84923938D01*
X45218126Y-85066632D01*
X45411000Y-85179338D01*
X45619692Y-85259030D01*
X45624760Y-85260061D01*
X45624763Y-85260062D01*
X45732017Y-85281883D01*
X45838597Y-85303567D01*
X45843772Y-85303757D01*
X45843774Y-85303757D01*
X46056673Y-85311564D01*
X46056677Y-85311564D01*
X46061837Y-85311753D01*
X46066957Y-85311097D01*
X46066959Y-85311097D01*
X46278288Y-85284025D01*
X46278289Y-85284025D01*
X46283416Y-85283368D01*
X46288366Y-85281883D01*
X46492429Y-85220661D01*
X46492434Y-85220659D01*
X46497384Y-85219174D01*
X46697994Y-85120896D01*
X46879860Y-84991173D01*
X47038096Y-84833489D01*
X47097594Y-84750689D01*
X47165435Y-84656277D01*
X47168453Y-84652077D01*
X47170746Y-84647437D01*
X47172446Y-84644608D01*
X47224674Y-84596518D01*
X47280451Y-84583500D01*
X64371233Y-84583500D01*
X64382416Y-84584027D01*
X64389909Y-84585702D01*
X64397835Y-84585453D01*
X64397836Y-84585453D01*
X64457986Y-84583562D01*
X64461945Y-84583500D01*
X64489856Y-84583500D01*
X64493791Y-84583003D01*
X64493856Y-84582995D01*
X64505693Y-84582062D01*
X64537951Y-84581048D01*
X64541970Y-84580922D01*
X64549889Y-84580673D01*
X64569343Y-84575021D01*
X64588700Y-84571013D01*
X64600930Y-84569468D01*
X64600931Y-84569468D01*
X64608797Y-84568474D01*
X64616168Y-84565555D01*
X64616170Y-84565555D01*
X64649912Y-84552196D01*
X64661142Y-84548351D01*
X64695983Y-84538229D01*
X64695984Y-84538229D01*
X64703593Y-84536018D01*
X64710412Y-84531985D01*
X64710417Y-84531983D01*
X64721028Y-84525707D01*
X64738776Y-84517012D01*
X64757617Y-84509552D01*
X64793387Y-84483564D01*
X64803307Y-84477048D01*
X64834535Y-84458580D01*
X64834538Y-84458578D01*
X64841362Y-84454542D01*
X64855683Y-84440221D01*
X64870717Y-84427380D01*
X64880694Y-84420131D01*
X64887107Y-84415472D01*
X64915298Y-84381395D01*
X64923288Y-84372616D01*
X65295904Y-84000000D01*
X82986540Y-84000000D01*
X83006359Y-84315020D01*
X83065505Y-84625072D01*
X83163044Y-84925266D01*
X83164731Y-84928852D01*
X83164733Y-84928856D01*
X83295750Y-85207283D01*
X83295754Y-85207290D01*
X83297438Y-85210869D01*
X83299562Y-85214215D01*
X83299562Y-85214216D01*
X83303652Y-85220661D01*
X83466568Y-85477375D01*
X83667767Y-85720582D01*
X83897860Y-85936654D01*
X84153221Y-86122184D01*
X84429821Y-86274247D01*
X84433490Y-86275700D01*
X84433495Y-86275702D01*
X84719628Y-86388990D01*
X84723298Y-86390443D01*
X85029025Y-86468940D01*
X85342179Y-86508500D01*
X85657821Y-86508500D01*
X85970975Y-86468940D01*
X86276702Y-86390443D01*
X86280372Y-86388990D01*
X86566505Y-86275702D01*
X86566510Y-86275700D01*
X86570179Y-86274247D01*
X86846779Y-86122184D01*
X87102140Y-85936654D01*
X87332233Y-85720582D01*
X87533432Y-85477375D01*
X87696348Y-85220661D01*
X87700438Y-85214216D01*
X87700438Y-85214215D01*
X87702562Y-85210869D01*
X87704246Y-85207290D01*
X87704250Y-85207283D01*
X87835267Y-84928856D01*
X87835269Y-84928852D01*
X87836956Y-84925266D01*
X87934495Y-84625072D01*
X87993641Y-84315020D01*
X88013460Y-84000000D01*
X91786540Y-84000000D01*
X91806359Y-84315020D01*
X91865505Y-84625072D01*
X91963044Y-84925266D01*
X91964731Y-84928852D01*
X91964733Y-84928856D01*
X92095750Y-85207283D01*
X92095754Y-85207290D01*
X92097438Y-85210869D01*
X92099562Y-85214215D01*
X92099562Y-85214216D01*
X92103652Y-85220661D01*
X92266568Y-85477375D01*
X92467767Y-85720582D01*
X92697860Y-85936654D01*
X92953221Y-86122184D01*
X93229821Y-86274247D01*
X93233490Y-86275700D01*
X93233495Y-86275702D01*
X93519628Y-86388990D01*
X93523298Y-86390443D01*
X93829025Y-86468940D01*
X94142179Y-86508500D01*
X94457821Y-86508500D01*
X94770975Y-86468940D01*
X95076702Y-86390443D01*
X95080372Y-86388990D01*
X95366505Y-86275702D01*
X95366510Y-86275700D01*
X95370179Y-86274247D01*
X95646779Y-86122184D01*
X95902140Y-85936654D01*
X96132233Y-85720582D01*
X96333432Y-85477375D01*
X96496348Y-85220661D01*
X96500438Y-85214216D01*
X96500438Y-85214215D01*
X96502562Y-85210869D01*
X96504246Y-85207290D01*
X96504250Y-85207283D01*
X96635267Y-84928856D01*
X96635269Y-84928852D01*
X96636956Y-84925266D01*
X96734495Y-84625072D01*
X96793641Y-84315020D01*
X96813460Y-84000000D01*
X96793641Y-83684980D01*
X96734495Y-83374928D01*
X96636956Y-83074734D01*
X96579697Y-82953051D01*
X96504250Y-82792717D01*
X96504246Y-82792710D01*
X96502562Y-82789131D01*
X96333432Y-82522625D01*
X96215468Y-82380031D01*
X96134758Y-82282470D01*
X96134757Y-82282469D01*
X96132233Y-82279418D01*
X95902140Y-82063346D01*
X95646779Y-81877816D01*
X95581662Y-81842017D01*
X95373648Y-81727660D01*
X95373647Y-81727659D01*
X95370179Y-81725753D01*
X95366510Y-81724300D01*
X95366505Y-81724298D01*
X95080372Y-81611010D01*
X95080371Y-81611010D01*
X95076702Y-81609557D01*
X94770975Y-81531060D01*
X94457821Y-81491500D01*
X94142179Y-81491500D01*
X93829025Y-81531060D01*
X93523298Y-81609557D01*
X93519629Y-81611010D01*
X93519628Y-81611010D01*
X93233495Y-81724298D01*
X93233490Y-81724300D01*
X93229821Y-81725753D01*
X93226353Y-81727659D01*
X93226352Y-81727660D01*
X93018339Y-81842017D01*
X92953221Y-81877816D01*
X92697860Y-82063346D01*
X92467767Y-82279418D01*
X92465243Y-82282469D01*
X92465242Y-82282470D01*
X92384532Y-82380031D01*
X92266568Y-82522625D01*
X92097438Y-82789131D01*
X92095754Y-82792710D01*
X92095750Y-82792717D01*
X92020303Y-82953051D01*
X91963044Y-83074734D01*
X91865505Y-83374928D01*
X91806359Y-83684980D01*
X91786540Y-84000000D01*
X88013460Y-84000000D01*
X87993641Y-83684980D01*
X87934495Y-83374928D01*
X87836956Y-83074734D01*
X87779697Y-82953051D01*
X87704250Y-82792717D01*
X87704246Y-82792710D01*
X87702562Y-82789131D01*
X87533432Y-82522625D01*
X87415468Y-82380031D01*
X87334758Y-82282470D01*
X87334757Y-82282469D01*
X87332233Y-82279418D01*
X87102140Y-82063346D01*
X86846779Y-81877816D01*
X86781662Y-81842017D01*
X86573648Y-81727660D01*
X86573647Y-81727659D01*
X86570179Y-81725753D01*
X86566510Y-81724300D01*
X86566505Y-81724298D01*
X86280372Y-81611010D01*
X86280371Y-81611010D01*
X86276702Y-81609557D01*
X85970975Y-81531060D01*
X85657821Y-81491500D01*
X85342179Y-81491500D01*
X85029025Y-81531060D01*
X84723298Y-81609557D01*
X84719629Y-81611010D01*
X84719628Y-81611010D01*
X84433495Y-81724298D01*
X84433490Y-81724300D01*
X84429821Y-81725753D01*
X84426353Y-81727659D01*
X84426352Y-81727660D01*
X84218339Y-81842017D01*
X84153221Y-81877816D01*
X83897860Y-82063346D01*
X83667767Y-82279418D01*
X83665243Y-82282469D01*
X83665242Y-82282470D01*
X83584532Y-82380031D01*
X83466568Y-82522625D01*
X83297438Y-82789131D01*
X83295754Y-82792710D01*
X83295750Y-82792717D01*
X83220303Y-82953051D01*
X83163044Y-83074734D01*
X83065505Y-83374928D01*
X83006359Y-83684980D01*
X82986540Y-84000000D01*
X65295904Y-84000000D01*
X70427253Y-78868652D01*
X70435539Y-78861112D01*
X70442018Y-78857000D01*
X70488644Y-78807348D01*
X70491398Y-78804507D01*
X70511135Y-78784770D01*
X70513615Y-78781573D01*
X70521320Y-78772551D01*
X70524848Y-78768794D01*
X70551586Y-78740321D01*
X70555405Y-78733375D01*
X70555407Y-78733372D01*
X70561348Y-78722566D01*
X70572199Y-78706047D01*
X70579758Y-78696301D01*
X70584614Y-78690041D01*
X70587759Y-78682772D01*
X70587762Y-78682768D01*
X70602174Y-78649463D01*
X70607391Y-78638813D01*
X70628695Y-78600060D01*
X70633733Y-78580437D01*
X70640137Y-78561734D01*
X70645033Y-78550420D01*
X70645033Y-78550419D01*
X70648181Y-78543145D01*
X70649420Y-78535322D01*
X70649423Y-78535312D01*
X70655099Y-78499476D01*
X70657505Y-78487856D01*
X70666528Y-78452711D01*
X70666528Y-78452710D01*
X70668500Y-78445030D01*
X70668500Y-78424776D01*
X70670051Y-78405065D01*
X70671980Y-78392886D01*
X70673220Y-78385057D01*
X70669059Y-78341038D01*
X70668500Y-78329181D01*
X70668500Y-78067524D01*
X70688502Y-77999403D01*
X70700858Y-77983221D01*
X70774040Y-77901944D01*
X70869527Y-77736556D01*
X70928542Y-77554928D01*
X70930023Y-77540842D01*
X70947814Y-77371565D01*
X70948504Y-77365000D01*
X70939758Y-77281787D01*
X70929232Y-77181635D01*
X70929232Y-77181633D01*
X70928542Y-77175072D01*
X70869527Y-76993444D01*
X70774040Y-76828056D01*
X70687953Y-76732446D01*
X70650675Y-76691045D01*
X70650674Y-76691044D01*
X70646253Y-76686134D01*
X70491752Y-76573882D01*
X70485724Y-76571198D01*
X70485722Y-76571197D01*
X70323319Y-76498891D01*
X70323318Y-76498891D01*
X70317288Y-76496206D01*
X70223888Y-76476353D01*
X70136944Y-76457872D01*
X70136939Y-76457872D01*
X70130487Y-76456500D01*
X69939513Y-76456500D01*
X69933061Y-76457872D01*
X69933056Y-76457872D01*
X69846112Y-76476353D01*
X69752712Y-76496206D01*
X69746682Y-76498891D01*
X69746681Y-76498891D01*
X69584278Y-76571197D01*
X69584276Y-76571198D01*
X69578248Y-76573882D01*
X69423747Y-76686134D01*
X69419326Y-76691044D01*
X69419325Y-76691045D01*
X69382048Y-76732446D01*
X69295960Y-76828056D01*
X69200473Y-76993444D01*
X69141458Y-77175072D01*
X69140768Y-77181633D01*
X69140768Y-77181635D01*
X69130242Y-77281787D01*
X69121496Y-77365000D01*
X69122186Y-77371565D01*
X69139978Y-77540842D01*
X69141458Y-77554928D01*
X69200473Y-77736556D01*
X69295960Y-77901944D01*
X69300375Y-77906847D01*
X69361026Y-77974207D01*
X69391743Y-78038215D01*
X69382978Y-78108668D01*
X69356484Y-78147612D01*
X64224500Y-83279595D01*
X64162188Y-83313621D01*
X64135405Y-83316500D01*
X47276805Y-83316500D01*
X47208684Y-83296498D01*
X47171013Y-83258940D01*
X47082822Y-83122617D01*
X47082820Y-83122614D01*
X47080014Y-83118277D01*
X46929670Y-82953051D01*
X46925619Y-82949852D01*
X46925615Y-82949848D01*
X46758414Y-82817800D01*
X46758410Y-82817798D01*
X46754359Y-82814598D01*
X46713053Y-82791796D01*
X46663084Y-82741364D01*
X46648312Y-82671921D01*
X46673428Y-82605516D01*
X46700780Y-82578909D01*
X46744603Y-82547650D01*
X46879860Y-82451173D01*
X47038096Y-82293489D01*
X47097594Y-82210689D01*
X47165435Y-82116277D01*
X47168453Y-82112077D01*
X47191198Y-82066057D01*
X47265136Y-81916453D01*
X47265137Y-81916451D01*
X47267430Y-81911811D01*
X47332370Y-81698069D01*
X47361529Y-81476590D01*
X47363156Y-81410000D01*
X47344852Y-81187361D01*
X47290431Y-80970702D01*
X47201354Y-80765840D01*
X47080014Y-80578277D01*
X46929670Y-80413051D01*
X46925619Y-80409852D01*
X46925615Y-80409848D01*
X46758414Y-80277800D01*
X46758410Y-80277798D01*
X46754359Y-80274598D01*
X46713053Y-80251796D01*
X46663084Y-80201364D01*
X46648312Y-80131921D01*
X46673428Y-80065516D01*
X46700780Y-80038909D01*
X46751170Y-80002966D01*
X46879860Y-79911173D01*
X47038096Y-79753489D01*
X47097594Y-79670689D01*
X47165435Y-79576277D01*
X47168453Y-79572077D01*
X47267430Y-79371811D01*
X47332370Y-79158069D01*
X47361529Y-78936590D01*
X47363156Y-78870000D01*
X47344852Y-78647361D01*
X47290431Y-78430702D01*
X47201354Y-78225840D01*
X47080014Y-78038277D01*
X46929670Y-77873051D01*
X46925619Y-77869852D01*
X46925615Y-77869848D01*
X46758414Y-77737800D01*
X46758410Y-77737798D01*
X46754359Y-77734598D01*
X46712569Y-77711529D01*
X46662598Y-77661097D01*
X46647826Y-77591654D01*
X46672942Y-77525248D01*
X46700294Y-77498641D01*
X46875328Y-77373792D01*
X46883200Y-77367139D01*
X47034052Y-77216812D01*
X47040730Y-77208965D01*
X47165003Y-77036020D01*
X47170313Y-77027183D01*
X47264670Y-76836267D01*
X47268469Y-76826672D01*
X47330377Y-76622910D01*
X47332555Y-76612837D01*
X47333986Y-76601962D01*
X47331775Y-76587778D01*
X47318617Y-76584000D01*
X44683225Y-76584000D01*
X44669694Y-76587973D01*
X44668257Y-76597966D01*
X44698565Y-76732446D01*
X44701645Y-76742275D01*
X44781770Y-76939603D01*
X44786413Y-76948794D01*
X44897694Y-77130388D01*
X44903777Y-77138699D01*
X45043213Y-77299667D01*
X45050580Y-77306883D01*
X45214434Y-77442916D01*
X45222881Y-77448831D01*
X45291969Y-77489203D01*
X45340693Y-77540842D01*
X45353764Y-77610625D01*
X45327033Y-77676396D01*
X45286584Y-77709752D01*
X45273607Y-77716507D01*
X45269474Y-77719610D01*
X45269471Y-77719612D01*
X45099100Y-77847530D01*
X45094965Y-77850635D01*
X44940629Y-78012138D01*
X44814743Y-78196680D01*
X44799003Y-78230590D01*
X44723668Y-78392886D01*
X44720688Y-78399305D01*
X44660989Y-78614570D01*
X44637251Y-78836695D01*
X44637548Y-78841848D01*
X44637548Y-78841851D01*
X44643011Y-78936590D01*
X44650110Y-79059715D01*
X44651247Y-79064761D01*
X44651248Y-79064767D01*
X44671119Y-79152939D01*
X44699222Y-79277639D01*
X44783266Y-79484616D01*
X44899987Y-79675088D01*
X45046250Y-79843938D01*
X45218126Y-79986632D01*
X45288595Y-80027811D01*
X45291445Y-80029476D01*
X45340169Y-80081114D01*
X45353240Y-80150897D01*
X45326509Y-80216669D01*
X45286055Y-80250027D01*
X45273607Y-80256507D01*
X45269474Y-80259610D01*
X45269471Y-80259612D01*
X45156218Y-80344645D01*
X45094965Y-80390635D01*
X45091393Y-80394373D01*
X44945829Y-80546697D01*
X44940629Y-80552138D01*
X44814743Y-80736680D01*
X44799003Y-80770590D01*
X44725799Y-80928295D01*
X44720688Y-80939305D01*
X44660989Y-81154570D01*
X44637251Y-81376695D01*
X44637548Y-81381848D01*
X44637548Y-81381851D01*
X44643870Y-81491500D01*
X44650110Y-81599715D01*
X44651247Y-81604761D01*
X44651248Y-81604767D01*
X44652328Y-81609557D01*
X44699222Y-81817639D01*
X44783266Y-82024616D01*
X44899987Y-82215088D01*
X45046250Y-82383938D01*
X45122846Y-82447529D01*
X45213300Y-82522625D01*
X45218126Y-82526632D01*
X45288595Y-82567811D01*
X45291445Y-82569476D01*
X45340169Y-82621114D01*
X45353240Y-82690897D01*
X45326509Y-82756669D01*
X45286055Y-82790027D01*
X45280888Y-82792717D01*
X45273607Y-82796507D01*
X45269474Y-82799610D01*
X45269471Y-82799612D01*
X45245247Y-82817800D01*
X45094965Y-82930635D01*
X44940629Y-83092138D01*
X44814743Y-83276680D01*
X44720688Y-83479305D01*
X44660989Y-83694570D01*
X44637251Y-83916695D01*
X38508500Y-83916695D01*
X38508500Y-73756695D01*
X44637251Y-73756695D01*
X44637548Y-73761848D01*
X44637548Y-73761851D01*
X44643011Y-73856590D01*
X44650110Y-73979715D01*
X44651247Y-73984761D01*
X44651248Y-73984767D01*
X44665847Y-74049544D01*
X44699222Y-74197639D01*
X44783266Y-74404616D01*
X44797273Y-74427473D01*
X44886059Y-74572359D01*
X44899987Y-74595088D01*
X45046250Y-74763938D01*
X45218126Y-74906632D01*
X45291955Y-74949774D01*
X45340679Y-75001412D01*
X45353750Y-75071195D01*
X45327019Y-75136967D01*
X45286562Y-75170327D01*
X45278457Y-75174546D01*
X45269738Y-75180036D01*
X45099433Y-75307905D01*
X45091726Y-75314748D01*
X44944590Y-75468717D01*
X44938104Y-75476727D01*
X44818098Y-75652649D01*
X44813000Y-75661623D01*
X44723338Y-75854783D01*
X44719775Y-75864470D01*
X44664389Y-76064183D01*
X44665912Y-76072607D01*
X44678292Y-76076000D01*
X47318344Y-76076000D01*
X47331875Y-76072027D01*
X47333180Y-76062947D01*
X47291214Y-75895875D01*
X47287894Y-75886124D01*
X47202972Y-75690814D01*
X47198105Y-75681739D01*
X47082426Y-75502926D01*
X47076136Y-75494757D01*
X46932806Y-75337240D01*
X46925273Y-75330215D01*
X46758139Y-75198222D01*
X46749556Y-75192520D01*
X46712602Y-75172120D01*
X46662631Y-75121687D01*
X46647859Y-75052245D01*
X46672975Y-74985839D01*
X46700327Y-74959232D01*
X46758919Y-74917439D01*
X46879860Y-74831173D01*
X46907513Y-74803617D01*
X47034435Y-74677137D01*
X47038096Y-74673489D01*
X47097594Y-74590689D01*
X47165435Y-74496277D01*
X47168453Y-74492077D01*
X47181604Y-74465469D01*
X47265136Y-74296453D01*
X47265137Y-74296451D01*
X47267430Y-74291811D01*
X47314933Y-74135461D01*
X47330865Y-74083023D01*
X47330865Y-74083021D01*
X47332370Y-74078069D01*
X47361529Y-73856590D01*
X47363156Y-73790000D01*
X47344852Y-73567361D01*
X47290431Y-73350702D01*
X47201354Y-73145840D01*
X47080014Y-72958277D01*
X47076532Y-72954450D01*
X46932798Y-72796488D01*
X46901746Y-72732642D01*
X46910141Y-72662143D01*
X46955317Y-72607375D01*
X46981761Y-72593706D01*
X47088297Y-72553767D01*
X47096705Y-72550615D01*
X47213261Y-72463261D01*
X47300615Y-72346705D01*
X47351745Y-72210316D01*
X47358500Y-72148134D01*
X47358500Y-70351866D01*
X47351745Y-70289684D01*
X47300615Y-70153295D01*
X47213261Y-70036739D01*
X47096705Y-69949385D01*
X46960316Y-69898255D01*
X46898134Y-69891500D01*
X45101866Y-69891500D01*
X45039684Y-69898255D01*
X44903295Y-69949385D01*
X44786739Y-70036739D01*
X44699385Y-70153295D01*
X44648255Y-70289684D01*
X44641500Y-70351866D01*
X44641500Y-72148134D01*
X44648255Y-72210316D01*
X44699385Y-72346705D01*
X44786739Y-72463261D01*
X44903295Y-72550615D01*
X44911704Y-72553767D01*
X44911705Y-72553768D01*
X45020451Y-72594535D01*
X45077216Y-72637176D01*
X45101916Y-72703738D01*
X45086709Y-72773087D01*
X45067316Y-72799568D01*
X44940629Y-72932138D01*
X44814743Y-73116680D01*
X44720688Y-73319305D01*
X44660989Y-73534570D01*
X44637251Y-73756695D01*
X38508500Y-73756695D01*
X38508500Y-63046695D01*
X44637251Y-63046695D01*
X44637548Y-63051848D01*
X44637548Y-63051851D01*
X44643011Y-63146590D01*
X44650110Y-63269715D01*
X44651247Y-63274761D01*
X44651248Y-63274767D01*
X44666822Y-63343871D01*
X44699222Y-63487639D01*
X44783266Y-63694616D01*
X44899987Y-63885088D01*
X45046250Y-64053938D01*
X45218126Y-64196632D01*
X45411000Y-64309338D01*
X45619692Y-64389030D01*
X45624760Y-64390061D01*
X45624763Y-64390062D01*
X45684891Y-64402295D01*
X45838597Y-64433567D01*
X45843772Y-64433757D01*
X45843774Y-64433757D01*
X46056673Y-64441564D01*
X46056677Y-64441564D01*
X46061837Y-64441753D01*
X46066957Y-64441097D01*
X46066959Y-64441097D01*
X46264589Y-64415780D01*
X46334699Y-64426965D01*
X46369694Y-64451664D01*
X62402415Y-80484385D01*
X62436441Y-80546697D01*
X62433422Y-80611578D01*
X62408765Y-80689306D01*
X62386719Y-80885851D01*
X62387235Y-80891995D01*
X62391208Y-80939305D01*
X62403268Y-81082934D01*
X62457783Y-81273050D01*
X62460602Y-81278535D01*
X62529896Y-81413365D01*
X62548187Y-81448956D01*
X62671035Y-81603953D01*
X62675728Y-81607947D01*
X62675729Y-81607948D01*
X62816391Y-81727660D01*
X62821650Y-81732136D01*
X62994294Y-81828624D01*
X63182392Y-81889740D01*
X63378777Y-81913158D01*
X63384912Y-81912686D01*
X63384914Y-81912686D01*
X63569830Y-81898457D01*
X63569834Y-81898456D01*
X63575972Y-81897984D01*
X63766463Y-81844798D01*
X63771967Y-81842018D01*
X63771969Y-81842017D01*
X63937495Y-81758404D01*
X63937497Y-81758403D01*
X63942996Y-81755625D01*
X64098847Y-81633861D01*
X64192489Y-81525376D01*
X64224049Y-81488813D01*
X64224050Y-81488811D01*
X64228078Y-81484145D01*
X64325769Y-81312179D01*
X64388197Y-81124513D01*
X64412985Y-80928295D01*
X64413380Y-80900000D01*
X64394080Y-80703167D01*
X64336916Y-80513831D01*
X64244066Y-80339204D01*
X64144129Y-80216669D01*
X64122960Y-80190713D01*
X64122957Y-80190710D01*
X64119065Y-80185938D01*
X63990240Y-80079365D01*
X63966717Y-80053648D01*
X63939660Y-80014279D01*
X63939657Y-80014275D01*
X63935357Y-80008019D01*
X63888829Y-79966564D01*
X63883554Y-79961584D01*
X47371383Y-63449413D01*
X47337357Y-63387101D01*
X47335556Y-63343871D01*
X47361092Y-63149908D01*
X47361529Y-63146590D01*
X47363156Y-63080000D01*
X47344852Y-62857361D01*
X47290431Y-62640702D01*
X47201354Y-62435840D01*
X47080014Y-62248277D01*
X46929670Y-62083051D01*
X46925619Y-62079852D01*
X46925615Y-62079848D01*
X46758414Y-61947800D01*
X46758410Y-61947798D01*
X46754359Y-61944598D01*
X46712569Y-61921529D01*
X46662598Y-61871097D01*
X46647826Y-61801654D01*
X46672942Y-61735248D01*
X46700294Y-61708641D01*
X46875328Y-61583792D01*
X46883200Y-61577139D01*
X47034052Y-61426812D01*
X47040730Y-61418965D01*
X47165003Y-61246020D01*
X47170313Y-61237183D01*
X47264670Y-61046267D01*
X47268469Y-61036672D01*
X47330377Y-60832910D01*
X47332555Y-60822837D01*
X47333986Y-60811962D01*
X47331775Y-60797778D01*
X47318617Y-60794000D01*
X44683225Y-60794000D01*
X44669694Y-60797973D01*
X44668257Y-60807966D01*
X44698565Y-60942446D01*
X44701645Y-60952275D01*
X44781770Y-61149603D01*
X44786413Y-61158794D01*
X44897694Y-61340388D01*
X44903777Y-61348699D01*
X45043213Y-61509667D01*
X45050580Y-61516883D01*
X45214434Y-61652916D01*
X45222881Y-61658831D01*
X45291969Y-61699203D01*
X45340693Y-61750842D01*
X45353764Y-61820625D01*
X45327033Y-61886396D01*
X45286584Y-61919752D01*
X45273607Y-61926507D01*
X45269474Y-61929610D01*
X45269471Y-61929612D01*
X45245247Y-61947800D01*
X45094965Y-62060635D01*
X44940629Y-62222138D01*
X44814743Y-62406680D01*
X44720688Y-62609305D01*
X44660989Y-62824570D01*
X44637251Y-63046695D01*
X38508500Y-63046695D01*
X38508500Y-58898134D01*
X44641500Y-58898134D01*
X44648255Y-58960316D01*
X44699385Y-59096705D01*
X44786739Y-59213261D01*
X44903295Y-59300615D01*
X44911704Y-59303767D01*
X44911705Y-59303768D01*
X45020960Y-59344726D01*
X45077725Y-59387367D01*
X45102425Y-59453929D01*
X45087218Y-59523278D01*
X45067825Y-59549759D01*
X44944590Y-59678717D01*
X44938104Y-59686727D01*
X44818098Y-59862649D01*
X44813000Y-59871623D01*
X44723338Y-60064783D01*
X44719775Y-60074470D01*
X44664389Y-60274183D01*
X44665912Y-60282607D01*
X44678292Y-60286000D01*
X47318344Y-60286000D01*
X47331875Y-60282027D01*
X47333180Y-60272947D01*
X47291214Y-60105875D01*
X47287894Y-60096124D01*
X47202972Y-59900814D01*
X47198105Y-59891739D01*
X47082426Y-59712926D01*
X47076136Y-59704757D01*
X46932293Y-59546677D01*
X46901241Y-59482831D01*
X46909635Y-59412333D01*
X46954812Y-59357564D01*
X46981256Y-59343895D01*
X47088297Y-59303767D01*
X47096705Y-59300615D01*
X47213261Y-59213261D01*
X47300615Y-59096705D01*
X47351745Y-58960316D01*
X47358500Y-58898134D01*
X47358500Y-58834500D01*
X47378502Y-58766379D01*
X47432158Y-58719886D01*
X47484500Y-58708500D01*
X67765500Y-58708500D01*
X67833621Y-58728502D01*
X67880114Y-58782158D01*
X67891500Y-58834500D01*
X67891499Y-61942101D01*
X67891499Y-65029482D01*
X67871497Y-65097603D01*
X67862020Y-65110472D01*
X67763845Y-65227473D01*
X67760878Y-65232871D01*
X67760874Y-65232876D01*
X67757396Y-65239203D01*
X67668566Y-65400786D01*
X67666705Y-65406653D01*
X67666704Y-65406655D01*
X67617737Y-65561018D01*
X67608764Y-65589305D01*
X67586718Y-65785850D01*
X67603267Y-65982933D01*
X67657782Y-66173049D01*
X67748186Y-66348955D01*
X67857762Y-66487206D01*
X67864245Y-66495386D01*
X67890882Y-66561196D01*
X67891499Y-66573650D01*
X67891499Y-74229482D01*
X67871497Y-74297603D01*
X67862020Y-74310472D01*
X67763845Y-74427473D01*
X67762537Y-74429852D01*
X67708471Y-74474002D01*
X67637932Y-74482048D01*
X67574241Y-74450681D01*
X67537618Y-74389859D01*
X67533500Y-74357908D01*
X67533500Y-70678767D01*
X67534027Y-70667584D01*
X67535702Y-70660091D01*
X67533562Y-70592014D01*
X67533500Y-70588055D01*
X67533500Y-70560144D01*
X67532995Y-70556144D01*
X67532062Y-70544301D01*
X67530922Y-70508029D01*
X67530673Y-70500110D01*
X67525022Y-70480658D01*
X67521014Y-70461306D01*
X67519467Y-70449063D01*
X67518474Y-70441203D01*
X67515556Y-70433832D01*
X67502200Y-70400097D01*
X67498355Y-70388870D01*
X67497721Y-70386687D01*
X67486018Y-70346407D01*
X67481984Y-70339585D01*
X67481981Y-70339579D01*
X67475706Y-70328968D01*
X67467010Y-70311218D01*
X67462472Y-70299756D01*
X67462469Y-70299751D01*
X67459552Y-70292383D01*
X67433573Y-70256625D01*
X67427057Y-70246707D01*
X67408575Y-70215457D01*
X67404542Y-70208637D01*
X67390218Y-70194313D01*
X67377376Y-70179278D01*
X67365472Y-70162893D01*
X67331406Y-70134711D01*
X67322627Y-70126722D01*
X65547122Y-68351217D01*
X65513096Y-68288905D01*
X65510907Y-68275292D01*
X65494232Y-68116635D01*
X65494232Y-68116633D01*
X65493542Y-68110072D01*
X65434527Y-67928444D01*
X65339040Y-67763056D01*
X65211253Y-67621134D01*
X65056752Y-67508882D01*
X65050724Y-67506198D01*
X65050722Y-67506197D01*
X64888319Y-67433891D01*
X64888318Y-67433891D01*
X64882288Y-67431206D01*
X64788887Y-67411353D01*
X64701944Y-67392872D01*
X64701939Y-67392872D01*
X64695487Y-67391500D01*
X64504513Y-67391500D01*
X64498061Y-67392872D01*
X64498056Y-67392872D01*
X64411113Y-67411353D01*
X64317712Y-67431206D01*
X64311682Y-67433891D01*
X64311681Y-67433891D01*
X64149278Y-67506197D01*
X64149276Y-67506198D01*
X64143248Y-67508882D01*
X63988747Y-67621134D01*
X63860960Y-67763056D01*
X63765473Y-67928444D01*
X63706458Y-68110072D01*
X63705768Y-68116633D01*
X63705768Y-68116635D01*
X63689093Y-68275292D01*
X63686496Y-68300000D01*
X63706458Y-68489928D01*
X63765473Y-68671556D01*
X63860960Y-68836944D01*
X63988747Y-68978866D01*
X64143248Y-69091118D01*
X64149276Y-69093802D01*
X64149278Y-69093803D01*
X64311681Y-69166109D01*
X64317712Y-69168794D01*
X64411112Y-69188647D01*
X64498056Y-69207128D01*
X64498061Y-69207128D01*
X64504513Y-69208500D01*
X64560406Y-69208500D01*
X64628527Y-69228502D01*
X64649501Y-69245405D01*
X66229595Y-70825499D01*
X66263621Y-70887811D01*
X66266500Y-70914594D01*
X66266500Y-77197476D01*
X66246498Y-77265597D01*
X66234142Y-77281779D01*
X66160960Y-77363056D01*
X66065473Y-77528444D01*
X66006458Y-77710072D01*
X66005768Y-77716633D01*
X66005768Y-77716635D01*
X65989665Y-77869848D01*
X65986496Y-77900000D01*
X65987186Y-77906565D01*
X65996944Y-77999403D01*
X66006458Y-78089928D01*
X66065473Y-78271556D01*
X66160960Y-78436944D01*
X66165378Y-78441851D01*
X66165379Y-78441852D01*
X66206801Y-78487856D01*
X66288747Y-78578866D01*
X66443248Y-78691118D01*
X66449276Y-78693802D01*
X66449278Y-78693803D01*
X66538152Y-78733372D01*
X66617712Y-78768794D01*
X66711112Y-78788647D01*
X66798056Y-78807128D01*
X66798061Y-78807128D01*
X66804513Y-78808500D01*
X66995487Y-78808500D01*
X67001939Y-78807128D01*
X67001944Y-78807128D01*
X67088888Y-78788647D01*
X67182288Y-78768794D01*
X67261848Y-78733372D01*
X67350722Y-78693803D01*
X67350724Y-78693802D01*
X67356752Y-78691118D01*
X67511253Y-78578866D01*
X67593199Y-78487856D01*
X67634621Y-78441852D01*
X67634622Y-78441851D01*
X67639040Y-78436944D01*
X67734527Y-78271556D01*
X67793542Y-78089928D01*
X67803057Y-77999403D01*
X67812814Y-77906565D01*
X67813504Y-77900000D01*
X67810335Y-77869848D01*
X67794232Y-77716635D01*
X67794232Y-77716633D01*
X67793542Y-77710072D01*
X67734527Y-77528444D01*
X67639040Y-77363056D01*
X67565863Y-77281785D01*
X67535147Y-77217779D01*
X67533500Y-77197476D01*
X67533500Y-75639912D01*
X67553502Y-75571791D01*
X67607158Y-75525298D01*
X67677432Y-75515194D01*
X67742012Y-75544688D01*
X67758246Y-75561648D01*
X67867205Y-75699122D01*
X67867210Y-75699127D01*
X67871034Y-75703952D01*
X67875727Y-75707946D01*
X67875728Y-75707947D01*
X67999335Y-75813144D01*
X68021649Y-75832135D01*
X68194293Y-75928623D01*
X68382391Y-75989739D01*
X68578776Y-76013157D01*
X68584911Y-76012685D01*
X68584913Y-76012685D01*
X68769829Y-75998456D01*
X68769833Y-75998455D01*
X68775971Y-75997983D01*
X68966462Y-75944797D01*
X68971966Y-75942017D01*
X68971968Y-75942016D01*
X69137494Y-75858403D01*
X69137496Y-75858402D01*
X69142995Y-75855624D01*
X69298846Y-75733860D01*
X69361386Y-75661406D01*
X86503423Y-75661406D01*
X86508704Y-75668461D01*
X86685080Y-75771527D01*
X86694363Y-75775974D01*
X86901003Y-75854883D01*
X86910901Y-75857759D01*
X87127653Y-75901857D01*
X87137883Y-75903076D01*
X87358914Y-75911182D01*
X87369223Y-75910714D01*
X87588623Y-75882608D01*
X87598688Y-75880468D01*
X87810557Y-75816905D01*
X87820152Y-75813144D01*
X88018778Y-75715838D01*
X88027636Y-75710559D01*
X88085097Y-75669572D01*
X88093497Y-75658874D01*
X88086510Y-75645721D01*
X87312811Y-74872021D01*
X87298868Y-74864408D01*
X87297034Y-74864539D01*
X87290420Y-74868790D01*
X86510180Y-75649031D01*
X86503423Y-75661406D01*
X69361386Y-75661406D01*
X69428077Y-75584144D01*
X69525768Y-75412178D01*
X69588196Y-75224512D01*
X69612984Y-75028294D01*
X69613379Y-74999999D01*
X69594079Y-74803166D01*
X69536915Y-74613830D01*
X69460779Y-74470638D01*
X85887893Y-74470638D01*
X85900627Y-74691468D01*
X85902061Y-74701670D01*
X85950685Y-74917439D01*
X85953773Y-74927292D01*
X86036986Y-75132220D01*
X86041634Y-75141421D01*
X86130097Y-75285781D01*
X86140553Y-75295242D01*
X86149331Y-75291458D01*
X86927979Y-74512811D01*
X86934356Y-74501132D01*
X87664408Y-74501132D01*
X87664539Y-74502966D01*
X87668790Y-74509580D01*
X88446307Y-75287096D01*
X88458313Y-75293652D01*
X88467244Y-75286829D01*
X88533519Y-75261370D01*
X88603037Y-75275783D01*
X88651165Y-75321117D01*
X88656741Y-75330215D01*
X88659501Y-75334719D01*
X88811147Y-75509784D01*
X88989349Y-75657730D01*
X89189322Y-75774584D01*
X89405694Y-75857209D01*
X89410760Y-75858240D01*
X89410761Y-75858240D01*
X89441383Y-75864470D01*
X89632656Y-75903385D01*
X89763324Y-75908176D01*
X89858949Y-75911683D01*
X89858953Y-75911683D01*
X89864113Y-75911872D01*
X89869233Y-75911216D01*
X89869235Y-75911216D01*
X89988987Y-75895875D01*
X90093847Y-75882442D01*
X90098795Y-75880957D01*
X90098802Y-75880956D01*
X90310747Y-75817369D01*
X90315690Y-75815886D01*
X90397161Y-75775974D01*
X90519049Y-75716262D01*
X90519052Y-75716260D01*
X90523684Y-75713991D01*
X90712243Y-75579494D01*
X90876303Y-75416005D01*
X90945370Y-75319888D01*
X91001365Y-75276240D01*
X91072068Y-75269794D01*
X91135033Y-75302597D01*
X91155128Y-75327584D01*
X91156799Y-75330311D01*
X91156802Y-75330315D01*
X91159501Y-75334719D01*
X91311147Y-75509784D01*
X91489349Y-75657730D01*
X91689322Y-75774584D01*
X91905694Y-75857209D01*
X91910760Y-75858240D01*
X91910761Y-75858240D01*
X91941383Y-75864470D01*
X92132656Y-75903385D01*
X92263324Y-75908176D01*
X92358949Y-75911683D01*
X92358953Y-75911683D01*
X92364113Y-75911872D01*
X92369233Y-75911216D01*
X92369235Y-75911216D01*
X92488987Y-75895875D01*
X92593847Y-75882442D01*
X92598795Y-75880957D01*
X92598802Y-75880956D01*
X92810747Y-75817369D01*
X92815690Y-75815886D01*
X92897161Y-75775974D01*
X93019049Y-75716262D01*
X93019052Y-75716260D01*
X93023684Y-75713991D01*
X93212243Y-75579494D01*
X93376303Y-75416005D01*
X93511458Y-75227917D01*
X93533691Y-75182933D01*
X93611784Y-75024922D01*
X93611785Y-75024920D01*
X93614078Y-75020280D01*
X93681408Y-74798671D01*
X93711640Y-74569041D01*
X93713327Y-74500000D01*
X93697745Y-74310473D01*
X93694773Y-74274318D01*
X93694772Y-74274312D01*
X93694349Y-74269167D01*
X93660797Y-74135592D01*
X93639184Y-74049544D01*
X93639183Y-74049540D01*
X93637925Y-74044533D01*
X93611938Y-73984767D01*
X93547630Y-73836868D01*
X93547628Y-73836865D01*
X93545570Y-73832131D01*
X93419764Y-73637665D01*
X93263887Y-73466358D01*
X93259836Y-73463159D01*
X93259832Y-73463155D01*
X93086177Y-73326011D01*
X93086172Y-73326008D01*
X93082123Y-73322810D01*
X93077607Y-73320317D01*
X93077604Y-73320315D01*
X92883879Y-73213373D01*
X92883875Y-73213371D01*
X92879355Y-73210876D01*
X92874486Y-73209152D01*
X92874482Y-73209150D01*
X92665903Y-73135288D01*
X92665899Y-73135287D01*
X92661028Y-73133562D01*
X92655935Y-73132655D01*
X92655932Y-73132654D01*
X92438095Y-73093851D01*
X92438089Y-73093850D01*
X92433006Y-73092945D01*
X92360096Y-73092054D01*
X92206581Y-73090179D01*
X92206579Y-73090179D01*
X92201411Y-73090116D01*
X91972464Y-73125150D01*
X91752314Y-73197106D01*
X91747726Y-73199494D01*
X91747722Y-73199496D01*
X91551461Y-73301663D01*
X91546872Y-73304052D01*
X91542739Y-73307155D01*
X91542736Y-73307157D01*
X91365790Y-73440012D01*
X91361655Y-73443117D01*
X91358083Y-73446855D01*
X91274261Y-73534570D01*
X91201639Y-73610564D01*
X91154836Y-73679174D01*
X91099927Y-73724175D01*
X91029402Y-73732346D01*
X90965655Y-73701092D01*
X90944959Y-73676609D01*
X90922577Y-73642013D01*
X90922574Y-73642009D01*
X90919764Y-73637665D01*
X90763887Y-73466358D01*
X90759836Y-73463159D01*
X90759832Y-73463155D01*
X90586177Y-73326011D01*
X90586172Y-73326008D01*
X90582123Y-73322810D01*
X90577607Y-73320317D01*
X90577604Y-73320315D01*
X90383879Y-73213373D01*
X90383875Y-73213371D01*
X90379355Y-73210876D01*
X90374486Y-73209152D01*
X90374482Y-73209150D01*
X90165903Y-73135288D01*
X90165899Y-73135287D01*
X90161028Y-73133562D01*
X90155935Y-73132655D01*
X90155932Y-73132654D01*
X89938095Y-73093851D01*
X89938089Y-73093850D01*
X89933006Y-73092945D01*
X89860096Y-73092054D01*
X89706581Y-73090179D01*
X89706579Y-73090179D01*
X89701411Y-73090116D01*
X89472464Y-73125150D01*
X89252314Y-73197106D01*
X89247726Y-73199494D01*
X89247722Y-73199496D01*
X89051461Y-73301663D01*
X89046872Y-73304052D01*
X89042739Y-73307155D01*
X89042736Y-73307157D01*
X88865790Y-73440012D01*
X88861655Y-73443117D01*
X88858083Y-73446855D01*
X88774261Y-73534570D01*
X88701639Y-73610564D01*
X88698730Y-73614829D01*
X88698724Y-73614837D01*
X88650199Y-73685972D01*
X88595288Y-73730975D01*
X88524763Y-73739146D01*
X88463884Y-73710439D01*
X88458538Y-73705835D01*
X88448973Y-73710238D01*
X87672021Y-74487189D01*
X87664408Y-74501132D01*
X86934356Y-74501132D01*
X86935592Y-74498868D01*
X86935461Y-74497034D01*
X86931210Y-74490420D01*
X86153862Y-73713073D01*
X86142330Y-73706776D01*
X86130048Y-73716399D01*
X86074467Y-73797877D01*
X86069379Y-73806833D01*
X85976252Y-74007459D01*
X85972689Y-74017146D01*
X85913581Y-74230280D01*
X85911650Y-74240400D01*
X85888145Y-74460349D01*
X85887893Y-74470638D01*
X69460779Y-74470638D01*
X69444065Y-74439203D01*
X69336856Y-74307752D01*
X69309302Y-74242320D01*
X69308499Y-74228116D01*
X69308499Y-73340711D01*
X86505508Y-73340711D01*
X86512251Y-73353040D01*
X87287189Y-74127979D01*
X87301132Y-74135592D01*
X87302966Y-74135461D01*
X87309580Y-74131210D01*
X88088994Y-73351795D01*
X88096011Y-73338944D01*
X88088237Y-73328274D01*
X88085902Y-73326430D01*
X88077320Y-73320729D01*
X87883678Y-73213833D01*
X87874272Y-73209606D01*
X87665772Y-73135772D01*
X87655809Y-73133140D01*
X87438047Y-73094350D01*
X87427796Y-73093381D01*
X87206616Y-73090679D01*
X87196332Y-73091399D01*
X86977693Y-73124855D01*
X86967666Y-73127244D01*
X86757426Y-73195961D01*
X86747916Y-73199958D01*
X86551725Y-73302089D01*
X86543007Y-73307578D01*
X86513961Y-73329386D01*
X86505508Y-73340711D01*
X69308499Y-73340711D01*
X69308499Y-67500000D01*
X82886540Y-67500000D01*
X82906359Y-67815020D01*
X82965505Y-68125072D01*
X83063044Y-68425266D01*
X83064731Y-68428852D01*
X83064733Y-68428856D01*
X83195750Y-68707283D01*
X83195754Y-68707290D01*
X83197438Y-68710869D01*
X83366568Y-68977375D01*
X83567767Y-69220582D01*
X83797860Y-69436654D01*
X84053221Y-69622184D01*
X84329821Y-69774247D01*
X84333490Y-69775700D01*
X84333495Y-69775702D01*
X84619628Y-69888990D01*
X84623298Y-69890443D01*
X84929025Y-69968940D01*
X85242179Y-70008500D01*
X85557821Y-70008500D01*
X85870975Y-69968940D01*
X86176702Y-69890443D01*
X86180372Y-69888990D01*
X86466505Y-69775702D01*
X86466510Y-69775700D01*
X86470179Y-69774247D01*
X86746779Y-69622184D01*
X87002140Y-69436654D01*
X87232233Y-69220582D01*
X87433432Y-68977375D01*
X87602562Y-68710869D01*
X87604246Y-68707290D01*
X87604250Y-68707283D01*
X87735267Y-68428856D01*
X87735269Y-68428852D01*
X87736956Y-68425266D01*
X87834495Y-68125072D01*
X87893641Y-67815020D01*
X87913460Y-67500000D01*
X91686540Y-67500000D01*
X91706359Y-67815020D01*
X91765505Y-68125072D01*
X91863044Y-68425266D01*
X91864731Y-68428852D01*
X91864733Y-68428856D01*
X91995750Y-68707283D01*
X91995754Y-68707290D01*
X91997438Y-68710869D01*
X92166568Y-68977375D01*
X92367767Y-69220582D01*
X92597860Y-69436654D01*
X92853221Y-69622184D01*
X93129821Y-69774247D01*
X93133490Y-69775700D01*
X93133495Y-69775702D01*
X93419628Y-69888990D01*
X93423298Y-69890443D01*
X93729025Y-69968940D01*
X94042179Y-70008500D01*
X94357821Y-70008500D01*
X94670975Y-69968940D01*
X94976702Y-69890443D01*
X94980372Y-69888990D01*
X95266505Y-69775702D01*
X95266510Y-69775700D01*
X95270179Y-69774247D01*
X95546779Y-69622184D01*
X95802140Y-69436654D01*
X96032233Y-69220582D01*
X96233432Y-68977375D01*
X96402562Y-68710869D01*
X96404246Y-68707290D01*
X96404250Y-68707283D01*
X96535267Y-68428856D01*
X96535269Y-68428852D01*
X96536956Y-68425266D01*
X96634495Y-68125072D01*
X96693641Y-67815020D01*
X96713460Y-67500000D01*
X96693641Y-67184980D01*
X96634495Y-66874928D01*
X96536956Y-66574734D01*
X96535267Y-66571144D01*
X96404250Y-66292717D01*
X96404246Y-66292710D01*
X96402562Y-66289131D01*
X96233432Y-66022625D01*
X96032233Y-65779418D01*
X95802140Y-65563346D01*
X95546779Y-65377816D01*
X95304542Y-65244644D01*
X95273648Y-65227660D01*
X95273647Y-65227659D01*
X95270179Y-65225753D01*
X95266510Y-65224300D01*
X95266505Y-65224298D01*
X94980372Y-65111010D01*
X94980371Y-65111010D01*
X94976702Y-65109557D01*
X94670975Y-65031060D01*
X94357821Y-64991500D01*
X94042179Y-64991500D01*
X93729025Y-65031060D01*
X93423298Y-65109557D01*
X93419629Y-65111010D01*
X93419628Y-65111010D01*
X93133495Y-65224298D01*
X93133490Y-65224300D01*
X93129821Y-65225753D01*
X93126353Y-65227659D01*
X93126352Y-65227660D01*
X93095459Y-65244644D01*
X92853221Y-65377816D01*
X92597860Y-65563346D01*
X92367767Y-65779418D01*
X92166568Y-66022625D01*
X91997438Y-66289131D01*
X91995754Y-66292710D01*
X91995750Y-66292717D01*
X91864733Y-66571144D01*
X91863044Y-66574734D01*
X91765505Y-66874928D01*
X91706359Y-67184980D01*
X91686540Y-67500000D01*
X87913460Y-67500000D01*
X87893641Y-67184980D01*
X87834495Y-66874928D01*
X87736956Y-66574734D01*
X87735267Y-66571144D01*
X87604250Y-66292717D01*
X87604246Y-66292710D01*
X87602562Y-66289131D01*
X87433432Y-66022625D01*
X87232233Y-65779418D01*
X87002140Y-65563346D01*
X86746779Y-65377816D01*
X86504542Y-65244644D01*
X86473648Y-65227660D01*
X86473647Y-65227659D01*
X86470179Y-65225753D01*
X86466510Y-65224300D01*
X86466505Y-65224298D01*
X86180372Y-65111010D01*
X86180371Y-65111010D01*
X86176702Y-65109557D01*
X85870975Y-65031060D01*
X85557821Y-64991500D01*
X85242179Y-64991500D01*
X84929025Y-65031060D01*
X84623298Y-65109557D01*
X84619629Y-65111010D01*
X84619628Y-65111010D01*
X84333495Y-65224298D01*
X84333490Y-65224300D01*
X84329821Y-65225753D01*
X84326353Y-65227659D01*
X84326352Y-65227660D01*
X84295459Y-65244644D01*
X84053221Y-65377816D01*
X83797860Y-65563346D01*
X83567767Y-65779418D01*
X83366568Y-66022625D01*
X83197438Y-66289131D01*
X83195754Y-66292710D01*
X83195750Y-66292717D01*
X83064733Y-66571144D01*
X83063044Y-66574734D01*
X82965505Y-66874928D01*
X82906359Y-67184980D01*
X82886540Y-67500000D01*
X69308499Y-67500000D01*
X69308499Y-66569537D01*
X69328501Y-66501416D01*
X69339117Y-66487206D01*
X69424053Y-66388806D01*
X69424054Y-66388805D01*
X69428077Y-66384144D01*
X69525768Y-66212178D01*
X69588196Y-66024512D01*
X69612984Y-65828294D01*
X69613379Y-65799999D01*
X69594079Y-65603166D01*
X69536915Y-65413830D01*
X69444065Y-65239203D01*
X69336856Y-65107752D01*
X69309302Y-65042320D01*
X69308499Y-65028116D01*
X69308500Y-58834500D01*
X69328502Y-58766379D01*
X69382158Y-58719886D01*
X69434500Y-58708500D01*
X84554340Y-58708500D01*
X84622461Y-58728502D01*
X84643435Y-58745405D01*
X85678550Y-59780520D01*
X85684404Y-59786785D01*
X85722439Y-59830385D01*
X85728657Y-59834755D01*
X85774697Y-59867112D01*
X85779993Y-59871045D01*
X85830282Y-59910477D01*
X85837204Y-59913602D01*
X85839452Y-59914964D01*
X85854185Y-59923368D01*
X85856524Y-59924622D01*
X85862739Y-59928990D01*
X85869815Y-59931749D01*
X85869819Y-59931751D01*
X85922274Y-59952202D01*
X85928352Y-59954757D01*
X85986574Y-59981045D01*
X85994045Y-59982429D01*
X85996599Y-59983230D01*
X86012878Y-59987867D01*
X86015433Y-59988523D01*
X86022509Y-59991282D01*
X86043262Y-59994014D01*
X86085851Y-59999621D01*
X86092367Y-60000653D01*
X86145865Y-60010568D01*
X86155187Y-60012296D01*
X86162767Y-60011859D01*
X86162768Y-60011859D01*
X86217398Y-60008709D01*
X86224651Y-60008500D01*
X90471088Y-60008500D01*
X90479658Y-60008792D01*
X90529776Y-60012209D01*
X90529780Y-60012209D01*
X90537352Y-60012725D01*
X90544829Y-60011420D01*
X90544830Y-60011420D01*
X90571308Y-60006799D01*
X90600303Y-60001738D01*
X90606821Y-60000777D01*
X90670242Y-59993102D01*
X90677343Y-59990419D01*
X90679952Y-59989778D01*
X90696262Y-59985315D01*
X90698798Y-59984550D01*
X90706284Y-59983243D01*
X90764800Y-59957556D01*
X90770904Y-59955065D01*
X90771717Y-59954758D01*
X90830656Y-59932487D01*
X90836919Y-59928183D01*
X90839285Y-59926946D01*
X90854097Y-59918701D01*
X90856351Y-59917368D01*
X90863305Y-59914315D01*
X90914002Y-59875413D01*
X90919332Y-59871541D01*
X90965720Y-59839661D01*
X90965725Y-59839656D01*
X90971981Y-59835357D01*
X91013427Y-59788839D01*
X91018408Y-59783562D01*
X91890285Y-58911686D01*
X91952597Y-58877661D01*
X92004501Y-58877312D01*
X92127585Y-58902354D01*
X92127593Y-58902355D01*
X92132656Y-58903385D01*
X92263324Y-58908176D01*
X92358949Y-58911683D01*
X92358953Y-58911683D01*
X92364113Y-58911872D01*
X92369233Y-58911216D01*
X92369235Y-58911216D01*
X92471353Y-58898134D01*
X92593847Y-58882442D01*
X92598795Y-58880957D01*
X92598802Y-58880956D01*
X92810747Y-58817369D01*
X92815690Y-58815886D01*
X92916747Y-58766379D01*
X93019049Y-58716262D01*
X93019052Y-58716260D01*
X93023684Y-58713991D01*
X93212243Y-58579494D01*
X93376303Y-58416005D01*
X93511458Y-58227917D01*
X93614078Y-58020280D01*
X93681408Y-57798671D01*
X93711640Y-57569041D01*
X93712851Y-57519472D01*
X93713245Y-57503365D01*
X93713245Y-57503361D01*
X93713327Y-57500000D01*
X93703874Y-57385017D01*
X93694773Y-57274318D01*
X93694772Y-57274312D01*
X93694349Y-57269167D01*
X93637925Y-57044533D01*
X93635817Y-57039684D01*
X93547630Y-56836868D01*
X93547628Y-56836865D01*
X93545570Y-56832131D01*
X93419764Y-56637665D01*
X93263887Y-56466358D01*
X93259836Y-56463159D01*
X93259832Y-56463155D01*
X93086177Y-56326011D01*
X93086172Y-56326008D01*
X93082123Y-56322810D01*
X93077607Y-56320317D01*
X93077604Y-56320315D01*
X92883879Y-56213373D01*
X92883875Y-56213371D01*
X92879355Y-56210876D01*
X92874486Y-56209152D01*
X92874482Y-56209150D01*
X92665903Y-56135288D01*
X92665899Y-56135287D01*
X92661028Y-56133562D01*
X92655935Y-56132655D01*
X92655932Y-56132654D01*
X92438095Y-56093851D01*
X92438089Y-56093850D01*
X92433006Y-56092945D01*
X92360096Y-56092054D01*
X92206581Y-56090179D01*
X92206579Y-56090179D01*
X92201411Y-56090116D01*
X91972464Y-56125150D01*
X91752314Y-56197106D01*
X91747726Y-56199494D01*
X91747722Y-56199496D01*
X91721065Y-56213373D01*
X91546872Y-56304052D01*
X91542739Y-56307155D01*
X91542736Y-56307157D01*
X91517625Y-56326011D01*
X91361655Y-56443117D01*
X91201639Y-56610564D01*
X91154836Y-56679174D01*
X91099927Y-56724175D01*
X91029402Y-56732346D01*
X90965655Y-56701092D01*
X90944959Y-56676609D01*
X90922577Y-56642013D01*
X90922574Y-56642009D01*
X90919764Y-56637665D01*
X90763887Y-56466358D01*
X90759836Y-56463159D01*
X90759832Y-56463155D01*
X90586177Y-56326011D01*
X90586172Y-56326008D01*
X90582123Y-56322810D01*
X90577607Y-56320317D01*
X90577604Y-56320315D01*
X90383879Y-56213373D01*
X90383875Y-56213371D01*
X90379355Y-56210876D01*
X90374486Y-56209152D01*
X90374482Y-56209150D01*
X90165903Y-56135288D01*
X90165899Y-56135287D01*
X90161028Y-56133562D01*
X90155935Y-56132655D01*
X90155932Y-56132654D01*
X89938095Y-56093851D01*
X89938089Y-56093850D01*
X89933006Y-56092945D01*
X89860096Y-56092054D01*
X89706581Y-56090179D01*
X89706579Y-56090179D01*
X89701411Y-56090116D01*
X89472464Y-56125150D01*
X89252314Y-56197106D01*
X89247726Y-56199494D01*
X89247722Y-56199496D01*
X89221065Y-56213373D01*
X89046872Y-56304052D01*
X89042739Y-56307155D01*
X89042736Y-56307157D01*
X89017625Y-56326011D01*
X88861655Y-56443117D01*
X88701639Y-56610564D01*
X88654836Y-56679174D01*
X88599927Y-56724175D01*
X88529402Y-56732346D01*
X88465655Y-56701092D01*
X88444959Y-56676609D01*
X88422577Y-56642013D01*
X88422574Y-56642009D01*
X88419764Y-56637665D01*
X88263887Y-56466358D01*
X88259836Y-56463159D01*
X88259832Y-56463155D01*
X88086177Y-56326011D01*
X88086172Y-56326008D01*
X88082123Y-56322810D01*
X88077607Y-56320317D01*
X88077604Y-56320315D01*
X87883879Y-56213373D01*
X87883875Y-56213371D01*
X87879355Y-56210876D01*
X87874486Y-56209152D01*
X87874482Y-56209150D01*
X87665903Y-56135288D01*
X87665899Y-56135287D01*
X87661028Y-56133562D01*
X87655935Y-56132655D01*
X87655932Y-56132654D01*
X87438095Y-56093851D01*
X87438089Y-56093850D01*
X87433006Y-56092945D01*
X87360096Y-56092054D01*
X87206581Y-56090179D01*
X87206579Y-56090179D01*
X87201411Y-56090116D01*
X86972464Y-56125150D01*
X86752314Y-56197106D01*
X86747726Y-56199494D01*
X86747722Y-56199496D01*
X86721065Y-56213373D01*
X86546872Y-56304052D01*
X86542739Y-56307155D01*
X86542736Y-56307157D01*
X86517625Y-56326011D01*
X86361655Y-56443117D01*
X86201639Y-56610564D01*
X86198730Y-56614829D01*
X86198724Y-56614837D01*
X86141049Y-56699385D01*
X86071119Y-56801899D01*
X85973602Y-57011981D01*
X85911707Y-57235169D01*
X85887095Y-57465469D01*
X85887392Y-57470622D01*
X85887392Y-57470625D01*
X85899847Y-57686643D01*
X85883799Y-57755803D01*
X85832909Y-57805307D01*
X85763333Y-57819439D01*
X85697162Y-57793712D01*
X85684961Y-57782991D01*
X85421442Y-57519472D01*
X85415588Y-57513206D01*
X85382556Y-57475340D01*
X85382553Y-57475337D01*
X85377561Y-57469615D01*
X85325280Y-57432871D01*
X85319986Y-57428939D01*
X85275693Y-57394209D01*
X85269718Y-57389524D01*
X85262802Y-57386401D01*
X85260516Y-57385017D01*
X85245835Y-57376643D01*
X85243475Y-57375378D01*
X85237261Y-57371010D01*
X85230182Y-57368250D01*
X85230180Y-57368249D01*
X85177725Y-57347798D01*
X85171656Y-57345247D01*
X85113427Y-57318955D01*
X85105960Y-57317571D01*
X85103405Y-57316770D01*
X85087152Y-57312141D01*
X85084572Y-57311478D01*
X85077491Y-57308718D01*
X85069960Y-57307727D01*
X85069958Y-57307726D01*
X85040339Y-57303827D01*
X85014139Y-57300378D01*
X85007641Y-57299348D01*
X84944814Y-57287704D01*
X84937234Y-57288141D01*
X84937233Y-57288141D01*
X84882608Y-57291291D01*
X84875354Y-57291500D01*
X68728912Y-57291500D01*
X68720342Y-57291208D01*
X68670224Y-57287791D01*
X68670220Y-57287791D01*
X68662648Y-57287275D01*
X68655171Y-57288580D01*
X68655170Y-57288580D01*
X68649189Y-57289624D01*
X68627526Y-57291500D01*
X47484500Y-57291500D01*
X47416379Y-57271498D01*
X47369886Y-57217842D01*
X47358500Y-57165500D01*
X47358500Y-57101866D01*
X47351745Y-57039684D01*
X47300615Y-56903295D01*
X47213261Y-56786739D01*
X47096705Y-56699385D01*
X46960316Y-56648255D01*
X46898134Y-56641500D01*
X45101866Y-56641500D01*
X45039684Y-56648255D01*
X44903295Y-56699385D01*
X44786739Y-56786739D01*
X44699385Y-56903295D01*
X44648255Y-57039684D01*
X44641500Y-57101866D01*
X44641500Y-58898134D01*
X38508500Y-58898134D01*
X38508500Y-48426695D01*
X44637251Y-48426695D01*
X44637548Y-48431848D01*
X44637548Y-48431851D01*
X44643011Y-48526590D01*
X44650110Y-48649715D01*
X44651247Y-48654761D01*
X44651248Y-48654767D01*
X44671119Y-48742939D01*
X44699222Y-48867639D01*
X44783266Y-49074616D01*
X44899987Y-49265088D01*
X45046250Y-49433938D01*
X45050230Y-49437242D01*
X45054981Y-49441187D01*
X45094616Y-49500090D01*
X45096113Y-49571071D01*
X45058997Y-49631593D01*
X45018724Y-49656112D01*
X44903295Y-49699385D01*
X44786739Y-49786739D01*
X44699385Y-49903295D01*
X44648255Y-50039684D01*
X44641500Y-50101866D01*
X44641500Y-51898134D01*
X44648255Y-51960316D01*
X44699385Y-52096705D01*
X44786739Y-52213261D01*
X44903295Y-52300615D01*
X45039684Y-52351745D01*
X45101866Y-52358500D01*
X46898134Y-52358500D01*
X46960316Y-52351745D01*
X47096705Y-52300615D01*
X47213261Y-52213261D01*
X47300615Y-52096705D01*
X47351745Y-51960316D01*
X47358500Y-51898134D01*
X47358500Y-50500000D01*
X82886540Y-50500000D01*
X82906359Y-50815020D01*
X82965505Y-51125072D01*
X83063044Y-51425266D01*
X83064731Y-51428852D01*
X83064733Y-51428856D01*
X83195750Y-51707283D01*
X83195754Y-51707290D01*
X83197438Y-51710869D01*
X83366568Y-51977375D01*
X83369093Y-51980427D01*
X83561711Y-52213261D01*
X83567767Y-52220582D01*
X83797860Y-52436654D01*
X84053221Y-52622184D01*
X84329821Y-52774247D01*
X84333490Y-52775700D01*
X84333495Y-52775702D01*
X84619628Y-52888990D01*
X84623298Y-52890443D01*
X84929025Y-52968940D01*
X85242179Y-53008500D01*
X85557821Y-53008500D01*
X85870975Y-52968940D01*
X86176702Y-52890443D01*
X86180372Y-52888990D01*
X86466505Y-52775702D01*
X86466510Y-52775700D01*
X86470179Y-52774247D01*
X86746779Y-52622184D01*
X87002140Y-52436654D01*
X87232233Y-52220582D01*
X87238290Y-52213261D01*
X87430907Y-51980427D01*
X87433432Y-51977375D01*
X87602562Y-51710869D01*
X87604246Y-51707290D01*
X87604250Y-51707283D01*
X87735267Y-51428856D01*
X87735269Y-51428852D01*
X87736956Y-51425266D01*
X87834495Y-51125072D01*
X87893641Y-50815020D01*
X87913460Y-50500000D01*
X91686540Y-50500000D01*
X91706359Y-50815020D01*
X91765505Y-51125072D01*
X91863044Y-51425266D01*
X91864731Y-51428852D01*
X91864733Y-51428856D01*
X91995750Y-51707283D01*
X91995754Y-51707290D01*
X91997438Y-51710869D01*
X92166568Y-51977375D01*
X92169093Y-51980427D01*
X92361711Y-52213261D01*
X92367767Y-52220582D01*
X92597860Y-52436654D01*
X92853221Y-52622184D01*
X93129821Y-52774247D01*
X93133490Y-52775700D01*
X93133495Y-52775702D01*
X93419628Y-52888990D01*
X93423298Y-52890443D01*
X93729025Y-52968940D01*
X94042179Y-53008500D01*
X94357821Y-53008500D01*
X94670975Y-52968940D01*
X94976702Y-52890443D01*
X94980372Y-52888990D01*
X95266505Y-52775702D01*
X95266510Y-52775700D01*
X95270179Y-52774247D01*
X95546779Y-52622184D01*
X95802140Y-52436654D01*
X96032233Y-52220582D01*
X96038290Y-52213261D01*
X96230907Y-51980427D01*
X96233432Y-51977375D01*
X96402562Y-51710869D01*
X96404246Y-51707290D01*
X96404250Y-51707283D01*
X96535267Y-51428856D01*
X96535269Y-51428852D01*
X96536956Y-51425266D01*
X96634495Y-51125072D01*
X96693641Y-50815020D01*
X96713460Y-50500000D01*
X96693641Y-50184980D01*
X96634495Y-49874928D01*
X96536956Y-49574734D01*
X96535267Y-49571144D01*
X96404250Y-49292717D01*
X96404246Y-49292710D01*
X96402562Y-49289131D01*
X96233432Y-49022625D01*
X96032233Y-48779418D01*
X95802140Y-48563346D01*
X95546779Y-48377816D01*
X95270179Y-48225753D01*
X95266510Y-48224300D01*
X95266505Y-48224298D01*
X94980372Y-48111010D01*
X94980371Y-48111010D01*
X94976702Y-48109557D01*
X94670975Y-48031060D01*
X94357821Y-47991500D01*
X94042179Y-47991500D01*
X93729025Y-48031060D01*
X93423298Y-48109557D01*
X93419629Y-48111010D01*
X93419628Y-48111010D01*
X93133495Y-48224298D01*
X93133490Y-48224300D01*
X93129821Y-48225753D01*
X92853221Y-48377816D01*
X92597860Y-48563346D01*
X92367767Y-48779418D01*
X92166568Y-49022625D01*
X91997438Y-49289131D01*
X91995754Y-49292710D01*
X91995750Y-49292717D01*
X91864733Y-49571144D01*
X91863044Y-49574734D01*
X91765505Y-49874928D01*
X91706359Y-50184980D01*
X91686540Y-50500000D01*
X87913460Y-50500000D01*
X87893641Y-50184980D01*
X87834495Y-49874928D01*
X87736956Y-49574734D01*
X87735267Y-49571144D01*
X87604250Y-49292717D01*
X87604246Y-49292710D01*
X87602562Y-49289131D01*
X87433432Y-49022625D01*
X87232233Y-48779418D01*
X87002140Y-48563346D01*
X86746779Y-48377816D01*
X86470179Y-48225753D01*
X86466510Y-48224300D01*
X86466505Y-48224298D01*
X86180372Y-48111010D01*
X86180371Y-48111010D01*
X86176702Y-48109557D01*
X85870975Y-48031060D01*
X85557821Y-47991500D01*
X85242179Y-47991500D01*
X84929025Y-48031060D01*
X84623298Y-48109557D01*
X84619629Y-48111010D01*
X84619628Y-48111010D01*
X84333495Y-48224298D01*
X84333490Y-48224300D01*
X84329821Y-48225753D01*
X84053221Y-48377816D01*
X83797860Y-48563346D01*
X83567767Y-48779418D01*
X83366568Y-49022625D01*
X83197438Y-49289131D01*
X83195754Y-49292710D01*
X83195750Y-49292717D01*
X83064733Y-49571144D01*
X83063044Y-49574734D01*
X82965505Y-49874928D01*
X82906359Y-50184980D01*
X82886540Y-50500000D01*
X47358500Y-50500000D01*
X47358500Y-50101866D01*
X47351745Y-50039684D01*
X47300615Y-49903295D01*
X47213261Y-49786739D01*
X47096705Y-49699385D01*
X47084132Y-49694672D01*
X46978203Y-49654960D01*
X46921439Y-49612318D01*
X46896739Y-49545756D01*
X46911947Y-49476408D01*
X46933493Y-49447727D01*
X47034435Y-49347137D01*
X47038096Y-49343489D01*
X47097594Y-49260689D01*
X47165435Y-49166277D01*
X47168453Y-49162077D01*
X47238883Y-49019573D01*
X47265136Y-48966453D01*
X47265137Y-48966451D01*
X47267430Y-48961811D01*
X47321918Y-48782470D01*
X47330865Y-48753023D01*
X47330865Y-48753021D01*
X47332370Y-48748069D01*
X47361529Y-48526590D01*
X47363156Y-48460000D01*
X47344852Y-48237361D01*
X47290431Y-48020702D01*
X47201354Y-47815840D01*
X47080014Y-47628277D01*
X46929670Y-47463051D01*
X46925619Y-47459852D01*
X46925615Y-47459848D01*
X46758414Y-47327800D01*
X46758410Y-47327798D01*
X46754359Y-47324598D01*
X46712569Y-47301529D01*
X46662598Y-47251097D01*
X46647826Y-47181654D01*
X46672942Y-47115248D01*
X46700294Y-47088641D01*
X46875328Y-46963792D01*
X46883200Y-46957139D01*
X47034052Y-46806812D01*
X47040730Y-46798965D01*
X47165003Y-46626020D01*
X47170313Y-46617183D01*
X47264670Y-46426267D01*
X47268469Y-46416672D01*
X47330377Y-46212910D01*
X47332555Y-46202837D01*
X47333986Y-46191962D01*
X47331775Y-46177778D01*
X47318617Y-46174000D01*
X44683225Y-46174000D01*
X44669694Y-46177973D01*
X44668257Y-46187966D01*
X44698565Y-46322446D01*
X44701645Y-46332275D01*
X44781770Y-46529603D01*
X44786413Y-46538794D01*
X44897694Y-46720388D01*
X44903777Y-46728699D01*
X45043213Y-46889667D01*
X45050580Y-46896883D01*
X45214434Y-47032916D01*
X45222881Y-47038831D01*
X45291969Y-47079203D01*
X45340693Y-47130842D01*
X45353764Y-47200625D01*
X45327033Y-47266396D01*
X45286584Y-47299752D01*
X45273607Y-47306507D01*
X45269474Y-47309610D01*
X45269471Y-47309612D01*
X45245247Y-47327800D01*
X45094965Y-47440635D01*
X44940629Y-47602138D01*
X44814743Y-47786680D01*
X44720688Y-47989305D01*
X44660989Y-48204570D01*
X44637251Y-48426695D01*
X38508500Y-48426695D01*
X38508500Y-45654183D01*
X44664389Y-45654183D01*
X44665912Y-45662607D01*
X44678292Y-45666000D01*
X45727885Y-45666000D01*
X45743124Y-45661525D01*
X45744329Y-45660135D01*
X45746000Y-45652452D01*
X45746000Y-45647885D01*
X46254000Y-45647885D01*
X46258475Y-45663124D01*
X46259865Y-45664329D01*
X46267548Y-45666000D01*
X47318344Y-45666000D01*
X47331875Y-45662027D01*
X47333180Y-45652947D01*
X47291214Y-45485875D01*
X47287894Y-45476124D01*
X47202972Y-45280814D01*
X47198105Y-45271739D01*
X47082426Y-45092926D01*
X47076136Y-45084757D01*
X46932806Y-44927240D01*
X46925273Y-44920215D01*
X46758139Y-44788222D01*
X46749552Y-44782517D01*
X46563117Y-44679599D01*
X46553705Y-44675369D01*
X46352959Y-44604280D01*
X46342988Y-44601646D01*
X46271837Y-44588972D01*
X46258540Y-44590432D01*
X46254000Y-44604989D01*
X46254000Y-45647885D01*
X45746000Y-45647885D01*
X45746000Y-44603102D01*
X45742082Y-44589758D01*
X45727806Y-44587771D01*
X45689324Y-44593660D01*
X45679288Y-44596051D01*
X45476868Y-44662212D01*
X45467359Y-44666209D01*
X45278463Y-44764542D01*
X45269738Y-44770036D01*
X45099433Y-44897905D01*
X45091726Y-44904748D01*
X44944590Y-45058717D01*
X44938104Y-45066727D01*
X44818098Y-45242649D01*
X44813000Y-45251623D01*
X44723338Y-45444783D01*
X44719775Y-45454470D01*
X44664389Y-45654183D01*
X38508500Y-45654183D01*
X38508500Y-40634500D01*
X38528502Y-40566379D01*
X38582158Y-40519886D01*
X38634500Y-40508500D01*
X99365500Y-40508500D01*
X99433621Y-40528502D01*
G37*
%TD.AperFunction*%
%TD*%
M02*
