%TF.GenerationSoftware,KiCad,Pcbnew,(6.0.11)*%
%TF.CreationDate,2023-01-31T16:53:48+00:00*%
%TF.ProjectId,Quilter,5175696c-7465-4722-9e6b-696361645f70,rev?*%
%TF.SameCoordinates,Original*%
%TF.FileFunction,Copper,L1,Top*%
%TF.FilePolarity,Positive*%
%FSLAX46Y46*%
G04 Gerber Fmt 4.6, Leading zero omitted, Abs format (unit mm)*
G04 Created by KiCad (PCBNEW (6.0.11)) date 2023-01-31 16:53:48*
%MOMM*%
%LPD*%
G01*
G04 APERTURE LIST*
G04 Aperture macros list*
%AMRoundRect*
0 Rectangle with rounded corners*
0 $1 Rounding radius*
0 $2 $3 $4 $5 $6 $7 $8 $9 X,Y pos of 4 corners*
0 Add a 4 corners polygon primitive as box body*
4,1,4,$2,$3,$4,$5,$6,$7,$8,$9,$2,$3,0*
0 Add four circle primitives for the rounded corners*
1,1,$1+$1,$2,$3*
1,1,$1+$1,$4,$5*
1,1,$1+$1,$6,$7*
1,1,$1+$1,$8,$9*
0 Add four rect primitives between the rounded corners*
20,1,$1+$1,$2,$3,$4,$5,0*
20,1,$1+$1,$4,$5,$6,$7,0*
20,1,$1+$1,$6,$7,$8,$9,0*
20,1,$1+$1,$8,$9,$2,$3,0*%
%AMFreePoly0*
4,1,22,0.500000,-0.750000,0.000000,-0.750000,0.000000,-0.745033,-0.079941,-0.743568,-0.215256,-0.701293,-0.333266,-0.622738,-0.424486,-0.514219,-0.481581,-0.384460,-0.499164,-0.250000,-0.500000,-0.250000,-0.500000,0.250000,-0.499164,0.250000,-0.499963,0.256109,-0.478152,0.396186,-0.417904,0.524511,-0.324060,0.630769,-0.204165,0.706417,-0.067858,0.745374,0.000000,0.744959,0.000000,0.750000,
0.500000,0.750000,0.500000,-0.750000,0.500000,-0.750000,$1*%
%AMFreePoly1*
4,1,20,0.000000,0.744959,0.073905,0.744508,0.209726,0.703889,0.328688,0.626782,0.421226,0.519385,0.479903,0.390333,0.500000,0.250000,0.500000,-0.250000,0.499851,-0.262216,0.476331,-0.402017,0.414519,-0.529596,0.319384,-0.634700,0.198574,-0.708877,0.061801,-0.746166,0.000000,-0.745033,0.000000,-0.750000,-0.500000,-0.750000,-0.500000,0.750000,0.000000,0.750000,0.000000,0.744959,
0.000000,0.744959,$1*%
G04 Aperture macros list end*
%TA.AperFunction,SMDPad,CuDef*%
%ADD10RoundRect,0.250000X-0.262500X-0.450000X0.262500X-0.450000X0.262500X0.450000X-0.262500X0.450000X0*%
%TD*%
%TA.AperFunction,SMDPad,CuDef*%
%ADD11RoundRect,0.237500X-0.300000X-0.237500X0.300000X-0.237500X0.300000X0.237500X-0.300000X0.237500X0*%
%TD*%
%TA.AperFunction,SMDPad,CuDef*%
%ADD12RoundRect,0.237500X0.300000X0.237500X-0.300000X0.237500X-0.300000X-0.237500X0.300000X-0.237500X0*%
%TD*%
%TA.AperFunction,SMDPad,CuDef*%
%ADD13RoundRect,0.250000X0.262500X0.450000X-0.262500X0.450000X-0.262500X-0.450000X0.262500X-0.450000X0*%
%TD*%
%TA.AperFunction,SMDPad,CuDef*%
%ADD14RoundRect,0.150000X-0.725000X-0.150000X0.725000X-0.150000X0.725000X0.150000X-0.725000X0.150000X0*%
%TD*%
%TA.AperFunction,SMDPad,CuDef*%
%ADD15R,1.200000X0.400000*%
%TD*%
%TA.AperFunction,ComponentPad*%
%ADD16C,1.800000*%
%TD*%
%TA.AperFunction,WasherPad*%
%ADD17C,4.000000*%
%TD*%
%TA.AperFunction,SMDPad,CuDef*%
%ADD18FreePoly0,0.000000*%
%TD*%
%TA.AperFunction,SMDPad,CuDef*%
%ADD19FreePoly1,0.000000*%
%TD*%
%TA.AperFunction,ComponentPad*%
%ADD20R,1.700000X1.700000*%
%TD*%
%TA.AperFunction,ComponentPad*%
%ADD21O,1.700000X1.700000*%
%TD*%
%TA.AperFunction,SMDPad,CuDef*%
%ADD22RoundRect,0.250000X-0.250000X-0.475000X0.250000X-0.475000X0.250000X0.475000X-0.250000X0.475000X0*%
%TD*%
%TA.AperFunction,SMDPad,CuDef*%
%ADD23RoundRect,0.250000X-0.550000X1.250000X-0.550000X-1.250000X0.550000X-1.250000X0.550000X1.250000X0*%
%TD*%
%TA.AperFunction,SMDPad,CuDef*%
%ADD24RoundRect,0.250000X0.550000X-1.250000X0.550000X1.250000X-0.550000X1.250000X-0.550000X-1.250000X0*%
%TD*%
%TA.AperFunction,ViaPad*%
%ADD25C,0.800000*%
%TD*%
%TA.AperFunction,ViaPad*%
%ADD26C,1.000000*%
%TD*%
%TA.AperFunction,Conductor*%
%ADD27C,0.200000*%
%TD*%
%TA.AperFunction,Conductor*%
%ADD28C,0.250000*%
%TD*%
%TA.AperFunction,Conductor*%
%ADD29C,0.400000*%
%TD*%
G04 APERTURE END LIST*
%TO.C,JP1*%
G36*
X51350000Y-74100000D02*
G01*
X50850000Y-74100000D01*
X50850000Y-73500000D01*
X51350000Y-73500000D01*
X51350000Y-74100000D01*
G37*
%TD*%
D10*
%TO.P,R14,1*%
%TO.N,/FREQ_CTRL*%
X72087500Y-60500000D03*
%TO.P,R14,2*%
%TO.N,Net-(FREQ_OFFSET1-Pad2)*%
X73912500Y-60500000D03*
%TD*%
D11*
%TO.P,C6,1*%
%TO.N,Net-(C6-Pad1)*%
X57937500Y-72700000D03*
%TO.P,C6,2*%
%TO.N,Net-(C6-Pad2)*%
X59662500Y-72700000D03*
%TD*%
D12*
%TO.P,C5,1*%
%TO.N,Net-(C5-Pad1)*%
X73862500Y-72700000D03*
%TO.P,C5,2*%
%TO.N,Net-(C5-Pad2)*%
X72137500Y-72700000D03*
%TD*%
%TO.P,C4,1*%
%TO.N,Net-(C4-Pad1)*%
X73862500Y-70600000D03*
%TO.P,C4,2*%
%TO.N,Net-(C4-Pad2)*%
X72137500Y-70600000D03*
%TD*%
D11*
%TO.P,C3,1*%
%TO.N,Net-(C3-Pad1)*%
X57937500Y-64500000D03*
%TO.P,C3,2*%
%TO.N,Net-(C3-Pad2)*%
X59662500Y-64500000D03*
%TD*%
%TO.P,C9,1*%
%TO.N,Net-(C9-Pad1)*%
X72137500Y-66500000D03*
%TO.P,C9,2*%
%TO.N,GND*%
X73862500Y-66500000D03*
%TD*%
%TO.P,C7,1*%
%TO.N,Net-(C7-Pad1)*%
X57937500Y-70600000D03*
%TO.P,C7,2*%
%TO.N,Net-(C7-Pad2)*%
X59662500Y-70600000D03*
%TD*%
D13*
%TO.P,R13,1*%
%TO.N,GND*%
X59712500Y-74800000D03*
%TO.P,R13,2*%
%TO.N,Net-(JP1-Pad2)*%
X57887500Y-74800000D03*
%TD*%
%TO.P,R4,1*%
%TO.N,Net-(C3-Pad1)*%
X59712500Y-66500000D03*
%TO.P,R4,2*%
%TO.N,GND*%
X57887500Y-66500000D03*
%TD*%
D10*
%TO.P,R3,1*%
%TO.N,GND*%
X57887500Y-60500000D03*
%TO.P,R3,2*%
%TO.N,Net-(C3-Pad2)*%
X59712500Y-60500000D03*
%TD*%
D13*
%TO.P,R2,1*%
%TO.N,Net-(C3-Pad1)*%
X59712500Y-68500000D03*
%TO.P,R2,2*%
%TO.N,/SIG_IN-*%
X57887500Y-68500000D03*
%TD*%
%TO.P,R1,1*%
%TO.N,Net-(C3-Pad2)*%
X59712500Y-62500000D03*
%TO.P,R1,2*%
%TO.N,/SIG_IN+*%
X57887500Y-62500000D03*
%TD*%
D14*
%TO.P,U2,1*%
%TO.N,Net-(R9-Pad2)*%
X63425000Y-76095000D03*
%TO.P,U2,2,-*%
%TO.N,Net-(R6-Pad1)*%
X63425000Y-77365000D03*
%TO.P,U2,3,+*%
%TO.N,GND*%
X63425000Y-78635000D03*
%TO.P,U2,4,V-*%
%TO.N,-12V*%
X63425000Y-79905000D03*
%TO.P,U2,5,+*%
%TO.N,GND*%
X68575000Y-79905000D03*
%TO.P,U2,6,-*%
%TO.N,Net-(C8-Pad2)*%
X68575000Y-78635000D03*
%TO.P,U2,7*%
%TO.N,/MIX_OUT*%
X68575000Y-77365000D03*
%TO.P,U2,8,V+*%
%TO.N,+12V*%
X68575000Y-76095000D03*
%TD*%
D15*
%TO.P,U1,16,V+*%
%TO.N,+12V*%
X68600000Y-66777500D03*
%TO.P,U1,15,FREQ_CTRL*%
%TO.N,/FREQ_CTRL*%
X68600000Y-67412500D03*
%TO.P,U1,14,Q_CTRL*%
%TO.N,/Q_CTRL*%
X68600000Y-68047500D03*
%TO.P,U1,13,C1A*%
%TO.N,Net-(C4-Pad1)*%
X68600000Y-68682500D03*
%TO.P,U1,12,C1B*%
%TO.N,Net-(C4-Pad2)*%
X68600000Y-69317500D03*
%TO.P,U1,11,C2A*%
%TO.N,Net-(C5-Pad1)*%
X68600000Y-69952500D03*
%TO.P,U1,10,C2B*%
%TO.N,Net-(C5-Pad2)*%
X68600000Y-70587500D03*
%TO.P,U1,9,GND*%
%TO.N,GND*%
X68600000Y-71222500D03*
%TO.P,U1,8,V-*%
%TO.N,-12V*%
X63400000Y-71222500D03*
%TO.P,U1,7,C3B*%
%TO.N,Net-(C6-Pad2)*%
X63400000Y-70587500D03*
%TO.P,U1,6,C3A*%
%TO.N,Net-(C6-Pad1)*%
X63400000Y-69952500D03*
%TO.P,U1,5,C4B*%
%TO.N,Net-(C7-Pad2)*%
X63400000Y-69317500D03*
%TO.P,U1,4,C4A*%
%TO.N,Net-(C7-Pad1)*%
X63400000Y-68682500D03*
%TO.P,U1,3,OUT*%
%TO.N,Net-(C8-Pad2)*%
X63400000Y-68047500D03*
%TO.P,U1,2,SIG_IN-*%
%TO.N,Net-(C3-Pad1)*%
X63400000Y-67412500D03*
%TO.P,U1,1,SIG_IN+*%
%TO.N,Net-(C3-Pad2)*%
X63400000Y-66777500D03*
%TD*%
D16*
%TO.P,FREQ_OFFSET1,3,3*%
%TO.N,-12V*%
X87300000Y-57500000D03*
%TO.P,FREQ_OFFSET1,2,2*%
%TO.N,Net-(FREQ_OFFSET1-Pad2)*%
X89800000Y-57500000D03*
%TO.P,FREQ_OFFSET1,1,1*%
%TO.N,+12V*%
X92300000Y-57500000D03*
D17*
%TO.P,FREQ_OFFSET1,*%
%TO.N,*%
X85400000Y-50500000D03*
X94200000Y-50500000D03*
%TD*%
D16*
%TO.P,Q_CTRL1,3,3*%
%TO.N,GND*%
X87300000Y-74500000D03*
%TO.P,Q_CTRL1,2,2*%
%TO.N,Net-(R12-Pad1)*%
X89800000Y-74500000D03*
%TO.P,Q_CTRL1,1,1*%
%TO.N,+12V*%
X92300000Y-74500000D03*
D17*
%TO.P,Q_CTRL1,*%
%TO.N,*%
X85400000Y-67500000D03*
X94200000Y-67500000D03*
%TD*%
D16*
%TO.P,V_OCT1,3,3*%
%TO.N,Net-(R9-Pad2)*%
X87400000Y-91000000D03*
%TO.P,V_OCT1,2,2*%
X89900000Y-91000000D03*
%TO.P,V_OCT1,1,1*%
%TO.N,Net-(R8-Pad1)*%
X92400000Y-91000000D03*
D17*
%TO.P,V_OCT1,*%
%TO.N,*%
X85500000Y-84000000D03*
X94300000Y-84000000D03*
%TD*%
D13*
%TO.P,R12,1*%
%TO.N,Net-(R12-Pad1)*%
X73912500Y-68500000D03*
%TO.P,R12,2*%
%TO.N,/Q_CTRL*%
X72087500Y-68500000D03*
%TD*%
D10*
%TO.P,R11,1*%
%TO.N,/FREQ_CTRL*%
X72087500Y-62500000D03*
%TO.P,R11,2*%
%TO.N,GND*%
X73912500Y-62500000D03*
%TD*%
D13*
%TO.P,R10,2*%
%TO.N,/Q_CTRL*%
X72087500Y-64500000D03*
%TO.P,R10,1*%
%TO.N,Net-(C9-Pad1)*%
X73912500Y-64500000D03*
%TD*%
D10*
%TO.P,R9,2*%
%TO.N,Net-(R9-Pad2)*%
X59712500Y-77400000D03*
%TO.P,R9,1*%
%TO.N,/FREQ_CTRL*%
X57887500Y-77400000D03*
%TD*%
%TO.P,R8,2*%
%TO.N,Net-(R6-Pad1)*%
X59712500Y-83700000D03*
%TO.P,R8,1*%
%TO.N,Net-(R8-Pad1)*%
X57887500Y-83700000D03*
%TD*%
D13*
%TO.P,R7,1*%
%TO.N,Net-(R6-Pad1)*%
X59712500Y-81600000D03*
%TO.P,R7,2*%
%TO.N,/FREQ2*%
X57887500Y-81600000D03*
%TD*%
%TO.P,R6,1*%
%TO.N,Net-(R6-Pad1)*%
X59712500Y-79500000D03*
%TO.P,R6,2*%
%TO.N,/FREQ1*%
X57887500Y-79500000D03*
%TD*%
D10*
%TO.P,R5,1*%
%TO.N,/MIX_OUT*%
X72087500Y-79500000D03*
%TO.P,R5,2*%
%TO.N,Net-(C8-Pad2)*%
X73912500Y-79500000D03*
%TD*%
D18*
%TO.P,JP1,1,A*%
%TO.N,/SIG_IN-*%
X50450000Y-73800000D03*
D19*
%TO.P,JP1,2,B*%
%TO.N,Net-(JP1-Pad2)*%
X51750000Y-73800000D03*
%TD*%
D20*
%TO.P,J3,1,Pin_1*%
%TO.N,+12V*%
X46000000Y-51000000D03*
D21*
%TO.P,J3,2,Pin_2*%
%TO.N,-12V*%
X46000000Y-48460000D03*
%TO.P,J3,3,Pin_3*%
%TO.N,GND*%
X46000000Y-45920000D03*
%TD*%
D20*
%TO.P,J2,1,Pin_1*%
%TO.N,+12V*%
X46000000Y-58000000D03*
D21*
%TO.P,J2,2,Pin_2*%
%TO.N,GND*%
X46000000Y-60540000D03*
%TO.P,J2,3,Pin_3*%
%TO.N,-12V*%
X46000000Y-63080000D03*
%TD*%
D20*
%TO.P,J1,1,Pin_1*%
%TO.N,/SIG_IN+*%
X46000000Y-71250000D03*
D21*
%TO.P,J1,2,Pin_2*%
%TO.N,/SIG_IN-*%
X46000000Y-73790000D03*
%TO.P,J1,3,Pin_3*%
%TO.N,GND*%
X46000000Y-76330000D03*
%TO.P,J1,4,Pin_4*%
%TO.N,/FREQ1*%
X46000000Y-78870000D03*
%TO.P,J1,5,Pin_5*%
%TO.N,/FREQ2*%
X46000000Y-81410000D03*
%TO.P,J1,6,Pin_6*%
%TO.N,/MIX_OUT*%
X46000000Y-83950000D03*
%TD*%
D22*
%TO.P,C8,1*%
%TO.N,/MIX_OUT*%
X72050000Y-77400000D03*
%TO.P,C8,2*%
%TO.N,Net-(C8-Pad2)*%
X73950000Y-77400000D03*
%TD*%
D23*
%TO.P,C2,1*%
%TO.N,GND*%
X65400000Y-45800000D03*
%TO.P,C2,2*%
%TO.N,-12V*%
X65400000Y-50200000D03*
%TD*%
D24*
%TO.P,C1,2*%
%TO.N,GND*%
X58000000Y-45800000D03*
%TO.P,C1,1*%
%TO.N,+12V*%
X58000000Y-50200000D03*
%TD*%
D25*
%TO.N,GND*%
X69700000Y-72300000D03*
X69900000Y-62800000D03*
X75100000Y-66500000D03*
X56600000Y-66500000D03*
%TO.N,/MIX_OUT*%
X70035000Y-77365000D03*
%TO.N,GND*%
X61400000Y-80100000D03*
X60900000Y-74800000D03*
D26*
%TO.N,-12V*%
X63400000Y-80900000D03*
D25*
%TO.N,Net-(C8-Pad2)*%
X66900000Y-77900000D03*
X64600000Y-68300000D03*
D26*
%TO.N,+12V*%
X68599999Y-65799999D03*
X68599999Y-74999999D03*
%TD*%
D27*
%TO.N,/SIG_IN-*%
X54700000Y-68500000D02*
X50450000Y-72750000D01*
X57887500Y-68500000D02*
X54700000Y-68500000D01*
X50450000Y-72750000D02*
X50450000Y-73800000D01*
%TO.N,/SIG_IN+*%
X48050000Y-71250000D02*
X46000000Y-71250000D01*
X56800000Y-62500000D02*
X48050000Y-71250000D01*
X57887500Y-62500000D02*
X56800000Y-62500000D01*
D28*
%TO.N,/FREQ_CTRL*%
X69487500Y-67412500D02*
X68600000Y-67412500D01*
X70400000Y-64187500D02*
X70400000Y-66500000D01*
X72087500Y-62500000D02*
X70400000Y-64187500D01*
X70400000Y-66500000D02*
X69487500Y-67412500D01*
%TO.N,Net-(C7-Pad1)*%
X58750000Y-69700000D02*
X57850000Y-70600000D01*
X61217500Y-68682500D02*
X60200000Y-69700000D01*
X63400000Y-68682500D02*
X61217500Y-68682500D01*
X60200000Y-69700000D02*
X58750000Y-69700000D01*
%TO.N,Net-(C7-Pad2)*%
X60200000Y-70600000D02*
X59750000Y-70600000D01*
X63400000Y-69317500D02*
X61482500Y-69317500D01*
X61482500Y-69317500D02*
X60200000Y-70600000D01*
%TO.N,Net-(C6-Pad1)*%
X58900000Y-71650000D02*
X57850000Y-72700000D01*
X61747500Y-69952500D02*
X60050000Y-71650000D01*
X63400000Y-69952500D02*
X61747500Y-69952500D01*
X60050000Y-71650000D02*
X58900000Y-71650000D01*
%TO.N,Net-(R9-Pad2)*%
X85100000Y-88700000D02*
X87400000Y-91000000D01*
X72800000Y-88700000D02*
X85100000Y-88700000D01*
X65700000Y-81600000D02*
X72800000Y-88700000D01*
X63425000Y-76095000D02*
X64895000Y-76095000D01*
X64895000Y-76095000D02*
X65700000Y-76900000D01*
X65700000Y-76900000D02*
X65700000Y-81600000D01*
%TO.N,Net-(R8-Pad1)*%
X67387500Y-93200000D02*
X90200000Y-93200000D01*
X57887500Y-83700000D02*
X67387500Y-93200000D01*
%TO.N,Net-(R9-Pad2)*%
X87400000Y-91000000D02*
X89900000Y-91000000D01*
%TO.N,Net-(R12-Pad1)*%
X78900000Y-68500000D02*
X73912500Y-68500000D01*
X81900000Y-71500000D02*
X78900000Y-68500000D01*
X86800000Y-71500000D02*
X81900000Y-71500000D01*
X89800000Y-74500000D02*
X86800000Y-71500000D01*
%TO.N,Net-(FREQ_OFFSET1-Pad2)*%
X86675000Y-60625000D02*
X74037500Y-60625000D01*
X74037500Y-60625000D02*
X73912500Y-60500000D01*
X86675000Y-60625000D02*
X89800000Y-57500000D01*
D29*
%TO.N,-12V*%
X82800000Y-57500000D02*
X87300000Y-57500000D01*
X75500000Y-50200000D02*
X82800000Y-57500000D01*
X65400000Y-50200000D02*
X75500000Y-50200000D01*
D28*
%TO.N,Net-(C8-Pad2)*%
X73912500Y-79687500D02*
X73912500Y-79500000D01*
X72800000Y-80800000D02*
X73912500Y-79687500D01*
X70700000Y-79100000D02*
X70700000Y-80019087D01*
X70700000Y-80019087D02*
X71480913Y-80800000D01*
X71480913Y-80800000D02*
X72800000Y-80800000D01*
X68575000Y-78635000D02*
X70235000Y-78635000D01*
X70235000Y-78635000D02*
X70700000Y-79100000D01*
X73912500Y-77437500D02*
X73950000Y-77400000D01*
X73912500Y-79500000D02*
X73912500Y-77437500D01*
%TO.N,/MIX_OUT*%
X72087500Y-79500000D02*
X72087500Y-77437500D01*
X72087500Y-77437500D02*
X72050000Y-77400000D01*
X70035000Y-77365000D02*
X72015000Y-77365000D01*
X72015000Y-77365000D02*
X72050000Y-77400000D01*
%TO.N,Net-(C5-Pad2)*%
X71700000Y-72700000D02*
X72137500Y-72700000D01*
X69587500Y-70587500D02*
X71700000Y-72700000D01*
X68600000Y-70587500D02*
X69587500Y-70587500D01*
%TO.N,Net-(C4-Pad1)*%
X72962500Y-69700000D02*
X73862500Y-70600000D01*
X68600000Y-68682500D02*
X70744327Y-68682500D01*
X70744327Y-68682500D02*
X71761827Y-69700000D01*
X71761827Y-69700000D02*
X72962500Y-69700000D01*
%TO.N,Net-(C5-Pad1)*%
X71886363Y-71813173D02*
X72975673Y-71813173D01*
X70025690Y-69952500D02*
X71886363Y-71813173D01*
X72975673Y-71813173D02*
X73950000Y-72787500D01*
X68600000Y-69952500D02*
X70025690Y-69952500D01*
%TO.N,Net-(C4-Pad2)*%
X70417500Y-69317500D02*
X71700000Y-70600000D01*
X68600000Y-69317500D02*
X70417500Y-69317500D01*
X71700000Y-70600000D02*
X72137500Y-70600000D01*
%TO.N,/Q_CTRL*%
X71635000Y-68047500D02*
X68600000Y-68047500D01*
X72087500Y-68500000D02*
X71635000Y-68047500D01*
%TO.N,/FREQ_CTRL*%
X72087500Y-62500000D02*
X72087500Y-60500000D01*
%TO.N,/Q_CTRL*%
X71052500Y-68047500D02*
X68600000Y-68047500D01*
X71200000Y-65387500D02*
X71200000Y-67900000D01*
X72087500Y-64500000D02*
X71200000Y-65387500D01*
%TO.N,Net-(C9-Pad1)*%
X73912500Y-64725000D02*
X72137500Y-66500000D01*
X73912500Y-64500000D02*
X73912500Y-64725000D01*
%TO.N,/FREQ_CTRL*%
X67750000Y-67412500D02*
X68600000Y-67412500D01*
X67200000Y-67962500D02*
X67750000Y-67412500D01*
X67200000Y-70400000D02*
X67200000Y-67962500D01*
X58900000Y-76100000D02*
X61500000Y-76100000D01*
X57887500Y-77112500D02*
X58900000Y-76100000D01*
X57887500Y-77400000D02*
X57887500Y-77112500D01*
X61500000Y-76100000D02*
X67200000Y-70400000D01*
%TO.N,Net-(R9-Pad2)*%
X59712500Y-77287500D02*
X59712500Y-77400000D01*
X60300000Y-76700000D02*
X59712500Y-77287500D01*
X62210000Y-76700000D02*
X60300000Y-76700000D01*
X62815000Y-76095000D02*
X62210000Y-76700000D01*
X63425000Y-76095000D02*
X62815000Y-76095000D01*
D29*
%TO.N,GND*%
X68622500Y-71222500D02*
X69700000Y-72300000D01*
X68600000Y-71222500D02*
X68622500Y-71222500D01*
D28*
%TO.N,Net-(C3-Pad1)*%
X57850000Y-64637500D02*
X59712500Y-66500000D01*
X57850000Y-64500000D02*
X57850000Y-64637500D01*
D29*
%TO.N,-12V*%
X63400000Y-79930000D02*
X63425000Y-79905000D01*
X63400000Y-80900000D02*
X63400000Y-79930000D01*
D28*
%TO.N,Net-(C8-Pad2)*%
X66900000Y-77900000D02*
X67635000Y-78635000D01*
X64347500Y-68047500D02*
X64600000Y-68300000D01*
X67635000Y-78635000D02*
X68575000Y-78635000D01*
X63400000Y-68047500D02*
X64347500Y-68047500D01*
D29*
%TO.N,+12V*%
X68600000Y-76070000D02*
X68599999Y-74999999D01*
X68575000Y-76095000D02*
X68600000Y-76070000D01*
X68600000Y-66777500D02*
X68599999Y-65799999D01*
X91400000Y-58400000D02*
X92300000Y-57500000D01*
X91400000Y-73600000D02*
X91400000Y-58400000D01*
X92300000Y-74500000D02*
X91400000Y-73600000D01*
D28*
%TO.N,Net-(R8-Pad1)*%
X90200000Y-93200000D02*
X92400000Y-91000000D01*
%TO.N,/FREQ2*%
X46190000Y-81600000D02*
X46000000Y-81410000D01*
X57887500Y-81600000D02*
X46190000Y-81600000D01*
%TO.N,/FREQ1*%
X46530000Y-79400000D02*
X46000000Y-78870000D01*
X57787500Y-79400000D02*
X46530000Y-79400000D01*
X57887500Y-79500000D02*
X57787500Y-79400000D01*
D27*
%TO.N,/SIG_IN-*%
X50440000Y-73790000D02*
X50450000Y-73800000D01*
X46000000Y-73790000D02*
X50440000Y-73790000D01*
D28*
%TO.N,Net-(JP1-Pad2)*%
X52750000Y-74800000D02*
X57887500Y-74800000D01*
X51750000Y-73800000D02*
X52750000Y-74800000D01*
D29*
%TO.N,-12V*%
X65400000Y-70222500D02*
X65400000Y-50200000D01*
X63400000Y-71222500D02*
X64400000Y-71222500D01*
X64400000Y-71222500D02*
X65400000Y-70222500D01*
X63500000Y-48300000D02*
X65400000Y-50200000D01*
X46160000Y-48300000D02*
X63500000Y-48300000D01*
X46000000Y-48460000D02*
X46160000Y-48300000D01*
X50920000Y-63080000D02*
X46000000Y-63080000D01*
X65400000Y-50200000D02*
X63800000Y-50200000D01*
X63800000Y-50200000D02*
X50920000Y-63080000D01*
%TO.N,+12V*%
X53000000Y-58000000D02*
X46000000Y-58000000D01*
X58000000Y-53000000D02*
X53000000Y-58000000D01*
X58000000Y-50200000D02*
X58000000Y-53000000D01*
X46000000Y-51000000D02*
X57200000Y-51000000D01*
X57200000Y-51000000D02*
X58000000Y-50200000D01*
%TO.N,-12V*%
X46000000Y-48540000D02*
X46240000Y-48300000D01*
%TO.N,GND*%
X57800000Y-46000000D02*
X58000000Y-45800000D01*
D28*
%TO.N,Net-(R6-Pad1)*%
X61747500Y-77365000D02*
X63425000Y-77365000D01*
X59712500Y-79400000D02*
X61747500Y-77365000D01*
X59712500Y-83500000D02*
X59712500Y-81500000D01*
X59712500Y-81500000D02*
X59712500Y-79370000D01*
%TO.N,/MIX_OUT*%
X72052500Y-77365000D02*
X72087500Y-77400000D01*
X68575000Y-77365000D02*
X70035000Y-77365000D01*
X72050000Y-77362500D02*
X72087500Y-77400000D01*
%TO.N,Net-(C6-Pad2)*%
X59823863Y-72700000D02*
X59750000Y-72700000D01*
X61936363Y-70587500D02*
X59823863Y-72700000D01*
X63400000Y-70587500D02*
X61936363Y-70587500D01*
%TO.N,Net-(C3-Pad1)*%
X59712500Y-68500000D02*
X59712500Y-66500000D01*
X60625000Y-67412500D02*
X63400000Y-67412500D01*
X59712500Y-66500000D02*
X60625000Y-67412500D01*
%TO.N,Net-(C3-Pad2)*%
X62027500Y-66777500D02*
X63400000Y-66777500D01*
X59750000Y-64500000D02*
X62027500Y-66777500D01*
X59712500Y-62500000D02*
X59712500Y-64462500D01*
X59712500Y-64462500D02*
X59750000Y-64500000D01*
X59712500Y-60500000D02*
X59712500Y-62500000D01*
%TD*%
%TA.AperFunction,Conductor*%
%TO.N,GND*%
G36*
X99433621Y-40528502D02*
G01*
X99480114Y-40582158D01*
X99491500Y-40634500D01*
X99491500Y-95365500D01*
X99471498Y-95433621D01*
X99417842Y-95480114D01*
X99365500Y-95491500D01*
X38634500Y-95491500D01*
X38566379Y-95471498D01*
X38519886Y-95417842D01*
X38508500Y-95365500D01*
X38508500Y-83916695D01*
X44637251Y-83916695D01*
X44637548Y-83921848D01*
X44637548Y-83921851D01*
X44643011Y-84016590D01*
X44650110Y-84139715D01*
X44651247Y-84144761D01*
X44651248Y-84144767D01*
X44671119Y-84232939D01*
X44699222Y-84357639D01*
X44783266Y-84564616D01*
X44899987Y-84755088D01*
X45046250Y-84923938D01*
X45218126Y-85066632D01*
X45411000Y-85179338D01*
X45619692Y-85259030D01*
X45624760Y-85260061D01*
X45624763Y-85260062D01*
X45732017Y-85281883D01*
X45838597Y-85303567D01*
X45843772Y-85303757D01*
X45843774Y-85303757D01*
X46056673Y-85311564D01*
X46056677Y-85311564D01*
X46061837Y-85311753D01*
X46066957Y-85311097D01*
X46066959Y-85311097D01*
X46278288Y-85284025D01*
X46278289Y-85284025D01*
X46283416Y-85283368D01*
X46288366Y-85281883D01*
X46492429Y-85220661D01*
X46492434Y-85220659D01*
X46497384Y-85219174D01*
X46697994Y-85120896D01*
X46879860Y-84991173D01*
X47038096Y-84833489D01*
X47097594Y-84750689D01*
X47165435Y-84656277D01*
X47168453Y-84652077D01*
X47179934Y-84628848D01*
X47265136Y-84456453D01*
X47265137Y-84456451D01*
X47267430Y-84451811D01*
X47310094Y-84311389D01*
X47330865Y-84243023D01*
X47330865Y-84243021D01*
X47332370Y-84238069D01*
X47361529Y-84016590D01*
X47361838Y-84003958D01*
X47363074Y-83953365D01*
X47363074Y-83953361D01*
X47363156Y-83950000D01*
X47344852Y-83727361D01*
X47290431Y-83510702D01*
X47201354Y-83305840D01*
X47134737Y-83202866D01*
X47082822Y-83122617D01*
X47082820Y-83122614D01*
X47080014Y-83118277D01*
X46929670Y-82953051D01*
X46925619Y-82949852D01*
X46925615Y-82949848D01*
X46758414Y-82817800D01*
X46758410Y-82817798D01*
X46754359Y-82814598D01*
X46713053Y-82791796D01*
X46663084Y-82741364D01*
X46648312Y-82671921D01*
X46673428Y-82605516D01*
X46700780Y-82578909D01*
X46744603Y-82547650D01*
X46879860Y-82451173D01*
X46889994Y-82441075D01*
X46965541Y-82365791D01*
X47038096Y-82293489D01*
X47043496Y-82285974D01*
X47099490Y-82242326D01*
X47145819Y-82233500D01*
X56795803Y-82233500D01*
X56863924Y-82253502D01*
X56910417Y-82307158D01*
X56915326Y-82319623D01*
X56933450Y-82373946D01*
X56937301Y-82380170D01*
X56937302Y-82380171D01*
X56974991Y-82441075D01*
X57026522Y-82524348D01*
X57031704Y-82529521D01*
X57031708Y-82529526D01*
X57063108Y-82560871D01*
X57097188Y-82623153D01*
X57092185Y-82693973D01*
X57063265Y-82739061D01*
X57060966Y-82741364D01*
X57025695Y-82776697D01*
X57021855Y-82782927D01*
X57021854Y-82782928D01*
X57000359Y-82817800D01*
X56932885Y-82927262D01*
X56925394Y-82949848D01*
X56882720Y-83078507D01*
X56877203Y-83095139D01*
X56876503Y-83101975D01*
X56876502Y-83101978D01*
X56872091Y-83145031D01*
X56866500Y-83199600D01*
X56866500Y-84200400D01*
X56877474Y-84306166D01*
X56879655Y-84312702D01*
X56879655Y-84312704D01*
X56923728Y-84444806D01*
X56933450Y-84473946D01*
X57026522Y-84624348D01*
X57151697Y-84749305D01*
X57157927Y-84753145D01*
X57157928Y-84753146D01*
X57295090Y-84837694D01*
X57302262Y-84842115D01*
X57382005Y-84868564D01*
X57463611Y-84895632D01*
X57463613Y-84895632D01*
X57470139Y-84897797D01*
X57476975Y-84898497D01*
X57476978Y-84898498D01*
X57520031Y-84902909D01*
X57574600Y-84908500D01*
X58147906Y-84908500D01*
X58216027Y-84928502D01*
X58237001Y-84945405D01*
X62561125Y-89269530D01*
X66883848Y-93592253D01*
X66891388Y-93600539D01*
X66895500Y-93607018D01*
X66901277Y-93612443D01*
X66945151Y-93653643D01*
X66947993Y-93656398D01*
X66967730Y-93676135D01*
X66970927Y-93678615D01*
X66979947Y-93686318D01*
X67012179Y-93716586D01*
X67019125Y-93720405D01*
X67019128Y-93720407D01*
X67029934Y-93726348D01*
X67046453Y-93737199D01*
X67062459Y-93749614D01*
X67069728Y-93752759D01*
X67069732Y-93752762D01*
X67103037Y-93767174D01*
X67113687Y-93772391D01*
X67152440Y-93793695D01*
X67160115Y-93795666D01*
X67160116Y-93795666D01*
X67172062Y-93798733D01*
X67190767Y-93805137D01*
X67209355Y-93813181D01*
X67217178Y-93814420D01*
X67217188Y-93814423D01*
X67253024Y-93820099D01*
X67264644Y-93822505D01*
X67296459Y-93830673D01*
X67307470Y-93833500D01*
X67327724Y-93833500D01*
X67347434Y-93835051D01*
X67367443Y-93838220D01*
X67375335Y-93837474D01*
X67394080Y-93835702D01*
X67411462Y-93834059D01*
X67423319Y-93833500D01*
X90121233Y-93833500D01*
X90132416Y-93834027D01*
X90139909Y-93835702D01*
X90147835Y-93835453D01*
X90147836Y-93835453D01*
X90207986Y-93833562D01*
X90211945Y-93833500D01*
X90239856Y-93833500D01*
X90243791Y-93833003D01*
X90243856Y-93832995D01*
X90255693Y-93832062D01*
X90287951Y-93831048D01*
X90291970Y-93830922D01*
X90299889Y-93830673D01*
X90319343Y-93825021D01*
X90338700Y-93821013D01*
X90350930Y-93819468D01*
X90350931Y-93819468D01*
X90358797Y-93818474D01*
X90366168Y-93815555D01*
X90366170Y-93815555D01*
X90399912Y-93802196D01*
X90411142Y-93798351D01*
X90445983Y-93788229D01*
X90445984Y-93788229D01*
X90453593Y-93786018D01*
X90460412Y-93781985D01*
X90460417Y-93781983D01*
X90471028Y-93775707D01*
X90488776Y-93767012D01*
X90507617Y-93759552D01*
X90543387Y-93733564D01*
X90553307Y-93727048D01*
X90584535Y-93708580D01*
X90584538Y-93708578D01*
X90591362Y-93704542D01*
X90605683Y-93690221D01*
X90620717Y-93677380D01*
X90630694Y-93670131D01*
X90637107Y-93665472D01*
X90665298Y-93631395D01*
X90673288Y-93622616D01*
X91902149Y-92393756D01*
X91964461Y-92359730D01*
X92016364Y-92359380D01*
X92086164Y-92373581D01*
X92232656Y-92403385D01*
X92363324Y-92408176D01*
X92458949Y-92411683D01*
X92458953Y-92411683D01*
X92464113Y-92411872D01*
X92469233Y-92411216D01*
X92469235Y-92411216D01*
X92542270Y-92401860D01*
X92693847Y-92382442D01*
X92698795Y-92380957D01*
X92698802Y-92380956D01*
X92910747Y-92317369D01*
X92915690Y-92315886D01*
X92996236Y-92276427D01*
X93119049Y-92216262D01*
X93119052Y-92216260D01*
X93123684Y-92213991D01*
X93312243Y-92079494D01*
X93476303Y-91916005D01*
X93611458Y-91727917D01*
X93658641Y-91632450D01*
X93711784Y-91524922D01*
X93711785Y-91524920D01*
X93714078Y-91520280D01*
X93781408Y-91298671D01*
X93811640Y-91069041D01*
X93813327Y-91000000D01*
X93807032Y-90923434D01*
X93794773Y-90774318D01*
X93794772Y-90774312D01*
X93794349Y-90769167D01*
X93766137Y-90656850D01*
X93739184Y-90549544D01*
X93739183Y-90549540D01*
X93737925Y-90544533D01*
X93645570Y-90332131D01*
X93519764Y-90137665D01*
X93363887Y-89966358D01*
X93359836Y-89963159D01*
X93359832Y-89963155D01*
X93186177Y-89826011D01*
X93186172Y-89826008D01*
X93182123Y-89822810D01*
X93177607Y-89820317D01*
X93177604Y-89820315D01*
X92983879Y-89713373D01*
X92983875Y-89713371D01*
X92979355Y-89710876D01*
X92974486Y-89709152D01*
X92974482Y-89709150D01*
X92765903Y-89635288D01*
X92765899Y-89635287D01*
X92761028Y-89633562D01*
X92755935Y-89632655D01*
X92755932Y-89632654D01*
X92538095Y-89593851D01*
X92538089Y-89593850D01*
X92533006Y-89592945D01*
X92460096Y-89592054D01*
X92306581Y-89590179D01*
X92306579Y-89590179D01*
X92301411Y-89590116D01*
X92072464Y-89625150D01*
X91852314Y-89697106D01*
X91847726Y-89699494D01*
X91847722Y-89699496D01*
X91821065Y-89713373D01*
X91646872Y-89804052D01*
X91642739Y-89807155D01*
X91642736Y-89807157D01*
X91617625Y-89826011D01*
X91461655Y-89943117D01*
X91301639Y-90110564D01*
X91254836Y-90179174D01*
X91199927Y-90224175D01*
X91129402Y-90232346D01*
X91065655Y-90201092D01*
X91044959Y-90176609D01*
X91022577Y-90142013D01*
X91022574Y-90142009D01*
X91019764Y-90137665D01*
X90863887Y-89966358D01*
X90859836Y-89963159D01*
X90859832Y-89963155D01*
X90686177Y-89826011D01*
X90686172Y-89826008D01*
X90682123Y-89822810D01*
X90677607Y-89820317D01*
X90677604Y-89820315D01*
X90483879Y-89713373D01*
X90483875Y-89713371D01*
X90479355Y-89710876D01*
X90474486Y-89709152D01*
X90474482Y-89709150D01*
X90265903Y-89635288D01*
X90265899Y-89635287D01*
X90261028Y-89633562D01*
X90255935Y-89632655D01*
X90255932Y-89632654D01*
X90038095Y-89593851D01*
X90038089Y-89593850D01*
X90033006Y-89592945D01*
X89960096Y-89592054D01*
X89806581Y-89590179D01*
X89806579Y-89590179D01*
X89801411Y-89590116D01*
X89572464Y-89625150D01*
X89352314Y-89697106D01*
X89347726Y-89699494D01*
X89347722Y-89699496D01*
X89321065Y-89713373D01*
X89146872Y-89804052D01*
X89142739Y-89807155D01*
X89142736Y-89807157D01*
X89117625Y-89826011D01*
X88961655Y-89943117D01*
X88801639Y-90110564D01*
X88754836Y-90179174D01*
X88699927Y-90224175D01*
X88629402Y-90232346D01*
X88565655Y-90201092D01*
X88544959Y-90176609D01*
X88522577Y-90142013D01*
X88522574Y-90142009D01*
X88519764Y-90137665D01*
X88363887Y-89966358D01*
X88359836Y-89963159D01*
X88359832Y-89963155D01*
X88186177Y-89826011D01*
X88186172Y-89826008D01*
X88182123Y-89822810D01*
X88177607Y-89820317D01*
X88177604Y-89820315D01*
X87983879Y-89713373D01*
X87983875Y-89713371D01*
X87979355Y-89710876D01*
X87974486Y-89709152D01*
X87974482Y-89709150D01*
X87765903Y-89635288D01*
X87765899Y-89635287D01*
X87761028Y-89633562D01*
X87755935Y-89632655D01*
X87755932Y-89632654D01*
X87538095Y-89593851D01*
X87538089Y-89593850D01*
X87533006Y-89592945D01*
X87460096Y-89592054D01*
X87306581Y-89590179D01*
X87306579Y-89590179D01*
X87301411Y-89590116D01*
X87072464Y-89625150D01*
X87031885Y-89638413D01*
X86960922Y-89640563D01*
X86903647Y-89607742D01*
X85603652Y-88307747D01*
X85596112Y-88299461D01*
X85592000Y-88292982D01*
X85542348Y-88246356D01*
X85539507Y-88243602D01*
X85519770Y-88223865D01*
X85516573Y-88221385D01*
X85507551Y-88213680D01*
X85481100Y-88188841D01*
X85475321Y-88183414D01*
X85468375Y-88179595D01*
X85468372Y-88179593D01*
X85457566Y-88173652D01*
X85441047Y-88162801D01*
X85440583Y-88162441D01*
X85425041Y-88150386D01*
X85417772Y-88147241D01*
X85417768Y-88147238D01*
X85384463Y-88132826D01*
X85373813Y-88127609D01*
X85335060Y-88106305D01*
X85315437Y-88101267D01*
X85296734Y-88094863D01*
X85285420Y-88089967D01*
X85285419Y-88089967D01*
X85278145Y-88086819D01*
X85270322Y-88085580D01*
X85270312Y-88085577D01*
X85234476Y-88079901D01*
X85222856Y-88077495D01*
X85187711Y-88068472D01*
X85187710Y-88068472D01*
X85180030Y-88066500D01*
X85159776Y-88066500D01*
X85140065Y-88064949D01*
X85127886Y-88063020D01*
X85120057Y-88061780D01*
X85112165Y-88062526D01*
X85076039Y-88065941D01*
X85064181Y-88066500D01*
X73114595Y-88066500D01*
X73046474Y-88046498D01*
X73025500Y-88029595D01*
X68995905Y-84000000D01*
X82986540Y-84000000D01*
X83006359Y-84315020D01*
X83065505Y-84625072D01*
X83075644Y-84656277D01*
X83154347Y-84898498D01*
X83163044Y-84925266D01*
X83164731Y-84928852D01*
X83164733Y-84928856D01*
X83295750Y-85207283D01*
X83295754Y-85207290D01*
X83297438Y-85210869D01*
X83299562Y-85214215D01*
X83299562Y-85214216D01*
X83303652Y-85220661D01*
X83466568Y-85477375D01*
X83667767Y-85720582D01*
X83897860Y-85936654D01*
X84153221Y-86122184D01*
X84429821Y-86274247D01*
X84433490Y-86275700D01*
X84433495Y-86275702D01*
X84719628Y-86388990D01*
X84723298Y-86390443D01*
X85029025Y-86468940D01*
X85342179Y-86508500D01*
X85657821Y-86508500D01*
X85970975Y-86468940D01*
X86276702Y-86390443D01*
X86280372Y-86388990D01*
X86566505Y-86275702D01*
X86566510Y-86275700D01*
X86570179Y-86274247D01*
X86846779Y-86122184D01*
X87102140Y-85936654D01*
X87332233Y-85720582D01*
X87533432Y-85477375D01*
X87696348Y-85220661D01*
X87700438Y-85214216D01*
X87700438Y-85214215D01*
X87702562Y-85210869D01*
X87704246Y-85207290D01*
X87704250Y-85207283D01*
X87835267Y-84928856D01*
X87835269Y-84928852D01*
X87836956Y-84925266D01*
X87845654Y-84898498D01*
X87924356Y-84656277D01*
X87934495Y-84625072D01*
X87993641Y-84315020D01*
X88013460Y-84000000D01*
X91786540Y-84000000D01*
X91806359Y-84315020D01*
X91865505Y-84625072D01*
X91875644Y-84656277D01*
X91954347Y-84898498D01*
X91963044Y-84925266D01*
X91964731Y-84928852D01*
X91964733Y-84928856D01*
X92095750Y-85207283D01*
X92095754Y-85207290D01*
X92097438Y-85210869D01*
X92099562Y-85214215D01*
X92099562Y-85214216D01*
X92103652Y-85220661D01*
X92266568Y-85477375D01*
X92467767Y-85720582D01*
X92697860Y-85936654D01*
X92953221Y-86122184D01*
X93229821Y-86274247D01*
X93233490Y-86275700D01*
X93233495Y-86275702D01*
X93519628Y-86388990D01*
X93523298Y-86390443D01*
X93829025Y-86468940D01*
X94142179Y-86508500D01*
X94457821Y-86508500D01*
X94770975Y-86468940D01*
X95076702Y-86390443D01*
X95080372Y-86388990D01*
X95366505Y-86275702D01*
X95366510Y-86275700D01*
X95370179Y-86274247D01*
X95646779Y-86122184D01*
X95902140Y-85936654D01*
X96132233Y-85720582D01*
X96333432Y-85477375D01*
X96496348Y-85220661D01*
X96500438Y-85214216D01*
X96500438Y-85214215D01*
X96502562Y-85210869D01*
X96504246Y-85207290D01*
X96504250Y-85207283D01*
X96635267Y-84928856D01*
X96635269Y-84928852D01*
X96636956Y-84925266D01*
X96645654Y-84898498D01*
X96724356Y-84656277D01*
X96734495Y-84625072D01*
X96793641Y-84315020D01*
X96813460Y-84000000D01*
X96793641Y-83684980D01*
X96734495Y-83374928D01*
X96636956Y-83074734D01*
X96579697Y-82953051D01*
X96504250Y-82792717D01*
X96504246Y-82792710D01*
X96502562Y-82789131D01*
X96498626Y-82782928D01*
X96428178Y-82671921D01*
X96333432Y-82522625D01*
X96155182Y-82307158D01*
X96134758Y-82282470D01*
X96134757Y-82282469D01*
X96132233Y-82279418D01*
X95902140Y-82063346D01*
X95646779Y-81877816D01*
X95588876Y-81845983D01*
X95373648Y-81727660D01*
X95373647Y-81727659D01*
X95370179Y-81725753D01*
X95366510Y-81724300D01*
X95366505Y-81724298D01*
X95080372Y-81611010D01*
X95080371Y-81611010D01*
X95076702Y-81609557D01*
X94770975Y-81531060D01*
X94457821Y-81491500D01*
X94142179Y-81491500D01*
X93829025Y-81531060D01*
X93523298Y-81609557D01*
X93519629Y-81611010D01*
X93519628Y-81611010D01*
X93233495Y-81724298D01*
X93233490Y-81724300D01*
X93229821Y-81725753D01*
X93226353Y-81727659D01*
X93226352Y-81727660D01*
X93011125Y-81845983D01*
X92953221Y-81877816D01*
X92697860Y-82063346D01*
X92467767Y-82279418D01*
X92465243Y-82282469D01*
X92465242Y-82282470D01*
X92444818Y-82307158D01*
X92266568Y-82522625D01*
X92171822Y-82671921D01*
X92101375Y-82782928D01*
X92097438Y-82789131D01*
X92095754Y-82792710D01*
X92095750Y-82792717D01*
X92020303Y-82953051D01*
X91963044Y-83074734D01*
X91865505Y-83374928D01*
X91806359Y-83684980D01*
X91786540Y-84000000D01*
X88013460Y-84000000D01*
X87993641Y-83684980D01*
X87934495Y-83374928D01*
X87836956Y-83074734D01*
X87779697Y-82953051D01*
X87704250Y-82792717D01*
X87704246Y-82792710D01*
X87702562Y-82789131D01*
X87698626Y-82782928D01*
X87628178Y-82671921D01*
X87533432Y-82522625D01*
X87355182Y-82307158D01*
X87334758Y-82282470D01*
X87334757Y-82282469D01*
X87332233Y-82279418D01*
X87102140Y-82063346D01*
X86846779Y-81877816D01*
X86788876Y-81845983D01*
X86573648Y-81727660D01*
X86573647Y-81727659D01*
X86570179Y-81725753D01*
X86566510Y-81724300D01*
X86566505Y-81724298D01*
X86280372Y-81611010D01*
X86280371Y-81611010D01*
X86276702Y-81609557D01*
X85970975Y-81531060D01*
X85657821Y-81491500D01*
X85342179Y-81491500D01*
X85029025Y-81531060D01*
X84723298Y-81609557D01*
X84719629Y-81611010D01*
X84719628Y-81611010D01*
X84433495Y-81724298D01*
X84433490Y-81724300D01*
X84429821Y-81725753D01*
X84426353Y-81727659D01*
X84426352Y-81727660D01*
X84211125Y-81845983D01*
X84153221Y-81877816D01*
X83897860Y-82063346D01*
X83667767Y-82279418D01*
X83665243Y-82282469D01*
X83665242Y-82282470D01*
X83644818Y-82307158D01*
X83466568Y-82522625D01*
X83371822Y-82671921D01*
X83301375Y-82782928D01*
X83297438Y-82789131D01*
X83295754Y-82792710D01*
X83295750Y-82792717D01*
X83220303Y-82953051D01*
X83163044Y-83074734D01*
X83065505Y-83374928D01*
X83006359Y-83684980D01*
X82986540Y-84000000D01*
X68995905Y-84000000D01*
X66370405Y-81374500D01*
X66336379Y-81312188D01*
X66333500Y-81285405D01*
X66333500Y-80170871D01*
X67198456Y-80170871D01*
X67239107Y-80310790D01*
X67245352Y-80325221D01*
X67321911Y-80454678D01*
X67331551Y-80467104D01*
X67437896Y-80573449D01*
X67450322Y-80583089D01*
X67579779Y-80659648D01*
X67594210Y-80665893D01*
X67740065Y-80708269D01*
X67752667Y-80710570D01*
X67781084Y-80712807D01*
X67786014Y-80713000D01*
X68302885Y-80713000D01*
X68318124Y-80708525D01*
X68319329Y-80707135D01*
X68321000Y-80699452D01*
X68321000Y-80177115D01*
X68316525Y-80161876D01*
X68315135Y-80160671D01*
X68307452Y-80159000D01*
X67213122Y-80159000D01*
X67199591Y-80162973D01*
X67198456Y-80170871D01*
X66333500Y-80170871D01*
X66333500Y-78836278D01*
X66353502Y-78768157D01*
X66407158Y-78721664D01*
X66477432Y-78711560D01*
X66510747Y-78721171D01*
X66617712Y-78768794D01*
X66711112Y-78788647D01*
X66798056Y-78807128D01*
X66798061Y-78807128D01*
X66804513Y-78808500D01*
X66860405Y-78808500D01*
X66928526Y-78828502D01*
X66949500Y-78845405D01*
X67131348Y-79027253D01*
X67138888Y-79035539D01*
X67143000Y-79042018D01*
X67148777Y-79047443D01*
X67192651Y-79088643D01*
X67195493Y-79091398D01*
X67215230Y-79111135D01*
X67218427Y-79113615D01*
X67227447Y-79121318D01*
X67259679Y-79151586D01*
X67266625Y-79155405D01*
X67266628Y-79155407D01*
X67277434Y-79161348D01*
X67293950Y-79172197D01*
X67300531Y-79177301D01*
X67342099Y-79234855D01*
X67345953Y-79305747D01*
X67325626Y-79348314D01*
X67325945Y-79348502D01*
X67323824Y-79352089D01*
X67322871Y-79354084D01*
X67321915Y-79355317D01*
X67245352Y-79484779D01*
X67239107Y-79499210D01*
X67200061Y-79633605D01*
X67200101Y-79647706D01*
X67207370Y-79651000D01*
X68703000Y-79651000D01*
X68771121Y-79671002D01*
X68817614Y-79724658D01*
X68829000Y-79777000D01*
X68829000Y-80694884D01*
X68833475Y-80710123D01*
X68834865Y-80711328D01*
X68842548Y-80712999D01*
X69363984Y-80712999D01*
X69368920Y-80712805D01*
X69397336Y-80710570D01*
X69409931Y-80708270D01*
X69555790Y-80665893D01*
X69570221Y-80659648D01*
X69699678Y-80583089D01*
X69712104Y-80573449D01*
X69818449Y-80467104D01*
X69828089Y-80454678D01*
X69904647Y-80325223D01*
X69906669Y-80320550D01*
X69952079Y-80265975D01*
X70019786Y-80244614D01*
X70088293Y-80263249D01*
X70132985Y-80312788D01*
X70133713Y-80312388D01*
X70135412Y-80315478D01*
X70135850Y-80315964D01*
X70136521Y-80317497D01*
X70137528Y-80319329D01*
X70140448Y-80326704D01*
X70145110Y-80333120D01*
X70145110Y-80333121D01*
X70166436Y-80362474D01*
X70172952Y-80372394D01*
X70185951Y-80394373D01*
X70195458Y-80410449D01*
X70209779Y-80424770D01*
X70222619Y-80439803D01*
X70234528Y-80456194D01*
X70240633Y-80461245D01*
X70240638Y-80461250D01*
X70268604Y-80484386D01*
X70277382Y-80492374D01*
X70977261Y-81192253D01*
X70984801Y-81200539D01*
X70988913Y-81207018D01*
X70994690Y-81212443D01*
X71038564Y-81253643D01*
X71041406Y-81256398D01*
X71061143Y-81276135D01*
X71064340Y-81278615D01*
X71073360Y-81286318D01*
X71105592Y-81316586D01*
X71112538Y-81320405D01*
X71112541Y-81320407D01*
X71123347Y-81326348D01*
X71139866Y-81337199D01*
X71155872Y-81349614D01*
X71163141Y-81352759D01*
X71163145Y-81352762D01*
X71196450Y-81367174D01*
X71207100Y-81372391D01*
X71245853Y-81393695D01*
X71253528Y-81395666D01*
X71253529Y-81395666D01*
X71265475Y-81398733D01*
X71284180Y-81405137D01*
X71302768Y-81413181D01*
X71310591Y-81414420D01*
X71310601Y-81414423D01*
X71346437Y-81420099D01*
X71358057Y-81422505D01*
X71389872Y-81430673D01*
X71400883Y-81433500D01*
X71421137Y-81433500D01*
X71440847Y-81435051D01*
X71460856Y-81438220D01*
X71468748Y-81437474D01*
X71487493Y-81435702D01*
X71504875Y-81434059D01*
X71516732Y-81433500D01*
X72721233Y-81433500D01*
X72732416Y-81434027D01*
X72739909Y-81435702D01*
X72747835Y-81435453D01*
X72747836Y-81435453D01*
X72807986Y-81433562D01*
X72811945Y-81433500D01*
X72839856Y-81433500D01*
X72843791Y-81433003D01*
X72843856Y-81432995D01*
X72855693Y-81432062D01*
X72887951Y-81431048D01*
X72891970Y-81430922D01*
X72899889Y-81430673D01*
X72919343Y-81425021D01*
X72938700Y-81421013D01*
X72950930Y-81419468D01*
X72950931Y-81419468D01*
X72958797Y-81418474D01*
X72966168Y-81415555D01*
X72966170Y-81415555D01*
X72999912Y-81402196D01*
X73011142Y-81398351D01*
X73045983Y-81388229D01*
X73045984Y-81388229D01*
X73053593Y-81386018D01*
X73060412Y-81381985D01*
X73060417Y-81381983D01*
X73071028Y-81375707D01*
X73088776Y-81367012D01*
X73107617Y-81359552D01*
X73143387Y-81333564D01*
X73153307Y-81327048D01*
X73184535Y-81308580D01*
X73184538Y-81308578D01*
X73191362Y-81304542D01*
X73205683Y-81290221D01*
X73220717Y-81277380D01*
X73226290Y-81273331D01*
X73237107Y-81265472D01*
X73265298Y-81231395D01*
X73273288Y-81222616D01*
X73750499Y-80745405D01*
X73812811Y-80711379D01*
X73839594Y-80708500D01*
X74225400Y-80708500D01*
X74228646Y-80708163D01*
X74228650Y-80708163D01*
X74324308Y-80698238D01*
X74324312Y-80698237D01*
X74331166Y-80697526D01*
X74337702Y-80695345D01*
X74337704Y-80695345D01*
X74491998Y-80643868D01*
X74498946Y-80641550D01*
X74649348Y-80548478D01*
X74774305Y-80423303D01*
X74778146Y-80417072D01*
X74863275Y-80278968D01*
X74863276Y-80278966D01*
X74867115Y-80272738D01*
X74893564Y-80192995D01*
X74920632Y-80111389D01*
X74920632Y-80111387D01*
X74922797Y-80104861D01*
X74933500Y-80000400D01*
X74933500Y-78999600D01*
X74933163Y-78996350D01*
X74923238Y-78900692D01*
X74923237Y-78900688D01*
X74922526Y-78893834D01*
X74901751Y-78831562D01*
X74868868Y-78733002D01*
X74866550Y-78726054D01*
X74773478Y-78575652D01*
X74761913Y-78564107D01*
X74727834Y-78501824D01*
X74732837Y-78431004D01*
X74761757Y-78385917D01*
X74794133Y-78353484D01*
X74799305Y-78348303D01*
X74803146Y-78342072D01*
X74888275Y-78203968D01*
X74888276Y-78203966D01*
X74892115Y-78197738D01*
X74922753Y-78105366D01*
X74945632Y-78036389D01*
X74945632Y-78036387D01*
X74947797Y-78029861D01*
X74950928Y-77999308D01*
X74958172Y-77928598D01*
X74958500Y-77925400D01*
X74958500Y-76874600D01*
X74955973Y-76850247D01*
X74948238Y-76775692D01*
X74948237Y-76775688D01*
X74947526Y-76768834D01*
X74935071Y-76731500D01*
X74893868Y-76608002D01*
X74891550Y-76601054D01*
X74798478Y-76450652D01*
X74673303Y-76325695D01*
X74667072Y-76321854D01*
X74528968Y-76236725D01*
X74528966Y-76236724D01*
X74522738Y-76232885D01*
X74431051Y-76202474D01*
X74361389Y-76179368D01*
X74361387Y-76179368D01*
X74354861Y-76177203D01*
X74348025Y-76176503D01*
X74348022Y-76176502D01*
X74304969Y-76172091D01*
X74250400Y-76166500D01*
X73649600Y-76166500D01*
X73646354Y-76166837D01*
X73646350Y-76166837D01*
X73550692Y-76176762D01*
X73550688Y-76176763D01*
X73543834Y-76177474D01*
X73537298Y-76179655D01*
X73537296Y-76179655D01*
X73501793Y-76191500D01*
X73376054Y-76233450D01*
X73225652Y-76326522D01*
X73100695Y-76451697D01*
X73098094Y-76455916D01*
X73040970Y-76496417D01*
X72970047Y-76499649D01*
X72908635Y-76464024D01*
X72902078Y-76456470D01*
X72898478Y-76450652D01*
X72773303Y-76325695D01*
X72767072Y-76321854D01*
X72628968Y-76236725D01*
X72628966Y-76236724D01*
X72622738Y-76232885D01*
X72531051Y-76202474D01*
X72461389Y-76179368D01*
X72461387Y-76179368D01*
X72454861Y-76177203D01*
X72448025Y-76176503D01*
X72448022Y-76176502D01*
X72404969Y-76172091D01*
X72350400Y-76166500D01*
X71749600Y-76166500D01*
X71746354Y-76166837D01*
X71746350Y-76166837D01*
X71650692Y-76176762D01*
X71650688Y-76176763D01*
X71643834Y-76177474D01*
X71637298Y-76179655D01*
X71637296Y-76179655D01*
X71601793Y-76191500D01*
X71476054Y-76233450D01*
X71325652Y-76326522D01*
X71200695Y-76451697D01*
X71196855Y-76457927D01*
X71196854Y-76457928D01*
X71113975Y-76592383D01*
X71107885Y-76602262D01*
X71099942Y-76626209D01*
X71093654Y-76645167D01*
X71053223Y-76703527D01*
X70987659Y-76730764D01*
X70974061Y-76731500D01*
X70743200Y-76731500D01*
X70675079Y-76711498D01*
X70655853Y-76695157D01*
X70655580Y-76695460D01*
X70650668Y-76691037D01*
X70646253Y-76686134D01*
X70602055Y-76654022D01*
X70497094Y-76577763D01*
X70497093Y-76577762D01*
X70491752Y-76573882D01*
X70485724Y-76571198D01*
X70485722Y-76571197D01*
X70323319Y-76498891D01*
X70323318Y-76498891D01*
X70317288Y-76496206D01*
X70223888Y-76476353D01*
X70136944Y-76457872D01*
X70136939Y-76457872D01*
X70130487Y-76456500D01*
X70083395Y-76456500D01*
X70015274Y-76436498D01*
X69968781Y-76382842D01*
X69957783Y-76320616D01*
X69958306Y-76313963D01*
X69958500Y-76311502D01*
X69958500Y-75878498D01*
X69956868Y-75857759D01*
X69956067Y-75847579D01*
X69956066Y-75847574D01*
X69955562Y-75841169D01*
X69912797Y-75693968D01*
X69911357Y-75689012D01*
X69911356Y-75689010D01*
X69909145Y-75681399D01*
X69897321Y-75661406D01*
X86503423Y-75661406D01*
X86508704Y-75668461D01*
X86685080Y-75771527D01*
X86694363Y-75775974D01*
X86901003Y-75854883D01*
X86910901Y-75857759D01*
X87127653Y-75901857D01*
X87137883Y-75903076D01*
X87358914Y-75911182D01*
X87369223Y-75910714D01*
X87588623Y-75882608D01*
X87598688Y-75880468D01*
X87810557Y-75816905D01*
X87820152Y-75813144D01*
X88018778Y-75715838D01*
X88027636Y-75710559D01*
X88085097Y-75669572D01*
X88093497Y-75658874D01*
X88086510Y-75645721D01*
X87312811Y-74872021D01*
X87298868Y-74864408D01*
X87297034Y-74864539D01*
X87290420Y-74868790D01*
X86510180Y-75649031D01*
X86503423Y-75661406D01*
X69897321Y-75661406D01*
X69873821Y-75621669D01*
X69828491Y-75545020D01*
X69828489Y-75545017D01*
X69824453Y-75538193D01*
X69706807Y-75420547D01*
X69699983Y-75416511D01*
X69699980Y-75416509D01*
X69640713Y-75381459D01*
X69592260Y-75329566D01*
X69579555Y-75259716D01*
X69585294Y-75233235D01*
X69588196Y-75224512D01*
X69612984Y-75028294D01*
X69613379Y-74999999D01*
X69594079Y-74803166D01*
X69536915Y-74613830D01*
X69460779Y-74470638D01*
X85887893Y-74470638D01*
X85900627Y-74691468D01*
X85902061Y-74701670D01*
X85950685Y-74917439D01*
X85953773Y-74927292D01*
X86036986Y-75132220D01*
X86041634Y-75141421D01*
X86130097Y-75285781D01*
X86140553Y-75295242D01*
X86149331Y-75291458D01*
X86927979Y-74512811D01*
X86935592Y-74498868D01*
X86935461Y-74497034D01*
X86931210Y-74490420D01*
X86153862Y-73713073D01*
X86142330Y-73706776D01*
X86130048Y-73716399D01*
X86074467Y-73797877D01*
X86069379Y-73806833D01*
X85976252Y-74007459D01*
X85972689Y-74017146D01*
X85913581Y-74230280D01*
X85911650Y-74240400D01*
X85888145Y-74460349D01*
X85887893Y-74470638D01*
X69460779Y-74470638D01*
X69444065Y-74439203D01*
X69332903Y-74302905D01*
X69322959Y-74290712D01*
X69322956Y-74290709D01*
X69319064Y-74285937D01*
X69312723Y-74280691D01*
X69171424Y-74163798D01*
X69171420Y-74163796D01*
X69166674Y-74159869D01*
X68992700Y-74065801D01*
X68803767Y-74007317D01*
X68797642Y-74006673D01*
X68797641Y-74006673D01*
X68613203Y-73987288D01*
X68613201Y-73987288D01*
X68607074Y-73986644D01*
X68524575Y-73994152D01*
X68416250Y-74004010D01*
X68416247Y-74004011D01*
X68410111Y-74004569D01*
X68404205Y-74006307D01*
X68404201Y-74006308D01*
X68312775Y-74033216D01*
X68220380Y-74060409D01*
X68214922Y-74063262D01*
X68214918Y-74063264D01*
X68124146Y-74110719D01*
X68045109Y-74152039D01*
X67890974Y-74275967D01*
X67763845Y-74427473D01*
X67760878Y-74432871D01*
X67760874Y-74432876D01*
X67686018Y-74569041D01*
X67668566Y-74600786D01*
X67666705Y-74606653D01*
X67666704Y-74606655D01*
X67620059Y-74753699D01*
X67608764Y-74789305D01*
X67586718Y-74985850D01*
X67603267Y-75182933D01*
X67604965Y-75188853D01*
X67611471Y-75211545D01*
X67611019Y-75282540D01*
X67572256Y-75342021D01*
X67554490Y-75354726D01*
X67450020Y-75416509D01*
X67450017Y-75416511D01*
X67443193Y-75420547D01*
X67325547Y-75538193D01*
X67321511Y-75545017D01*
X67321509Y-75545020D01*
X67276179Y-75621669D01*
X67240855Y-75681399D01*
X67238644Y-75689010D01*
X67238643Y-75689012D01*
X67237203Y-75693968D01*
X67194438Y-75841169D01*
X67193934Y-75847574D01*
X67193933Y-75847579D01*
X67193132Y-75857759D01*
X67191500Y-75878498D01*
X67191500Y-76311502D01*
X67191693Y-76313950D01*
X67191693Y-76313958D01*
X67192379Y-76322668D01*
X67194438Y-76348831D01*
X67240855Y-76508601D01*
X67325547Y-76651807D01*
X67328229Y-76654489D01*
X67353502Y-76718861D01*
X67339600Y-76788484D01*
X67329428Y-76804312D01*
X67325547Y-76808193D01*
X67240855Y-76951399D01*
X67238916Y-76950252D01*
X67200837Y-76996019D01*
X67133130Y-77017381D01*
X67104411Y-77014652D01*
X67001953Y-76992873D01*
X67001940Y-76992872D01*
X66995487Y-76991500D01*
X66804513Y-76991500D01*
X66798061Y-76992872D01*
X66798056Y-76992872D01*
X66711112Y-77011353D01*
X66617712Y-77031206D01*
X66611682Y-77033891D01*
X66611681Y-77033891D01*
X66586384Y-77045154D01*
X66512233Y-77078168D01*
X66441867Y-77087602D01*
X66377570Y-77057496D01*
X66339756Y-76997407D01*
X66336353Y-76960071D01*
X66335702Y-76960091D01*
X66333562Y-76892001D01*
X66333500Y-76888043D01*
X66333500Y-76860144D01*
X66332996Y-76856153D01*
X66332063Y-76844311D01*
X66331811Y-76836267D01*
X66330674Y-76800111D01*
X66328462Y-76792497D01*
X66328461Y-76792492D01*
X66325023Y-76780659D01*
X66321012Y-76761295D01*
X66319467Y-76749064D01*
X66318474Y-76741203D01*
X66315557Y-76733836D01*
X66315556Y-76733831D01*
X66302198Y-76700092D01*
X66298354Y-76688865D01*
X66288230Y-76654022D01*
X66286018Y-76646407D01*
X66275707Y-76628972D01*
X66267012Y-76611224D01*
X66259552Y-76592383D01*
X66253462Y-76584000D01*
X66233564Y-76556613D01*
X66227048Y-76546693D01*
X66208580Y-76515465D01*
X66208578Y-76515462D01*
X66204542Y-76508638D01*
X66190221Y-76494317D01*
X66177380Y-76479283D01*
X66175501Y-76476697D01*
X66165472Y-76462893D01*
X66159367Y-76457842D01*
X66159362Y-76457837D01*
X66131396Y-76434701D01*
X66122618Y-76426713D01*
X65398652Y-75702747D01*
X65391112Y-75694461D01*
X65387000Y-75687982D01*
X65337348Y-75641356D01*
X65334507Y-75638602D01*
X65314770Y-75618865D01*
X65311573Y-75616385D01*
X65302551Y-75608680D01*
X65276100Y-75583841D01*
X65270321Y-75578414D01*
X65263375Y-75574595D01*
X65263372Y-75574593D01*
X65252566Y-75568652D01*
X65236047Y-75557801D01*
X65235583Y-75557441D01*
X65220041Y-75545386D01*
X65212772Y-75542241D01*
X65212768Y-75542238D01*
X65179463Y-75527826D01*
X65168813Y-75522609D01*
X65130060Y-75501305D01*
X65110437Y-75496267D01*
X65091734Y-75489863D01*
X65080420Y-75484967D01*
X65080419Y-75484967D01*
X65073145Y-75481819D01*
X65065322Y-75480580D01*
X65065312Y-75480577D01*
X65029476Y-75474901D01*
X65017856Y-75472495D01*
X64982711Y-75463472D01*
X64982710Y-75463472D01*
X64975030Y-75461500D01*
X64954776Y-75461500D01*
X64935065Y-75459949D01*
X64922886Y-75458020D01*
X64915057Y-75456780D01*
X64907165Y-75457526D01*
X64871039Y-75460941D01*
X64859181Y-75461500D01*
X64649950Y-75461500D01*
X64581829Y-75441498D01*
X64568729Y-75430941D01*
X64568675Y-75431011D01*
X64562415Y-75426155D01*
X64556807Y-75420547D01*
X64549983Y-75416511D01*
X64549980Y-75416509D01*
X64420427Y-75339892D01*
X64420428Y-75339892D01*
X64413601Y-75335855D01*
X64405990Y-75333644D01*
X64405988Y-75333643D01*
X64302429Y-75303557D01*
X64253831Y-75289438D01*
X64247426Y-75288934D01*
X64247421Y-75288933D01*
X64218958Y-75286693D01*
X64218950Y-75286693D01*
X64216502Y-75286500D01*
X63513594Y-75286500D01*
X63445473Y-75266498D01*
X63398980Y-75212842D01*
X63388876Y-75142568D01*
X63418370Y-75077988D01*
X63424499Y-75071405D01*
X67409057Y-71086847D01*
X67471369Y-71052821D01*
X67542184Y-71057886D01*
X67598979Y-71100377D01*
X67636739Y-71150761D01*
X67643919Y-71156142D01*
X67643920Y-71156143D01*
X67696666Y-71195674D01*
X67739181Y-71252533D01*
X67744207Y-71323352D01*
X67710147Y-71385645D01*
X67647816Y-71419635D01*
X67621101Y-71422500D01*
X67510116Y-71422500D01*
X67494877Y-71426975D01*
X67493672Y-71428365D01*
X67492001Y-71436048D01*
X67492001Y-71467169D01*
X67492371Y-71473990D01*
X67497895Y-71524852D01*
X67501521Y-71540104D01*
X67546676Y-71660554D01*
X67555214Y-71676149D01*
X67631715Y-71778224D01*
X67644276Y-71790785D01*
X67746351Y-71867286D01*
X67761946Y-71875824D01*
X67882394Y-71920978D01*
X67897649Y-71924605D01*
X67948514Y-71930131D01*
X67955328Y-71930500D01*
X68381885Y-71930500D01*
X68397124Y-71926025D01*
X68398329Y-71924635D01*
X68400000Y-71916952D01*
X68400000Y-71422500D01*
X68404957Y-71422500D01*
X68404945Y-71386543D01*
X68443308Y-71326804D01*
X68507878Y-71297289D01*
X68525853Y-71296000D01*
X68674000Y-71296000D01*
X68742121Y-71316002D01*
X68788614Y-71369658D01*
X68800000Y-71422000D01*
X68800000Y-71912384D01*
X68804475Y-71927623D01*
X68805865Y-71928828D01*
X68813548Y-71930499D01*
X69244669Y-71930499D01*
X69251490Y-71930129D01*
X69302352Y-71924605D01*
X69317604Y-71920979D01*
X69438054Y-71875824D01*
X69453649Y-71867286D01*
X69555724Y-71790785D01*
X69568284Y-71778225D01*
X69615657Y-71715014D01*
X69672516Y-71672498D01*
X69743334Y-71667472D01*
X69805579Y-71701483D01*
X71059921Y-72955825D01*
X71093947Y-73018137D01*
X71096152Y-73031911D01*
X71102293Y-73091093D01*
X71104474Y-73097629D01*
X71104474Y-73097631D01*
X71118080Y-73138412D01*
X71157346Y-73256107D01*
X71248884Y-73404031D01*
X71254066Y-73409204D01*
X71366816Y-73521758D01*
X71366821Y-73521762D01*
X71371997Y-73526929D01*
X71378227Y-73530769D01*
X71378228Y-73530770D01*
X71424352Y-73559201D01*
X71520080Y-73618209D01*
X71685191Y-73672974D01*
X71692027Y-73673674D01*
X71692030Y-73673675D01*
X71743526Y-73678951D01*
X71787928Y-73683500D01*
X72487072Y-73683500D01*
X72490318Y-73683163D01*
X72490322Y-73683163D01*
X72584235Y-73673419D01*
X72584239Y-73673418D01*
X72591093Y-73672707D01*
X72597629Y-73670526D01*
X72597631Y-73670526D01*
X72742157Y-73622308D01*
X72756107Y-73617654D01*
X72813605Y-73582073D01*
X72897805Y-73529969D01*
X72897806Y-73529968D01*
X72904031Y-73526116D01*
X72910923Y-73519212D01*
X72912387Y-73518411D01*
X72914938Y-73516389D01*
X72915284Y-73516826D01*
X72973204Y-73485134D01*
X73044024Y-73490137D01*
X73089110Y-73519056D01*
X73091616Y-73521557D01*
X73096997Y-73526929D01*
X73103227Y-73530769D01*
X73103228Y-73530770D01*
X73149352Y-73559201D01*
X73245080Y-73618209D01*
X73410191Y-73672974D01*
X73417027Y-73673674D01*
X73417030Y-73673675D01*
X73468526Y-73678951D01*
X73512928Y-73683500D01*
X74212072Y-73683500D01*
X74215318Y-73683163D01*
X74215322Y-73683163D01*
X74309235Y-73673419D01*
X74309239Y-73673418D01*
X74316093Y-73672707D01*
X74322629Y-73670526D01*
X74322631Y-73670526D01*
X74467157Y-73622308D01*
X74481107Y-73617654D01*
X74629031Y-73526116D01*
X74664947Y-73490137D01*
X74746758Y-73408184D01*
X74746762Y-73408179D01*
X74751929Y-73403003D01*
X74782727Y-73353040D01*
X74839369Y-73261150D01*
X74839370Y-73261148D01*
X74843209Y-73254920D01*
X74897974Y-73089809D01*
X74900882Y-73061432D01*
X74908172Y-72990271D01*
X74908500Y-72987072D01*
X74908500Y-72412928D01*
X74906333Y-72392039D01*
X74898419Y-72315765D01*
X74898418Y-72315761D01*
X74897707Y-72308907D01*
X74864815Y-72210316D01*
X74844972Y-72150841D01*
X74842654Y-72143893D01*
X74751116Y-71995969D01*
X74745934Y-71990796D01*
X74633184Y-71878242D01*
X74633179Y-71878238D01*
X74628003Y-71873071D01*
X74611133Y-71862672D01*
X74486150Y-71785631D01*
X74486148Y-71785630D01*
X74479920Y-71781791D01*
X74443013Y-71769550D01*
X74384654Y-71729120D01*
X74357417Y-71663556D01*
X74369950Y-71593674D01*
X74418275Y-71541662D01*
X74442804Y-71530434D01*
X74474154Y-71519975D01*
X74474164Y-71519970D01*
X74481107Y-71517654D01*
X74629031Y-71426116D01*
X74668535Y-71386543D01*
X74746758Y-71308184D01*
X74746762Y-71308179D01*
X74751929Y-71303003D01*
X74818088Y-71195674D01*
X74839369Y-71161150D01*
X74839370Y-71161148D01*
X74843209Y-71154920D01*
X74897974Y-70989809D01*
X74899630Y-70973652D01*
X74906731Y-70904334D01*
X74908500Y-70887072D01*
X74908500Y-70312928D01*
X74907021Y-70298671D01*
X74898419Y-70215765D01*
X74898418Y-70215761D01*
X74897707Y-70208907D01*
X74879231Y-70153526D01*
X74844972Y-70050841D01*
X74842654Y-70043893D01*
X74751116Y-69895969D01*
X74744125Y-69888990D01*
X74633184Y-69778242D01*
X74633179Y-69778238D01*
X74628003Y-69773071D01*
X74621773Y-69769231D01*
X74618253Y-69766451D01*
X74577190Y-69708534D01*
X74573958Y-69637611D01*
X74609584Y-69576199D01*
X74630042Y-69560425D01*
X74643120Y-69552332D01*
X74649348Y-69548478D01*
X74774305Y-69423303D01*
X74867115Y-69272738D01*
X74884663Y-69219832D01*
X74925094Y-69161473D01*
X74990658Y-69134236D01*
X75004256Y-69133500D01*
X78585406Y-69133500D01*
X78653527Y-69153502D01*
X78674501Y-69170405D01*
X81396343Y-71892247D01*
X81403887Y-71900537D01*
X81408000Y-71907018D01*
X81413777Y-71912443D01*
X81457667Y-71953658D01*
X81460509Y-71956413D01*
X81480231Y-71976135D01*
X81483373Y-71978572D01*
X81483433Y-71978619D01*
X81492445Y-71986317D01*
X81509356Y-72002197D01*
X81524679Y-72016586D01*
X81531622Y-72020403D01*
X81542431Y-72026345D01*
X81558953Y-72037198D01*
X81574959Y-72049614D01*
X81582237Y-72052764D01*
X81582238Y-72052764D01*
X81615537Y-72067174D01*
X81626187Y-72072391D01*
X81664940Y-72093695D01*
X81672615Y-72095666D01*
X81672616Y-72095666D01*
X81684562Y-72098733D01*
X81703267Y-72105137D01*
X81721855Y-72113181D01*
X81729678Y-72114420D01*
X81729688Y-72114423D01*
X81765524Y-72120099D01*
X81777144Y-72122505D01*
X81812289Y-72131528D01*
X81819970Y-72133500D01*
X81840224Y-72133500D01*
X81859934Y-72135051D01*
X81879943Y-72138220D01*
X81887835Y-72137474D01*
X81923961Y-72134059D01*
X81935819Y-72133500D01*
X86485406Y-72133500D01*
X86553527Y-72153502D01*
X86574501Y-72170405D01*
X87280440Y-72876344D01*
X87314466Y-72938656D01*
X87309401Y-73009471D01*
X87266854Y-73066307D01*
X87200143Y-73091131D01*
X87196342Y-73091397D01*
X86977693Y-73124855D01*
X86967666Y-73127244D01*
X86757426Y-73195961D01*
X86747916Y-73199958D01*
X86551725Y-73302089D01*
X86543007Y-73307578D01*
X86513961Y-73329386D01*
X86505508Y-73340711D01*
X86512251Y-73353040D01*
X87300000Y-74140790D01*
X88446304Y-75287093D01*
X88458313Y-75293650D01*
X88467244Y-75286828D01*
X88533519Y-75261369D01*
X88603037Y-75275782D01*
X88651167Y-75321120D01*
X88656800Y-75330313D01*
X88656806Y-75330321D01*
X88659501Y-75334719D01*
X88811147Y-75509784D01*
X88989349Y-75657730D01*
X89189322Y-75774584D01*
X89405694Y-75857209D01*
X89410760Y-75858240D01*
X89410761Y-75858240D01*
X89441383Y-75864470D01*
X89632656Y-75903385D01*
X89763324Y-75908176D01*
X89858949Y-75911683D01*
X89858953Y-75911683D01*
X89864113Y-75911872D01*
X89869233Y-75911216D01*
X89869235Y-75911216D01*
X89988987Y-75895875D01*
X90093847Y-75882442D01*
X90098795Y-75880957D01*
X90098802Y-75880956D01*
X90310747Y-75817369D01*
X90315690Y-75815886D01*
X90397161Y-75775974D01*
X90519049Y-75716262D01*
X90519052Y-75716260D01*
X90523684Y-75713991D01*
X90712243Y-75579494D01*
X90876303Y-75416005D01*
X90884113Y-75405137D01*
X90939840Y-75327584D01*
X90945370Y-75319888D01*
X91001365Y-75276240D01*
X91072068Y-75269794D01*
X91135033Y-75302597D01*
X91155128Y-75327584D01*
X91156799Y-75330311D01*
X91156804Y-75330317D01*
X91159501Y-75334719D01*
X91311147Y-75509784D01*
X91489349Y-75657730D01*
X91689322Y-75774584D01*
X91905694Y-75857209D01*
X91910760Y-75858240D01*
X91910761Y-75858240D01*
X91941383Y-75864470D01*
X92132656Y-75903385D01*
X92263324Y-75908176D01*
X92358949Y-75911683D01*
X92358953Y-75911683D01*
X92364113Y-75911872D01*
X92369233Y-75911216D01*
X92369235Y-75911216D01*
X92488987Y-75895875D01*
X92593847Y-75882442D01*
X92598795Y-75880957D01*
X92598802Y-75880956D01*
X92810747Y-75817369D01*
X92815690Y-75815886D01*
X92897161Y-75775974D01*
X93019049Y-75716262D01*
X93019052Y-75716260D01*
X93023684Y-75713991D01*
X93212243Y-75579494D01*
X93376303Y-75416005D01*
X93384113Y-75405137D01*
X93432929Y-75337202D01*
X93511458Y-75227917D01*
X93518909Y-75212842D01*
X93611784Y-75024922D01*
X93611785Y-75024920D01*
X93614078Y-75020280D01*
X93681408Y-74798671D01*
X93711640Y-74569041D01*
X93712203Y-74546000D01*
X93713245Y-74503365D01*
X93713245Y-74503361D01*
X93713327Y-74500000D01*
X93696587Y-74296386D01*
X93694773Y-74274318D01*
X93694772Y-74274312D01*
X93694349Y-74269167D01*
X93643267Y-74065801D01*
X93639184Y-74049544D01*
X93639183Y-74049540D01*
X93637925Y-74044533D01*
X93633435Y-74034207D01*
X93547630Y-73836868D01*
X93547628Y-73836865D01*
X93545570Y-73832131D01*
X93419764Y-73637665D01*
X93402061Y-73618209D01*
X93321768Y-73529969D01*
X93263887Y-73466358D01*
X93259836Y-73463159D01*
X93259832Y-73463155D01*
X93086177Y-73326011D01*
X93086172Y-73326008D01*
X93082123Y-73322810D01*
X93077607Y-73320317D01*
X93077604Y-73320315D01*
X92883879Y-73213373D01*
X92883875Y-73213371D01*
X92879355Y-73210876D01*
X92874486Y-73209152D01*
X92874482Y-73209150D01*
X92665903Y-73135288D01*
X92665899Y-73135287D01*
X92661028Y-73133562D01*
X92655935Y-73132655D01*
X92655932Y-73132654D01*
X92438095Y-73093851D01*
X92438089Y-73093850D01*
X92433006Y-73092945D01*
X92399225Y-73092532D01*
X92232961Y-73090501D01*
X92165089Y-73069668D01*
X92119255Y-73015448D01*
X92108500Y-72964510D01*
X92108500Y-69257162D01*
X92128502Y-69189041D01*
X92182158Y-69142548D01*
X92252432Y-69132444D01*
X92317012Y-69161938D01*
X92331584Y-69176846D01*
X92365234Y-69217521D01*
X92365240Y-69217527D01*
X92367767Y-69220582D01*
X92597860Y-69436654D01*
X92853221Y-69622184D01*
X92856690Y-69624091D01*
X92856693Y-69624093D01*
X93010290Y-69708534D01*
X93129821Y-69774247D01*
X93133490Y-69775700D01*
X93133495Y-69775702D01*
X93419628Y-69888990D01*
X93423298Y-69890443D01*
X93729025Y-69968940D01*
X94042179Y-70008500D01*
X94357821Y-70008500D01*
X94670975Y-69968940D01*
X94976702Y-69890443D01*
X94980372Y-69888990D01*
X95266505Y-69775702D01*
X95266510Y-69775700D01*
X95270179Y-69774247D01*
X95389710Y-69708534D01*
X95543307Y-69624093D01*
X95543310Y-69624091D01*
X95546779Y-69622184D01*
X95802140Y-69436654D01*
X96032233Y-69220582D01*
X96053708Y-69194624D01*
X96230907Y-68980427D01*
X96233432Y-68977375D01*
X96402562Y-68710869D01*
X96404246Y-68707290D01*
X96404250Y-68707283D01*
X96535267Y-68428856D01*
X96535269Y-68428852D01*
X96536956Y-68425266D01*
X96634495Y-68125072D01*
X96693641Y-67815020D01*
X96713460Y-67500000D01*
X96693641Y-67184980D01*
X96634495Y-66874928D01*
X96536956Y-66574734D01*
X96535267Y-66571144D01*
X96404250Y-66292717D01*
X96404246Y-66292710D01*
X96402562Y-66289131D01*
X96233432Y-66022625D01*
X96042637Y-65791994D01*
X96034758Y-65782470D01*
X96034757Y-65782469D01*
X96032233Y-65779418D01*
X96015404Y-65763614D01*
X95970283Y-65721243D01*
X95802140Y-65563346D01*
X95546779Y-65377816D01*
X95454217Y-65326929D01*
X95273648Y-65227660D01*
X95273647Y-65227659D01*
X95270179Y-65225753D01*
X95266510Y-65224300D01*
X95266505Y-65224298D01*
X94980372Y-65111010D01*
X94980371Y-65111010D01*
X94976702Y-65109557D01*
X94670975Y-65031060D01*
X94357821Y-64991500D01*
X94042179Y-64991500D01*
X93729025Y-65031060D01*
X93423298Y-65109557D01*
X93419629Y-65111010D01*
X93419628Y-65111010D01*
X93133495Y-65224298D01*
X93133490Y-65224300D01*
X93129821Y-65225753D01*
X93126353Y-65227659D01*
X93126352Y-65227660D01*
X92945784Y-65326929D01*
X92853221Y-65377816D01*
X92597860Y-65563346D01*
X92429717Y-65721243D01*
X92384597Y-65763614D01*
X92367767Y-65779418D01*
X92365242Y-65782470D01*
X92365234Y-65782479D01*
X92331584Y-65823154D01*
X92272750Y-65862892D01*
X92201772Y-65864513D01*
X92141185Y-65827504D01*
X92110225Y-65763614D01*
X92108500Y-65742838D01*
X92108500Y-59033204D01*
X92128502Y-58965083D01*
X92182158Y-58918590D01*
X92239117Y-58907289D01*
X92358949Y-58911683D01*
X92358953Y-58911683D01*
X92364113Y-58911872D01*
X92369233Y-58911216D01*
X92369235Y-58911216D01*
X92444836Y-58901531D01*
X92593847Y-58882442D01*
X92598795Y-58880957D01*
X92598802Y-58880956D01*
X92810747Y-58817369D01*
X92815690Y-58815886D01*
X92896236Y-58776427D01*
X93019049Y-58716262D01*
X93019052Y-58716260D01*
X93023684Y-58713991D01*
X93212243Y-58579494D01*
X93376303Y-58416005D01*
X93511458Y-58227917D01*
X93519179Y-58212296D01*
X93611784Y-58024922D01*
X93611785Y-58024920D01*
X93614078Y-58020280D01*
X93681408Y-57798671D01*
X93711640Y-57569041D01*
X93713327Y-57500000D01*
X93707032Y-57423434D01*
X93694773Y-57274318D01*
X93694772Y-57274312D01*
X93694349Y-57269167D01*
X93637925Y-57044533D01*
X93635817Y-57039684D01*
X93547630Y-56836868D01*
X93547628Y-56836865D01*
X93545570Y-56832131D01*
X93419764Y-56637665D01*
X93263887Y-56466358D01*
X93259836Y-56463159D01*
X93259832Y-56463155D01*
X93086177Y-56326011D01*
X93086172Y-56326008D01*
X93082123Y-56322810D01*
X93077607Y-56320317D01*
X93077604Y-56320315D01*
X92883879Y-56213373D01*
X92883875Y-56213371D01*
X92879355Y-56210876D01*
X92874486Y-56209152D01*
X92874482Y-56209150D01*
X92665903Y-56135288D01*
X92665899Y-56135287D01*
X92661028Y-56133562D01*
X92655935Y-56132655D01*
X92655932Y-56132654D01*
X92438095Y-56093851D01*
X92438089Y-56093850D01*
X92433006Y-56092945D01*
X92360096Y-56092054D01*
X92206581Y-56090179D01*
X92206579Y-56090179D01*
X92201411Y-56090116D01*
X91972464Y-56125150D01*
X91752314Y-56197106D01*
X91747726Y-56199494D01*
X91747722Y-56199496D01*
X91721065Y-56213373D01*
X91546872Y-56304052D01*
X91542739Y-56307155D01*
X91542736Y-56307157D01*
X91517625Y-56326011D01*
X91361655Y-56443117D01*
X91201639Y-56610564D01*
X91154836Y-56679174D01*
X91099927Y-56724175D01*
X91029402Y-56732346D01*
X90965655Y-56701092D01*
X90944959Y-56676609D01*
X90922577Y-56642013D01*
X90922574Y-56642009D01*
X90919764Y-56637665D01*
X90763887Y-56466358D01*
X90759836Y-56463159D01*
X90759832Y-56463155D01*
X90586177Y-56326011D01*
X90586172Y-56326008D01*
X90582123Y-56322810D01*
X90577607Y-56320317D01*
X90577604Y-56320315D01*
X90383879Y-56213373D01*
X90383875Y-56213371D01*
X90379355Y-56210876D01*
X90374486Y-56209152D01*
X90374482Y-56209150D01*
X90165903Y-56135288D01*
X90165899Y-56135287D01*
X90161028Y-56133562D01*
X90155935Y-56132655D01*
X90155932Y-56132654D01*
X89938095Y-56093851D01*
X89938089Y-56093850D01*
X89933006Y-56092945D01*
X89860096Y-56092054D01*
X89706581Y-56090179D01*
X89706579Y-56090179D01*
X89701411Y-56090116D01*
X89472464Y-56125150D01*
X89252314Y-56197106D01*
X89247726Y-56199494D01*
X89247722Y-56199496D01*
X89221065Y-56213373D01*
X89046872Y-56304052D01*
X89042739Y-56307155D01*
X89042736Y-56307157D01*
X89017625Y-56326011D01*
X88861655Y-56443117D01*
X88701639Y-56610564D01*
X88654836Y-56679174D01*
X88599927Y-56724175D01*
X88529402Y-56732346D01*
X88465655Y-56701092D01*
X88444959Y-56676609D01*
X88422577Y-56642013D01*
X88422574Y-56642009D01*
X88419764Y-56637665D01*
X88263887Y-56466358D01*
X88259836Y-56463159D01*
X88259832Y-56463155D01*
X88086177Y-56326011D01*
X88086172Y-56326008D01*
X88082123Y-56322810D01*
X88077607Y-56320317D01*
X88077604Y-56320315D01*
X87883879Y-56213373D01*
X87883875Y-56213371D01*
X87879355Y-56210876D01*
X87874486Y-56209152D01*
X87874482Y-56209150D01*
X87665903Y-56135288D01*
X87665899Y-56135287D01*
X87661028Y-56133562D01*
X87655935Y-56132655D01*
X87655932Y-56132654D01*
X87438095Y-56093851D01*
X87438089Y-56093850D01*
X87433006Y-56092945D01*
X87360096Y-56092054D01*
X87206581Y-56090179D01*
X87206579Y-56090179D01*
X87201411Y-56090116D01*
X86972464Y-56125150D01*
X86752314Y-56197106D01*
X86747726Y-56199494D01*
X86747722Y-56199496D01*
X86721065Y-56213373D01*
X86546872Y-56304052D01*
X86542739Y-56307155D01*
X86542736Y-56307157D01*
X86517625Y-56326011D01*
X86361655Y-56443117D01*
X86201639Y-56610564D01*
X86115727Y-56736506D01*
X86060818Y-56781507D01*
X86011641Y-56791500D01*
X83145660Y-56791500D01*
X83077539Y-56771498D01*
X83056565Y-56754595D01*
X76801970Y-50500000D01*
X82886540Y-50500000D01*
X82906359Y-50815020D01*
X82965505Y-51125072D01*
X83063044Y-51425266D01*
X83064731Y-51428852D01*
X83064733Y-51428856D01*
X83195750Y-51707283D01*
X83195754Y-51707290D01*
X83197438Y-51710869D01*
X83366568Y-51977375D01*
X83369093Y-51980427D01*
X83561711Y-52213261D01*
X83567767Y-52220582D01*
X83797860Y-52436654D01*
X84053221Y-52622184D01*
X84329821Y-52774247D01*
X84333490Y-52775700D01*
X84333495Y-52775702D01*
X84619628Y-52888990D01*
X84623298Y-52890443D01*
X84929025Y-52968940D01*
X85242179Y-53008500D01*
X85557821Y-53008500D01*
X85870975Y-52968940D01*
X86176702Y-52890443D01*
X86180372Y-52888990D01*
X86466505Y-52775702D01*
X86466510Y-52775700D01*
X86470179Y-52774247D01*
X86746779Y-52622184D01*
X87002140Y-52436654D01*
X87232233Y-52220582D01*
X87238290Y-52213261D01*
X87430907Y-51980427D01*
X87433432Y-51977375D01*
X87602562Y-51710869D01*
X87604246Y-51707290D01*
X87604250Y-51707283D01*
X87735267Y-51428856D01*
X87735269Y-51428852D01*
X87736956Y-51425266D01*
X87834495Y-51125072D01*
X87893641Y-50815020D01*
X87913460Y-50500000D01*
X91686540Y-50500000D01*
X91706359Y-50815020D01*
X91765505Y-51125072D01*
X91863044Y-51425266D01*
X91864731Y-51428852D01*
X91864733Y-51428856D01*
X91995750Y-51707283D01*
X91995754Y-51707290D01*
X91997438Y-51710869D01*
X92166568Y-51977375D01*
X92169093Y-51980427D01*
X92361711Y-52213261D01*
X92367767Y-52220582D01*
X92597860Y-52436654D01*
X92853221Y-52622184D01*
X93129821Y-52774247D01*
X93133490Y-52775700D01*
X93133495Y-52775702D01*
X93419628Y-52888990D01*
X93423298Y-52890443D01*
X93729025Y-52968940D01*
X94042179Y-53008500D01*
X94357821Y-53008500D01*
X94670975Y-52968940D01*
X94976702Y-52890443D01*
X94980372Y-52888990D01*
X95266505Y-52775702D01*
X95266510Y-52775700D01*
X95270179Y-52774247D01*
X95546779Y-52622184D01*
X95802140Y-52436654D01*
X96032233Y-52220582D01*
X96038290Y-52213261D01*
X96230907Y-51980427D01*
X96233432Y-51977375D01*
X96402562Y-51710869D01*
X96404246Y-51707290D01*
X96404250Y-51707283D01*
X96535267Y-51428856D01*
X96535269Y-51428852D01*
X96536956Y-51425266D01*
X96634495Y-51125072D01*
X96693641Y-50815020D01*
X96713460Y-50500000D01*
X96693641Y-50184980D01*
X96634495Y-49874928D01*
X96536956Y-49574734D01*
X96535267Y-49571144D01*
X96404250Y-49292717D01*
X96404246Y-49292710D01*
X96402562Y-49289131D01*
X96233432Y-49022625D01*
X96101044Y-48862596D01*
X96034758Y-48782470D01*
X96034757Y-48782469D01*
X96032233Y-48779418D01*
X95802140Y-48563346D01*
X95546779Y-48377816D01*
X95506853Y-48355866D01*
X95273648Y-48227660D01*
X95273647Y-48227659D01*
X95270179Y-48225753D01*
X95266510Y-48224300D01*
X95266505Y-48224298D01*
X94980372Y-48111010D01*
X94980371Y-48111010D01*
X94976702Y-48109557D01*
X94670975Y-48031060D01*
X94357821Y-47991500D01*
X94042179Y-47991500D01*
X93729025Y-48031060D01*
X93423298Y-48109557D01*
X93419629Y-48111010D01*
X93419628Y-48111010D01*
X93133495Y-48224298D01*
X93133490Y-48224300D01*
X93129821Y-48225753D01*
X93126353Y-48227659D01*
X93126352Y-48227660D01*
X92893148Y-48355866D01*
X92853221Y-48377816D01*
X92597860Y-48563346D01*
X92367767Y-48779418D01*
X92365243Y-48782469D01*
X92365242Y-48782470D01*
X92298956Y-48862596D01*
X92166568Y-49022625D01*
X91997438Y-49289131D01*
X91995754Y-49292710D01*
X91995750Y-49292717D01*
X91864733Y-49571144D01*
X91863044Y-49574734D01*
X91765505Y-49874928D01*
X91706359Y-50184980D01*
X91686540Y-50500000D01*
X87913460Y-50500000D01*
X87893641Y-50184980D01*
X87834495Y-49874928D01*
X87736956Y-49574734D01*
X87735267Y-49571144D01*
X87604250Y-49292717D01*
X87604246Y-49292710D01*
X87602562Y-49289131D01*
X87433432Y-49022625D01*
X87301044Y-48862596D01*
X87234758Y-48782470D01*
X87234757Y-48782469D01*
X87232233Y-48779418D01*
X87002140Y-48563346D01*
X86746779Y-48377816D01*
X86706853Y-48355866D01*
X86473648Y-48227660D01*
X86473647Y-48227659D01*
X86470179Y-48225753D01*
X86466510Y-48224300D01*
X86466505Y-48224298D01*
X86180372Y-48111010D01*
X86180371Y-48111010D01*
X86176702Y-48109557D01*
X85870975Y-48031060D01*
X85557821Y-47991500D01*
X85242179Y-47991500D01*
X84929025Y-48031060D01*
X84623298Y-48109557D01*
X84619629Y-48111010D01*
X84619628Y-48111010D01*
X84333495Y-48224298D01*
X84333490Y-48224300D01*
X84329821Y-48225753D01*
X84326353Y-48227659D01*
X84326352Y-48227660D01*
X84093148Y-48355866D01*
X84053221Y-48377816D01*
X83797860Y-48563346D01*
X83567767Y-48779418D01*
X83565243Y-48782469D01*
X83565242Y-48782470D01*
X83498956Y-48862596D01*
X83366568Y-49022625D01*
X83197438Y-49289131D01*
X83195754Y-49292710D01*
X83195750Y-49292717D01*
X83064733Y-49571144D01*
X83063044Y-49574734D01*
X82965505Y-49874928D01*
X82906359Y-50184980D01*
X82886540Y-50500000D01*
X76801970Y-50500000D01*
X76021450Y-49719480D01*
X76015596Y-49713215D01*
X76003531Y-49699385D01*
X75977561Y-49669615D01*
X75925280Y-49632871D01*
X75919986Y-49628939D01*
X75875693Y-49594209D01*
X75869718Y-49589524D01*
X75862802Y-49586401D01*
X75860516Y-49585017D01*
X75845835Y-49576643D01*
X75843475Y-49575378D01*
X75837261Y-49571010D01*
X75830182Y-49568250D01*
X75830180Y-49568249D01*
X75777725Y-49547798D01*
X75771656Y-49545247D01*
X75713427Y-49518955D01*
X75705960Y-49517571D01*
X75703405Y-49516770D01*
X75687152Y-49512141D01*
X75684572Y-49511478D01*
X75677491Y-49508718D01*
X75669960Y-49507727D01*
X75669958Y-49507726D01*
X75640339Y-49503827D01*
X75614139Y-49500378D01*
X75607641Y-49499348D01*
X75544814Y-49487704D01*
X75537234Y-49488141D01*
X75537233Y-49488141D01*
X75482608Y-49491291D01*
X75475354Y-49491500D01*
X66834500Y-49491500D01*
X66766379Y-49471498D01*
X66719886Y-49417842D01*
X66708500Y-49365500D01*
X66708500Y-48899600D01*
X66708163Y-48896350D01*
X66698238Y-48800692D01*
X66698237Y-48800688D01*
X66697526Y-48793834D01*
X66692717Y-48779418D01*
X66643868Y-48633002D01*
X66641550Y-48626054D01*
X66548478Y-48475652D01*
X66423303Y-48350695D01*
X66272738Y-48257885D01*
X66181612Y-48227660D01*
X66111389Y-48204368D01*
X66111387Y-48204368D01*
X66104861Y-48202203D01*
X66098025Y-48201503D01*
X66098022Y-48201502D01*
X66054969Y-48197091D01*
X66000400Y-48191500D01*
X64799600Y-48191500D01*
X64796354Y-48191837D01*
X64796350Y-48191837D01*
X64700692Y-48201762D01*
X64700688Y-48201763D01*
X64693834Y-48202474D01*
X64687292Y-48204657D01*
X64687290Y-48204657D01*
X64550731Y-48250217D01*
X64479781Y-48252802D01*
X64421759Y-48219789D01*
X64021450Y-47819480D01*
X64015596Y-47813215D01*
X63999228Y-47794452D01*
X63977561Y-47769615D01*
X63925280Y-47732871D01*
X63919986Y-47728939D01*
X63875693Y-47694209D01*
X63869718Y-47689524D01*
X63862802Y-47686401D01*
X63860516Y-47685017D01*
X63845835Y-47676643D01*
X63843475Y-47675378D01*
X63837261Y-47671010D01*
X63830182Y-47668250D01*
X63830180Y-47668249D01*
X63777725Y-47647798D01*
X63771656Y-47645247D01*
X63713427Y-47618955D01*
X63705960Y-47617571D01*
X63703405Y-47616770D01*
X63687152Y-47612141D01*
X63684572Y-47611478D01*
X63677491Y-47608718D01*
X63669960Y-47607727D01*
X63669958Y-47607726D01*
X63640339Y-47603827D01*
X63614139Y-47600378D01*
X63607641Y-47599348D01*
X63544814Y-47587704D01*
X63537234Y-47588141D01*
X63537233Y-47588141D01*
X63482608Y-47591291D01*
X63475354Y-47591500D01*
X59332362Y-47591500D01*
X59264241Y-47571498D01*
X59217748Y-47517842D01*
X59207644Y-47447568D01*
X59225102Y-47399384D01*
X59237816Y-47378757D01*
X59243963Y-47365576D01*
X59295138Y-47211290D01*
X59298005Y-47197914D01*
X59307672Y-47103562D01*
X59308000Y-47097146D01*
X59308000Y-47097095D01*
X64092001Y-47097095D01*
X64092338Y-47103614D01*
X64102257Y-47199206D01*
X64105149Y-47212600D01*
X64156588Y-47366784D01*
X64162761Y-47379962D01*
X64248063Y-47517807D01*
X64257099Y-47529208D01*
X64371829Y-47643739D01*
X64383240Y-47652751D01*
X64521243Y-47737816D01*
X64534424Y-47743963D01*
X64688710Y-47795138D01*
X64702086Y-47798005D01*
X64796438Y-47807672D01*
X64802854Y-47808000D01*
X65127885Y-47808000D01*
X65143124Y-47803525D01*
X65144329Y-47802135D01*
X65146000Y-47794452D01*
X65146000Y-47789884D01*
X65654000Y-47789884D01*
X65658475Y-47805123D01*
X65659865Y-47806328D01*
X65667548Y-47807999D01*
X65997095Y-47807999D01*
X66003614Y-47807662D01*
X66099206Y-47797743D01*
X66112600Y-47794851D01*
X66266784Y-47743412D01*
X66279962Y-47737239D01*
X66417807Y-47651937D01*
X66429208Y-47642901D01*
X66543739Y-47528171D01*
X66552751Y-47516760D01*
X66637816Y-47378757D01*
X66643963Y-47365576D01*
X66695138Y-47211290D01*
X66698005Y-47197914D01*
X66707672Y-47103562D01*
X66708000Y-47097146D01*
X66708000Y-46072115D01*
X66703525Y-46056876D01*
X66702135Y-46055671D01*
X66694452Y-46054000D01*
X65672115Y-46054000D01*
X65656876Y-46058475D01*
X65655671Y-46059865D01*
X65654000Y-46067548D01*
X65654000Y-47789884D01*
X65146000Y-47789884D01*
X65146000Y-46072115D01*
X65141525Y-46056876D01*
X65140135Y-46055671D01*
X65132452Y-46054000D01*
X64110116Y-46054000D01*
X64094877Y-46058475D01*
X64093672Y-46059865D01*
X64092001Y-46067548D01*
X64092001Y-47097095D01*
X59308000Y-47097095D01*
X59308000Y-46072115D01*
X59303525Y-46056876D01*
X59302135Y-46055671D01*
X59294452Y-46054000D01*
X56710116Y-46054000D01*
X56694877Y-46058475D01*
X56693672Y-46059865D01*
X56692001Y-46067548D01*
X56692001Y-47097095D01*
X56692338Y-47103614D01*
X56702257Y-47199206D01*
X56705149Y-47212600D01*
X56756588Y-47366784D01*
X56762761Y-47379960D01*
X56774665Y-47399198D01*
X56793502Y-47467650D01*
X56772340Y-47535419D01*
X56717899Y-47580990D01*
X56667520Y-47591500D01*
X47102254Y-47591500D01*
X47034133Y-47571498D01*
X47009061Y-47550300D01*
X46933148Y-47466873D01*
X46933146Y-47466872D01*
X46929670Y-47463051D01*
X46925619Y-47459852D01*
X46925615Y-47459848D01*
X46758414Y-47327800D01*
X46758410Y-47327798D01*
X46754359Y-47324598D01*
X46712569Y-47301529D01*
X46662598Y-47251097D01*
X46647826Y-47181654D01*
X46672942Y-47115248D01*
X46700294Y-47088641D01*
X46875328Y-46963792D01*
X46883200Y-46957139D01*
X47034052Y-46806812D01*
X47040730Y-46798965D01*
X47165003Y-46626020D01*
X47170313Y-46617183D01*
X47264670Y-46426267D01*
X47268469Y-46416672D01*
X47330377Y-46212910D01*
X47332555Y-46202837D01*
X47333986Y-46191962D01*
X47331775Y-46177778D01*
X47318617Y-46174000D01*
X44683225Y-46174000D01*
X44669694Y-46177973D01*
X44668257Y-46187966D01*
X44698565Y-46322446D01*
X44701645Y-46332275D01*
X44781770Y-46529603D01*
X44786413Y-46538794D01*
X44897694Y-46720388D01*
X44903777Y-46728699D01*
X45043213Y-46889667D01*
X45050580Y-46896883D01*
X45214434Y-47032916D01*
X45222881Y-47038831D01*
X45291969Y-47079203D01*
X45340693Y-47130842D01*
X45353764Y-47200625D01*
X45327033Y-47266396D01*
X45286584Y-47299752D01*
X45273607Y-47306507D01*
X45269474Y-47309610D01*
X45269471Y-47309612D01*
X45149906Y-47399384D01*
X45094965Y-47440635D01*
X45091393Y-47444373D01*
X44950995Y-47591291D01*
X44940629Y-47602138D01*
X44814743Y-47786680D01*
X44720688Y-47989305D01*
X44660989Y-48204570D01*
X44637251Y-48426695D01*
X44637548Y-48431848D01*
X44637548Y-48431851D01*
X44648746Y-48626054D01*
X44650110Y-48649715D01*
X44651247Y-48654761D01*
X44651248Y-48654767D01*
X44675304Y-48761508D01*
X44699222Y-48867639D01*
X44783266Y-49074616D01*
X44899987Y-49265088D01*
X45046250Y-49433938D01*
X45050230Y-49437242D01*
X45054981Y-49441187D01*
X45094616Y-49500090D01*
X45096113Y-49571071D01*
X45058997Y-49631593D01*
X45018725Y-49656112D01*
X44995969Y-49664643D01*
X44903295Y-49699385D01*
X44786739Y-49786739D01*
X44699385Y-49903295D01*
X44648255Y-50039684D01*
X44641500Y-50101866D01*
X44641500Y-51898134D01*
X44648255Y-51960316D01*
X44699385Y-52096705D01*
X44786739Y-52213261D01*
X44903295Y-52300615D01*
X45039684Y-52351745D01*
X45101866Y-52358500D01*
X46898134Y-52358500D01*
X46960316Y-52351745D01*
X47096705Y-52300615D01*
X47213261Y-52213261D01*
X47300615Y-52096705D01*
X47351745Y-51960316D01*
X47358500Y-51898134D01*
X47358500Y-51834500D01*
X47378502Y-51766379D01*
X47432158Y-51719886D01*
X47484500Y-51708500D01*
X56648613Y-51708500D01*
X56716734Y-51728502D01*
X56757184Y-51774730D01*
X56758450Y-51773946D01*
X56851522Y-51924348D01*
X56976697Y-52049305D01*
X56982927Y-52053145D01*
X56982928Y-52053146D01*
X57120090Y-52137694D01*
X57127262Y-52142115D01*
X57184949Y-52161249D01*
X57205167Y-52167955D01*
X57263527Y-52208386D01*
X57290764Y-52273950D01*
X57291500Y-52287548D01*
X57291500Y-52654340D01*
X57271498Y-52722461D01*
X57254595Y-52743435D01*
X52743435Y-57254595D01*
X52681123Y-57288621D01*
X52654340Y-57291500D01*
X47484500Y-57291500D01*
X47416379Y-57271498D01*
X47369886Y-57217842D01*
X47358500Y-57165500D01*
X47358500Y-57101866D01*
X47351745Y-57039684D01*
X47300615Y-56903295D01*
X47213261Y-56786739D01*
X47096705Y-56699385D01*
X46960316Y-56648255D01*
X46898134Y-56641500D01*
X45101866Y-56641500D01*
X45039684Y-56648255D01*
X44903295Y-56699385D01*
X44786739Y-56786739D01*
X44699385Y-56903295D01*
X44648255Y-57039684D01*
X44641500Y-57101866D01*
X44641500Y-58898134D01*
X44648255Y-58960316D01*
X44699385Y-59096705D01*
X44786739Y-59213261D01*
X44903295Y-59300615D01*
X44911704Y-59303767D01*
X44911705Y-59303768D01*
X45020960Y-59344726D01*
X45077725Y-59387367D01*
X45102425Y-59453929D01*
X45087218Y-59523278D01*
X45067825Y-59549759D01*
X44944590Y-59678717D01*
X44938104Y-59686727D01*
X44818098Y-59862649D01*
X44813000Y-59871623D01*
X44723338Y-60064783D01*
X44719775Y-60074470D01*
X44664389Y-60274183D01*
X44665912Y-60282607D01*
X44678292Y-60286000D01*
X47318344Y-60286000D01*
X47331875Y-60282027D01*
X47333180Y-60272947D01*
X47291214Y-60105875D01*
X47287894Y-60096124D01*
X47202972Y-59900814D01*
X47198105Y-59891739D01*
X47082426Y-59712926D01*
X47076136Y-59704757D01*
X46932293Y-59546677D01*
X46901241Y-59482831D01*
X46909635Y-59412333D01*
X46954812Y-59357564D01*
X46981256Y-59343895D01*
X47088297Y-59303767D01*
X47096705Y-59300615D01*
X47213261Y-59213261D01*
X47300615Y-59096705D01*
X47351745Y-58960316D01*
X47358500Y-58898134D01*
X47358500Y-58834500D01*
X47378502Y-58766379D01*
X47432158Y-58719886D01*
X47484500Y-58708500D01*
X52971088Y-58708500D01*
X52979658Y-58708792D01*
X53029776Y-58712209D01*
X53029780Y-58712209D01*
X53037352Y-58712725D01*
X53044829Y-58711420D01*
X53044830Y-58711420D01*
X53071308Y-58706799D01*
X53100303Y-58701738D01*
X53106821Y-58700777D01*
X53170242Y-58693102D01*
X53177343Y-58690419D01*
X53179952Y-58689778D01*
X53196262Y-58685315D01*
X53198798Y-58684550D01*
X53206284Y-58683243D01*
X53264800Y-58657556D01*
X53270904Y-58655065D01*
X53323548Y-58635173D01*
X53323549Y-58635172D01*
X53330656Y-58632487D01*
X53336919Y-58628183D01*
X53339285Y-58626946D01*
X53354097Y-58618701D01*
X53356351Y-58617368D01*
X53363305Y-58614315D01*
X53414002Y-58575413D01*
X53419332Y-58571541D01*
X53465720Y-58539661D01*
X53465725Y-58539656D01*
X53471981Y-58535357D01*
X53513436Y-58488829D01*
X53518416Y-58483554D01*
X58480520Y-53521450D01*
X58486785Y-53515596D01*
X58524660Y-53482555D01*
X58530385Y-53477561D01*
X58567114Y-53425300D01*
X58571046Y-53420005D01*
X58605791Y-53375694D01*
X58610477Y-53369718D01*
X58613602Y-53362796D01*
X58614964Y-53360548D01*
X58623368Y-53345815D01*
X58624622Y-53343476D01*
X58628990Y-53337261D01*
X58631749Y-53330185D01*
X58631751Y-53330181D01*
X58652200Y-53277731D01*
X58654749Y-53271666D01*
X58681045Y-53213427D01*
X58682429Y-53205962D01*
X58683226Y-53203418D01*
X58687859Y-53187152D01*
X58688521Y-53184572D01*
X58691282Y-53177491D01*
X58699622Y-53114143D01*
X58700653Y-53107629D01*
X58712296Y-53044813D01*
X58708709Y-52982607D01*
X58708500Y-52975353D01*
X58708500Y-52287538D01*
X58728502Y-52219417D01*
X58782158Y-52172924D01*
X58794624Y-52168014D01*
X58855653Y-52147653D01*
X58873946Y-52141550D01*
X59024348Y-52048478D01*
X59149305Y-51923303D01*
X59162726Y-51901531D01*
X59238275Y-51778968D01*
X59238276Y-51778966D01*
X59242115Y-51772738D01*
X59297797Y-51604861D01*
X59308500Y-51500400D01*
X59308500Y-49134500D01*
X59328502Y-49066379D01*
X59382158Y-49019886D01*
X59434500Y-49008500D01*
X63154340Y-49008500D01*
X63222461Y-49028502D01*
X63243435Y-49045405D01*
X63546329Y-49348299D01*
X63580355Y-49410611D01*
X63575290Y-49481426D01*
X63532743Y-49538262D01*
X63501771Y-49555260D01*
X63476449Y-49564828D01*
X63476447Y-49564829D01*
X63469344Y-49567513D01*
X63463085Y-49571814D01*
X63460720Y-49573051D01*
X63445948Y-49581273D01*
X63443656Y-49582628D01*
X63436695Y-49585684D01*
X63430668Y-49590309D01*
X63430664Y-49590311D01*
X63385987Y-49624593D01*
X63380662Y-49628462D01*
X63376999Y-49630980D01*
X63340432Y-49656112D01*
X63328019Y-49664643D01*
X63286554Y-49711183D01*
X63281594Y-49716435D01*
X50663435Y-62334595D01*
X50601123Y-62368621D01*
X50574340Y-62371500D01*
X47228286Y-62371500D01*
X47160165Y-62351498D01*
X47122494Y-62313941D01*
X47115985Y-62303879D01*
X47080014Y-62248277D01*
X46929670Y-62083051D01*
X46925619Y-62079852D01*
X46925615Y-62079848D01*
X46758414Y-61947800D01*
X46758410Y-61947798D01*
X46754359Y-61944598D01*
X46712569Y-61921529D01*
X46662598Y-61871097D01*
X46647826Y-61801654D01*
X46672942Y-61735248D01*
X46700294Y-61708641D01*
X46875328Y-61583792D01*
X46883200Y-61577139D01*
X47034052Y-61426812D01*
X47040730Y-61418965D01*
X47165008Y-61246013D01*
X47170313Y-61237183D01*
X47264670Y-61046267D01*
X47268469Y-61036672D01*
X47330377Y-60832910D01*
X47332555Y-60822837D01*
X47333986Y-60811962D01*
X47331775Y-60797778D01*
X47318617Y-60794000D01*
X44683225Y-60794000D01*
X44669694Y-60797973D01*
X44668257Y-60807966D01*
X44698565Y-60942446D01*
X44701645Y-60952275D01*
X44781770Y-61149603D01*
X44786413Y-61158794D01*
X44897694Y-61340388D01*
X44903777Y-61348699D01*
X45043213Y-61509667D01*
X45050580Y-61516883D01*
X45214434Y-61652916D01*
X45222881Y-61658831D01*
X45291969Y-61699203D01*
X45340693Y-61750842D01*
X45353764Y-61820625D01*
X45327033Y-61886396D01*
X45286584Y-61919752D01*
X45273607Y-61926507D01*
X45269474Y-61929610D01*
X45269471Y-61929612D01*
X45099100Y-62057530D01*
X45094965Y-62060635D01*
X44940629Y-62222138D01*
X44814743Y-62406680D01*
X44720688Y-62609305D01*
X44660989Y-62824570D01*
X44637251Y-63046695D01*
X44637548Y-63051848D01*
X44637548Y-63051851D01*
X44649812Y-63264547D01*
X44650110Y-63269715D01*
X44651247Y-63274761D01*
X44651248Y-63274767D01*
X44672959Y-63371104D01*
X44699222Y-63487639D01*
X44742567Y-63594386D01*
X44778894Y-63683848D01*
X44783266Y-63694616D01*
X44802531Y-63726054D01*
X44876312Y-63846453D01*
X44899987Y-63885088D01*
X45046250Y-64053938D01*
X45218126Y-64196632D01*
X45411000Y-64309338D01*
X45619692Y-64389030D01*
X45624760Y-64390061D01*
X45624763Y-64390062D01*
X45732017Y-64411883D01*
X45838597Y-64433567D01*
X45843772Y-64433757D01*
X45843774Y-64433757D01*
X46056673Y-64441564D01*
X46056677Y-64441564D01*
X46061837Y-64441753D01*
X46066957Y-64441097D01*
X46066959Y-64441097D01*
X46278288Y-64414025D01*
X46278289Y-64414025D01*
X46283416Y-64413368D01*
X46288366Y-64411883D01*
X46492429Y-64350661D01*
X46492434Y-64350659D01*
X46497384Y-64349174D01*
X46697994Y-64250896D01*
X46879860Y-64121173D01*
X46890881Y-64110191D01*
X46999370Y-64002080D01*
X47038096Y-63963489D01*
X47041112Y-63959292D01*
X47126132Y-63840974D01*
X47182127Y-63797326D01*
X47228455Y-63788500D01*
X50891088Y-63788500D01*
X50899658Y-63788792D01*
X50949776Y-63792209D01*
X50949780Y-63792209D01*
X50957352Y-63792725D01*
X50964829Y-63791420D01*
X50964830Y-63791420D01*
X50991308Y-63786799D01*
X51020303Y-63781738D01*
X51026821Y-63780777D01*
X51090242Y-63773102D01*
X51097343Y-63770419D01*
X51099952Y-63769778D01*
X51116262Y-63765315D01*
X51118798Y-63764550D01*
X51126284Y-63763243D01*
X51184800Y-63737556D01*
X51190904Y-63735065D01*
X51243548Y-63715173D01*
X51243549Y-63715172D01*
X51250656Y-63712487D01*
X51256919Y-63708183D01*
X51259285Y-63706946D01*
X51274097Y-63698701D01*
X51276351Y-63697368D01*
X51283305Y-63694315D01*
X51334002Y-63655413D01*
X51339332Y-63651541D01*
X51385720Y-63619661D01*
X51385725Y-63619656D01*
X51391981Y-63615357D01*
X51410666Y-63594386D01*
X51433435Y-63568830D01*
X51438416Y-63563554D01*
X54774085Y-60227885D01*
X56867000Y-60227885D01*
X56871475Y-60243124D01*
X56872865Y-60244329D01*
X56880548Y-60246000D01*
X57615385Y-60246000D01*
X57630624Y-60241525D01*
X57631829Y-60240135D01*
X57633500Y-60232452D01*
X57633500Y-59310116D01*
X57629025Y-59294877D01*
X57627635Y-59293672D01*
X57619952Y-59292001D01*
X57577905Y-59292001D01*
X57571386Y-59292338D01*
X57475794Y-59302257D01*
X57462400Y-59305149D01*
X57308216Y-59356588D01*
X57295038Y-59362761D01*
X57157193Y-59448063D01*
X57145792Y-59457099D01*
X57031261Y-59571829D01*
X57022249Y-59583240D01*
X56937184Y-59721243D01*
X56931037Y-59734424D01*
X56879862Y-59888710D01*
X56876995Y-59902086D01*
X56867328Y-59996438D01*
X56867000Y-60002855D01*
X56867000Y-60227885D01*
X54774085Y-60227885D01*
X63876405Y-51125565D01*
X63938717Y-51091539D01*
X64009532Y-51096604D01*
X64066368Y-51139151D01*
X64091179Y-51205671D01*
X64091500Y-51214660D01*
X64091500Y-51500400D01*
X64102474Y-51606166D01*
X64158450Y-51773946D01*
X64251522Y-51924348D01*
X64376697Y-52049305D01*
X64382927Y-52053145D01*
X64382928Y-52053146D01*
X64520090Y-52137694D01*
X64527262Y-52142115D01*
X64584949Y-52161249D01*
X64605167Y-52167955D01*
X64663527Y-52208386D01*
X64690764Y-52273950D01*
X64691500Y-52287548D01*
X64691500Y-66280908D01*
X64671498Y-66349029D01*
X64617842Y-66395522D01*
X64547568Y-66405626D01*
X64482988Y-66376132D01*
X64454981Y-66341418D01*
X64453764Y-66339196D01*
X64450615Y-66330795D01*
X64363261Y-66214239D01*
X64246705Y-66126885D01*
X64110316Y-66075755D01*
X64048134Y-66069000D01*
X62751866Y-66069000D01*
X62689684Y-66075755D01*
X62553295Y-66126885D01*
X62550158Y-66129236D01*
X62492450Y-66144000D01*
X62342095Y-66144000D01*
X62273974Y-66123998D01*
X62253000Y-66107095D01*
X60745405Y-64599500D01*
X60711379Y-64537188D01*
X60708500Y-64510405D01*
X60708500Y-64212928D01*
X60706466Y-64193327D01*
X60698419Y-64115765D01*
X60698418Y-64115761D01*
X60697707Y-64108907D01*
X60678065Y-64050031D01*
X60648066Y-63960116D01*
X60642654Y-63943893D01*
X60551116Y-63795969D01*
X60545934Y-63790796D01*
X60465571Y-63710573D01*
X60431492Y-63648291D01*
X60436495Y-63577470D01*
X60465416Y-63532382D01*
X60569134Y-63428483D01*
X60574305Y-63423303D01*
X60614281Y-63358450D01*
X60663275Y-63278968D01*
X60663276Y-63278966D01*
X60667115Y-63272738D01*
X60722797Y-63104861D01*
X60733500Y-63000400D01*
X60733500Y-61999600D01*
X60733163Y-61996350D01*
X60723238Y-61900692D01*
X60723237Y-61900688D01*
X60722526Y-61893834D01*
X60720045Y-61886396D01*
X60668868Y-61733002D01*
X60666550Y-61726054D01*
X60573478Y-61575652D01*
X60573362Y-61575536D01*
X60547827Y-61512457D01*
X60560996Y-61442692D01*
X60571864Y-61425749D01*
X60574305Y-61423303D01*
X60638978Y-61318384D01*
X60663275Y-61278968D01*
X60663276Y-61278966D01*
X60667115Y-61272738D01*
X60707957Y-61149603D01*
X60720632Y-61111389D01*
X60720632Y-61111387D01*
X60722797Y-61104861D01*
X60724272Y-61090472D01*
X60728800Y-61046267D01*
X60733500Y-61000400D01*
X60733500Y-59999600D01*
X60730584Y-59971498D01*
X60723238Y-59900692D01*
X60723237Y-59900688D01*
X60722526Y-59893834D01*
X60666550Y-59726054D01*
X60573478Y-59575652D01*
X60448303Y-59450695D01*
X60386069Y-59412333D01*
X60303968Y-59361725D01*
X60303966Y-59361724D01*
X60297738Y-59357885D01*
X60217995Y-59331436D01*
X60136389Y-59304368D01*
X60136387Y-59304368D01*
X60129861Y-59302203D01*
X60123025Y-59301503D01*
X60123022Y-59301502D01*
X60079969Y-59297091D01*
X60025400Y-59291500D01*
X59399600Y-59291500D01*
X59396354Y-59291837D01*
X59396350Y-59291837D01*
X59300692Y-59301762D01*
X59300688Y-59301763D01*
X59293834Y-59302474D01*
X59287298Y-59304655D01*
X59287296Y-59304655D01*
X59167190Y-59344726D01*
X59126054Y-59358450D01*
X58975652Y-59451522D01*
X58970479Y-59456704D01*
X58888862Y-59538463D01*
X58826579Y-59572542D01*
X58755759Y-59567539D01*
X58710671Y-59538618D01*
X58628171Y-59456261D01*
X58616760Y-59447249D01*
X58478757Y-59362184D01*
X58465576Y-59356037D01*
X58311290Y-59304862D01*
X58297914Y-59301995D01*
X58203562Y-59292328D01*
X58197145Y-59292000D01*
X58159615Y-59292000D01*
X58144376Y-59296475D01*
X58143171Y-59297865D01*
X58141500Y-59305548D01*
X58141500Y-60628000D01*
X58121498Y-60696121D01*
X58067842Y-60742614D01*
X58015500Y-60754000D01*
X56885116Y-60754000D01*
X56869877Y-60758475D01*
X56868672Y-60759865D01*
X56867001Y-60767548D01*
X56867001Y-60997095D01*
X56867338Y-61003614D01*
X56877257Y-61099206D01*
X56880149Y-61112600D01*
X56931588Y-61266784D01*
X56937761Y-61279962D01*
X57023064Y-61417809D01*
X57025855Y-61421330D01*
X57052494Y-61487140D01*
X57039324Y-61556904D01*
X57028304Y-61574083D01*
X57025695Y-61576697D01*
X57021857Y-61582924D01*
X57021855Y-61582926D01*
X56936725Y-61721032D01*
X56932885Y-61727262D01*
X56921340Y-61762069D01*
X56908429Y-61800995D01*
X56867998Y-61859354D01*
X56802473Y-61886575D01*
X56800000Y-61886249D01*
X56793896Y-61887053D01*
X56793889Y-61887053D01*
X56649337Y-61906084D01*
X56641149Y-61907162D01*
X56493124Y-61968476D01*
X56456798Y-61996350D01*
X56397937Y-62041515D01*
X56397921Y-62041529D01*
X56372566Y-62060984D01*
X56372563Y-62060987D01*
X56366013Y-62066013D01*
X56360983Y-62072568D01*
X56346548Y-62091379D01*
X56335681Y-62103770D01*
X47834856Y-70604595D01*
X47772544Y-70638621D01*
X47745761Y-70641500D01*
X47484500Y-70641500D01*
X47416379Y-70621498D01*
X47369886Y-70567842D01*
X47358500Y-70515500D01*
X47358500Y-70351866D01*
X47351745Y-70289684D01*
X47300615Y-70153295D01*
X47213261Y-70036739D01*
X47096705Y-69949385D01*
X46960316Y-69898255D01*
X46898134Y-69891500D01*
X45101866Y-69891500D01*
X45039684Y-69898255D01*
X44903295Y-69949385D01*
X44786739Y-70036739D01*
X44699385Y-70153295D01*
X44648255Y-70289684D01*
X44641500Y-70351866D01*
X44641500Y-72148134D01*
X44648255Y-72210316D01*
X44699385Y-72346705D01*
X44786739Y-72463261D01*
X44903295Y-72550615D01*
X44911704Y-72553767D01*
X44911705Y-72553768D01*
X45020451Y-72594535D01*
X45077216Y-72637176D01*
X45101916Y-72703738D01*
X45086709Y-72773087D01*
X45067316Y-72799568D01*
X44940629Y-72932138D01*
X44937715Y-72936410D01*
X44937714Y-72936411D01*
X44887876Y-73009471D01*
X44814743Y-73116680D01*
X44776087Y-73199958D01*
X44747683Y-73261150D01*
X44720688Y-73319305D01*
X44660989Y-73534570D01*
X44637251Y-73756695D01*
X44637548Y-73761848D01*
X44637548Y-73761851D01*
X44648669Y-73954730D01*
X44650110Y-73979715D01*
X44651247Y-73984761D01*
X44651248Y-73984767D01*
X44670171Y-74068731D01*
X44699222Y-74197639D01*
X44735076Y-74285937D01*
X44780783Y-74398500D01*
X44783266Y-74404616D01*
X44794376Y-74422746D01*
X44886059Y-74572359D01*
X44899987Y-74595088D01*
X45046250Y-74763938D01*
X45218126Y-74906632D01*
X45264244Y-74933581D01*
X45291955Y-74949774D01*
X45340679Y-75001412D01*
X45353750Y-75071195D01*
X45327019Y-75136967D01*
X45286562Y-75170327D01*
X45278457Y-75174546D01*
X45269738Y-75180036D01*
X45099433Y-75307905D01*
X45091726Y-75314748D01*
X44944590Y-75468717D01*
X44938104Y-75476727D01*
X44818098Y-75652649D01*
X44813000Y-75661623D01*
X44723338Y-75854783D01*
X44719775Y-75864470D01*
X44664389Y-76064183D01*
X44665912Y-76072607D01*
X44678292Y-76076000D01*
X47318344Y-76076000D01*
X47331875Y-76072027D01*
X47333180Y-76062947D01*
X47291214Y-75895875D01*
X47287894Y-75886124D01*
X47202972Y-75690814D01*
X47198105Y-75681739D01*
X47082426Y-75502926D01*
X47076136Y-75494757D01*
X46932806Y-75337240D01*
X46925273Y-75330215D01*
X46758139Y-75198222D01*
X46749556Y-75192520D01*
X46712602Y-75172120D01*
X46662631Y-75121687D01*
X46647859Y-75052245D01*
X46672975Y-74985839D01*
X46700327Y-74959232D01*
X46758919Y-74917439D01*
X46879860Y-74831173D01*
X46907513Y-74803617D01*
X47034435Y-74677137D01*
X47038096Y-74673489D01*
X47097594Y-74590689D01*
X47165435Y-74496277D01*
X47168453Y-74492077D01*
X47180019Y-74468675D01*
X47228132Y-74416467D01*
X47292977Y-74398500D01*
X49413559Y-74398500D01*
X49481680Y-74418502D01*
X49528888Y-74473752D01*
X49550928Y-74523841D01*
X49564721Y-74546000D01*
X49606942Y-74613830D01*
X49627897Y-74647496D01*
X49630779Y-74650924D01*
X49630780Y-74650926D01*
X49717169Y-74753699D01*
X49720054Y-74757131D01*
X49828639Y-74854218D01*
X49832372Y-74856703D01*
X49832376Y-74856706D01*
X49944135Y-74931099D01*
X49947864Y-74933581D01*
X50079333Y-74996289D01*
X50083612Y-74997626D01*
X50083615Y-74997627D01*
X50140276Y-75015329D01*
X50216039Y-75038999D01*
X50220463Y-75039716D01*
X50220465Y-75039716D01*
X50257603Y-75045731D01*
X50359821Y-75062287D01*
X50426782Y-75063514D01*
X50498539Y-75064830D01*
X50498541Y-75064830D01*
X50503020Y-75064912D01*
X50507465Y-75064359D01*
X50511944Y-75064122D01*
X50511951Y-75064249D01*
X50520339Y-75063729D01*
X50950000Y-75063729D01*
X50981986Y-75061441D01*
X51016373Y-75058982D01*
X51016374Y-75058982D01*
X51023111Y-75058500D01*
X51059440Y-75047833D01*
X51112868Y-75044012D01*
X51250000Y-75063729D01*
X51737322Y-75063729D01*
X51739630Y-75063750D01*
X51803020Y-75064912D01*
X51849085Y-75059174D01*
X51943128Y-75047460D01*
X51943132Y-75047459D01*
X51947565Y-75046907D01*
X51997595Y-75033267D01*
X52068575Y-75034646D01*
X52119831Y-75065735D01*
X52246343Y-75192247D01*
X52253887Y-75200537D01*
X52258000Y-75207018D01*
X52263777Y-75212443D01*
X52307667Y-75253658D01*
X52310509Y-75256413D01*
X52330231Y-75276135D01*
X52333355Y-75278558D01*
X52333359Y-75278562D01*
X52333424Y-75278612D01*
X52342445Y-75286317D01*
X52374679Y-75316586D01*
X52381627Y-75320405D01*
X52381629Y-75320407D01*
X52392432Y-75326346D01*
X52408959Y-75337202D01*
X52418698Y-75344757D01*
X52418700Y-75344758D01*
X52424960Y-75349614D01*
X52465540Y-75367174D01*
X52476188Y-75372391D01*
X52492683Y-75381459D01*
X52514940Y-75393695D01*
X52522616Y-75395666D01*
X52522619Y-75395667D01*
X52534562Y-75398733D01*
X52553267Y-75405137D01*
X52571855Y-75413181D01*
X52579678Y-75414420D01*
X52579688Y-75414423D01*
X52615524Y-75420099D01*
X52627144Y-75422505D01*
X52662289Y-75431528D01*
X52669970Y-75433500D01*
X52690224Y-75433500D01*
X52709934Y-75435051D01*
X52729943Y-75438220D01*
X52737835Y-75437474D01*
X52773961Y-75434059D01*
X52785819Y-75433500D01*
X56795803Y-75433500D01*
X56863924Y-75453502D01*
X56910417Y-75507158D01*
X56915326Y-75519623D01*
X56928064Y-75557801D01*
X56933450Y-75573946D01*
X56937301Y-75580170D01*
X56937302Y-75580171D01*
X56975165Y-75641357D01*
X57026522Y-75724348D01*
X57151697Y-75849305D01*
X57157927Y-75853145D01*
X57157928Y-75853146D01*
X57252135Y-75911216D01*
X57302262Y-75942115D01*
X57417615Y-75980376D01*
X57475974Y-76020805D01*
X57503211Y-76086369D01*
X57490678Y-76156251D01*
X57442353Y-76208263D01*
X57417824Y-76219491D01*
X57308007Y-76256130D01*
X57308005Y-76256131D01*
X57301054Y-76258450D01*
X57150652Y-76351522D01*
X57025695Y-76476697D01*
X57021855Y-76482927D01*
X57021854Y-76482928D01*
X56941777Y-76612837D01*
X56932885Y-76627262D01*
X56930581Y-76634209D01*
X56898809Y-76730000D01*
X56877203Y-76795139D01*
X56876503Y-76801975D01*
X56876502Y-76801978D01*
X56875865Y-76808193D01*
X56866500Y-76899600D01*
X56866500Y-77900400D01*
X56866837Y-77903646D01*
X56866837Y-77903650D01*
X56876748Y-77999165D01*
X56877474Y-78006166D01*
X56879655Y-78012702D01*
X56879655Y-78012704D01*
X56903650Y-78084624D01*
X56933450Y-78173946D01*
X57026522Y-78324348D01*
X57031704Y-78329521D01*
X57031708Y-78329526D01*
X57063108Y-78360871D01*
X57097188Y-78423153D01*
X57092185Y-78493973D01*
X57063265Y-78539061D01*
X57055480Y-78546860D01*
X57025695Y-78576697D01*
X57021855Y-78582927D01*
X57021854Y-78582928D01*
X56945611Y-78706616D01*
X56892838Y-78754110D01*
X56838351Y-78766500D01*
X47470713Y-78766500D01*
X47402592Y-78746498D01*
X47356099Y-78692842D01*
X47346874Y-78657488D01*
X47346119Y-78657613D01*
X47345276Y-78652523D01*
X47344852Y-78647361D01*
X47290431Y-78430702D01*
X47201354Y-78225840D01*
X47117544Y-78096290D01*
X47082822Y-78042617D01*
X47082820Y-78042614D01*
X47080014Y-78038277D01*
X46929670Y-77873051D01*
X46925619Y-77869852D01*
X46925615Y-77869848D01*
X46758414Y-77737800D01*
X46758410Y-77737798D01*
X46754359Y-77734598D01*
X46712569Y-77711529D01*
X46662598Y-77661097D01*
X46647826Y-77591654D01*
X46672942Y-77525248D01*
X46700294Y-77498641D01*
X46875328Y-77373792D01*
X46883200Y-77367139D01*
X47034052Y-77216812D01*
X47040730Y-77208965D01*
X47165003Y-77036020D01*
X47170313Y-77027183D01*
X47264670Y-76836267D01*
X47268469Y-76826672D01*
X47330377Y-76622910D01*
X47332555Y-76612837D01*
X47333986Y-76601962D01*
X47331775Y-76587778D01*
X47318617Y-76584000D01*
X44683225Y-76584000D01*
X44669694Y-76587973D01*
X44668257Y-76597966D01*
X44698565Y-76732446D01*
X44701645Y-76742275D01*
X44781770Y-76939603D01*
X44786413Y-76948794D01*
X44897694Y-77130388D01*
X44903777Y-77138699D01*
X45043213Y-77299667D01*
X45050580Y-77306883D01*
X45214434Y-77442916D01*
X45222881Y-77448831D01*
X45291969Y-77489203D01*
X45340693Y-77540842D01*
X45353764Y-77610625D01*
X45327033Y-77676396D01*
X45286584Y-77709752D01*
X45273607Y-77716507D01*
X45269474Y-77719610D01*
X45269471Y-77719612D01*
X45245247Y-77737800D01*
X45094965Y-77850635D01*
X45047408Y-77900400D01*
X44952890Y-77999308D01*
X44940629Y-78012138D01*
X44937715Y-78016410D01*
X44937714Y-78016411D01*
X44877033Y-78105366D01*
X44814743Y-78196680D01*
X44794136Y-78241075D01*
X44739064Y-78359718D01*
X44720688Y-78399305D01*
X44660989Y-78614570D01*
X44637251Y-78836695D01*
X44637548Y-78841848D01*
X44637548Y-78841851D01*
X44640941Y-78900692D01*
X44650110Y-79059715D01*
X44651247Y-79064761D01*
X44651248Y-79064767D01*
X44657250Y-79091398D01*
X44699222Y-79277639D01*
X44783266Y-79484616D01*
X44785965Y-79489020D01*
X44889258Y-79657579D01*
X44899987Y-79675088D01*
X45046250Y-79843938D01*
X45218126Y-79986632D01*
X45247160Y-80003598D01*
X45291445Y-80029476D01*
X45340169Y-80081114D01*
X45353240Y-80150897D01*
X45326509Y-80216669D01*
X45286055Y-80250027D01*
X45273607Y-80256507D01*
X45269474Y-80259610D01*
X45269471Y-80259612D01*
X45099100Y-80387530D01*
X45094965Y-80390635D01*
X45091393Y-80394373D01*
X44949079Y-80543296D01*
X44940629Y-80552138D01*
X44937715Y-80556410D01*
X44937714Y-80556411D01*
X44925822Y-80573844D01*
X44814743Y-80736680D01*
X44799003Y-80770590D01*
X44725799Y-80928295D01*
X44720688Y-80939305D01*
X44660989Y-81154570D01*
X44637251Y-81376695D01*
X44637548Y-81381848D01*
X44637548Y-81381851D01*
X44643870Y-81491500D01*
X44650110Y-81599715D01*
X44651247Y-81604761D01*
X44651248Y-81604767D01*
X44674400Y-81707497D01*
X44699222Y-81817639D01*
X44783266Y-82024616D01*
X44899987Y-82215088D01*
X45046250Y-82383938D01*
X45115072Y-82441075D01*
X45213300Y-82522625D01*
X45218126Y-82526632D01*
X45223079Y-82529526D01*
X45291445Y-82569476D01*
X45340169Y-82621114D01*
X45353240Y-82690897D01*
X45326509Y-82756669D01*
X45286055Y-82790027D01*
X45280888Y-82792717D01*
X45273607Y-82796507D01*
X45269474Y-82799610D01*
X45269471Y-82799612D01*
X45107755Y-82921032D01*
X45094965Y-82930635D01*
X44940629Y-83092138D01*
X44937715Y-83096410D01*
X44937714Y-83096411D01*
X44925404Y-83114457D01*
X44814743Y-83276680D01*
X44720688Y-83479305D01*
X44660989Y-83694570D01*
X44637251Y-83916695D01*
X38508500Y-83916695D01*
X38508500Y-45654183D01*
X44664389Y-45654183D01*
X44665912Y-45662607D01*
X44678292Y-45666000D01*
X45727885Y-45666000D01*
X45743124Y-45661525D01*
X45744329Y-45660135D01*
X45746000Y-45652452D01*
X45746000Y-45647885D01*
X46254000Y-45647885D01*
X46258475Y-45663124D01*
X46259865Y-45664329D01*
X46267548Y-45666000D01*
X47318344Y-45666000D01*
X47331875Y-45662027D01*
X47333180Y-45652947D01*
X47301766Y-45527885D01*
X56692000Y-45527885D01*
X56696475Y-45543124D01*
X56697865Y-45544329D01*
X56705548Y-45546000D01*
X57727885Y-45546000D01*
X57743124Y-45541525D01*
X57744329Y-45540135D01*
X57746000Y-45532452D01*
X57746000Y-45527885D01*
X58254000Y-45527885D01*
X58258475Y-45543124D01*
X58259865Y-45544329D01*
X58267548Y-45546000D01*
X59289884Y-45546000D01*
X59305123Y-45541525D01*
X59306328Y-45540135D01*
X59307999Y-45532452D01*
X59307999Y-45527885D01*
X64092000Y-45527885D01*
X64096475Y-45543124D01*
X64097865Y-45544329D01*
X64105548Y-45546000D01*
X65127885Y-45546000D01*
X65143124Y-45541525D01*
X65144329Y-45540135D01*
X65146000Y-45532452D01*
X65146000Y-45527885D01*
X65654000Y-45527885D01*
X65658475Y-45543124D01*
X65659865Y-45544329D01*
X65667548Y-45546000D01*
X66689884Y-45546000D01*
X66705123Y-45541525D01*
X66706328Y-45540135D01*
X66707999Y-45532452D01*
X66707999Y-44502905D01*
X66707662Y-44496386D01*
X66697743Y-44400794D01*
X66694851Y-44387400D01*
X66643412Y-44233216D01*
X66637239Y-44220038D01*
X66551937Y-44082193D01*
X66542901Y-44070792D01*
X66428171Y-43956261D01*
X66416760Y-43947249D01*
X66278757Y-43862184D01*
X66265576Y-43856037D01*
X66111290Y-43804862D01*
X66097914Y-43801995D01*
X66003562Y-43792328D01*
X65997145Y-43792000D01*
X65672115Y-43792000D01*
X65656876Y-43796475D01*
X65655671Y-43797865D01*
X65654000Y-43805548D01*
X65654000Y-45527885D01*
X65146000Y-45527885D01*
X65146000Y-43810116D01*
X65141525Y-43794877D01*
X65140135Y-43793672D01*
X65132452Y-43792001D01*
X64802905Y-43792001D01*
X64796386Y-43792338D01*
X64700794Y-43802257D01*
X64687400Y-43805149D01*
X64533216Y-43856588D01*
X64520038Y-43862761D01*
X64382193Y-43948063D01*
X64370792Y-43957099D01*
X64256261Y-44071829D01*
X64247249Y-44083240D01*
X64162184Y-44221243D01*
X64156037Y-44234424D01*
X64104862Y-44388710D01*
X64101995Y-44402086D01*
X64092328Y-44496438D01*
X64092000Y-44502855D01*
X64092000Y-45527885D01*
X59307999Y-45527885D01*
X59307999Y-44502905D01*
X59307662Y-44496386D01*
X59297743Y-44400794D01*
X59294851Y-44387400D01*
X59243412Y-44233216D01*
X59237239Y-44220038D01*
X59151937Y-44082193D01*
X59142901Y-44070792D01*
X59028171Y-43956261D01*
X59016760Y-43947249D01*
X58878757Y-43862184D01*
X58865576Y-43856037D01*
X58711290Y-43804862D01*
X58697914Y-43801995D01*
X58603562Y-43792328D01*
X58597145Y-43792000D01*
X58272115Y-43792000D01*
X58256876Y-43796475D01*
X58255671Y-43797865D01*
X58254000Y-43805548D01*
X58254000Y-45527885D01*
X57746000Y-45527885D01*
X57746000Y-43810116D01*
X57741525Y-43794877D01*
X57740135Y-43793672D01*
X57732452Y-43792001D01*
X57402905Y-43792001D01*
X57396386Y-43792338D01*
X57300794Y-43802257D01*
X57287400Y-43805149D01*
X57133216Y-43856588D01*
X57120038Y-43862761D01*
X56982193Y-43948063D01*
X56970792Y-43957099D01*
X56856261Y-44071829D01*
X56847249Y-44083240D01*
X56762184Y-44221243D01*
X56756037Y-44234424D01*
X56704862Y-44388710D01*
X56701995Y-44402086D01*
X56692328Y-44496438D01*
X56692000Y-44502855D01*
X56692000Y-45527885D01*
X47301766Y-45527885D01*
X47291214Y-45485875D01*
X47287894Y-45476124D01*
X47202972Y-45280814D01*
X47198105Y-45271739D01*
X47082426Y-45092926D01*
X47076136Y-45084757D01*
X46932806Y-44927240D01*
X46925273Y-44920215D01*
X46758139Y-44788222D01*
X46749552Y-44782517D01*
X46563117Y-44679599D01*
X46553705Y-44675369D01*
X46352959Y-44604280D01*
X46342988Y-44601646D01*
X46271837Y-44588972D01*
X46258540Y-44590432D01*
X46254000Y-44604989D01*
X46254000Y-45647885D01*
X45746000Y-45647885D01*
X45746000Y-44603102D01*
X45742082Y-44589758D01*
X45727806Y-44587771D01*
X45689324Y-44593660D01*
X45679288Y-44596051D01*
X45476868Y-44662212D01*
X45467359Y-44666209D01*
X45278463Y-44764542D01*
X45269738Y-44770036D01*
X45099433Y-44897905D01*
X45091726Y-44904748D01*
X44944590Y-45058717D01*
X44938104Y-45066727D01*
X44818098Y-45242649D01*
X44813000Y-45251623D01*
X44723338Y-45444783D01*
X44719775Y-45454470D01*
X44664389Y-45654183D01*
X38508500Y-45654183D01*
X38508500Y-40634500D01*
X38528502Y-40566379D01*
X38582158Y-40519886D01*
X38634500Y-40508500D01*
X99365500Y-40508500D01*
X99433621Y-40528502D01*
G37*
%TD.AperFunction*%
%TA.AperFunction,Conductor*%
G36*
X65017012Y-77113372D02*
G01*
X65023595Y-77119501D01*
X65029595Y-77125501D01*
X65063621Y-77187813D01*
X65066500Y-77214596D01*
X65066500Y-81521233D01*
X65065973Y-81532416D01*
X65064298Y-81539909D01*
X65064547Y-81547835D01*
X65064547Y-81547836D01*
X65066438Y-81607986D01*
X65066500Y-81611945D01*
X65066500Y-81639856D01*
X65066997Y-81643790D01*
X65066997Y-81643791D01*
X65067005Y-81643856D01*
X65067938Y-81655693D01*
X65069327Y-81699889D01*
X65074978Y-81719339D01*
X65078987Y-81738700D01*
X65081526Y-81758797D01*
X65084445Y-81766168D01*
X65084445Y-81766170D01*
X65097804Y-81799912D01*
X65101649Y-81811142D01*
X65103537Y-81817639D01*
X65113982Y-81853593D01*
X65118015Y-81860412D01*
X65118017Y-81860417D01*
X65124293Y-81871028D01*
X65132988Y-81888776D01*
X65140448Y-81907617D01*
X65145110Y-81914033D01*
X65145110Y-81914034D01*
X65166436Y-81943387D01*
X65172952Y-81953307D01*
X65195458Y-81991362D01*
X65209779Y-82005683D01*
X65222619Y-82020716D01*
X65234528Y-82037107D01*
X65240634Y-82042158D01*
X65268605Y-82065298D01*
X65277384Y-82073288D01*
X72296343Y-89092247D01*
X72303887Y-89100537D01*
X72308000Y-89107018D01*
X72313777Y-89112443D01*
X72357667Y-89153658D01*
X72360509Y-89156413D01*
X72380230Y-89176134D01*
X72383425Y-89178612D01*
X72392447Y-89186318D01*
X72424679Y-89216586D01*
X72431628Y-89220406D01*
X72442432Y-89226346D01*
X72458956Y-89237199D01*
X72474959Y-89249613D01*
X72515543Y-89267176D01*
X72526173Y-89272383D01*
X72564940Y-89293695D01*
X72572617Y-89295666D01*
X72572622Y-89295668D01*
X72584558Y-89298732D01*
X72603266Y-89305137D01*
X72621855Y-89313181D01*
X72629683Y-89314421D01*
X72629690Y-89314423D01*
X72665524Y-89320099D01*
X72677144Y-89322505D01*
X72712289Y-89331528D01*
X72719970Y-89333500D01*
X72740224Y-89333500D01*
X72759934Y-89335051D01*
X72779943Y-89338220D01*
X72787835Y-89337474D01*
X72823961Y-89334059D01*
X72835819Y-89333500D01*
X84785406Y-89333500D01*
X84853527Y-89353502D01*
X84874501Y-89370405D01*
X86009154Y-90505058D01*
X86043180Y-90567370D01*
X86041476Y-90627825D01*
X86011707Y-90735169D01*
X85987095Y-90965469D01*
X85987392Y-90970622D01*
X85987392Y-90970625D01*
X85993067Y-91069041D01*
X86000427Y-91196697D01*
X86001564Y-91201743D01*
X86001565Y-91201749D01*
X86033741Y-91344523D01*
X86051346Y-91422642D01*
X86053288Y-91427424D01*
X86053289Y-91427428D01*
X86136540Y-91632450D01*
X86138484Y-91637237D01*
X86259501Y-91834719D01*
X86411147Y-92009784D01*
X86589349Y-92157730D01*
X86789322Y-92274584D01*
X86794147Y-92276426D01*
X86794148Y-92276427D01*
X86915560Y-92322790D01*
X86972063Y-92365778D01*
X86996356Y-92432489D01*
X86980726Y-92501744D01*
X86930134Y-92551554D01*
X86870611Y-92566500D01*
X67702094Y-92566500D01*
X67633973Y-92546498D01*
X67612999Y-92529595D01*
X60162631Y-85079226D01*
X60128605Y-85016914D01*
X60133670Y-84946099D01*
X60176217Y-84889263D01*
X60211847Y-84870609D01*
X60298946Y-84841550D01*
X60449348Y-84748478D01*
X60574305Y-84623303D01*
X60607766Y-84569020D01*
X60663275Y-84478968D01*
X60663276Y-84478966D01*
X60667115Y-84472738D01*
X60703704Y-84362425D01*
X60720632Y-84311389D01*
X60720632Y-84311387D01*
X60722797Y-84304861D01*
X60733500Y-84200400D01*
X60733500Y-83199600D01*
X60733163Y-83196350D01*
X60723238Y-83100692D01*
X60723237Y-83100688D01*
X60722526Y-83093834D01*
X60717413Y-83078507D01*
X60668868Y-82933002D01*
X60666550Y-82926054D01*
X60573478Y-82775652D01*
X60568296Y-82770479D01*
X60568292Y-82770474D01*
X60536892Y-82739129D01*
X60502812Y-82676847D01*
X60507815Y-82606027D01*
X60536735Y-82560939D01*
X60569133Y-82528484D01*
X60574305Y-82523303D01*
X60667115Y-82372738D01*
X60706664Y-82253502D01*
X60720632Y-82211389D01*
X60720632Y-82211387D01*
X60722797Y-82204861D01*
X60733500Y-82100400D01*
X60733500Y-81099600D01*
X60733163Y-81096350D01*
X60723238Y-81000692D01*
X60723237Y-81000688D01*
X60722526Y-80993834D01*
X60706734Y-80946498D01*
X60668868Y-80833002D01*
X60666550Y-80826054D01*
X60573478Y-80675652D01*
X60568296Y-80670479D01*
X60568292Y-80670474D01*
X60536892Y-80639129D01*
X60502812Y-80576847D01*
X60507815Y-80506027D01*
X60536735Y-80460939D01*
X60569133Y-80428484D01*
X60569134Y-80428483D01*
X60574305Y-80423303D01*
X60578146Y-80417072D01*
X60663275Y-80278968D01*
X60663276Y-80278966D01*
X60667115Y-80272738D01*
X60693564Y-80192995D01*
X60717278Y-80121502D01*
X62041500Y-80121502D01*
X62041693Y-80123950D01*
X62041693Y-80123958D01*
X62043814Y-80150897D01*
X62044438Y-80158831D01*
X62062027Y-80219374D01*
X62088586Y-80310790D01*
X62090855Y-80318601D01*
X62094892Y-80325427D01*
X62171509Y-80454980D01*
X62171511Y-80454983D01*
X62175547Y-80461807D01*
X62293193Y-80579453D01*
X62342970Y-80608892D01*
X62391422Y-80660783D01*
X62404045Y-80731388D01*
X62386719Y-80885851D01*
X62387235Y-80891995D01*
X62391812Y-80946498D01*
X62403268Y-81082934D01*
X62413436Y-81118393D01*
X62452603Y-81254984D01*
X62457783Y-81273050D01*
X62477893Y-81312179D01*
X62540276Y-81433562D01*
X62548187Y-81448956D01*
X62671035Y-81603953D01*
X62675728Y-81607947D01*
X62675729Y-81607948D01*
X62816391Y-81727660D01*
X62821650Y-81732136D01*
X62994294Y-81828624D01*
X63182392Y-81889740D01*
X63378777Y-81913158D01*
X63384912Y-81912686D01*
X63384914Y-81912686D01*
X63569830Y-81898457D01*
X63569834Y-81898456D01*
X63575972Y-81897984D01*
X63766463Y-81844798D01*
X63771967Y-81842018D01*
X63771969Y-81842017D01*
X63937495Y-81758404D01*
X63937497Y-81758403D01*
X63942996Y-81755625D01*
X64098847Y-81633861D01*
X64196065Y-81521233D01*
X64224049Y-81488813D01*
X64224050Y-81488811D01*
X64228078Y-81484145D01*
X64325769Y-81312179D01*
X64388197Y-81124513D01*
X64412985Y-80928295D01*
X64413380Y-80900000D01*
X64406248Y-80827262D01*
X64399367Y-80757082D01*
X64412627Y-80687335D01*
X64460627Y-80636334D01*
X64549980Y-80583491D01*
X64549983Y-80583489D01*
X64556807Y-80579453D01*
X64674453Y-80461807D01*
X64678489Y-80454983D01*
X64678491Y-80454980D01*
X64755108Y-80325427D01*
X64759145Y-80318601D01*
X64761415Y-80310790D01*
X64787973Y-80219374D01*
X64805562Y-80158831D01*
X64806187Y-80150897D01*
X64808307Y-80123958D01*
X64808307Y-80123950D01*
X64808500Y-80121502D01*
X64808500Y-79688498D01*
X64807123Y-79671002D01*
X64806067Y-79657579D01*
X64806066Y-79657574D01*
X64805562Y-79651169D01*
X64776528Y-79551231D01*
X64761357Y-79499012D01*
X64761356Y-79499010D01*
X64759145Y-79491399D01*
X64701629Y-79394145D01*
X64678493Y-79355024D01*
X64678492Y-79355023D01*
X64674453Y-79348193D01*
X64671513Y-79345253D01*
X64646180Y-79280734D01*
X64660079Y-79211111D01*
X64672126Y-79192364D01*
X64678090Y-79184676D01*
X64754648Y-79055221D01*
X64760893Y-79040790D01*
X64799939Y-78906395D01*
X64799899Y-78892294D01*
X64792630Y-78889000D01*
X62063122Y-78889000D01*
X62049591Y-78892973D01*
X62048456Y-78900871D01*
X62089107Y-79040790D01*
X62095352Y-79055221D01*
X62171911Y-79184677D01*
X62177871Y-79192360D01*
X62203820Y-79258444D01*
X62189922Y-79328067D01*
X62179579Y-79344161D01*
X62175547Y-79348193D01*
X62090855Y-79491399D01*
X62088644Y-79499010D01*
X62088643Y-79499012D01*
X62073472Y-79551231D01*
X62044438Y-79651169D01*
X62043934Y-79657574D01*
X62043933Y-79657579D01*
X62042877Y-79671002D01*
X62041500Y-79688498D01*
X62041500Y-80121502D01*
X60717278Y-80121502D01*
X60720632Y-80111389D01*
X60720632Y-80111387D01*
X60722797Y-80104861D01*
X60733500Y-80000400D01*
X60733500Y-79327094D01*
X60753502Y-79258973D01*
X60770405Y-79237999D01*
X61869012Y-78139392D01*
X61931324Y-78105366D01*
X62002139Y-78110431D01*
X62058975Y-78152978D01*
X62083786Y-78219498D01*
X62079104Y-78263641D01*
X62050061Y-78363605D01*
X62050101Y-78377706D01*
X62057370Y-78381000D01*
X64786878Y-78381000D01*
X64800409Y-78377027D01*
X64801544Y-78369129D01*
X64760893Y-78229210D01*
X64754648Y-78214779D01*
X64678089Y-78085323D01*
X64672129Y-78077640D01*
X64646180Y-78011556D01*
X64660078Y-77941933D01*
X64670421Y-77925839D01*
X64674453Y-77921807D01*
X64759145Y-77778601D01*
X64805562Y-77618831D01*
X64808500Y-77581502D01*
X64808500Y-77208596D01*
X64828502Y-77140475D01*
X64882158Y-77093982D01*
X64952432Y-77083878D01*
X65017012Y-77113372D01*
G37*
%TD.AperFunction*%
%TA.AperFunction,Conductor*%
G36*
X62209532Y-71314401D02*
G01*
X62266368Y-71356948D01*
X62291179Y-71423468D01*
X62291500Y-71432457D01*
X62291500Y-71470634D01*
X62298255Y-71532816D01*
X62349385Y-71669205D01*
X62436739Y-71785761D01*
X62553295Y-71873115D01*
X62689684Y-71924245D01*
X62751866Y-71931000D01*
X64371088Y-71931000D01*
X64379658Y-71931292D01*
X64429776Y-71934709D01*
X64429780Y-71934709D01*
X64437352Y-71935225D01*
X64444834Y-71933919D01*
X64444838Y-71933919D01*
X64446491Y-71933631D01*
X64447709Y-71933769D01*
X64452423Y-71933522D01*
X64452464Y-71934308D01*
X64517036Y-71941625D01*
X64572060Y-71986490D01*
X64594093Y-72053981D01*
X64576141Y-72122671D01*
X64557245Y-72146850D01*
X61274500Y-75429595D01*
X61212188Y-75463621D01*
X61185405Y-75466500D01*
X60855547Y-75466500D01*
X60787426Y-75446498D01*
X60740933Y-75392842D01*
X60730203Y-75327656D01*
X60732672Y-75303557D01*
X60733000Y-75297146D01*
X60733000Y-75072115D01*
X60728525Y-75056876D01*
X60727135Y-75055671D01*
X60719452Y-75054000D01*
X59584500Y-75054000D01*
X59516379Y-75033998D01*
X59469886Y-74980342D01*
X59458500Y-74928000D01*
X59458500Y-74672000D01*
X59478502Y-74603879D01*
X59532158Y-74557386D01*
X59584500Y-74546000D01*
X60714884Y-74546000D01*
X60730123Y-74541525D01*
X60731328Y-74540135D01*
X60732999Y-74532452D01*
X60732999Y-74302905D01*
X60732662Y-74296386D01*
X60722743Y-74200794D01*
X60719851Y-74187400D01*
X60668412Y-74033216D01*
X60662239Y-74020038D01*
X60576937Y-73882193D01*
X60567901Y-73870792D01*
X60453171Y-73756261D01*
X60441761Y-73747250D01*
X60429927Y-73739955D01*
X60382435Y-73687182D01*
X60371013Y-73617110D01*
X60399288Y-73551987D01*
X60417783Y-73533948D01*
X60422800Y-73529972D01*
X60429031Y-73526116D01*
X60464947Y-73490137D01*
X60546758Y-73408184D01*
X60546762Y-73408179D01*
X60551929Y-73403003D01*
X60582727Y-73353040D01*
X60639369Y-73261150D01*
X60639370Y-73261148D01*
X60643209Y-73254920D01*
X60697974Y-73089809D01*
X60700882Y-73061432D01*
X60708172Y-72990271D01*
X60708500Y-72987072D01*
X60708500Y-72763457D01*
X60728502Y-72695336D01*
X60745405Y-72674362D01*
X62076405Y-71343362D01*
X62138717Y-71309336D01*
X62209532Y-71314401D01*
G37*
%TD.AperFunction*%
%TA.AperFunction,Conductor*%
G36*
X90645399Y-58736385D02*
G01*
X90685389Y-58795048D01*
X90691500Y-58833813D01*
X90691500Y-73169709D01*
X90671498Y-73237830D01*
X90617842Y-73284323D01*
X90547568Y-73294427D01*
X90504607Y-73280018D01*
X90383884Y-73213376D01*
X90383883Y-73213375D01*
X90379355Y-73210876D01*
X90374486Y-73209152D01*
X90374482Y-73209150D01*
X90165903Y-73135288D01*
X90165899Y-73135287D01*
X90161028Y-73133562D01*
X90155935Y-73132655D01*
X90155932Y-73132654D01*
X89938095Y-73093851D01*
X89938089Y-73093850D01*
X89933006Y-73092945D01*
X89860096Y-73092054D01*
X89706581Y-73090179D01*
X89706579Y-73090179D01*
X89701411Y-73090116D01*
X89555779Y-73112401D01*
X89477573Y-73124368D01*
X89477571Y-73124369D01*
X89472464Y-73125150D01*
X89467549Y-73126757D01*
X89467547Y-73126757D01*
X89431889Y-73138412D01*
X89360925Y-73140565D01*
X89303647Y-73107743D01*
X88327433Y-72131528D01*
X87303652Y-71107747D01*
X87296112Y-71099461D01*
X87292000Y-71092982D01*
X87242348Y-71046356D01*
X87239507Y-71043602D01*
X87219770Y-71023865D01*
X87216573Y-71021385D01*
X87207551Y-71013680D01*
X87175321Y-70983414D01*
X87168375Y-70979595D01*
X87168372Y-70979593D01*
X87157566Y-70973652D01*
X87141047Y-70962801D01*
X87140583Y-70962441D01*
X87125041Y-70950386D01*
X87117772Y-70947241D01*
X87117768Y-70947238D01*
X87084463Y-70932826D01*
X87073813Y-70927609D01*
X87035060Y-70906305D01*
X87015437Y-70901267D01*
X86996734Y-70894863D01*
X86985420Y-70889967D01*
X86985419Y-70889967D01*
X86978145Y-70886819D01*
X86970322Y-70885580D01*
X86970312Y-70885577D01*
X86934476Y-70879901D01*
X86922856Y-70877495D01*
X86887711Y-70868472D01*
X86887710Y-70868472D01*
X86880030Y-70866500D01*
X86859776Y-70866500D01*
X86840065Y-70864949D01*
X86827886Y-70863020D01*
X86820057Y-70861780D01*
X86812165Y-70862526D01*
X86776039Y-70865941D01*
X86764181Y-70866500D01*
X82214594Y-70866500D01*
X82146473Y-70846498D01*
X82125499Y-70829595D01*
X79403652Y-68107747D01*
X79396112Y-68099461D01*
X79392000Y-68092982D01*
X79342348Y-68046356D01*
X79339507Y-68043602D01*
X79319770Y-68023865D01*
X79316573Y-68021385D01*
X79307551Y-68013680D01*
X79291193Y-67998319D01*
X79275321Y-67983414D01*
X79268375Y-67979595D01*
X79268372Y-67979593D01*
X79257566Y-67973652D01*
X79241047Y-67962801D01*
X79240583Y-67962441D01*
X79225041Y-67950386D01*
X79217772Y-67947241D01*
X79217768Y-67947238D01*
X79184463Y-67932826D01*
X79173813Y-67927609D01*
X79135060Y-67906305D01*
X79115437Y-67901267D01*
X79096734Y-67894863D01*
X79085420Y-67889967D01*
X79085419Y-67889967D01*
X79078145Y-67886819D01*
X79070322Y-67885580D01*
X79070312Y-67885577D01*
X79034476Y-67879901D01*
X79022856Y-67877495D01*
X78987711Y-67868472D01*
X78987710Y-67868472D01*
X78980030Y-67866500D01*
X78959776Y-67866500D01*
X78940065Y-67864949D01*
X78927886Y-67863020D01*
X78920057Y-67861780D01*
X78912165Y-67862526D01*
X78876039Y-67865941D01*
X78864181Y-67866500D01*
X75004197Y-67866500D01*
X74936076Y-67846498D01*
X74889583Y-67792842D01*
X74884674Y-67780377D01*
X74868867Y-67732998D01*
X74868866Y-67732996D01*
X74866550Y-67726054D01*
X74773478Y-67575652D01*
X74697694Y-67500000D01*
X82886540Y-67500000D01*
X82906359Y-67815020D01*
X82965505Y-68125072D01*
X83063044Y-68425266D01*
X83064731Y-68428852D01*
X83064733Y-68428856D01*
X83195750Y-68707283D01*
X83195754Y-68707290D01*
X83197438Y-68710869D01*
X83366568Y-68977375D01*
X83369093Y-68980427D01*
X83546293Y-69194624D01*
X83567767Y-69220582D01*
X83797860Y-69436654D01*
X84053221Y-69622184D01*
X84056690Y-69624091D01*
X84056693Y-69624093D01*
X84210290Y-69708534D01*
X84329821Y-69774247D01*
X84333490Y-69775700D01*
X84333495Y-69775702D01*
X84619628Y-69888990D01*
X84623298Y-69890443D01*
X84929025Y-69968940D01*
X85242179Y-70008500D01*
X85557821Y-70008500D01*
X85870975Y-69968940D01*
X86176702Y-69890443D01*
X86180372Y-69888990D01*
X86466505Y-69775702D01*
X86466510Y-69775700D01*
X86470179Y-69774247D01*
X86589710Y-69708534D01*
X86743307Y-69624093D01*
X86743310Y-69624091D01*
X86746779Y-69622184D01*
X87002140Y-69436654D01*
X87232233Y-69220582D01*
X87253708Y-69194624D01*
X87430907Y-68980427D01*
X87433432Y-68977375D01*
X87602562Y-68710869D01*
X87604246Y-68707290D01*
X87604250Y-68707283D01*
X87735267Y-68428856D01*
X87735269Y-68428852D01*
X87736956Y-68425266D01*
X87834495Y-68125072D01*
X87893641Y-67815020D01*
X87913460Y-67500000D01*
X87893641Y-67184980D01*
X87834495Y-66874928D01*
X87736956Y-66574734D01*
X87735267Y-66571144D01*
X87604250Y-66292717D01*
X87604246Y-66292710D01*
X87602562Y-66289131D01*
X87433432Y-66022625D01*
X87242637Y-65791994D01*
X87234758Y-65782470D01*
X87234757Y-65782469D01*
X87232233Y-65779418D01*
X87215404Y-65763614D01*
X87170283Y-65721243D01*
X87002140Y-65563346D01*
X86746779Y-65377816D01*
X86654217Y-65326929D01*
X86473648Y-65227660D01*
X86473647Y-65227659D01*
X86470179Y-65225753D01*
X86466510Y-65224300D01*
X86466505Y-65224298D01*
X86180372Y-65111010D01*
X86180371Y-65111010D01*
X86176702Y-65109557D01*
X85870975Y-65031060D01*
X85557821Y-64991500D01*
X85242179Y-64991500D01*
X84929025Y-65031060D01*
X84623298Y-65109557D01*
X84619629Y-65111010D01*
X84619628Y-65111010D01*
X84333495Y-65224298D01*
X84333490Y-65224300D01*
X84329821Y-65225753D01*
X84326353Y-65227659D01*
X84326352Y-65227660D01*
X84145784Y-65326929D01*
X84053221Y-65377816D01*
X83797860Y-65563346D01*
X83629717Y-65721243D01*
X83584597Y-65763614D01*
X83567767Y-65779418D01*
X83565243Y-65782469D01*
X83565242Y-65782470D01*
X83557363Y-65791994D01*
X83366568Y-66022625D01*
X83197438Y-66289131D01*
X83195754Y-66292710D01*
X83195750Y-66292717D01*
X83064733Y-66571144D01*
X83063044Y-66574734D01*
X82965505Y-66874928D01*
X82906359Y-67184980D01*
X82886540Y-67500000D01*
X74697694Y-67500000D01*
X74697670Y-67499976D01*
X74665180Y-67467542D01*
X74631101Y-67405259D01*
X74636104Y-67334439D01*
X74665025Y-67289351D01*
X74746363Y-67207871D01*
X74755375Y-67196460D01*
X74838912Y-67060937D01*
X74845056Y-67047759D01*
X74895315Y-66896234D01*
X74898181Y-66882868D01*
X74907672Y-66790230D01*
X74908000Y-66783815D01*
X74908000Y-66772115D01*
X74903525Y-66756876D01*
X74902135Y-66755671D01*
X74894452Y-66754000D01*
X73734500Y-66754000D01*
X73666379Y-66733998D01*
X73619886Y-66680342D01*
X73608500Y-66628000D01*
X73608500Y-66372000D01*
X73628502Y-66303879D01*
X73682158Y-66257386D01*
X73734500Y-66246000D01*
X74889885Y-66246000D01*
X74905124Y-66241525D01*
X74906329Y-66240135D01*
X74908000Y-66232452D01*
X74908000Y-66216234D01*
X74907663Y-66209718D01*
X74897925Y-66115868D01*
X74895032Y-66102472D01*
X74844512Y-65951047D01*
X74838347Y-65937885D01*
X74754574Y-65802508D01*
X74745540Y-65791110D01*
X74665217Y-65710927D01*
X74631138Y-65648645D01*
X74636141Y-65577824D01*
X74665061Y-65532738D01*
X74774305Y-65423303D01*
X74802344Y-65377816D01*
X74863275Y-65278968D01*
X74863276Y-65278966D01*
X74867115Y-65272738D01*
X74922797Y-65104861D01*
X74925274Y-65080691D01*
X74930258Y-65032045D01*
X74933500Y-65000400D01*
X74933500Y-63999600D01*
X74933163Y-63996350D01*
X74923238Y-63900692D01*
X74923237Y-63900688D01*
X74922526Y-63893834D01*
X74918141Y-63880689D01*
X74868868Y-63733002D01*
X74866550Y-63726054D01*
X74773478Y-63575652D01*
X74773096Y-63575271D01*
X74747506Y-63512044D01*
X74760678Y-63442280D01*
X74774009Y-63421497D01*
X74777753Y-63416757D01*
X74862816Y-63278757D01*
X74868963Y-63265576D01*
X74920138Y-63111290D01*
X74923005Y-63097914D01*
X74932672Y-63003562D01*
X74933000Y-62997146D01*
X74933000Y-62772115D01*
X74928525Y-62756876D01*
X74927135Y-62755671D01*
X74919452Y-62754000D01*
X73784500Y-62754000D01*
X73716379Y-62733998D01*
X73669886Y-62680342D01*
X73658500Y-62628000D01*
X73658500Y-62372000D01*
X73678502Y-62303879D01*
X73732158Y-62257386D01*
X73784500Y-62246000D01*
X74914884Y-62246000D01*
X74930123Y-62241525D01*
X74931328Y-62240135D01*
X74932999Y-62232452D01*
X74932999Y-62002905D01*
X74932662Y-61996386D01*
X74922743Y-61900794D01*
X74919851Y-61887400D01*
X74868412Y-61733216D01*
X74862239Y-61720038D01*
X74776936Y-61582191D01*
X74774145Y-61578670D01*
X74747506Y-61512860D01*
X74760676Y-61443096D01*
X74771696Y-61425917D01*
X74774305Y-61423303D01*
X74778146Y-61417073D01*
X74838978Y-61318384D01*
X74891750Y-61270891D01*
X74946238Y-61258500D01*
X86596233Y-61258500D01*
X86607416Y-61259027D01*
X86614909Y-61260702D01*
X86622835Y-61260453D01*
X86622836Y-61260453D01*
X86682986Y-61258562D01*
X86686945Y-61258500D01*
X86714856Y-61258500D01*
X86718791Y-61258003D01*
X86718856Y-61257995D01*
X86730693Y-61257062D01*
X86762951Y-61256048D01*
X86766970Y-61255922D01*
X86774889Y-61255673D01*
X86794343Y-61250021D01*
X86813700Y-61246013D01*
X86825930Y-61244468D01*
X86825931Y-61244468D01*
X86833797Y-61243474D01*
X86841168Y-61240555D01*
X86841170Y-61240555D01*
X86874912Y-61227196D01*
X86886142Y-61223351D01*
X86920983Y-61213229D01*
X86920984Y-61213229D01*
X86928593Y-61211018D01*
X86935412Y-61206985D01*
X86935417Y-61206983D01*
X86946028Y-61200707D01*
X86963776Y-61192012D01*
X86982617Y-61184552D01*
X87018387Y-61158564D01*
X87028307Y-61152048D01*
X87059535Y-61133580D01*
X87059538Y-61133578D01*
X87066362Y-61129542D01*
X87080683Y-61115221D01*
X87095717Y-61102380D01*
X87099945Y-61099308D01*
X87112107Y-61090472D01*
X87140298Y-61056395D01*
X87148288Y-61047616D01*
X89302148Y-58893756D01*
X89364460Y-58859730D01*
X89416363Y-58859380D01*
X89522414Y-58880956D01*
X89632656Y-58903385D01*
X89763324Y-58908176D01*
X89858949Y-58911683D01*
X89858953Y-58911683D01*
X89864113Y-58911872D01*
X89869233Y-58911216D01*
X89869235Y-58911216D01*
X89944836Y-58901531D01*
X90093847Y-58882442D01*
X90098795Y-58880957D01*
X90098802Y-58880956D01*
X90310747Y-58817369D01*
X90315690Y-58815886D01*
X90320323Y-58813616D01*
X90320334Y-58813612D01*
X90510068Y-58720662D01*
X90580042Y-58708655D01*
X90645399Y-58736385D01*
G37*
%TD.AperFunction*%
%TA.AperFunction,Conductor*%
G36*
X56936158Y-63328557D02*
G01*
X56992994Y-63371104D01*
X56999267Y-63380305D01*
X57026522Y-63424348D01*
X57031704Y-63429521D01*
X57134466Y-63532104D01*
X57168545Y-63594386D01*
X57163542Y-63665207D01*
X57134622Y-63710294D01*
X57107406Y-63737558D01*
X57048071Y-63796997D01*
X57044231Y-63803227D01*
X57044230Y-63803228D01*
X56961364Y-63937662D01*
X56956791Y-63945080D01*
X56902026Y-64110191D01*
X56901326Y-64117027D01*
X56901325Y-64117030D01*
X56899213Y-64137642D01*
X56891500Y-64212928D01*
X56891500Y-64787072D01*
X56891837Y-64790318D01*
X56891837Y-64790322D01*
X56899973Y-64868731D01*
X56902293Y-64891093D01*
X56904474Y-64897629D01*
X56904474Y-64897631D01*
X56925238Y-64959869D01*
X56957346Y-65056107D01*
X57048884Y-65204031D01*
X57054066Y-65209204D01*
X57134783Y-65289780D01*
X57168862Y-65352062D01*
X57163859Y-65422882D01*
X57134938Y-65467971D01*
X57031261Y-65571829D01*
X57022249Y-65583240D01*
X56937184Y-65721243D01*
X56931037Y-65734424D01*
X56879862Y-65888710D01*
X56876995Y-65902086D01*
X56867328Y-65996438D01*
X56867000Y-66002855D01*
X56867000Y-66227885D01*
X56871475Y-66243124D01*
X56872865Y-66244329D01*
X56880548Y-66246000D01*
X58015500Y-66246000D01*
X58083621Y-66266002D01*
X58130114Y-66319658D01*
X58141500Y-66372000D01*
X58141500Y-66628000D01*
X58121498Y-66696121D01*
X58067842Y-66742614D01*
X58015500Y-66754000D01*
X56885116Y-66754000D01*
X56869877Y-66758475D01*
X56868672Y-66759865D01*
X56867001Y-66767548D01*
X56867001Y-66997095D01*
X56867338Y-67003614D01*
X56877257Y-67099206D01*
X56880149Y-67112600D01*
X56931588Y-67266784D01*
X56937761Y-67279962D01*
X57023064Y-67417809D01*
X57025855Y-67421330D01*
X57052494Y-67487140D01*
X57039324Y-67556904D01*
X57028304Y-67574083D01*
X57025695Y-67576697D01*
X57021857Y-67582924D01*
X57021855Y-67582926D01*
X56963228Y-67678037D01*
X56932885Y-67727262D01*
X56930280Y-67735116D01*
X56907045Y-67805167D01*
X56866614Y-67863527D01*
X56801050Y-67890764D01*
X56787452Y-67891500D01*
X54748144Y-67891500D01*
X54731698Y-67890422D01*
X54708188Y-67887327D01*
X54700000Y-67886249D01*
X54541149Y-67907162D01*
X54393124Y-67968476D01*
X54354232Y-67998319D01*
X54297937Y-68041515D01*
X54297921Y-68041529D01*
X54272566Y-68060984D01*
X54272563Y-68060987D01*
X54266013Y-68066013D01*
X54260983Y-68072568D01*
X54246548Y-68091379D01*
X54235681Y-68103770D01*
X50053766Y-72285685D01*
X50041375Y-72296552D01*
X50016013Y-72316013D01*
X49991526Y-72347925D01*
X49991523Y-72347928D01*
X49918476Y-72443124D01*
X49857162Y-72591149D01*
X49857162Y-72591150D01*
X49855414Y-72604426D01*
X49843877Y-72692061D01*
X49815155Y-72756988D01*
X49800618Y-72771569D01*
X49737548Y-72825246D01*
X49642740Y-72932597D01*
X49640285Y-72936334D01*
X49640283Y-72936337D01*
X49621777Y-72964510D01*
X49562774Y-73054334D01*
X49560869Y-73058391D01*
X49560867Y-73058395D01*
X49537085Y-73109049D01*
X49490028Y-73162211D01*
X49423030Y-73181500D01*
X47292978Y-73181500D01*
X47224857Y-73161498D01*
X47187186Y-73123940D01*
X47182490Y-73116680D01*
X47098882Y-72987442D01*
X47082822Y-72962617D01*
X47082820Y-72962614D01*
X47080014Y-72958277D01*
X47062572Y-72939108D01*
X46932798Y-72796488D01*
X46901746Y-72732642D01*
X46910141Y-72662143D01*
X46955317Y-72607375D01*
X46981761Y-72593706D01*
X47088297Y-72553767D01*
X47096705Y-72550615D01*
X47213261Y-72463261D01*
X47300615Y-72346705D01*
X47351745Y-72210316D01*
X47358500Y-72148134D01*
X47358500Y-71984500D01*
X47378502Y-71916379D01*
X47432158Y-71869886D01*
X47484500Y-71858500D01*
X48001864Y-71858500D01*
X48018307Y-71859578D01*
X48050000Y-71863750D01*
X48058189Y-71862672D01*
X48089874Y-71858501D01*
X48089884Y-71858500D01*
X48089885Y-71858500D01*
X48189457Y-71845391D01*
X48200664Y-71843916D01*
X48200666Y-71843915D01*
X48208851Y-71842838D01*
X48356876Y-71781524D01*
X48387093Y-71758338D01*
X48452072Y-71708477D01*
X48452075Y-71708474D01*
X48477434Y-71689015D01*
X48483987Y-71683987D01*
X48489816Y-71676391D01*
X48503452Y-71658621D01*
X48514319Y-71646230D01*
X56803031Y-63357518D01*
X56865343Y-63323492D01*
X56936158Y-63328557D01*
G37*
%TD.AperFunction*%
%TA.AperFunction,Conductor*%
G36*
X75222461Y-50928502D02*
G01*
X75243435Y-50945405D01*
X82278550Y-57980520D01*
X82284404Y-57986785D01*
X82322439Y-58030385D01*
X82328653Y-58034752D01*
X82374719Y-58067128D01*
X82380014Y-58071061D01*
X82430282Y-58110476D01*
X82437198Y-58113599D01*
X82439484Y-58114983D01*
X82454165Y-58123357D01*
X82456525Y-58124622D01*
X82462739Y-58128990D01*
X82469818Y-58131750D01*
X82469820Y-58131751D01*
X82522275Y-58152202D01*
X82528344Y-58154753D01*
X82586573Y-58181045D01*
X82594040Y-58182429D01*
X82596595Y-58183230D01*
X82612848Y-58187859D01*
X82615428Y-58188522D01*
X82622509Y-58191282D01*
X82630040Y-58192273D01*
X82630042Y-58192274D01*
X82659661Y-58196173D01*
X82685861Y-58199622D01*
X82692359Y-58200652D01*
X82755186Y-58212296D01*
X82762766Y-58211859D01*
X82762767Y-58211859D01*
X82817392Y-58208709D01*
X82824646Y-58208500D01*
X86011590Y-58208500D01*
X86079711Y-58228502D01*
X86119023Y-58268665D01*
X86159501Y-58334719D01*
X86311147Y-58509784D01*
X86489349Y-58657730D01*
X86689322Y-58774584D01*
X86694147Y-58776426D01*
X86694148Y-58776427D01*
X86768665Y-58804883D01*
X86905694Y-58857209D01*
X86910760Y-58858240D01*
X86910761Y-58858240D01*
X86918085Y-58859730D01*
X87132656Y-58903385D01*
X87198798Y-58905810D01*
X87266139Y-58928294D01*
X87310634Y-58983617D01*
X87318157Y-59054214D01*
X87283275Y-59120820D01*
X86449500Y-59954595D01*
X86387188Y-59988621D01*
X86360405Y-59991500D01*
X75044542Y-59991500D01*
X74976421Y-59971498D01*
X74929928Y-59917842D01*
X74922784Y-59896322D01*
X74922526Y-59893834D01*
X74866550Y-59726054D01*
X74773478Y-59575652D01*
X74648303Y-59450695D01*
X74586069Y-59412333D01*
X74503968Y-59361725D01*
X74503966Y-59361724D01*
X74497738Y-59357885D01*
X74417995Y-59331436D01*
X74336389Y-59304368D01*
X74336387Y-59304368D01*
X74329861Y-59302203D01*
X74323025Y-59301503D01*
X74323022Y-59301502D01*
X74279969Y-59297091D01*
X74225400Y-59291500D01*
X73599600Y-59291500D01*
X73596354Y-59291837D01*
X73596350Y-59291837D01*
X73500692Y-59301762D01*
X73500688Y-59301763D01*
X73493834Y-59302474D01*
X73487298Y-59304655D01*
X73487296Y-59304655D01*
X73367190Y-59344726D01*
X73326054Y-59358450D01*
X73175652Y-59451522D01*
X73170479Y-59456704D01*
X73089216Y-59538109D01*
X73026934Y-59572188D01*
X72956114Y-59567185D01*
X72911025Y-59538264D01*
X72828483Y-59455866D01*
X72823303Y-59450695D01*
X72761069Y-59412333D01*
X72678968Y-59361725D01*
X72678966Y-59361724D01*
X72672738Y-59357885D01*
X72592995Y-59331436D01*
X72511389Y-59304368D01*
X72511387Y-59304368D01*
X72504861Y-59302203D01*
X72498025Y-59301503D01*
X72498022Y-59301502D01*
X72454969Y-59297091D01*
X72400400Y-59291500D01*
X71774600Y-59291500D01*
X71771354Y-59291837D01*
X71771350Y-59291837D01*
X71675692Y-59301762D01*
X71675688Y-59301763D01*
X71668834Y-59302474D01*
X71662298Y-59304655D01*
X71662296Y-59304655D01*
X71542190Y-59344726D01*
X71501054Y-59358450D01*
X71350652Y-59451522D01*
X71225695Y-59576697D01*
X71221855Y-59582927D01*
X71221854Y-59582928D01*
X71162809Y-59678717D01*
X71132885Y-59727262D01*
X71077203Y-59895139D01*
X71066500Y-59999600D01*
X71066500Y-61000400D01*
X71066837Y-61003646D01*
X71066837Y-61003650D01*
X71076752Y-61099206D01*
X71077474Y-61106166D01*
X71079655Y-61112702D01*
X71079655Y-61112704D01*
X71107331Y-61195659D01*
X71133450Y-61273946D01*
X71226522Y-61424348D01*
X71226638Y-61424464D01*
X71252173Y-61487543D01*
X71239004Y-61557308D01*
X71228136Y-61574251D01*
X71225695Y-61576697D01*
X71221855Y-61582927D01*
X71137260Y-61720165D01*
X71132885Y-61727262D01*
X71121340Y-61762069D01*
X71080152Y-61886249D01*
X71077203Y-61895139D01*
X71076503Y-61901975D01*
X71076502Y-61901978D01*
X71075971Y-61907162D01*
X71066500Y-61999600D01*
X71066500Y-62572905D01*
X71046498Y-62641026D01*
X71029595Y-62662000D01*
X70007747Y-63683848D01*
X69999461Y-63691388D01*
X69992982Y-63695500D01*
X69987557Y-63701277D01*
X69946357Y-63745151D01*
X69943602Y-63747993D01*
X69923865Y-63767730D01*
X69921385Y-63770927D01*
X69913682Y-63779947D01*
X69883414Y-63812179D01*
X69879595Y-63819125D01*
X69879593Y-63819128D01*
X69873652Y-63829934D01*
X69862801Y-63846453D01*
X69850386Y-63862459D01*
X69847241Y-63869728D01*
X69847238Y-63869732D01*
X69832826Y-63903037D01*
X69827609Y-63913687D01*
X69806305Y-63952440D01*
X69804334Y-63960115D01*
X69804334Y-63960116D01*
X69801267Y-63972062D01*
X69794863Y-63990766D01*
X69786819Y-64009355D01*
X69785580Y-64017178D01*
X69785577Y-64017188D01*
X69779901Y-64053024D01*
X69777495Y-64064644D01*
X69766500Y-64107470D01*
X69766500Y-64127724D01*
X69764949Y-64147434D01*
X69761780Y-64167443D01*
X69762526Y-64175335D01*
X69765941Y-64211461D01*
X69766500Y-64223319D01*
X69766500Y-65340257D01*
X69746498Y-65408378D01*
X69692842Y-65454871D01*
X69622568Y-65464975D01*
X69557988Y-65435481D01*
X69529248Y-65399410D01*
X69446958Y-65244644D01*
X69444065Y-65239203D01*
X69373708Y-65152937D01*
X69322959Y-65090712D01*
X69322956Y-65090709D01*
X69319064Y-65085937D01*
X69312723Y-65080691D01*
X69171424Y-64963798D01*
X69171420Y-64963796D01*
X69166674Y-64959869D01*
X68992700Y-64865801D01*
X68803767Y-64807317D01*
X68797642Y-64806673D01*
X68797641Y-64806673D01*
X68613203Y-64787288D01*
X68613201Y-64787288D01*
X68607074Y-64786644D01*
X68524575Y-64794152D01*
X68416250Y-64804010D01*
X68416247Y-64804011D01*
X68410111Y-64804569D01*
X68404205Y-64806307D01*
X68404201Y-64806308D01*
X68299075Y-64837248D01*
X68220380Y-64860409D01*
X68214922Y-64863262D01*
X68214918Y-64863264D01*
X68174805Y-64884235D01*
X68045109Y-64952039D01*
X67890974Y-65075967D01*
X67763845Y-65227473D01*
X67760878Y-65232871D01*
X67760874Y-65232876D01*
X67709169Y-65326929D01*
X67668566Y-65400786D01*
X67666705Y-65406653D01*
X67666704Y-65406655D01*
X67642327Y-65483500D01*
X67608764Y-65589305D01*
X67586718Y-65785850D01*
X67587234Y-65791994D01*
X67600590Y-65951047D01*
X67603267Y-65982933D01*
X67626061Y-66062425D01*
X67643242Y-66122343D01*
X67642791Y-66193338D01*
X67622949Y-66232638D01*
X67554771Y-66323608D01*
X67549385Y-66330795D01*
X67498255Y-66467184D01*
X67491500Y-66529366D01*
X67491500Y-66753062D01*
X67471498Y-66821183D01*
X67439563Y-66854997D01*
X67406614Y-66878936D01*
X67396701Y-66885447D01*
X67365460Y-66903922D01*
X67365455Y-66903926D01*
X67358637Y-66907958D01*
X67344313Y-66922282D01*
X67329281Y-66935121D01*
X67312893Y-66947028D01*
X67284712Y-66981093D01*
X67276722Y-66989873D01*
X66807747Y-67458848D01*
X66799461Y-67466388D01*
X66792982Y-67470500D01*
X66787557Y-67476277D01*
X66746357Y-67520151D01*
X66743602Y-67522993D01*
X66723865Y-67542730D01*
X66721385Y-67545927D01*
X66713682Y-67554947D01*
X66683414Y-67587179D01*
X66679595Y-67594125D01*
X66679593Y-67594128D01*
X66673652Y-67604934D01*
X66662801Y-67621453D01*
X66650386Y-67637459D01*
X66647241Y-67644728D01*
X66647238Y-67644732D01*
X66632826Y-67678037D01*
X66627609Y-67688687D01*
X66606305Y-67727440D01*
X66604334Y-67735115D01*
X66604334Y-67735116D01*
X66601267Y-67747062D01*
X66594863Y-67765766D01*
X66586819Y-67784355D01*
X66585580Y-67792178D01*
X66585577Y-67792188D01*
X66579901Y-67828024D01*
X66577495Y-67839644D01*
X66570998Y-67864949D01*
X66566500Y-67882470D01*
X66566500Y-67902724D01*
X66564949Y-67922434D01*
X66561780Y-67942443D01*
X66562526Y-67950335D01*
X66565941Y-67986461D01*
X66566500Y-67998319D01*
X66566500Y-70085405D01*
X66546498Y-70153526D01*
X66529595Y-70174500D01*
X66325318Y-70378777D01*
X66263006Y-70412803D01*
X66192191Y-70407738D01*
X66135355Y-70365191D01*
X66110544Y-70298671D01*
X66110472Y-70281769D01*
X66110912Y-70274781D01*
X66112296Y-70267313D01*
X66108709Y-70205102D01*
X66108500Y-70197849D01*
X66108500Y-52287538D01*
X66128502Y-52219417D01*
X66182158Y-52172924D01*
X66194624Y-52168014D01*
X66255653Y-52147653D01*
X66273946Y-52141550D01*
X66424348Y-52048478D01*
X66549305Y-51923303D01*
X66562726Y-51901531D01*
X66638275Y-51778968D01*
X66638276Y-51778966D01*
X66642115Y-51772738D01*
X66697797Y-51604861D01*
X66708500Y-51500400D01*
X66708500Y-51034500D01*
X66728502Y-50966379D01*
X66782158Y-50919886D01*
X66834500Y-50908500D01*
X75154340Y-50908500D01*
X75222461Y-50928502D01*
G37*
%TD.AperFunction*%
%TD*%
M02*
