%TF.GenerationSoftware,KiCad,Pcbnew,(6.0.11)*%
%TF.CreationDate,2023-03-02T10:52:13+00:00*%
%TF.ProjectId,Quilter_Panel,5175696c-7465-4725-9f50-616e656c2e6b,rev?*%
%TF.SameCoordinates,Original*%
%TF.FileFunction,Legend,Bot*%
%TF.FilePolarity,Positive*%
%FSLAX46Y46*%
G04 Gerber Fmt 4.6, Leading zero omitted, Abs format (unit mm)*
G04 Created by KiCad (PCBNEW (6.0.11)) date 2023-03-02 10:52:13*
%MOMM*%
%LPD*%
G01*
G04 APERTURE LIST*
%ADD10C,0.300000*%
%ADD11C,0.150000*%
G04 APERTURE END LIST*
D10*
X79335714Y-45913928D02*
X79478571Y-45842500D01*
X79621428Y-45699642D01*
X79835714Y-45485357D01*
X79978571Y-45413928D01*
X80121428Y-45413928D01*
X80050000Y-45771071D02*
X80192857Y-45699642D01*
X80335714Y-45556785D01*
X80407142Y-45271071D01*
X80407142Y-44771071D01*
X80335714Y-44485357D01*
X80192857Y-44342500D01*
X80050000Y-44271071D01*
X79764285Y-44271071D01*
X79621428Y-44342500D01*
X79478571Y-44485357D01*
X79407142Y-44771071D01*
X79407142Y-45271071D01*
X79478571Y-45556785D01*
X79621428Y-45699642D01*
X79764285Y-45771071D01*
X80050000Y-45771071D01*
X78121428Y-44771071D02*
X78121428Y-45771071D01*
X78764285Y-44771071D02*
X78764285Y-45556785D01*
X78692857Y-45699642D01*
X78550000Y-45771071D01*
X78335714Y-45771071D01*
X78192857Y-45699642D01*
X78121428Y-45628214D01*
X77407142Y-45771071D02*
X77407142Y-44771071D01*
X77407142Y-44271071D02*
X77478571Y-44342500D01*
X77407142Y-44413928D01*
X77335714Y-44342500D01*
X77407142Y-44271071D01*
X77407142Y-44413928D01*
X76478571Y-45771071D02*
X76621428Y-45699642D01*
X76692857Y-45556785D01*
X76692857Y-44271071D01*
X76121428Y-44771071D02*
X75550000Y-44771071D01*
X75907142Y-44271071D02*
X75907142Y-45556785D01*
X75835714Y-45699642D01*
X75692857Y-45771071D01*
X75550000Y-45771071D01*
X74478571Y-45699642D02*
X74621428Y-45771071D01*
X74907142Y-45771071D01*
X75050000Y-45699642D01*
X75121428Y-45556785D01*
X75121428Y-44985357D01*
X75050000Y-44842500D01*
X74907142Y-44771071D01*
X74621428Y-44771071D01*
X74478571Y-44842500D01*
X74407142Y-44985357D01*
X74407142Y-45128214D01*
X75121428Y-45271071D01*
X73764285Y-45771071D02*
X73764285Y-44771071D01*
X73764285Y-45056785D02*
X73692857Y-44913928D01*
X73621428Y-44842500D01*
X73478571Y-44771071D01*
X73335714Y-44771071D01*
X71692857Y-45771071D02*
X71692857Y-44271071D01*
X71121428Y-44271071D01*
X70978571Y-44342500D01*
X70907142Y-44413928D01*
X70835714Y-44556785D01*
X70835714Y-44771071D01*
X70907142Y-44913928D01*
X70978571Y-44985357D01*
X71121428Y-45056785D01*
X71692857Y-45056785D01*
X69550000Y-45771071D02*
X69550000Y-44985357D01*
X69621428Y-44842500D01*
X69764285Y-44771071D01*
X70050000Y-44771071D01*
X70192857Y-44842500D01*
X69550000Y-45699642D02*
X69692857Y-45771071D01*
X70050000Y-45771071D01*
X70192857Y-45699642D01*
X70264285Y-45556785D01*
X70264285Y-45413928D01*
X70192857Y-45271071D01*
X70050000Y-45199642D01*
X69692857Y-45199642D01*
X69550000Y-45128214D01*
X68835714Y-44771071D02*
X68835714Y-45771071D01*
X68835714Y-44913928D02*
X68764285Y-44842500D01*
X68621428Y-44771071D01*
X68407142Y-44771071D01*
X68264285Y-44842500D01*
X68192857Y-44985357D01*
X68192857Y-45771071D01*
X66907142Y-45699642D02*
X67050000Y-45771071D01*
X67335714Y-45771071D01*
X67478571Y-45699642D01*
X67550000Y-45556785D01*
X67550000Y-44985357D01*
X67478571Y-44842500D01*
X67335714Y-44771071D01*
X67050000Y-44771071D01*
X66907142Y-44842500D01*
X66835714Y-44985357D01*
X66835714Y-45128214D01*
X67550000Y-45271071D01*
X65978571Y-45771071D02*
X66121428Y-45699642D01*
X66192857Y-45556785D01*
X66192857Y-44271071D01*
X64407142Y-44771071D02*
X64050000Y-45771071D01*
X63692857Y-44771071D01*
X62335714Y-45771071D02*
X63192857Y-45771071D01*
X62764285Y-45771071D02*
X62764285Y-44271071D01*
X62907142Y-44485357D01*
X63050000Y-44628214D01*
X63192857Y-44699642D01*
X61692857Y-45628214D02*
X61621428Y-45699642D01*
X61692857Y-45771071D01*
X61764285Y-45699642D01*
X61692857Y-45628214D01*
X61692857Y-45771071D01*
X60692857Y-44271071D02*
X60550000Y-44271071D01*
X60407142Y-44342500D01*
X60335714Y-44413928D01*
X60264285Y-44556785D01*
X60192857Y-44842500D01*
X60192857Y-45199642D01*
X60264285Y-45485357D01*
X60335714Y-45628214D01*
X60407142Y-45699642D01*
X60550000Y-45771071D01*
X60692857Y-45771071D01*
X60835714Y-45699642D01*
X60907142Y-45628214D01*
X60978571Y-45485357D01*
X61050000Y-45199642D01*
X61050000Y-44842500D01*
X60978571Y-44556785D01*
X60907142Y-44413928D01*
X60835714Y-44342500D01*
X60692857Y-44271071D01*
X79871428Y-48186071D02*
X79871428Y-46686071D01*
X79371428Y-47757500D01*
X78871428Y-46686071D01*
X78871428Y-48186071D01*
X77942857Y-48186071D02*
X78085714Y-48114642D01*
X78157142Y-48043214D01*
X78228571Y-47900357D01*
X78228571Y-47471785D01*
X78157142Y-47328928D01*
X78085714Y-47257500D01*
X77942857Y-47186071D01*
X77728571Y-47186071D01*
X77585714Y-47257500D01*
X77514285Y-47328928D01*
X77442857Y-47471785D01*
X77442857Y-47900357D01*
X77514285Y-48043214D01*
X77585714Y-48114642D01*
X77728571Y-48186071D01*
X77942857Y-48186071D01*
X76157142Y-47186071D02*
X76157142Y-48186071D01*
X76800000Y-47186071D02*
X76800000Y-47971785D01*
X76728571Y-48114642D01*
X76585714Y-48186071D01*
X76371428Y-48186071D01*
X76228571Y-48114642D01*
X76157142Y-48043214D01*
X75442857Y-47186071D02*
X75442857Y-48186071D01*
X75442857Y-47328928D02*
X75371428Y-47257500D01*
X75228571Y-47186071D01*
X75014285Y-47186071D01*
X74871428Y-47257500D01*
X74800000Y-47400357D01*
X74800000Y-48186071D01*
X74300000Y-47186071D02*
X73728571Y-47186071D01*
X74085714Y-46686071D02*
X74085714Y-47971785D01*
X74014285Y-48114642D01*
X73871428Y-48186071D01*
X73728571Y-48186071D01*
X73228571Y-47186071D02*
X73228571Y-48471785D01*
X73300000Y-48614642D01*
X73442857Y-48686071D01*
X73514285Y-48686071D01*
X73228571Y-46686071D02*
X73300000Y-46757500D01*
X73228571Y-46828928D01*
X73157142Y-46757500D01*
X73228571Y-46686071D01*
X73228571Y-46828928D01*
X72300000Y-48186071D02*
X72442857Y-48114642D01*
X72514285Y-48043214D01*
X72585714Y-47900357D01*
X72585714Y-47471785D01*
X72514285Y-47328928D01*
X72442857Y-47257500D01*
X72300000Y-47186071D01*
X72085714Y-47186071D01*
X71942857Y-47257500D01*
X71871428Y-47328928D01*
X71800000Y-47471785D01*
X71800000Y-47900357D01*
X71871428Y-48043214D01*
X71942857Y-48114642D01*
X72085714Y-48186071D01*
X72300000Y-48186071D01*
X71300000Y-47186071D02*
X70942857Y-48186071D01*
X70585714Y-47186071D02*
X70942857Y-48186071D01*
X71085714Y-48543214D01*
X71157142Y-48614642D01*
X71300000Y-48686071D01*
X68871428Y-48186071D02*
X68871428Y-46686071D01*
X68371428Y-47757500D01*
X67871428Y-46686071D01*
X67871428Y-48186071D01*
X66942857Y-48186071D02*
X67085714Y-48114642D01*
X67157142Y-48043214D01*
X67228571Y-47900357D01*
X67228571Y-47471785D01*
X67157142Y-47328928D01*
X67085714Y-47257500D01*
X66942857Y-47186071D01*
X66728571Y-47186071D01*
X66585714Y-47257500D01*
X66514285Y-47328928D01*
X66442857Y-47471785D01*
X66442857Y-47900357D01*
X66514285Y-48043214D01*
X66585714Y-48114642D01*
X66728571Y-48186071D01*
X66942857Y-48186071D01*
X65157142Y-48186071D02*
X65157142Y-46686071D01*
X65157142Y-48114642D02*
X65300000Y-48186071D01*
X65585714Y-48186071D01*
X65728571Y-48114642D01*
X65800000Y-48043214D01*
X65871428Y-47900357D01*
X65871428Y-47471785D01*
X65800000Y-47328928D01*
X65728571Y-47257500D01*
X65585714Y-47186071D01*
X65300000Y-47186071D01*
X65157142Y-47257500D01*
X63800000Y-47186071D02*
X63800000Y-48186071D01*
X64442857Y-47186071D02*
X64442857Y-47971785D01*
X64371428Y-48114642D01*
X64228571Y-48186071D01*
X64014285Y-48186071D01*
X63871428Y-48114642D01*
X63800000Y-48043214D01*
X62871428Y-48186071D02*
X63014285Y-48114642D01*
X63085714Y-47971785D01*
X63085714Y-46686071D01*
X61657142Y-48186071D02*
X61657142Y-47400357D01*
X61728571Y-47257500D01*
X61871428Y-47186071D01*
X62157142Y-47186071D01*
X62300000Y-47257500D01*
X61657142Y-48114642D02*
X61800000Y-48186071D01*
X62157142Y-48186071D01*
X62300000Y-48114642D01*
X62371428Y-47971785D01*
X62371428Y-47828928D01*
X62300000Y-47686071D01*
X62157142Y-47614642D01*
X61800000Y-47614642D01*
X61657142Y-47543214D01*
X60942857Y-48186071D02*
X60942857Y-47186071D01*
X60942857Y-47471785D02*
X60871428Y-47328928D01*
X60800000Y-47257500D01*
X60657142Y-47186071D01*
X60514285Y-47186071D01*
D11*
X74819047Y-152452380D02*
X74819047Y-153166666D01*
X74866666Y-153309523D01*
X74961904Y-153404761D01*
X75104761Y-153452380D01*
X75200000Y-153452380D01*
X73866666Y-153452380D02*
X74342857Y-153452380D01*
X74342857Y-152452380D01*
X72961904Y-153357142D02*
X73009523Y-153404761D01*
X73152380Y-153452380D01*
X73247619Y-153452380D01*
X73390476Y-153404761D01*
X73485714Y-153309523D01*
X73533333Y-153214285D01*
X73580952Y-153023809D01*
X73580952Y-152880952D01*
X73533333Y-152690476D01*
X73485714Y-152595238D01*
X73390476Y-152500000D01*
X73247619Y-152452380D01*
X73152380Y-152452380D01*
X73009523Y-152500000D01*
X72961904Y-152547619D01*
X72247619Y-152452380D02*
X72247619Y-153166666D01*
X72295238Y-153309523D01*
X72390476Y-153404761D01*
X72533333Y-153452380D01*
X72628571Y-153452380D01*
X71295238Y-153452380D02*
X71771428Y-153452380D01*
X71771428Y-152452380D01*
X70390476Y-153357142D02*
X70438095Y-153404761D01*
X70580952Y-153452380D01*
X70676190Y-153452380D01*
X70819047Y-153404761D01*
X70914285Y-153309523D01*
X70961904Y-153214285D01*
X71009523Y-153023809D01*
X71009523Y-152880952D01*
X70961904Y-152690476D01*
X70914285Y-152595238D01*
X70819047Y-152500000D01*
X70676190Y-152452380D01*
X70580952Y-152452380D01*
X70438095Y-152500000D01*
X70390476Y-152547619D01*
X69676190Y-152452380D02*
X69676190Y-153166666D01*
X69723809Y-153309523D01*
X69819047Y-153404761D01*
X69961904Y-153452380D01*
X70057142Y-153452380D01*
X68723809Y-153452380D02*
X69200000Y-153452380D01*
X69200000Y-152452380D01*
X67819047Y-153357142D02*
X67866666Y-153404761D01*
X68009523Y-153452380D01*
X68104761Y-153452380D01*
X68247619Y-153404761D01*
X68342857Y-153309523D01*
X68390476Y-153214285D01*
X68438095Y-153023809D01*
X68438095Y-152880952D01*
X68390476Y-152690476D01*
X68342857Y-152595238D01*
X68247619Y-152500000D01*
X68104761Y-152452380D01*
X68009523Y-152452380D01*
X67866666Y-152500000D01*
X67819047Y-152547619D01*
X67104761Y-152452380D02*
X67104761Y-153166666D01*
X67152380Y-153309523D01*
X67247619Y-153404761D01*
X67390476Y-153452380D01*
X67485714Y-153452380D01*
X66152380Y-153452380D02*
X66628571Y-153452380D01*
X66628571Y-152452380D01*
X65247619Y-153357142D02*
X65295238Y-153404761D01*
X65438095Y-153452380D01*
X65533333Y-153452380D01*
X65676190Y-153404761D01*
X65771428Y-153309523D01*
X65819047Y-153214285D01*
X65866666Y-153023809D01*
X65866666Y-152880952D01*
X65819047Y-152690476D01*
X65771428Y-152595238D01*
X65676190Y-152500000D01*
X65533333Y-152452380D01*
X65438095Y-152452380D01*
X65295238Y-152500000D01*
X65247619Y-152547619D01*
M02*
