%TF.GenerationSoftware,KiCad,Pcbnew,(6.0.11)*%
%TF.CreationDate,2023-03-01T17:36:46+00:00*%
%TF.ProjectId,Quilter_Panel,5175696c-7465-4725-9f50-616e656c2e6b,rev?*%
%TF.SameCoordinates,Original*%
%TF.FileFunction,Profile,NP*%
%FSLAX46Y46*%
G04 Gerber Fmt 4.6, Leading zero omitted, Abs format (unit mm)*
G04 Created by KiCad (PCBNEW (6.0.11)) date 2023-03-01 17:36:46*
%MOMM*%
%LPD*%
G01*
G04 APERTURE LIST*
%TA.AperFunction,Profile*%
%ADD10C,0.050000*%
%TD*%
%TA.AperFunction,Profile*%
%ADD11C,0.120000*%
%TD*%
G04 APERTURE END LIST*
D10*
X50000000Y-31200000D02*
X90400000Y-31200000D01*
X90400000Y-31200000D02*
X90400000Y-159700000D01*
X90400000Y-159700000D02*
X50000000Y-159700000D01*
X50000000Y-159700000D02*
X50000000Y-31200000D01*
D11*
%TO.C,Output*%
X87880000Y-132420000D02*
X72120000Y-132420000D01*
X88190000Y-116080000D02*
X88190000Y-132120000D01*
X87880000Y-115780000D02*
X72120000Y-115780000D01*
X71840000Y-116080000D02*
X71840000Y-132120000D01*
X87880001Y-132419990D02*
G75*
G03*
X88190000Y-132120000I17299J292290D01*
G01*
X88190039Y-116079999D02*
G75*
G03*
X87880000Y-115780000I-306839J-6901D01*
G01*
X71839999Y-132120000D02*
G75*
G03*
X72120000Y-132420000I291316J-8772D01*
G01*
X72120000Y-115779999D02*
G75*
G03*
X71840000Y-116080000I12375J-292217D01*
G01*
%TO.C,PWM_In*%
X88190000Y-95880000D02*
X88190000Y-111920000D01*
X71840000Y-95880000D02*
X71840000Y-111920000D01*
X87880000Y-112220000D02*
X72120000Y-112220000D01*
X87880000Y-95580000D02*
X72120000Y-95580000D01*
X71839999Y-111920000D02*
G75*
G03*
X72120000Y-112220000I291316J-8772D01*
G01*
X72120000Y-95579999D02*
G75*
G03*
X71840000Y-95880000I12375J-292217D01*
G01*
X87880001Y-112219990D02*
G75*
G03*
X88190000Y-111920000I17299J292290D01*
G01*
X88190039Y-95879999D02*
G75*
G03*
X87880000Y-95580000I-306839J-6901D01*
G01*
%TO.C,FM_In*%
X52240000Y-95880000D02*
X52240000Y-111920000D01*
X68280000Y-112220000D02*
X52520000Y-112220000D01*
X68590000Y-95880000D02*
X68590000Y-111920000D01*
X68280000Y-95580000D02*
X52520000Y-95580000D01*
X52239999Y-111920000D02*
G75*
G03*
X52520000Y-112220000I291316J-8772D01*
G01*
X68590039Y-95879999D02*
G75*
G03*
X68280000Y-95580000I-306839J-6901D01*
G01*
X52520000Y-95579999D02*
G75*
G03*
X52240000Y-95880000I12375J-292217D01*
G01*
X68280001Y-112219990D02*
G75*
G03*
X68590000Y-111920000I17299J292290D01*
G01*
%TO.C,V_per_Oct_In*%
X52520000Y-115779999D02*
G75*
G03*
X52240000Y-116080000I12375J-292217D01*
G01*
X68280001Y-132419990D02*
G75*
G03*
X68590000Y-132120000I17299J292290D01*
G01*
X68590039Y-116079999D02*
G75*
G03*
X68280000Y-115780000I-306839J-6901D01*
G01*
X52239999Y-132120000D02*
G75*
G03*
X52520000Y-132420000I291316J-8772D01*
G01*
X52240000Y-116080000D02*
X52240000Y-132120000D01*
X68280000Y-132420000D02*
X52520000Y-132420000D01*
X68590000Y-116080000D02*
X68590000Y-132120000D01*
X68280000Y-115780000D02*
X52520000Y-115780000D01*
%TD*%
M02*
