%TF.GenerationSoftware,KiCad,Pcbnew,(6.0.11)*%
%TF.CreationDate,2023-03-01T17:36:46+00:00*%
%TF.ProjectId,Quilter_Panel,5175696c-7465-4725-9f50-616e656c2e6b,rev?*%
%TF.SameCoordinates,Original*%
%TF.FileFunction,Soldermask,Top*%
%TF.FilePolarity,Negative*%
%FSLAX46Y46*%
G04 Gerber Fmt 4.6, Leading zero omitted, Abs format (unit mm)*
G04 Created by KiCad (PCBNEW (6.0.11)) date 2023-03-01 17:36:46*
%MOMM*%
%LPD*%
G01*
G04 APERTURE LIST*
%ADD10C,0.200000*%
%ADD11C,0.400000*%
%ADD12C,7.000000*%
%ADD13O,5.000000X3.200000*%
%ADD14C,6.000000*%
G04 APERTURE END LIST*
D10*
G36*
X81699926Y-132490077D02*
G01*
X81694808Y-146320740D01*
X78294742Y-146316413D01*
X78299860Y-132489942D01*
X81699926Y-132490077D01*
G37*
X81699926Y-132490077D02*
X81694808Y-146320740D01*
X78294742Y-146316413D01*
X78299860Y-132489942D01*
X81699926Y-132490077D01*
G36*
X66475178Y-66281344D02*
G01*
X61075913Y-71679148D01*
X58671919Y-69274844D01*
X64074147Y-63874076D01*
X66475178Y-66281344D01*
G37*
X66475178Y-66281344D02*
X61075913Y-71679148D01*
X58671919Y-69274844D01*
X64074147Y-63874076D01*
X66475178Y-66281344D01*
G36*
X81700000Y-93850000D02*
G01*
X80000000Y-95150000D01*
X78300000Y-93850000D01*
X78300000Y-87300000D01*
X81700000Y-87300000D01*
X81700000Y-93850000D01*
G37*
X81700000Y-93850000D02*
X80000000Y-95150000D01*
X78300000Y-93850000D01*
X78300000Y-87300000D01*
X81700000Y-87300000D01*
X81700000Y-93850000D01*
G36*
X66500000Y-62895837D02*
G01*
X66500001Y-66195838D01*
X63099999Y-66195838D01*
X63100000Y-62895837D01*
X64800000Y-61595838D01*
X66500000Y-62895837D01*
G37*
X66500000Y-62895837D02*
X66500001Y-66195838D01*
X63099999Y-66195838D01*
X63100000Y-62895837D01*
X64800000Y-61595838D01*
X66500000Y-62895837D01*
G36*
X62100000Y-112321705D02*
G01*
X62100001Y-115621705D01*
X58699998Y-115621705D01*
X58700000Y-112321705D01*
X60400000Y-111021705D01*
X62100000Y-112321705D01*
G37*
X62100000Y-112321705D02*
X62100001Y-115621705D01*
X58699998Y-115621705D01*
X58700000Y-112321705D01*
X60400000Y-111021705D01*
X62100000Y-112321705D01*
G36*
X62100000Y-134064847D02*
G01*
X62100000Y-138364847D01*
X58700000Y-138364847D01*
X58700000Y-134064847D01*
X60400000Y-132764847D01*
X62100000Y-134064847D01*
G37*
X62100000Y-134064847D02*
X62100000Y-138364847D01*
X58700000Y-138364847D01*
X58700000Y-134064847D01*
X60400000Y-132764847D01*
X62100000Y-134064847D01*
G36*
X62127830Y-69295341D02*
G01*
X62129163Y-73743487D01*
X58670534Y-73743252D01*
X58669201Y-69290916D01*
X62127830Y-69295341D01*
G37*
X62127830Y-69295341D02*
X62129163Y-73743487D01*
X58670534Y-73743252D01*
X58669201Y-69290916D01*
X62127830Y-69295341D01*
G36*
X62100000Y-137600112D02*
G01*
X62097642Y-146251401D01*
X58697642Y-146246985D01*
X58700000Y-137599888D01*
X62100000Y-137600112D01*
G37*
X62100000Y-137600112D02*
X62097642Y-146251401D01*
X58697642Y-146246985D01*
X58700000Y-137599888D01*
X62100000Y-137600112D01*
D11*
X52238095Y-157004761D02*
X52238095Y-155004761D01*
X52904761Y-156433333D01*
X53571428Y-155004761D01*
X53571428Y-157004761D01*
X54809523Y-157004761D02*
X54619047Y-156909523D01*
X54523809Y-156814285D01*
X54428571Y-156623809D01*
X54428571Y-156052380D01*
X54523809Y-155861904D01*
X54619047Y-155766666D01*
X54809523Y-155671428D01*
X55095238Y-155671428D01*
X55285714Y-155766666D01*
X55380952Y-155861904D01*
X55476190Y-156052380D01*
X55476190Y-156623809D01*
X55380952Y-156814285D01*
X55285714Y-156909523D01*
X55095238Y-157004761D01*
X54809523Y-157004761D01*
X57190476Y-155671428D02*
X57190476Y-157004761D01*
X56333333Y-155671428D02*
X56333333Y-156719047D01*
X56428571Y-156909523D01*
X56619047Y-157004761D01*
X56904761Y-157004761D01*
X57095238Y-156909523D01*
X57190476Y-156814285D01*
X58142857Y-155671428D02*
X58142857Y-157004761D01*
X58142857Y-155861904D02*
X58238095Y-155766666D01*
X58428571Y-155671428D01*
X58714285Y-155671428D01*
X58904761Y-155766666D01*
X59000000Y-155957142D01*
X59000000Y-157004761D01*
X59666666Y-155671428D02*
X60428571Y-155671428D01*
X59952380Y-155004761D02*
X59952380Y-156719047D01*
X60047619Y-156909523D01*
X60238095Y-157004761D01*
X60428571Y-157004761D01*
X61095238Y-155671428D02*
X61095238Y-157385714D01*
X61000000Y-157576190D01*
X60809523Y-157671428D01*
X60714285Y-157671428D01*
X61095238Y-155004761D02*
X61000000Y-155100000D01*
X61095238Y-155195238D01*
X61190476Y-155100000D01*
X61095238Y-155004761D01*
X61095238Y-155195238D01*
X62333333Y-157004761D02*
X62142857Y-156909523D01*
X62047619Y-156814285D01*
X61952380Y-156623809D01*
X61952380Y-156052380D01*
X62047619Y-155861904D01*
X62142857Y-155766666D01*
X62333333Y-155671428D01*
X62619047Y-155671428D01*
X62809523Y-155766666D01*
X62904761Y-155861904D01*
X63000000Y-156052380D01*
X63000000Y-156623809D01*
X62904761Y-156814285D01*
X62809523Y-156909523D01*
X62619047Y-157004761D01*
X62333333Y-157004761D01*
X63666666Y-155671428D02*
X64142857Y-157004761D01*
X64619047Y-155671428D02*
X64142857Y-157004761D01*
X63952380Y-157480952D01*
X63857142Y-157576190D01*
X63666666Y-157671428D01*
X66904761Y-157004761D02*
X66904761Y-155004761D01*
X67571428Y-156433333D01*
X68238095Y-155004761D01*
X68238095Y-157004761D01*
X69476190Y-157004761D02*
X69285714Y-156909523D01*
X69190476Y-156814285D01*
X69095238Y-156623809D01*
X69095238Y-156052380D01*
X69190476Y-155861904D01*
X69285714Y-155766666D01*
X69476190Y-155671428D01*
X69761904Y-155671428D01*
X69952380Y-155766666D01*
X70047619Y-155861904D01*
X70142857Y-156052380D01*
X70142857Y-156623809D01*
X70047619Y-156814285D01*
X69952380Y-156909523D01*
X69761904Y-157004761D01*
X69476190Y-157004761D01*
X71857142Y-157004761D02*
X71857142Y-155004761D01*
X71857142Y-156909523D02*
X71666666Y-157004761D01*
X71285714Y-157004761D01*
X71095238Y-156909523D01*
X71000000Y-156814285D01*
X70904761Y-156623809D01*
X70904761Y-156052380D01*
X71000000Y-155861904D01*
X71095238Y-155766666D01*
X71285714Y-155671428D01*
X71666666Y-155671428D01*
X71857142Y-155766666D01*
X73666666Y-155671428D02*
X73666666Y-157004761D01*
X72809523Y-155671428D02*
X72809523Y-156719047D01*
X72904761Y-156909523D01*
X73095238Y-157004761D01*
X73380952Y-157004761D01*
X73571428Y-156909523D01*
X73666666Y-156814285D01*
X74904761Y-157004761D02*
X74714285Y-156909523D01*
X74619047Y-156719047D01*
X74619047Y-155004761D01*
X76523809Y-157004761D02*
X76523809Y-155957142D01*
X76428571Y-155766666D01*
X76238095Y-155671428D01*
X75857142Y-155671428D01*
X75666666Y-155766666D01*
X76523809Y-156909523D02*
X76333333Y-157004761D01*
X75857142Y-157004761D01*
X75666666Y-156909523D01*
X75571428Y-156719047D01*
X75571428Y-156528571D01*
X75666666Y-156338095D01*
X75857142Y-156242857D01*
X76333333Y-156242857D01*
X76523809Y-156147619D01*
X77476190Y-157004761D02*
X77476190Y-155671428D01*
X77476190Y-156052380D02*
X77571428Y-155861904D01*
X77666666Y-155766666D01*
X77857142Y-155671428D01*
X78047619Y-155671428D01*
%TO.C,G\u002A\u002A\u002A*%
G36*
X72179778Y-32530985D02*
G01*
X72524342Y-32541528D01*
X72718791Y-32569349D01*
X72800956Y-32622835D01*
X72808668Y-32710370D01*
X72793150Y-32783334D01*
X72770764Y-32970866D01*
X72743793Y-33345358D01*
X72714381Y-33868092D01*
X72684671Y-34500349D01*
X72656806Y-35203412D01*
X72652541Y-35323334D01*
X72572592Y-37609334D01*
X70709111Y-37609334D01*
X70634108Y-35379778D01*
X70607903Y-34672623D01*
X70579400Y-34025383D01*
X70550745Y-33478648D01*
X70524082Y-33073005D01*
X70501554Y-32849046D01*
X70499916Y-32839778D01*
X70440727Y-32529334D01*
X71647268Y-32529334D01*
X72179778Y-32530985D01*
G37*
G36*
X84258152Y-33347778D02*
G01*
X84231501Y-33898345D01*
X84196454Y-34260868D01*
X84131778Y-34472717D01*
X84016239Y-34571259D01*
X83828604Y-34593864D01*
X83558761Y-34578661D01*
X83223003Y-34562909D01*
X83054569Y-34593030D01*
X82995908Y-34694693D01*
X82989333Y-34832661D01*
X83005634Y-35004896D01*
X83092698Y-35091798D01*
X83307768Y-35122367D01*
X83567889Y-35125778D01*
X84146444Y-35125778D01*
X84075889Y-35478556D01*
X84026274Y-35755343D01*
X84005336Y-35929184D01*
X84005333Y-35930111D01*
X83904407Y-35989027D01*
X83649061Y-36024362D01*
X83497333Y-36028889D01*
X83185039Y-36038423D01*
X83037136Y-36095125D01*
X82992291Y-36241145D01*
X82989333Y-36378004D01*
X82989333Y-36727118D01*
X83610203Y-36688448D01*
X84231072Y-36649778D01*
X84159820Y-37044889D01*
X84099441Y-37332071D01*
X84045638Y-37513853D01*
X84040288Y-37524667D01*
X83915533Y-37556495D01*
X83609153Y-37582860D01*
X83165278Y-37601263D01*
X82628044Y-37609200D01*
X82546549Y-37609334D01*
X81101089Y-37609334D01*
X81018434Y-35219816D01*
X80991189Y-34501367D01*
X80962143Y-33855008D01*
X80933264Y-33316382D01*
X80906524Y-32921129D01*
X80883893Y-32704892D01*
X80878034Y-32679816D01*
X80895476Y-32621006D01*
X81018464Y-32579067D01*
X81274624Y-32551524D01*
X81691585Y-32535901D01*
X82296974Y-32529723D01*
X82557612Y-32529334D01*
X84294936Y-32529334D01*
X84258152Y-33347778D01*
G37*
G36*
X84692664Y-34368770D02*
G01*
X84668874Y-33718933D01*
X84652174Y-33180821D01*
X84643527Y-32787209D01*
X84643894Y-32570875D01*
X84647478Y-32539727D01*
X84766568Y-32521299D01*
X85065877Y-32505415D01*
X85499850Y-32493799D01*
X86008125Y-32488232D01*
X86621768Y-32492245D01*
X87065971Y-32514812D01*
X87396776Y-32562904D01*
X87670225Y-32643489D01*
X87843555Y-32716504D01*
X88361699Y-33005621D01*
X88693663Y-33335451D01*
X88878570Y-33761344D01*
X88952417Y-34285309D01*
X88967043Y-34714575D01*
X88931044Y-35011602D01*
X88825053Y-35267751D01*
X88701934Y-35466995D01*
X88511589Y-35730895D01*
X88364266Y-35893242D01*
X88321731Y-35917729D01*
X88163121Y-35973202D01*
X88078732Y-36020691D01*
X88019404Y-36110245D01*
X88073295Y-36265291D01*
X88258640Y-36524019D01*
X88403472Y-36700815D01*
X88641501Y-36997296D01*
X88800334Y-37218950D01*
X88845723Y-37317963D01*
X88845629Y-37318050D01*
X88729449Y-37385593D01*
X88473069Y-37520525D01*
X88221286Y-37648605D01*
X87875558Y-37809108D01*
X87668038Y-37862883D01*
X87544172Y-37820759D01*
X87513516Y-37789063D01*
X87393164Y-37611944D01*
X87210968Y-37309269D01*
X87053164Y-37030655D01*
X86718756Y-36424000D01*
X86714666Y-37609334D01*
X84830901Y-37609334D01*
X84733641Y-35354029D01*
X86714850Y-35354029D01*
X86739786Y-35616353D01*
X86782147Y-35720074D01*
X86942021Y-35741932D01*
X87189214Y-35655497D01*
X87363778Y-35545987D01*
X87496211Y-35320266D01*
X87469893Y-35035745D01*
X87299101Y-34778664D01*
X87227631Y-34723539D01*
X86992289Y-34615304D01*
X86832520Y-34614710D01*
X86765450Y-34760319D01*
X86724815Y-35037721D01*
X86714850Y-35354029D01*
X84733641Y-35354029D01*
X84722581Y-35097556D01*
X84692664Y-34368770D01*
G37*
G36*
X67805778Y-34420196D02*
G01*
X67811119Y-35219606D01*
X67832040Y-35820909D01*
X67875887Y-36251625D01*
X67950008Y-36539273D01*
X68061748Y-36711374D01*
X68218454Y-36795449D01*
X68427473Y-36819016D01*
X68446171Y-36819111D01*
X68796400Y-36819111D01*
X68714748Y-34674223D01*
X68633096Y-32529334D01*
X70261111Y-32529334D01*
X70190555Y-32882111D01*
X70167804Y-33106963D01*
X70148104Y-33513820D01*
X70132730Y-34058917D01*
X70122956Y-34698489D01*
X70120000Y-35305251D01*
X70120658Y-36083027D01*
X70110121Y-36664616D01*
X70069617Y-37079483D01*
X69980376Y-37357090D01*
X69823628Y-37526902D01*
X69580604Y-37618383D01*
X69232532Y-37660997D01*
X68760644Y-37684207D01*
X68599870Y-37691426D01*
X68085670Y-37708355D01*
X67725995Y-37694581D01*
X67450557Y-37640235D01*
X67189067Y-37535444D01*
X67072000Y-37476866D01*
X66765245Y-37290252D01*
X66516845Y-37062799D01*
X66317874Y-36767429D01*
X66159406Y-36377066D01*
X66032515Y-35864634D01*
X65928277Y-35203054D01*
X65837764Y-34365251D01*
X65766705Y-33517111D01*
X65690629Y-32529334D01*
X66748203Y-32529307D01*
X67805778Y-32529280D01*
X67805778Y-34420196D01*
G37*
G36*
X75144466Y-34632821D02*
G01*
X75061445Y-36736309D01*
X75705665Y-36682885D01*
X76349885Y-36629462D01*
X76282942Y-36964175D01*
X76234132Y-37257496D01*
X76216000Y-37454111D01*
X76172835Y-37519046D01*
X76022960Y-37563881D01*
X75735806Y-37591766D01*
X75280805Y-37605852D01*
X74709491Y-37609334D01*
X73202982Y-37609334D01*
X73124741Y-35236680D01*
X73098392Y-34519447D01*
X73069544Y-33873113D01*
X73040221Y-33333796D01*
X73012450Y-32937614D01*
X72988256Y-32720685D01*
X72982283Y-32696680D01*
X72984572Y-32620300D01*
X73085198Y-32570818D01*
X73319320Y-32542840D01*
X73722098Y-32530970D01*
X74072777Y-32529334D01*
X75227487Y-32529334D01*
X75144466Y-34632821D01*
G37*
G36*
X80576930Y-32783334D02*
G01*
X80541434Y-33025965D01*
X80516248Y-33407301D01*
X80507319Y-33799334D01*
X80505778Y-34561334D01*
X79522907Y-34561334D01*
X79449898Y-35425033D01*
X79412415Y-35962757D01*
X79386074Y-36520721D01*
X79376889Y-36949033D01*
X79376889Y-37609334D01*
X78599833Y-37609334D01*
X78186203Y-37602780D01*
X77944313Y-37572319D01*
X77820255Y-37501749D01*
X77760122Y-37374869D01*
X77754708Y-37355334D01*
X77724825Y-37134146D01*
X77701263Y-36752078D01*
X77687377Y-36274008D01*
X77685097Y-36009900D01*
X77677612Y-35518962D01*
X77658790Y-35101539D01*
X77631930Y-34817413D01*
X77615033Y-34739900D01*
X77472691Y-34613176D01*
X77153491Y-34563085D01*
X77050589Y-34561334D01*
X76554666Y-34561334D01*
X76554666Y-32529334D01*
X80644999Y-32529334D01*
X80576930Y-32783334D01*
G37*
G36*
X61036115Y-34956445D02*
G01*
X61041786Y-34444277D01*
X61072581Y-34086283D01*
X61142531Y-33811133D01*
X61265665Y-33547493D01*
X61338262Y-33420237D01*
X61671131Y-32954777D01*
X62057406Y-32648418D01*
X62571098Y-32447895D01*
X62752552Y-32402374D01*
X63431113Y-32353911D01*
X64065789Y-32511734D01*
X64617292Y-32856397D01*
X65046333Y-33368455D01*
X65166473Y-33597108D01*
X65327007Y-34148681D01*
X65387259Y-34815988D01*
X65349091Y-35513409D01*
X65214367Y-36155328D01*
X65104530Y-36443600D01*
X64896729Y-36809266D01*
X64659730Y-37111691D01*
X64526353Y-37228303D01*
X64220107Y-37428963D01*
X64655631Y-37794608D01*
X64893235Y-38009826D01*
X65026557Y-38162040D01*
X65037355Y-38203573D01*
X64917165Y-38290502D01*
X64688906Y-38449977D01*
X64633600Y-38488187D01*
X64283644Y-38729481D01*
X63969825Y-38401925D01*
X63766934Y-38129000D01*
X63718499Y-37914856D01*
X63723571Y-37898295D01*
X63726389Y-37794159D01*
X63602613Y-37740484D01*
X63308503Y-37722468D01*
X63202012Y-37721801D01*
X62604569Y-37652244D01*
X62109793Y-37428593D01*
X61682439Y-37026953D01*
X61287572Y-36424000D01*
X61159871Y-36146045D01*
X61083202Y-35839169D01*
X61053507Y-35518004D01*
X62631703Y-35518004D01*
X62689756Y-35960926D01*
X62843960Y-36321311D01*
X63064382Y-36545697D01*
X63233778Y-36593334D01*
X63449252Y-36505207D01*
X63645101Y-36302211D01*
X63772731Y-35980743D01*
X63828656Y-35574630D01*
X63809969Y-35177233D01*
X63713765Y-34881910D01*
X63690325Y-34849571D01*
X63473513Y-34717425D01*
X63233778Y-34674223D01*
X62906349Y-34752012D01*
X62709851Y-34995440D01*
X62633514Y-35419599D01*
X62631703Y-35518004D01*
X61053507Y-35518004D01*
X61045813Y-35434787D01*
X61036115Y-34956445D01*
G37*
%TO.C,kibuzzard-63FBA5D0*%
G36*
X78203248Y-146178923D02*
G01*
X88882700Y-146178923D01*
X90096752Y-148000000D01*
X88882700Y-149821077D01*
X78203248Y-149821077D01*
X78203248Y-148063562D01*
X80849082Y-148063562D01*
X80863379Y-148272249D01*
X80904203Y-148464227D01*
X80971555Y-148639496D01*
X81063194Y-148793578D01*
X81176883Y-148921994D01*
X81312619Y-149024744D01*
X81466098Y-149099674D01*
X81633013Y-149144633D01*
X81813364Y-149159619D01*
X81995351Y-149144461D01*
X82163041Y-149098985D01*
X82316434Y-149023193D01*
X82451396Y-148919496D01*
X82563792Y-148790305D01*
X82653623Y-148635620D01*
X82719080Y-148459059D01*
X82735991Y-148375171D01*
X83087705Y-148375171D01*
X83116127Y-148601686D01*
X83195192Y-148793405D01*
X83324900Y-148950330D01*
X83498016Y-149066602D01*
X83707305Y-149136365D01*
X83952768Y-149159619D01*
X84201590Y-149135676D01*
X84412689Y-149063845D01*
X84586063Y-148944128D01*
X84714823Y-148783242D01*
X84792080Y-148587906D01*
X84817832Y-148358118D01*
X84817832Y-147248108D01*
X85059677Y-147248108D01*
X85741806Y-147248108D01*
X85741806Y-149128613D01*
X86206894Y-149128613D01*
X86206894Y-147248108D01*
X86898325Y-147248108D01*
X86898325Y-146871387D01*
X85059677Y-146871387D01*
X85059677Y-147248108D01*
X84817832Y-147248108D01*
X84817832Y-146871387D01*
X84351194Y-146871387D01*
X84351194Y-148373621D01*
X84323967Y-148554036D01*
X84248487Y-148682904D01*
X84124754Y-148760225D01*
X83952768Y-148785999D01*
X83785530Y-148760612D01*
X83658988Y-148684454D01*
X83579341Y-148552873D01*
X83552793Y-148361218D01*
X83552793Y-146871387D01*
X83087705Y-146871387D01*
X83087705Y-148375171D01*
X82735991Y-148375171D01*
X82758354Y-148264239D01*
X82771445Y-148051160D01*
X82771445Y-147950391D01*
X82758095Y-147737914D01*
X82718046Y-147542836D01*
X82651297Y-147365155D01*
X82560175Y-147209264D01*
X82447003Y-147079557D01*
X82311783Y-146976031D01*
X82158563Y-146900670D01*
X81991389Y-146855453D01*
X81810263Y-146840381D01*
X81629138Y-146855453D01*
X81461964Y-146900670D01*
X81308744Y-146976031D01*
X81173524Y-147079557D01*
X81060352Y-147209264D01*
X80969229Y-147365155D01*
X80902481Y-147543008D01*
X80862432Y-147738603D01*
X80849082Y-147951941D01*
X80849082Y-148063562D01*
X78203248Y-148063562D01*
X78203248Y-146178923D01*
G37*
G36*
X82018778Y-147270975D02*
G01*
X82173032Y-147409338D01*
X82243656Y-147551276D01*
X82286031Y-147731110D01*
X82300156Y-147948840D01*
X82300156Y-148058911D01*
X82285342Y-148274832D01*
X82242967Y-148453375D01*
X82173032Y-148594537D01*
X82020328Y-148732320D01*
X81813364Y-148778247D01*
X81602524Y-148730576D01*
X81447495Y-148587561D01*
X81376870Y-148443212D01*
X81334496Y-148264411D01*
X81320371Y-148051160D01*
X81320371Y-147941089D01*
X81335357Y-147725340D01*
X81378248Y-147547314D01*
X81449045Y-147407013D01*
X81602912Y-147270393D01*
X81810263Y-147224854D01*
X82018778Y-147270975D01*
G37*
%TO.C,kibuzzard-63FBD1AD*%
G36*
X80851892Y-47962568D02*
G01*
X80829025Y-48125930D01*
X80760425Y-48240845D01*
X80651904Y-48308865D01*
X80509277Y-48331538D01*
X80369557Y-48307508D01*
X80263556Y-48235419D01*
X80196700Y-48119535D01*
X80174414Y-47964118D01*
X80174414Y-47588947D01*
X80851892Y-47588947D01*
X80851892Y-47962568D01*
G37*
G36*
X80374660Y-53305911D02*
G01*
X80552686Y-53348802D01*
X80692987Y-53419599D01*
X80829607Y-53573466D01*
X80875146Y-53780817D01*
X80829025Y-53989332D01*
X80690662Y-54143586D01*
X80548724Y-54214210D01*
X80368890Y-54256585D01*
X80151160Y-54270710D01*
X80041089Y-54270710D01*
X79825168Y-54255896D01*
X79646625Y-54213521D01*
X79505463Y-54143586D01*
X79367680Y-53990882D01*
X79321753Y-53783918D01*
X79369424Y-53573078D01*
X79512439Y-53418049D01*
X79656788Y-53347424D01*
X79835589Y-53305050D01*
X80048840Y-53290925D01*
X80158911Y-53290925D01*
X80374660Y-53305911D01*
G37*
G36*
X80100000Y-40618141D02*
G01*
X81921077Y-41832193D01*
X81921077Y-70581859D01*
X78278923Y-70581859D01*
X78278923Y-65290192D01*
X78971387Y-65290192D01*
X79345007Y-65290192D01*
X79345007Y-64242194D01*
X79949622Y-64242194D01*
X79949622Y-65135163D01*
X80313940Y-65135163D01*
X80313940Y-64242194D01*
X80851892Y-64242194D01*
X80851892Y-65287092D01*
X81228613Y-65287092D01*
X81228613Y-63777106D01*
X78971387Y-63777106D01*
X78971387Y-65290192D01*
X78278923Y-65290192D01*
X78278923Y-62563227D01*
X78940381Y-62563227D01*
X78963635Y-62810671D01*
X79033398Y-63023836D01*
X79149670Y-63202723D01*
X79306422Y-63340441D01*
X79497625Y-63430099D01*
X79723279Y-63471699D01*
X79723279Y-63006611D01*
X79544026Y-62968435D01*
X79418646Y-62884913D01*
X79344814Y-62751394D01*
X79320203Y-62563227D01*
X79362448Y-62356457D01*
X79489185Y-62213636D01*
X79623716Y-62152055D01*
X79801999Y-62115106D01*
X80024036Y-62102790D01*
X80194568Y-62102790D01*
X80407733Y-62117346D01*
X80580074Y-62156878D01*
X80711591Y-62221387D01*
X80836583Y-62366146D01*
X80878247Y-62569428D01*
X80853636Y-62756045D01*
X80779803Y-62888013D01*
X80651323Y-62970760D01*
X80462769Y-63009711D01*
X80462769Y-63474799D01*
X80696174Y-63427601D01*
X80892027Y-63335617D01*
X81050330Y-63198847D01*
X81166602Y-63022803D01*
X81236365Y-62812996D01*
X81259619Y-62569428D01*
X81244891Y-62388991D01*
X81200708Y-62223885D01*
X81127069Y-62074110D01*
X80965645Y-61885555D01*
X80746472Y-61746223D01*
X80572495Y-61682488D01*
X80381292Y-61644248D01*
X80172864Y-61631501D01*
X80034888Y-61631501D01*
X79793478Y-61647052D01*
X79579295Y-61693706D01*
X79392340Y-61771463D01*
X79232611Y-61880323D01*
X79104760Y-62016313D01*
X79013438Y-62175460D01*
X78958645Y-62357765D01*
X78940381Y-62563227D01*
X78278923Y-62563227D01*
X78278923Y-61293537D01*
X78971387Y-61293537D01*
X81228613Y-61293537D01*
X81228613Y-60829999D01*
X79740332Y-60829999D01*
X81228613Y-59923078D01*
X81228613Y-59457990D01*
X78971387Y-59457990D01*
X78971387Y-59923078D01*
X80456567Y-59923078D01*
X78971387Y-60828449D01*
X78971387Y-61293537D01*
X78278923Y-61293537D01*
X78278923Y-57625544D01*
X78971387Y-57625544D01*
X79436475Y-57780573D01*
X79436475Y-58596027D01*
X78971387Y-58752607D01*
X78971387Y-59247150D01*
X81228613Y-58402241D01*
X81228613Y-57971259D01*
X78971387Y-57131000D01*
X78971387Y-57625544D01*
X78278923Y-57625544D01*
X78278923Y-56915510D01*
X78971387Y-56915510D01*
X81228613Y-56915510D01*
X81228613Y-56451972D01*
X79740332Y-56451972D01*
X81228613Y-55545051D01*
X81228613Y-55079963D01*
X78971387Y-55079963D01*
X78971387Y-55545051D01*
X80456567Y-55545051D01*
X78971387Y-56450422D01*
X78971387Y-56915510D01*
X78278923Y-56915510D01*
X78278923Y-53783918D01*
X78940381Y-53783918D01*
X78955539Y-53965905D01*
X79001015Y-54133595D01*
X79076807Y-54286988D01*
X79180504Y-54421950D01*
X79309695Y-54534346D01*
X79464380Y-54624177D01*
X79640941Y-54689634D01*
X79835761Y-54728908D01*
X80048840Y-54741999D01*
X80149609Y-54741999D01*
X80362086Y-54728649D01*
X80557164Y-54688600D01*
X80734845Y-54621851D01*
X80890736Y-54530728D01*
X81020443Y-54417557D01*
X81123969Y-54282337D01*
X81199330Y-54129116D01*
X81244547Y-53961943D01*
X81259619Y-53780817D01*
X81244547Y-53599691D01*
X81199330Y-53432518D01*
X81123969Y-53279298D01*
X81020443Y-53144078D01*
X80890736Y-53030906D01*
X80734845Y-52939783D01*
X80556992Y-52873035D01*
X80361397Y-52832985D01*
X80148059Y-52819636D01*
X80036438Y-52819636D01*
X79827751Y-52833933D01*
X79635773Y-52874757D01*
X79460504Y-52942109D01*
X79306422Y-53033748D01*
X79178006Y-53147437D01*
X79075256Y-53283173D01*
X79000326Y-53436652D01*
X78955367Y-53603567D01*
X78940381Y-53783918D01*
X78278923Y-53783918D01*
X78278923Y-51754584D01*
X78940381Y-51754584D01*
X78958898Y-51987645D01*
X79014450Y-52186599D01*
X79107037Y-52351447D01*
X79232180Y-52474609D01*
X79385401Y-52548507D01*
X79566699Y-52573139D01*
X79808545Y-52527793D01*
X80006982Y-52391755D01*
X80118431Y-52246889D01*
X80217133Y-52054135D01*
X80303088Y-51813496D01*
X80370526Y-51624166D01*
X80442615Y-51487159D01*
X80627100Y-51376313D01*
X80817010Y-51470881D01*
X80871077Y-51584440D01*
X80889099Y-51735981D01*
X80867589Y-51892948D01*
X80803058Y-52010383D01*
X80699770Y-52083634D01*
X80561987Y-52108051D01*
X80561987Y-52573139D01*
X80754224Y-52546978D01*
X80924756Y-52468494D01*
X81066414Y-52342727D01*
X81172028Y-52174714D01*
X81237721Y-51972401D01*
X81259619Y-51743732D01*
X81239465Y-51515258D01*
X81179004Y-51310425D01*
X81082692Y-51139893D01*
X80954987Y-51014320D01*
X80801701Y-50936999D01*
X80628650Y-50911225D01*
X80410059Y-50953944D01*
X80223507Y-51082102D01*
X80068994Y-51295698D01*
X79992448Y-51461967D01*
X79914740Y-51678620D01*
X79838388Y-51883259D01*
X79765912Y-52013483D01*
X79563599Y-52106501D01*
X79375238Y-52013483D01*
X79324660Y-51902250D01*
X79307800Y-51754584D01*
X79331152Y-51559248D01*
X79401205Y-51419721D01*
X79517962Y-51336005D01*
X79681421Y-51308100D01*
X79681421Y-50841462D01*
X79476007Y-50869561D01*
X79296948Y-50953858D01*
X79148701Y-51091640D01*
X79035724Y-51280195D01*
X78964217Y-51505762D01*
X78940381Y-51754584D01*
X78278923Y-51754584D01*
X78278923Y-50663178D01*
X78971387Y-50663178D01*
X79345007Y-50663178D01*
X79345007Y-49615180D01*
X79949622Y-49615180D01*
X79949622Y-50508149D01*
X80313940Y-50508149D01*
X80313940Y-49615180D01*
X80851892Y-49615180D01*
X80851892Y-50660078D01*
X81228613Y-50660078D01*
X81228613Y-49150092D01*
X78971387Y-49150092D01*
X78971387Y-50663178D01*
X78278923Y-50663178D01*
X78278923Y-47588947D01*
X78971387Y-47588947D01*
X79797693Y-47588947D01*
X79797693Y-47959467D01*
X78971387Y-48382697D01*
X78971387Y-48881892D01*
X78993091Y-48881892D01*
X79915515Y-48393549D01*
X80022679Y-48570864D01*
X80161237Y-48696632D01*
X80334676Y-48771627D01*
X80546484Y-48796625D01*
X80747161Y-48772510D01*
X80915110Y-48700163D01*
X81050330Y-48579584D01*
X81149376Y-48414564D01*
X81208804Y-48208892D01*
X81228613Y-47962568D01*
X81228613Y-47123859D01*
X78971387Y-47123859D01*
X78971387Y-47588947D01*
X78278923Y-47588947D01*
X78278923Y-41832193D01*
X80100000Y-40618141D01*
G37*
G36*
X80658105Y-58186750D02*
G01*
X79813196Y-58470454D01*
X79813196Y-57906147D01*
X80658105Y-58186750D01*
G37*
%TO.C,kibuzzard-63FBA3C4*%
G36*
X60674832Y-79130136D02*
G01*
X60853375Y-79172510D01*
X60994537Y-79242446D01*
X61132320Y-79395150D01*
X61178247Y-79602114D01*
X61130576Y-79812954D01*
X60987561Y-79967983D01*
X60843212Y-80038607D01*
X60664411Y-80080982D01*
X60451160Y-80095107D01*
X60341089Y-80095107D01*
X60125340Y-80080121D01*
X59947314Y-80037229D01*
X59807013Y-79966433D01*
X59670393Y-79812566D01*
X59624854Y-79605214D01*
X59670975Y-79396700D01*
X59809338Y-79242446D01*
X59951276Y-79171821D01*
X60131110Y-79129447D01*
X60348840Y-79115322D01*
X60458911Y-79115322D01*
X60674832Y-79130136D01*
G37*
G36*
X58578923Y-95425954D02*
G01*
X58578923Y-86550527D01*
X59240381Y-86550527D01*
X59255109Y-86730964D01*
X59299292Y-86896070D01*
X59372931Y-87045846D01*
X59534355Y-87234400D01*
X59753528Y-87373733D01*
X59927505Y-87437467D01*
X60118708Y-87475707D01*
X60327136Y-87488454D01*
X60465112Y-87488454D01*
X60706522Y-87472903D01*
X60920705Y-87426249D01*
X61107660Y-87348492D01*
X61267389Y-87239632D01*
X61395240Y-87103642D01*
X61486562Y-86944495D01*
X61541355Y-86762190D01*
X61559619Y-86556728D01*
X61536365Y-86309284D01*
X61466602Y-86096119D01*
X61350330Y-85917232D01*
X61193578Y-85779515D01*
X61002375Y-85689856D01*
X60776721Y-85648256D01*
X60776721Y-86113344D01*
X60955974Y-86151520D01*
X61081354Y-86235042D01*
X61155186Y-86368561D01*
X61179797Y-86556728D01*
X61137552Y-86763498D01*
X61010815Y-86906319D01*
X60876284Y-86967900D01*
X60698001Y-87004849D01*
X60475964Y-87017165D01*
X60305432Y-87017165D01*
X60092267Y-87002610D01*
X59919926Y-86963077D01*
X59788409Y-86898568D01*
X59663417Y-86753809D01*
X59621753Y-86550527D01*
X59646364Y-86363910D01*
X59720197Y-86231942D01*
X59848677Y-86149195D01*
X60037231Y-86110244D01*
X60037231Y-85645156D01*
X59803826Y-85692354D01*
X59607973Y-85784338D01*
X59449670Y-85921108D01*
X59333398Y-86097152D01*
X59263635Y-86306959D01*
X59240381Y-86550527D01*
X58578923Y-86550527D01*
X58578923Y-85364553D01*
X59271387Y-85364553D01*
X60775171Y-85364553D01*
X61001686Y-85336131D01*
X61193405Y-85257066D01*
X61350330Y-85127358D01*
X61466602Y-84954242D01*
X61536365Y-84744952D01*
X61559619Y-84499489D01*
X61535676Y-84250667D01*
X61463845Y-84039569D01*
X61344128Y-83866195D01*
X61183242Y-83737434D01*
X60987906Y-83660178D01*
X60758118Y-83634426D01*
X59271387Y-83634426D01*
X59271387Y-84101064D01*
X60773621Y-84101064D01*
X60954036Y-84128291D01*
X61082904Y-84203771D01*
X61160225Y-84327504D01*
X61185999Y-84499489D01*
X61160612Y-84666727D01*
X61084454Y-84793270D01*
X60952873Y-84872916D01*
X60761218Y-84899465D01*
X59271387Y-84899465D01*
X59271387Y-85364553D01*
X58578923Y-85364553D01*
X58578923Y-83392580D01*
X59271387Y-83392580D01*
X59648108Y-83392580D01*
X59648108Y-82710451D01*
X61528613Y-82710451D01*
X61528613Y-82245363D01*
X59648108Y-82245363D01*
X59648108Y-81553933D01*
X59271387Y-81553933D01*
X59271387Y-83392580D01*
X58578923Y-83392580D01*
X58578923Y-79605214D01*
X59240381Y-79605214D01*
X59255453Y-79786340D01*
X59300670Y-79953514D01*
X59376031Y-80106734D01*
X59479557Y-80241954D01*
X59609264Y-80355126D01*
X59765155Y-80446248D01*
X59943008Y-80512997D01*
X60138603Y-80553046D01*
X60351941Y-80566396D01*
X60463562Y-80566396D01*
X60672249Y-80552099D01*
X60864227Y-80511275D01*
X61039496Y-80443923D01*
X61193578Y-80352283D01*
X61321994Y-80238595D01*
X61424744Y-80102858D01*
X61499674Y-79949379D01*
X61544633Y-79782465D01*
X61559619Y-79602114D01*
X61544461Y-79420127D01*
X61498985Y-79252437D01*
X61423193Y-79099044D01*
X61319496Y-78964082D01*
X61190305Y-78851686D01*
X61035620Y-78761855D01*
X60859059Y-78696398D01*
X60664239Y-78657124D01*
X60451160Y-78644033D01*
X60350391Y-78644033D01*
X60137914Y-78657383D01*
X59942836Y-78697432D01*
X59765155Y-78764181D01*
X59609264Y-78855303D01*
X59479557Y-78968475D01*
X59376031Y-79103695D01*
X59300670Y-79256915D01*
X59255453Y-79424089D01*
X59240381Y-79605214D01*
X58578923Y-79605214D01*
X58578923Y-78306069D01*
X59271387Y-78306069D01*
X61528613Y-78306069D01*
X61528613Y-77840981D01*
X60606189Y-77840981D01*
X60606189Y-76948012D01*
X60231018Y-76948012D01*
X60231018Y-77840981D01*
X59648108Y-77840981D01*
X59648108Y-76836391D01*
X59271387Y-76836391D01*
X59271387Y-78306069D01*
X58578923Y-78306069D01*
X58578923Y-76566640D01*
X59271387Y-76566640D01*
X61528613Y-76566640D01*
X61528613Y-76101552D01*
X60606189Y-76101552D01*
X60606189Y-75208584D01*
X60231018Y-75208584D01*
X60231018Y-76101552D01*
X59648108Y-76101552D01*
X59648108Y-75096962D01*
X59271387Y-75096962D01*
X59271387Y-76566640D01*
X58578923Y-76566640D01*
X58578923Y-73774046D01*
X62221077Y-73774046D01*
X62221077Y-95425954D01*
X58578923Y-95425954D01*
G37*
%TO.C,kibuzzard-63FBCCA9*%
G36*
X78201692Y-87209928D02*
G01*
X90458308Y-87209928D01*
X90458308Y-90790072D01*
X78201692Y-90790072D01*
X78201692Y-90128613D01*
X83493359Y-90128613D01*
X83958446Y-90128613D01*
X84389428Y-90128613D01*
X84854516Y-90128613D01*
X84854516Y-88643433D01*
X85759887Y-90128613D01*
X86224975Y-90128613D01*
X86224975Y-87871387D01*
X85761437Y-87871387D01*
X85761437Y-89359668D01*
X84854516Y-87871387D01*
X84389428Y-87871387D01*
X84389428Y-90128613D01*
X83958446Y-90128613D01*
X83958446Y-87871387D01*
X83493359Y-87871387D01*
X83493359Y-90128613D01*
X78201692Y-90128613D01*
X78201692Y-87209928D01*
G37*
%TO.C,kibuzzard-63FBA07E*%
G36*
X50017426Y-146207471D02*
G01*
X62182574Y-146207471D01*
X62182574Y-149692529D01*
X50017426Y-149692529D01*
X50017426Y-149024870D01*
X52663259Y-149024870D01*
X53128347Y-149024870D01*
X54402688Y-149024870D01*
X54867775Y-149024870D01*
X54867775Y-148198564D01*
X55238295Y-148198564D01*
X55661525Y-149024870D01*
X56160720Y-149024870D01*
X56428920Y-149024870D01*
X57942006Y-149024870D01*
X57942006Y-148651249D01*
X56894008Y-148651249D01*
X56894008Y-148046635D01*
X57786977Y-148046635D01*
X57786977Y-147959819D01*
X58143545Y-147959819D01*
X58157842Y-148168505D01*
X58198666Y-148360483D01*
X58266018Y-148535752D01*
X58357657Y-148689834D01*
X58471345Y-148818250D01*
X58607082Y-148921000D01*
X58760561Y-148995931D01*
X58927476Y-149040889D01*
X59107827Y-149055876D01*
X59278359Y-149041923D01*
X59758950Y-149427946D01*
X60055056Y-149165946D01*
X59679885Y-148871391D01*
X59841503Y-148707254D01*
X59963588Y-148496995D01*
X60020433Y-148332233D01*
X60054539Y-148149040D01*
X60065908Y-147947416D01*
X60065908Y-147846647D01*
X60052558Y-147634171D01*
X60012509Y-147439092D01*
X59945760Y-147261412D01*
X59854637Y-147105521D01*
X59741466Y-146975813D01*
X59606246Y-146872288D01*
X59453025Y-146796927D01*
X59285852Y-146751710D01*
X59104726Y-146736637D01*
X58923600Y-146751710D01*
X58756427Y-146796927D01*
X58603206Y-146872288D01*
X58467986Y-146975813D01*
X58354815Y-147105521D01*
X58263692Y-147261412D01*
X58196943Y-147439265D01*
X58156894Y-147634860D01*
X58143545Y-147848197D01*
X58143545Y-147959819D01*
X57786977Y-147959819D01*
X57786977Y-147682316D01*
X56894008Y-147682316D01*
X56894008Y-147144364D01*
X57938906Y-147144364D01*
X57938906Y-146767643D01*
X56428920Y-146767643D01*
X56428920Y-149024870D01*
X56160720Y-149024870D01*
X56160720Y-149003166D01*
X55672378Y-148080741D01*
X55849692Y-147973577D01*
X55975460Y-147835020D01*
X56050455Y-147661581D01*
X56075454Y-147449772D01*
X56051338Y-147249095D01*
X55978991Y-147081147D01*
X55858413Y-146945927D01*
X55693393Y-146846880D01*
X55487720Y-146787453D01*
X55241396Y-146767643D01*
X54402688Y-146767643D01*
X54402688Y-149024870D01*
X53128347Y-149024870D01*
X53128347Y-148102445D01*
X54021316Y-148102445D01*
X54021316Y-147727275D01*
X53128347Y-147727275D01*
X53128347Y-147144364D01*
X54132937Y-147144364D01*
X54132937Y-146767643D01*
X52663259Y-146767643D01*
X52663259Y-149024870D01*
X50017426Y-149024870D01*
X50017426Y-146207471D01*
G37*
G36*
X59313241Y-147167231D02*
G01*
X59467495Y-147305595D01*
X59538119Y-147447533D01*
X59580494Y-147627367D01*
X59594619Y-147845097D01*
X59594619Y-147955168D01*
X59579805Y-148171089D01*
X59537430Y-148349631D01*
X59467495Y-148490794D01*
X59314791Y-148628576D01*
X59107827Y-148674504D01*
X58896987Y-148626832D01*
X58741958Y-148483818D01*
X58671333Y-148339468D01*
X58628958Y-148160668D01*
X58614834Y-147947416D01*
X58614834Y-147837345D01*
X58629820Y-147621596D01*
X58672711Y-147443571D01*
X58743508Y-147303269D01*
X58897374Y-147166650D01*
X59104726Y-147121110D01*
X59313241Y-147167231D01*
G37*
G36*
X55404758Y-147167231D02*
G01*
X55519674Y-147235832D01*
X55587693Y-147344352D01*
X55610366Y-147486979D01*
X55586336Y-147626699D01*
X55514248Y-147732701D01*
X55398363Y-147799557D01*
X55242946Y-147821842D01*
X54867775Y-147821842D01*
X54867775Y-147144364D01*
X55241396Y-147144364D01*
X55404758Y-147167231D01*
G37*
%TD*%
D12*
%TO.C,Ref\u002A\u002A*%
X65000000Y-53600000D03*
%TD*%
%TO.C,Ref\u002A\u002A*%
X80000000Y-76600000D03*
%TD*%
D13*
%TO.C,Ref\u002A\u002A*%
X82900000Y-156700000D03*
%TD*%
D14*
%TO.C,Ref\u002A\u002A*%
X60400000Y-140600000D03*
%TD*%
%TO.C,Ref\u002A\u002A*%
X80000000Y-140600000D03*
%TD*%
D13*
%TO.C,Ref\u002A\u002A*%
X57500000Y-34200000D03*
%TD*%
M02*
