%TF.GenerationSoftware,KiCad,Pcbnew,(6.0.11)*%
%TF.CreationDate,2023-03-02T10:52:13+00:00*%
%TF.ProjectId,Quilter_Panel,5175696c-7465-4725-9f50-616e656c2e6b,rev?*%
%TF.SameCoordinates,Original*%
%TF.FileFunction,Copper,L1,Top*%
%TF.FilePolarity,Positive*%
%FSLAX46Y46*%
G04 Gerber Fmt 4.6, Leading zero omitted, Abs format (unit mm)*
G04 Created by KiCad (PCBNEW (6.0.11)) date 2023-03-02 10:52:13*
%MOMM*%
%LPD*%
G01*
G04 APERTURE LIST*
%TA.AperFunction,NonConductor*%
%ADD10C,7.000000*%
%TD*%
%TA.AperFunction,NonConductor*%
%ADD11C,4.000000*%
%TD*%
G04 APERTURE END LIST*
D10*
X75357727Y-53600000D02*
G75*
G03*
X75357727Y-53600000I-10357727J0D01*
G01*
D11*
X87700000Y-76600000D02*
G75*
G03*
X87700000Y-76600000I-7700000J0D01*
G01*
%TA.AperFunction,NonConductor*%
G36*
X60459446Y-113047308D02*
G01*
X60476361Y-113058180D01*
X62450384Y-114562197D01*
X62492447Y-114619390D01*
X62500022Y-114662376D01*
X62500366Y-115652956D01*
X62480388Y-115721084D01*
X62426748Y-115767595D01*
X62374366Y-115779000D01*
X58426000Y-115779000D01*
X58357879Y-115758998D01*
X58311386Y-115705342D01*
X58300000Y-115653000D01*
X58300000Y-114662404D01*
X58320002Y-114594283D01*
X58349639Y-114562180D01*
X60323639Y-113058180D01*
X60389946Y-113032806D01*
X60459446Y-113047308D01*
G37*
%TD.AperFunction*%
%TA.AperFunction,NonConductor*%
G36*
X62448349Y-132441002D02*
G01*
X62494842Y-132494658D01*
X62506228Y-132546956D01*
X62508183Y-138181049D01*
X62488205Y-138249177D01*
X62434565Y-138295688D01*
X62364295Y-138305817D01*
X62304440Y-138280249D01*
X62115328Y-138131966D01*
X61820291Y-137951168D01*
X61817001Y-137949641D01*
X61816992Y-137949636D01*
X61509728Y-137807009D01*
X61506430Y-137805478D01*
X61409819Y-137773527D01*
X61181348Y-137697967D01*
X61181343Y-137697966D01*
X61177903Y-137696828D01*
X61174348Y-137696092D01*
X61174345Y-137696091D01*
X60842615Y-137627393D01*
X60842612Y-137627393D01*
X60839065Y-137626658D01*
X60685167Y-137612923D01*
X60537560Y-137599749D01*
X60537554Y-137599749D01*
X60534767Y-137599500D01*
X60311811Y-137599500D01*
X60309992Y-137599605D01*
X60309988Y-137599605D01*
X60058167Y-137614125D01*
X60058162Y-137614126D01*
X60054547Y-137614334D01*
X60050978Y-137614957D01*
X60050977Y-137614957D01*
X59717245Y-137673202D01*
X59717238Y-137673204D01*
X59713672Y-137673826D01*
X59710197Y-137674855D01*
X59710190Y-137674857D01*
X59636018Y-137696828D01*
X59381894Y-137772103D01*
X59378558Y-137773526D01*
X59378555Y-137773527D01*
X59066949Y-137906438D01*
X59066946Y-137906440D01*
X59063611Y-137907862D01*
X59060464Y-137909657D01*
X59060460Y-137909659D01*
X58990373Y-137949636D01*
X58763041Y-138079304D01*
X58760129Y-138081443D01*
X58760126Y-138081445D01*
X58688309Y-138134200D01*
X58531788Y-138249177D01*
X58500594Y-138272091D01*
X58433852Y-138296299D01*
X58364617Y-138280581D01*
X58314871Y-138229927D01*
X58300000Y-138170544D01*
X58300000Y-132547000D01*
X58320002Y-132478879D01*
X58373658Y-132432386D01*
X58426000Y-132421000D01*
X62380228Y-132421000D01*
X62448349Y-132441002D01*
G37*
%TD.AperFunction*%
%TA.AperFunction,NonConductor*%
G36*
X62445246Y-142912174D02*
G01*
X62494992Y-142962828D01*
X62509863Y-143022167D01*
X62512243Y-149878500D01*
X62492265Y-149946628D01*
X62438625Y-149993139D01*
X62386199Y-150004544D01*
X59216694Y-150003408D01*
X50126955Y-150000152D01*
X50058841Y-149980126D01*
X50012368Y-149926453D01*
X50001000Y-149874152D01*
X50001000Y-146126000D01*
X50021002Y-146057879D01*
X50074658Y-146011386D01*
X50127000Y-146000000D01*
X58300000Y-146000000D01*
X58300000Y-143025324D01*
X58320002Y-142957203D01*
X58373658Y-142910710D01*
X58443932Y-142900606D01*
X58503746Y-142926170D01*
X58626176Y-143022167D01*
X58684672Y-143068034D01*
X58979709Y-143248832D01*
X58982999Y-143250359D01*
X58983008Y-143250364D01*
X59244601Y-143371791D01*
X59293570Y-143394522D01*
X59297017Y-143395662D01*
X59618652Y-143502033D01*
X59618657Y-143502034D01*
X59622097Y-143503172D01*
X59625652Y-143503908D01*
X59625655Y-143503909D01*
X59957385Y-143572607D01*
X59957388Y-143572607D01*
X59960935Y-143573342D01*
X60092042Y-143585043D01*
X60262440Y-143600251D01*
X60262446Y-143600251D01*
X60265233Y-143600500D01*
X60488189Y-143600500D01*
X60490008Y-143600395D01*
X60490012Y-143600395D01*
X60741833Y-143585875D01*
X60741838Y-143585874D01*
X60745453Y-143585666D01*
X60816067Y-143573342D01*
X61082755Y-143526798D01*
X61082762Y-143526796D01*
X61086328Y-143526174D01*
X61089803Y-143525145D01*
X61089810Y-143525143D01*
X61222582Y-143485814D01*
X61418106Y-143427897D01*
X61496353Y-143394522D01*
X61733051Y-143293562D01*
X61733054Y-143293560D01*
X61736389Y-143292138D01*
X61739536Y-143290343D01*
X61739540Y-143290341D01*
X62033819Y-143122487D01*
X62036959Y-143120696D01*
X62108650Y-143068034D01*
X62309269Y-142920664D01*
X62376011Y-142896456D01*
X62445246Y-142912174D01*
G37*
%TD.AperFunction*%
%TA.AperFunction,NonConductor*%
G36*
X80164826Y-40338896D02*
G01*
X82038826Y-41463296D01*
X82086949Y-41515495D01*
X82100000Y-41571340D01*
X82100000Y-66972044D01*
X82079998Y-67040165D01*
X82026342Y-67086658D01*
X81956068Y-67096762D01*
X81946514Y-67095010D01*
X81904147Y-67085540D01*
X81818627Y-67066424D01*
X81754290Y-67056234D01*
X81218379Y-66971354D01*
X81218370Y-66971353D01*
X81216420Y-66971044D01*
X81214451Y-66970858D01*
X81214444Y-66970857D01*
X80611364Y-66913849D01*
X80611351Y-66913848D01*
X80609413Y-66913665D01*
X80607468Y-66913604D01*
X80607454Y-66913603D01*
X80001973Y-66894575D01*
X80000000Y-66894513D01*
X79998027Y-66894575D01*
X79392546Y-66913603D01*
X79392532Y-66913604D01*
X79390587Y-66913665D01*
X79388649Y-66913848D01*
X79388636Y-66913849D01*
X78785556Y-66970857D01*
X78785549Y-66970858D01*
X78783580Y-66971044D01*
X78781630Y-66971353D01*
X78781621Y-66971354D01*
X78403745Y-67031204D01*
X78245711Y-67056234D01*
X78175300Y-67047134D01*
X78120986Y-67001412D01*
X78100000Y-66931785D01*
X78100000Y-58144585D01*
X78107227Y-58102525D01*
X78184082Y-57885493D01*
X78184630Y-57883946D01*
X78390765Y-57188045D01*
X78520187Y-56648964D01*
X78559817Y-56483894D01*
X78559821Y-56483875D01*
X78560197Y-56482309D01*
X78692462Y-55768673D01*
X78787196Y-55049093D01*
X78844141Y-54325541D01*
X78863140Y-53600000D01*
X78844141Y-52874459D01*
X78787196Y-52150907D01*
X78692462Y-51431327D01*
X78560197Y-50717691D01*
X78559821Y-50716125D01*
X78559817Y-50716106D01*
X78391150Y-50013560D01*
X78390765Y-50011955D01*
X78184630Y-49316054D01*
X78107227Y-49097475D01*
X78100000Y-49055415D01*
X78100000Y-41571340D01*
X78120002Y-41503219D01*
X78161174Y-41463296D01*
X80035174Y-40338896D01*
X80103878Y-40321000D01*
X80164826Y-40338896D01*
G37*
%TD.AperFunction*%
%TA.AperFunction,NonConductor*%
G36*
X80074792Y-70901200D02*
G01*
X80531220Y-70925521D01*
X80541494Y-70926492D01*
X80713731Y-70949933D01*
X80994378Y-70988127D01*
X81004551Y-70989939D01*
X81450858Y-71088474D01*
X81460850Y-71091113D01*
X81897608Y-71225895D01*
X81907334Y-71229341D01*
X82020894Y-71274876D01*
X82076677Y-71318794D01*
X82100000Y-71391824D01*
X82100000Y-71674000D01*
X82079998Y-71742121D01*
X82026342Y-71788614D01*
X81974000Y-71800000D01*
X78226000Y-71800000D01*
X78157879Y-71779998D01*
X78111386Y-71726342D01*
X78100000Y-71674000D01*
X78100000Y-71318241D01*
X78120002Y-71250120D01*
X78173658Y-71203627D01*
X78181961Y-71200188D01*
X78224476Y-71184335D01*
X78234269Y-71181134D01*
X78367862Y-71143457D01*
X78674174Y-71057069D01*
X78684225Y-71054674D01*
X79132814Y-70967070D01*
X79143025Y-70965507D01*
X79597286Y-70914956D01*
X79607585Y-70914235D01*
X79986293Y-70903326D01*
X80064460Y-70901074D01*
X80074792Y-70901200D01*
G37*
%TD.AperFunction*%
%TA.AperFunction,NonConductor*%
G36*
X89518350Y-31720502D02*
G01*
X89525738Y-31725632D01*
X89602510Y-31783103D01*
X89616096Y-31794876D01*
X89805124Y-31983904D01*
X89816897Y-31997490D01*
X89874368Y-32074262D01*
X89899179Y-32140782D01*
X89899500Y-32149771D01*
X89899500Y-38950229D01*
X89879498Y-39018350D01*
X89874368Y-39025738D01*
X89816897Y-39102510D01*
X89805124Y-39116096D01*
X89616096Y-39305124D01*
X89602510Y-39316897D01*
X89388498Y-39477105D01*
X89373375Y-39486824D01*
X89138740Y-39614945D01*
X89122393Y-39622411D01*
X88871900Y-39715840D01*
X88854658Y-39720902D01*
X88593433Y-39777728D01*
X88575650Y-39780285D01*
X88353871Y-39796147D01*
X88304487Y-39799679D01*
X88295499Y-39800000D01*
X68984656Y-39800000D01*
X68948870Y-39794811D01*
X68719051Y-39726735D01*
X68719045Y-39726733D01*
X68717457Y-39726263D01*
X68436785Y-39658880D01*
X67987852Y-39551100D01*
X67987833Y-39551096D01*
X67986267Y-39550720D01*
X67399985Y-39442059D01*
X67248522Y-39413987D01*
X67248518Y-39413986D01*
X67246892Y-39413685D01*
X66713479Y-39343460D01*
X66503000Y-39315750D01*
X66502994Y-39315749D01*
X66501358Y-39315534D01*
X65751709Y-39256535D01*
X65000000Y-39236851D01*
X64248291Y-39256535D01*
X63498642Y-39315534D01*
X63497006Y-39315749D01*
X63497000Y-39315750D01*
X63286521Y-39343460D01*
X62753108Y-39413685D01*
X62751482Y-39413986D01*
X62751478Y-39413987D01*
X62600015Y-39442059D01*
X62013733Y-39550720D01*
X62012167Y-39551096D01*
X62012148Y-39551100D01*
X61563215Y-39658880D01*
X61282543Y-39726263D01*
X61280955Y-39726733D01*
X61280949Y-39726735D01*
X61051130Y-39794811D01*
X61015344Y-39800000D01*
X52104501Y-39800000D01*
X52095513Y-39799679D01*
X52046129Y-39796147D01*
X51824350Y-39780285D01*
X51806567Y-39777728D01*
X51545342Y-39720902D01*
X51528100Y-39715840D01*
X51277607Y-39622411D01*
X51261260Y-39614945D01*
X51026625Y-39486824D01*
X51011502Y-39477105D01*
X50797490Y-39316897D01*
X50783904Y-39305124D01*
X50594876Y-39116096D01*
X50583103Y-39102510D01*
X50525632Y-39025738D01*
X50500821Y-38959218D01*
X50500500Y-38950229D01*
X50500500Y-34332200D01*
X54498747Y-34332200D01*
X54499306Y-34336444D01*
X54499306Y-34336448D01*
X54515699Y-34460969D01*
X54536129Y-34616149D01*
X54611702Y-34892398D01*
X54724068Y-35155835D01*
X54871146Y-35401585D01*
X55050215Y-35625100D01*
X55257962Y-35822245D01*
X55490543Y-35989371D01*
X55743653Y-36123386D01*
X56012610Y-36221810D01*
X56292436Y-36282822D01*
X56331901Y-36285928D01*
X56514597Y-36300307D01*
X56514604Y-36300307D01*
X56517053Y-36300500D01*
X58471992Y-36300500D01*
X58474128Y-36300354D01*
X58474139Y-36300354D01*
X58681460Y-36286220D01*
X58681466Y-36286219D01*
X58685737Y-36285928D01*
X58689932Y-36285059D01*
X58689934Y-36285059D01*
X58825961Y-36256889D01*
X58966186Y-36227850D01*
X59236158Y-36132248D01*
X59490658Y-36000891D01*
X59494159Y-35998430D01*
X59494163Y-35998428D01*
X59721471Y-35838673D01*
X59721477Y-35838668D01*
X59724976Y-35836209D01*
X59934776Y-35641251D01*
X59945575Y-35628058D01*
X60113461Y-35422941D01*
X60116177Y-35419623D01*
X60265820Y-35175427D01*
X60272802Y-35159522D01*
X60379214Y-34917110D01*
X60379215Y-34917106D01*
X60380938Y-34913182D01*
X60459400Y-34637739D01*
X60499754Y-34354196D01*
X60501253Y-34067800D01*
X60497798Y-34041552D01*
X60464431Y-33788107D01*
X60463871Y-33783851D01*
X60388298Y-33507602D01*
X60275932Y-33244165D01*
X60128854Y-32998415D01*
X59949785Y-32774900D01*
X59742038Y-32577755D01*
X59509457Y-32410629D01*
X59256347Y-32276614D01*
X58987390Y-32178190D01*
X58707564Y-32117178D01*
X58664389Y-32113780D01*
X58485403Y-32099693D01*
X58485396Y-32099693D01*
X58482947Y-32099500D01*
X56528008Y-32099500D01*
X56525872Y-32099646D01*
X56525861Y-32099646D01*
X56318540Y-32113780D01*
X56318534Y-32113781D01*
X56314263Y-32114072D01*
X56310068Y-32114941D01*
X56310066Y-32114941D01*
X56185285Y-32140782D01*
X56033814Y-32172150D01*
X55763842Y-32267752D01*
X55509342Y-32399109D01*
X55505841Y-32401570D01*
X55505837Y-32401572D01*
X55278529Y-32561327D01*
X55278523Y-32561332D01*
X55275024Y-32563791D01*
X55065224Y-32758749D01*
X55062510Y-32762065D01*
X55062507Y-32762068D01*
X55049256Y-32778258D01*
X54883823Y-32980377D01*
X54734180Y-33224573D01*
X54732453Y-33228507D01*
X54732452Y-33228509D01*
X54725580Y-33244165D01*
X54619062Y-33486818D01*
X54540600Y-33762261D01*
X54500246Y-34045804D01*
X54498747Y-34332200D01*
X50500500Y-34332200D01*
X50500500Y-32149771D01*
X50520502Y-32081650D01*
X50525632Y-32074262D01*
X50583103Y-31997490D01*
X50594876Y-31983904D01*
X50783904Y-31794876D01*
X50797490Y-31783103D01*
X50874262Y-31725632D01*
X50940782Y-31700821D01*
X50949771Y-31700500D01*
X89450229Y-31700500D01*
X89518350Y-31720502D01*
G37*
%TD.AperFunction*%
%TA.AperFunction,NonConductor*%
G36*
X78004487Y-153600321D02*
G01*
X78053871Y-153603853D01*
X78275650Y-153619715D01*
X78293433Y-153622272D01*
X78554658Y-153679098D01*
X78571900Y-153684160D01*
X78822393Y-153777589D01*
X78838740Y-153785055D01*
X79073375Y-153913176D01*
X79088498Y-153922895D01*
X79302510Y-154083103D01*
X79316096Y-154094876D01*
X79505124Y-154283904D01*
X79516897Y-154297490D01*
X79677105Y-154511502D01*
X79686824Y-154526625D01*
X79814945Y-154761260D01*
X79822411Y-154777607D01*
X79915839Y-155028097D01*
X79920902Y-155045342D01*
X79977728Y-155306567D01*
X79980286Y-155324355D01*
X79999679Y-155595513D01*
X80000000Y-155604501D01*
X80000000Y-156006938D01*
X79995179Y-156041457D01*
X79932756Y-156260594D01*
X79892249Y-156545216D01*
X79890743Y-156832703D01*
X79928268Y-157117734D01*
X79929401Y-157121875D01*
X79956835Y-157222156D01*
X79958421Y-157282188D01*
X79920902Y-157454657D01*
X79915838Y-157471905D01*
X79822411Y-157722393D01*
X79814945Y-157738740D01*
X79686824Y-157973375D01*
X79677105Y-157988498D01*
X79516897Y-158202510D01*
X79505124Y-158216096D01*
X79316096Y-158405124D01*
X79302510Y-158416897D01*
X79088498Y-158577105D01*
X79073375Y-158586824D01*
X78838740Y-158714945D01*
X78822393Y-158722411D01*
X78571900Y-158815840D01*
X78554658Y-158820902D01*
X78293433Y-158877728D01*
X78275650Y-158880285D01*
X78053871Y-158896147D01*
X78004487Y-158899679D01*
X77995499Y-158900000D01*
X52004501Y-158900000D01*
X51995513Y-158899679D01*
X51946129Y-158896147D01*
X51724350Y-158880285D01*
X51706567Y-158877728D01*
X51445342Y-158820902D01*
X51428100Y-158815840D01*
X51177607Y-158722411D01*
X51161260Y-158714945D01*
X50926625Y-158586824D01*
X50911502Y-158577105D01*
X50697490Y-158416897D01*
X50683904Y-158405124D01*
X50545405Y-158266625D01*
X50511379Y-158204313D01*
X50508500Y-158177530D01*
X50508500Y-154322470D01*
X50528502Y-154254349D01*
X50545405Y-154233375D01*
X50683904Y-154094876D01*
X50697490Y-154083103D01*
X50911502Y-153922895D01*
X50926625Y-153913176D01*
X51161260Y-153785055D01*
X51177607Y-153777589D01*
X51428100Y-153684160D01*
X51445342Y-153679098D01*
X51706567Y-153622272D01*
X51724350Y-153619715D01*
X51946129Y-153603853D01*
X51995513Y-153600321D01*
X52004501Y-153600000D01*
X77995499Y-153600000D01*
X78004487Y-153600321D01*
G37*
%TD.AperFunction*%
%TA.AperFunction,NonConductor*%
G36*
X90341121Y-87020002D02*
G01*
X90387614Y-87073658D01*
X90399000Y-87126000D01*
X90399000Y-90874000D01*
X90378998Y-90942121D01*
X90325342Y-90988614D01*
X90273000Y-91000000D01*
X82100000Y-91000000D01*
X82100000Y-95453000D01*
X82079998Y-95521121D01*
X82026342Y-95567614D01*
X81974000Y-95579000D01*
X78126000Y-95579000D01*
X78057879Y-95558998D01*
X78011386Y-95505342D01*
X78000000Y-95453000D01*
X78000000Y-87126000D01*
X78020002Y-87057879D01*
X78073658Y-87011386D01*
X78126000Y-87000000D01*
X90273000Y-87000000D01*
X90341121Y-87020002D01*
G37*
%TD.AperFunction*%
%TA.AperFunction,NonConductor*%
G36*
X81942121Y-132441002D02*
G01*
X81988614Y-132494658D01*
X82000000Y-132547000D01*
X82000000Y-138096266D01*
X81979998Y-138164387D01*
X81926342Y-138210880D01*
X81856068Y-138220984D01*
X81796254Y-138195420D01*
X81718185Y-138134206D01*
X81718183Y-138134205D01*
X81715328Y-138131966D01*
X81420291Y-137951168D01*
X81417001Y-137949641D01*
X81416992Y-137949636D01*
X81109728Y-137807009D01*
X81106430Y-137805478D01*
X81009819Y-137773527D01*
X80781348Y-137697967D01*
X80781343Y-137697966D01*
X80777903Y-137696828D01*
X80774348Y-137696092D01*
X80774345Y-137696091D01*
X80442615Y-137627393D01*
X80442612Y-137627393D01*
X80439065Y-137626658D01*
X80285167Y-137612923D01*
X80137560Y-137599749D01*
X80137554Y-137599749D01*
X80134767Y-137599500D01*
X79911811Y-137599500D01*
X79909992Y-137599605D01*
X79909988Y-137599605D01*
X79658167Y-137614125D01*
X79658162Y-137614126D01*
X79654547Y-137614334D01*
X79650978Y-137614957D01*
X79650977Y-137614957D01*
X79317245Y-137673202D01*
X79317238Y-137673204D01*
X79313672Y-137673826D01*
X79310197Y-137674855D01*
X79310190Y-137674857D01*
X79236018Y-137696828D01*
X78981894Y-137772103D01*
X78978558Y-137773526D01*
X78978555Y-137773527D01*
X78666949Y-137906438D01*
X78666946Y-137906440D01*
X78663611Y-137907862D01*
X78660464Y-137909657D01*
X78660460Y-137909659D01*
X78590373Y-137949636D01*
X78363041Y-138079304D01*
X78360129Y-138081443D01*
X78360126Y-138081445D01*
X78300594Y-138125176D01*
X78233852Y-138149384D01*
X78164617Y-138133666D01*
X78114871Y-138083012D01*
X78100000Y-138023629D01*
X78100000Y-132547000D01*
X78120002Y-132478879D01*
X78173658Y-132432386D01*
X78226000Y-132421000D01*
X81874000Y-132421000D01*
X81942121Y-132441002D01*
G37*
%TD.AperFunction*%
%TA.AperFunction,NonConductor*%
G36*
X81935383Y-142992877D02*
G01*
X81985129Y-143043531D01*
X82000000Y-143102914D01*
X82000000Y-146000000D01*
X89075116Y-146000000D01*
X89143237Y-146020002D01*
X89180760Y-146057331D01*
X90378644Y-147900230D01*
X90399000Y-147968899D01*
X90399000Y-148031101D01*
X90378644Y-148099770D01*
X89180720Y-149942731D01*
X89126824Y-149988945D01*
X89075191Y-150000062D01*
X78226113Y-150009886D01*
X78157975Y-149989946D01*
X78111434Y-149936332D01*
X78100000Y-149883886D01*
X78100000Y-143179856D01*
X78120002Y-143111735D01*
X78173658Y-143065242D01*
X78243932Y-143055138D01*
X78291833Y-143072422D01*
X78579709Y-143248832D01*
X78582999Y-143250359D01*
X78583008Y-143250364D01*
X78844601Y-143371791D01*
X78893570Y-143394522D01*
X78897017Y-143395662D01*
X79218652Y-143502033D01*
X79218657Y-143502034D01*
X79222097Y-143503172D01*
X79225652Y-143503908D01*
X79225655Y-143503909D01*
X79557385Y-143572607D01*
X79557388Y-143572607D01*
X79560935Y-143573342D01*
X79692042Y-143585043D01*
X79862440Y-143600251D01*
X79862446Y-143600251D01*
X79865233Y-143600500D01*
X80088189Y-143600500D01*
X80090008Y-143600395D01*
X80090012Y-143600395D01*
X80341833Y-143585875D01*
X80341838Y-143585874D01*
X80345453Y-143585666D01*
X80416067Y-143573342D01*
X80682755Y-143526798D01*
X80682762Y-143526796D01*
X80686328Y-143526174D01*
X80689803Y-143525145D01*
X80689810Y-143525143D01*
X80822582Y-143485814D01*
X81018106Y-143427897D01*
X81096353Y-143394522D01*
X81333051Y-143293562D01*
X81333054Y-143293560D01*
X81336389Y-143292138D01*
X81339536Y-143290343D01*
X81339540Y-143290341D01*
X81633819Y-143122487D01*
X81636959Y-143120696D01*
X81649158Y-143111735D01*
X81799406Y-143001367D01*
X81866148Y-142977159D01*
X81935383Y-142992877D01*
G37*
%TD.AperFunction*%
%TA.AperFunction,NonConductor*%
G36*
X60605458Y-66745466D02*
G01*
X60716054Y-66784630D01*
X60717634Y-66785098D01*
X60717637Y-66785099D01*
X61410361Y-66990293D01*
X61410367Y-66990295D01*
X61411955Y-66990765D01*
X61682851Y-67055801D01*
X62116106Y-67159817D01*
X62116125Y-67159821D01*
X62117691Y-67160197D01*
X62682687Y-67264913D01*
X62829697Y-67292160D01*
X62829701Y-67292161D01*
X62831327Y-67292462D01*
X63346269Y-67360255D01*
X63549265Y-67386980D01*
X63549271Y-67386981D01*
X63550907Y-67387196D01*
X64274459Y-67444141D01*
X65000000Y-67463140D01*
X65725541Y-67444141D01*
X65822602Y-67436502D01*
X65892082Y-67451098D01*
X65942642Y-67500940D01*
X65958228Y-67570205D01*
X65933893Y-67636901D01*
X65920621Y-67652162D01*
X64491011Y-69051360D01*
X62500000Y-71000016D01*
X62500000Y-93500000D01*
X62530263Y-93517023D01*
X65776767Y-95343181D01*
X65826333Y-95394012D01*
X65840550Y-95463570D01*
X65814904Y-95529773D01*
X65757537Y-95571601D01*
X65714994Y-95579000D01*
X55171802Y-95579000D01*
X55103681Y-95558998D01*
X55057188Y-95505342D01*
X55047084Y-95435068D01*
X55076578Y-95370488D01*
X55109038Y-95343745D01*
X58288888Y-93517023D01*
X58288889Y-93517022D01*
X58304596Y-93507999D01*
X58300010Y-69051360D01*
X58319999Y-68983235D01*
X58335896Y-68963270D01*
X60473286Y-66776173D01*
X60535203Y-66741434D01*
X60605458Y-66745466D01*
G37*
%TD.AperFunction*%
M02*
