%TF.GenerationSoftware,KiCad,Pcbnew,(6.0.11)*%
%TF.CreationDate,2023-03-03T11:26:01+00:00*%
%TF.ProjectId,Quilter_Components,5175696c-7465-4725-9f43-6f6d706f6e65,rev?*%
%TF.SameCoordinates,Original*%
%TF.FileFunction,Soldermask,Top*%
%TF.FilePolarity,Negative*%
%FSLAX46Y46*%
G04 Gerber Fmt 4.6, Leading zero omitted, Abs format (unit mm)*
G04 Created by KiCad (PCBNEW (6.0.11)) date 2023-03-03 11:26:01*
%MOMM*%
%LPD*%
G01*
G04 APERTURE LIST*
G04 Aperture macros list*
%AMRoundRect*
0 Rectangle with rounded corners*
0 $1 Rounding radius*
0 $2 $3 $4 $5 $6 $7 $8 $9 X,Y pos of 4 corners*
0 Add a 4 corners polygon primitive as box body*
4,1,4,$2,$3,$4,$5,$6,$7,$8,$9,$2,$3,0*
0 Add four circle primitives for the rounded corners*
1,1,$1+$1,$2,$3*
1,1,$1+$1,$4,$5*
1,1,$1+$1,$6,$7*
1,1,$1+$1,$8,$9*
0 Add four rect primitives between the rounded corners*
20,1,$1+$1,$2,$3,$4,$5,0*
20,1,$1+$1,$4,$5,$6,$7,0*
20,1,$1+$1,$6,$7,$8,$9,0*
20,1,$1+$1,$8,$9,$2,$3,0*%
G04 Aperture macros list end*
%ADD10RoundRect,0.237500X0.250000X0.237500X-0.250000X0.237500X-0.250000X-0.237500X0.250000X-0.237500X0*%
%ADD11RoundRect,0.237500X-0.250000X-0.237500X0.250000X-0.237500X0.250000X0.237500X-0.250000X0.237500X0*%
%ADD12RoundRect,0.237500X0.300000X0.237500X-0.300000X0.237500X-0.300000X-0.237500X0.300000X-0.237500X0*%
%ADD13RoundRect,0.150000X0.825000X0.150000X-0.825000X0.150000X-0.825000X-0.150000X0.825000X-0.150000X0*%
%ADD14R,1.200000X1.200000*%
%ADD15R,1.500000X1.600000*%
%ADD16RoundRect,0.237500X-0.300000X-0.237500X0.300000X-0.237500X0.300000X0.237500X-0.300000X0.237500X0*%
%ADD17R,1.200000X0.900000*%
%ADD18R,1.700000X1.700000*%
%ADD19C,1.700000*%
%ADD20RoundRect,0.150000X-0.825000X-0.150000X0.825000X-0.150000X0.825000X0.150000X-0.825000X0.150000X0*%
%ADD21RoundRect,0.250000X0.550000X-1.050000X0.550000X1.050000X-0.550000X1.050000X-0.550000X-1.050000X0*%
%ADD22C,2.000000*%
%ADD23R,1.200000X0.400000*%
%ADD24RoundRect,0.150000X0.725000X0.150000X-0.725000X0.150000X-0.725000X-0.150000X0.725000X-0.150000X0*%
%ADD25O,1.700000X1.700000*%
%ADD26C,0.800000*%
%ADD27C,1.000000*%
G04 APERTURE END LIST*
D10*
%TO.C,R75*%
X64412500Y-64800000D03*
X62587500Y-64800000D03*
%TD*%
D11*
%TO.C,R74*%
X75987500Y-66600000D03*
X77812500Y-66600000D03*
%TD*%
D10*
%TO.C,R73*%
X64412500Y-75600000D03*
X62587500Y-75600000D03*
%TD*%
D11*
%TO.C,R72*%
X75987500Y-64800000D03*
X77812500Y-64800000D03*
%TD*%
D10*
%TO.C,R71*%
X64412500Y-84600000D03*
X62587500Y-84600000D03*
%TD*%
D12*
%TO.C,C33*%
X64362500Y-137600000D03*
X62637500Y-137600000D03*
%TD*%
D13*
%TO.C,U2*%
X72675000Y-74110000D03*
X72675000Y-72840000D03*
X72675000Y-71570000D03*
X72675000Y-70300000D03*
X72675000Y-69030000D03*
X72675000Y-67760000D03*
X72675000Y-66490000D03*
X67725000Y-66490000D03*
X67725000Y-67760000D03*
X67725000Y-69030000D03*
X67725000Y-70300000D03*
X67725000Y-71570000D03*
X67725000Y-72840000D03*
X67725000Y-74110000D03*
%TD*%
D10*
%TO.C,R44*%
X57612500Y-133700000D03*
X55787500Y-133700000D03*
%TD*%
%TO.C,R23*%
X57612500Y-96200000D03*
X55787500Y-96200000D03*
%TD*%
D14*
%TO.C,FREQ_OFFSET2*%
X85800000Y-111800000D03*
D15*
X82550000Y-110800000D03*
D14*
X85800000Y-109800000D03*
%TD*%
D16*
%TO.C,C4*%
X76037500Y-72000000D03*
X77762500Y-72000000D03*
%TD*%
D17*
%TO.C,D1*%
X88600000Y-57050000D03*
X88600000Y-53750000D03*
%TD*%
D11*
%TO.C,R53*%
X55787500Y-124100000D03*
X57612500Y-124100000D03*
%TD*%
D16*
%TO.C,C38*%
X76037500Y-90200000D03*
X77762500Y-90200000D03*
%TD*%
D10*
%TO.C,R65*%
X84512500Y-133700000D03*
X82687500Y-133700000D03*
%TD*%
D12*
%TO.C,C45*%
X64362500Y-128700000D03*
X62637500Y-128700000D03*
%TD*%
D11*
%TO.C,R58*%
X82687500Y-132100000D03*
X84512500Y-132100000D03*
%TD*%
D16*
%TO.C,C10*%
X76037500Y-97400000D03*
X77762500Y-97400000D03*
%TD*%
D18*
%TO.C,J4*%
X65060000Y-57000000D03*
D19*
X65060000Y-54460000D03*
X67600000Y-57000000D03*
X67600000Y-54460000D03*
X70140000Y-57000000D03*
X70140000Y-54460000D03*
X72680000Y-57000000D03*
X72680000Y-54460000D03*
X75220000Y-57000000D03*
X75220000Y-54460000D03*
%TD*%
D16*
%TO.C,C14*%
X76037500Y-109900000D03*
X77762500Y-109900000D03*
%TD*%
D14*
%TO.C,FREQ_OFFSET4*%
X85800000Y-141300000D03*
D15*
X82550000Y-140300000D03*
D14*
X85800000Y-139300000D03*
%TD*%
D10*
%TO.C,R35*%
X77812500Y-102700000D03*
X75987500Y-102700000D03*
%TD*%
D11*
%TO.C,R2*%
X75987500Y-79200000D03*
X77812500Y-79200000D03*
%TD*%
D16*
%TO.C,C30*%
X76037500Y-139400000D03*
X77762500Y-139400000D03*
%TD*%
D12*
%TO.C,C3*%
X64362500Y-81000000D03*
X62637500Y-81000000D03*
%TD*%
D11*
%TO.C,R21*%
X55787500Y-97800000D03*
X57612500Y-97800000D03*
%TD*%
D12*
%TO.C,C28*%
X77762500Y-117900000D03*
X76037500Y-117900000D03*
%TD*%
D10*
%TO.C,R42*%
X77812500Y-125100000D03*
X75987500Y-125100000D03*
%TD*%
D16*
%TO.C,C15*%
X76037500Y-111700000D03*
X77762500Y-111700000D03*
%TD*%
D14*
%TO.C,V_OCT4*%
X85800000Y-120100000D03*
D15*
X82550000Y-119100000D03*
D14*
X85800000Y-118100000D03*
%TD*%
D16*
%TO.C,C31*%
X76037500Y-141200000D03*
X77762500Y-141200000D03*
%TD*%
D12*
%TO.C,C11*%
X57562500Y-93000000D03*
X55837500Y-93000000D03*
%TD*%
D11*
%TO.C,R37*%
X75987500Y-104500000D03*
X77812500Y-104500000D03*
%TD*%
%TO.C,R57*%
X82687500Y-128900000D03*
X84512500Y-128900000D03*
%TD*%
D10*
%TO.C,R50*%
X64412500Y-126900000D03*
X62587500Y-126900000D03*
%TD*%
D16*
%TO.C,C9*%
X76037500Y-92000000D03*
X77762500Y-92000000D03*
%TD*%
D11*
%TO.C,R51*%
X75987500Y-128600000D03*
X77812500Y-128600000D03*
%TD*%
%TO.C,R27*%
X55787500Y-94600000D03*
X57612500Y-94600000D03*
%TD*%
%TO.C,R33*%
X82687500Y-96200000D03*
X84512500Y-96200000D03*
%TD*%
D10*
%TO.C,R9*%
X64412500Y-68387500D03*
X62587500Y-68387500D03*
%TD*%
%TO.C,R13*%
X64412500Y-66587500D03*
X62587500Y-66587500D03*
%TD*%
%TO.C,R46*%
X57612500Y-128900000D03*
X55787500Y-128900000D03*
%TD*%
%TO.C,R22*%
X64412500Y-95600000D03*
X62587500Y-95600000D03*
%TD*%
D20*
%TO.C,U4*%
X67725000Y-125790000D03*
X67725000Y-127060000D03*
X67725000Y-128330000D03*
X67725000Y-129600000D03*
X67725000Y-130870000D03*
X67725000Y-132140000D03*
X67725000Y-133410000D03*
X72675000Y-133410000D03*
X72675000Y-132140000D03*
X72675000Y-130870000D03*
X72675000Y-129600000D03*
X72675000Y-128330000D03*
X72675000Y-127060000D03*
X72675000Y-125790000D03*
%TD*%
D21*
%TO.C,C2*%
X55900000Y-57200000D03*
X55900000Y-53600000D03*
%TD*%
D16*
%TO.C,C22*%
X62637500Y-119700000D03*
X64362500Y-119700000D03*
%TD*%
D12*
%TO.C,C17*%
X64362500Y-108100000D03*
X62637500Y-108100000D03*
%TD*%
%TO.C,C40*%
X64362500Y-93800000D03*
X62637500Y-93800000D03*
%TD*%
%TO.C,C19*%
X84462500Y-105800000D03*
X82737500Y-105800000D03*
%TD*%
D10*
%TO.C,R38*%
X64412500Y-102700000D03*
X62587500Y-102700000D03*
%TD*%
%TO.C,R18*%
X57612500Y-104200000D03*
X55787500Y-104200000D03*
%TD*%
D22*
%TO.C,TP2*%
X56800000Y-62500000D03*
%TD*%
D14*
%TO.C,V_OCT3*%
X54600000Y-118100000D03*
D15*
X57850000Y-119100000D03*
D14*
X54600000Y-120100000D03*
%TD*%
D10*
%TO.C,R16*%
X77812500Y-95600000D03*
X75987500Y-95600000D03*
%TD*%
%TO.C,R10*%
X64412500Y-71987500D03*
X62587500Y-71987500D03*
%TD*%
D14*
%TO.C,V_OCT1*%
X54600000Y-88600000D03*
D15*
X57850000Y-89600000D03*
D14*
X54600000Y-90600000D03*
%TD*%
D12*
%TO.C,C18*%
X64362500Y-100900000D03*
X62637500Y-100900000D03*
%TD*%
D11*
%TO.C,R62*%
X75987500Y-137600000D03*
X77812500Y-137600000D03*
%TD*%
D10*
%TO.C,R34*%
X84512500Y-99400000D03*
X82687500Y-99400000D03*
%TD*%
%TO.C,R69*%
X57612500Y-132100000D03*
X55787500Y-132100000D03*
%TD*%
D17*
%TO.C,D2*%
X51800000Y-53750000D03*
X51800000Y-57050000D03*
%TD*%
D10*
%TO.C,R19*%
X57612500Y-102600000D03*
X55787500Y-102600000D03*
%TD*%
%TO.C,R64*%
X64412500Y-132200000D03*
X62587500Y-132200000D03*
%TD*%
D16*
%TO.C,C21*%
X76037500Y-123300000D03*
X77762500Y-123300000D03*
%TD*%
%TO.C,C5*%
X76037500Y-77400000D03*
X77762500Y-77400000D03*
%TD*%
D23*
%TO.C,U7*%
X67600000Y-107477500D03*
X67600000Y-108112500D03*
X67600000Y-108747500D03*
X67600000Y-109382500D03*
X67600000Y-110017500D03*
X67600000Y-110652500D03*
X67600000Y-111287500D03*
X67600000Y-111922500D03*
X72800000Y-111922500D03*
X72800000Y-111287500D03*
X72800000Y-110652500D03*
X72800000Y-110017500D03*
X72800000Y-109382500D03*
X72800000Y-108747500D03*
X72800000Y-108112500D03*
X72800000Y-107477500D03*
%TD*%
D11*
%TO.C,R68*%
X82687500Y-102600000D03*
X84512500Y-102600000D03*
%TD*%
D12*
%TO.C,C34*%
X64362500Y-130400000D03*
X62637500Y-130400000D03*
%TD*%
D11*
%TO.C,R36*%
X75987500Y-108100000D03*
X77812500Y-108100000D03*
%TD*%
D10*
%TO.C,R3*%
X64412500Y-77400000D03*
X62587500Y-77400000D03*
%TD*%
D11*
%TO.C,R6*%
X75987500Y-82800000D03*
X77812500Y-82800000D03*
%TD*%
D10*
%TO.C,R56*%
X57612500Y-135300000D03*
X55787500Y-135300000D03*
%TD*%
D11*
%TO.C,R52*%
X62587500Y-121500000D03*
X64412500Y-121500000D03*
%TD*%
D23*
%TO.C,U10*%
X67600000Y-136977500D03*
X67600000Y-137612500D03*
X67600000Y-138247500D03*
X67600000Y-138882500D03*
X67600000Y-139517500D03*
X67600000Y-140152500D03*
X67600000Y-140787500D03*
X67600000Y-141422500D03*
X72800000Y-141422500D03*
X72800000Y-140787500D03*
X72800000Y-140152500D03*
X72800000Y-139517500D03*
X72800000Y-138882500D03*
X72800000Y-138247500D03*
X72800000Y-137612500D03*
X72800000Y-136977500D03*
%TD*%
D11*
%TO.C,R7*%
X75987500Y-73800000D03*
X77812500Y-73800000D03*
%TD*%
D10*
%TO.C,R67*%
X57612500Y-99400000D03*
X55787500Y-99400000D03*
%TD*%
%TO.C,R54*%
X57612500Y-136900000D03*
X55787500Y-136900000D03*
%TD*%
D16*
%TO.C,C24*%
X76037500Y-119700000D03*
X77762500Y-119700000D03*
%TD*%
D11*
%TO.C,R12*%
X75987500Y-68400000D03*
X77812500Y-68400000D03*
%TD*%
%TO.C,R26*%
X62587500Y-92000000D03*
X64412500Y-92000000D03*
%TD*%
D10*
%TO.C,R20*%
X57612500Y-101000000D03*
X55787500Y-101000000D03*
%TD*%
D11*
%TO.C,R8*%
X75987500Y-70200000D03*
X77812500Y-70200000D03*
%TD*%
D16*
%TO.C,C25*%
X76037500Y-121500000D03*
X77762500Y-121500000D03*
%TD*%
D10*
%TO.C,R28*%
X57612500Y-107400000D03*
X55787500Y-107400000D03*
%TD*%
D16*
%TO.C,C37*%
X76037500Y-93800000D03*
X77762500Y-93800000D03*
%TD*%
D23*
%TO.C,U5*%
X72800000Y-92722500D03*
X72800000Y-92087500D03*
X72800000Y-91452500D03*
X72800000Y-90817500D03*
X72800000Y-90182500D03*
X72800000Y-89547500D03*
X72800000Y-88912500D03*
X72800000Y-88277500D03*
X67600000Y-88277500D03*
X67600000Y-88912500D03*
X67600000Y-89547500D03*
X67600000Y-90182500D03*
X67600000Y-90817500D03*
X67600000Y-91452500D03*
X67600000Y-92087500D03*
X67600000Y-92722500D03*
%TD*%
D11*
%TO.C,R55*%
X62575000Y-135800000D03*
X64400000Y-135800000D03*
%TD*%
%TO.C,R41*%
X82687500Y-124100000D03*
X84512500Y-124100000D03*
%TD*%
D16*
%TO.C,C46*%
X76037500Y-135800000D03*
X77762500Y-135800000D03*
%TD*%
D11*
%TO.C,R70*%
X82687500Y-130500000D03*
X84512500Y-130500000D03*
%TD*%
D16*
%TO.C,C36*%
X62637500Y-141200000D03*
X64362500Y-141200000D03*
%TD*%
D12*
%TO.C,C12*%
X77762500Y-88400000D03*
X76037500Y-88400000D03*
%TD*%
D23*
%TO.C,U9*%
X72800000Y-122222500D03*
X72800000Y-121587500D03*
X72800000Y-120952500D03*
X72800000Y-120317500D03*
X72800000Y-119682500D03*
X72800000Y-119047500D03*
X72800000Y-118412500D03*
X72800000Y-117777500D03*
X67600000Y-117777500D03*
X67600000Y-118412500D03*
X67600000Y-119047500D03*
X67600000Y-119682500D03*
X67600000Y-120317500D03*
X67600000Y-120952500D03*
X67600000Y-121587500D03*
X67600000Y-122222500D03*
%TD*%
D11*
%TO.C,R32*%
X82687500Y-101000000D03*
X84512500Y-101000000D03*
%TD*%
D10*
%TO.C,R48*%
X64412500Y-125100000D03*
X62587500Y-125100000D03*
%TD*%
D12*
%TO.C,C27*%
X57562500Y-122500000D03*
X55837500Y-122500000D03*
%TD*%
D10*
%TO.C,R30*%
X57612500Y-105800000D03*
X55787500Y-105800000D03*
%TD*%
D14*
%TO.C,FREQ_OFFSET3*%
X54600000Y-139300000D03*
D15*
X57850000Y-140300000D03*
D14*
X54600000Y-141300000D03*
%TD*%
D10*
%TO.C,R40*%
X84512500Y-107400000D03*
X82687500Y-107400000D03*
%TD*%
D14*
%TO.C,FREQ_OFFSET1*%
X54600000Y-109800000D03*
D15*
X57850000Y-110800000D03*
D14*
X54600000Y-111800000D03*
%TD*%
D22*
%TO.C,TP4*%
X80400000Y-62600000D03*
%TD*%
D12*
%TO.C,C44*%
X64362500Y-123300000D03*
X62637500Y-123300000D03*
%TD*%
%TO.C,C8*%
X64362500Y-70187500D03*
X62637500Y-70187500D03*
%TD*%
D20*
%TO.C,U3*%
X67725000Y-96290000D03*
X67725000Y-97560000D03*
X67725000Y-98830000D03*
X67725000Y-100100000D03*
X67725000Y-101370000D03*
X67725000Y-102640000D03*
X67725000Y-103910000D03*
X72675000Y-103910000D03*
X72675000Y-102640000D03*
X72675000Y-101370000D03*
X72675000Y-100100000D03*
X72675000Y-98830000D03*
X72675000Y-97560000D03*
X72675000Y-96290000D03*
%TD*%
D10*
%TO.C,R66*%
X84512500Y-136900000D03*
X82687500Y-136900000D03*
%TD*%
D11*
%TO.C,R4*%
X75987500Y-81000000D03*
X77812500Y-81000000D03*
%TD*%
D16*
%TO.C,C41*%
X76037500Y-130400000D03*
X77762500Y-130400000D03*
%TD*%
D11*
%TO.C,R59*%
X82687500Y-127300000D03*
X84512500Y-127300000D03*
%TD*%
D12*
%TO.C,C43*%
X64362500Y-99200000D03*
X62637500Y-99200000D03*
%TD*%
D10*
%TO.C,R1*%
X64412500Y-82800000D03*
X62587500Y-82800000D03*
%TD*%
D12*
%TO.C,C16*%
X64362500Y-109900000D03*
X62637500Y-109900000D03*
%TD*%
D11*
%TO.C,R25*%
X75987500Y-99200000D03*
X77812500Y-99200000D03*
%TD*%
D14*
%TO.C,V_OCT2*%
X85800000Y-90600000D03*
D15*
X82550000Y-89600000D03*
D14*
X85800000Y-88600000D03*
%TD*%
D11*
%TO.C,R47*%
X55787500Y-127300000D03*
X57612500Y-127300000D03*
%TD*%
D12*
%TO.C,C13*%
X64362500Y-104500000D03*
X62637500Y-104500000D03*
%TD*%
D10*
%TO.C,R14*%
X64412500Y-73787500D03*
X62587500Y-73787500D03*
%TD*%
D11*
%TO.C,R15*%
X82687500Y-94600000D03*
X84512500Y-94600000D03*
%TD*%
%TO.C,R17*%
X82687500Y-93000000D03*
X84512500Y-93000000D03*
%TD*%
D10*
%TO.C,R24*%
X64412500Y-97400000D03*
X62587500Y-97400000D03*
%TD*%
D22*
%TO.C,TP1*%
X84100000Y-62600000D03*
%TD*%
D16*
%TO.C,C6*%
X62637500Y-90200000D03*
X64362500Y-90200000D03*
%TD*%
%TO.C,C23*%
X62637500Y-117900000D03*
X64362500Y-117900000D03*
%TD*%
D11*
%TO.C,R31*%
X82687500Y-97800000D03*
X84512500Y-97800000D03*
%TD*%
D10*
%TO.C,R39*%
X84512500Y-104200000D03*
X82687500Y-104200000D03*
%TD*%
D16*
%TO.C,C26*%
X76037500Y-126800000D03*
X77762500Y-126800000D03*
%TD*%
D11*
%TO.C,R43*%
X82687500Y-122500000D03*
X84512500Y-122500000D03*
%TD*%
D21*
%TO.C,C1*%
X84400000Y-57200000D03*
X84400000Y-53600000D03*
%TD*%
D16*
%TO.C,C42*%
X76037500Y-106300000D03*
X77762500Y-106300000D03*
%TD*%
D10*
%TO.C,R61*%
X77812500Y-132200000D03*
X75987500Y-132200000D03*
%TD*%
D12*
%TO.C,C32*%
X64362500Y-139400000D03*
X62637500Y-139400000D03*
%TD*%
D10*
%TO.C,R60*%
X84512500Y-125700000D03*
X82687500Y-125700000D03*
%TD*%
%TO.C,R5*%
X64412500Y-79200000D03*
X62587500Y-79200000D03*
%TD*%
%TO.C,R49*%
X57612500Y-125700000D03*
X55787500Y-125700000D03*
%TD*%
D16*
%TO.C,C7*%
X62637500Y-88400000D03*
X64362500Y-88400000D03*
%TD*%
D11*
%TO.C,R29*%
X62575000Y-106300000D03*
X64400000Y-106300000D03*
%TD*%
%TO.C,R11*%
X75987500Y-75600000D03*
X77812500Y-75600000D03*
%TD*%
%TO.C,R63*%
X75987500Y-134000000D03*
X77812500Y-134000000D03*
%TD*%
D12*
%TO.C,C29*%
X64362500Y-134000000D03*
X62637500Y-134000000D03*
%TD*%
D16*
%TO.C,C39*%
X76037500Y-100900000D03*
X77762500Y-100900000D03*
%TD*%
%TO.C,C20*%
X62637500Y-111700000D03*
X64362500Y-111700000D03*
%TD*%
D22*
%TO.C,TP3*%
X88400000Y-148000000D03*
%TD*%
D10*
%TO.C,R45*%
X57612500Y-130500000D03*
X55787500Y-130500000D03*
%TD*%
D24*
%TO.C,U1*%
X72775000Y-81192500D03*
X72775000Y-79922500D03*
X72775000Y-78652500D03*
X72775000Y-77382500D03*
X67625000Y-77382500D03*
X67625000Y-78652500D03*
X67625000Y-79922500D03*
X67625000Y-81192500D03*
%TD*%
D12*
%TO.C,C35*%
X84462500Y-135300000D03*
X82737500Y-135300000D03*
%TD*%
D18*
%TO.C,J3*%
X81650000Y-147900000D03*
D25*
X79110000Y-147900000D03*
X76570000Y-147900000D03*
X74030000Y-147900000D03*
X71490000Y-147900000D03*
X68950000Y-147900000D03*
X66410000Y-147900000D03*
X63870000Y-147900000D03*
X61330000Y-147900000D03*
X58790000Y-147900000D03*
%TD*%
D18*
%TO.C,J1*%
X52400000Y-62800000D03*
D25*
X52400000Y-65340000D03*
X52400000Y-67880000D03*
X52400000Y-70420000D03*
X52400000Y-72960000D03*
X52400000Y-75500000D03*
X52400000Y-78040000D03*
X52400000Y-80580000D03*
X52400000Y-83120000D03*
X52400000Y-85660000D03*
%TD*%
D18*
%TO.C,J2*%
X87900000Y-62800000D03*
D25*
X87900000Y-65340000D03*
X87900000Y-67880000D03*
X87900000Y-70420000D03*
X87900000Y-72960000D03*
X87900000Y-75500000D03*
X87900000Y-78040000D03*
X87900000Y-80580000D03*
X87900000Y-83120000D03*
X87900000Y-85660000D03*
%TD*%
D26*
X71300000Y-71600000D03*
X78800000Y-77400000D03*
X71300000Y-78600000D03*
X78900000Y-72000000D03*
D27*
X74700000Y-72000000D03*
X74200000Y-135700000D03*
X65800000Y-123300000D03*
X65700000Y-99200000D03*
X74500000Y-105800000D03*
X65800000Y-93800000D03*
X65800000Y-82100000D03*
X65900000Y-128700000D03*
D26*
X85500000Y-122500000D03*
X69200000Y-128300000D03*
X61500000Y-135800000D03*
X77800000Y-87300000D03*
X61500000Y-106300000D03*
X78900000Y-125100000D03*
X78900000Y-130400000D03*
X61600000Y-123300000D03*
X71700000Y-141400000D03*
X61500000Y-111700000D03*
X85600000Y-93000000D03*
X54800000Y-135300000D03*
X78900000Y-135800000D03*
X69200000Y-101400000D03*
X71200000Y-98800000D03*
X61500000Y-99200000D03*
X66100000Y-71300000D03*
X61500000Y-128700000D03*
X78800000Y-100900000D03*
X71200000Y-130900000D03*
X61500000Y-93800000D03*
X54700000Y-125700000D03*
X72800000Y-112700000D03*
X81600000Y-105800000D03*
X54800000Y-105800000D03*
X78800000Y-95600000D03*
X71200000Y-128300000D03*
X69200000Y-98800000D03*
X78800000Y-106300000D03*
X81600000Y-135300000D03*
X54700000Y-122500000D03*
X69200000Y-130900000D03*
X69075500Y-68997179D03*
X71300000Y-69000000D03*
X61300000Y-80900000D03*
X61600000Y-141200000D03*
X54800000Y-96200000D03*
X71200000Y-101400000D03*
X78900000Y-117900000D03*
X61600000Y-70200000D03*
D27*
X65722500Y-141422500D03*
X74570000Y-100670000D03*
X74500000Y-87100000D03*
X74500000Y-76000000D03*
X84700000Y-139300000D03*
X55600000Y-112700000D03*
X74630000Y-130170000D03*
X55700000Y-142300000D03*
X85675500Y-108500000D03*
X65700000Y-113200000D03*
X65700000Y-69300000D03*
X74500000Y-116500000D03*
D26*
X74510000Y-96290000D03*
X79100000Y-79000000D03*
X61550000Y-77300000D03*
X65790000Y-103910000D03*
X79100000Y-80900000D03*
X74610000Y-125790000D03*
X65790000Y-133410000D03*
X61487500Y-79087500D03*
X52399999Y-106499999D03*
X51225000Y-103925000D03*
X87000000Y-97800000D03*
X87821710Y-129002889D03*
X53500000Y-133700000D03*
X55162299Y-94037701D03*
X84500000Y-137900000D03*
X84500000Y-108500000D03*
X55024500Y-123900000D03*
X54400000Y-99400000D03*
X86000000Y-102600000D03*
X86500000Y-130500000D03*
X54600000Y-132000000D03*
M02*
