%TF.GenerationSoftware,KiCad,Pcbnew,(6.0.11)*%
%TF.CreationDate,2023-03-02T16:04:39+00:00*%
%TF.ProjectId,Quilter_Components,5175696c-7465-4725-9f43-6f6d706f6e65,rev?*%
%TF.SameCoordinates,Original*%
%TF.FileFunction,Legend,Bot*%
%TF.FilePolarity,Positive*%
%FSLAX46Y46*%
G04 Gerber Fmt 4.6, Leading zero omitted, Abs format (unit mm)*
G04 Created by KiCad (PCBNEW (6.0.11)) date 2023-03-02 16:04:39*
%MOMM*%
%LPD*%
G01*
G04 APERTURE LIST*
%ADD10C,0.200000*%
%ADD11C,0.150000*%
%ADD12C,0.120000*%
%ADD13R,1.700000X1.700000*%
%ADD14C,1.700000*%
%ADD15C,2.000000*%
%ADD16O,1.700000X1.700000*%
%ADD17C,1.000000*%
%ADD18C,0.800000*%
G04 APERTURE END LIST*
D10*
X78776190Y-143442619D02*
X78871428Y-143395000D01*
X78966666Y-143299761D01*
X79109523Y-143156904D01*
X79204761Y-143109285D01*
X79300000Y-143109285D01*
X79252380Y-143347380D02*
X79347619Y-143299761D01*
X79442857Y-143204523D01*
X79490476Y-143014047D01*
X79490476Y-142680714D01*
X79442857Y-142490238D01*
X79347619Y-142395000D01*
X79252380Y-142347380D01*
X79061904Y-142347380D01*
X78966666Y-142395000D01*
X78871428Y-142490238D01*
X78823809Y-142680714D01*
X78823809Y-143014047D01*
X78871428Y-143204523D01*
X78966666Y-143299761D01*
X79061904Y-143347380D01*
X79252380Y-143347380D01*
X77966666Y-142680714D02*
X77966666Y-143347380D01*
X78395238Y-142680714D02*
X78395238Y-143204523D01*
X78347619Y-143299761D01*
X78252380Y-143347380D01*
X78109523Y-143347380D01*
X78014285Y-143299761D01*
X77966666Y-143252142D01*
X77490476Y-143347380D02*
X77490476Y-142680714D01*
X77490476Y-142347380D02*
X77538095Y-142395000D01*
X77490476Y-142442619D01*
X77442857Y-142395000D01*
X77490476Y-142347380D01*
X77490476Y-142442619D01*
X76871428Y-143347380D02*
X76966666Y-143299761D01*
X77014285Y-143204523D01*
X77014285Y-142347380D01*
X76633333Y-142680714D02*
X76252380Y-142680714D01*
X76490476Y-142347380D02*
X76490476Y-143204523D01*
X76442857Y-143299761D01*
X76347619Y-143347380D01*
X76252380Y-143347380D01*
X75538095Y-143299761D02*
X75633333Y-143347380D01*
X75823809Y-143347380D01*
X75919047Y-143299761D01*
X75966666Y-143204523D01*
X75966666Y-142823571D01*
X75919047Y-142728333D01*
X75823809Y-142680714D01*
X75633333Y-142680714D01*
X75538095Y-142728333D01*
X75490476Y-142823571D01*
X75490476Y-142918809D01*
X75966666Y-143014047D01*
X75061904Y-143347380D02*
X75061904Y-142680714D01*
X75061904Y-142871190D02*
X75014285Y-142775952D01*
X74966666Y-142728333D01*
X74871428Y-142680714D01*
X74776190Y-142680714D01*
X73109523Y-143252142D02*
X73157142Y-143299761D01*
X73300000Y-143347380D01*
X73395238Y-143347380D01*
X73538095Y-143299761D01*
X73633333Y-143204523D01*
X73680952Y-143109285D01*
X73728571Y-142918809D01*
X73728571Y-142775952D01*
X73680952Y-142585476D01*
X73633333Y-142490238D01*
X73538095Y-142395000D01*
X73395238Y-142347380D01*
X73300000Y-142347380D01*
X73157142Y-142395000D01*
X73109523Y-142442619D01*
X72538095Y-143347380D02*
X72633333Y-143299761D01*
X72680952Y-143252142D01*
X72728571Y-143156904D01*
X72728571Y-142871190D01*
X72680952Y-142775952D01*
X72633333Y-142728333D01*
X72538095Y-142680714D01*
X72395238Y-142680714D01*
X72300000Y-142728333D01*
X72252380Y-142775952D01*
X72204761Y-142871190D01*
X72204761Y-143156904D01*
X72252380Y-143252142D01*
X72300000Y-143299761D01*
X72395238Y-143347380D01*
X72538095Y-143347380D01*
X71776190Y-143347380D02*
X71776190Y-142680714D01*
X71776190Y-142775952D02*
X71728571Y-142728333D01*
X71633333Y-142680714D01*
X71490476Y-142680714D01*
X71395238Y-142728333D01*
X71347619Y-142823571D01*
X71347619Y-143347380D01*
X71347619Y-142823571D02*
X71300000Y-142728333D01*
X71204761Y-142680714D01*
X71061904Y-142680714D01*
X70966666Y-142728333D01*
X70919047Y-142823571D01*
X70919047Y-143347380D01*
X70442857Y-142680714D02*
X70442857Y-143680714D01*
X70442857Y-142728333D02*
X70347619Y-142680714D01*
X70157142Y-142680714D01*
X70061904Y-142728333D01*
X70014285Y-142775952D01*
X69966666Y-142871190D01*
X69966666Y-143156904D01*
X70014285Y-143252142D01*
X70061904Y-143299761D01*
X70157142Y-143347380D01*
X70347619Y-143347380D01*
X70442857Y-143299761D01*
X69395238Y-143347380D02*
X69490476Y-143299761D01*
X69538095Y-143252142D01*
X69585714Y-143156904D01*
X69585714Y-142871190D01*
X69538095Y-142775952D01*
X69490476Y-142728333D01*
X69395238Y-142680714D01*
X69252380Y-142680714D01*
X69157142Y-142728333D01*
X69109523Y-142775952D01*
X69061904Y-142871190D01*
X69061904Y-143156904D01*
X69109523Y-143252142D01*
X69157142Y-143299761D01*
X69252380Y-143347380D01*
X69395238Y-143347380D01*
X68633333Y-142680714D02*
X68633333Y-143347380D01*
X68633333Y-142775952D02*
X68585714Y-142728333D01*
X68490476Y-142680714D01*
X68347619Y-142680714D01*
X68252380Y-142728333D01*
X68204761Y-142823571D01*
X68204761Y-143347380D01*
X67347619Y-143299761D02*
X67442857Y-143347380D01*
X67633333Y-143347380D01*
X67728571Y-143299761D01*
X67776190Y-143204523D01*
X67776190Y-142823571D01*
X67728571Y-142728333D01*
X67633333Y-142680714D01*
X67442857Y-142680714D01*
X67347619Y-142728333D01*
X67300000Y-142823571D01*
X67300000Y-142918809D01*
X67776190Y-143014047D01*
X66871428Y-142680714D02*
X66871428Y-143347380D01*
X66871428Y-142775952D02*
X66823809Y-142728333D01*
X66728571Y-142680714D01*
X66585714Y-142680714D01*
X66490476Y-142728333D01*
X66442857Y-142823571D01*
X66442857Y-143347380D01*
X66109523Y-142680714D02*
X65728571Y-142680714D01*
X65966666Y-142347380D02*
X65966666Y-143204523D01*
X65919047Y-143299761D01*
X65823809Y-143347380D01*
X65728571Y-143347380D01*
X65442857Y-143299761D02*
X65347619Y-143347380D01*
X65157142Y-143347380D01*
X65061904Y-143299761D01*
X65014285Y-143204523D01*
X65014285Y-143156904D01*
X65061904Y-143061666D01*
X65157142Y-143014047D01*
X65300000Y-143014047D01*
X65395238Y-142966428D01*
X65442857Y-142871190D01*
X65442857Y-142823571D01*
X65395238Y-142728333D01*
X65300000Y-142680714D01*
X65157142Y-142680714D01*
X65061904Y-142728333D01*
X63919047Y-142680714D02*
X63680952Y-143347380D01*
X63442857Y-142680714D01*
X62538095Y-143347380D02*
X63109523Y-143347380D01*
X62823809Y-143347380D02*
X62823809Y-142347380D01*
X62919047Y-142490238D01*
X63014285Y-142585476D01*
X63109523Y-142633095D01*
X62109523Y-143252142D02*
X62061904Y-143299761D01*
X62109523Y-143347380D01*
X62157142Y-143299761D01*
X62109523Y-143252142D01*
X62109523Y-143347380D01*
X61442857Y-142347380D02*
X61347619Y-142347380D01*
X61252380Y-142395000D01*
X61204761Y-142442619D01*
X61157142Y-142537857D01*
X61109523Y-142728333D01*
X61109523Y-142966428D01*
X61157142Y-143156904D01*
X61204761Y-143252142D01*
X61252380Y-143299761D01*
X61347619Y-143347380D01*
X61442857Y-143347380D01*
X61538095Y-143299761D01*
X61585714Y-143252142D01*
X61633333Y-143156904D01*
X61680952Y-142966428D01*
X61680952Y-142728333D01*
X61633333Y-142537857D01*
X61585714Y-142442619D01*
X61538095Y-142395000D01*
X61442857Y-142347380D01*
X76680952Y-144957380D02*
X76680952Y-143957380D01*
X76347619Y-144671666D01*
X76014285Y-143957380D01*
X76014285Y-144957380D01*
X75395238Y-144957380D02*
X75490476Y-144909761D01*
X75538095Y-144862142D01*
X75585714Y-144766904D01*
X75585714Y-144481190D01*
X75538095Y-144385952D01*
X75490476Y-144338333D01*
X75395238Y-144290714D01*
X75252380Y-144290714D01*
X75157142Y-144338333D01*
X75109523Y-144385952D01*
X75061904Y-144481190D01*
X75061904Y-144766904D01*
X75109523Y-144862142D01*
X75157142Y-144909761D01*
X75252380Y-144957380D01*
X75395238Y-144957380D01*
X74204761Y-144290714D02*
X74204761Y-144957380D01*
X74633333Y-144290714D02*
X74633333Y-144814523D01*
X74585714Y-144909761D01*
X74490476Y-144957380D01*
X74347619Y-144957380D01*
X74252380Y-144909761D01*
X74204761Y-144862142D01*
X73728571Y-144290714D02*
X73728571Y-144957380D01*
X73728571Y-144385952D02*
X73680952Y-144338333D01*
X73585714Y-144290714D01*
X73442857Y-144290714D01*
X73347619Y-144338333D01*
X73300000Y-144433571D01*
X73300000Y-144957380D01*
X72966666Y-144290714D02*
X72585714Y-144290714D01*
X72823809Y-143957380D02*
X72823809Y-144814523D01*
X72776190Y-144909761D01*
X72680952Y-144957380D01*
X72585714Y-144957380D01*
X72252380Y-144290714D02*
X72252380Y-145147857D01*
X72300000Y-145243095D01*
X72395238Y-145290714D01*
X72442857Y-145290714D01*
X72252380Y-143957380D02*
X72300000Y-144005000D01*
X72252380Y-144052619D01*
X72204761Y-144005000D01*
X72252380Y-143957380D01*
X72252380Y-144052619D01*
X71633333Y-144957380D02*
X71728571Y-144909761D01*
X71776190Y-144862142D01*
X71823809Y-144766904D01*
X71823809Y-144481190D01*
X71776190Y-144385952D01*
X71728571Y-144338333D01*
X71633333Y-144290714D01*
X71490476Y-144290714D01*
X71395238Y-144338333D01*
X71347619Y-144385952D01*
X71300000Y-144481190D01*
X71300000Y-144766904D01*
X71347619Y-144862142D01*
X71395238Y-144909761D01*
X71490476Y-144957380D01*
X71633333Y-144957380D01*
X70966666Y-144290714D02*
X70728571Y-144957380D01*
X70490476Y-144290714D02*
X70728571Y-144957380D01*
X70823809Y-145195476D01*
X70871428Y-145243095D01*
X70966666Y-145290714D01*
X69347619Y-144957380D02*
X69347619Y-143957380D01*
X69014285Y-144671666D01*
X68680952Y-143957380D01*
X68680952Y-144957380D01*
X68061904Y-144957380D02*
X68157142Y-144909761D01*
X68204761Y-144862142D01*
X68252380Y-144766904D01*
X68252380Y-144481190D01*
X68204761Y-144385952D01*
X68157142Y-144338333D01*
X68061904Y-144290714D01*
X67919047Y-144290714D01*
X67823809Y-144338333D01*
X67776190Y-144385952D01*
X67728571Y-144481190D01*
X67728571Y-144766904D01*
X67776190Y-144862142D01*
X67823809Y-144909761D01*
X67919047Y-144957380D01*
X68061904Y-144957380D01*
X66871428Y-144957380D02*
X66871428Y-143957380D01*
X66871428Y-144909761D02*
X66966666Y-144957380D01*
X67157142Y-144957380D01*
X67252380Y-144909761D01*
X67300000Y-144862142D01*
X67347619Y-144766904D01*
X67347619Y-144481190D01*
X67300000Y-144385952D01*
X67252380Y-144338333D01*
X67157142Y-144290714D01*
X66966666Y-144290714D01*
X66871428Y-144338333D01*
X65966666Y-144290714D02*
X65966666Y-144957380D01*
X66395238Y-144290714D02*
X66395238Y-144814523D01*
X66347619Y-144909761D01*
X66252380Y-144957380D01*
X66109523Y-144957380D01*
X66014285Y-144909761D01*
X65966666Y-144862142D01*
X65347619Y-144957380D02*
X65442857Y-144909761D01*
X65490476Y-144814523D01*
X65490476Y-143957380D01*
X64538095Y-144957380D02*
X64538095Y-144433571D01*
X64585714Y-144338333D01*
X64680952Y-144290714D01*
X64871428Y-144290714D01*
X64966666Y-144338333D01*
X64538095Y-144909761D02*
X64633333Y-144957380D01*
X64871428Y-144957380D01*
X64966666Y-144909761D01*
X65014285Y-144814523D01*
X65014285Y-144719285D01*
X64966666Y-144624047D01*
X64871428Y-144576428D01*
X64633333Y-144576428D01*
X64538095Y-144528809D01*
X64061904Y-144957380D02*
X64061904Y-144290714D01*
X64061904Y-144481190D02*
X64014285Y-144385952D01*
X63966666Y-144338333D01*
X63871428Y-144290714D01*
X63776190Y-144290714D01*
D11*
%TO.C,J3*%
X84313333Y-147352380D02*
X84313333Y-148066666D01*
X84360952Y-148209523D01*
X84456190Y-148304761D01*
X84599047Y-148352380D01*
X84694285Y-148352380D01*
X83932380Y-147352380D02*
X83313333Y-147352380D01*
X83646666Y-147733333D01*
X83503809Y-147733333D01*
X83408571Y-147780952D01*
X83360952Y-147828571D01*
X83313333Y-147923809D01*
X83313333Y-148161904D01*
X83360952Y-148257142D01*
X83408571Y-148304761D01*
X83503809Y-148352380D01*
X83789523Y-148352380D01*
X83884761Y-148304761D01*
X83932380Y-148257142D01*
%TO.C,J1*%
X52733333Y-59922380D02*
X52733333Y-60636666D01*
X52780952Y-60779523D01*
X52876190Y-60874761D01*
X53019047Y-60922380D01*
X53114285Y-60922380D01*
X51733333Y-60922380D02*
X52304761Y-60922380D01*
X52019047Y-60922380D02*
X52019047Y-59922380D01*
X52114285Y-60065238D01*
X52209523Y-60160476D01*
X52304761Y-60208095D01*
%TO.C,J2*%
X88233333Y-59922380D02*
X88233333Y-60636666D01*
X88280952Y-60779523D01*
X88376190Y-60874761D01*
X88519047Y-60922380D01*
X88614285Y-60922380D01*
X87804761Y-60017619D02*
X87757142Y-59970000D01*
X87661904Y-59922380D01*
X87423809Y-59922380D01*
X87328571Y-59970000D01*
X87280952Y-60017619D01*
X87233333Y-60112857D01*
X87233333Y-60208095D01*
X87280952Y-60350952D01*
X87852380Y-60922380D01*
X87233333Y-60922380D01*
D12*
%TO.C,J3*%
X81650000Y-149230000D02*
X82980000Y-149230000D01*
X82980000Y-149230000D02*
X82980000Y-147900000D01*
X80380000Y-146570000D02*
X57460000Y-146570000D01*
X57460000Y-149230000D02*
X57460000Y-146570000D01*
X80380000Y-149230000D02*
X80380000Y-146570000D01*
X80380000Y-149230000D02*
X57460000Y-149230000D01*
%TO.C,J1*%
X53730000Y-61470000D02*
X52400000Y-61470000D01*
X51070000Y-64070000D02*
X51070000Y-86990000D01*
X53730000Y-64070000D02*
X51070000Y-64070000D01*
X53730000Y-64070000D02*
X53730000Y-86990000D01*
X53730000Y-62800000D02*
X53730000Y-61470000D01*
X53730000Y-86990000D02*
X51070000Y-86990000D01*
%TO.C,J2*%
X89230000Y-61470000D02*
X87900000Y-61470000D01*
X89230000Y-64070000D02*
X89230000Y-86990000D01*
X89230000Y-64070000D02*
X86570000Y-64070000D01*
X89230000Y-86990000D02*
X86570000Y-86990000D01*
X86570000Y-64070000D02*
X86570000Y-86990000D01*
X89230000Y-62800000D02*
X89230000Y-61470000D01*
%TD*%
%LPC*%
D13*
%TO.C,J4*%
X65060000Y-57000000D03*
D14*
X65060000Y-54460000D03*
X67600000Y-57000000D03*
X67600000Y-54460000D03*
X70140000Y-57000000D03*
X70140000Y-54460000D03*
X72680000Y-57000000D03*
X72680000Y-54460000D03*
X75220000Y-57000000D03*
X75220000Y-54460000D03*
%TD*%
D15*
%TO.C,TP2*%
X56800000Y-62500000D03*
%TD*%
%TO.C,TP4*%
X80400000Y-62600000D03*
%TD*%
%TO.C,TP1*%
X84100000Y-62600000D03*
%TD*%
%TO.C,TP3*%
X88400000Y-148000000D03*
%TD*%
D13*
%TO.C,J3*%
X81650000Y-147900000D03*
D16*
X79110000Y-147900000D03*
X76570000Y-147900000D03*
X74030000Y-147900000D03*
X71490000Y-147900000D03*
X68950000Y-147900000D03*
X66410000Y-147900000D03*
X63870000Y-147900000D03*
X61330000Y-147900000D03*
X58790000Y-147900000D03*
%TD*%
D13*
%TO.C,J1*%
X52400000Y-62800000D03*
D16*
X52400000Y-65340000D03*
X52400000Y-67880000D03*
X52400000Y-70420000D03*
X52400000Y-72960000D03*
X52400000Y-75500000D03*
X52400000Y-78040000D03*
X52400000Y-80580000D03*
X52400000Y-83120000D03*
X52400000Y-85660000D03*
%TD*%
D13*
%TO.C,J2*%
X87900000Y-62800000D03*
D16*
X87900000Y-65340000D03*
X87900000Y-67880000D03*
X87900000Y-70420000D03*
X87900000Y-72960000D03*
X87900000Y-75500000D03*
X87900000Y-78040000D03*
X87900000Y-80580000D03*
X87900000Y-83120000D03*
X87900000Y-85660000D03*
%TD*%
D17*
X74200000Y-135700000D03*
X65800000Y-123300000D03*
X65700000Y-99200000D03*
X74500000Y-105800000D03*
X74600000Y-69300000D03*
X65800000Y-93800000D03*
X65800000Y-82100000D03*
X65900000Y-128700000D03*
D18*
X85500000Y-122500000D03*
X69200000Y-128300000D03*
X61500000Y-135800000D03*
X77800000Y-87300000D03*
X77800000Y-75900000D03*
X78900000Y-70200000D03*
X61500000Y-106300000D03*
X78900000Y-125100000D03*
X78900000Y-130400000D03*
X61600000Y-123300000D03*
X71700000Y-141400000D03*
X61500000Y-111700000D03*
X85600000Y-93000000D03*
X54800000Y-135300000D03*
X78900000Y-135800000D03*
X69200000Y-101400000D03*
X71200000Y-98800000D03*
X61500000Y-99200000D03*
X66100000Y-71300000D03*
X61500000Y-128700000D03*
X78800000Y-100900000D03*
X71200000Y-130900000D03*
X61500000Y-93800000D03*
X54700000Y-125700000D03*
X72800000Y-112700000D03*
X74100000Y-71500000D03*
X81600000Y-105800000D03*
X54800000Y-105800000D03*
X78800000Y-95600000D03*
X71200000Y-128300000D03*
X69200000Y-98800000D03*
X78800000Y-106300000D03*
X81600000Y-135300000D03*
X54700000Y-122500000D03*
X69200000Y-130900000D03*
X69100000Y-69000000D03*
X71300000Y-69000000D03*
X61300000Y-80900000D03*
X61600000Y-141200000D03*
X54800000Y-96200000D03*
X71200000Y-101400000D03*
X78900000Y-117900000D03*
X61600000Y-70200000D03*
D17*
X65722500Y-141422500D03*
X74570000Y-100670000D03*
X74500000Y-87100000D03*
X74500000Y-76000000D03*
X84700000Y-139300000D03*
X55600000Y-112700000D03*
X74630000Y-130170000D03*
X55700000Y-142300000D03*
X85675500Y-108500000D03*
X65700000Y-113200000D03*
X65700000Y-69300000D03*
X74500000Y-116500000D03*
D18*
X74510000Y-96290000D03*
X79100000Y-79000000D03*
X61550000Y-77300000D03*
X65790000Y-103910000D03*
X79100000Y-80900000D03*
X74610000Y-125790000D03*
X65790000Y-133410000D03*
X61487500Y-79087500D03*
X52399999Y-106499999D03*
X51225000Y-103925000D03*
X87000000Y-97800000D03*
X87821710Y-129002889D03*
X53500000Y-133700000D03*
X55162299Y-94037701D03*
X84500000Y-137900000D03*
X84500000Y-108500000D03*
X55024500Y-123900000D03*
X54400000Y-99400000D03*
X86000000Y-102600000D03*
X86500000Y-130500000D03*
X54600000Y-132000000D03*
M02*
