%TF.GenerationSoftware,KiCad,Pcbnew,(6.0.11)*%
%TF.CreationDate,2023-03-01T16:41:18+00:00*%
%TF.ProjectId,Quilter_Components,5175696c-7465-4725-9f43-6f6d706f6e65,rev?*%
%TF.SameCoordinates,Original*%
%TF.FileFunction,Soldermask,Bot*%
%TF.FilePolarity,Negative*%
%FSLAX46Y46*%
G04 Gerber Fmt 4.6, Leading zero omitted, Abs format (unit mm)*
G04 Created by KiCad (PCBNEW (6.0.11)) date 2023-03-01 16:41:18*
%MOMM*%
%LPD*%
G01*
G04 APERTURE LIST*
%ADD10R,1.700000X1.700000*%
%ADD11C,1.700000*%
%ADD12C,2.000000*%
%ADD13O,1.700000X1.700000*%
%ADD14C,1.000000*%
%ADD15C,0.800000*%
G04 APERTURE END LIST*
D10*
%TO.C,J4*%
X65060000Y-57000000D03*
D11*
X65060000Y-54460000D03*
X67600000Y-57000000D03*
X67600000Y-54460000D03*
X70140000Y-57000000D03*
X70140000Y-54460000D03*
X72680000Y-57000000D03*
X72680000Y-54460000D03*
X75220000Y-57000000D03*
X75220000Y-54460000D03*
%TD*%
D12*
%TO.C,TP2*%
X56800000Y-62500000D03*
%TD*%
%TO.C,TP4*%
X80400000Y-62600000D03*
%TD*%
%TO.C,TP1*%
X84100000Y-62600000D03*
%TD*%
%TO.C,TP3*%
X88400000Y-148000000D03*
%TD*%
D10*
%TO.C,J3*%
X81650000Y-147900000D03*
D13*
X79110000Y-147900000D03*
X76570000Y-147900000D03*
X74030000Y-147900000D03*
X71490000Y-147900000D03*
X68950000Y-147900000D03*
X66410000Y-147900000D03*
X63870000Y-147900000D03*
X61330000Y-147900000D03*
X58790000Y-147900000D03*
%TD*%
D10*
%TO.C,J1*%
X52400000Y-62800000D03*
D13*
X52400000Y-65340000D03*
X52400000Y-67880000D03*
X52400000Y-70420000D03*
X52400000Y-72960000D03*
X52400000Y-75500000D03*
X52400000Y-78040000D03*
X52400000Y-80580000D03*
X52400000Y-83120000D03*
X52400000Y-85660000D03*
%TD*%
D10*
%TO.C,J2*%
X87900000Y-62800000D03*
D13*
X87900000Y-65340000D03*
X87900000Y-67880000D03*
X87900000Y-70420000D03*
X87900000Y-72960000D03*
X87900000Y-75500000D03*
X87900000Y-78040000D03*
X87900000Y-80580000D03*
X87900000Y-83120000D03*
X87900000Y-85660000D03*
%TD*%
D14*
X74200000Y-135700000D03*
X65800000Y-123300000D03*
X65700000Y-99200000D03*
X74500000Y-105800000D03*
X74600000Y-69300000D03*
X65800000Y-93800000D03*
X65800000Y-82100000D03*
X65900000Y-128700000D03*
D15*
X85500000Y-122500000D03*
X69200000Y-128300000D03*
X61500000Y-135800000D03*
X77800000Y-87300000D03*
X77800000Y-75900000D03*
X78900000Y-70200000D03*
X61500000Y-106300000D03*
X78900000Y-125100000D03*
X78900000Y-130400000D03*
X61600000Y-123300000D03*
X71700000Y-141400000D03*
X61500000Y-111700000D03*
X85600000Y-93000000D03*
X54800000Y-135300000D03*
X78900000Y-135800000D03*
X69200000Y-101400000D03*
X71200000Y-98800000D03*
X61500000Y-99200000D03*
X66100000Y-71300000D03*
X61500000Y-128700000D03*
X78800000Y-100900000D03*
X71200000Y-130900000D03*
X61500000Y-93800000D03*
X54700000Y-125700000D03*
X72800000Y-112700000D03*
X74100000Y-71500000D03*
X81600000Y-105800000D03*
X54800000Y-105800000D03*
X78800000Y-95600000D03*
X71200000Y-128300000D03*
X69200000Y-98800000D03*
X78800000Y-106300000D03*
X81600000Y-135300000D03*
X54700000Y-122500000D03*
X69200000Y-130900000D03*
X69100000Y-69000000D03*
X71300000Y-69000000D03*
X61300000Y-80900000D03*
X61600000Y-141200000D03*
X54800000Y-96200000D03*
X71200000Y-101400000D03*
X78900000Y-117900000D03*
X61600000Y-70200000D03*
D14*
X65722500Y-141422500D03*
X74570000Y-100670000D03*
X74500000Y-87100000D03*
X74500000Y-76000000D03*
X84700000Y-139300000D03*
X55600000Y-112700000D03*
X74630000Y-130170000D03*
X55700000Y-142300000D03*
X85675500Y-108500000D03*
X65700000Y-113200000D03*
X65700000Y-69300000D03*
X74500000Y-116500000D03*
D15*
X74510000Y-96290000D03*
X79100000Y-79000000D03*
X61550000Y-77300000D03*
X65790000Y-103910000D03*
X79100000Y-80900000D03*
X74610000Y-125790000D03*
X65790000Y-133410000D03*
X61487500Y-79087500D03*
X52399999Y-106499999D03*
X51225000Y-103925000D03*
X87000000Y-97800000D03*
X87821710Y-129002889D03*
X53500000Y-133700000D03*
X55162299Y-94037701D03*
X84500000Y-137900000D03*
X84500000Y-108500000D03*
X55024500Y-123900000D03*
X54400000Y-99400000D03*
X86000000Y-102600000D03*
X86500000Y-130500000D03*
X54600000Y-132000000D03*
M02*
