%TF.GenerationSoftware,KiCad,Pcbnew,(6.0.11)*%
%TF.CreationDate,2023-07-04T16:35:11+01:00*%
%TF.ProjectId,Quilter_Components,5175696c-7465-4725-9f43-6f6d706f6e65,rev?*%
%TF.SameCoordinates,Original*%
%TF.FileFunction,Legend,Top*%
%TF.FilePolarity,Positive*%
%FSLAX46Y46*%
G04 Gerber Fmt 4.6, Leading zero omitted, Abs format (unit mm)*
G04 Created by KiCad (PCBNEW (6.0.11)) date 2023-07-04 16:35:11*
%MOMM*%
%LPD*%
G01*
G04 APERTURE LIST*
G04 Aperture macros list*
%AMRoundRect*
0 Rectangle with rounded corners*
0 $1 Rounding radius*
0 $2 $3 $4 $5 $6 $7 $8 $9 X,Y pos of 4 corners*
0 Add a 4 corners polygon primitive as box body*
4,1,4,$2,$3,$4,$5,$6,$7,$8,$9,$2,$3,0*
0 Add four circle primitives for the rounded corners*
1,1,$1+$1,$2,$3*
1,1,$1+$1,$4,$5*
1,1,$1+$1,$6,$7*
1,1,$1+$1,$8,$9*
0 Add four rect primitives between the rounded corners*
20,1,$1+$1,$2,$3,$4,$5,0*
20,1,$1+$1,$4,$5,$6,$7,0*
20,1,$1+$1,$6,$7,$8,$9,0*
20,1,$1+$1,$8,$9,$2,$3,0*%
G04 Aperture macros list end*
%ADD10C,0.357843*%
%ADD11C,0.150000*%
%ADD12C,0.200000*%
%ADD13C,0.120000*%
%ADD14C,0.100000*%
%ADD15RoundRect,0.237500X0.300000X0.237500X-0.300000X0.237500X-0.300000X-0.237500X0.300000X-0.237500X0*%
%ADD16RoundRect,0.150000X0.825000X0.150000X-0.825000X0.150000X-0.825000X-0.150000X0.825000X-0.150000X0*%
%ADD17RoundRect,0.237500X0.250000X0.237500X-0.250000X0.237500X-0.250000X-0.237500X0.250000X-0.237500X0*%
%ADD18R,1.200000X1.200000*%
%ADD19R,1.500000X1.600000*%
%ADD20RoundRect,0.237500X-0.300000X-0.237500X0.300000X-0.237500X0.300000X0.237500X-0.300000X0.237500X0*%
%ADD21R,1.200000X0.900000*%
%ADD22RoundRect,0.237500X-0.250000X-0.237500X0.250000X-0.237500X0.250000X0.237500X-0.250000X0.237500X0*%
%ADD23R,1.700000X1.700000*%
%ADD24C,1.700000*%
%ADD25RoundRect,0.150000X-0.825000X-0.150000X0.825000X-0.150000X0.825000X0.150000X-0.825000X0.150000X0*%
%ADD26RoundRect,0.250000X0.550000X-1.050000X0.550000X1.050000X-0.550000X1.050000X-0.550000X-1.050000X0*%
%ADD27C,2.000000*%
%ADD28R,1.200000X0.400000*%
%ADD29RoundRect,0.150000X0.725000X0.150000X-0.725000X0.150000X-0.725000X-0.150000X0.725000X-0.150000X0*%
%ADD30O,1.700000X1.700000*%
G04 APERTURE END LIST*
D10*
X66078921Y-96300000D02*
G75*
G03*
X66078921Y-96300000I-178921J0D01*
G01*
X74678921Y-75000000D02*
G75*
G03*
X74678921Y-75000000I-178921J0D01*
G01*
X66078921Y-107500000D02*
G75*
G03*
X66078921Y-107500000I-178921J0D01*
G01*
D11*
X51400000Y-143100000D02*
X53100000Y-143100000D01*
X53100000Y-143100000D02*
X53100000Y-143300000D01*
X53100000Y-143300000D02*
X51400000Y-143300000D01*
X51400000Y-143300000D02*
X51400000Y-143100000D01*
G36*
X51400000Y-143100000D02*
G01*
X53100000Y-143100000D01*
X53100000Y-143300000D01*
X51400000Y-143300000D01*
X51400000Y-143100000D01*
G37*
X51400000Y-120700000D02*
X51600000Y-120700000D01*
X51600000Y-120700000D02*
X51600000Y-143100000D01*
X51600000Y-143100000D02*
X51400000Y-143100000D01*
X51400000Y-143100000D02*
X51400000Y-120700000D01*
G36*
X51400000Y-120700000D02*
G01*
X51600000Y-120700000D01*
X51600000Y-143100000D01*
X51400000Y-143100000D01*
X51400000Y-120700000D01*
G37*
D10*
X66078921Y-125700000D02*
G75*
G03*
X66078921Y-125700000I-178921J0D01*
G01*
D11*
X87400000Y-116200000D02*
X88900000Y-116200000D01*
X88900000Y-116200000D02*
X88900000Y-116400000D01*
X88900000Y-116400000D02*
X87400000Y-116400000D01*
X87400000Y-116400000D02*
X87400000Y-116200000D01*
G36*
X87400000Y-116200000D02*
G01*
X88900000Y-116200000D01*
X88900000Y-116400000D01*
X87400000Y-116400000D01*
X87400000Y-116200000D01*
G37*
X88900000Y-112200000D02*
X88700000Y-112200000D01*
X88700000Y-112200000D02*
X88700000Y-113600000D01*
X88700000Y-113600000D02*
X88900000Y-113600000D01*
X88900000Y-113600000D02*
X88900000Y-112200000D01*
G36*
X88900000Y-112200000D02*
G01*
X88700000Y-112200000D01*
X88700000Y-113600000D01*
X88900000Y-113600000D01*
X88900000Y-112200000D01*
G37*
X51600000Y-109400000D02*
X51400000Y-109400000D01*
X51400000Y-109400000D02*
X51400000Y-89400000D01*
X51400000Y-89400000D02*
X51600000Y-89400000D01*
X51600000Y-89400000D02*
X51600000Y-109400000D01*
G36*
X51600000Y-109400000D02*
G01*
X51400000Y-109400000D01*
X51400000Y-89400000D01*
X51600000Y-89400000D01*
X51600000Y-109400000D01*
G37*
D10*
X74678921Y-92700000D02*
G75*
G03*
X74678921Y-92700000I-178921J0D01*
G01*
X66078921Y-136982843D02*
G75*
G03*
X66078921Y-136982843I-178921J0D01*
G01*
D11*
X51400000Y-113400000D02*
X53200000Y-113400000D01*
X53200000Y-113400000D02*
X53200000Y-113600000D01*
X53200000Y-113600000D02*
X51400000Y-113600000D01*
X51400000Y-113600000D02*
X51400000Y-113400000D01*
G36*
X51400000Y-113400000D02*
G01*
X53200000Y-113400000D01*
X53200000Y-113600000D01*
X51400000Y-113600000D01*
X51400000Y-113400000D01*
G37*
X51400000Y-89400000D02*
X53200000Y-89400000D01*
X53200000Y-89400000D02*
X53200000Y-89600000D01*
X53200000Y-89600000D02*
X51400000Y-89600000D01*
X51400000Y-89600000D02*
X51400000Y-89400000D01*
G36*
X51400000Y-89400000D02*
G01*
X53200000Y-89400000D01*
X53200000Y-89600000D01*
X51400000Y-89600000D01*
X51400000Y-89400000D01*
G37*
X51400000Y-117500000D02*
X51600000Y-117500000D01*
X51600000Y-117500000D02*
X51600000Y-116100000D01*
X51600000Y-116100000D02*
X51400000Y-116100000D01*
X51400000Y-116100000D02*
X51400000Y-117500000D01*
G36*
X51400000Y-117500000D02*
G01*
X51600000Y-117500000D01*
X51600000Y-116100000D01*
X51400000Y-116100000D01*
X51400000Y-117500000D01*
G37*
X87100000Y-89600000D02*
X88900000Y-89600000D01*
X88900000Y-89600000D02*
X88900000Y-89800000D01*
X88900000Y-89800000D02*
X87100000Y-89800000D01*
X87100000Y-89800000D02*
X87100000Y-89600000D01*
G36*
X87100000Y-89600000D02*
G01*
X88900000Y-89600000D01*
X88900000Y-89800000D01*
X87100000Y-89800000D01*
X87100000Y-89600000D01*
G37*
X51600000Y-112200000D02*
X51400000Y-112200000D01*
X51400000Y-112200000D02*
X51400000Y-113600000D01*
X51400000Y-113600000D02*
X51600000Y-113600000D01*
X51600000Y-113600000D02*
X51600000Y-112200000D01*
G36*
X51600000Y-112200000D02*
G01*
X51400000Y-112200000D01*
X51400000Y-113600000D01*
X51600000Y-113600000D01*
X51600000Y-112200000D01*
G37*
X51400000Y-116100000D02*
X53200000Y-116100000D01*
X53200000Y-116100000D02*
X53200000Y-116300000D01*
X53200000Y-116300000D02*
X51400000Y-116300000D01*
X51400000Y-116300000D02*
X51400000Y-116100000D01*
G36*
X51400000Y-116100000D02*
G01*
X53200000Y-116100000D01*
X53200000Y-116300000D01*
X51400000Y-116300000D01*
X51400000Y-116100000D01*
G37*
X88900000Y-109400000D02*
X88700000Y-109400000D01*
X88700000Y-109400000D02*
X88700000Y-89700000D01*
X88700000Y-89700000D02*
X88900000Y-89700000D01*
X88900000Y-89700000D02*
X88900000Y-109400000D01*
G36*
X88900000Y-109400000D02*
G01*
X88700000Y-109400000D01*
X88700000Y-89700000D01*
X88900000Y-89700000D01*
X88900000Y-109400000D01*
G37*
D10*
X74678921Y-82400000D02*
G75*
G03*
X74678921Y-82400000I-178921J0D01*
G01*
D11*
X87250000Y-143100000D02*
X88850000Y-143100000D01*
X88850000Y-143100000D02*
X88850000Y-143300000D01*
X88850000Y-143300000D02*
X87250000Y-143300000D01*
X87250000Y-143300000D02*
X87250000Y-143100000D01*
G36*
X87250000Y-143100000D02*
G01*
X88850000Y-143100000D01*
X88850000Y-143300000D01*
X87250000Y-143300000D01*
X87250000Y-143100000D01*
G37*
X88700000Y-117500000D02*
X88900000Y-117500000D01*
X88900000Y-117500000D02*
X88900000Y-116200000D01*
X88900000Y-116200000D02*
X88700000Y-116200000D01*
X88700000Y-116200000D02*
X88700000Y-117500000D01*
G36*
X88700000Y-117500000D02*
G01*
X88900000Y-117500000D01*
X88900000Y-116200000D01*
X88700000Y-116200000D01*
X88700000Y-117500000D01*
G37*
D10*
X74678921Y-122200000D02*
G75*
G03*
X74678921Y-122200000I-178921J0D01*
G01*
D11*
X87350000Y-113400000D02*
X88850000Y-113400000D01*
X88850000Y-113400000D02*
X88850000Y-113600000D01*
X88850000Y-113600000D02*
X87350000Y-113600000D01*
X87350000Y-113600000D02*
X87350000Y-113400000D01*
G36*
X87350000Y-113400000D02*
G01*
X88850000Y-113400000D01*
X88850000Y-113600000D01*
X87350000Y-113600000D01*
X87350000Y-113400000D01*
G37*
X88700000Y-120700000D02*
X88900000Y-120700000D01*
X88900000Y-120700000D02*
X88900000Y-143300000D01*
X88900000Y-143300000D02*
X88700000Y-143300000D01*
X88700000Y-143300000D02*
X88700000Y-120700000D01*
G36*
X88700000Y-120700000D02*
G01*
X88900000Y-120700000D01*
X88900000Y-143300000D01*
X88700000Y-143300000D01*
X88700000Y-120700000D01*
G37*
D12*
X53957142Y-143128571D02*
X53623809Y-143128571D01*
X53623809Y-143652380D02*
X53623809Y-142652380D01*
X54100000Y-142652380D01*
X54480952Y-143652380D02*
X54480952Y-142985714D01*
X54480952Y-143176190D02*
X54528571Y-143080952D01*
X54576190Y-143033333D01*
X54671428Y-142985714D01*
X54766666Y-142985714D01*
X55480952Y-143604761D02*
X55385714Y-143652380D01*
X55195238Y-143652380D01*
X55100000Y-143604761D01*
X55052380Y-143509523D01*
X55052380Y-143128571D01*
X55100000Y-143033333D01*
X55195238Y-142985714D01*
X55385714Y-142985714D01*
X55480952Y-143033333D01*
X55528571Y-143128571D01*
X55528571Y-143223809D01*
X55052380Y-143319047D01*
X56385714Y-142985714D02*
X56385714Y-143985714D01*
X56385714Y-143604761D02*
X56290476Y-143652380D01*
X56100000Y-143652380D01*
X56004761Y-143604761D01*
X55957142Y-143557142D01*
X55909523Y-143461904D01*
X55909523Y-143176190D01*
X55957142Y-143080952D01*
X56004761Y-143033333D01*
X56100000Y-142985714D01*
X56290476Y-142985714D01*
X56385714Y-143033333D01*
X57814285Y-142652380D02*
X58004761Y-142652380D01*
X58100000Y-142700000D01*
X58195238Y-142795238D01*
X58242857Y-142985714D01*
X58242857Y-143319047D01*
X58195238Y-143509523D01*
X58100000Y-143604761D01*
X58004761Y-143652380D01*
X57814285Y-143652380D01*
X57719047Y-143604761D01*
X57623809Y-143509523D01*
X57576190Y-143319047D01*
X57576190Y-142985714D01*
X57623809Y-142795238D01*
X57719047Y-142700000D01*
X57814285Y-142652380D01*
X58528571Y-142985714D02*
X58909523Y-142985714D01*
X58671428Y-143652380D02*
X58671428Y-142795238D01*
X58719047Y-142700000D01*
X58814285Y-142652380D01*
X58909523Y-142652380D01*
X59100000Y-142985714D02*
X59480952Y-142985714D01*
X59242857Y-143652380D02*
X59242857Y-142795238D01*
X59290476Y-142700000D01*
X59385714Y-142652380D01*
X59480952Y-142652380D01*
X59766666Y-143604761D02*
X59861904Y-143652380D01*
X60052380Y-143652380D01*
X60147619Y-143604761D01*
X60195238Y-143509523D01*
X60195238Y-143461904D01*
X60147619Y-143366666D01*
X60052380Y-143319047D01*
X59909523Y-143319047D01*
X59814285Y-143271428D01*
X59766666Y-143176190D01*
X59766666Y-143128571D01*
X59814285Y-143033333D01*
X59909523Y-142985714D01*
X60052380Y-142985714D01*
X60147619Y-143033333D01*
X61004761Y-143604761D02*
X60909523Y-143652380D01*
X60719047Y-143652380D01*
X60623809Y-143604761D01*
X60576190Y-143509523D01*
X60576190Y-143128571D01*
X60623809Y-143033333D01*
X60719047Y-142985714D01*
X60909523Y-142985714D01*
X61004761Y-143033333D01*
X61052380Y-143128571D01*
X61052380Y-143223809D01*
X60576190Y-143319047D01*
X61338095Y-142985714D02*
X61719047Y-142985714D01*
X61480952Y-142652380D02*
X61480952Y-143509523D01*
X61528571Y-143604761D01*
X61623809Y-143652380D01*
X61719047Y-143652380D01*
X78757142Y-143128571D02*
X78423809Y-143128571D01*
X78423809Y-143652380D02*
X78423809Y-142652380D01*
X78900000Y-142652380D01*
X79280952Y-143652380D02*
X79280952Y-142985714D01*
X79280952Y-143176190D02*
X79328571Y-143080952D01*
X79376190Y-143033333D01*
X79471428Y-142985714D01*
X79566666Y-142985714D01*
X80280952Y-143604761D02*
X80185714Y-143652380D01*
X79995238Y-143652380D01*
X79900000Y-143604761D01*
X79852380Y-143509523D01*
X79852380Y-143128571D01*
X79900000Y-143033333D01*
X79995238Y-142985714D01*
X80185714Y-142985714D01*
X80280952Y-143033333D01*
X80328571Y-143128571D01*
X80328571Y-143223809D01*
X79852380Y-143319047D01*
X81185714Y-142985714D02*
X81185714Y-143985714D01*
X81185714Y-143604761D02*
X81090476Y-143652380D01*
X80900000Y-143652380D01*
X80804761Y-143604761D01*
X80757142Y-143557142D01*
X80709523Y-143461904D01*
X80709523Y-143176190D01*
X80757142Y-143080952D01*
X80804761Y-143033333D01*
X80900000Y-142985714D01*
X81090476Y-142985714D01*
X81185714Y-143033333D01*
X82614285Y-142652380D02*
X82804761Y-142652380D01*
X82900000Y-142700000D01*
X82995238Y-142795238D01*
X83042857Y-142985714D01*
X83042857Y-143319047D01*
X82995238Y-143509523D01*
X82900000Y-143604761D01*
X82804761Y-143652380D01*
X82614285Y-143652380D01*
X82519047Y-143604761D01*
X82423809Y-143509523D01*
X82376190Y-143319047D01*
X82376190Y-142985714D01*
X82423809Y-142795238D01*
X82519047Y-142700000D01*
X82614285Y-142652380D01*
X83328571Y-142985714D02*
X83709523Y-142985714D01*
X83471428Y-143652380D02*
X83471428Y-142795238D01*
X83519047Y-142700000D01*
X83614285Y-142652380D01*
X83709523Y-142652380D01*
X83900000Y-142985714D02*
X84280952Y-142985714D01*
X84042857Y-143652380D02*
X84042857Y-142795238D01*
X84090476Y-142700000D01*
X84185714Y-142652380D01*
X84280952Y-142652380D01*
X84566666Y-143604761D02*
X84661904Y-143652380D01*
X84852380Y-143652380D01*
X84947619Y-143604761D01*
X84995238Y-143509523D01*
X84995238Y-143461904D01*
X84947619Y-143366666D01*
X84852380Y-143319047D01*
X84709523Y-143319047D01*
X84614285Y-143271428D01*
X84566666Y-143176190D01*
X84566666Y-143128571D01*
X84614285Y-143033333D01*
X84709523Y-142985714D01*
X84852380Y-142985714D01*
X84947619Y-143033333D01*
X85804761Y-143604761D02*
X85709523Y-143652380D01*
X85519047Y-143652380D01*
X85423809Y-143604761D01*
X85376190Y-143509523D01*
X85376190Y-143128571D01*
X85423809Y-143033333D01*
X85519047Y-142985714D01*
X85709523Y-142985714D01*
X85804761Y-143033333D01*
X85852380Y-143128571D01*
X85852380Y-143223809D01*
X85376190Y-143319047D01*
X86138095Y-142985714D02*
X86519047Y-142985714D01*
X86280952Y-142652380D02*
X86280952Y-143509523D01*
X86328571Y-143604761D01*
X86423809Y-143652380D01*
X86519047Y-143652380D01*
X54157142Y-113528571D02*
X53823809Y-113528571D01*
X53823809Y-114052380D02*
X53823809Y-113052380D01*
X54300000Y-113052380D01*
X54680952Y-114052380D02*
X54680952Y-113385714D01*
X54680952Y-113576190D02*
X54728571Y-113480952D01*
X54776190Y-113433333D01*
X54871428Y-113385714D01*
X54966666Y-113385714D01*
X55680952Y-114004761D02*
X55585714Y-114052380D01*
X55395238Y-114052380D01*
X55300000Y-114004761D01*
X55252380Y-113909523D01*
X55252380Y-113528571D01*
X55300000Y-113433333D01*
X55395238Y-113385714D01*
X55585714Y-113385714D01*
X55680952Y-113433333D01*
X55728571Y-113528571D01*
X55728571Y-113623809D01*
X55252380Y-113719047D01*
X56585714Y-113385714D02*
X56585714Y-114385714D01*
X56585714Y-114004761D02*
X56490476Y-114052380D01*
X56300000Y-114052380D01*
X56204761Y-114004761D01*
X56157142Y-113957142D01*
X56109523Y-113861904D01*
X56109523Y-113576190D01*
X56157142Y-113480952D01*
X56204761Y-113433333D01*
X56300000Y-113385714D01*
X56490476Y-113385714D01*
X56585714Y-113433333D01*
X58014285Y-113052380D02*
X58204761Y-113052380D01*
X58300000Y-113100000D01*
X58395238Y-113195238D01*
X58442857Y-113385714D01*
X58442857Y-113719047D01*
X58395238Y-113909523D01*
X58300000Y-114004761D01*
X58204761Y-114052380D01*
X58014285Y-114052380D01*
X57919047Y-114004761D01*
X57823809Y-113909523D01*
X57776190Y-113719047D01*
X57776190Y-113385714D01*
X57823809Y-113195238D01*
X57919047Y-113100000D01*
X58014285Y-113052380D01*
X58728571Y-113385714D02*
X59109523Y-113385714D01*
X58871428Y-114052380D02*
X58871428Y-113195238D01*
X58919047Y-113100000D01*
X59014285Y-113052380D01*
X59109523Y-113052380D01*
X59300000Y-113385714D02*
X59680952Y-113385714D01*
X59442857Y-114052380D02*
X59442857Y-113195238D01*
X59490476Y-113100000D01*
X59585714Y-113052380D01*
X59680952Y-113052380D01*
X59966666Y-114004761D02*
X60061904Y-114052380D01*
X60252380Y-114052380D01*
X60347619Y-114004761D01*
X60395238Y-113909523D01*
X60395238Y-113861904D01*
X60347619Y-113766666D01*
X60252380Y-113719047D01*
X60109523Y-113719047D01*
X60014285Y-113671428D01*
X59966666Y-113576190D01*
X59966666Y-113528571D01*
X60014285Y-113433333D01*
X60109523Y-113385714D01*
X60252380Y-113385714D01*
X60347619Y-113433333D01*
X61204761Y-114004761D02*
X61109523Y-114052380D01*
X60919047Y-114052380D01*
X60823809Y-114004761D01*
X60776190Y-113909523D01*
X60776190Y-113528571D01*
X60823809Y-113433333D01*
X60919047Y-113385714D01*
X61109523Y-113385714D01*
X61204761Y-113433333D01*
X61252380Y-113528571D01*
X61252380Y-113623809D01*
X60776190Y-113719047D01*
X61538095Y-113385714D02*
X61919047Y-113385714D01*
X61680952Y-113052380D02*
X61680952Y-113909523D01*
X61728571Y-114004761D01*
X61823809Y-114052380D01*
X61919047Y-114052380D01*
D11*
X55866666Y-147352380D02*
X55866666Y-148066666D01*
X55819047Y-148209523D01*
X55723809Y-148304761D01*
X55580952Y-148352380D01*
X55485714Y-148352380D01*
X56247619Y-147352380D02*
X56866666Y-147352380D01*
X56533333Y-147733333D01*
X56676190Y-147733333D01*
X56771428Y-147780952D01*
X56819047Y-147828571D01*
X56866666Y-147923809D01*
X56866666Y-148161904D01*
X56819047Y-148257142D01*
X56771428Y-148304761D01*
X56676190Y-148352380D01*
X56390476Y-148352380D01*
X56295238Y-148304761D01*
X56247619Y-148257142D01*
D12*
X81904761Y-85952380D02*
X82238095Y-86952380D01*
X82571428Y-85952380D01*
X83619047Y-85904761D02*
X82761904Y-87190476D01*
X84142857Y-85952380D02*
X84333333Y-85952380D01*
X84428571Y-86000000D01*
X84523809Y-86095238D01*
X84571428Y-86285714D01*
X84571428Y-86619047D01*
X84523809Y-86809523D01*
X84428571Y-86904761D01*
X84333333Y-86952380D01*
X84142857Y-86952380D01*
X84047619Y-86904761D01*
X83952380Y-86809523D01*
X83904761Y-86619047D01*
X83904761Y-86285714D01*
X83952380Y-86095238D01*
X84047619Y-86000000D01*
X84142857Y-85952380D01*
X85428571Y-86904761D02*
X85333333Y-86952380D01*
X85142857Y-86952380D01*
X85047619Y-86904761D01*
X85000000Y-86857142D01*
X84952380Y-86761904D01*
X84952380Y-86476190D01*
X85000000Y-86380952D01*
X85047619Y-86333333D01*
X85142857Y-86285714D01*
X85333333Y-86285714D01*
X85428571Y-86333333D01*
X85714285Y-86285714D02*
X86095238Y-86285714D01*
X85857142Y-85952380D02*
X85857142Y-86809523D01*
X85904761Y-86904761D01*
X86000000Y-86952380D01*
X86095238Y-86952380D01*
X54304761Y-86052380D02*
X54638095Y-87052380D01*
X54971428Y-86052380D01*
X56019047Y-86004761D02*
X55161904Y-87290476D01*
X56542857Y-86052380D02*
X56733333Y-86052380D01*
X56828571Y-86100000D01*
X56923809Y-86195238D01*
X56971428Y-86385714D01*
X56971428Y-86719047D01*
X56923809Y-86909523D01*
X56828571Y-87004761D01*
X56733333Y-87052380D01*
X56542857Y-87052380D01*
X56447619Y-87004761D01*
X56352380Y-86909523D01*
X56304761Y-86719047D01*
X56304761Y-86385714D01*
X56352380Y-86195238D01*
X56447619Y-86100000D01*
X56542857Y-86052380D01*
X57828571Y-87004761D02*
X57733333Y-87052380D01*
X57542857Y-87052380D01*
X57447619Y-87004761D01*
X57399999Y-86957142D01*
X57352380Y-86861904D01*
X57352380Y-86576190D01*
X57399999Y-86480952D01*
X57447619Y-86433333D01*
X57542857Y-86385714D01*
X57733333Y-86385714D01*
X57828571Y-86433333D01*
X58114285Y-86385714D02*
X58495238Y-86385714D01*
X58257142Y-86052380D02*
X58257142Y-86909523D01*
X58304761Y-87004761D01*
X58399999Y-87052380D01*
X58495238Y-87052380D01*
X53804761Y-115652380D02*
X54138095Y-116652380D01*
X54471428Y-115652380D01*
X55519047Y-115604761D02*
X54661904Y-116890476D01*
X56042857Y-115652380D02*
X56233333Y-115652380D01*
X56328571Y-115700000D01*
X56423809Y-115795238D01*
X56471428Y-115985714D01*
X56471428Y-116319047D01*
X56423809Y-116509523D01*
X56328571Y-116604761D01*
X56233333Y-116652380D01*
X56042857Y-116652380D01*
X55947619Y-116604761D01*
X55852380Y-116509523D01*
X55804761Y-116319047D01*
X55804761Y-115985714D01*
X55852380Y-115795238D01*
X55947619Y-115700000D01*
X56042857Y-115652380D01*
X57328571Y-116604761D02*
X57233333Y-116652380D01*
X57042857Y-116652380D01*
X56947619Y-116604761D01*
X56899999Y-116557142D01*
X56852380Y-116461904D01*
X56852380Y-116176190D01*
X56899999Y-116080952D01*
X56947619Y-116033333D01*
X57042857Y-115985714D01*
X57233333Y-115985714D01*
X57328571Y-116033333D01*
X57614285Y-115985714D02*
X57995238Y-115985714D01*
X57757142Y-115652380D02*
X57757142Y-116509523D01*
X57804761Y-116604761D01*
X57899999Y-116652380D01*
X57995238Y-116652380D01*
D11*
X52066666Y-59952380D02*
X52066666Y-60666666D01*
X52019047Y-60809523D01*
X51923809Y-60904761D01*
X51780952Y-60952380D01*
X51685714Y-60952380D01*
X53066666Y-60952380D02*
X52495238Y-60952380D01*
X52780952Y-60952380D02*
X52780952Y-59952380D01*
X52685714Y-60095238D01*
X52590476Y-60190476D01*
X52495238Y-60238095D01*
X87666666Y-59952380D02*
X87666666Y-60666666D01*
X87619047Y-60809523D01*
X87523809Y-60904761D01*
X87380952Y-60952380D01*
X87285714Y-60952380D01*
X88095238Y-60047619D02*
X88142857Y-60000000D01*
X88238095Y-59952380D01*
X88476190Y-59952380D01*
X88571428Y-60000000D01*
X88619047Y-60047619D01*
X88666666Y-60142857D01*
X88666666Y-60238095D01*
X88619047Y-60380952D01*
X88047619Y-60952380D01*
X88666666Y-60952380D01*
D12*
X78757142Y-113528571D02*
X78423809Y-113528571D01*
X78423809Y-114052380D02*
X78423809Y-113052380D01*
X78900000Y-113052380D01*
X79280952Y-114052380D02*
X79280952Y-113385714D01*
X79280952Y-113576190D02*
X79328571Y-113480952D01*
X79376190Y-113433333D01*
X79471428Y-113385714D01*
X79566666Y-113385714D01*
X80280952Y-114004761D02*
X80185714Y-114052380D01*
X79995238Y-114052380D01*
X79900000Y-114004761D01*
X79852380Y-113909523D01*
X79852380Y-113528571D01*
X79900000Y-113433333D01*
X79995238Y-113385714D01*
X80185714Y-113385714D01*
X80280952Y-113433333D01*
X80328571Y-113528571D01*
X80328571Y-113623809D01*
X79852380Y-113719047D01*
X81185714Y-113385714D02*
X81185714Y-114385714D01*
X81185714Y-114004761D02*
X81090476Y-114052380D01*
X80900000Y-114052380D01*
X80804761Y-114004761D01*
X80757142Y-113957142D01*
X80709523Y-113861904D01*
X80709523Y-113576190D01*
X80757142Y-113480952D01*
X80804761Y-113433333D01*
X80900000Y-113385714D01*
X81090476Y-113385714D01*
X81185714Y-113433333D01*
X82614285Y-113052380D02*
X82804761Y-113052380D01*
X82900000Y-113100000D01*
X82995238Y-113195238D01*
X83042857Y-113385714D01*
X83042857Y-113719047D01*
X82995238Y-113909523D01*
X82900000Y-114004761D01*
X82804761Y-114052380D01*
X82614285Y-114052380D01*
X82519047Y-114004761D01*
X82423809Y-113909523D01*
X82376190Y-113719047D01*
X82376190Y-113385714D01*
X82423809Y-113195238D01*
X82519047Y-113100000D01*
X82614285Y-113052380D01*
X83328571Y-113385714D02*
X83709523Y-113385714D01*
X83471428Y-114052380D02*
X83471428Y-113195238D01*
X83519047Y-113100000D01*
X83614285Y-113052380D01*
X83709523Y-113052380D01*
X83900000Y-113385714D02*
X84280952Y-113385714D01*
X84042857Y-114052380D02*
X84042857Y-113195238D01*
X84090476Y-113100000D01*
X84185714Y-113052380D01*
X84280952Y-113052380D01*
X84566666Y-114004761D02*
X84661904Y-114052380D01*
X84852380Y-114052380D01*
X84947619Y-114004761D01*
X84995238Y-113909523D01*
X84995238Y-113861904D01*
X84947619Y-113766666D01*
X84852380Y-113719047D01*
X84709523Y-113719047D01*
X84614285Y-113671428D01*
X84566666Y-113576190D01*
X84566666Y-113528571D01*
X84614285Y-113433333D01*
X84709523Y-113385714D01*
X84852380Y-113385714D01*
X84947619Y-113433333D01*
X85804761Y-114004761D02*
X85709523Y-114052380D01*
X85519047Y-114052380D01*
X85423809Y-114004761D01*
X85376190Y-113909523D01*
X85376190Y-113528571D01*
X85423809Y-113433333D01*
X85519047Y-113385714D01*
X85709523Y-113385714D01*
X85804761Y-113433333D01*
X85852380Y-113528571D01*
X85852380Y-113623809D01*
X85376190Y-113719047D01*
X86138095Y-113385714D02*
X86519047Y-113385714D01*
X86280952Y-113052380D02*
X86280952Y-113909523D01*
X86328571Y-114004761D01*
X86423809Y-114052380D01*
X86519047Y-114052380D01*
X82404761Y-115652380D02*
X82738095Y-116652380D01*
X83071428Y-115652380D01*
X84119047Y-115604761D02*
X83261904Y-116890476D01*
X84642857Y-115652380D02*
X84833333Y-115652380D01*
X84928571Y-115700000D01*
X85023809Y-115795238D01*
X85071428Y-115985714D01*
X85071428Y-116319047D01*
X85023809Y-116509523D01*
X84928571Y-116604761D01*
X84833333Y-116652380D01*
X84642857Y-116652380D01*
X84547619Y-116604761D01*
X84452380Y-116509523D01*
X84404761Y-116319047D01*
X84404761Y-115985714D01*
X84452380Y-115795238D01*
X84547619Y-115700000D01*
X84642857Y-115652380D01*
X85928571Y-116604761D02*
X85833333Y-116652380D01*
X85642857Y-116652380D01*
X85547619Y-116604761D01*
X85500000Y-116557142D01*
X85452380Y-116461904D01*
X85452380Y-116176190D01*
X85500000Y-116080952D01*
X85547619Y-116033333D01*
X85642857Y-115985714D01*
X85833333Y-115985714D01*
X85928571Y-116033333D01*
X86214285Y-115985714D02*
X86595238Y-115985714D01*
X86357142Y-115652380D02*
X86357142Y-116509523D01*
X86404761Y-116604761D01*
X86500000Y-116652380D01*
X86595238Y-116652380D01*
D11*
%TO.C,C33*%
X59557142Y-137957142D02*
X59509523Y-138004761D01*
X59366666Y-138052380D01*
X59271428Y-138052380D01*
X59128571Y-138004761D01*
X59033333Y-137909523D01*
X58985714Y-137814285D01*
X58938095Y-137623809D01*
X58938095Y-137480952D01*
X58985714Y-137290476D01*
X59033333Y-137195238D01*
X59128571Y-137100000D01*
X59271428Y-137052380D01*
X59366666Y-137052380D01*
X59509523Y-137100000D01*
X59557142Y-137147619D01*
X59890476Y-137052380D02*
X60509523Y-137052380D01*
X60176190Y-137433333D01*
X60319047Y-137433333D01*
X60414285Y-137480952D01*
X60461904Y-137528571D01*
X60509523Y-137623809D01*
X60509523Y-137861904D01*
X60461904Y-137957142D01*
X60414285Y-138004761D01*
X60319047Y-138052380D01*
X60033333Y-138052380D01*
X59938095Y-138004761D01*
X59890476Y-137957142D01*
X60842857Y-137052380D02*
X61461904Y-137052380D01*
X61128571Y-137433333D01*
X61271428Y-137433333D01*
X61366666Y-137480952D01*
X61414285Y-137528571D01*
X61461904Y-137623809D01*
X61461904Y-137861904D01*
X61414285Y-137957142D01*
X61366666Y-138004761D01*
X61271428Y-138052380D01*
X60985714Y-138052380D01*
X60890476Y-138004761D01*
X60842857Y-137957142D01*
%TO.C,U2*%
X69438095Y-75132380D02*
X69438095Y-75941904D01*
X69485714Y-76037142D01*
X69533333Y-76084761D01*
X69628571Y-76132380D01*
X69819047Y-76132380D01*
X69914285Y-76084761D01*
X69961904Y-76037142D01*
X70009523Y-75941904D01*
X70009523Y-75132380D01*
X70438095Y-75227619D02*
X70485714Y-75180000D01*
X70580952Y-75132380D01*
X70819047Y-75132380D01*
X70914285Y-75180000D01*
X70961904Y-75227619D01*
X71009523Y-75322857D01*
X71009523Y-75418095D01*
X70961904Y-75560952D01*
X70390476Y-76132380D01*
X71009523Y-76132380D01*
%TO.C,R44*%
X52857142Y-134152380D02*
X52523809Y-133676190D01*
X52285714Y-134152380D02*
X52285714Y-133152380D01*
X52666666Y-133152380D01*
X52761904Y-133200000D01*
X52809523Y-133247619D01*
X52857142Y-133342857D01*
X52857142Y-133485714D01*
X52809523Y-133580952D01*
X52761904Y-133628571D01*
X52666666Y-133676190D01*
X52285714Y-133676190D01*
X53714285Y-133485714D02*
X53714285Y-134152380D01*
X53476190Y-133104761D02*
X53238095Y-133819047D01*
X53857142Y-133819047D01*
X54666666Y-133485714D02*
X54666666Y-134152380D01*
X54428571Y-133104761D02*
X54190476Y-133819047D01*
X54809523Y-133819047D01*
%TO.C,R23*%
X52857142Y-96682380D02*
X52523809Y-96206190D01*
X52285714Y-96682380D02*
X52285714Y-95682380D01*
X52666666Y-95682380D01*
X52761904Y-95730000D01*
X52809523Y-95777619D01*
X52857142Y-95872857D01*
X52857142Y-96015714D01*
X52809523Y-96110952D01*
X52761904Y-96158571D01*
X52666666Y-96206190D01*
X52285714Y-96206190D01*
X53238095Y-95777619D02*
X53285714Y-95730000D01*
X53380952Y-95682380D01*
X53619047Y-95682380D01*
X53714285Y-95730000D01*
X53761904Y-95777619D01*
X53809523Y-95872857D01*
X53809523Y-95968095D01*
X53761904Y-96110952D01*
X53190476Y-96682380D01*
X53809523Y-96682380D01*
X54142857Y-95682380D02*
X54761904Y-95682380D01*
X54428571Y-96063333D01*
X54571428Y-96063333D01*
X54666666Y-96110952D01*
X54714285Y-96158571D01*
X54761904Y-96253809D01*
X54761904Y-96491904D01*
X54714285Y-96587142D01*
X54666666Y-96634761D01*
X54571428Y-96682380D01*
X54285714Y-96682380D01*
X54190476Y-96634761D01*
X54142857Y-96587142D01*
%TO.C,C4*%
X79433333Y-71957142D02*
X79385714Y-72004761D01*
X79242857Y-72052380D01*
X79147619Y-72052380D01*
X79004761Y-72004761D01*
X78909523Y-71909523D01*
X78861904Y-71814285D01*
X78814285Y-71623809D01*
X78814285Y-71480952D01*
X78861904Y-71290476D01*
X78909523Y-71195238D01*
X79004761Y-71100000D01*
X79147619Y-71052380D01*
X79242857Y-71052380D01*
X79385714Y-71100000D01*
X79433333Y-71147619D01*
X80290476Y-71385714D02*
X80290476Y-72052380D01*
X80052380Y-71004761D02*
X79814285Y-71719047D01*
X80433333Y-71719047D01*
%TO.C,D1*%
X87861904Y-52752380D02*
X87861904Y-51752380D01*
X88100000Y-51752380D01*
X88242857Y-51800000D01*
X88338095Y-51895238D01*
X88385714Y-51990476D01*
X88433333Y-52180952D01*
X88433333Y-52323809D01*
X88385714Y-52514285D01*
X88338095Y-52609523D01*
X88242857Y-52704761D01*
X88100000Y-52752380D01*
X87861904Y-52752380D01*
X89385714Y-52752380D02*
X88814285Y-52752380D01*
X89100000Y-52752380D02*
X89100000Y-51752380D01*
X89004761Y-51895238D01*
X88909523Y-51990476D01*
X88814285Y-52038095D01*
%TO.C,R53*%
X52857142Y-124552380D02*
X52523809Y-124076190D01*
X52285714Y-124552380D02*
X52285714Y-123552380D01*
X52666666Y-123552380D01*
X52761904Y-123600000D01*
X52809523Y-123647619D01*
X52857142Y-123742857D01*
X52857142Y-123885714D01*
X52809523Y-123980952D01*
X52761904Y-124028571D01*
X52666666Y-124076190D01*
X52285714Y-124076190D01*
X53761904Y-123552380D02*
X53285714Y-123552380D01*
X53238095Y-124028571D01*
X53285714Y-123980952D01*
X53380952Y-123933333D01*
X53619047Y-123933333D01*
X53714285Y-123980952D01*
X53761904Y-124028571D01*
X53809523Y-124123809D01*
X53809523Y-124361904D01*
X53761904Y-124457142D01*
X53714285Y-124504761D01*
X53619047Y-124552380D01*
X53380952Y-124552380D01*
X53285714Y-124504761D01*
X53238095Y-124457142D01*
X54142857Y-123552380D02*
X54761904Y-123552380D01*
X54428571Y-123933333D01*
X54571428Y-123933333D01*
X54666666Y-123980952D01*
X54714285Y-124028571D01*
X54761904Y-124123809D01*
X54761904Y-124361904D01*
X54714285Y-124457142D01*
X54666666Y-124504761D01*
X54571428Y-124552380D01*
X54285714Y-124552380D01*
X54190476Y-124504761D01*
X54142857Y-124457142D01*
%TO.C,C38*%
X79457142Y-90557142D02*
X79409523Y-90604761D01*
X79266666Y-90652380D01*
X79171428Y-90652380D01*
X79028571Y-90604761D01*
X78933333Y-90509523D01*
X78885714Y-90414285D01*
X78838095Y-90223809D01*
X78838095Y-90080952D01*
X78885714Y-89890476D01*
X78933333Y-89795238D01*
X79028571Y-89700000D01*
X79171428Y-89652380D01*
X79266666Y-89652380D01*
X79409523Y-89700000D01*
X79457142Y-89747619D01*
X79790476Y-89652380D02*
X80409523Y-89652380D01*
X80076190Y-90033333D01*
X80219047Y-90033333D01*
X80314285Y-90080952D01*
X80361904Y-90128571D01*
X80409523Y-90223809D01*
X80409523Y-90461904D01*
X80361904Y-90557142D01*
X80314285Y-90604761D01*
X80219047Y-90652380D01*
X79933333Y-90652380D01*
X79838095Y-90604761D01*
X79790476Y-90557142D01*
X80980952Y-90080952D02*
X80885714Y-90033333D01*
X80838095Y-89985714D01*
X80790476Y-89890476D01*
X80790476Y-89842857D01*
X80838095Y-89747619D01*
X80885714Y-89700000D01*
X80980952Y-89652380D01*
X81171428Y-89652380D01*
X81266666Y-89700000D01*
X81314285Y-89747619D01*
X81361904Y-89842857D01*
X81361904Y-89890476D01*
X81314285Y-89985714D01*
X81266666Y-90033333D01*
X81171428Y-90080952D01*
X80980952Y-90080952D01*
X80885714Y-90128571D01*
X80838095Y-90176190D01*
X80790476Y-90271428D01*
X80790476Y-90461904D01*
X80838095Y-90557142D01*
X80885714Y-90604761D01*
X80980952Y-90652380D01*
X81171428Y-90652380D01*
X81266666Y-90604761D01*
X81314285Y-90557142D01*
X81361904Y-90461904D01*
X81361904Y-90271428D01*
X81314285Y-90176190D01*
X81266666Y-90128571D01*
X81171428Y-90080952D01*
%TO.C,R65*%
X86157142Y-134152380D02*
X85823809Y-133676190D01*
X85585714Y-134152380D02*
X85585714Y-133152380D01*
X85966666Y-133152380D01*
X86061904Y-133200000D01*
X86109523Y-133247619D01*
X86157142Y-133342857D01*
X86157142Y-133485714D01*
X86109523Y-133580952D01*
X86061904Y-133628571D01*
X85966666Y-133676190D01*
X85585714Y-133676190D01*
X87014285Y-133152380D02*
X86823809Y-133152380D01*
X86728571Y-133200000D01*
X86680952Y-133247619D01*
X86585714Y-133390476D01*
X86538095Y-133580952D01*
X86538095Y-133961904D01*
X86585714Y-134057142D01*
X86633333Y-134104761D01*
X86728571Y-134152380D01*
X86919047Y-134152380D01*
X87014285Y-134104761D01*
X87061904Y-134057142D01*
X87109523Y-133961904D01*
X87109523Y-133723809D01*
X87061904Y-133628571D01*
X87014285Y-133580952D01*
X86919047Y-133533333D01*
X86728571Y-133533333D01*
X86633333Y-133580952D01*
X86585714Y-133628571D01*
X86538095Y-133723809D01*
X88014285Y-133152380D02*
X87538095Y-133152380D01*
X87490476Y-133628571D01*
X87538095Y-133580952D01*
X87633333Y-133533333D01*
X87871428Y-133533333D01*
X87966666Y-133580952D01*
X88014285Y-133628571D01*
X88061904Y-133723809D01*
X88061904Y-133961904D01*
X88014285Y-134057142D01*
X87966666Y-134104761D01*
X87871428Y-134152380D01*
X87633333Y-134152380D01*
X87538095Y-134104761D01*
X87490476Y-134057142D01*
%TO.C,C45*%
X59657142Y-129057142D02*
X59609523Y-129104761D01*
X59466666Y-129152380D01*
X59371428Y-129152380D01*
X59228571Y-129104761D01*
X59133333Y-129009523D01*
X59085714Y-128914285D01*
X59038095Y-128723809D01*
X59038095Y-128580952D01*
X59085714Y-128390476D01*
X59133333Y-128295238D01*
X59228571Y-128200000D01*
X59371428Y-128152380D01*
X59466666Y-128152380D01*
X59609523Y-128200000D01*
X59657142Y-128247619D01*
X60514285Y-128485714D02*
X60514285Y-129152380D01*
X60276190Y-128104761D02*
X60038095Y-128819047D01*
X60657142Y-128819047D01*
X61514285Y-128152380D02*
X61038095Y-128152380D01*
X60990476Y-128628571D01*
X61038095Y-128580952D01*
X61133333Y-128533333D01*
X61371428Y-128533333D01*
X61466666Y-128580952D01*
X61514285Y-128628571D01*
X61561904Y-128723809D01*
X61561904Y-128961904D01*
X61514285Y-129057142D01*
X61466666Y-129104761D01*
X61371428Y-129152380D01*
X61133333Y-129152380D01*
X61038095Y-129104761D01*
X60990476Y-129057142D01*
%TO.C,R58*%
X86157142Y-132552380D02*
X85823809Y-132076190D01*
X85585714Y-132552380D02*
X85585714Y-131552380D01*
X85966666Y-131552380D01*
X86061904Y-131600000D01*
X86109523Y-131647619D01*
X86157142Y-131742857D01*
X86157142Y-131885714D01*
X86109523Y-131980952D01*
X86061904Y-132028571D01*
X85966666Y-132076190D01*
X85585714Y-132076190D01*
X87061904Y-131552380D02*
X86585714Y-131552380D01*
X86538095Y-132028571D01*
X86585714Y-131980952D01*
X86680952Y-131933333D01*
X86919047Y-131933333D01*
X87014285Y-131980952D01*
X87061904Y-132028571D01*
X87109523Y-132123809D01*
X87109523Y-132361904D01*
X87061904Y-132457142D01*
X87014285Y-132504761D01*
X86919047Y-132552380D01*
X86680952Y-132552380D01*
X86585714Y-132504761D01*
X86538095Y-132457142D01*
X87680952Y-131980952D02*
X87585714Y-131933333D01*
X87538095Y-131885714D01*
X87490476Y-131790476D01*
X87490476Y-131742857D01*
X87538095Y-131647619D01*
X87585714Y-131600000D01*
X87680952Y-131552380D01*
X87871428Y-131552380D01*
X87966666Y-131600000D01*
X88014285Y-131647619D01*
X88061904Y-131742857D01*
X88061904Y-131790476D01*
X88014285Y-131885714D01*
X87966666Y-131933333D01*
X87871428Y-131980952D01*
X87680952Y-131980952D01*
X87585714Y-132028571D01*
X87538095Y-132076190D01*
X87490476Y-132171428D01*
X87490476Y-132361904D01*
X87538095Y-132457142D01*
X87585714Y-132504761D01*
X87680952Y-132552380D01*
X87871428Y-132552380D01*
X87966666Y-132504761D01*
X88014285Y-132457142D01*
X88061904Y-132361904D01*
X88061904Y-132171428D01*
X88014285Y-132076190D01*
X87966666Y-132028571D01*
X87871428Y-131980952D01*
%TO.C,C10*%
X79457142Y-97757142D02*
X79409523Y-97804761D01*
X79266666Y-97852380D01*
X79171428Y-97852380D01*
X79028571Y-97804761D01*
X78933333Y-97709523D01*
X78885714Y-97614285D01*
X78838095Y-97423809D01*
X78838095Y-97280952D01*
X78885714Y-97090476D01*
X78933333Y-96995238D01*
X79028571Y-96900000D01*
X79171428Y-96852380D01*
X79266666Y-96852380D01*
X79409523Y-96900000D01*
X79457142Y-96947619D01*
X80409523Y-97852380D02*
X79838095Y-97852380D01*
X80123809Y-97852380D02*
X80123809Y-96852380D01*
X80028571Y-96995238D01*
X79933333Y-97090476D01*
X79838095Y-97138095D01*
X81028571Y-96852380D02*
X81123809Y-96852380D01*
X81219047Y-96900000D01*
X81266666Y-96947619D01*
X81314285Y-97042857D01*
X81361904Y-97233333D01*
X81361904Y-97471428D01*
X81314285Y-97661904D01*
X81266666Y-97757142D01*
X81219047Y-97804761D01*
X81123809Y-97852380D01*
X81028571Y-97852380D01*
X80933333Y-97804761D01*
X80885714Y-97757142D01*
X80838095Y-97661904D01*
X80790476Y-97471428D01*
X80790476Y-97233333D01*
X80838095Y-97042857D01*
X80885714Y-96947619D01*
X80933333Y-96900000D01*
X81028571Y-96852380D01*
%TO.C,R76*%
X59657142Y-63152380D02*
X59323809Y-62676190D01*
X59085714Y-63152380D02*
X59085714Y-62152380D01*
X59466666Y-62152380D01*
X59561904Y-62200000D01*
X59609523Y-62247619D01*
X59657142Y-62342857D01*
X59657142Y-62485714D01*
X59609523Y-62580952D01*
X59561904Y-62628571D01*
X59466666Y-62676190D01*
X59085714Y-62676190D01*
X59990476Y-62152380D02*
X60657142Y-62152380D01*
X60228571Y-63152380D01*
X61466666Y-62152380D02*
X61276190Y-62152380D01*
X61180952Y-62200000D01*
X61133333Y-62247619D01*
X61038095Y-62390476D01*
X60990476Y-62580952D01*
X60990476Y-62961904D01*
X61038095Y-63057142D01*
X61085714Y-63104761D01*
X61180952Y-63152380D01*
X61371428Y-63152380D01*
X61466666Y-63104761D01*
X61514285Y-63057142D01*
X61561904Y-62961904D01*
X61561904Y-62723809D01*
X61514285Y-62628571D01*
X61466666Y-62580952D01*
X61371428Y-62533333D01*
X61180952Y-62533333D01*
X61085714Y-62580952D01*
X61038095Y-62628571D01*
X60990476Y-62723809D01*
%TO.C,C14*%
X79457142Y-110244642D02*
X79409523Y-110292261D01*
X79266666Y-110339880D01*
X79171428Y-110339880D01*
X79028571Y-110292261D01*
X78933333Y-110197023D01*
X78885714Y-110101785D01*
X78838095Y-109911309D01*
X78838095Y-109768452D01*
X78885714Y-109577976D01*
X78933333Y-109482738D01*
X79028571Y-109387500D01*
X79171428Y-109339880D01*
X79266666Y-109339880D01*
X79409523Y-109387500D01*
X79457142Y-109435119D01*
X80409523Y-110339880D02*
X79838095Y-110339880D01*
X80123809Y-110339880D02*
X80123809Y-109339880D01*
X80028571Y-109482738D01*
X79933333Y-109577976D01*
X79838095Y-109625595D01*
X81266666Y-109673214D02*
X81266666Y-110339880D01*
X81028571Y-109292261D02*
X80790476Y-110006547D01*
X81409523Y-110006547D01*
%TO.C,R35*%
X79457142Y-103152380D02*
X79123809Y-102676190D01*
X78885714Y-103152380D02*
X78885714Y-102152380D01*
X79266666Y-102152380D01*
X79361904Y-102200000D01*
X79409523Y-102247619D01*
X79457142Y-102342857D01*
X79457142Y-102485714D01*
X79409523Y-102580952D01*
X79361904Y-102628571D01*
X79266666Y-102676190D01*
X78885714Y-102676190D01*
X79790476Y-102152380D02*
X80409523Y-102152380D01*
X80076190Y-102533333D01*
X80219047Y-102533333D01*
X80314285Y-102580952D01*
X80361904Y-102628571D01*
X80409523Y-102723809D01*
X80409523Y-102961904D01*
X80361904Y-103057142D01*
X80314285Y-103104761D01*
X80219047Y-103152380D01*
X79933333Y-103152380D01*
X79838095Y-103104761D01*
X79790476Y-103057142D01*
X81314285Y-102152380D02*
X80838095Y-102152380D01*
X80790476Y-102628571D01*
X80838095Y-102580952D01*
X80933333Y-102533333D01*
X81171428Y-102533333D01*
X81266666Y-102580952D01*
X81314285Y-102628571D01*
X81361904Y-102723809D01*
X81361904Y-102961904D01*
X81314285Y-103057142D01*
X81266666Y-103104761D01*
X81171428Y-103152380D01*
X80933333Y-103152380D01*
X80838095Y-103104761D01*
X80790476Y-103057142D01*
%TO.C,R2*%
X79533333Y-81752380D02*
X79200000Y-81276190D01*
X78961904Y-81752380D02*
X78961904Y-80752380D01*
X79342857Y-80752380D01*
X79438095Y-80800000D01*
X79485714Y-80847619D01*
X79533333Y-80942857D01*
X79533333Y-81085714D01*
X79485714Y-81180952D01*
X79438095Y-81228571D01*
X79342857Y-81276190D01*
X78961904Y-81276190D01*
X79914285Y-80847619D02*
X79961904Y-80800000D01*
X80057142Y-80752380D01*
X80295238Y-80752380D01*
X80390476Y-80800000D01*
X80438095Y-80847619D01*
X80485714Y-80942857D01*
X80485714Y-81038095D01*
X80438095Y-81180952D01*
X79866666Y-81752380D01*
X80485714Y-81752380D01*
%TO.C,C30*%
X79457142Y-139744642D02*
X79409523Y-139792261D01*
X79266666Y-139839880D01*
X79171428Y-139839880D01*
X79028571Y-139792261D01*
X78933333Y-139697023D01*
X78885714Y-139601785D01*
X78838095Y-139411309D01*
X78838095Y-139268452D01*
X78885714Y-139077976D01*
X78933333Y-138982738D01*
X79028571Y-138887500D01*
X79171428Y-138839880D01*
X79266666Y-138839880D01*
X79409523Y-138887500D01*
X79457142Y-138935119D01*
X79790476Y-138839880D02*
X80409523Y-138839880D01*
X80076190Y-139220833D01*
X80219047Y-139220833D01*
X80314285Y-139268452D01*
X80361904Y-139316071D01*
X80409523Y-139411309D01*
X80409523Y-139649404D01*
X80361904Y-139744642D01*
X80314285Y-139792261D01*
X80219047Y-139839880D01*
X79933333Y-139839880D01*
X79838095Y-139792261D01*
X79790476Y-139744642D01*
X81028571Y-138839880D02*
X81123809Y-138839880D01*
X81219047Y-138887500D01*
X81266666Y-138935119D01*
X81314285Y-139030357D01*
X81361904Y-139220833D01*
X81361904Y-139458928D01*
X81314285Y-139649404D01*
X81266666Y-139744642D01*
X81219047Y-139792261D01*
X81123809Y-139839880D01*
X81028571Y-139839880D01*
X80933333Y-139792261D01*
X80885714Y-139744642D01*
X80838095Y-139649404D01*
X80790476Y-139458928D01*
X80790476Y-139220833D01*
X80838095Y-139030357D01*
X80885714Y-138935119D01*
X80933333Y-138887500D01*
X81028571Y-138839880D01*
%TO.C,C3*%
X60633333Y-83457142D02*
X60585714Y-83504761D01*
X60442857Y-83552380D01*
X60347619Y-83552380D01*
X60204761Y-83504761D01*
X60109523Y-83409523D01*
X60061904Y-83314285D01*
X60014285Y-83123809D01*
X60014285Y-82980952D01*
X60061904Y-82790476D01*
X60109523Y-82695238D01*
X60204761Y-82600000D01*
X60347619Y-82552380D01*
X60442857Y-82552380D01*
X60585714Y-82600000D01*
X60633333Y-82647619D01*
X60966666Y-82552380D02*
X61585714Y-82552380D01*
X61252380Y-82933333D01*
X61395238Y-82933333D01*
X61490476Y-82980952D01*
X61538095Y-83028571D01*
X61585714Y-83123809D01*
X61585714Y-83361904D01*
X61538095Y-83457142D01*
X61490476Y-83504761D01*
X61395238Y-83552380D01*
X61109523Y-83552380D01*
X61014285Y-83504761D01*
X60966666Y-83457142D01*
%TO.C,R21*%
X52857142Y-98252380D02*
X52523809Y-97776190D01*
X52285714Y-98252380D02*
X52285714Y-97252380D01*
X52666666Y-97252380D01*
X52761904Y-97300000D01*
X52809523Y-97347619D01*
X52857142Y-97442857D01*
X52857142Y-97585714D01*
X52809523Y-97680952D01*
X52761904Y-97728571D01*
X52666666Y-97776190D01*
X52285714Y-97776190D01*
X53238095Y-97347619D02*
X53285714Y-97300000D01*
X53380952Y-97252380D01*
X53619047Y-97252380D01*
X53714285Y-97300000D01*
X53761904Y-97347619D01*
X53809523Y-97442857D01*
X53809523Y-97538095D01*
X53761904Y-97680952D01*
X53190476Y-98252380D01*
X53809523Y-98252380D01*
X54761904Y-98252380D02*
X54190476Y-98252380D01*
X54476190Y-98252380D02*
X54476190Y-97252380D01*
X54380952Y-97395238D01*
X54285714Y-97490476D01*
X54190476Y-97538095D01*
%TO.C,C28*%
X79457142Y-118257142D02*
X79409523Y-118304761D01*
X79266666Y-118352380D01*
X79171428Y-118352380D01*
X79028571Y-118304761D01*
X78933333Y-118209523D01*
X78885714Y-118114285D01*
X78838095Y-117923809D01*
X78838095Y-117780952D01*
X78885714Y-117590476D01*
X78933333Y-117495238D01*
X79028571Y-117400000D01*
X79171428Y-117352380D01*
X79266666Y-117352380D01*
X79409523Y-117400000D01*
X79457142Y-117447619D01*
X79838095Y-117447619D02*
X79885714Y-117400000D01*
X79980952Y-117352380D01*
X80219047Y-117352380D01*
X80314285Y-117400000D01*
X80361904Y-117447619D01*
X80409523Y-117542857D01*
X80409523Y-117638095D01*
X80361904Y-117780952D01*
X79790476Y-118352380D01*
X80409523Y-118352380D01*
X80980952Y-117780952D02*
X80885714Y-117733333D01*
X80838095Y-117685714D01*
X80790476Y-117590476D01*
X80790476Y-117542857D01*
X80838095Y-117447619D01*
X80885714Y-117400000D01*
X80980952Y-117352380D01*
X81171428Y-117352380D01*
X81266666Y-117400000D01*
X81314285Y-117447619D01*
X81361904Y-117542857D01*
X81361904Y-117590476D01*
X81314285Y-117685714D01*
X81266666Y-117733333D01*
X81171428Y-117780952D01*
X80980952Y-117780952D01*
X80885714Y-117828571D01*
X80838095Y-117876190D01*
X80790476Y-117971428D01*
X80790476Y-118161904D01*
X80838095Y-118257142D01*
X80885714Y-118304761D01*
X80980952Y-118352380D01*
X81171428Y-118352380D01*
X81266666Y-118304761D01*
X81314285Y-118257142D01*
X81361904Y-118161904D01*
X81361904Y-117971428D01*
X81314285Y-117876190D01*
X81266666Y-117828571D01*
X81171428Y-117780952D01*
%TO.C,R42*%
X79457142Y-125552380D02*
X79123809Y-125076190D01*
X78885714Y-125552380D02*
X78885714Y-124552380D01*
X79266666Y-124552380D01*
X79361904Y-124600000D01*
X79409523Y-124647619D01*
X79457142Y-124742857D01*
X79457142Y-124885714D01*
X79409523Y-124980952D01*
X79361904Y-125028571D01*
X79266666Y-125076190D01*
X78885714Y-125076190D01*
X80314285Y-124885714D02*
X80314285Y-125552380D01*
X80076190Y-124504761D02*
X79838095Y-125219047D01*
X80457142Y-125219047D01*
X80790476Y-124647619D02*
X80838095Y-124600000D01*
X80933333Y-124552380D01*
X81171428Y-124552380D01*
X81266666Y-124600000D01*
X81314285Y-124647619D01*
X81361904Y-124742857D01*
X81361904Y-124838095D01*
X81314285Y-124980952D01*
X80742857Y-125552380D01*
X81361904Y-125552380D01*
%TO.C,C15*%
X79457142Y-112057142D02*
X79409523Y-112104761D01*
X79266666Y-112152380D01*
X79171428Y-112152380D01*
X79028571Y-112104761D01*
X78933333Y-112009523D01*
X78885714Y-111914285D01*
X78838095Y-111723809D01*
X78838095Y-111580952D01*
X78885714Y-111390476D01*
X78933333Y-111295238D01*
X79028571Y-111200000D01*
X79171428Y-111152380D01*
X79266666Y-111152380D01*
X79409523Y-111200000D01*
X79457142Y-111247619D01*
X80409523Y-112152380D02*
X79838095Y-112152380D01*
X80123809Y-112152380D02*
X80123809Y-111152380D01*
X80028571Y-111295238D01*
X79933333Y-111390476D01*
X79838095Y-111438095D01*
X81314285Y-111152380D02*
X80838095Y-111152380D01*
X80790476Y-111628571D01*
X80838095Y-111580952D01*
X80933333Y-111533333D01*
X81171428Y-111533333D01*
X81266666Y-111580952D01*
X81314285Y-111628571D01*
X81361904Y-111723809D01*
X81361904Y-111961904D01*
X81314285Y-112057142D01*
X81266666Y-112104761D01*
X81171428Y-112152380D01*
X80933333Y-112152380D01*
X80838095Y-112104761D01*
X80790476Y-112057142D01*
%TO.C,C31*%
X79457142Y-141557142D02*
X79409523Y-141604761D01*
X79266666Y-141652380D01*
X79171428Y-141652380D01*
X79028571Y-141604761D01*
X78933333Y-141509523D01*
X78885714Y-141414285D01*
X78838095Y-141223809D01*
X78838095Y-141080952D01*
X78885714Y-140890476D01*
X78933333Y-140795238D01*
X79028571Y-140700000D01*
X79171428Y-140652380D01*
X79266666Y-140652380D01*
X79409523Y-140700000D01*
X79457142Y-140747619D01*
X79790476Y-140652380D02*
X80409523Y-140652380D01*
X80076190Y-141033333D01*
X80219047Y-141033333D01*
X80314285Y-141080952D01*
X80361904Y-141128571D01*
X80409523Y-141223809D01*
X80409523Y-141461904D01*
X80361904Y-141557142D01*
X80314285Y-141604761D01*
X80219047Y-141652380D01*
X79933333Y-141652380D01*
X79838095Y-141604761D01*
X79790476Y-141557142D01*
X81361904Y-141652380D02*
X80790476Y-141652380D01*
X81076190Y-141652380D02*
X81076190Y-140652380D01*
X80980952Y-140795238D01*
X80885714Y-140890476D01*
X80790476Y-140938095D01*
%TO.C,R75*%
X59657142Y-64852380D02*
X59323809Y-64376190D01*
X59085714Y-64852380D02*
X59085714Y-63852380D01*
X59466666Y-63852380D01*
X59561904Y-63900000D01*
X59609523Y-63947619D01*
X59657142Y-64042857D01*
X59657142Y-64185714D01*
X59609523Y-64280952D01*
X59561904Y-64328571D01*
X59466666Y-64376190D01*
X59085714Y-64376190D01*
X59990476Y-63852380D02*
X60657142Y-63852380D01*
X60228571Y-64852380D01*
X61514285Y-63852380D02*
X61038095Y-63852380D01*
X60990476Y-64328571D01*
X61038095Y-64280952D01*
X61133333Y-64233333D01*
X61371428Y-64233333D01*
X61466666Y-64280952D01*
X61514285Y-64328571D01*
X61561904Y-64423809D01*
X61561904Y-64661904D01*
X61514285Y-64757142D01*
X61466666Y-64804761D01*
X61371428Y-64852380D01*
X61133333Y-64852380D01*
X61038095Y-64804761D01*
X60990476Y-64757142D01*
%TO.C,R73*%
X59657142Y-75052380D02*
X59323809Y-74576190D01*
X59085714Y-75052380D02*
X59085714Y-74052380D01*
X59466666Y-74052380D01*
X59561904Y-74100000D01*
X59609523Y-74147619D01*
X59657142Y-74242857D01*
X59657142Y-74385714D01*
X59609523Y-74480952D01*
X59561904Y-74528571D01*
X59466666Y-74576190D01*
X59085714Y-74576190D01*
X59990476Y-74052380D02*
X60657142Y-74052380D01*
X60228571Y-75052380D01*
X60942857Y-74052380D02*
X61561904Y-74052380D01*
X61228571Y-74433333D01*
X61371428Y-74433333D01*
X61466666Y-74480952D01*
X61514285Y-74528571D01*
X61561904Y-74623809D01*
X61561904Y-74861904D01*
X61514285Y-74957142D01*
X61466666Y-75004761D01*
X61371428Y-75052380D01*
X61085714Y-75052380D01*
X60990476Y-75004761D01*
X60942857Y-74957142D01*
%TO.C,C11*%
X52857142Y-93357142D02*
X52809523Y-93404761D01*
X52666666Y-93452380D01*
X52571428Y-93452380D01*
X52428571Y-93404761D01*
X52333333Y-93309523D01*
X52285714Y-93214285D01*
X52238095Y-93023809D01*
X52238095Y-92880952D01*
X52285714Y-92690476D01*
X52333333Y-92595238D01*
X52428571Y-92500000D01*
X52571428Y-92452380D01*
X52666666Y-92452380D01*
X52809523Y-92500000D01*
X52857142Y-92547619D01*
X53809523Y-93452380D02*
X53238095Y-93452380D01*
X53523809Y-93452380D02*
X53523809Y-92452380D01*
X53428571Y-92595238D01*
X53333333Y-92690476D01*
X53238095Y-92738095D01*
X54761904Y-93452380D02*
X54190476Y-93452380D01*
X54476190Y-93452380D02*
X54476190Y-92452380D01*
X54380952Y-92595238D01*
X54285714Y-92690476D01*
X54190476Y-92738095D01*
%TO.C,R74*%
X79457142Y-66952380D02*
X79123809Y-66476190D01*
X78885714Y-66952380D02*
X78885714Y-65952380D01*
X79266666Y-65952380D01*
X79361904Y-66000000D01*
X79409523Y-66047619D01*
X79457142Y-66142857D01*
X79457142Y-66285714D01*
X79409523Y-66380952D01*
X79361904Y-66428571D01*
X79266666Y-66476190D01*
X78885714Y-66476190D01*
X79790476Y-65952380D02*
X80457142Y-65952380D01*
X80028571Y-66952380D01*
X81266666Y-66285714D02*
X81266666Y-66952380D01*
X81028571Y-65904761D02*
X80790476Y-66619047D01*
X81409523Y-66619047D01*
%TO.C,R37*%
X79457142Y-104952380D02*
X79123809Y-104476190D01*
X78885714Y-104952380D02*
X78885714Y-103952380D01*
X79266666Y-103952380D01*
X79361904Y-104000000D01*
X79409523Y-104047619D01*
X79457142Y-104142857D01*
X79457142Y-104285714D01*
X79409523Y-104380952D01*
X79361904Y-104428571D01*
X79266666Y-104476190D01*
X78885714Y-104476190D01*
X79790476Y-103952380D02*
X80409523Y-103952380D01*
X80076190Y-104333333D01*
X80219047Y-104333333D01*
X80314285Y-104380952D01*
X80361904Y-104428571D01*
X80409523Y-104523809D01*
X80409523Y-104761904D01*
X80361904Y-104857142D01*
X80314285Y-104904761D01*
X80219047Y-104952380D01*
X79933333Y-104952380D01*
X79838095Y-104904761D01*
X79790476Y-104857142D01*
X80742857Y-103952380D02*
X81409523Y-103952380D01*
X80980952Y-104952380D01*
%TO.C,R57*%
X86157142Y-129352380D02*
X85823809Y-128876190D01*
X85585714Y-129352380D02*
X85585714Y-128352380D01*
X85966666Y-128352380D01*
X86061904Y-128400000D01*
X86109523Y-128447619D01*
X86157142Y-128542857D01*
X86157142Y-128685714D01*
X86109523Y-128780952D01*
X86061904Y-128828571D01*
X85966666Y-128876190D01*
X85585714Y-128876190D01*
X87061904Y-128352380D02*
X86585714Y-128352380D01*
X86538095Y-128828571D01*
X86585714Y-128780952D01*
X86680952Y-128733333D01*
X86919047Y-128733333D01*
X87014285Y-128780952D01*
X87061904Y-128828571D01*
X87109523Y-128923809D01*
X87109523Y-129161904D01*
X87061904Y-129257142D01*
X87014285Y-129304761D01*
X86919047Y-129352380D01*
X86680952Y-129352380D01*
X86585714Y-129304761D01*
X86538095Y-129257142D01*
X87442857Y-128352380D02*
X88109523Y-128352380D01*
X87680952Y-129352380D01*
%TO.C,R50*%
X59657142Y-127352380D02*
X59323809Y-126876190D01*
X59085714Y-127352380D02*
X59085714Y-126352380D01*
X59466666Y-126352380D01*
X59561904Y-126400000D01*
X59609523Y-126447619D01*
X59657142Y-126542857D01*
X59657142Y-126685714D01*
X59609523Y-126780952D01*
X59561904Y-126828571D01*
X59466666Y-126876190D01*
X59085714Y-126876190D01*
X60561904Y-126352380D02*
X60085714Y-126352380D01*
X60038095Y-126828571D01*
X60085714Y-126780952D01*
X60180952Y-126733333D01*
X60419047Y-126733333D01*
X60514285Y-126780952D01*
X60561904Y-126828571D01*
X60609523Y-126923809D01*
X60609523Y-127161904D01*
X60561904Y-127257142D01*
X60514285Y-127304761D01*
X60419047Y-127352380D01*
X60180952Y-127352380D01*
X60085714Y-127304761D01*
X60038095Y-127257142D01*
X61228571Y-126352380D02*
X61323809Y-126352380D01*
X61419047Y-126400000D01*
X61466666Y-126447619D01*
X61514285Y-126542857D01*
X61561904Y-126733333D01*
X61561904Y-126971428D01*
X61514285Y-127161904D01*
X61466666Y-127257142D01*
X61419047Y-127304761D01*
X61323809Y-127352380D01*
X61228571Y-127352380D01*
X61133333Y-127304761D01*
X61085714Y-127257142D01*
X61038095Y-127161904D01*
X60990476Y-126971428D01*
X60990476Y-126733333D01*
X61038095Y-126542857D01*
X61085714Y-126447619D01*
X61133333Y-126400000D01*
X61228571Y-126352380D01*
%TO.C,C9*%
X79433333Y-92357142D02*
X79385714Y-92404761D01*
X79242857Y-92452380D01*
X79147619Y-92452380D01*
X79004761Y-92404761D01*
X78909523Y-92309523D01*
X78861904Y-92214285D01*
X78814285Y-92023809D01*
X78814285Y-91880952D01*
X78861904Y-91690476D01*
X78909523Y-91595238D01*
X79004761Y-91500000D01*
X79147619Y-91452380D01*
X79242857Y-91452380D01*
X79385714Y-91500000D01*
X79433333Y-91547619D01*
X79909523Y-92452380D02*
X80100000Y-92452380D01*
X80195238Y-92404761D01*
X80242857Y-92357142D01*
X80338095Y-92214285D01*
X80385714Y-92023809D01*
X80385714Y-91642857D01*
X80338095Y-91547619D01*
X80290476Y-91500000D01*
X80195238Y-91452380D01*
X80004761Y-91452380D01*
X79909523Y-91500000D01*
X79861904Y-91547619D01*
X79814285Y-91642857D01*
X79814285Y-91880952D01*
X79861904Y-91976190D01*
X79909523Y-92023809D01*
X80004761Y-92071428D01*
X80195238Y-92071428D01*
X80290476Y-92023809D01*
X80338095Y-91976190D01*
X80385714Y-91880952D01*
%TO.C,R51*%
X79457142Y-129052380D02*
X79123809Y-128576190D01*
X78885714Y-129052380D02*
X78885714Y-128052380D01*
X79266666Y-128052380D01*
X79361904Y-128100000D01*
X79409523Y-128147619D01*
X79457142Y-128242857D01*
X79457142Y-128385714D01*
X79409523Y-128480952D01*
X79361904Y-128528571D01*
X79266666Y-128576190D01*
X78885714Y-128576190D01*
X80361904Y-128052380D02*
X79885714Y-128052380D01*
X79838095Y-128528571D01*
X79885714Y-128480952D01*
X79980952Y-128433333D01*
X80219047Y-128433333D01*
X80314285Y-128480952D01*
X80361904Y-128528571D01*
X80409523Y-128623809D01*
X80409523Y-128861904D01*
X80361904Y-128957142D01*
X80314285Y-129004761D01*
X80219047Y-129052380D01*
X79980952Y-129052380D01*
X79885714Y-129004761D01*
X79838095Y-128957142D01*
X81361904Y-129052380D02*
X80790476Y-129052380D01*
X81076190Y-129052380D02*
X81076190Y-128052380D01*
X80980952Y-128195238D01*
X80885714Y-128290476D01*
X80790476Y-128338095D01*
%TO.C,R27*%
X52857142Y-95052380D02*
X52523809Y-94576190D01*
X52285714Y-95052380D02*
X52285714Y-94052380D01*
X52666666Y-94052380D01*
X52761904Y-94100000D01*
X52809523Y-94147619D01*
X52857142Y-94242857D01*
X52857142Y-94385714D01*
X52809523Y-94480952D01*
X52761904Y-94528571D01*
X52666666Y-94576190D01*
X52285714Y-94576190D01*
X53238095Y-94147619D02*
X53285714Y-94100000D01*
X53380952Y-94052380D01*
X53619047Y-94052380D01*
X53714285Y-94100000D01*
X53761904Y-94147619D01*
X53809523Y-94242857D01*
X53809523Y-94338095D01*
X53761904Y-94480952D01*
X53190476Y-95052380D01*
X53809523Y-95052380D01*
X54142857Y-94052380D02*
X54809523Y-94052380D01*
X54380952Y-95052380D01*
%TO.C,R33*%
X86157142Y-96652380D02*
X85823809Y-96176190D01*
X85585714Y-96652380D02*
X85585714Y-95652380D01*
X85966666Y-95652380D01*
X86061904Y-95700000D01*
X86109523Y-95747619D01*
X86157142Y-95842857D01*
X86157142Y-95985714D01*
X86109523Y-96080952D01*
X86061904Y-96128571D01*
X85966666Y-96176190D01*
X85585714Y-96176190D01*
X86490476Y-95652380D02*
X87109523Y-95652380D01*
X86776190Y-96033333D01*
X86919047Y-96033333D01*
X87014285Y-96080952D01*
X87061904Y-96128571D01*
X87109523Y-96223809D01*
X87109523Y-96461904D01*
X87061904Y-96557142D01*
X87014285Y-96604761D01*
X86919047Y-96652380D01*
X86633333Y-96652380D01*
X86538095Y-96604761D01*
X86490476Y-96557142D01*
X87442857Y-95652380D02*
X88061904Y-95652380D01*
X87728571Y-96033333D01*
X87871428Y-96033333D01*
X87966666Y-96080952D01*
X88014285Y-96128571D01*
X88061904Y-96223809D01*
X88061904Y-96461904D01*
X88014285Y-96557142D01*
X87966666Y-96604761D01*
X87871428Y-96652380D01*
X87585714Y-96652380D01*
X87490476Y-96604761D01*
X87442857Y-96557142D01*
%TO.C,R9*%
X60633333Y-68252380D02*
X60300000Y-67776190D01*
X60061904Y-68252380D02*
X60061904Y-67252380D01*
X60442857Y-67252380D01*
X60538095Y-67300000D01*
X60585714Y-67347619D01*
X60633333Y-67442857D01*
X60633333Y-67585714D01*
X60585714Y-67680952D01*
X60538095Y-67728571D01*
X60442857Y-67776190D01*
X60061904Y-67776190D01*
X61109523Y-68252380D02*
X61300000Y-68252380D01*
X61395238Y-68204761D01*
X61442857Y-68157142D01*
X61538095Y-68014285D01*
X61585714Y-67823809D01*
X61585714Y-67442857D01*
X61538095Y-67347619D01*
X61490476Y-67300000D01*
X61395238Y-67252380D01*
X61204761Y-67252380D01*
X61109523Y-67300000D01*
X61061904Y-67347619D01*
X61014285Y-67442857D01*
X61014285Y-67680952D01*
X61061904Y-67776190D01*
X61109523Y-67823809D01*
X61204761Y-67871428D01*
X61395238Y-67871428D01*
X61490476Y-67823809D01*
X61538095Y-67776190D01*
X61585714Y-67680952D01*
%TO.C,R13*%
X59657142Y-66552380D02*
X59323809Y-66076190D01*
X59085714Y-66552380D02*
X59085714Y-65552380D01*
X59466666Y-65552380D01*
X59561904Y-65600000D01*
X59609523Y-65647619D01*
X59657142Y-65742857D01*
X59657142Y-65885714D01*
X59609523Y-65980952D01*
X59561904Y-66028571D01*
X59466666Y-66076190D01*
X59085714Y-66076190D01*
X60609523Y-66552380D02*
X60038095Y-66552380D01*
X60323809Y-66552380D02*
X60323809Y-65552380D01*
X60228571Y-65695238D01*
X60133333Y-65790476D01*
X60038095Y-65838095D01*
X60942857Y-65552380D02*
X61561904Y-65552380D01*
X61228571Y-65933333D01*
X61371428Y-65933333D01*
X61466666Y-65980952D01*
X61514285Y-66028571D01*
X61561904Y-66123809D01*
X61561904Y-66361904D01*
X61514285Y-66457142D01*
X61466666Y-66504761D01*
X61371428Y-66552380D01*
X61085714Y-66552380D01*
X60990476Y-66504761D01*
X60942857Y-66457142D01*
%TO.C,R46*%
X52857142Y-129352380D02*
X52523809Y-128876190D01*
X52285714Y-129352380D02*
X52285714Y-128352380D01*
X52666666Y-128352380D01*
X52761904Y-128400000D01*
X52809523Y-128447619D01*
X52857142Y-128542857D01*
X52857142Y-128685714D01*
X52809523Y-128780952D01*
X52761904Y-128828571D01*
X52666666Y-128876190D01*
X52285714Y-128876190D01*
X53714285Y-128685714D02*
X53714285Y-129352380D01*
X53476190Y-128304761D02*
X53238095Y-129019047D01*
X53857142Y-129019047D01*
X54666666Y-128352380D02*
X54476190Y-128352380D01*
X54380952Y-128400000D01*
X54333333Y-128447619D01*
X54238095Y-128590476D01*
X54190476Y-128780952D01*
X54190476Y-129161904D01*
X54238095Y-129257142D01*
X54285714Y-129304761D01*
X54380952Y-129352380D01*
X54571428Y-129352380D01*
X54666666Y-129304761D01*
X54714285Y-129257142D01*
X54761904Y-129161904D01*
X54761904Y-128923809D01*
X54714285Y-128828571D01*
X54666666Y-128780952D01*
X54571428Y-128733333D01*
X54380952Y-128733333D01*
X54285714Y-128780952D01*
X54238095Y-128828571D01*
X54190476Y-128923809D01*
%TO.C,R22*%
X59657142Y-96052380D02*
X59323809Y-95576190D01*
X59085714Y-96052380D02*
X59085714Y-95052380D01*
X59466666Y-95052380D01*
X59561904Y-95100000D01*
X59609523Y-95147619D01*
X59657142Y-95242857D01*
X59657142Y-95385714D01*
X59609523Y-95480952D01*
X59561904Y-95528571D01*
X59466666Y-95576190D01*
X59085714Y-95576190D01*
X60038095Y-95147619D02*
X60085714Y-95100000D01*
X60180952Y-95052380D01*
X60419047Y-95052380D01*
X60514285Y-95100000D01*
X60561904Y-95147619D01*
X60609523Y-95242857D01*
X60609523Y-95338095D01*
X60561904Y-95480952D01*
X59990476Y-96052380D01*
X60609523Y-96052380D01*
X60990476Y-95147619D02*
X61038095Y-95100000D01*
X61133333Y-95052380D01*
X61371428Y-95052380D01*
X61466666Y-95100000D01*
X61514285Y-95147619D01*
X61561904Y-95242857D01*
X61561904Y-95338095D01*
X61514285Y-95480952D01*
X60942857Y-96052380D01*
X61561904Y-96052380D01*
%TO.C,U4*%
X69438095Y-134552380D02*
X69438095Y-135361904D01*
X69485714Y-135457142D01*
X69533333Y-135504761D01*
X69628571Y-135552380D01*
X69819047Y-135552380D01*
X69914285Y-135504761D01*
X69961904Y-135457142D01*
X70009523Y-135361904D01*
X70009523Y-134552380D01*
X70914285Y-134885714D02*
X70914285Y-135552380D01*
X70676190Y-134504761D02*
X70438095Y-135219047D01*
X71057142Y-135219047D01*
%TO.C,C2*%
X55733333Y-51557142D02*
X55685714Y-51604761D01*
X55542857Y-51652380D01*
X55447619Y-51652380D01*
X55304761Y-51604761D01*
X55209523Y-51509523D01*
X55161904Y-51414285D01*
X55114285Y-51223809D01*
X55114285Y-51080952D01*
X55161904Y-50890476D01*
X55209523Y-50795238D01*
X55304761Y-50700000D01*
X55447619Y-50652380D01*
X55542857Y-50652380D01*
X55685714Y-50700000D01*
X55733333Y-50747619D01*
X56114285Y-50747619D02*
X56161904Y-50700000D01*
X56257142Y-50652380D01*
X56495238Y-50652380D01*
X56590476Y-50700000D01*
X56638095Y-50747619D01*
X56685714Y-50842857D01*
X56685714Y-50938095D01*
X56638095Y-51080952D01*
X56066666Y-51652380D01*
X56685714Y-51652380D01*
%TO.C,C22*%
X59757142Y-120057142D02*
X59709523Y-120104761D01*
X59566666Y-120152380D01*
X59471428Y-120152380D01*
X59328571Y-120104761D01*
X59233333Y-120009523D01*
X59185714Y-119914285D01*
X59138095Y-119723809D01*
X59138095Y-119580952D01*
X59185714Y-119390476D01*
X59233333Y-119295238D01*
X59328571Y-119200000D01*
X59471428Y-119152380D01*
X59566666Y-119152380D01*
X59709523Y-119200000D01*
X59757142Y-119247619D01*
X60138095Y-119247619D02*
X60185714Y-119200000D01*
X60280952Y-119152380D01*
X60519047Y-119152380D01*
X60614285Y-119200000D01*
X60661904Y-119247619D01*
X60709523Y-119342857D01*
X60709523Y-119438095D01*
X60661904Y-119580952D01*
X60090476Y-120152380D01*
X60709523Y-120152380D01*
X61090476Y-119247619D02*
X61138095Y-119200000D01*
X61233333Y-119152380D01*
X61471428Y-119152380D01*
X61566666Y-119200000D01*
X61614285Y-119247619D01*
X61661904Y-119342857D01*
X61661904Y-119438095D01*
X61614285Y-119580952D01*
X61042857Y-120152380D01*
X61661904Y-120152380D01*
%TO.C,C17*%
X59657142Y-108457142D02*
X59609523Y-108504761D01*
X59466666Y-108552380D01*
X59371428Y-108552380D01*
X59228571Y-108504761D01*
X59133333Y-108409523D01*
X59085714Y-108314285D01*
X59038095Y-108123809D01*
X59038095Y-107980952D01*
X59085714Y-107790476D01*
X59133333Y-107695238D01*
X59228571Y-107600000D01*
X59371428Y-107552380D01*
X59466666Y-107552380D01*
X59609523Y-107600000D01*
X59657142Y-107647619D01*
X60609523Y-108552380D02*
X60038095Y-108552380D01*
X60323809Y-108552380D02*
X60323809Y-107552380D01*
X60228571Y-107695238D01*
X60133333Y-107790476D01*
X60038095Y-107838095D01*
X60942857Y-107552380D02*
X61609523Y-107552380D01*
X61180952Y-108552380D01*
%TO.C,C40*%
X59657142Y-94157142D02*
X59609523Y-94204761D01*
X59466666Y-94252380D01*
X59371428Y-94252380D01*
X59228571Y-94204761D01*
X59133333Y-94109523D01*
X59085714Y-94014285D01*
X59038095Y-93823809D01*
X59038095Y-93680952D01*
X59085714Y-93490476D01*
X59133333Y-93395238D01*
X59228571Y-93300000D01*
X59371428Y-93252380D01*
X59466666Y-93252380D01*
X59609523Y-93300000D01*
X59657142Y-93347619D01*
X60514285Y-93585714D02*
X60514285Y-94252380D01*
X60276190Y-93204761D02*
X60038095Y-93919047D01*
X60657142Y-93919047D01*
X61228571Y-93252380D02*
X61323809Y-93252380D01*
X61419047Y-93300000D01*
X61466666Y-93347619D01*
X61514285Y-93442857D01*
X61561904Y-93633333D01*
X61561904Y-93871428D01*
X61514285Y-94061904D01*
X61466666Y-94157142D01*
X61419047Y-94204761D01*
X61323809Y-94252380D01*
X61228571Y-94252380D01*
X61133333Y-94204761D01*
X61085714Y-94157142D01*
X61038095Y-94061904D01*
X60990476Y-93871428D01*
X60990476Y-93633333D01*
X61038095Y-93442857D01*
X61085714Y-93347619D01*
X61133333Y-93300000D01*
X61228571Y-93252380D01*
%TO.C,C19*%
X86157142Y-106157142D02*
X86109523Y-106204761D01*
X85966666Y-106252380D01*
X85871428Y-106252380D01*
X85728571Y-106204761D01*
X85633333Y-106109523D01*
X85585714Y-106014285D01*
X85538095Y-105823809D01*
X85538095Y-105680952D01*
X85585714Y-105490476D01*
X85633333Y-105395238D01*
X85728571Y-105300000D01*
X85871428Y-105252380D01*
X85966666Y-105252380D01*
X86109523Y-105300000D01*
X86157142Y-105347619D01*
X87109523Y-106252380D02*
X86538095Y-106252380D01*
X86823809Y-106252380D02*
X86823809Y-105252380D01*
X86728571Y-105395238D01*
X86633333Y-105490476D01*
X86538095Y-105538095D01*
X87585714Y-106252380D02*
X87776190Y-106252380D01*
X87871428Y-106204761D01*
X87919047Y-106157142D01*
X88014285Y-106014285D01*
X88061904Y-105823809D01*
X88061904Y-105442857D01*
X88014285Y-105347619D01*
X87966666Y-105300000D01*
X87871428Y-105252380D01*
X87680952Y-105252380D01*
X87585714Y-105300000D01*
X87538095Y-105347619D01*
X87490476Y-105442857D01*
X87490476Y-105680952D01*
X87538095Y-105776190D01*
X87585714Y-105823809D01*
X87680952Y-105871428D01*
X87871428Y-105871428D01*
X87966666Y-105823809D01*
X88014285Y-105776190D01*
X88061904Y-105680952D01*
%TO.C,R38*%
X59697142Y-103112380D02*
X59363809Y-102636190D01*
X59125714Y-103112380D02*
X59125714Y-102112380D01*
X59506666Y-102112380D01*
X59601904Y-102160000D01*
X59649523Y-102207619D01*
X59697142Y-102302857D01*
X59697142Y-102445714D01*
X59649523Y-102540952D01*
X59601904Y-102588571D01*
X59506666Y-102636190D01*
X59125714Y-102636190D01*
X60030476Y-102112380D02*
X60649523Y-102112380D01*
X60316190Y-102493333D01*
X60459047Y-102493333D01*
X60554285Y-102540952D01*
X60601904Y-102588571D01*
X60649523Y-102683809D01*
X60649523Y-102921904D01*
X60601904Y-103017142D01*
X60554285Y-103064761D01*
X60459047Y-103112380D01*
X60173333Y-103112380D01*
X60078095Y-103064761D01*
X60030476Y-103017142D01*
X61220952Y-102540952D02*
X61125714Y-102493333D01*
X61078095Y-102445714D01*
X61030476Y-102350476D01*
X61030476Y-102302857D01*
X61078095Y-102207619D01*
X61125714Y-102160000D01*
X61220952Y-102112380D01*
X61411428Y-102112380D01*
X61506666Y-102160000D01*
X61554285Y-102207619D01*
X61601904Y-102302857D01*
X61601904Y-102350476D01*
X61554285Y-102445714D01*
X61506666Y-102493333D01*
X61411428Y-102540952D01*
X61220952Y-102540952D01*
X61125714Y-102588571D01*
X61078095Y-102636190D01*
X61030476Y-102731428D01*
X61030476Y-102921904D01*
X61078095Y-103017142D01*
X61125714Y-103064761D01*
X61220952Y-103112380D01*
X61411428Y-103112380D01*
X61506666Y-103064761D01*
X61554285Y-103017142D01*
X61601904Y-102921904D01*
X61601904Y-102731428D01*
X61554285Y-102636190D01*
X61506666Y-102588571D01*
X61411428Y-102540952D01*
%TO.C,R18*%
X52857142Y-104652380D02*
X52523809Y-104176190D01*
X52285714Y-104652380D02*
X52285714Y-103652380D01*
X52666666Y-103652380D01*
X52761904Y-103700000D01*
X52809523Y-103747619D01*
X52857142Y-103842857D01*
X52857142Y-103985714D01*
X52809523Y-104080952D01*
X52761904Y-104128571D01*
X52666666Y-104176190D01*
X52285714Y-104176190D01*
X53809523Y-104652380D02*
X53238095Y-104652380D01*
X53523809Y-104652380D02*
X53523809Y-103652380D01*
X53428571Y-103795238D01*
X53333333Y-103890476D01*
X53238095Y-103938095D01*
X54380952Y-104080952D02*
X54285714Y-104033333D01*
X54238095Y-103985714D01*
X54190476Y-103890476D01*
X54190476Y-103842857D01*
X54238095Y-103747619D01*
X54285714Y-103700000D01*
X54380952Y-103652380D01*
X54571428Y-103652380D01*
X54666666Y-103700000D01*
X54714285Y-103747619D01*
X54761904Y-103842857D01*
X54761904Y-103890476D01*
X54714285Y-103985714D01*
X54666666Y-104033333D01*
X54571428Y-104080952D01*
X54380952Y-104080952D01*
X54285714Y-104128571D01*
X54238095Y-104176190D01*
X54190476Y-104271428D01*
X54190476Y-104461904D01*
X54238095Y-104557142D01*
X54285714Y-104604761D01*
X54380952Y-104652380D01*
X54571428Y-104652380D01*
X54666666Y-104604761D01*
X54714285Y-104557142D01*
X54761904Y-104461904D01*
X54761904Y-104271428D01*
X54714285Y-104176190D01*
X54666666Y-104128571D01*
X54571428Y-104080952D01*
%TO.C,R16*%
X79457142Y-96052380D02*
X79123809Y-95576190D01*
X78885714Y-96052380D02*
X78885714Y-95052380D01*
X79266666Y-95052380D01*
X79361904Y-95100000D01*
X79409523Y-95147619D01*
X79457142Y-95242857D01*
X79457142Y-95385714D01*
X79409523Y-95480952D01*
X79361904Y-95528571D01*
X79266666Y-95576190D01*
X78885714Y-95576190D01*
X80409523Y-96052380D02*
X79838095Y-96052380D01*
X80123809Y-96052380D02*
X80123809Y-95052380D01*
X80028571Y-95195238D01*
X79933333Y-95290476D01*
X79838095Y-95338095D01*
X81266666Y-95052380D02*
X81076190Y-95052380D01*
X80980952Y-95100000D01*
X80933333Y-95147619D01*
X80838095Y-95290476D01*
X80790476Y-95480952D01*
X80790476Y-95861904D01*
X80838095Y-95957142D01*
X80885714Y-96004761D01*
X80980952Y-96052380D01*
X81171428Y-96052380D01*
X81266666Y-96004761D01*
X81314285Y-95957142D01*
X81361904Y-95861904D01*
X81361904Y-95623809D01*
X81314285Y-95528571D01*
X81266666Y-95480952D01*
X81171428Y-95433333D01*
X80980952Y-95433333D01*
X80885714Y-95480952D01*
X80838095Y-95528571D01*
X80790476Y-95623809D01*
%TO.C,R10*%
X59644642Y-71652380D02*
X59311309Y-71176190D01*
X59073214Y-71652380D02*
X59073214Y-70652380D01*
X59454166Y-70652380D01*
X59549404Y-70700000D01*
X59597023Y-70747619D01*
X59644642Y-70842857D01*
X59644642Y-70985714D01*
X59597023Y-71080952D01*
X59549404Y-71128571D01*
X59454166Y-71176190D01*
X59073214Y-71176190D01*
X60597023Y-71652380D02*
X60025595Y-71652380D01*
X60311309Y-71652380D02*
X60311309Y-70652380D01*
X60216071Y-70795238D01*
X60120833Y-70890476D01*
X60025595Y-70938095D01*
X61216071Y-70652380D02*
X61311309Y-70652380D01*
X61406547Y-70700000D01*
X61454166Y-70747619D01*
X61501785Y-70842857D01*
X61549404Y-71033333D01*
X61549404Y-71271428D01*
X61501785Y-71461904D01*
X61454166Y-71557142D01*
X61406547Y-71604761D01*
X61311309Y-71652380D01*
X61216071Y-71652380D01*
X61120833Y-71604761D01*
X61073214Y-71557142D01*
X61025595Y-71461904D01*
X60977976Y-71271428D01*
X60977976Y-71033333D01*
X61025595Y-70842857D01*
X61073214Y-70747619D01*
X61120833Y-70700000D01*
X61216071Y-70652380D01*
%TO.C,C18*%
X59697142Y-101244642D02*
X59649523Y-101292261D01*
X59506666Y-101339880D01*
X59411428Y-101339880D01*
X59268571Y-101292261D01*
X59173333Y-101197023D01*
X59125714Y-101101785D01*
X59078095Y-100911309D01*
X59078095Y-100768452D01*
X59125714Y-100577976D01*
X59173333Y-100482738D01*
X59268571Y-100387500D01*
X59411428Y-100339880D01*
X59506666Y-100339880D01*
X59649523Y-100387500D01*
X59697142Y-100435119D01*
X60649523Y-101339880D02*
X60078095Y-101339880D01*
X60363809Y-101339880D02*
X60363809Y-100339880D01*
X60268571Y-100482738D01*
X60173333Y-100577976D01*
X60078095Y-100625595D01*
X61220952Y-100768452D02*
X61125714Y-100720833D01*
X61078095Y-100673214D01*
X61030476Y-100577976D01*
X61030476Y-100530357D01*
X61078095Y-100435119D01*
X61125714Y-100387500D01*
X61220952Y-100339880D01*
X61411428Y-100339880D01*
X61506666Y-100387500D01*
X61554285Y-100435119D01*
X61601904Y-100530357D01*
X61601904Y-100577976D01*
X61554285Y-100673214D01*
X61506666Y-100720833D01*
X61411428Y-100768452D01*
X61220952Y-100768452D01*
X61125714Y-100816071D01*
X61078095Y-100863690D01*
X61030476Y-100958928D01*
X61030476Y-101149404D01*
X61078095Y-101244642D01*
X61125714Y-101292261D01*
X61220952Y-101339880D01*
X61411428Y-101339880D01*
X61506666Y-101292261D01*
X61554285Y-101244642D01*
X61601904Y-101149404D01*
X61601904Y-100958928D01*
X61554285Y-100863690D01*
X61506666Y-100816071D01*
X61411428Y-100768452D01*
%TO.C,R62*%
X79457142Y-138022380D02*
X79123809Y-137546190D01*
X78885714Y-138022380D02*
X78885714Y-137022380D01*
X79266666Y-137022380D01*
X79361904Y-137070000D01*
X79409523Y-137117619D01*
X79457142Y-137212857D01*
X79457142Y-137355714D01*
X79409523Y-137450952D01*
X79361904Y-137498571D01*
X79266666Y-137546190D01*
X78885714Y-137546190D01*
X80314285Y-137022380D02*
X80123809Y-137022380D01*
X80028571Y-137070000D01*
X79980952Y-137117619D01*
X79885714Y-137260476D01*
X79838095Y-137450952D01*
X79838095Y-137831904D01*
X79885714Y-137927142D01*
X79933333Y-137974761D01*
X80028571Y-138022380D01*
X80219047Y-138022380D01*
X80314285Y-137974761D01*
X80361904Y-137927142D01*
X80409523Y-137831904D01*
X80409523Y-137593809D01*
X80361904Y-137498571D01*
X80314285Y-137450952D01*
X80219047Y-137403333D01*
X80028571Y-137403333D01*
X79933333Y-137450952D01*
X79885714Y-137498571D01*
X79838095Y-137593809D01*
X80790476Y-137117619D02*
X80838095Y-137070000D01*
X80933333Y-137022380D01*
X81171428Y-137022380D01*
X81266666Y-137070000D01*
X81314285Y-137117619D01*
X81361904Y-137212857D01*
X81361904Y-137308095D01*
X81314285Y-137450952D01*
X80742857Y-138022380D01*
X81361904Y-138022380D01*
%TO.C,R34*%
X86157142Y-99852380D02*
X85823809Y-99376190D01*
X85585714Y-99852380D02*
X85585714Y-98852380D01*
X85966666Y-98852380D01*
X86061904Y-98900000D01*
X86109523Y-98947619D01*
X86157142Y-99042857D01*
X86157142Y-99185714D01*
X86109523Y-99280952D01*
X86061904Y-99328571D01*
X85966666Y-99376190D01*
X85585714Y-99376190D01*
X86490476Y-98852380D02*
X87109523Y-98852380D01*
X86776190Y-99233333D01*
X86919047Y-99233333D01*
X87014285Y-99280952D01*
X87061904Y-99328571D01*
X87109523Y-99423809D01*
X87109523Y-99661904D01*
X87061904Y-99757142D01*
X87014285Y-99804761D01*
X86919047Y-99852380D01*
X86633333Y-99852380D01*
X86538095Y-99804761D01*
X86490476Y-99757142D01*
X87966666Y-99185714D02*
X87966666Y-99852380D01*
X87728571Y-98804761D02*
X87490476Y-99519047D01*
X88109523Y-99519047D01*
%TO.C,R69*%
X52857142Y-132552380D02*
X52523809Y-132076190D01*
X52285714Y-132552380D02*
X52285714Y-131552380D01*
X52666666Y-131552380D01*
X52761904Y-131600000D01*
X52809523Y-131647619D01*
X52857142Y-131742857D01*
X52857142Y-131885714D01*
X52809523Y-131980952D01*
X52761904Y-132028571D01*
X52666666Y-132076190D01*
X52285714Y-132076190D01*
X53714285Y-131552380D02*
X53523809Y-131552380D01*
X53428571Y-131600000D01*
X53380952Y-131647619D01*
X53285714Y-131790476D01*
X53238095Y-131980952D01*
X53238095Y-132361904D01*
X53285714Y-132457142D01*
X53333333Y-132504761D01*
X53428571Y-132552380D01*
X53619047Y-132552380D01*
X53714285Y-132504761D01*
X53761904Y-132457142D01*
X53809523Y-132361904D01*
X53809523Y-132123809D01*
X53761904Y-132028571D01*
X53714285Y-131980952D01*
X53619047Y-131933333D01*
X53428571Y-131933333D01*
X53333333Y-131980952D01*
X53285714Y-132028571D01*
X53238095Y-132123809D01*
X54285714Y-132552380D02*
X54476190Y-132552380D01*
X54571428Y-132504761D01*
X54619047Y-132457142D01*
X54714285Y-132314285D01*
X54761904Y-132123809D01*
X54761904Y-131742857D01*
X54714285Y-131647619D01*
X54666666Y-131600000D01*
X54571428Y-131552380D01*
X54380952Y-131552380D01*
X54285714Y-131600000D01*
X54238095Y-131647619D01*
X54190476Y-131742857D01*
X54190476Y-131980952D01*
X54238095Y-132076190D01*
X54285714Y-132123809D01*
X54380952Y-132171428D01*
X54571428Y-132171428D01*
X54666666Y-132123809D01*
X54714285Y-132076190D01*
X54761904Y-131980952D01*
%TO.C,D2*%
X51061904Y-52652380D02*
X51061904Y-51652380D01*
X51300000Y-51652380D01*
X51442857Y-51700000D01*
X51538095Y-51795238D01*
X51585714Y-51890476D01*
X51633333Y-52080952D01*
X51633333Y-52223809D01*
X51585714Y-52414285D01*
X51538095Y-52509523D01*
X51442857Y-52604761D01*
X51300000Y-52652380D01*
X51061904Y-52652380D01*
X52014285Y-51747619D02*
X52061904Y-51700000D01*
X52157142Y-51652380D01*
X52395238Y-51652380D01*
X52490476Y-51700000D01*
X52538095Y-51747619D01*
X52585714Y-51842857D01*
X52585714Y-51938095D01*
X52538095Y-52080952D01*
X51966666Y-52652380D01*
X52585714Y-52652380D01*
%TO.C,R19*%
X52857142Y-103052380D02*
X52523809Y-102576190D01*
X52285714Y-103052380D02*
X52285714Y-102052380D01*
X52666666Y-102052380D01*
X52761904Y-102100000D01*
X52809523Y-102147619D01*
X52857142Y-102242857D01*
X52857142Y-102385714D01*
X52809523Y-102480952D01*
X52761904Y-102528571D01*
X52666666Y-102576190D01*
X52285714Y-102576190D01*
X53809523Y-103052380D02*
X53238095Y-103052380D01*
X53523809Y-103052380D02*
X53523809Y-102052380D01*
X53428571Y-102195238D01*
X53333333Y-102290476D01*
X53238095Y-102338095D01*
X54285714Y-103052380D02*
X54476190Y-103052380D01*
X54571428Y-103004761D01*
X54619047Y-102957142D01*
X54714285Y-102814285D01*
X54761904Y-102623809D01*
X54761904Y-102242857D01*
X54714285Y-102147619D01*
X54666666Y-102100000D01*
X54571428Y-102052380D01*
X54380952Y-102052380D01*
X54285714Y-102100000D01*
X54238095Y-102147619D01*
X54190476Y-102242857D01*
X54190476Y-102480952D01*
X54238095Y-102576190D01*
X54285714Y-102623809D01*
X54380952Y-102671428D01*
X54571428Y-102671428D01*
X54666666Y-102623809D01*
X54714285Y-102576190D01*
X54761904Y-102480952D01*
%TO.C,R64*%
X59697142Y-132612380D02*
X59363809Y-132136190D01*
X59125714Y-132612380D02*
X59125714Y-131612380D01*
X59506666Y-131612380D01*
X59601904Y-131660000D01*
X59649523Y-131707619D01*
X59697142Y-131802857D01*
X59697142Y-131945714D01*
X59649523Y-132040952D01*
X59601904Y-132088571D01*
X59506666Y-132136190D01*
X59125714Y-132136190D01*
X60554285Y-131612380D02*
X60363809Y-131612380D01*
X60268571Y-131660000D01*
X60220952Y-131707619D01*
X60125714Y-131850476D01*
X60078095Y-132040952D01*
X60078095Y-132421904D01*
X60125714Y-132517142D01*
X60173333Y-132564761D01*
X60268571Y-132612380D01*
X60459047Y-132612380D01*
X60554285Y-132564761D01*
X60601904Y-132517142D01*
X60649523Y-132421904D01*
X60649523Y-132183809D01*
X60601904Y-132088571D01*
X60554285Y-132040952D01*
X60459047Y-131993333D01*
X60268571Y-131993333D01*
X60173333Y-132040952D01*
X60125714Y-132088571D01*
X60078095Y-132183809D01*
X61506666Y-131945714D02*
X61506666Y-132612380D01*
X61268571Y-131564761D02*
X61030476Y-132279047D01*
X61649523Y-132279047D01*
%TO.C,C21*%
X79457142Y-123657142D02*
X79409523Y-123704761D01*
X79266666Y-123752380D01*
X79171428Y-123752380D01*
X79028571Y-123704761D01*
X78933333Y-123609523D01*
X78885714Y-123514285D01*
X78838095Y-123323809D01*
X78838095Y-123180952D01*
X78885714Y-122990476D01*
X78933333Y-122895238D01*
X79028571Y-122800000D01*
X79171428Y-122752380D01*
X79266666Y-122752380D01*
X79409523Y-122800000D01*
X79457142Y-122847619D01*
X79838095Y-122847619D02*
X79885714Y-122800000D01*
X79980952Y-122752380D01*
X80219047Y-122752380D01*
X80314285Y-122800000D01*
X80361904Y-122847619D01*
X80409523Y-122942857D01*
X80409523Y-123038095D01*
X80361904Y-123180952D01*
X79790476Y-123752380D01*
X80409523Y-123752380D01*
X81361904Y-123752380D02*
X80790476Y-123752380D01*
X81076190Y-123752380D02*
X81076190Y-122752380D01*
X80980952Y-122895238D01*
X80885714Y-122990476D01*
X80790476Y-123038095D01*
%TO.C,C5*%
X79520833Y-78344642D02*
X79473214Y-78392261D01*
X79330357Y-78439880D01*
X79235119Y-78439880D01*
X79092261Y-78392261D01*
X78997023Y-78297023D01*
X78949404Y-78201785D01*
X78901785Y-78011309D01*
X78901785Y-77868452D01*
X78949404Y-77677976D01*
X78997023Y-77582738D01*
X79092261Y-77487500D01*
X79235119Y-77439880D01*
X79330357Y-77439880D01*
X79473214Y-77487500D01*
X79520833Y-77535119D01*
X80425595Y-77439880D02*
X79949404Y-77439880D01*
X79901785Y-77916071D01*
X79949404Y-77868452D01*
X80044642Y-77820833D01*
X80282738Y-77820833D01*
X80377976Y-77868452D01*
X80425595Y-77916071D01*
X80473214Y-78011309D01*
X80473214Y-78249404D01*
X80425595Y-78344642D01*
X80377976Y-78392261D01*
X80282738Y-78439880D01*
X80044642Y-78439880D01*
X79949404Y-78392261D01*
X79901785Y-78344642D01*
%TO.C,U7*%
X69438095Y-112752380D02*
X69438095Y-113561904D01*
X69485714Y-113657142D01*
X69533333Y-113704761D01*
X69628571Y-113752380D01*
X69819047Y-113752380D01*
X69914285Y-113704761D01*
X69961904Y-113657142D01*
X70009523Y-113561904D01*
X70009523Y-112752380D01*
X70390476Y-112752380D02*
X71057142Y-112752380D01*
X70628571Y-113752380D01*
%TO.C,R68*%
X86157142Y-103052380D02*
X85823809Y-102576190D01*
X85585714Y-103052380D02*
X85585714Y-102052380D01*
X85966666Y-102052380D01*
X86061904Y-102100000D01*
X86109523Y-102147619D01*
X86157142Y-102242857D01*
X86157142Y-102385714D01*
X86109523Y-102480952D01*
X86061904Y-102528571D01*
X85966666Y-102576190D01*
X85585714Y-102576190D01*
X87014285Y-102052380D02*
X86823809Y-102052380D01*
X86728571Y-102100000D01*
X86680952Y-102147619D01*
X86585714Y-102290476D01*
X86538095Y-102480952D01*
X86538095Y-102861904D01*
X86585714Y-102957142D01*
X86633333Y-103004761D01*
X86728571Y-103052380D01*
X86919047Y-103052380D01*
X87014285Y-103004761D01*
X87061904Y-102957142D01*
X87109523Y-102861904D01*
X87109523Y-102623809D01*
X87061904Y-102528571D01*
X87014285Y-102480952D01*
X86919047Y-102433333D01*
X86728571Y-102433333D01*
X86633333Y-102480952D01*
X86585714Y-102528571D01*
X86538095Y-102623809D01*
X87680952Y-102480952D02*
X87585714Y-102433333D01*
X87538095Y-102385714D01*
X87490476Y-102290476D01*
X87490476Y-102242857D01*
X87538095Y-102147619D01*
X87585714Y-102100000D01*
X87680952Y-102052380D01*
X87871428Y-102052380D01*
X87966666Y-102100000D01*
X88014285Y-102147619D01*
X88061904Y-102242857D01*
X88061904Y-102290476D01*
X88014285Y-102385714D01*
X87966666Y-102433333D01*
X87871428Y-102480952D01*
X87680952Y-102480952D01*
X87585714Y-102528571D01*
X87538095Y-102576190D01*
X87490476Y-102671428D01*
X87490476Y-102861904D01*
X87538095Y-102957142D01*
X87585714Y-103004761D01*
X87680952Y-103052380D01*
X87871428Y-103052380D01*
X87966666Y-103004761D01*
X88014285Y-102957142D01*
X88061904Y-102861904D01*
X88061904Y-102671428D01*
X88014285Y-102576190D01*
X87966666Y-102528571D01*
X87871428Y-102480952D01*
%TO.C,C34*%
X59697142Y-130744642D02*
X59649523Y-130792261D01*
X59506666Y-130839880D01*
X59411428Y-130839880D01*
X59268571Y-130792261D01*
X59173333Y-130697023D01*
X59125714Y-130601785D01*
X59078095Y-130411309D01*
X59078095Y-130268452D01*
X59125714Y-130077976D01*
X59173333Y-129982738D01*
X59268571Y-129887500D01*
X59411428Y-129839880D01*
X59506666Y-129839880D01*
X59649523Y-129887500D01*
X59697142Y-129935119D01*
X60030476Y-129839880D02*
X60649523Y-129839880D01*
X60316190Y-130220833D01*
X60459047Y-130220833D01*
X60554285Y-130268452D01*
X60601904Y-130316071D01*
X60649523Y-130411309D01*
X60649523Y-130649404D01*
X60601904Y-130744642D01*
X60554285Y-130792261D01*
X60459047Y-130839880D01*
X60173333Y-130839880D01*
X60078095Y-130792261D01*
X60030476Y-130744642D01*
X61506666Y-130173214D02*
X61506666Y-130839880D01*
X61268571Y-129792261D02*
X61030476Y-130506547D01*
X61649523Y-130506547D01*
%TO.C,R36*%
X79457142Y-108522380D02*
X79123809Y-108046190D01*
X78885714Y-108522380D02*
X78885714Y-107522380D01*
X79266666Y-107522380D01*
X79361904Y-107570000D01*
X79409523Y-107617619D01*
X79457142Y-107712857D01*
X79457142Y-107855714D01*
X79409523Y-107950952D01*
X79361904Y-107998571D01*
X79266666Y-108046190D01*
X78885714Y-108046190D01*
X79790476Y-107522380D02*
X80409523Y-107522380D01*
X80076190Y-107903333D01*
X80219047Y-107903333D01*
X80314285Y-107950952D01*
X80361904Y-107998571D01*
X80409523Y-108093809D01*
X80409523Y-108331904D01*
X80361904Y-108427142D01*
X80314285Y-108474761D01*
X80219047Y-108522380D01*
X79933333Y-108522380D01*
X79838095Y-108474761D01*
X79790476Y-108427142D01*
X81266666Y-107522380D02*
X81076190Y-107522380D01*
X80980952Y-107570000D01*
X80933333Y-107617619D01*
X80838095Y-107760476D01*
X80790476Y-107950952D01*
X80790476Y-108331904D01*
X80838095Y-108427142D01*
X80885714Y-108474761D01*
X80980952Y-108522380D01*
X81171428Y-108522380D01*
X81266666Y-108474761D01*
X81314285Y-108427142D01*
X81361904Y-108331904D01*
X81361904Y-108093809D01*
X81314285Y-107998571D01*
X81266666Y-107950952D01*
X81171428Y-107903333D01*
X80980952Y-107903333D01*
X80885714Y-107950952D01*
X80838095Y-107998571D01*
X80790476Y-108093809D01*
%TO.C,R3*%
X60533333Y-78452380D02*
X60200000Y-77976190D01*
X59961904Y-78452380D02*
X59961904Y-77452380D01*
X60342857Y-77452380D01*
X60438095Y-77500000D01*
X60485714Y-77547619D01*
X60533333Y-77642857D01*
X60533333Y-77785714D01*
X60485714Y-77880952D01*
X60438095Y-77928571D01*
X60342857Y-77976190D01*
X59961904Y-77976190D01*
X60866666Y-77452380D02*
X61485714Y-77452380D01*
X61152380Y-77833333D01*
X61295238Y-77833333D01*
X61390476Y-77880952D01*
X61438095Y-77928571D01*
X61485714Y-78023809D01*
X61485714Y-78261904D01*
X61438095Y-78357142D01*
X61390476Y-78404761D01*
X61295238Y-78452380D01*
X61009523Y-78452380D01*
X60914285Y-78404761D01*
X60866666Y-78357142D01*
%TO.C,R6*%
X79533333Y-85264880D02*
X79200000Y-84788690D01*
X78961904Y-85264880D02*
X78961904Y-84264880D01*
X79342857Y-84264880D01*
X79438095Y-84312500D01*
X79485714Y-84360119D01*
X79533333Y-84455357D01*
X79533333Y-84598214D01*
X79485714Y-84693452D01*
X79438095Y-84741071D01*
X79342857Y-84788690D01*
X78961904Y-84788690D01*
X80390476Y-84264880D02*
X80200000Y-84264880D01*
X80104761Y-84312500D01*
X80057142Y-84360119D01*
X79961904Y-84502976D01*
X79914285Y-84693452D01*
X79914285Y-85074404D01*
X79961904Y-85169642D01*
X80009523Y-85217261D01*
X80104761Y-85264880D01*
X80295238Y-85264880D01*
X80390476Y-85217261D01*
X80438095Y-85169642D01*
X80485714Y-85074404D01*
X80485714Y-84836309D01*
X80438095Y-84741071D01*
X80390476Y-84693452D01*
X80295238Y-84645833D01*
X80104761Y-84645833D01*
X80009523Y-84693452D01*
X79961904Y-84741071D01*
X79914285Y-84836309D01*
%TO.C,R56*%
X52857142Y-135752380D02*
X52523809Y-135276190D01*
X52285714Y-135752380D02*
X52285714Y-134752380D01*
X52666666Y-134752380D01*
X52761904Y-134800000D01*
X52809523Y-134847619D01*
X52857142Y-134942857D01*
X52857142Y-135085714D01*
X52809523Y-135180952D01*
X52761904Y-135228571D01*
X52666666Y-135276190D01*
X52285714Y-135276190D01*
X53761904Y-134752380D02*
X53285714Y-134752380D01*
X53238095Y-135228571D01*
X53285714Y-135180952D01*
X53380952Y-135133333D01*
X53619047Y-135133333D01*
X53714285Y-135180952D01*
X53761904Y-135228571D01*
X53809523Y-135323809D01*
X53809523Y-135561904D01*
X53761904Y-135657142D01*
X53714285Y-135704761D01*
X53619047Y-135752380D01*
X53380952Y-135752380D01*
X53285714Y-135704761D01*
X53238095Y-135657142D01*
X54666666Y-134752380D02*
X54476190Y-134752380D01*
X54380952Y-134800000D01*
X54333333Y-134847619D01*
X54238095Y-134990476D01*
X54190476Y-135180952D01*
X54190476Y-135561904D01*
X54238095Y-135657142D01*
X54285714Y-135704761D01*
X54380952Y-135752380D01*
X54571428Y-135752380D01*
X54666666Y-135704761D01*
X54714285Y-135657142D01*
X54761904Y-135561904D01*
X54761904Y-135323809D01*
X54714285Y-135228571D01*
X54666666Y-135180952D01*
X54571428Y-135133333D01*
X54380952Y-135133333D01*
X54285714Y-135180952D01*
X54238095Y-135228571D01*
X54190476Y-135323809D01*
%TO.C,R52*%
X59657142Y-121952380D02*
X59323809Y-121476190D01*
X59085714Y-121952380D02*
X59085714Y-120952380D01*
X59466666Y-120952380D01*
X59561904Y-121000000D01*
X59609523Y-121047619D01*
X59657142Y-121142857D01*
X59657142Y-121285714D01*
X59609523Y-121380952D01*
X59561904Y-121428571D01*
X59466666Y-121476190D01*
X59085714Y-121476190D01*
X60561904Y-120952380D02*
X60085714Y-120952380D01*
X60038095Y-121428571D01*
X60085714Y-121380952D01*
X60180952Y-121333333D01*
X60419047Y-121333333D01*
X60514285Y-121380952D01*
X60561904Y-121428571D01*
X60609523Y-121523809D01*
X60609523Y-121761904D01*
X60561904Y-121857142D01*
X60514285Y-121904761D01*
X60419047Y-121952380D01*
X60180952Y-121952380D01*
X60085714Y-121904761D01*
X60038095Y-121857142D01*
X60990476Y-121047619D02*
X61038095Y-121000000D01*
X61133333Y-120952380D01*
X61371428Y-120952380D01*
X61466666Y-121000000D01*
X61514285Y-121047619D01*
X61561904Y-121142857D01*
X61561904Y-121238095D01*
X61514285Y-121380952D01*
X60942857Y-121952380D01*
X61561904Y-121952380D01*
%TO.C,U10*%
X68961904Y-142252380D02*
X68961904Y-143061904D01*
X69009523Y-143157142D01*
X69057142Y-143204761D01*
X69152380Y-143252380D01*
X69342857Y-143252380D01*
X69438095Y-143204761D01*
X69485714Y-143157142D01*
X69533333Y-143061904D01*
X69533333Y-142252380D01*
X70533333Y-143252380D02*
X69961904Y-143252380D01*
X70247619Y-143252380D02*
X70247619Y-142252380D01*
X70152380Y-142395238D01*
X70057142Y-142490476D01*
X69961904Y-142538095D01*
X71152380Y-142252380D02*
X71247619Y-142252380D01*
X71342857Y-142300000D01*
X71390476Y-142347619D01*
X71438095Y-142442857D01*
X71485714Y-142633333D01*
X71485714Y-142871428D01*
X71438095Y-143061904D01*
X71390476Y-143157142D01*
X71342857Y-143204761D01*
X71247619Y-143252380D01*
X71152380Y-143252380D01*
X71057142Y-143204761D01*
X71009523Y-143157142D01*
X70961904Y-143061904D01*
X70914285Y-142871428D01*
X70914285Y-142633333D01*
X70961904Y-142442857D01*
X71009523Y-142347619D01*
X71057142Y-142300000D01*
X71152380Y-142252380D01*
%TO.C,R7*%
X79533333Y-73752380D02*
X79200000Y-73276190D01*
X78961904Y-73752380D02*
X78961904Y-72752380D01*
X79342857Y-72752380D01*
X79438095Y-72800000D01*
X79485714Y-72847619D01*
X79533333Y-72942857D01*
X79533333Y-73085714D01*
X79485714Y-73180952D01*
X79438095Y-73228571D01*
X79342857Y-73276190D01*
X78961904Y-73276190D01*
X79866666Y-72752380D02*
X80533333Y-72752380D01*
X80104761Y-73752380D01*
%TO.C,R67*%
X52857142Y-99852380D02*
X52523809Y-99376190D01*
X52285714Y-99852380D02*
X52285714Y-98852380D01*
X52666666Y-98852380D01*
X52761904Y-98900000D01*
X52809523Y-98947619D01*
X52857142Y-99042857D01*
X52857142Y-99185714D01*
X52809523Y-99280952D01*
X52761904Y-99328571D01*
X52666666Y-99376190D01*
X52285714Y-99376190D01*
X53714285Y-98852380D02*
X53523809Y-98852380D01*
X53428571Y-98900000D01*
X53380952Y-98947619D01*
X53285714Y-99090476D01*
X53238095Y-99280952D01*
X53238095Y-99661904D01*
X53285714Y-99757142D01*
X53333333Y-99804761D01*
X53428571Y-99852380D01*
X53619047Y-99852380D01*
X53714285Y-99804761D01*
X53761904Y-99757142D01*
X53809523Y-99661904D01*
X53809523Y-99423809D01*
X53761904Y-99328571D01*
X53714285Y-99280952D01*
X53619047Y-99233333D01*
X53428571Y-99233333D01*
X53333333Y-99280952D01*
X53285714Y-99328571D01*
X53238095Y-99423809D01*
X54142857Y-98852380D02*
X54809523Y-98852380D01*
X54380952Y-99852380D01*
%TO.C,R54*%
X52857142Y-137352380D02*
X52523809Y-136876190D01*
X52285714Y-137352380D02*
X52285714Y-136352380D01*
X52666666Y-136352380D01*
X52761904Y-136400000D01*
X52809523Y-136447619D01*
X52857142Y-136542857D01*
X52857142Y-136685714D01*
X52809523Y-136780952D01*
X52761904Y-136828571D01*
X52666666Y-136876190D01*
X52285714Y-136876190D01*
X53761904Y-136352380D02*
X53285714Y-136352380D01*
X53238095Y-136828571D01*
X53285714Y-136780952D01*
X53380952Y-136733333D01*
X53619047Y-136733333D01*
X53714285Y-136780952D01*
X53761904Y-136828571D01*
X53809523Y-136923809D01*
X53809523Y-137161904D01*
X53761904Y-137257142D01*
X53714285Y-137304761D01*
X53619047Y-137352380D01*
X53380952Y-137352380D01*
X53285714Y-137304761D01*
X53238095Y-137257142D01*
X54666666Y-136685714D02*
X54666666Y-137352380D01*
X54428571Y-136304761D02*
X54190476Y-137019047D01*
X54809523Y-137019047D01*
%TO.C,C24*%
X79457142Y-120057142D02*
X79409523Y-120104761D01*
X79266666Y-120152380D01*
X79171428Y-120152380D01*
X79028571Y-120104761D01*
X78933333Y-120009523D01*
X78885714Y-119914285D01*
X78838095Y-119723809D01*
X78838095Y-119580952D01*
X78885714Y-119390476D01*
X78933333Y-119295238D01*
X79028571Y-119200000D01*
X79171428Y-119152380D01*
X79266666Y-119152380D01*
X79409523Y-119200000D01*
X79457142Y-119247619D01*
X79838095Y-119247619D02*
X79885714Y-119200000D01*
X79980952Y-119152380D01*
X80219047Y-119152380D01*
X80314285Y-119200000D01*
X80361904Y-119247619D01*
X80409523Y-119342857D01*
X80409523Y-119438095D01*
X80361904Y-119580952D01*
X79790476Y-120152380D01*
X80409523Y-120152380D01*
X81266666Y-119485714D02*
X81266666Y-120152380D01*
X81028571Y-119104761D02*
X80790476Y-119819047D01*
X81409523Y-119819047D01*
%TO.C,R12*%
X79457142Y-68652380D02*
X79123809Y-68176190D01*
X78885714Y-68652380D02*
X78885714Y-67652380D01*
X79266666Y-67652380D01*
X79361904Y-67700000D01*
X79409523Y-67747619D01*
X79457142Y-67842857D01*
X79457142Y-67985714D01*
X79409523Y-68080952D01*
X79361904Y-68128571D01*
X79266666Y-68176190D01*
X78885714Y-68176190D01*
X80409523Y-68652380D02*
X79838095Y-68652380D01*
X80123809Y-68652380D02*
X80123809Y-67652380D01*
X80028571Y-67795238D01*
X79933333Y-67890476D01*
X79838095Y-67938095D01*
X80790476Y-67747619D02*
X80838095Y-67700000D01*
X80933333Y-67652380D01*
X81171428Y-67652380D01*
X81266666Y-67700000D01*
X81314285Y-67747619D01*
X81361904Y-67842857D01*
X81361904Y-67938095D01*
X81314285Y-68080952D01*
X80742857Y-68652380D01*
X81361904Y-68652380D01*
%TO.C,R26*%
X59657142Y-92452380D02*
X59323809Y-91976190D01*
X59085714Y-92452380D02*
X59085714Y-91452380D01*
X59466666Y-91452380D01*
X59561904Y-91500000D01*
X59609523Y-91547619D01*
X59657142Y-91642857D01*
X59657142Y-91785714D01*
X59609523Y-91880952D01*
X59561904Y-91928571D01*
X59466666Y-91976190D01*
X59085714Y-91976190D01*
X60038095Y-91547619D02*
X60085714Y-91500000D01*
X60180952Y-91452380D01*
X60419047Y-91452380D01*
X60514285Y-91500000D01*
X60561904Y-91547619D01*
X60609523Y-91642857D01*
X60609523Y-91738095D01*
X60561904Y-91880952D01*
X59990476Y-92452380D01*
X60609523Y-92452380D01*
X61466666Y-91452380D02*
X61276190Y-91452380D01*
X61180952Y-91500000D01*
X61133333Y-91547619D01*
X61038095Y-91690476D01*
X60990476Y-91880952D01*
X60990476Y-92261904D01*
X61038095Y-92357142D01*
X61085714Y-92404761D01*
X61180952Y-92452380D01*
X61371428Y-92452380D01*
X61466666Y-92404761D01*
X61514285Y-92357142D01*
X61561904Y-92261904D01*
X61561904Y-92023809D01*
X61514285Y-91928571D01*
X61466666Y-91880952D01*
X61371428Y-91833333D01*
X61180952Y-91833333D01*
X61085714Y-91880952D01*
X61038095Y-91928571D01*
X60990476Y-92023809D01*
%TO.C,C49*%
X79357142Y-86957142D02*
X79309523Y-87004761D01*
X79166666Y-87052380D01*
X79071428Y-87052380D01*
X78928571Y-87004761D01*
X78833333Y-86909523D01*
X78785714Y-86814285D01*
X78738095Y-86623809D01*
X78738095Y-86480952D01*
X78785714Y-86290476D01*
X78833333Y-86195238D01*
X78928571Y-86100000D01*
X79071428Y-86052380D01*
X79166666Y-86052380D01*
X79309523Y-86100000D01*
X79357142Y-86147619D01*
X80214285Y-86385714D02*
X80214285Y-87052380D01*
X79976190Y-86004761D02*
X79738095Y-86719047D01*
X80357142Y-86719047D01*
X80785714Y-87052380D02*
X80976190Y-87052380D01*
X81071428Y-87004761D01*
X81119047Y-86957142D01*
X81214285Y-86814285D01*
X81261904Y-86623809D01*
X81261904Y-86242857D01*
X81214285Y-86147619D01*
X81166666Y-86100000D01*
X81071428Y-86052380D01*
X80880952Y-86052380D01*
X80785714Y-86100000D01*
X80738095Y-86147619D01*
X80690476Y-86242857D01*
X80690476Y-86480952D01*
X80738095Y-86576190D01*
X80785714Y-86623809D01*
X80880952Y-86671428D01*
X81071428Y-86671428D01*
X81166666Y-86623809D01*
X81214285Y-86576190D01*
X81261904Y-86480952D01*
%TO.C,R20*%
X52857142Y-101452380D02*
X52523809Y-100976190D01*
X52285714Y-101452380D02*
X52285714Y-100452380D01*
X52666666Y-100452380D01*
X52761904Y-100500000D01*
X52809523Y-100547619D01*
X52857142Y-100642857D01*
X52857142Y-100785714D01*
X52809523Y-100880952D01*
X52761904Y-100928571D01*
X52666666Y-100976190D01*
X52285714Y-100976190D01*
X53238095Y-100547619D02*
X53285714Y-100500000D01*
X53380952Y-100452380D01*
X53619047Y-100452380D01*
X53714285Y-100500000D01*
X53761904Y-100547619D01*
X53809523Y-100642857D01*
X53809523Y-100738095D01*
X53761904Y-100880952D01*
X53190476Y-101452380D01*
X53809523Y-101452380D01*
X54428571Y-100452380D02*
X54523809Y-100452380D01*
X54619047Y-100500000D01*
X54666666Y-100547619D01*
X54714285Y-100642857D01*
X54761904Y-100833333D01*
X54761904Y-101071428D01*
X54714285Y-101261904D01*
X54666666Y-101357142D01*
X54619047Y-101404761D01*
X54523809Y-101452380D01*
X54428571Y-101452380D01*
X54333333Y-101404761D01*
X54285714Y-101357142D01*
X54238095Y-101261904D01*
X54190476Y-101071428D01*
X54190476Y-100833333D01*
X54238095Y-100642857D01*
X54285714Y-100547619D01*
X54333333Y-100500000D01*
X54428571Y-100452380D01*
%TO.C,R8*%
X79433333Y-70352380D02*
X79100000Y-69876190D01*
X78861904Y-70352380D02*
X78861904Y-69352380D01*
X79242857Y-69352380D01*
X79338095Y-69400000D01*
X79385714Y-69447619D01*
X79433333Y-69542857D01*
X79433333Y-69685714D01*
X79385714Y-69780952D01*
X79338095Y-69828571D01*
X79242857Y-69876190D01*
X78861904Y-69876190D01*
X80004761Y-69780952D02*
X79909523Y-69733333D01*
X79861904Y-69685714D01*
X79814285Y-69590476D01*
X79814285Y-69542857D01*
X79861904Y-69447619D01*
X79909523Y-69400000D01*
X80004761Y-69352380D01*
X80195238Y-69352380D01*
X80290476Y-69400000D01*
X80338095Y-69447619D01*
X80385714Y-69542857D01*
X80385714Y-69590476D01*
X80338095Y-69685714D01*
X80290476Y-69733333D01*
X80195238Y-69780952D01*
X80004761Y-69780952D01*
X79909523Y-69828571D01*
X79861904Y-69876190D01*
X79814285Y-69971428D01*
X79814285Y-70161904D01*
X79861904Y-70257142D01*
X79909523Y-70304761D01*
X80004761Y-70352380D01*
X80195238Y-70352380D01*
X80290476Y-70304761D01*
X80338095Y-70257142D01*
X80385714Y-70161904D01*
X80385714Y-69971428D01*
X80338095Y-69876190D01*
X80290476Y-69828571D01*
X80195238Y-69780952D01*
%TO.C,C25*%
X79457142Y-121757142D02*
X79409523Y-121804761D01*
X79266666Y-121852380D01*
X79171428Y-121852380D01*
X79028571Y-121804761D01*
X78933333Y-121709523D01*
X78885714Y-121614285D01*
X78838095Y-121423809D01*
X78838095Y-121280952D01*
X78885714Y-121090476D01*
X78933333Y-120995238D01*
X79028571Y-120900000D01*
X79171428Y-120852380D01*
X79266666Y-120852380D01*
X79409523Y-120900000D01*
X79457142Y-120947619D01*
X79838095Y-120947619D02*
X79885714Y-120900000D01*
X79980952Y-120852380D01*
X80219047Y-120852380D01*
X80314285Y-120900000D01*
X80361904Y-120947619D01*
X80409523Y-121042857D01*
X80409523Y-121138095D01*
X80361904Y-121280952D01*
X79790476Y-121852380D01*
X80409523Y-121852380D01*
X81314285Y-120852380D02*
X80838095Y-120852380D01*
X80790476Y-121328571D01*
X80838095Y-121280952D01*
X80933333Y-121233333D01*
X81171428Y-121233333D01*
X81266666Y-121280952D01*
X81314285Y-121328571D01*
X81361904Y-121423809D01*
X81361904Y-121661904D01*
X81314285Y-121757142D01*
X81266666Y-121804761D01*
X81171428Y-121852380D01*
X80933333Y-121852380D01*
X80838095Y-121804761D01*
X80790476Y-121757142D01*
%TO.C,R28*%
X52857142Y-107852380D02*
X52523809Y-107376190D01*
X52285714Y-107852380D02*
X52285714Y-106852380D01*
X52666666Y-106852380D01*
X52761904Y-106900000D01*
X52809523Y-106947619D01*
X52857142Y-107042857D01*
X52857142Y-107185714D01*
X52809523Y-107280952D01*
X52761904Y-107328571D01*
X52666666Y-107376190D01*
X52285714Y-107376190D01*
X53238095Y-106947619D02*
X53285714Y-106900000D01*
X53380952Y-106852380D01*
X53619047Y-106852380D01*
X53714285Y-106900000D01*
X53761904Y-106947619D01*
X53809523Y-107042857D01*
X53809523Y-107138095D01*
X53761904Y-107280952D01*
X53190476Y-107852380D01*
X53809523Y-107852380D01*
X54380952Y-107280952D02*
X54285714Y-107233333D01*
X54238095Y-107185714D01*
X54190476Y-107090476D01*
X54190476Y-107042857D01*
X54238095Y-106947619D01*
X54285714Y-106900000D01*
X54380952Y-106852380D01*
X54571428Y-106852380D01*
X54666666Y-106900000D01*
X54714285Y-106947619D01*
X54761904Y-107042857D01*
X54761904Y-107090476D01*
X54714285Y-107185714D01*
X54666666Y-107233333D01*
X54571428Y-107280952D01*
X54380952Y-107280952D01*
X54285714Y-107328571D01*
X54238095Y-107376190D01*
X54190476Y-107471428D01*
X54190476Y-107661904D01*
X54238095Y-107757142D01*
X54285714Y-107804761D01*
X54380952Y-107852380D01*
X54571428Y-107852380D01*
X54666666Y-107804761D01*
X54714285Y-107757142D01*
X54761904Y-107661904D01*
X54761904Y-107471428D01*
X54714285Y-107376190D01*
X54666666Y-107328571D01*
X54571428Y-107280952D01*
%TO.C,C37*%
X79457142Y-94157142D02*
X79409523Y-94204761D01*
X79266666Y-94252380D01*
X79171428Y-94252380D01*
X79028571Y-94204761D01*
X78933333Y-94109523D01*
X78885714Y-94014285D01*
X78838095Y-93823809D01*
X78838095Y-93680952D01*
X78885714Y-93490476D01*
X78933333Y-93395238D01*
X79028571Y-93300000D01*
X79171428Y-93252380D01*
X79266666Y-93252380D01*
X79409523Y-93300000D01*
X79457142Y-93347619D01*
X79790476Y-93252380D02*
X80409523Y-93252380D01*
X80076190Y-93633333D01*
X80219047Y-93633333D01*
X80314285Y-93680952D01*
X80361904Y-93728571D01*
X80409523Y-93823809D01*
X80409523Y-94061904D01*
X80361904Y-94157142D01*
X80314285Y-94204761D01*
X80219047Y-94252380D01*
X79933333Y-94252380D01*
X79838095Y-94204761D01*
X79790476Y-94157142D01*
X80742857Y-93252380D02*
X81409523Y-93252380D01*
X80980952Y-94252380D01*
%TO.C,U5*%
X69438095Y-93652380D02*
X69438095Y-94461904D01*
X69485714Y-94557142D01*
X69533333Y-94604761D01*
X69628571Y-94652380D01*
X69819047Y-94652380D01*
X69914285Y-94604761D01*
X69961904Y-94557142D01*
X70009523Y-94461904D01*
X70009523Y-93652380D01*
X70961904Y-93652380D02*
X70485714Y-93652380D01*
X70438095Y-94128571D01*
X70485714Y-94080952D01*
X70580952Y-94033333D01*
X70819047Y-94033333D01*
X70914285Y-94080952D01*
X70961904Y-94128571D01*
X71009523Y-94223809D01*
X71009523Y-94461904D01*
X70961904Y-94557142D01*
X70914285Y-94604761D01*
X70819047Y-94652380D01*
X70580952Y-94652380D01*
X70485714Y-94604761D01*
X70438095Y-94557142D01*
%TO.C,R72*%
X79457142Y-65252380D02*
X79123809Y-64776190D01*
X78885714Y-65252380D02*
X78885714Y-64252380D01*
X79266666Y-64252380D01*
X79361904Y-64300000D01*
X79409523Y-64347619D01*
X79457142Y-64442857D01*
X79457142Y-64585714D01*
X79409523Y-64680952D01*
X79361904Y-64728571D01*
X79266666Y-64776190D01*
X78885714Y-64776190D01*
X79790476Y-64252380D02*
X80457142Y-64252380D01*
X80028571Y-65252380D01*
X80790476Y-64347619D02*
X80838095Y-64300000D01*
X80933333Y-64252380D01*
X81171428Y-64252380D01*
X81266666Y-64300000D01*
X81314285Y-64347619D01*
X81361904Y-64442857D01*
X81361904Y-64538095D01*
X81314285Y-64680952D01*
X80742857Y-65252380D01*
X81361904Y-65252380D01*
%TO.C,R55*%
X59644642Y-136252380D02*
X59311309Y-135776190D01*
X59073214Y-136252380D02*
X59073214Y-135252380D01*
X59454166Y-135252380D01*
X59549404Y-135300000D01*
X59597023Y-135347619D01*
X59644642Y-135442857D01*
X59644642Y-135585714D01*
X59597023Y-135680952D01*
X59549404Y-135728571D01*
X59454166Y-135776190D01*
X59073214Y-135776190D01*
X60549404Y-135252380D02*
X60073214Y-135252380D01*
X60025595Y-135728571D01*
X60073214Y-135680952D01*
X60168452Y-135633333D01*
X60406547Y-135633333D01*
X60501785Y-135680952D01*
X60549404Y-135728571D01*
X60597023Y-135823809D01*
X60597023Y-136061904D01*
X60549404Y-136157142D01*
X60501785Y-136204761D01*
X60406547Y-136252380D01*
X60168452Y-136252380D01*
X60073214Y-136204761D01*
X60025595Y-136157142D01*
X61501785Y-135252380D02*
X61025595Y-135252380D01*
X60977976Y-135728571D01*
X61025595Y-135680952D01*
X61120833Y-135633333D01*
X61358928Y-135633333D01*
X61454166Y-135680952D01*
X61501785Y-135728571D01*
X61549404Y-135823809D01*
X61549404Y-136061904D01*
X61501785Y-136157142D01*
X61454166Y-136204761D01*
X61358928Y-136252380D01*
X61120833Y-136252380D01*
X61025595Y-136204761D01*
X60977976Y-136157142D01*
%TO.C,R41*%
X86157142Y-124552380D02*
X85823809Y-124076190D01*
X85585714Y-124552380D02*
X85585714Y-123552380D01*
X85966666Y-123552380D01*
X86061904Y-123600000D01*
X86109523Y-123647619D01*
X86157142Y-123742857D01*
X86157142Y-123885714D01*
X86109523Y-123980952D01*
X86061904Y-124028571D01*
X85966666Y-124076190D01*
X85585714Y-124076190D01*
X87014285Y-123885714D02*
X87014285Y-124552380D01*
X86776190Y-123504761D02*
X86538095Y-124219047D01*
X87157142Y-124219047D01*
X88061904Y-124552380D02*
X87490476Y-124552380D01*
X87776190Y-124552380D02*
X87776190Y-123552380D01*
X87680952Y-123695238D01*
X87585714Y-123790476D01*
X87490476Y-123838095D01*
%TO.C,C46*%
X79457142Y-136157142D02*
X79409523Y-136204761D01*
X79266666Y-136252380D01*
X79171428Y-136252380D01*
X79028571Y-136204761D01*
X78933333Y-136109523D01*
X78885714Y-136014285D01*
X78838095Y-135823809D01*
X78838095Y-135680952D01*
X78885714Y-135490476D01*
X78933333Y-135395238D01*
X79028571Y-135300000D01*
X79171428Y-135252380D01*
X79266666Y-135252380D01*
X79409523Y-135300000D01*
X79457142Y-135347619D01*
X80314285Y-135585714D02*
X80314285Y-136252380D01*
X80076190Y-135204761D02*
X79838095Y-135919047D01*
X80457142Y-135919047D01*
X81266666Y-135252380D02*
X81076190Y-135252380D01*
X80980952Y-135300000D01*
X80933333Y-135347619D01*
X80838095Y-135490476D01*
X80790476Y-135680952D01*
X80790476Y-136061904D01*
X80838095Y-136157142D01*
X80885714Y-136204761D01*
X80980952Y-136252380D01*
X81171428Y-136252380D01*
X81266666Y-136204761D01*
X81314285Y-136157142D01*
X81361904Y-136061904D01*
X81361904Y-135823809D01*
X81314285Y-135728571D01*
X81266666Y-135680952D01*
X81171428Y-135633333D01*
X80980952Y-135633333D01*
X80885714Y-135680952D01*
X80838095Y-135728571D01*
X80790476Y-135823809D01*
%TO.C,R70*%
X86157142Y-130952380D02*
X85823809Y-130476190D01*
X85585714Y-130952380D02*
X85585714Y-129952380D01*
X85966666Y-129952380D01*
X86061904Y-130000000D01*
X86109523Y-130047619D01*
X86157142Y-130142857D01*
X86157142Y-130285714D01*
X86109523Y-130380952D01*
X86061904Y-130428571D01*
X85966666Y-130476190D01*
X85585714Y-130476190D01*
X86490476Y-129952380D02*
X87157142Y-129952380D01*
X86728571Y-130952380D01*
X87728571Y-129952380D02*
X87823809Y-129952380D01*
X87919047Y-130000000D01*
X87966666Y-130047619D01*
X88014285Y-130142857D01*
X88061904Y-130333333D01*
X88061904Y-130571428D01*
X88014285Y-130761904D01*
X87966666Y-130857142D01*
X87919047Y-130904761D01*
X87823809Y-130952380D01*
X87728571Y-130952380D01*
X87633333Y-130904761D01*
X87585714Y-130857142D01*
X87538095Y-130761904D01*
X87490476Y-130571428D01*
X87490476Y-130333333D01*
X87538095Y-130142857D01*
X87585714Y-130047619D01*
X87633333Y-130000000D01*
X87728571Y-129952380D01*
%TO.C,C36*%
X59557142Y-141557142D02*
X59509523Y-141604761D01*
X59366666Y-141652380D01*
X59271428Y-141652380D01*
X59128571Y-141604761D01*
X59033333Y-141509523D01*
X58985714Y-141414285D01*
X58938095Y-141223809D01*
X58938095Y-141080952D01*
X58985714Y-140890476D01*
X59033333Y-140795238D01*
X59128571Y-140700000D01*
X59271428Y-140652380D01*
X59366666Y-140652380D01*
X59509523Y-140700000D01*
X59557142Y-140747619D01*
X59890476Y-140652380D02*
X60509523Y-140652380D01*
X60176190Y-141033333D01*
X60319047Y-141033333D01*
X60414285Y-141080952D01*
X60461904Y-141128571D01*
X60509523Y-141223809D01*
X60509523Y-141461904D01*
X60461904Y-141557142D01*
X60414285Y-141604761D01*
X60319047Y-141652380D01*
X60033333Y-141652380D01*
X59938095Y-141604761D01*
X59890476Y-141557142D01*
X61366666Y-140652380D02*
X61176190Y-140652380D01*
X61080952Y-140700000D01*
X61033333Y-140747619D01*
X60938095Y-140890476D01*
X60890476Y-141080952D01*
X60890476Y-141461904D01*
X60938095Y-141557142D01*
X60985714Y-141604761D01*
X61080952Y-141652380D01*
X61271428Y-141652380D01*
X61366666Y-141604761D01*
X61414285Y-141557142D01*
X61461904Y-141461904D01*
X61461904Y-141223809D01*
X61414285Y-141128571D01*
X61366666Y-141080952D01*
X61271428Y-141033333D01*
X61080952Y-141033333D01*
X60985714Y-141080952D01*
X60938095Y-141128571D01*
X60890476Y-141223809D01*
%TO.C,C12*%
X79457142Y-88757142D02*
X79409523Y-88804761D01*
X79266666Y-88852380D01*
X79171428Y-88852380D01*
X79028571Y-88804761D01*
X78933333Y-88709523D01*
X78885714Y-88614285D01*
X78838095Y-88423809D01*
X78838095Y-88280952D01*
X78885714Y-88090476D01*
X78933333Y-87995238D01*
X79028571Y-87900000D01*
X79171428Y-87852380D01*
X79266666Y-87852380D01*
X79409523Y-87900000D01*
X79457142Y-87947619D01*
X80409523Y-88852380D02*
X79838095Y-88852380D01*
X80123809Y-88852380D02*
X80123809Y-87852380D01*
X80028571Y-87995238D01*
X79933333Y-88090476D01*
X79838095Y-88138095D01*
X80790476Y-87947619D02*
X80838095Y-87900000D01*
X80933333Y-87852380D01*
X81171428Y-87852380D01*
X81266666Y-87900000D01*
X81314285Y-87947619D01*
X81361904Y-88042857D01*
X81361904Y-88138095D01*
X81314285Y-88280952D01*
X80742857Y-88852380D01*
X81361904Y-88852380D01*
%TO.C,U9*%
X69438095Y-123152380D02*
X69438095Y-123961904D01*
X69485714Y-124057142D01*
X69533333Y-124104761D01*
X69628571Y-124152380D01*
X69819047Y-124152380D01*
X69914285Y-124104761D01*
X69961904Y-124057142D01*
X70009523Y-123961904D01*
X70009523Y-123152380D01*
X70533333Y-124152380D02*
X70723809Y-124152380D01*
X70819047Y-124104761D01*
X70866666Y-124057142D01*
X70961904Y-123914285D01*
X71009523Y-123723809D01*
X71009523Y-123342857D01*
X70961904Y-123247619D01*
X70914285Y-123200000D01*
X70819047Y-123152380D01*
X70628571Y-123152380D01*
X70533333Y-123200000D01*
X70485714Y-123247619D01*
X70438095Y-123342857D01*
X70438095Y-123580952D01*
X70485714Y-123676190D01*
X70533333Y-123723809D01*
X70628571Y-123771428D01*
X70819047Y-123771428D01*
X70914285Y-123723809D01*
X70961904Y-123676190D01*
X71009523Y-123580952D01*
%TO.C,R32*%
X86157142Y-101452380D02*
X85823809Y-100976190D01*
X85585714Y-101452380D02*
X85585714Y-100452380D01*
X85966666Y-100452380D01*
X86061904Y-100500000D01*
X86109523Y-100547619D01*
X86157142Y-100642857D01*
X86157142Y-100785714D01*
X86109523Y-100880952D01*
X86061904Y-100928571D01*
X85966666Y-100976190D01*
X85585714Y-100976190D01*
X86490476Y-100452380D02*
X87109523Y-100452380D01*
X86776190Y-100833333D01*
X86919047Y-100833333D01*
X87014285Y-100880952D01*
X87061904Y-100928571D01*
X87109523Y-101023809D01*
X87109523Y-101261904D01*
X87061904Y-101357142D01*
X87014285Y-101404761D01*
X86919047Y-101452380D01*
X86633333Y-101452380D01*
X86538095Y-101404761D01*
X86490476Y-101357142D01*
X87490476Y-100547619D02*
X87538095Y-100500000D01*
X87633333Y-100452380D01*
X87871428Y-100452380D01*
X87966666Y-100500000D01*
X88014285Y-100547619D01*
X88061904Y-100642857D01*
X88061904Y-100738095D01*
X88014285Y-100880952D01*
X87442857Y-101452380D01*
X88061904Y-101452380D01*
%TO.C,R48*%
X59657142Y-125552380D02*
X59323809Y-125076190D01*
X59085714Y-125552380D02*
X59085714Y-124552380D01*
X59466666Y-124552380D01*
X59561904Y-124600000D01*
X59609523Y-124647619D01*
X59657142Y-124742857D01*
X59657142Y-124885714D01*
X59609523Y-124980952D01*
X59561904Y-125028571D01*
X59466666Y-125076190D01*
X59085714Y-125076190D01*
X60514285Y-124885714D02*
X60514285Y-125552380D01*
X60276190Y-124504761D02*
X60038095Y-125219047D01*
X60657142Y-125219047D01*
X61180952Y-124980952D02*
X61085714Y-124933333D01*
X61038095Y-124885714D01*
X60990476Y-124790476D01*
X60990476Y-124742857D01*
X61038095Y-124647619D01*
X61085714Y-124600000D01*
X61180952Y-124552380D01*
X61371428Y-124552380D01*
X61466666Y-124600000D01*
X61514285Y-124647619D01*
X61561904Y-124742857D01*
X61561904Y-124790476D01*
X61514285Y-124885714D01*
X61466666Y-124933333D01*
X61371428Y-124980952D01*
X61180952Y-124980952D01*
X61085714Y-125028571D01*
X61038095Y-125076190D01*
X60990476Y-125171428D01*
X60990476Y-125361904D01*
X61038095Y-125457142D01*
X61085714Y-125504761D01*
X61180952Y-125552380D01*
X61371428Y-125552380D01*
X61466666Y-125504761D01*
X61514285Y-125457142D01*
X61561904Y-125361904D01*
X61561904Y-125171428D01*
X61514285Y-125076190D01*
X61466666Y-125028571D01*
X61371428Y-124980952D01*
%TO.C,C27*%
X52857142Y-122857142D02*
X52809523Y-122904761D01*
X52666666Y-122952380D01*
X52571428Y-122952380D01*
X52428571Y-122904761D01*
X52333333Y-122809523D01*
X52285714Y-122714285D01*
X52238095Y-122523809D01*
X52238095Y-122380952D01*
X52285714Y-122190476D01*
X52333333Y-122095238D01*
X52428571Y-122000000D01*
X52571428Y-121952380D01*
X52666666Y-121952380D01*
X52809523Y-122000000D01*
X52857142Y-122047619D01*
X53238095Y-122047619D02*
X53285714Y-122000000D01*
X53380952Y-121952380D01*
X53619047Y-121952380D01*
X53714285Y-122000000D01*
X53761904Y-122047619D01*
X53809523Y-122142857D01*
X53809523Y-122238095D01*
X53761904Y-122380952D01*
X53190476Y-122952380D01*
X53809523Y-122952380D01*
X54142857Y-121952380D02*
X54809523Y-121952380D01*
X54380952Y-122952380D01*
%TO.C,R30*%
X52857142Y-106252380D02*
X52523809Y-105776190D01*
X52285714Y-106252380D02*
X52285714Y-105252380D01*
X52666666Y-105252380D01*
X52761904Y-105300000D01*
X52809523Y-105347619D01*
X52857142Y-105442857D01*
X52857142Y-105585714D01*
X52809523Y-105680952D01*
X52761904Y-105728571D01*
X52666666Y-105776190D01*
X52285714Y-105776190D01*
X53190476Y-105252380D02*
X53809523Y-105252380D01*
X53476190Y-105633333D01*
X53619047Y-105633333D01*
X53714285Y-105680952D01*
X53761904Y-105728571D01*
X53809523Y-105823809D01*
X53809523Y-106061904D01*
X53761904Y-106157142D01*
X53714285Y-106204761D01*
X53619047Y-106252380D01*
X53333333Y-106252380D01*
X53238095Y-106204761D01*
X53190476Y-106157142D01*
X54428571Y-105252380D02*
X54523809Y-105252380D01*
X54619047Y-105300000D01*
X54666666Y-105347619D01*
X54714285Y-105442857D01*
X54761904Y-105633333D01*
X54761904Y-105871428D01*
X54714285Y-106061904D01*
X54666666Y-106157142D01*
X54619047Y-106204761D01*
X54523809Y-106252380D01*
X54428571Y-106252380D01*
X54333333Y-106204761D01*
X54285714Y-106157142D01*
X54238095Y-106061904D01*
X54190476Y-105871428D01*
X54190476Y-105633333D01*
X54238095Y-105442857D01*
X54285714Y-105347619D01*
X54333333Y-105300000D01*
X54428571Y-105252380D01*
%TO.C,R40*%
X86157142Y-107852380D02*
X85823809Y-107376190D01*
X85585714Y-107852380D02*
X85585714Y-106852380D01*
X85966666Y-106852380D01*
X86061904Y-106900000D01*
X86109523Y-106947619D01*
X86157142Y-107042857D01*
X86157142Y-107185714D01*
X86109523Y-107280952D01*
X86061904Y-107328571D01*
X85966666Y-107376190D01*
X85585714Y-107376190D01*
X87014285Y-107185714D02*
X87014285Y-107852380D01*
X86776190Y-106804761D02*
X86538095Y-107519047D01*
X87157142Y-107519047D01*
X87728571Y-106852380D02*
X87823809Y-106852380D01*
X87919047Y-106900000D01*
X87966666Y-106947619D01*
X88014285Y-107042857D01*
X88061904Y-107233333D01*
X88061904Y-107471428D01*
X88014285Y-107661904D01*
X87966666Y-107757142D01*
X87919047Y-107804761D01*
X87823809Y-107852380D01*
X87728571Y-107852380D01*
X87633333Y-107804761D01*
X87585714Y-107757142D01*
X87538095Y-107661904D01*
X87490476Y-107471428D01*
X87490476Y-107233333D01*
X87538095Y-107042857D01*
X87585714Y-106947619D01*
X87633333Y-106900000D01*
X87728571Y-106852380D01*
%TO.C,C44*%
X59657142Y-123657142D02*
X59609523Y-123704761D01*
X59466666Y-123752380D01*
X59371428Y-123752380D01*
X59228571Y-123704761D01*
X59133333Y-123609523D01*
X59085714Y-123514285D01*
X59038095Y-123323809D01*
X59038095Y-123180952D01*
X59085714Y-122990476D01*
X59133333Y-122895238D01*
X59228571Y-122800000D01*
X59371428Y-122752380D01*
X59466666Y-122752380D01*
X59609523Y-122800000D01*
X59657142Y-122847619D01*
X60514285Y-123085714D02*
X60514285Y-123752380D01*
X60276190Y-122704761D02*
X60038095Y-123419047D01*
X60657142Y-123419047D01*
X61466666Y-123085714D02*
X61466666Y-123752380D01*
X61228571Y-122704761D02*
X60990476Y-123419047D01*
X61609523Y-123419047D01*
%TO.C,C8*%
X60620833Y-69844642D02*
X60573214Y-69892261D01*
X60430357Y-69939880D01*
X60335119Y-69939880D01*
X60192261Y-69892261D01*
X60097023Y-69797023D01*
X60049404Y-69701785D01*
X60001785Y-69511309D01*
X60001785Y-69368452D01*
X60049404Y-69177976D01*
X60097023Y-69082738D01*
X60192261Y-68987500D01*
X60335119Y-68939880D01*
X60430357Y-68939880D01*
X60573214Y-68987500D01*
X60620833Y-69035119D01*
X61192261Y-69368452D02*
X61097023Y-69320833D01*
X61049404Y-69273214D01*
X61001785Y-69177976D01*
X61001785Y-69130357D01*
X61049404Y-69035119D01*
X61097023Y-68987500D01*
X61192261Y-68939880D01*
X61382738Y-68939880D01*
X61477976Y-68987500D01*
X61525595Y-69035119D01*
X61573214Y-69130357D01*
X61573214Y-69177976D01*
X61525595Y-69273214D01*
X61477976Y-69320833D01*
X61382738Y-69368452D01*
X61192261Y-69368452D01*
X61097023Y-69416071D01*
X61049404Y-69463690D01*
X61001785Y-69558928D01*
X61001785Y-69749404D01*
X61049404Y-69844642D01*
X61097023Y-69892261D01*
X61192261Y-69939880D01*
X61382738Y-69939880D01*
X61477976Y-69892261D01*
X61525595Y-69844642D01*
X61573214Y-69749404D01*
X61573214Y-69558928D01*
X61525595Y-69463690D01*
X61477976Y-69416071D01*
X61382738Y-69368452D01*
%TO.C,U3*%
X69438095Y-105052380D02*
X69438095Y-105861904D01*
X69485714Y-105957142D01*
X69533333Y-106004761D01*
X69628571Y-106052380D01*
X69819047Y-106052380D01*
X69914285Y-106004761D01*
X69961904Y-105957142D01*
X70009523Y-105861904D01*
X70009523Y-105052380D01*
X70390476Y-105052380D02*
X71009523Y-105052380D01*
X70676190Y-105433333D01*
X70819047Y-105433333D01*
X70914285Y-105480952D01*
X70961904Y-105528571D01*
X71009523Y-105623809D01*
X71009523Y-105861904D01*
X70961904Y-105957142D01*
X70914285Y-106004761D01*
X70819047Y-106052380D01*
X70533333Y-106052380D01*
X70438095Y-106004761D01*
X70390476Y-105957142D01*
%TO.C,C47*%
X79457142Y-80057142D02*
X79409523Y-80104761D01*
X79266666Y-80152380D01*
X79171428Y-80152380D01*
X79028571Y-80104761D01*
X78933333Y-80009523D01*
X78885714Y-79914285D01*
X78838095Y-79723809D01*
X78838095Y-79580952D01*
X78885714Y-79390476D01*
X78933333Y-79295238D01*
X79028571Y-79200000D01*
X79171428Y-79152380D01*
X79266666Y-79152380D01*
X79409523Y-79200000D01*
X79457142Y-79247619D01*
X80314285Y-79485714D02*
X80314285Y-80152380D01*
X80076190Y-79104761D02*
X79838095Y-79819047D01*
X80457142Y-79819047D01*
X80742857Y-79152380D02*
X81409523Y-79152380D01*
X80980952Y-80152380D01*
%TO.C,C50*%
X59657142Y-81757142D02*
X59609523Y-81804761D01*
X59466666Y-81852380D01*
X59371428Y-81852380D01*
X59228571Y-81804761D01*
X59133333Y-81709523D01*
X59085714Y-81614285D01*
X59038095Y-81423809D01*
X59038095Y-81280952D01*
X59085714Y-81090476D01*
X59133333Y-80995238D01*
X59228571Y-80900000D01*
X59371428Y-80852380D01*
X59466666Y-80852380D01*
X59609523Y-80900000D01*
X59657142Y-80947619D01*
X60561904Y-80852380D02*
X60085714Y-80852380D01*
X60038095Y-81328571D01*
X60085714Y-81280952D01*
X60180952Y-81233333D01*
X60419047Y-81233333D01*
X60514285Y-81280952D01*
X60561904Y-81328571D01*
X60609523Y-81423809D01*
X60609523Y-81661904D01*
X60561904Y-81757142D01*
X60514285Y-81804761D01*
X60419047Y-81852380D01*
X60180952Y-81852380D01*
X60085714Y-81804761D01*
X60038095Y-81757142D01*
X61228571Y-80852380D02*
X61323809Y-80852380D01*
X61419047Y-80900000D01*
X61466666Y-80947619D01*
X61514285Y-81042857D01*
X61561904Y-81233333D01*
X61561904Y-81471428D01*
X61514285Y-81661904D01*
X61466666Y-81757142D01*
X61419047Y-81804761D01*
X61323809Y-81852380D01*
X61228571Y-81852380D01*
X61133333Y-81804761D01*
X61085714Y-81757142D01*
X61038095Y-81661904D01*
X60990476Y-81471428D01*
X60990476Y-81233333D01*
X61038095Y-81042857D01*
X61085714Y-80947619D01*
X61133333Y-80900000D01*
X61228571Y-80852380D01*
%TO.C,R66*%
X86157142Y-137352380D02*
X85823809Y-136876190D01*
X85585714Y-137352380D02*
X85585714Y-136352380D01*
X85966666Y-136352380D01*
X86061904Y-136400000D01*
X86109523Y-136447619D01*
X86157142Y-136542857D01*
X86157142Y-136685714D01*
X86109523Y-136780952D01*
X86061904Y-136828571D01*
X85966666Y-136876190D01*
X85585714Y-136876190D01*
X87014285Y-136352380D02*
X86823809Y-136352380D01*
X86728571Y-136400000D01*
X86680952Y-136447619D01*
X86585714Y-136590476D01*
X86538095Y-136780952D01*
X86538095Y-137161904D01*
X86585714Y-137257142D01*
X86633333Y-137304761D01*
X86728571Y-137352380D01*
X86919047Y-137352380D01*
X87014285Y-137304761D01*
X87061904Y-137257142D01*
X87109523Y-137161904D01*
X87109523Y-136923809D01*
X87061904Y-136828571D01*
X87014285Y-136780952D01*
X86919047Y-136733333D01*
X86728571Y-136733333D01*
X86633333Y-136780952D01*
X86585714Y-136828571D01*
X86538095Y-136923809D01*
X87966666Y-136352380D02*
X87776190Y-136352380D01*
X87680952Y-136400000D01*
X87633333Y-136447619D01*
X87538095Y-136590476D01*
X87490476Y-136780952D01*
X87490476Y-137161904D01*
X87538095Y-137257142D01*
X87585714Y-137304761D01*
X87680952Y-137352380D01*
X87871428Y-137352380D01*
X87966666Y-137304761D01*
X88014285Y-137257142D01*
X88061904Y-137161904D01*
X88061904Y-136923809D01*
X88014285Y-136828571D01*
X87966666Y-136780952D01*
X87871428Y-136733333D01*
X87680952Y-136733333D01*
X87585714Y-136780952D01*
X87538095Y-136828571D01*
X87490476Y-136923809D01*
%TO.C,R4*%
X79533333Y-83552380D02*
X79200000Y-83076190D01*
X78961904Y-83552380D02*
X78961904Y-82552380D01*
X79342857Y-82552380D01*
X79438095Y-82600000D01*
X79485714Y-82647619D01*
X79533333Y-82742857D01*
X79533333Y-82885714D01*
X79485714Y-82980952D01*
X79438095Y-83028571D01*
X79342857Y-83076190D01*
X78961904Y-83076190D01*
X80390476Y-82885714D02*
X80390476Y-83552380D01*
X80152380Y-82504761D02*
X79914285Y-83219047D01*
X80533333Y-83219047D01*
%TO.C,C41*%
X79457142Y-130757142D02*
X79409523Y-130804761D01*
X79266666Y-130852380D01*
X79171428Y-130852380D01*
X79028571Y-130804761D01*
X78933333Y-130709523D01*
X78885714Y-130614285D01*
X78838095Y-130423809D01*
X78838095Y-130280952D01*
X78885714Y-130090476D01*
X78933333Y-129995238D01*
X79028571Y-129900000D01*
X79171428Y-129852380D01*
X79266666Y-129852380D01*
X79409523Y-129900000D01*
X79457142Y-129947619D01*
X80314285Y-130185714D02*
X80314285Y-130852380D01*
X80076190Y-129804761D02*
X79838095Y-130519047D01*
X80457142Y-130519047D01*
X81361904Y-130852380D02*
X80790476Y-130852380D01*
X81076190Y-130852380D02*
X81076190Y-129852380D01*
X80980952Y-129995238D01*
X80885714Y-130090476D01*
X80790476Y-130138095D01*
%TO.C,R59*%
X86157142Y-127752380D02*
X85823809Y-127276190D01*
X85585714Y-127752380D02*
X85585714Y-126752380D01*
X85966666Y-126752380D01*
X86061904Y-126800000D01*
X86109523Y-126847619D01*
X86157142Y-126942857D01*
X86157142Y-127085714D01*
X86109523Y-127180952D01*
X86061904Y-127228571D01*
X85966666Y-127276190D01*
X85585714Y-127276190D01*
X87061904Y-126752380D02*
X86585714Y-126752380D01*
X86538095Y-127228571D01*
X86585714Y-127180952D01*
X86680952Y-127133333D01*
X86919047Y-127133333D01*
X87014285Y-127180952D01*
X87061904Y-127228571D01*
X87109523Y-127323809D01*
X87109523Y-127561904D01*
X87061904Y-127657142D01*
X87014285Y-127704761D01*
X86919047Y-127752380D01*
X86680952Y-127752380D01*
X86585714Y-127704761D01*
X86538095Y-127657142D01*
X87585714Y-127752380D02*
X87776190Y-127752380D01*
X87871428Y-127704761D01*
X87919047Y-127657142D01*
X88014285Y-127514285D01*
X88061904Y-127323809D01*
X88061904Y-126942857D01*
X88014285Y-126847619D01*
X87966666Y-126800000D01*
X87871428Y-126752380D01*
X87680952Y-126752380D01*
X87585714Y-126800000D01*
X87538095Y-126847619D01*
X87490476Y-126942857D01*
X87490476Y-127180952D01*
X87538095Y-127276190D01*
X87585714Y-127323809D01*
X87680952Y-127371428D01*
X87871428Y-127371428D01*
X87966666Y-127323809D01*
X88014285Y-127276190D01*
X88061904Y-127180952D01*
%TO.C,C43*%
X59657142Y-99557142D02*
X59609523Y-99604761D01*
X59466666Y-99652380D01*
X59371428Y-99652380D01*
X59228571Y-99604761D01*
X59133333Y-99509523D01*
X59085714Y-99414285D01*
X59038095Y-99223809D01*
X59038095Y-99080952D01*
X59085714Y-98890476D01*
X59133333Y-98795238D01*
X59228571Y-98700000D01*
X59371428Y-98652380D01*
X59466666Y-98652380D01*
X59609523Y-98700000D01*
X59657142Y-98747619D01*
X60514285Y-98985714D02*
X60514285Y-99652380D01*
X60276190Y-98604761D02*
X60038095Y-99319047D01*
X60657142Y-99319047D01*
X60942857Y-98652380D02*
X61561904Y-98652380D01*
X61228571Y-99033333D01*
X61371428Y-99033333D01*
X61466666Y-99080952D01*
X61514285Y-99128571D01*
X61561904Y-99223809D01*
X61561904Y-99461904D01*
X61514285Y-99557142D01*
X61466666Y-99604761D01*
X61371428Y-99652380D01*
X61085714Y-99652380D01*
X60990476Y-99604761D01*
X60942857Y-99557142D01*
%TO.C,R1*%
X60533333Y-85252380D02*
X60200000Y-84776190D01*
X59961904Y-85252380D02*
X59961904Y-84252380D01*
X60342857Y-84252380D01*
X60438095Y-84300000D01*
X60485714Y-84347619D01*
X60533333Y-84442857D01*
X60533333Y-84585714D01*
X60485714Y-84680952D01*
X60438095Y-84728571D01*
X60342857Y-84776190D01*
X59961904Y-84776190D01*
X61485714Y-85252380D02*
X60914285Y-85252380D01*
X61200000Y-85252380D02*
X61200000Y-84252380D01*
X61104761Y-84395238D01*
X61009523Y-84490476D01*
X60914285Y-84538095D01*
%TO.C,C16*%
X59657142Y-110257142D02*
X59609523Y-110304761D01*
X59466666Y-110352380D01*
X59371428Y-110352380D01*
X59228571Y-110304761D01*
X59133333Y-110209523D01*
X59085714Y-110114285D01*
X59038095Y-109923809D01*
X59038095Y-109780952D01*
X59085714Y-109590476D01*
X59133333Y-109495238D01*
X59228571Y-109400000D01*
X59371428Y-109352380D01*
X59466666Y-109352380D01*
X59609523Y-109400000D01*
X59657142Y-109447619D01*
X60609523Y-110352380D02*
X60038095Y-110352380D01*
X60323809Y-110352380D02*
X60323809Y-109352380D01*
X60228571Y-109495238D01*
X60133333Y-109590476D01*
X60038095Y-109638095D01*
X61466666Y-109352380D02*
X61276190Y-109352380D01*
X61180952Y-109400000D01*
X61133333Y-109447619D01*
X61038095Y-109590476D01*
X60990476Y-109780952D01*
X60990476Y-110161904D01*
X61038095Y-110257142D01*
X61085714Y-110304761D01*
X61180952Y-110352380D01*
X61371428Y-110352380D01*
X61466666Y-110304761D01*
X61514285Y-110257142D01*
X61561904Y-110161904D01*
X61561904Y-109923809D01*
X61514285Y-109828571D01*
X61466666Y-109780952D01*
X61371428Y-109733333D01*
X61180952Y-109733333D01*
X61085714Y-109780952D01*
X61038095Y-109828571D01*
X60990476Y-109923809D01*
%TO.C,R25*%
X79457142Y-99652380D02*
X79123809Y-99176190D01*
X78885714Y-99652380D02*
X78885714Y-98652380D01*
X79266666Y-98652380D01*
X79361904Y-98700000D01*
X79409523Y-98747619D01*
X79457142Y-98842857D01*
X79457142Y-98985714D01*
X79409523Y-99080952D01*
X79361904Y-99128571D01*
X79266666Y-99176190D01*
X78885714Y-99176190D01*
X79838095Y-98747619D02*
X79885714Y-98700000D01*
X79980952Y-98652380D01*
X80219047Y-98652380D01*
X80314285Y-98700000D01*
X80361904Y-98747619D01*
X80409523Y-98842857D01*
X80409523Y-98938095D01*
X80361904Y-99080952D01*
X79790476Y-99652380D01*
X80409523Y-99652380D01*
X81314285Y-98652380D02*
X80838095Y-98652380D01*
X80790476Y-99128571D01*
X80838095Y-99080952D01*
X80933333Y-99033333D01*
X81171428Y-99033333D01*
X81266666Y-99080952D01*
X81314285Y-99128571D01*
X81361904Y-99223809D01*
X81361904Y-99461904D01*
X81314285Y-99557142D01*
X81266666Y-99604761D01*
X81171428Y-99652380D01*
X80933333Y-99652380D01*
X80838095Y-99604761D01*
X80790476Y-99557142D01*
%TO.C,R47*%
X52857142Y-127752380D02*
X52523809Y-127276190D01*
X52285714Y-127752380D02*
X52285714Y-126752380D01*
X52666666Y-126752380D01*
X52761904Y-126800000D01*
X52809523Y-126847619D01*
X52857142Y-126942857D01*
X52857142Y-127085714D01*
X52809523Y-127180952D01*
X52761904Y-127228571D01*
X52666666Y-127276190D01*
X52285714Y-127276190D01*
X53714285Y-127085714D02*
X53714285Y-127752380D01*
X53476190Y-126704761D02*
X53238095Y-127419047D01*
X53857142Y-127419047D01*
X54142857Y-126752380D02*
X54809523Y-126752380D01*
X54380952Y-127752380D01*
%TO.C,C13*%
X59657142Y-104857142D02*
X59609523Y-104904761D01*
X59466666Y-104952380D01*
X59371428Y-104952380D01*
X59228571Y-104904761D01*
X59133333Y-104809523D01*
X59085714Y-104714285D01*
X59038095Y-104523809D01*
X59038095Y-104380952D01*
X59085714Y-104190476D01*
X59133333Y-104095238D01*
X59228571Y-104000000D01*
X59371428Y-103952380D01*
X59466666Y-103952380D01*
X59609523Y-104000000D01*
X59657142Y-104047619D01*
X60609523Y-104952380D02*
X60038095Y-104952380D01*
X60323809Y-104952380D02*
X60323809Y-103952380D01*
X60228571Y-104095238D01*
X60133333Y-104190476D01*
X60038095Y-104238095D01*
X60942857Y-103952380D02*
X61561904Y-103952380D01*
X61228571Y-104333333D01*
X61371428Y-104333333D01*
X61466666Y-104380952D01*
X61514285Y-104428571D01*
X61561904Y-104523809D01*
X61561904Y-104761904D01*
X61514285Y-104857142D01*
X61466666Y-104904761D01*
X61371428Y-104952380D01*
X61085714Y-104952380D01*
X60990476Y-104904761D01*
X60942857Y-104857142D01*
%TO.C,R14*%
X59657142Y-73352380D02*
X59323809Y-72876190D01*
X59085714Y-73352380D02*
X59085714Y-72352380D01*
X59466666Y-72352380D01*
X59561904Y-72400000D01*
X59609523Y-72447619D01*
X59657142Y-72542857D01*
X59657142Y-72685714D01*
X59609523Y-72780952D01*
X59561904Y-72828571D01*
X59466666Y-72876190D01*
X59085714Y-72876190D01*
X60609523Y-73352380D02*
X60038095Y-73352380D01*
X60323809Y-73352380D02*
X60323809Y-72352380D01*
X60228571Y-72495238D01*
X60133333Y-72590476D01*
X60038095Y-72638095D01*
X61466666Y-72685714D02*
X61466666Y-73352380D01*
X61228571Y-72304761D02*
X60990476Y-73019047D01*
X61609523Y-73019047D01*
%TO.C,R15*%
X86157142Y-95052380D02*
X85823809Y-94576190D01*
X85585714Y-95052380D02*
X85585714Y-94052380D01*
X85966666Y-94052380D01*
X86061904Y-94100000D01*
X86109523Y-94147619D01*
X86157142Y-94242857D01*
X86157142Y-94385714D01*
X86109523Y-94480952D01*
X86061904Y-94528571D01*
X85966666Y-94576190D01*
X85585714Y-94576190D01*
X87109523Y-95052380D02*
X86538095Y-95052380D01*
X86823809Y-95052380D02*
X86823809Y-94052380D01*
X86728571Y-94195238D01*
X86633333Y-94290476D01*
X86538095Y-94338095D01*
X88014285Y-94052380D02*
X87538095Y-94052380D01*
X87490476Y-94528571D01*
X87538095Y-94480952D01*
X87633333Y-94433333D01*
X87871428Y-94433333D01*
X87966666Y-94480952D01*
X88014285Y-94528571D01*
X88061904Y-94623809D01*
X88061904Y-94861904D01*
X88014285Y-94957142D01*
X87966666Y-95004761D01*
X87871428Y-95052380D01*
X87633333Y-95052380D01*
X87538095Y-95004761D01*
X87490476Y-94957142D01*
%TO.C,R17*%
X86157142Y-93452380D02*
X85823809Y-92976190D01*
X85585714Y-93452380D02*
X85585714Y-92452380D01*
X85966666Y-92452380D01*
X86061904Y-92500000D01*
X86109523Y-92547619D01*
X86157142Y-92642857D01*
X86157142Y-92785714D01*
X86109523Y-92880952D01*
X86061904Y-92928571D01*
X85966666Y-92976190D01*
X85585714Y-92976190D01*
X87109523Y-93452380D02*
X86538095Y-93452380D01*
X86823809Y-93452380D02*
X86823809Y-92452380D01*
X86728571Y-92595238D01*
X86633333Y-92690476D01*
X86538095Y-92738095D01*
X87442857Y-92452380D02*
X88109523Y-92452380D01*
X87680952Y-93452380D01*
%TO.C,R24*%
X59657142Y-97852380D02*
X59323809Y-97376190D01*
X59085714Y-97852380D02*
X59085714Y-96852380D01*
X59466666Y-96852380D01*
X59561904Y-96900000D01*
X59609523Y-96947619D01*
X59657142Y-97042857D01*
X59657142Y-97185714D01*
X59609523Y-97280952D01*
X59561904Y-97328571D01*
X59466666Y-97376190D01*
X59085714Y-97376190D01*
X60038095Y-96947619D02*
X60085714Y-96900000D01*
X60180952Y-96852380D01*
X60419047Y-96852380D01*
X60514285Y-96900000D01*
X60561904Y-96947619D01*
X60609523Y-97042857D01*
X60609523Y-97138095D01*
X60561904Y-97280952D01*
X59990476Y-97852380D01*
X60609523Y-97852380D01*
X61466666Y-97185714D02*
X61466666Y-97852380D01*
X61228571Y-96804761D02*
X60990476Y-97519047D01*
X61609523Y-97519047D01*
%TO.C,C6*%
X60633333Y-90544642D02*
X60585714Y-90592261D01*
X60442857Y-90639880D01*
X60347619Y-90639880D01*
X60204761Y-90592261D01*
X60109523Y-90497023D01*
X60061904Y-90401785D01*
X60014285Y-90211309D01*
X60014285Y-90068452D01*
X60061904Y-89877976D01*
X60109523Y-89782738D01*
X60204761Y-89687500D01*
X60347619Y-89639880D01*
X60442857Y-89639880D01*
X60585714Y-89687500D01*
X60633333Y-89735119D01*
X61490476Y-89639880D02*
X61300000Y-89639880D01*
X61204761Y-89687500D01*
X61157142Y-89735119D01*
X61061904Y-89877976D01*
X61014285Y-90068452D01*
X61014285Y-90449404D01*
X61061904Y-90544642D01*
X61109523Y-90592261D01*
X61204761Y-90639880D01*
X61395238Y-90639880D01*
X61490476Y-90592261D01*
X61538095Y-90544642D01*
X61585714Y-90449404D01*
X61585714Y-90211309D01*
X61538095Y-90116071D01*
X61490476Y-90068452D01*
X61395238Y-90020833D01*
X61204761Y-90020833D01*
X61109523Y-90068452D01*
X61061904Y-90116071D01*
X61014285Y-90211309D01*
%TO.C,C23*%
X59757142Y-118257142D02*
X59709523Y-118304761D01*
X59566666Y-118352380D01*
X59471428Y-118352380D01*
X59328571Y-118304761D01*
X59233333Y-118209523D01*
X59185714Y-118114285D01*
X59138095Y-117923809D01*
X59138095Y-117780952D01*
X59185714Y-117590476D01*
X59233333Y-117495238D01*
X59328571Y-117400000D01*
X59471428Y-117352380D01*
X59566666Y-117352380D01*
X59709523Y-117400000D01*
X59757142Y-117447619D01*
X60138095Y-117447619D02*
X60185714Y-117400000D01*
X60280952Y-117352380D01*
X60519047Y-117352380D01*
X60614285Y-117400000D01*
X60661904Y-117447619D01*
X60709523Y-117542857D01*
X60709523Y-117638095D01*
X60661904Y-117780952D01*
X60090476Y-118352380D01*
X60709523Y-118352380D01*
X61042857Y-117352380D02*
X61661904Y-117352380D01*
X61328571Y-117733333D01*
X61471428Y-117733333D01*
X61566666Y-117780952D01*
X61614285Y-117828571D01*
X61661904Y-117923809D01*
X61661904Y-118161904D01*
X61614285Y-118257142D01*
X61566666Y-118304761D01*
X61471428Y-118352380D01*
X61185714Y-118352380D01*
X61090476Y-118304761D01*
X61042857Y-118257142D01*
%TO.C,R31*%
X86157142Y-98252380D02*
X85823809Y-97776190D01*
X85585714Y-98252380D02*
X85585714Y-97252380D01*
X85966666Y-97252380D01*
X86061904Y-97300000D01*
X86109523Y-97347619D01*
X86157142Y-97442857D01*
X86157142Y-97585714D01*
X86109523Y-97680952D01*
X86061904Y-97728571D01*
X85966666Y-97776190D01*
X85585714Y-97776190D01*
X86490476Y-97252380D02*
X87109523Y-97252380D01*
X86776190Y-97633333D01*
X86919047Y-97633333D01*
X87014285Y-97680952D01*
X87061904Y-97728571D01*
X87109523Y-97823809D01*
X87109523Y-98061904D01*
X87061904Y-98157142D01*
X87014285Y-98204761D01*
X86919047Y-98252380D01*
X86633333Y-98252380D01*
X86538095Y-98204761D01*
X86490476Y-98157142D01*
X88061904Y-98252380D02*
X87490476Y-98252380D01*
X87776190Y-98252380D02*
X87776190Y-97252380D01*
X87680952Y-97395238D01*
X87585714Y-97490476D01*
X87490476Y-97538095D01*
%TO.C,R39*%
X86157142Y-104652380D02*
X85823809Y-104176190D01*
X85585714Y-104652380D02*
X85585714Y-103652380D01*
X85966666Y-103652380D01*
X86061904Y-103700000D01*
X86109523Y-103747619D01*
X86157142Y-103842857D01*
X86157142Y-103985714D01*
X86109523Y-104080952D01*
X86061904Y-104128571D01*
X85966666Y-104176190D01*
X85585714Y-104176190D01*
X86490476Y-103652380D02*
X87109523Y-103652380D01*
X86776190Y-104033333D01*
X86919047Y-104033333D01*
X87014285Y-104080952D01*
X87061904Y-104128571D01*
X87109523Y-104223809D01*
X87109523Y-104461904D01*
X87061904Y-104557142D01*
X87014285Y-104604761D01*
X86919047Y-104652380D01*
X86633333Y-104652380D01*
X86538095Y-104604761D01*
X86490476Y-104557142D01*
X87585714Y-104652380D02*
X87776190Y-104652380D01*
X87871428Y-104604761D01*
X87919047Y-104557142D01*
X88014285Y-104414285D01*
X88061904Y-104223809D01*
X88061904Y-103842857D01*
X88014285Y-103747619D01*
X87966666Y-103700000D01*
X87871428Y-103652380D01*
X87680952Y-103652380D01*
X87585714Y-103700000D01*
X87538095Y-103747619D01*
X87490476Y-103842857D01*
X87490476Y-104080952D01*
X87538095Y-104176190D01*
X87585714Y-104223809D01*
X87680952Y-104271428D01*
X87871428Y-104271428D01*
X87966666Y-104223809D01*
X88014285Y-104176190D01*
X88061904Y-104080952D01*
%TO.C,C48*%
X59557142Y-76657142D02*
X59509523Y-76704761D01*
X59366666Y-76752380D01*
X59271428Y-76752380D01*
X59128571Y-76704761D01*
X59033333Y-76609523D01*
X58985714Y-76514285D01*
X58938095Y-76323809D01*
X58938095Y-76180952D01*
X58985714Y-75990476D01*
X59033333Y-75895238D01*
X59128571Y-75800000D01*
X59271428Y-75752380D01*
X59366666Y-75752380D01*
X59509523Y-75800000D01*
X59557142Y-75847619D01*
X60414285Y-76085714D02*
X60414285Y-76752380D01*
X60176190Y-75704761D02*
X59938095Y-76419047D01*
X60557142Y-76419047D01*
X61080952Y-76180952D02*
X60985714Y-76133333D01*
X60938095Y-76085714D01*
X60890476Y-75990476D01*
X60890476Y-75942857D01*
X60938095Y-75847619D01*
X60985714Y-75800000D01*
X61080952Y-75752380D01*
X61271428Y-75752380D01*
X61366666Y-75800000D01*
X61414285Y-75847619D01*
X61461904Y-75942857D01*
X61461904Y-75990476D01*
X61414285Y-76085714D01*
X61366666Y-76133333D01*
X61271428Y-76180952D01*
X61080952Y-76180952D01*
X60985714Y-76228571D01*
X60938095Y-76276190D01*
X60890476Y-76371428D01*
X60890476Y-76561904D01*
X60938095Y-76657142D01*
X60985714Y-76704761D01*
X61080952Y-76752380D01*
X61271428Y-76752380D01*
X61366666Y-76704761D01*
X61414285Y-76657142D01*
X61461904Y-76561904D01*
X61461904Y-76371428D01*
X61414285Y-76276190D01*
X61366666Y-76228571D01*
X61271428Y-76180952D01*
%TO.C,C26*%
X79457142Y-127157142D02*
X79409523Y-127204761D01*
X79266666Y-127252380D01*
X79171428Y-127252380D01*
X79028571Y-127204761D01*
X78933333Y-127109523D01*
X78885714Y-127014285D01*
X78838095Y-126823809D01*
X78838095Y-126680952D01*
X78885714Y-126490476D01*
X78933333Y-126395238D01*
X79028571Y-126300000D01*
X79171428Y-126252380D01*
X79266666Y-126252380D01*
X79409523Y-126300000D01*
X79457142Y-126347619D01*
X79838095Y-126347619D02*
X79885714Y-126300000D01*
X79980952Y-126252380D01*
X80219047Y-126252380D01*
X80314285Y-126300000D01*
X80361904Y-126347619D01*
X80409523Y-126442857D01*
X80409523Y-126538095D01*
X80361904Y-126680952D01*
X79790476Y-127252380D01*
X80409523Y-127252380D01*
X81266666Y-126252380D02*
X81076190Y-126252380D01*
X80980952Y-126300000D01*
X80933333Y-126347619D01*
X80838095Y-126490476D01*
X80790476Y-126680952D01*
X80790476Y-127061904D01*
X80838095Y-127157142D01*
X80885714Y-127204761D01*
X80980952Y-127252380D01*
X81171428Y-127252380D01*
X81266666Y-127204761D01*
X81314285Y-127157142D01*
X81361904Y-127061904D01*
X81361904Y-126823809D01*
X81314285Y-126728571D01*
X81266666Y-126680952D01*
X81171428Y-126633333D01*
X80980952Y-126633333D01*
X80885714Y-126680952D01*
X80838095Y-126728571D01*
X80790476Y-126823809D01*
%TO.C,R43*%
X86157142Y-122952380D02*
X85823809Y-122476190D01*
X85585714Y-122952380D02*
X85585714Y-121952380D01*
X85966666Y-121952380D01*
X86061904Y-122000000D01*
X86109523Y-122047619D01*
X86157142Y-122142857D01*
X86157142Y-122285714D01*
X86109523Y-122380952D01*
X86061904Y-122428571D01*
X85966666Y-122476190D01*
X85585714Y-122476190D01*
X87014285Y-122285714D02*
X87014285Y-122952380D01*
X86776190Y-121904761D02*
X86538095Y-122619047D01*
X87157142Y-122619047D01*
X87442857Y-121952380D02*
X88061904Y-121952380D01*
X87728571Y-122333333D01*
X87871428Y-122333333D01*
X87966666Y-122380952D01*
X88014285Y-122428571D01*
X88061904Y-122523809D01*
X88061904Y-122761904D01*
X88014285Y-122857142D01*
X87966666Y-122904761D01*
X87871428Y-122952380D01*
X87585714Y-122952380D01*
X87490476Y-122904761D01*
X87442857Y-122857142D01*
%TO.C,R71*%
X59657142Y-86952380D02*
X59323809Y-86476190D01*
X59085714Y-86952380D02*
X59085714Y-85952380D01*
X59466666Y-85952380D01*
X59561904Y-86000000D01*
X59609523Y-86047619D01*
X59657142Y-86142857D01*
X59657142Y-86285714D01*
X59609523Y-86380952D01*
X59561904Y-86428571D01*
X59466666Y-86476190D01*
X59085714Y-86476190D01*
X59990476Y-85952380D02*
X60657142Y-85952380D01*
X60228571Y-86952380D01*
X61561904Y-86952380D02*
X60990476Y-86952380D01*
X61276190Y-86952380D02*
X61276190Y-85952380D01*
X61180952Y-86095238D01*
X61085714Y-86190476D01*
X60990476Y-86238095D01*
%TO.C,C1*%
X84233333Y-51757142D02*
X84185714Y-51804761D01*
X84042857Y-51852380D01*
X83947619Y-51852380D01*
X83804761Y-51804761D01*
X83709523Y-51709523D01*
X83661904Y-51614285D01*
X83614285Y-51423809D01*
X83614285Y-51280952D01*
X83661904Y-51090476D01*
X83709523Y-50995238D01*
X83804761Y-50900000D01*
X83947619Y-50852380D01*
X84042857Y-50852380D01*
X84185714Y-50900000D01*
X84233333Y-50947619D01*
X85185714Y-51852380D02*
X84614285Y-51852380D01*
X84900000Y-51852380D02*
X84900000Y-50852380D01*
X84804761Y-50995238D01*
X84709523Y-51090476D01*
X84614285Y-51138095D01*
%TO.C,C42*%
X79457142Y-106657142D02*
X79409523Y-106704761D01*
X79266666Y-106752380D01*
X79171428Y-106752380D01*
X79028571Y-106704761D01*
X78933333Y-106609523D01*
X78885714Y-106514285D01*
X78838095Y-106323809D01*
X78838095Y-106180952D01*
X78885714Y-105990476D01*
X78933333Y-105895238D01*
X79028571Y-105800000D01*
X79171428Y-105752380D01*
X79266666Y-105752380D01*
X79409523Y-105800000D01*
X79457142Y-105847619D01*
X80314285Y-106085714D02*
X80314285Y-106752380D01*
X80076190Y-105704761D02*
X79838095Y-106419047D01*
X80457142Y-106419047D01*
X80790476Y-105847619D02*
X80838095Y-105800000D01*
X80933333Y-105752380D01*
X81171428Y-105752380D01*
X81266666Y-105800000D01*
X81314285Y-105847619D01*
X81361904Y-105942857D01*
X81361904Y-106038095D01*
X81314285Y-106180952D01*
X80742857Y-106752380D01*
X81361904Y-106752380D01*
%TO.C,R61*%
X79457142Y-132652380D02*
X79123809Y-132176190D01*
X78885714Y-132652380D02*
X78885714Y-131652380D01*
X79266666Y-131652380D01*
X79361904Y-131700000D01*
X79409523Y-131747619D01*
X79457142Y-131842857D01*
X79457142Y-131985714D01*
X79409523Y-132080952D01*
X79361904Y-132128571D01*
X79266666Y-132176190D01*
X78885714Y-132176190D01*
X80314285Y-131652380D02*
X80123809Y-131652380D01*
X80028571Y-131700000D01*
X79980952Y-131747619D01*
X79885714Y-131890476D01*
X79838095Y-132080952D01*
X79838095Y-132461904D01*
X79885714Y-132557142D01*
X79933333Y-132604761D01*
X80028571Y-132652380D01*
X80219047Y-132652380D01*
X80314285Y-132604761D01*
X80361904Y-132557142D01*
X80409523Y-132461904D01*
X80409523Y-132223809D01*
X80361904Y-132128571D01*
X80314285Y-132080952D01*
X80219047Y-132033333D01*
X80028571Y-132033333D01*
X79933333Y-132080952D01*
X79885714Y-132128571D01*
X79838095Y-132223809D01*
X81361904Y-132652380D02*
X80790476Y-132652380D01*
X81076190Y-132652380D02*
X81076190Y-131652380D01*
X80980952Y-131795238D01*
X80885714Y-131890476D01*
X80790476Y-131938095D01*
%TO.C,C32*%
X59557142Y-139757142D02*
X59509523Y-139804761D01*
X59366666Y-139852380D01*
X59271428Y-139852380D01*
X59128571Y-139804761D01*
X59033333Y-139709523D01*
X58985714Y-139614285D01*
X58938095Y-139423809D01*
X58938095Y-139280952D01*
X58985714Y-139090476D01*
X59033333Y-138995238D01*
X59128571Y-138900000D01*
X59271428Y-138852380D01*
X59366666Y-138852380D01*
X59509523Y-138900000D01*
X59557142Y-138947619D01*
X59890476Y-138852380D02*
X60509523Y-138852380D01*
X60176190Y-139233333D01*
X60319047Y-139233333D01*
X60414285Y-139280952D01*
X60461904Y-139328571D01*
X60509523Y-139423809D01*
X60509523Y-139661904D01*
X60461904Y-139757142D01*
X60414285Y-139804761D01*
X60319047Y-139852380D01*
X60033333Y-139852380D01*
X59938095Y-139804761D01*
X59890476Y-139757142D01*
X60890476Y-138947619D02*
X60938095Y-138900000D01*
X61033333Y-138852380D01*
X61271428Y-138852380D01*
X61366666Y-138900000D01*
X61414285Y-138947619D01*
X61461904Y-139042857D01*
X61461904Y-139138095D01*
X61414285Y-139280952D01*
X60842857Y-139852380D01*
X61461904Y-139852380D01*
%TO.C,R60*%
X86157142Y-126152380D02*
X85823809Y-125676190D01*
X85585714Y-126152380D02*
X85585714Y-125152380D01*
X85966666Y-125152380D01*
X86061904Y-125200000D01*
X86109523Y-125247619D01*
X86157142Y-125342857D01*
X86157142Y-125485714D01*
X86109523Y-125580952D01*
X86061904Y-125628571D01*
X85966666Y-125676190D01*
X85585714Y-125676190D01*
X87014285Y-125152380D02*
X86823809Y-125152380D01*
X86728571Y-125200000D01*
X86680952Y-125247619D01*
X86585714Y-125390476D01*
X86538095Y-125580952D01*
X86538095Y-125961904D01*
X86585714Y-126057142D01*
X86633333Y-126104761D01*
X86728571Y-126152380D01*
X86919047Y-126152380D01*
X87014285Y-126104761D01*
X87061904Y-126057142D01*
X87109523Y-125961904D01*
X87109523Y-125723809D01*
X87061904Y-125628571D01*
X87014285Y-125580952D01*
X86919047Y-125533333D01*
X86728571Y-125533333D01*
X86633333Y-125580952D01*
X86585714Y-125628571D01*
X86538095Y-125723809D01*
X87728571Y-125152380D02*
X87823809Y-125152380D01*
X87919047Y-125200000D01*
X87966666Y-125247619D01*
X88014285Y-125342857D01*
X88061904Y-125533333D01*
X88061904Y-125771428D01*
X88014285Y-125961904D01*
X87966666Y-126057142D01*
X87919047Y-126104761D01*
X87823809Y-126152380D01*
X87728571Y-126152380D01*
X87633333Y-126104761D01*
X87585714Y-126057142D01*
X87538095Y-125961904D01*
X87490476Y-125771428D01*
X87490476Y-125533333D01*
X87538095Y-125342857D01*
X87585714Y-125247619D01*
X87633333Y-125200000D01*
X87728571Y-125152380D01*
%TO.C,R5*%
X60633333Y-80139880D02*
X60300000Y-79663690D01*
X60061904Y-80139880D02*
X60061904Y-79139880D01*
X60442857Y-79139880D01*
X60538095Y-79187500D01*
X60585714Y-79235119D01*
X60633333Y-79330357D01*
X60633333Y-79473214D01*
X60585714Y-79568452D01*
X60538095Y-79616071D01*
X60442857Y-79663690D01*
X60061904Y-79663690D01*
X61538095Y-79139880D02*
X61061904Y-79139880D01*
X61014285Y-79616071D01*
X61061904Y-79568452D01*
X61157142Y-79520833D01*
X61395238Y-79520833D01*
X61490476Y-79568452D01*
X61538095Y-79616071D01*
X61585714Y-79711309D01*
X61585714Y-79949404D01*
X61538095Y-80044642D01*
X61490476Y-80092261D01*
X61395238Y-80139880D01*
X61157142Y-80139880D01*
X61061904Y-80092261D01*
X61014285Y-80044642D01*
%TO.C,R49*%
X52857142Y-126182380D02*
X52523809Y-125706190D01*
X52285714Y-126182380D02*
X52285714Y-125182380D01*
X52666666Y-125182380D01*
X52761904Y-125230000D01*
X52809523Y-125277619D01*
X52857142Y-125372857D01*
X52857142Y-125515714D01*
X52809523Y-125610952D01*
X52761904Y-125658571D01*
X52666666Y-125706190D01*
X52285714Y-125706190D01*
X53714285Y-125515714D02*
X53714285Y-126182380D01*
X53476190Y-125134761D02*
X53238095Y-125849047D01*
X53857142Y-125849047D01*
X54285714Y-126182380D02*
X54476190Y-126182380D01*
X54571428Y-126134761D01*
X54619047Y-126087142D01*
X54714285Y-125944285D01*
X54761904Y-125753809D01*
X54761904Y-125372857D01*
X54714285Y-125277619D01*
X54666666Y-125230000D01*
X54571428Y-125182380D01*
X54380952Y-125182380D01*
X54285714Y-125230000D01*
X54238095Y-125277619D01*
X54190476Y-125372857D01*
X54190476Y-125610952D01*
X54238095Y-125706190D01*
X54285714Y-125753809D01*
X54380952Y-125801428D01*
X54571428Y-125801428D01*
X54666666Y-125753809D01*
X54714285Y-125706190D01*
X54761904Y-125610952D01*
%TO.C,C7*%
X60633333Y-88757142D02*
X60585714Y-88804761D01*
X60442857Y-88852380D01*
X60347619Y-88852380D01*
X60204761Y-88804761D01*
X60109523Y-88709523D01*
X60061904Y-88614285D01*
X60014285Y-88423809D01*
X60014285Y-88280952D01*
X60061904Y-88090476D01*
X60109523Y-87995238D01*
X60204761Y-87900000D01*
X60347619Y-87852380D01*
X60442857Y-87852380D01*
X60585714Y-87900000D01*
X60633333Y-87947619D01*
X60966666Y-87852380D02*
X61633333Y-87852380D01*
X61204761Y-88852380D01*
%TO.C,R29*%
X59644642Y-106752380D02*
X59311309Y-106276190D01*
X59073214Y-106752380D02*
X59073214Y-105752380D01*
X59454166Y-105752380D01*
X59549404Y-105800000D01*
X59597023Y-105847619D01*
X59644642Y-105942857D01*
X59644642Y-106085714D01*
X59597023Y-106180952D01*
X59549404Y-106228571D01*
X59454166Y-106276190D01*
X59073214Y-106276190D01*
X60025595Y-105847619D02*
X60073214Y-105800000D01*
X60168452Y-105752380D01*
X60406547Y-105752380D01*
X60501785Y-105800000D01*
X60549404Y-105847619D01*
X60597023Y-105942857D01*
X60597023Y-106038095D01*
X60549404Y-106180952D01*
X59977976Y-106752380D01*
X60597023Y-106752380D01*
X61073214Y-106752380D02*
X61263690Y-106752380D01*
X61358928Y-106704761D01*
X61406547Y-106657142D01*
X61501785Y-106514285D01*
X61549404Y-106323809D01*
X61549404Y-105942857D01*
X61501785Y-105847619D01*
X61454166Y-105800000D01*
X61358928Y-105752380D01*
X61168452Y-105752380D01*
X61073214Y-105800000D01*
X61025595Y-105847619D01*
X60977976Y-105942857D01*
X60977976Y-106180952D01*
X61025595Y-106276190D01*
X61073214Y-106323809D01*
X61168452Y-106371428D01*
X61358928Y-106371428D01*
X61454166Y-106323809D01*
X61501785Y-106276190D01*
X61549404Y-106180952D01*
%TO.C,R11*%
X79457142Y-75452380D02*
X79123809Y-74976190D01*
X78885714Y-75452380D02*
X78885714Y-74452380D01*
X79266666Y-74452380D01*
X79361904Y-74500000D01*
X79409523Y-74547619D01*
X79457142Y-74642857D01*
X79457142Y-74785714D01*
X79409523Y-74880952D01*
X79361904Y-74928571D01*
X79266666Y-74976190D01*
X78885714Y-74976190D01*
X80409523Y-75452380D02*
X79838095Y-75452380D01*
X80123809Y-75452380D02*
X80123809Y-74452380D01*
X80028571Y-74595238D01*
X79933333Y-74690476D01*
X79838095Y-74738095D01*
X81361904Y-75452380D02*
X80790476Y-75452380D01*
X81076190Y-75452380D02*
X81076190Y-74452380D01*
X80980952Y-74595238D01*
X80885714Y-74690476D01*
X80790476Y-74738095D01*
%TO.C,R63*%
X79457142Y-134452380D02*
X79123809Y-133976190D01*
X78885714Y-134452380D02*
X78885714Y-133452380D01*
X79266666Y-133452380D01*
X79361904Y-133500000D01*
X79409523Y-133547619D01*
X79457142Y-133642857D01*
X79457142Y-133785714D01*
X79409523Y-133880952D01*
X79361904Y-133928571D01*
X79266666Y-133976190D01*
X78885714Y-133976190D01*
X80314285Y-133452380D02*
X80123809Y-133452380D01*
X80028571Y-133500000D01*
X79980952Y-133547619D01*
X79885714Y-133690476D01*
X79838095Y-133880952D01*
X79838095Y-134261904D01*
X79885714Y-134357142D01*
X79933333Y-134404761D01*
X80028571Y-134452380D01*
X80219047Y-134452380D01*
X80314285Y-134404761D01*
X80361904Y-134357142D01*
X80409523Y-134261904D01*
X80409523Y-134023809D01*
X80361904Y-133928571D01*
X80314285Y-133880952D01*
X80219047Y-133833333D01*
X80028571Y-133833333D01*
X79933333Y-133880952D01*
X79885714Y-133928571D01*
X79838095Y-134023809D01*
X80742857Y-133452380D02*
X81361904Y-133452380D01*
X81028571Y-133833333D01*
X81171428Y-133833333D01*
X81266666Y-133880952D01*
X81314285Y-133928571D01*
X81361904Y-134023809D01*
X81361904Y-134261904D01*
X81314285Y-134357142D01*
X81266666Y-134404761D01*
X81171428Y-134452380D01*
X80885714Y-134452380D01*
X80790476Y-134404761D01*
X80742857Y-134357142D01*
%TO.C,C29*%
X59657142Y-134357142D02*
X59609523Y-134404761D01*
X59466666Y-134452380D01*
X59371428Y-134452380D01*
X59228571Y-134404761D01*
X59133333Y-134309523D01*
X59085714Y-134214285D01*
X59038095Y-134023809D01*
X59038095Y-133880952D01*
X59085714Y-133690476D01*
X59133333Y-133595238D01*
X59228571Y-133500000D01*
X59371428Y-133452380D01*
X59466666Y-133452380D01*
X59609523Y-133500000D01*
X59657142Y-133547619D01*
X60038095Y-133547619D02*
X60085714Y-133500000D01*
X60180952Y-133452380D01*
X60419047Y-133452380D01*
X60514285Y-133500000D01*
X60561904Y-133547619D01*
X60609523Y-133642857D01*
X60609523Y-133738095D01*
X60561904Y-133880952D01*
X59990476Y-134452380D01*
X60609523Y-134452380D01*
X61085714Y-134452380D02*
X61276190Y-134452380D01*
X61371428Y-134404761D01*
X61419047Y-134357142D01*
X61514285Y-134214285D01*
X61561904Y-134023809D01*
X61561904Y-133642857D01*
X61514285Y-133547619D01*
X61466666Y-133500000D01*
X61371428Y-133452380D01*
X61180952Y-133452380D01*
X61085714Y-133500000D01*
X61038095Y-133547619D01*
X60990476Y-133642857D01*
X60990476Y-133880952D01*
X61038095Y-133976190D01*
X61085714Y-134023809D01*
X61180952Y-134071428D01*
X61371428Y-134071428D01*
X61466666Y-134023809D01*
X61514285Y-133976190D01*
X61561904Y-133880952D01*
%TO.C,C39*%
X79457142Y-101257142D02*
X79409523Y-101304761D01*
X79266666Y-101352380D01*
X79171428Y-101352380D01*
X79028571Y-101304761D01*
X78933333Y-101209523D01*
X78885714Y-101114285D01*
X78838095Y-100923809D01*
X78838095Y-100780952D01*
X78885714Y-100590476D01*
X78933333Y-100495238D01*
X79028571Y-100400000D01*
X79171428Y-100352380D01*
X79266666Y-100352380D01*
X79409523Y-100400000D01*
X79457142Y-100447619D01*
X79790476Y-100352380D02*
X80409523Y-100352380D01*
X80076190Y-100733333D01*
X80219047Y-100733333D01*
X80314285Y-100780952D01*
X80361904Y-100828571D01*
X80409523Y-100923809D01*
X80409523Y-101161904D01*
X80361904Y-101257142D01*
X80314285Y-101304761D01*
X80219047Y-101352380D01*
X79933333Y-101352380D01*
X79838095Y-101304761D01*
X79790476Y-101257142D01*
X80885714Y-101352380D02*
X81076190Y-101352380D01*
X81171428Y-101304761D01*
X81219047Y-101257142D01*
X81314285Y-101114285D01*
X81361904Y-100923809D01*
X81361904Y-100542857D01*
X81314285Y-100447619D01*
X81266666Y-100400000D01*
X81171428Y-100352380D01*
X80980952Y-100352380D01*
X80885714Y-100400000D01*
X80838095Y-100447619D01*
X80790476Y-100542857D01*
X80790476Y-100780952D01*
X80838095Y-100876190D01*
X80885714Y-100923809D01*
X80980952Y-100971428D01*
X81171428Y-100971428D01*
X81266666Y-100923809D01*
X81314285Y-100876190D01*
X81361904Y-100780952D01*
%TO.C,C20*%
X59697142Y-112117142D02*
X59649523Y-112164761D01*
X59506666Y-112212380D01*
X59411428Y-112212380D01*
X59268571Y-112164761D01*
X59173333Y-112069523D01*
X59125714Y-111974285D01*
X59078095Y-111783809D01*
X59078095Y-111640952D01*
X59125714Y-111450476D01*
X59173333Y-111355238D01*
X59268571Y-111260000D01*
X59411428Y-111212380D01*
X59506666Y-111212380D01*
X59649523Y-111260000D01*
X59697142Y-111307619D01*
X60078095Y-111307619D02*
X60125714Y-111260000D01*
X60220952Y-111212380D01*
X60459047Y-111212380D01*
X60554285Y-111260000D01*
X60601904Y-111307619D01*
X60649523Y-111402857D01*
X60649523Y-111498095D01*
X60601904Y-111640952D01*
X60030476Y-112212380D01*
X60649523Y-112212380D01*
X61268571Y-111212380D02*
X61363809Y-111212380D01*
X61459047Y-111260000D01*
X61506666Y-111307619D01*
X61554285Y-111402857D01*
X61601904Y-111593333D01*
X61601904Y-111831428D01*
X61554285Y-112021904D01*
X61506666Y-112117142D01*
X61459047Y-112164761D01*
X61363809Y-112212380D01*
X61268571Y-112212380D01*
X61173333Y-112164761D01*
X61125714Y-112117142D01*
X61078095Y-112021904D01*
X61030476Y-111831428D01*
X61030476Y-111593333D01*
X61078095Y-111402857D01*
X61125714Y-111307619D01*
X61173333Y-111260000D01*
X61268571Y-111212380D01*
%TO.C,R45*%
X52857142Y-130952380D02*
X52523809Y-130476190D01*
X52285714Y-130952380D02*
X52285714Y-129952380D01*
X52666666Y-129952380D01*
X52761904Y-130000000D01*
X52809523Y-130047619D01*
X52857142Y-130142857D01*
X52857142Y-130285714D01*
X52809523Y-130380952D01*
X52761904Y-130428571D01*
X52666666Y-130476190D01*
X52285714Y-130476190D01*
X53714285Y-130285714D02*
X53714285Y-130952380D01*
X53476190Y-129904761D02*
X53238095Y-130619047D01*
X53857142Y-130619047D01*
X54714285Y-129952380D02*
X54238095Y-129952380D01*
X54190476Y-130428571D01*
X54238095Y-130380952D01*
X54333333Y-130333333D01*
X54571428Y-130333333D01*
X54666666Y-130380952D01*
X54714285Y-130428571D01*
X54761904Y-130523809D01*
X54761904Y-130761904D01*
X54714285Y-130857142D01*
X54666666Y-130904761D01*
X54571428Y-130952380D01*
X54333333Y-130952380D01*
X54238095Y-130904761D01*
X54190476Y-130857142D01*
%TO.C,U1*%
X69438095Y-83452380D02*
X69438095Y-84261904D01*
X69485714Y-84357142D01*
X69533333Y-84404761D01*
X69628571Y-84452380D01*
X69819047Y-84452380D01*
X69914285Y-84404761D01*
X69961904Y-84357142D01*
X70009523Y-84261904D01*
X70009523Y-83452380D01*
X71009523Y-84452380D02*
X70438095Y-84452380D01*
X70723809Y-84452380D02*
X70723809Y-83452380D01*
X70628571Y-83595238D01*
X70533333Y-83690476D01*
X70438095Y-83738095D01*
%TO.C,C35*%
X86157142Y-135657142D02*
X86109523Y-135704761D01*
X85966666Y-135752380D01*
X85871428Y-135752380D01*
X85728571Y-135704761D01*
X85633333Y-135609523D01*
X85585714Y-135514285D01*
X85538095Y-135323809D01*
X85538095Y-135180952D01*
X85585714Y-134990476D01*
X85633333Y-134895238D01*
X85728571Y-134800000D01*
X85871428Y-134752380D01*
X85966666Y-134752380D01*
X86109523Y-134800000D01*
X86157142Y-134847619D01*
X86490476Y-134752380D02*
X87109523Y-134752380D01*
X86776190Y-135133333D01*
X86919047Y-135133333D01*
X87014285Y-135180952D01*
X87061904Y-135228571D01*
X87109523Y-135323809D01*
X87109523Y-135561904D01*
X87061904Y-135657142D01*
X87014285Y-135704761D01*
X86919047Y-135752380D01*
X86633333Y-135752380D01*
X86538095Y-135704761D01*
X86490476Y-135657142D01*
X88014285Y-134752380D02*
X87538095Y-134752380D01*
X87490476Y-135228571D01*
X87538095Y-135180952D01*
X87633333Y-135133333D01*
X87871428Y-135133333D01*
X87966666Y-135180952D01*
X88014285Y-135228571D01*
X88061904Y-135323809D01*
X88061904Y-135561904D01*
X88014285Y-135657142D01*
X87966666Y-135704761D01*
X87871428Y-135752380D01*
X87633333Y-135752380D01*
X87538095Y-135704761D01*
X87490476Y-135657142D01*
D13*
%TO.C,C33*%
X63646267Y-137090000D02*
X63353733Y-137090000D01*
X63646267Y-138110000D02*
X63353733Y-138110000D01*
%TO.C,U2*%
X70200000Y-65965000D02*
X72150000Y-65965000D01*
X70200000Y-74835000D02*
X73650000Y-74835000D01*
X70200000Y-65965000D02*
X68250000Y-65965000D01*
X70200000Y-74835000D02*
X68250000Y-74835000D01*
%TO.C,R44*%
X56954724Y-134222500D02*
X56445276Y-134222500D01*
X56954724Y-133177500D02*
X56445276Y-133177500D01*
%TO.C,R23*%
X56954724Y-95677500D02*
X56445276Y-95677500D01*
X56954724Y-96722500D02*
X56445276Y-96722500D01*
%TO.C,FREQ_OFFSET2*%
X82100000Y-112400000D02*
X82100000Y-111800000D01*
X85000000Y-109200000D02*
X82100000Y-109200000D01*
X85900000Y-112600000D02*
X86600000Y-112600000D01*
X86600000Y-112600000D02*
X86600000Y-111900000D01*
X86100000Y-111000000D02*
X86100000Y-110600000D01*
X85000000Y-112400000D02*
X82100000Y-112400000D01*
X82100000Y-109200000D02*
X82100000Y-109800000D01*
%TO.C,C4*%
X76753733Y-72110000D02*
X77046267Y-72110000D01*
X76753733Y-71090000D02*
X77046267Y-71090000D01*
%TO.C,D1*%
X87600000Y-57650000D02*
X87600000Y-53750000D01*
X87600000Y-57650000D02*
X89600000Y-57650000D01*
X89600000Y-57650000D02*
X89600000Y-53750000D01*
%TO.C,R53*%
X56445276Y-124622500D02*
X56954724Y-124622500D01*
X56445276Y-123577500D02*
X56954724Y-123577500D01*
%TO.C,C38*%
X76753733Y-89690000D02*
X77046267Y-89690000D01*
X76753733Y-90710000D02*
X77046267Y-90710000D01*
%TO.C,R65*%
X83854724Y-133177500D02*
X83345276Y-133177500D01*
X83854724Y-134222500D02*
X83345276Y-134222500D01*
%TO.C,C45*%
X63646267Y-128190000D02*
X63353733Y-128190000D01*
X63646267Y-129210000D02*
X63353733Y-129210000D01*
%TO.C,R58*%
X83345276Y-131577500D02*
X83854724Y-131577500D01*
X83345276Y-132622500D02*
X83854724Y-132622500D01*
%TO.C,C10*%
X76753733Y-96890000D02*
X77046267Y-96890000D01*
X76753733Y-97910000D02*
X77046267Y-97910000D01*
D11*
%TO.C,J4*%
X69890000Y-51260000D02*
X69890000Y-51060000D01*
X62410000Y-51160000D02*
X62910000Y-51160000D01*
X79090000Y-58900000D02*
X72365000Y-58900000D01*
X69890000Y-51060000D02*
X70390000Y-51060000D01*
X77870000Y-51060000D02*
X77870000Y-51260000D01*
X70390000Y-51060000D02*
X70390000Y-51260000D01*
X72365000Y-58900000D02*
X72365000Y-60200000D01*
X59990000Y-51260000D02*
X80290000Y-51260000D01*
X80290000Y-51260000D02*
X80290000Y-60200000D01*
X69890000Y-51160000D02*
X70390000Y-51160000D01*
X77370000Y-51160000D02*
X77870000Y-51160000D01*
X62410000Y-51260000D02*
X62410000Y-51060000D01*
X77370000Y-51260000D02*
X77370000Y-51060000D01*
X67915000Y-58900000D02*
X61190000Y-58900000D01*
X77370000Y-51060000D02*
X77870000Y-51060000D01*
X61190000Y-58900000D02*
X61190000Y-52560000D01*
X62410000Y-51060000D02*
X62910000Y-51060000D01*
X62910000Y-51060000D02*
X62910000Y-51260000D01*
X67915000Y-60200000D02*
X67915000Y-58900000D01*
X61190000Y-52560000D02*
X79090000Y-52560000D01*
X59990000Y-60200000D02*
X59990000Y-51260000D01*
X79090000Y-52560000D02*
X79090000Y-58900000D01*
X80290000Y-60200000D02*
X59990000Y-60200000D01*
G36*
X66060000Y-60700000D02*
G01*
X64060000Y-60700000D01*
X64060000Y-50800000D01*
X66060000Y-50800000D01*
X66060000Y-60700000D01*
G37*
D14*
X66060000Y-60700000D02*
X64060000Y-60700000D01*
X64060000Y-50800000D01*
X66060000Y-50800000D01*
X66060000Y-60700000D01*
D13*
%TO.C,R76*%
X63754724Y-63222500D02*
X63245276Y-63222500D01*
X63754724Y-62177500D02*
X63245276Y-62177500D01*
%TO.C,C14*%
X76753733Y-109390000D02*
X77046267Y-109390000D01*
X76753733Y-110410000D02*
X77046267Y-110410000D01*
%TO.C,FREQ_OFFSET4*%
X85000000Y-138700000D02*
X82100000Y-138700000D01*
X86100000Y-140500000D02*
X86100000Y-140100000D01*
X85900000Y-142100000D02*
X86600000Y-142100000D01*
X82100000Y-141900000D02*
X82100000Y-141300000D01*
X82100000Y-138700000D02*
X82100000Y-139300000D01*
X86600000Y-142100000D02*
X86600000Y-141400000D01*
X85000000Y-141900000D02*
X82100000Y-141900000D01*
%TO.C,kibuzzard-63FCE890*%
G36*
X50264733Y-109287540D02*
G01*
X52935267Y-109287540D01*
X52935267Y-112512460D01*
X50264733Y-112512460D01*
X50264733Y-110512117D01*
X50979108Y-110512117D01*
X51460474Y-110362823D01*
X51460474Y-111917147D01*
X51863705Y-111917147D01*
X51863705Y-109882853D01*
X51820452Y-109882853D01*
X50979108Y-110184230D01*
X50979108Y-110512117D01*
X50264733Y-110512117D01*
X50264733Y-109287540D01*
G37*
%TO.C,R35*%
X77154724Y-102177500D02*
X76645276Y-102177500D01*
X77154724Y-103222500D02*
X76645276Y-103222500D01*
%TO.C,R2*%
X76645276Y-81922500D02*
X77154724Y-81922500D01*
X76645276Y-80877500D02*
X77154724Y-80877500D01*
%TO.C,C30*%
X76753733Y-139910000D02*
X77046267Y-139910000D01*
X76753733Y-138890000D02*
X77046267Y-138890000D01*
%TO.C,C3*%
X63646267Y-82590000D02*
X63353733Y-82590000D01*
X63646267Y-83610000D02*
X63353733Y-83610000D01*
%TO.C,R21*%
X56445276Y-97277500D02*
X56954724Y-97277500D01*
X56445276Y-98322500D02*
X56954724Y-98322500D01*
%TO.C,C28*%
X77046267Y-117390000D02*
X76753733Y-117390000D01*
X77046267Y-118410000D02*
X76753733Y-118410000D01*
%TO.C,R42*%
X77154724Y-124577500D02*
X76645276Y-124577500D01*
X77154724Y-125622500D02*
X76645276Y-125622500D01*
%TO.C,C15*%
X76753733Y-112210000D02*
X77046267Y-112210000D01*
X76753733Y-111190000D02*
X77046267Y-111190000D01*
%TO.C,V_OCT4*%
X85900000Y-120900000D02*
X86600000Y-120900000D01*
X86600000Y-120900000D02*
X86600000Y-120200000D01*
X85000000Y-120700000D02*
X82100000Y-120700000D01*
X85000000Y-117500000D02*
X82100000Y-117500000D01*
X86100000Y-119300000D02*
X86100000Y-118900000D01*
X82100000Y-120700000D02*
X82100000Y-120100000D01*
X82100000Y-117500000D02*
X82100000Y-118100000D01*
%TO.C,C31*%
X76753733Y-140690000D02*
X77046267Y-140690000D01*
X76753733Y-141710000D02*
X77046267Y-141710000D01*
%TO.C,kibuzzard-63F9EC4B*%
G36*
X50299382Y-117461030D02*
G01*
X52900618Y-117461030D01*
X52900618Y-120738970D01*
X50299382Y-120738970D01*
X50299382Y-119559042D01*
X50894694Y-119559042D01*
X50916166Y-119723373D01*
X50980580Y-119864760D01*
X51087938Y-119983202D01*
X51229092Y-120072344D01*
X51394896Y-120125829D01*
X51585350Y-120143657D01*
X51787896Y-120125519D01*
X51962071Y-120071104D01*
X52107876Y-119980411D01*
X52217559Y-119859644D01*
X52283369Y-119715001D01*
X52305306Y-119546484D01*
X52284202Y-119390215D01*
X52220892Y-119256270D01*
X52114678Y-119148834D01*
X51964861Y-119072095D01*
X52089738Y-118995704D01*
X52188104Y-118892106D01*
X52251937Y-118769323D01*
X52273215Y-118635377D01*
X52252906Y-118467868D01*
X52191979Y-118326249D01*
X52090435Y-118210519D01*
X51953079Y-118124866D01*
X51784717Y-118073474D01*
X51585350Y-118056343D01*
X51407628Y-118074132D01*
X51245603Y-118127501D01*
X51108518Y-118212438D01*
X51005618Y-118324931D01*
X50941261Y-118459400D01*
X50919809Y-118610262D01*
X51323040Y-118610262D01*
X51401175Y-118444924D01*
X51595117Y-118381439D01*
X51796732Y-118449807D01*
X51869984Y-118640958D01*
X51796035Y-118844667D01*
X51702203Y-118902221D01*
X51568607Y-118921406D01*
X51353736Y-118921406D01*
X51353736Y-119236736D01*
X51567211Y-119236736D01*
X51753246Y-119270532D01*
X51864868Y-119371921D01*
X51902075Y-119540903D01*
X51820452Y-119742519D01*
X51723306Y-119799550D01*
X51595117Y-119818561D01*
X51383734Y-119746007D01*
X51297925Y-119559042D01*
X50894694Y-119559042D01*
X50299382Y-119559042D01*
X50299382Y-117461030D01*
G37*
%TO.C,R75*%
X63754724Y-64922500D02*
X63245276Y-64922500D01*
X63754724Y-63877500D02*
X63245276Y-63877500D01*
%TO.C,R73*%
X63754724Y-75122500D02*
X63245276Y-75122500D01*
X63754724Y-74077500D02*
X63245276Y-74077500D01*
%TO.C,C11*%
X56846267Y-93510000D02*
X56553733Y-93510000D01*
X56846267Y-92490000D02*
X56553733Y-92490000D01*
%TO.C,R74*%
X76645276Y-67022500D02*
X77154724Y-67022500D01*
X76645276Y-65977500D02*
X77154724Y-65977500D01*
%TO.C,R37*%
X76645276Y-103977500D02*
X77154724Y-103977500D01*
X76645276Y-105022500D02*
X77154724Y-105022500D01*
%TO.C,R57*%
X83345276Y-128377500D02*
X83854724Y-128377500D01*
X83345276Y-129422500D02*
X83854724Y-129422500D01*
%TO.C,R50*%
X63754724Y-127422500D02*
X63245276Y-127422500D01*
X63754724Y-126377500D02*
X63245276Y-126377500D01*
%TO.C,C9*%
X76753733Y-92510000D02*
X77046267Y-92510000D01*
X76753733Y-91490000D02*
X77046267Y-91490000D01*
%TO.C,R51*%
X76645276Y-129122500D02*
X77154724Y-129122500D01*
X76645276Y-128077500D02*
X77154724Y-128077500D01*
%TO.C,R27*%
X56445276Y-94077500D02*
X56954724Y-94077500D01*
X56445276Y-95122500D02*
X56954724Y-95122500D01*
%TO.C,R33*%
X83345276Y-95677500D02*
X83854724Y-95677500D01*
X83345276Y-96722500D02*
X83854724Y-96722500D01*
%TO.C,R9*%
X63754724Y-68322500D02*
X63245276Y-68322500D01*
X63754724Y-67277500D02*
X63245276Y-67277500D01*
%TO.C,R13*%
X63754724Y-66622500D02*
X63245276Y-66622500D01*
X63754724Y-65577500D02*
X63245276Y-65577500D01*
%TO.C,kibuzzard-640237DF*%
G36*
X81206172Y-60552370D02*
G01*
X81267621Y-60598966D01*
X81295354Y-60646866D01*
X81311994Y-60707727D01*
X81317541Y-60781552D01*
X81317541Y-60823332D01*
X81311331Y-60894775D01*
X81294149Y-60954280D01*
X81265994Y-61001848D01*
X81204273Y-61048648D01*
X81120034Y-61064247D01*
X81041356Y-61064247D01*
X81041356Y-60536838D01*
X81121661Y-60536838D01*
X81206172Y-60552370D01*
G37*
G36*
X79085998Y-60162623D02*
G01*
X81714002Y-60162623D01*
X81714002Y-61437377D01*
X79085998Y-61437377D01*
X79085998Y-60830928D01*
X79317508Y-60830928D01*
X79322783Y-60904300D01*
X79337162Y-60971040D01*
X79360645Y-61031149D01*
X79411514Y-61106231D01*
X79480017Y-61161102D01*
X79534368Y-61185971D01*
X79594326Y-61200893D01*
X79659890Y-61205867D01*
X79753218Y-61198609D01*
X79767191Y-61195015D01*
X80093972Y-61195015D01*
X80256753Y-61195015D01*
X80256753Y-60675201D01*
X80573633Y-61195015D01*
X80736414Y-61195015D01*
X80878575Y-61195015D01*
X81123289Y-61195015D01*
X81190029Y-61189468D01*
X81252067Y-61173552D01*
X81309402Y-61147266D01*
X81360256Y-61111514D01*
X81402850Y-61067202D01*
X81437185Y-61014328D01*
X81462355Y-60954461D01*
X81477458Y-60889168D01*
X81482492Y-60818448D01*
X81482492Y-60782094D01*
X81477367Y-60711284D01*
X81461994Y-60645720D01*
X81436371Y-60585401D01*
X81401614Y-60532105D01*
X81358839Y-60487612D01*
X81308045Y-60451920D01*
X81250801Y-60425845D01*
X81188673Y-60410200D01*
X81121661Y-60404985D01*
X80878575Y-60404985D01*
X80878575Y-61195015D01*
X80736414Y-61195015D01*
X80736414Y-60404985D01*
X80574175Y-60404985D01*
X80574175Y-60925884D01*
X80256753Y-60404985D01*
X80093972Y-60404985D01*
X80093972Y-61195015D01*
X79767191Y-61195015D01*
X79837864Y-61176837D01*
X79909080Y-61141907D01*
X79962120Y-61095176D01*
X79962120Y-60779924D01*
X79651208Y-60779924D01*
X79651208Y-60899839D01*
X79799339Y-60899839D01*
X79799339Y-61036032D01*
X79747113Y-61065333D01*
X79668572Y-61075099D01*
X79588402Y-61059228D01*
X79530208Y-61011615D01*
X79503982Y-60962540D01*
X79488247Y-60899959D01*
X79483002Y-60823875D01*
X79483002Y-60773412D01*
X79488126Y-60698051D01*
X79502777Y-60636194D01*
X79526953Y-60587842D01*
X79580263Y-60541043D01*
X79653379Y-60525443D01*
X79711505Y-60533311D01*
X79755659Y-60556914D01*
X79786249Y-60597474D01*
X79803680Y-60656210D01*
X79962120Y-60656210D01*
X79945178Y-60577623D01*
X79913888Y-60512602D01*
X79868250Y-60461145D01*
X79808624Y-60423916D01*
X79735372Y-60401579D01*
X79648495Y-60394133D01*
X79584077Y-60399228D01*
X79525385Y-60414511D01*
X79472421Y-60439983D01*
X79406088Y-60496007D01*
X79357389Y-60572378D01*
X79335233Y-60633602D01*
X79321939Y-60701879D01*
X79317508Y-60777211D01*
X79317508Y-60830928D01*
X79085998Y-60830928D01*
X79085998Y-60162623D01*
G37*
%TO.C,R46*%
X56954724Y-129422500D02*
X56445276Y-129422500D01*
X56954724Y-128377500D02*
X56445276Y-128377500D01*
%TO.C,R22*%
X63754724Y-96122500D02*
X63245276Y-96122500D01*
X63754724Y-95077500D02*
X63245276Y-95077500D01*
%TO.C,U4*%
X70200000Y-134035000D02*
X72150000Y-134035000D01*
X70200000Y-125165000D02*
X72150000Y-125165000D01*
X70200000Y-134035000D02*
X68250000Y-134035000D01*
X70200000Y-125165000D02*
X66750000Y-125165000D01*
%TO.C,C2*%
X57095563Y-57660000D02*
X58160000Y-56595563D01*
X54090000Y-58150000D02*
X54590000Y-58150000D01*
X54704437Y-57660000D02*
X53640000Y-56595563D01*
X57095563Y-57660000D02*
X56960000Y-57660000D01*
X58160000Y-53140000D02*
X56960000Y-53140000D01*
X53640000Y-56595563D02*
X53640000Y-53140000D01*
X58160000Y-56595563D02*
X58160000Y-53140000D01*
X54340000Y-58400000D02*
X54340000Y-57900000D01*
X54704437Y-57660000D02*
X54840000Y-57660000D01*
X53640000Y-53140000D02*
X54840000Y-53140000D01*
%TO.C,C22*%
X63353733Y-119190000D02*
X63646267Y-119190000D01*
X63353733Y-120210000D02*
X63646267Y-120210000D01*
%TO.C,C17*%
X63646267Y-108610000D02*
X63353733Y-108610000D01*
X63646267Y-107590000D02*
X63353733Y-107590000D01*
%TO.C,C40*%
X63646267Y-93290000D02*
X63353733Y-93290000D01*
X63646267Y-94310000D02*
X63353733Y-94310000D01*
%TO.C,kibuzzard-63FCEF0D*%
G36*
X87269157Y-109074983D02*
G01*
X90130843Y-109074983D01*
X90130843Y-112325017D01*
X87269157Y-112325017D01*
X87269157Y-110337231D01*
X87983532Y-110337231D01*
X88388159Y-110337231D01*
X88407867Y-110198577D01*
X88466991Y-110089572D01*
X88560299Y-110018937D01*
X88682559Y-109995392D01*
X88877896Y-110072829D01*
X88929172Y-110164742D01*
X88946264Y-110285607D01*
X88881384Y-110494896D01*
X88798889Y-110614540D01*
X88681164Y-110753020D01*
X88023995Y-111453442D01*
X88023995Y-111729705D01*
X89416468Y-111729705D01*
X89416468Y-111404608D01*
X88543033Y-111404608D01*
X89004865Y-110917661D01*
X89166716Y-110722673D01*
X89272756Y-110553497D01*
X89331357Y-110398623D01*
X89350891Y-110246539D01*
X89331589Y-110077092D01*
X89273686Y-109935240D01*
X89177180Y-109820984D01*
X89045793Y-109737268D01*
X88883245Y-109687039D01*
X88689536Y-109670295D01*
X88495245Y-109692096D01*
X88322581Y-109757499D01*
X88179043Y-109861272D01*
X88072131Y-109998182D01*
X88005682Y-110159684D01*
X87983532Y-110337231D01*
X87269157Y-110337231D01*
X87269157Y-109074983D01*
G37*
%TO.C,C19*%
X83746267Y-106310000D02*
X83453733Y-106310000D01*
X83746267Y-105290000D02*
X83453733Y-105290000D01*
%TO.C,R38*%
X63754724Y-103222500D02*
X63245276Y-103222500D01*
X63754724Y-102177500D02*
X63245276Y-102177500D01*
%TO.C,R18*%
X56954724Y-104722500D02*
X56445276Y-104722500D01*
X56954724Y-103677500D02*
X56445276Y-103677500D01*
%TO.C,V_OCT3*%
X54500000Y-117300000D02*
X53800000Y-117300000D01*
X55400000Y-120700000D02*
X58300000Y-120700000D01*
X55400000Y-117500000D02*
X58300000Y-117500000D01*
X53800000Y-117300000D02*
X53800000Y-118000000D01*
X58300000Y-120700000D02*
X58300000Y-120100000D01*
X58300000Y-117500000D02*
X58300000Y-118100000D01*
X54300000Y-118900000D02*
X54300000Y-119300000D01*
%TO.C,R16*%
X77154724Y-95077500D02*
X76645276Y-95077500D01*
X77154724Y-96122500D02*
X76645276Y-96122500D01*
%TO.C,R10*%
X63754724Y-70677500D02*
X63245276Y-70677500D01*
X63754724Y-71722500D02*
X63245276Y-71722500D01*
%TO.C,V_OCT1*%
X58300000Y-88000000D02*
X58300000Y-88600000D01*
X54300000Y-89400000D02*
X54300000Y-89800000D01*
X54500000Y-87800000D02*
X53800000Y-87800000D01*
X53800000Y-87800000D02*
X53800000Y-88500000D01*
X58300000Y-91200000D02*
X58300000Y-90600000D01*
X55400000Y-88000000D02*
X58300000Y-88000000D01*
X55400000Y-91200000D02*
X58300000Y-91200000D01*
%TO.C,C18*%
X63646267Y-101410000D02*
X63353733Y-101410000D01*
X63646267Y-100390000D02*
X63353733Y-100390000D01*
%TO.C,R62*%
X76645276Y-137077500D02*
X77154724Y-137077500D01*
X76645276Y-138122500D02*
X77154724Y-138122500D01*
%TO.C,R34*%
X83854724Y-99922500D02*
X83345276Y-99922500D01*
X83854724Y-98877500D02*
X83345276Y-98877500D01*
%TO.C,R69*%
X56954724Y-132622500D02*
X56445276Y-132622500D01*
X56954724Y-131577500D02*
X56445276Y-131577500D01*
%TO.C,D2*%
X50800000Y-53150000D02*
X50800000Y-57050000D01*
X52800000Y-53150000D02*
X52800000Y-57050000D01*
X52800000Y-53150000D02*
X50800000Y-53150000D01*
%TO.C,R19*%
X56954724Y-103122500D02*
X56445276Y-103122500D01*
X56954724Y-102077500D02*
X56445276Y-102077500D01*
%TO.C,R64*%
X63754724Y-131677500D02*
X63245276Y-131677500D01*
X63754724Y-132722500D02*
X63245276Y-132722500D01*
%TO.C,C21*%
X76753733Y-123810000D02*
X77046267Y-123810000D01*
X76753733Y-122790000D02*
X77046267Y-122790000D01*
%TO.C,C5*%
X76753733Y-77490000D02*
X77046267Y-77490000D01*
X76753733Y-78510000D02*
X77046267Y-78510000D01*
D11*
%TO.C,U7*%
X68200000Y-112375000D02*
X72200000Y-112375000D01*
X66925000Y-106975000D02*
X72200000Y-106975000D01*
D13*
%TO.C,R68*%
X83345276Y-102077500D02*
X83854724Y-102077500D01*
X83345276Y-103122500D02*
X83854724Y-103122500D01*
%TO.C,C34*%
X63646267Y-129890000D02*
X63353733Y-129890000D01*
X63646267Y-130910000D02*
X63353733Y-130910000D01*
%TO.C,R36*%
X76645276Y-107577500D02*
X77154724Y-107577500D01*
X76645276Y-108622500D02*
X77154724Y-108622500D01*
%TO.C,R3*%
X63754724Y-77477500D02*
X63245276Y-77477500D01*
X63754724Y-78522500D02*
X63245276Y-78522500D01*
%TO.C,R6*%
X76645276Y-84277500D02*
X77154724Y-84277500D01*
X76645276Y-85322500D02*
X77154724Y-85322500D01*
%TO.C,R56*%
X56954724Y-135822500D02*
X56445276Y-135822500D01*
X56954724Y-134777500D02*
X56445276Y-134777500D01*
%TO.C,R52*%
X63245276Y-122022500D02*
X63754724Y-122022500D01*
X63245276Y-120977500D02*
X63754724Y-120977500D01*
D11*
%TO.C,U10*%
X66925000Y-136475000D02*
X72200000Y-136475000D01*
X68200000Y-141875000D02*
X72200000Y-141875000D01*
D13*
%TO.C,R7*%
X76645276Y-73822500D02*
X77154724Y-73822500D01*
X76645276Y-72777500D02*
X77154724Y-72777500D01*
%TO.C,R67*%
X56954724Y-98877500D02*
X56445276Y-98877500D01*
X56954724Y-99922500D02*
X56445276Y-99922500D01*
%TO.C,R54*%
X56954724Y-136377500D02*
X56445276Y-136377500D01*
X56954724Y-137422500D02*
X56445276Y-137422500D01*
%TO.C,C24*%
X76753733Y-120210000D02*
X77046267Y-120210000D01*
X76753733Y-119190000D02*
X77046267Y-119190000D01*
%TO.C,R12*%
X76645276Y-68722500D02*
X77154724Y-68722500D01*
X76645276Y-67677500D02*
X77154724Y-67677500D01*
%TO.C,R26*%
X63245276Y-91477500D02*
X63754724Y-91477500D01*
X63245276Y-92522500D02*
X63754724Y-92522500D01*
%TO.C,C49*%
X77046267Y-87010000D02*
X76753733Y-87010000D01*
X77046267Y-85990000D02*
X76753733Y-85990000D01*
%TO.C,R20*%
X56954724Y-100477500D02*
X56445276Y-100477500D01*
X56954724Y-101522500D02*
X56445276Y-101522500D01*
%TO.C,R8*%
X76645276Y-70422500D02*
X77154724Y-70422500D01*
X76645276Y-69377500D02*
X77154724Y-69377500D01*
%TO.C,C25*%
X76753733Y-120990000D02*
X77046267Y-120990000D01*
X76753733Y-122010000D02*
X77046267Y-122010000D01*
%TO.C,R28*%
X56954724Y-106877500D02*
X56445276Y-106877500D01*
X56954724Y-107922500D02*
X56445276Y-107922500D01*
%TO.C,C37*%
X76753733Y-94310000D02*
X77046267Y-94310000D01*
X76753733Y-93290000D02*
X77046267Y-93290000D01*
D11*
%TO.C,U5*%
X72200000Y-87825000D02*
X68200000Y-87825000D01*
X73475000Y-93225000D02*
X68200000Y-93225000D01*
D13*
%TO.C,R72*%
X76645276Y-65322500D02*
X77154724Y-65322500D01*
X76645276Y-64277500D02*
X77154724Y-64277500D01*
%TO.C,R55*%
X63232776Y-135277500D02*
X63742224Y-135277500D01*
X63232776Y-136322500D02*
X63742224Y-136322500D01*
%TO.C,R41*%
X83345276Y-123577500D02*
X83854724Y-123577500D01*
X83345276Y-124622500D02*
X83854724Y-124622500D01*
%TO.C,C46*%
X76753733Y-135290000D02*
X77046267Y-135290000D01*
X76753733Y-136310000D02*
X77046267Y-136310000D01*
%TO.C,R70*%
X83345276Y-131022500D02*
X83854724Y-131022500D01*
X83345276Y-129977500D02*
X83854724Y-129977500D01*
%TO.C,C36*%
X63353733Y-140690000D02*
X63646267Y-140690000D01*
X63353733Y-141710000D02*
X63646267Y-141710000D01*
%TO.C,C12*%
X77046267Y-88910000D02*
X76753733Y-88910000D01*
X77046267Y-87890000D02*
X76753733Y-87890000D01*
D11*
%TO.C,U9*%
X72200000Y-117325000D02*
X68200000Y-117325000D01*
X73475000Y-122725000D02*
X68200000Y-122725000D01*
D13*
%TO.C,R32*%
X83345276Y-100477500D02*
X83854724Y-100477500D01*
X83345276Y-101522500D02*
X83854724Y-101522500D01*
%TO.C,R48*%
X63754724Y-124577500D02*
X63245276Y-124577500D01*
X63754724Y-125622500D02*
X63245276Y-125622500D01*
%TO.C,C27*%
X56846267Y-123010000D02*
X56553733Y-123010000D01*
X56846267Y-121990000D02*
X56553733Y-121990000D01*
%TO.C,kibuzzard-63F9ECEE*%
G36*
X88808831Y-119351147D02*
G01*
X88359556Y-119351147D01*
X88782321Y-118680026D01*
X88808831Y-118633982D01*
X88808831Y-119351147D01*
G37*
G36*
X87362407Y-117488936D02*
G01*
X90037593Y-117488936D01*
X90037593Y-120711064D01*
X87362407Y-120711064D01*
X87362407Y-119422306D01*
X87957720Y-119422306D01*
X87975858Y-119676244D01*
X88808831Y-119676244D01*
X88808831Y-120115752D01*
X89212062Y-120115752D01*
X89212062Y-119676244D01*
X89442280Y-119676244D01*
X89442280Y-119351147D01*
X89212062Y-119351147D01*
X89212062Y-118084248D01*
X88804645Y-118084248D01*
X87957720Y-119422306D01*
X87362407Y-119422306D01*
X87362407Y-117488936D01*
G37*
%TO.C,R30*%
X56954724Y-106322500D02*
X56445276Y-106322500D01*
X56954724Y-105277500D02*
X56445276Y-105277500D01*
%TO.C,FREQ_OFFSET3*%
X58300000Y-138700000D02*
X58300000Y-139300000D01*
X55400000Y-141900000D02*
X58300000Y-141900000D01*
X54500000Y-138500000D02*
X53800000Y-138500000D01*
X55400000Y-138700000D02*
X58300000Y-138700000D01*
X58300000Y-141900000D02*
X58300000Y-141300000D01*
X54300000Y-140100000D02*
X54300000Y-140500000D01*
X53800000Y-138500000D02*
X53800000Y-139200000D01*
%TO.C,R40*%
X83854724Y-106877500D02*
X83345276Y-106877500D01*
X83854724Y-107922500D02*
X83345276Y-107922500D01*
%TO.C,FREQ_OFFSET1*%
X58300000Y-109200000D02*
X58300000Y-109800000D01*
X53800000Y-109000000D02*
X53800000Y-109700000D01*
X55400000Y-109200000D02*
X58300000Y-109200000D01*
X54300000Y-110600000D02*
X54300000Y-111000000D01*
X58300000Y-112400000D02*
X58300000Y-111800000D01*
X54500000Y-109000000D02*
X53800000Y-109000000D01*
X55400000Y-112400000D02*
X58300000Y-112400000D01*
%TO.C,C44*%
X63646267Y-123810000D02*
X63353733Y-123810000D01*
X63646267Y-122790000D02*
X63353733Y-122790000D01*
%TO.C,C8*%
X63646267Y-68990000D02*
X63353733Y-68990000D01*
X63646267Y-70010000D02*
X63353733Y-70010000D01*
%TO.C,U3*%
X70200000Y-104535000D02*
X68250000Y-104535000D01*
X70200000Y-95665000D02*
X72150000Y-95665000D01*
X70200000Y-95665000D02*
X66750000Y-95665000D01*
X70200000Y-104535000D02*
X72150000Y-104535000D01*
%TO.C,C47*%
X77046267Y-79190000D02*
X76753733Y-79190000D01*
X77046267Y-80210000D02*
X76753733Y-80210000D01*
%TO.C,C50*%
X63646267Y-81910000D02*
X63353733Y-81910000D01*
X63646267Y-80890000D02*
X63353733Y-80890000D01*
%TO.C,kibuzzard-640237A8*%
G36*
X82999783Y-60168049D02*
G01*
X85200217Y-60168049D01*
X85200217Y-61431951D01*
X82999783Y-61431951D01*
X82999783Y-60654040D01*
X83231293Y-60654040D01*
X83418491Y-60595981D01*
X83418491Y-61200441D01*
X83575303Y-61200441D01*
X83575303Y-60658923D01*
X83816219Y-60658923D01*
X83973574Y-60658923D01*
X83981238Y-60605002D01*
X84004231Y-60562611D01*
X84040517Y-60535142D01*
X84088063Y-60525986D01*
X84164027Y-60556100D01*
X84183968Y-60591844D01*
X84190615Y-60638847D01*
X84165384Y-60720237D01*
X84133302Y-60766766D01*
X84087520Y-60820619D01*
X83831954Y-61093005D01*
X83831954Y-61200441D01*
X84373472Y-61200441D01*
X84373472Y-61074014D01*
X84033802Y-61074014D01*
X84213404Y-60884646D01*
X84276346Y-60808817D01*
X84317584Y-60743027D01*
X84340373Y-60682798D01*
X84347969Y-60623654D01*
X84346795Y-60613345D01*
X84422849Y-60613345D01*
X84620898Y-61200441D01*
X84770657Y-61200441D01*
X84968707Y-60613345D01*
X84804841Y-60613345D01*
X84695778Y-61008902D01*
X84586714Y-60613345D01*
X84422849Y-60613345D01*
X84346795Y-60613345D01*
X84340463Y-60557758D01*
X84317945Y-60502594D01*
X84280415Y-60458160D01*
X84229320Y-60425604D01*
X84166107Y-60406071D01*
X84090776Y-60399559D01*
X84015218Y-60408037D01*
X83948071Y-60433472D01*
X83892251Y-60473828D01*
X83850674Y-60527071D01*
X83824833Y-60589877D01*
X83816219Y-60658923D01*
X83575303Y-60658923D01*
X83575303Y-60409326D01*
X83558483Y-60409326D01*
X83231293Y-60526528D01*
X83231293Y-60654040D01*
X82999783Y-60654040D01*
X82999783Y-60168049D01*
G37*
%TO.C,R66*%
X83854724Y-137422500D02*
X83345276Y-137422500D01*
X83854724Y-136377500D02*
X83345276Y-136377500D01*
%TO.C,R4*%
X76645276Y-83622500D02*
X77154724Y-83622500D01*
X76645276Y-82577500D02*
X77154724Y-82577500D01*
%TO.C,C41*%
X76753733Y-129890000D02*
X77046267Y-129890000D01*
X76753733Y-130910000D02*
X77046267Y-130910000D01*
%TO.C,R59*%
X83345276Y-127822500D02*
X83854724Y-127822500D01*
X83345276Y-126777500D02*
X83854724Y-126777500D01*
%TO.C,C43*%
X63646267Y-98690000D02*
X63353733Y-98690000D01*
X63646267Y-99710000D02*
X63353733Y-99710000D01*
%TO.C,R1*%
X63754724Y-84277500D02*
X63245276Y-84277500D01*
X63754724Y-85322500D02*
X63245276Y-85322500D01*
%TO.C,C16*%
X63646267Y-110410000D02*
X63353733Y-110410000D01*
X63646267Y-109390000D02*
X63353733Y-109390000D01*
%TO.C,R25*%
X76645276Y-99722500D02*
X77154724Y-99722500D01*
X76645276Y-98677500D02*
X77154724Y-98677500D01*
%TO.C,V_OCT2*%
X82100000Y-88000000D02*
X82100000Y-88600000D01*
X85900000Y-91400000D02*
X86600000Y-91400000D01*
X82100000Y-91200000D02*
X82100000Y-90600000D01*
X85000000Y-88000000D02*
X82100000Y-88000000D01*
X86100000Y-89800000D02*
X86100000Y-89400000D01*
X86600000Y-91400000D02*
X86600000Y-90700000D01*
X85000000Y-91200000D02*
X82100000Y-91200000D01*
%TO.C,R47*%
X56445276Y-127822500D02*
X56954724Y-127822500D01*
X56445276Y-126777500D02*
X56954724Y-126777500D01*
%TO.C,C13*%
X63646267Y-103990000D02*
X63353733Y-103990000D01*
X63646267Y-105010000D02*
X63353733Y-105010000D01*
%TO.C,R14*%
X63754724Y-72377500D02*
X63245276Y-72377500D01*
X63754724Y-73422500D02*
X63245276Y-73422500D01*
%TO.C,R15*%
X83345276Y-95122500D02*
X83854724Y-95122500D01*
X83345276Y-94077500D02*
X83854724Y-94077500D01*
%TO.C,R17*%
X83345276Y-93522500D02*
X83854724Y-93522500D01*
X83345276Y-92477500D02*
X83854724Y-92477500D01*
%TO.C,R24*%
X63754724Y-96877500D02*
X63245276Y-96877500D01*
X63754724Y-97922500D02*
X63245276Y-97922500D01*
%TO.C,C6*%
X63353733Y-89690000D02*
X63646267Y-89690000D01*
X63353733Y-90710000D02*
X63646267Y-90710000D01*
%TO.C,C23*%
X63353733Y-118410000D02*
X63646267Y-118410000D01*
X63353733Y-117390000D02*
X63646267Y-117390000D01*
%TO.C,R31*%
X83345276Y-98322500D02*
X83854724Y-98322500D01*
X83345276Y-97277500D02*
X83854724Y-97277500D01*
%TO.C,R39*%
X83854724Y-104722500D02*
X83345276Y-104722500D01*
X83854724Y-103677500D02*
X83345276Y-103677500D01*
%TO.C,C48*%
X63353733Y-75790000D02*
X63646267Y-75790000D01*
X63353733Y-76810000D02*
X63646267Y-76810000D01*
%TO.C,C26*%
X76753733Y-126290000D02*
X77046267Y-126290000D01*
X76753733Y-127310000D02*
X77046267Y-127310000D01*
%TO.C,R43*%
X83345276Y-123022500D02*
X83854724Y-123022500D01*
X83345276Y-121977500D02*
X83854724Y-121977500D01*
%TO.C,R71*%
X63754724Y-85977500D02*
X63245276Y-85977500D01*
X63754724Y-87022500D02*
X63245276Y-87022500D01*
%TO.C,C1*%
X83204437Y-57660000D02*
X82140000Y-56595563D01*
X82590000Y-58150000D02*
X83090000Y-58150000D01*
X82840000Y-58400000D02*
X82840000Y-57900000D01*
X85595563Y-57660000D02*
X86660000Y-56595563D01*
X85595563Y-57660000D02*
X85460000Y-57660000D01*
X86660000Y-56595563D02*
X86660000Y-53140000D01*
X86660000Y-53140000D02*
X85460000Y-53140000D01*
X83204437Y-57660000D02*
X83340000Y-57660000D01*
X82140000Y-56595563D02*
X82140000Y-53140000D01*
X82140000Y-53140000D02*
X83340000Y-53140000D01*
%TO.C,C42*%
X76753733Y-105790000D02*
X77046267Y-105790000D01*
X76753733Y-106810000D02*
X77046267Y-106810000D01*
%TO.C,R61*%
X77154724Y-132722500D02*
X76645276Y-132722500D01*
X77154724Y-131677500D02*
X76645276Y-131677500D01*
%TO.C,kibuzzard-640237DF*%
G36*
X89306172Y-145952370D02*
G01*
X89367621Y-145998966D01*
X89395354Y-146046866D01*
X89411994Y-146107727D01*
X89417541Y-146181552D01*
X89417541Y-146223332D01*
X89411331Y-146294775D01*
X89394149Y-146354280D01*
X89365994Y-146401848D01*
X89304273Y-146448648D01*
X89220034Y-146464247D01*
X89141356Y-146464247D01*
X89141356Y-145936838D01*
X89221661Y-145936838D01*
X89306172Y-145952370D01*
G37*
G36*
X87185998Y-145562623D02*
G01*
X89814002Y-145562623D01*
X89814002Y-146837377D01*
X87185998Y-146837377D01*
X87185998Y-146230928D01*
X87417508Y-146230928D01*
X87422783Y-146304300D01*
X87437162Y-146371040D01*
X87460645Y-146431149D01*
X87511514Y-146506231D01*
X87580017Y-146561102D01*
X87634368Y-146585971D01*
X87694326Y-146600893D01*
X87759890Y-146605867D01*
X87853218Y-146598609D01*
X87867191Y-146595015D01*
X88193972Y-146595015D01*
X88356753Y-146595015D01*
X88356753Y-146075201D01*
X88673633Y-146595015D01*
X88836414Y-146595015D01*
X88978575Y-146595015D01*
X89223289Y-146595015D01*
X89290029Y-146589468D01*
X89352067Y-146573552D01*
X89409402Y-146547266D01*
X89460256Y-146511514D01*
X89502850Y-146467202D01*
X89537185Y-146414328D01*
X89562355Y-146354461D01*
X89577458Y-146289168D01*
X89582492Y-146218448D01*
X89582492Y-146182094D01*
X89577367Y-146111284D01*
X89561994Y-146045720D01*
X89536371Y-145985401D01*
X89501614Y-145932105D01*
X89458839Y-145887612D01*
X89408045Y-145851920D01*
X89350801Y-145825845D01*
X89288673Y-145810200D01*
X89221661Y-145804985D01*
X88978575Y-145804985D01*
X88978575Y-146595015D01*
X88836414Y-146595015D01*
X88836414Y-145804985D01*
X88674175Y-145804985D01*
X88674175Y-146325884D01*
X88356753Y-145804985D01*
X88193972Y-145804985D01*
X88193972Y-146595015D01*
X87867191Y-146595015D01*
X87937864Y-146576837D01*
X88009080Y-146541907D01*
X88062120Y-146495176D01*
X88062120Y-146179924D01*
X87751208Y-146179924D01*
X87751208Y-146299839D01*
X87899339Y-146299839D01*
X87899339Y-146436032D01*
X87847113Y-146465333D01*
X87768572Y-146475099D01*
X87688402Y-146459228D01*
X87630208Y-146411615D01*
X87603982Y-146362540D01*
X87588247Y-146299959D01*
X87583002Y-146223875D01*
X87583002Y-146173412D01*
X87588126Y-146098051D01*
X87602777Y-146036194D01*
X87626953Y-145987842D01*
X87680263Y-145941043D01*
X87753379Y-145925443D01*
X87811505Y-145933311D01*
X87855659Y-145956914D01*
X87886249Y-145997474D01*
X87903680Y-146056210D01*
X88062120Y-146056210D01*
X88045178Y-145977623D01*
X88013888Y-145912602D01*
X87968250Y-145861145D01*
X87908624Y-145823916D01*
X87835372Y-145801579D01*
X87748495Y-145794133D01*
X87684077Y-145799228D01*
X87625385Y-145814511D01*
X87572421Y-145839983D01*
X87506088Y-145896007D01*
X87457389Y-145972378D01*
X87435233Y-146033602D01*
X87421939Y-146101879D01*
X87417508Y-146177211D01*
X87417508Y-146230928D01*
X87185998Y-146230928D01*
X87185998Y-145562623D01*
G37*
%TO.C,C32*%
X63646267Y-139910000D02*
X63353733Y-139910000D01*
X63646267Y-138890000D02*
X63353733Y-138890000D01*
%TO.C,R60*%
X83854724Y-126222500D02*
X83345276Y-126222500D01*
X83854724Y-125177500D02*
X83345276Y-125177500D01*
%TO.C,R5*%
X63754724Y-79177500D02*
X63245276Y-79177500D01*
X63754724Y-80222500D02*
X63245276Y-80222500D01*
%TO.C,R49*%
X56954724Y-126222500D02*
X56445276Y-126222500D01*
X56954724Y-125177500D02*
X56445276Y-125177500D01*
%TO.C,C7*%
X63353733Y-87890000D02*
X63646267Y-87890000D01*
X63353733Y-88910000D02*
X63646267Y-88910000D01*
%TO.C,R29*%
X63232776Y-106822500D02*
X63742224Y-106822500D01*
X63232776Y-105777500D02*
X63742224Y-105777500D01*
%TO.C,R11*%
X76645276Y-74477500D02*
X77154724Y-74477500D01*
X76645276Y-75522500D02*
X77154724Y-75522500D01*
%TO.C,R63*%
X76645276Y-133477500D02*
X77154724Y-133477500D01*
X76645276Y-134522500D02*
X77154724Y-134522500D01*
%TO.C,C29*%
X63646267Y-133490000D02*
X63353733Y-133490000D01*
X63646267Y-134510000D02*
X63353733Y-134510000D01*
%TO.C,C39*%
X76753733Y-101410000D02*
X77046267Y-101410000D01*
X76753733Y-100390000D02*
X77046267Y-100390000D01*
%TO.C,C20*%
X63353733Y-111190000D02*
X63646267Y-111190000D01*
X63353733Y-112210000D02*
X63646267Y-112210000D01*
%TO.C,R45*%
X56954724Y-129977500D02*
X56445276Y-129977500D01*
X56954724Y-131022500D02*
X56445276Y-131022500D01*
%TO.C,kibuzzard-640237FD*%
G36*
X55568906Y-60068049D02*
G01*
X58231094Y-60068049D01*
X58231094Y-61331951D01*
X55568906Y-61331951D01*
X55568906Y-60825341D01*
X55800416Y-60825341D01*
X56105901Y-60825341D01*
X56105901Y-60698915D01*
X55800416Y-60698915D01*
X55800416Y-60825341D01*
X55568906Y-60825341D01*
X55568906Y-60554040D01*
X56262171Y-60554040D01*
X56449369Y-60495981D01*
X56449369Y-61100441D01*
X56606181Y-61100441D01*
X56606181Y-60558923D01*
X56847096Y-60558923D01*
X57004451Y-60558923D01*
X57012115Y-60505002D01*
X57035108Y-60462611D01*
X57071395Y-60435142D01*
X57118940Y-60425986D01*
X57194904Y-60456100D01*
X57214845Y-60491844D01*
X57221492Y-60538847D01*
X57196261Y-60620237D01*
X57164180Y-60666766D01*
X57118398Y-60720619D01*
X56862832Y-60993005D01*
X56862832Y-61100441D01*
X57404349Y-61100441D01*
X57404349Y-60974014D01*
X57064680Y-60974014D01*
X57244281Y-60784646D01*
X57307223Y-60708817D01*
X57348461Y-60643027D01*
X57371250Y-60582798D01*
X57378847Y-60523654D01*
X57377673Y-60513345D01*
X57453726Y-60513345D01*
X57651776Y-61100441D01*
X57801534Y-61100441D01*
X57999584Y-60513345D01*
X57835718Y-60513345D01*
X57726655Y-60908902D01*
X57617592Y-60513345D01*
X57453726Y-60513345D01*
X57377673Y-60513345D01*
X57371341Y-60457758D01*
X57348823Y-60402594D01*
X57311293Y-60358160D01*
X57260198Y-60325604D01*
X57196984Y-60306071D01*
X57121653Y-60299559D01*
X57046096Y-60308037D01*
X56978949Y-60333472D01*
X56923128Y-60373828D01*
X56881552Y-60427071D01*
X56855710Y-60489877D01*
X56847096Y-60558923D01*
X56606181Y-60558923D01*
X56606181Y-60309326D01*
X56589360Y-60309326D01*
X56262171Y-60426528D01*
X56262171Y-60554040D01*
X55568906Y-60554040D01*
X55568906Y-60068049D01*
G37*
%TO.C,U1*%
X70200000Y-83160000D02*
X73650000Y-83160000D01*
X70200000Y-83160000D02*
X68250000Y-83160000D01*
X70200000Y-78040000D02*
X68250000Y-78040000D01*
X70200000Y-78040000D02*
X72150000Y-78040000D01*
%TO.C,C35*%
X83746267Y-134790000D02*
X83453733Y-134790000D01*
X83746267Y-135810000D02*
X83453733Y-135810000D01*
%TD*%
%LPC*%
D15*
%TO.C,C33*%
X64362500Y-137600000D03*
X62637500Y-137600000D03*
%TD*%
D16*
%TO.C,U2*%
X72675000Y-74210000D03*
X72675000Y-72940000D03*
X72675000Y-71670000D03*
X72675000Y-70400000D03*
X72675000Y-69130000D03*
X72675000Y-67860000D03*
X72675000Y-66590000D03*
X67725000Y-66590000D03*
X67725000Y-67860000D03*
X67725000Y-69130000D03*
X67725000Y-70400000D03*
X67725000Y-71670000D03*
X67725000Y-72940000D03*
X67725000Y-74210000D03*
%TD*%
D17*
%TO.C,R44*%
X57612500Y-133700000D03*
X55787500Y-133700000D03*
%TD*%
%TO.C,R23*%
X57612500Y-96200000D03*
X55787500Y-96200000D03*
%TD*%
D18*
%TO.C,FREQ_OFFSET2*%
X85800000Y-111800000D03*
D19*
X82550000Y-110800000D03*
D18*
X85800000Y-109800000D03*
%TD*%
D20*
%TO.C,C4*%
X76037500Y-71600000D03*
X77762500Y-71600000D03*
%TD*%
D21*
%TO.C,D1*%
X88600000Y-57050000D03*
X88600000Y-53750000D03*
%TD*%
D22*
%TO.C,R53*%
X55787500Y-124100000D03*
X57612500Y-124100000D03*
%TD*%
D20*
%TO.C,C38*%
X76037500Y-90200000D03*
X77762500Y-90200000D03*
%TD*%
D17*
%TO.C,R65*%
X84512500Y-133700000D03*
X82687500Y-133700000D03*
%TD*%
D15*
%TO.C,C45*%
X64362500Y-128700000D03*
X62637500Y-128700000D03*
%TD*%
D22*
%TO.C,R58*%
X82687500Y-132100000D03*
X84512500Y-132100000D03*
%TD*%
D20*
%TO.C,C10*%
X76037500Y-97400000D03*
X77762500Y-97400000D03*
%TD*%
D23*
%TO.C,J4*%
X65060000Y-57000000D03*
D24*
X65060000Y-54460000D03*
X67600000Y-57000000D03*
X67600000Y-54460000D03*
X70140000Y-57000000D03*
X70140000Y-54460000D03*
X72680000Y-57000000D03*
X72680000Y-54460000D03*
X75220000Y-57000000D03*
X75220000Y-54460000D03*
%TD*%
D17*
%TO.C,R76*%
X64412500Y-62700000D03*
X62587500Y-62700000D03*
%TD*%
D20*
%TO.C,C14*%
X76037500Y-109900000D03*
X77762500Y-109900000D03*
%TD*%
D18*
%TO.C,FREQ_OFFSET4*%
X85800000Y-141300000D03*
D19*
X82550000Y-140300000D03*
D18*
X85800000Y-139300000D03*
%TD*%
D17*
%TO.C,R35*%
X77812500Y-102700000D03*
X75987500Y-102700000D03*
%TD*%
D22*
%TO.C,R2*%
X75987500Y-81400000D03*
X77812500Y-81400000D03*
%TD*%
D20*
%TO.C,C30*%
X76037500Y-139400000D03*
X77762500Y-139400000D03*
%TD*%
D15*
%TO.C,C3*%
X64362500Y-83100000D03*
X62637500Y-83100000D03*
%TD*%
D22*
%TO.C,R21*%
X55787500Y-97800000D03*
X57612500Y-97800000D03*
%TD*%
D15*
%TO.C,C28*%
X77762500Y-117900000D03*
X76037500Y-117900000D03*
%TD*%
D17*
%TO.C,R42*%
X77812500Y-125100000D03*
X75987500Y-125100000D03*
%TD*%
D20*
%TO.C,C15*%
X76037500Y-111700000D03*
X77762500Y-111700000D03*
%TD*%
D18*
%TO.C,V_OCT4*%
X85800000Y-120100000D03*
D19*
X82550000Y-119100000D03*
D18*
X85800000Y-118100000D03*
%TD*%
D20*
%TO.C,C31*%
X76037500Y-141200000D03*
X77762500Y-141200000D03*
%TD*%
D17*
%TO.C,R75*%
X64412500Y-64400000D03*
X62587500Y-64400000D03*
%TD*%
%TO.C,R73*%
X64412500Y-74600000D03*
X62587500Y-74600000D03*
%TD*%
D15*
%TO.C,C11*%
X57562500Y-93000000D03*
X55837500Y-93000000D03*
%TD*%
D22*
%TO.C,R74*%
X75987500Y-66500000D03*
X77812500Y-66500000D03*
%TD*%
%TO.C,R37*%
X75987500Y-104500000D03*
X77812500Y-104500000D03*
%TD*%
%TO.C,R57*%
X82687500Y-128900000D03*
X84512500Y-128900000D03*
%TD*%
D17*
%TO.C,R50*%
X64412500Y-126900000D03*
X62587500Y-126900000D03*
%TD*%
D20*
%TO.C,C9*%
X76037500Y-92000000D03*
X77762500Y-92000000D03*
%TD*%
D22*
%TO.C,R51*%
X75987500Y-128600000D03*
X77812500Y-128600000D03*
%TD*%
%TO.C,R27*%
X55787500Y-94600000D03*
X57612500Y-94600000D03*
%TD*%
%TO.C,R33*%
X82687500Y-96200000D03*
X84512500Y-96200000D03*
%TD*%
D17*
%TO.C,R9*%
X64412500Y-67800000D03*
X62587500Y-67800000D03*
%TD*%
%TO.C,R13*%
X64412500Y-66100000D03*
X62587500Y-66100000D03*
%TD*%
%TO.C,R46*%
X57612500Y-128900000D03*
X55787500Y-128900000D03*
%TD*%
%TO.C,R22*%
X64412500Y-95600000D03*
X62587500Y-95600000D03*
%TD*%
D25*
%TO.C,U4*%
X67725000Y-125790000D03*
X67725000Y-127060000D03*
X67725000Y-128330000D03*
X67725000Y-129600000D03*
X67725000Y-130870000D03*
X67725000Y-132140000D03*
X67725000Y-133410000D03*
X72675000Y-133410000D03*
X72675000Y-132140000D03*
X72675000Y-130870000D03*
X72675000Y-129600000D03*
X72675000Y-128330000D03*
X72675000Y-127060000D03*
X72675000Y-125790000D03*
%TD*%
D26*
%TO.C,C2*%
X55900000Y-57200000D03*
X55900000Y-53600000D03*
%TD*%
D20*
%TO.C,C22*%
X62637500Y-119700000D03*
X64362500Y-119700000D03*
%TD*%
D15*
%TO.C,C17*%
X64362500Y-108100000D03*
X62637500Y-108100000D03*
%TD*%
%TO.C,C40*%
X64362500Y-93800000D03*
X62637500Y-93800000D03*
%TD*%
%TO.C,C19*%
X84462500Y-105800000D03*
X82737500Y-105800000D03*
%TD*%
D17*
%TO.C,R38*%
X64412500Y-102700000D03*
X62587500Y-102700000D03*
%TD*%
%TO.C,R18*%
X57612500Y-104200000D03*
X55787500Y-104200000D03*
%TD*%
D27*
%TO.C,TP2*%
X56800000Y-62500000D03*
%TD*%
D18*
%TO.C,V_OCT3*%
X54600000Y-118100000D03*
D19*
X57850000Y-119100000D03*
D18*
X54600000Y-120100000D03*
%TD*%
D17*
%TO.C,R16*%
X77812500Y-95600000D03*
X75987500Y-95600000D03*
%TD*%
%TO.C,R10*%
X64412500Y-71200000D03*
X62587500Y-71200000D03*
%TD*%
D18*
%TO.C,V_OCT1*%
X54600000Y-88600000D03*
D19*
X57850000Y-89600000D03*
D18*
X54600000Y-90600000D03*
%TD*%
D15*
%TO.C,C18*%
X64362500Y-100900000D03*
X62637500Y-100900000D03*
%TD*%
D22*
%TO.C,R62*%
X75987500Y-137600000D03*
X77812500Y-137600000D03*
%TD*%
D17*
%TO.C,R34*%
X84512500Y-99400000D03*
X82687500Y-99400000D03*
%TD*%
%TO.C,R69*%
X57612500Y-132100000D03*
X55787500Y-132100000D03*
%TD*%
D21*
%TO.C,D2*%
X51800000Y-53750000D03*
X51800000Y-57050000D03*
%TD*%
D17*
%TO.C,R19*%
X57612500Y-102600000D03*
X55787500Y-102600000D03*
%TD*%
%TO.C,R64*%
X64412500Y-132200000D03*
X62587500Y-132200000D03*
%TD*%
D20*
%TO.C,C21*%
X76037500Y-123300000D03*
X77762500Y-123300000D03*
%TD*%
%TO.C,C5*%
X76037500Y-78000000D03*
X77762500Y-78000000D03*
%TD*%
D28*
%TO.C,U7*%
X67600000Y-107477500D03*
X67600000Y-108112500D03*
X67600000Y-108747500D03*
X67600000Y-109382500D03*
X67600000Y-110017500D03*
X67600000Y-110652500D03*
X67600000Y-111287500D03*
X67600000Y-111922500D03*
X72800000Y-111922500D03*
X72800000Y-111287500D03*
X72800000Y-110652500D03*
X72800000Y-110017500D03*
X72800000Y-109382500D03*
X72800000Y-108747500D03*
X72800000Y-108112500D03*
X72800000Y-107477500D03*
%TD*%
D22*
%TO.C,R68*%
X82687500Y-102600000D03*
X84512500Y-102600000D03*
%TD*%
D15*
%TO.C,C34*%
X64362500Y-130400000D03*
X62637500Y-130400000D03*
%TD*%
D22*
%TO.C,R36*%
X75987500Y-108100000D03*
X77812500Y-108100000D03*
%TD*%
D17*
%TO.C,R3*%
X64412500Y-78000000D03*
X62587500Y-78000000D03*
%TD*%
D22*
%TO.C,R6*%
X75987500Y-84800000D03*
X77812500Y-84800000D03*
%TD*%
D17*
%TO.C,R56*%
X57612500Y-135300000D03*
X55787500Y-135300000D03*
%TD*%
D22*
%TO.C,R52*%
X62587500Y-121500000D03*
X64412500Y-121500000D03*
%TD*%
D28*
%TO.C,U10*%
X67600000Y-136977500D03*
X67600000Y-137612500D03*
X67600000Y-138247500D03*
X67600000Y-138882500D03*
X67600000Y-139517500D03*
X67600000Y-140152500D03*
X67600000Y-140787500D03*
X67600000Y-141422500D03*
X72800000Y-141422500D03*
X72800000Y-140787500D03*
X72800000Y-140152500D03*
X72800000Y-139517500D03*
X72800000Y-138882500D03*
X72800000Y-138247500D03*
X72800000Y-137612500D03*
X72800000Y-136977500D03*
%TD*%
D22*
%TO.C,R7*%
X75987500Y-73300000D03*
X77812500Y-73300000D03*
%TD*%
D17*
%TO.C,R67*%
X57612500Y-99400000D03*
X55787500Y-99400000D03*
%TD*%
%TO.C,R54*%
X57612500Y-136900000D03*
X55787500Y-136900000D03*
%TD*%
D20*
%TO.C,C24*%
X76037500Y-119700000D03*
X77762500Y-119700000D03*
%TD*%
D22*
%TO.C,R12*%
X75987500Y-68200000D03*
X77812500Y-68200000D03*
%TD*%
%TO.C,R26*%
X62587500Y-92000000D03*
X64412500Y-92000000D03*
%TD*%
D15*
%TO.C,C49*%
X77762500Y-86500000D03*
X76037500Y-86500000D03*
%TD*%
D17*
%TO.C,R20*%
X57612500Y-101000000D03*
X55787500Y-101000000D03*
%TD*%
D22*
%TO.C,R8*%
X75987500Y-69900000D03*
X77812500Y-69900000D03*
%TD*%
D20*
%TO.C,C25*%
X76037500Y-121500000D03*
X77762500Y-121500000D03*
%TD*%
D17*
%TO.C,R28*%
X57612500Y-107400000D03*
X55787500Y-107400000D03*
%TD*%
D20*
%TO.C,C37*%
X76037500Y-93800000D03*
X77762500Y-93800000D03*
%TD*%
D28*
%TO.C,U5*%
X72800000Y-92722500D03*
X72800000Y-92087500D03*
X72800000Y-91452500D03*
X72800000Y-90817500D03*
X72800000Y-90182500D03*
X72800000Y-89547500D03*
X72800000Y-88912500D03*
X72800000Y-88277500D03*
X67600000Y-88277500D03*
X67600000Y-88912500D03*
X67600000Y-89547500D03*
X67600000Y-90182500D03*
X67600000Y-90817500D03*
X67600000Y-91452500D03*
X67600000Y-92087500D03*
X67600000Y-92722500D03*
%TD*%
D22*
%TO.C,R72*%
X75987500Y-64800000D03*
X77812500Y-64800000D03*
%TD*%
%TO.C,R55*%
X62575000Y-135800000D03*
X64400000Y-135800000D03*
%TD*%
%TO.C,R41*%
X82687500Y-124100000D03*
X84512500Y-124100000D03*
%TD*%
D20*
%TO.C,C46*%
X76037500Y-135800000D03*
X77762500Y-135800000D03*
%TD*%
D22*
%TO.C,R70*%
X82687500Y-130500000D03*
X84512500Y-130500000D03*
%TD*%
D20*
%TO.C,C36*%
X62637500Y-141200000D03*
X64362500Y-141200000D03*
%TD*%
D15*
%TO.C,C12*%
X77762500Y-88400000D03*
X76037500Y-88400000D03*
%TD*%
D28*
%TO.C,U9*%
X72800000Y-122222500D03*
X72800000Y-121587500D03*
X72800000Y-120952500D03*
X72800000Y-120317500D03*
X72800000Y-119682500D03*
X72800000Y-119047500D03*
X72800000Y-118412500D03*
X72800000Y-117777500D03*
X67600000Y-117777500D03*
X67600000Y-118412500D03*
X67600000Y-119047500D03*
X67600000Y-119682500D03*
X67600000Y-120317500D03*
X67600000Y-120952500D03*
X67600000Y-121587500D03*
X67600000Y-122222500D03*
%TD*%
D22*
%TO.C,R32*%
X82687500Y-101000000D03*
X84512500Y-101000000D03*
%TD*%
D17*
%TO.C,R48*%
X64412500Y-125100000D03*
X62587500Y-125100000D03*
%TD*%
D15*
%TO.C,C27*%
X57562500Y-122500000D03*
X55837500Y-122500000D03*
%TD*%
D17*
%TO.C,R30*%
X57612500Y-105800000D03*
X55787500Y-105800000D03*
%TD*%
D18*
%TO.C,FREQ_OFFSET3*%
X54600000Y-139300000D03*
D19*
X57850000Y-140300000D03*
D18*
X54600000Y-141300000D03*
%TD*%
D17*
%TO.C,R40*%
X84512500Y-107400000D03*
X82687500Y-107400000D03*
%TD*%
D18*
%TO.C,FREQ_OFFSET1*%
X54600000Y-109800000D03*
D19*
X57850000Y-110800000D03*
D18*
X54600000Y-111800000D03*
%TD*%
D27*
%TO.C,TP4*%
X80400000Y-62600000D03*
%TD*%
D15*
%TO.C,C44*%
X64362500Y-123300000D03*
X62637500Y-123300000D03*
%TD*%
%TO.C,C8*%
X64362500Y-69500000D03*
X62637500Y-69500000D03*
%TD*%
D25*
%TO.C,U3*%
X67725000Y-96290000D03*
X67725000Y-97560000D03*
X67725000Y-98830000D03*
X67725000Y-100100000D03*
X67725000Y-101370000D03*
X67725000Y-102640000D03*
X67725000Y-103910000D03*
X72675000Y-103910000D03*
X72675000Y-102640000D03*
X72675000Y-101370000D03*
X72675000Y-100100000D03*
X72675000Y-98830000D03*
X72675000Y-97560000D03*
X72675000Y-96290000D03*
%TD*%
D15*
%TO.C,C47*%
X77762500Y-79700000D03*
X76037500Y-79700000D03*
%TD*%
%TO.C,C50*%
X64362500Y-81400000D03*
X62637500Y-81400000D03*
%TD*%
D17*
%TO.C,R66*%
X84512500Y-136900000D03*
X82687500Y-136900000D03*
%TD*%
D22*
%TO.C,R4*%
X75987500Y-83100000D03*
X77812500Y-83100000D03*
%TD*%
D20*
%TO.C,C41*%
X76037500Y-130400000D03*
X77762500Y-130400000D03*
%TD*%
D22*
%TO.C,R59*%
X82687500Y-127300000D03*
X84512500Y-127300000D03*
%TD*%
D15*
%TO.C,C43*%
X64362500Y-99200000D03*
X62637500Y-99200000D03*
%TD*%
D17*
%TO.C,R1*%
X64412500Y-84800000D03*
X62587500Y-84800000D03*
%TD*%
D15*
%TO.C,C16*%
X64362500Y-109900000D03*
X62637500Y-109900000D03*
%TD*%
D22*
%TO.C,R25*%
X75987500Y-99200000D03*
X77812500Y-99200000D03*
%TD*%
D18*
%TO.C,V_OCT2*%
X85800000Y-90600000D03*
D19*
X82550000Y-89600000D03*
D18*
X85800000Y-88600000D03*
%TD*%
D22*
%TO.C,R47*%
X55787500Y-127300000D03*
X57612500Y-127300000D03*
%TD*%
D15*
%TO.C,C13*%
X64362500Y-104500000D03*
X62637500Y-104500000D03*
%TD*%
D17*
%TO.C,R14*%
X64412500Y-72900000D03*
X62587500Y-72900000D03*
%TD*%
D22*
%TO.C,R15*%
X82687500Y-94600000D03*
X84512500Y-94600000D03*
%TD*%
%TO.C,R17*%
X82687500Y-93000000D03*
X84512500Y-93000000D03*
%TD*%
D17*
%TO.C,R24*%
X64412500Y-97400000D03*
X62587500Y-97400000D03*
%TD*%
D27*
%TO.C,TP1*%
X84100000Y-62600000D03*
%TD*%
D20*
%TO.C,C6*%
X62637500Y-90200000D03*
X64362500Y-90200000D03*
%TD*%
%TO.C,C23*%
X62637500Y-117900000D03*
X64362500Y-117900000D03*
%TD*%
D22*
%TO.C,R31*%
X82687500Y-97800000D03*
X84512500Y-97800000D03*
%TD*%
D17*
%TO.C,R39*%
X84512500Y-104200000D03*
X82687500Y-104200000D03*
%TD*%
D20*
%TO.C,C48*%
X62637500Y-76300000D03*
X64362500Y-76300000D03*
%TD*%
%TO.C,C26*%
X76037500Y-126800000D03*
X77762500Y-126800000D03*
%TD*%
D22*
%TO.C,R43*%
X82687500Y-122500000D03*
X84512500Y-122500000D03*
%TD*%
D17*
%TO.C,R71*%
X64412500Y-86500000D03*
X62587500Y-86500000D03*
%TD*%
D26*
%TO.C,C1*%
X84400000Y-57200000D03*
X84400000Y-53600000D03*
%TD*%
D20*
%TO.C,C42*%
X76037500Y-106300000D03*
X77762500Y-106300000D03*
%TD*%
D17*
%TO.C,R61*%
X77812500Y-132200000D03*
X75987500Y-132200000D03*
%TD*%
D15*
%TO.C,C32*%
X64362500Y-139400000D03*
X62637500Y-139400000D03*
%TD*%
D17*
%TO.C,R60*%
X84512500Y-125700000D03*
X82687500Y-125700000D03*
%TD*%
%TO.C,R5*%
X64412500Y-79700000D03*
X62587500Y-79700000D03*
%TD*%
%TO.C,R49*%
X57612500Y-125700000D03*
X55787500Y-125700000D03*
%TD*%
D20*
%TO.C,C7*%
X62637500Y-88400000D03*
X64362500Y-88400000D03*
%TD*%
D22*
%TO.C,R29*%
X62575000Y-106300000D03*
X64400000Y-106300000D03*
%TD*%
%TO.C,R11*%
X75987500Y-75000000D03*
X77812500Y-75000000D03*
%TD*%
%TO.C,R63*%
X75987500Y-134000000D03*
X77812500Y-134000000D03*
%TD*%
D15*
%TO.C,C29*%
X64362500Y-134000000D03*
X62637500Y-134000000D03*
%TD*%
D20*
%TO.C,C39*%
X76037500Y-100900000D03*
X77762500Y-100900000D03*
%TD*%
%TO.C,C20*%
X62637500Y-111700000D03*
X64362500Y-111700000D03*
%TD*%
D27*
%TO.C,TP3*%
X88400000Y-148000000D03*
%TD*%
D17*
%TO.C,R45*%
X57612500Y-130500000D03*
X55787500Y-130500000D03*
%TD*%
D29*
%TO.C,U1*%
X72775000Y-82505000D03*
X72775000Y-81235000D03*
X72775000Y-79965000D03*
X72775000Y-78695000D03*
X67625000Y-78695000D03*
X67625000Y-79965000D03*
X67625000Y-81235000D03*
X67625000Y-82505000D03*
%TD*%
D15*
%TO.C,C35*%
X84462500Y-135300000D03*
X82737500Y-135300000D03*
%TD*%
D23*
%TO.C,J3*%
X81650000Y-147900000D03*
D30*
X79110000Y-147900000D03*
X76570000Y-147900000D03*
X74030000Y-147900000D03*
X71490000Y-147900000D03*
X68950000Y-147900000D03*
X66410000Y-147900000D03*
X63870000Y-147900000D03*
X61330000Y-147900000D03*
X58790000Y-147900000D03*
%TD*%
D23*
%TO.C,J1*%
X52400000Y-62800000D03*
D30*
X52400000Y-65340000D03*
X52400000Y-67880000D03*
X52400000Y-70420000D03*
X52400000Y-72960000D03*
X52400000Y-75500000D03*
X52400000Y-78040000D03*
X52400000Y-80580000D03*
X52400000Y-83120000D03*
X52400000Y-85660000D03*
%TD*%
D23*
%TO.C,J2*%
X87900000Y-62800000D03*
D30*
X87900000Y-65340000D03*
X87900000Y-67880000D03*
X87900000Y-70420000D03*
X87900000Y-72960000D03*
X87900000Y-75500000D03*
X87900000Y-78040000D03*
X87900000Y-80580000D03*
X87900000Y-83120000D03*
X87900000Y-85660000D03*
%TD*%
M02*
