%TF.GenerationSoftware,KiCad,Pcbnew,(6.0.11)*%
%TF.CreationDate,2023-07-06T17:32:08+01:00*%
%TF.ProjectId,Quilter_Controls,5175696c-7465-4725-9f43-6f6e74726f6c,rev?*%
%TF.SameCoordinates,Original*%
%TF.FileFunction,Legend,Top*%
%TF.FilePolarity,Positive*%
%FSLAX46Y46*%
G04 Gerber Fmt 4.6, Leading zero omitted, Abs format (unit mm)*
G04 Created by KiCad (PCBNEW (6.0.11)) date 2023-07-06 17:32:09*
%MOMM*%
%LPD*%
G01*
G04 APERTURE LIST*
%ADD10C,0.150000*%
%ADD11C,0.200000*%
%ADD12C,0.120000*%
%ADD13R,1.000000X2.500000*%
%ADD14C,3.650000*%
G04 APERTURE END LIST*
D10*
X56066666Y-147352380D02*
X56066666Y-148066666D01*
X56019047Y-148209523D01*
X55923809Y-148304761D01*
X55780952Y-148352380D01*
X55685714Y-148352380D01*
X56447619Y-147352380D02*
X57066666Y-147352380D01*
X56733333Y-147733333D01*
X56876190Y-147733333D01*
X56971428Y-147780952D01*
X57019047Y-147828571D01*
X57066666Y-147923809D01*
X57066666Y-148161904D01*
X57019047Y-148257142D01*
X56971428Y-148304761D01*
X56876190Y-148352380D01*
X56590476Y-148352380D01*
X56495238Y-148304761D01*
X56447619Y-148257142D01*
X52066666Y-59952380D02*
X52066666Y-60666666D01*
X52019047Y-60809523D01*
X51923809Y-60904761D01*
X51780952Y-60952380D01*
X51685714Y-60952380D01*
X52495238Y-60047619D02*
X52542857Y-60000000D01*
X52638095Y-59952380D01*
X52876190Y-59952380D01*
X52971428Y-60000000D01*
X53019047Y-60047619D01*
X53066666Y-60142857D01*
X53066666Y-60238095D01*
X53019047Y-60380952D01*
X52447619Y-60952380D01*
X53066666Y-60952380D01*
D11*
X86138095Y-148500000D02*
X86042857Y-148452380D01*
X85900000Y-148452380D01*
X85757142Y-148500000D01*
X85661904Y-148595238D01*
X85614285Y-148690476D01*
X85566666Y-148880952D01*
X85566666Y-149023809D01*
X85614285Y-149214285D01*
X85661904Y-149309523D01*
X85757142Y-149404761D01*
X85900000Y-149452380D01*
X85995238Y-149452380D01*
X86138095Y-149404761D01*
X86185714Y-149357142D01*
X86185714Y-149023809D01*
X85995238Y-149023809D01*
X86614285Y-149452380D02*
X86614285Y-148452380D01*
X87185714Y-149452380D01*
X87185714Y-148452380D01*
X87661904Y-149452380D02*
X87661904Y-148452380D01*
X87900000Y-148452380D01*
X88042857Y-148500000D01*
X88138095Y-148595238D01*
X88185714Y-148690476D01*
X88233333Y-148880952D01*
X88233333Y-149023809D01*
X88185714Y-149214285D01*
X88138095Y-149309523D01*
X88042857Y-149404761D01*
X87900000Y-149452380D01*
X87661904Y-149452380D01*
X53080952Y-58052380D02*
X52509523Y-58052380D01*
X52795238Y-58052380D02*
X52795238Y-57052380D01*
X52700000Y-57195238D01*
X52604761Y-57290476D01*
X52509523Y-57338095D01*
X53461904Y-57147619D02*
X53509523Y-57100000D01*
X53604761Y-57052380D01*
X53842857Y-57052380D01*
X53938095Y-57100000D01*
X53985714Y-57147619D01*
X54033333Y-57242857D01*
X54033333Y-57338095D01*
X53985714Y-57480952D01*
X53414285Y-58052380D01*
X54033333Y-58052380D01*
X54319047Y-57052380D02*
X54652380Y-58052380D01*
X54985714Y-57052380D01*
D10*
X87566666Y-59952380D02*
X87566666Y-60666666D01*
X87519047Y-60809523D01*
X87423809Y-60904761D01*
X87280952Y-60952380D01*
X87185714Y-60952380D01*
X88566666Y-60952380D02*
X87995238Y-60952380D01*
X88280952Y-60952380D02*
X88280952Y-59952380D01*
X88185714Y-60095238D01*
X88090476Y-60190476D01*
X87995238Y-60238095D01*
%TO.C,J11*%
X58680952Y-134928571D02*
X58347619Y-134928571D01*
X58347619Y-135452380D02*
X58347619Y-134452380D01*
X58823809Y-134452380D01*
X59204761Y-135452380D02*
X59204761Y-134785714D01*
X59204761Y-134976190D02*
X59252380Y-134880952D01*
X59300000Y-134833333D01*
X59395238Y-134785714D01*
X59490476Y-134785714D01*
X60204761Y-135404761D02*
X60109523Y-135452380D01*
X59919047Y-135452380D01*
X59823809Y-135404761D01*
X59776190Y-135309523D01*
X59776190Y-134928571D01*
X59823809Y-134833333D01*
X59919047Y-134785714D01*
X60109523Y-134785714D01*
X60204761Y-134833333D01*
X60252380Y-134928571D01*
X60252380Y-135023809D01*
X59776190Y-135119047D01*
X61109523Y-134785714D02*
X61109523Y-135785714D01*
X61109523Y-135404761D02*
X61014285Y-135452380D01*
X60823809Y-135452380D01*
X60728571Y-135404761D01*
X60680952Y-135357142D01*
X60633333Y-135261904D01*
X60633333Y-134976190D01*
X60680952Y-134880952D01*
X60728571Y-134833333D01*
X60823809Y-134785714D01*
X61014285Y-134785714D01*
X61109523Y-134833333D01*
X61347619Y-135547619D02*
X62109523Y-135547619D01*
X62347619Y-135452380D02*
X62347619Y-134452380D01*
X62823809Y-134785714D02*
X62823809Y-135452380D01*
X62823809Y-134880952D02*
X62871428Y-134833333D01*
X62966666Y-134785714D01*
X63109523Y-134785714D01*
X63204761Y-134833333D01*
X63252380Y-134928571D01*
X63252380Y-135452380D01*
%TO.C,Q_CTRL1*%
X77698095Y-87187619D02*
X77602857Y-87140000D01*
X77507619Y-87044761D01*
X77364761Y-86901904D01*
X77269523Y-86854285D01*
X77174285Y-86854285D01*
X77221904Y-87092380D02*
X77126666Y-87044761D01*
X77031428Y-86949523D01*
X76983809Y-86759047D01*
X76983809Y-86425714D01*
X77031428Y-86235238D01*
X77126666Y-86140000D01*
X77221904Y-86092380D01*
X77412380Y-86092380D01*
X77507619Y-86140000D01*
X77602857Y-86235238D01*
X77650476Y-86425714D01*
X77650476Y-86759047D01*
X77602857Y-86949523D01*
X77507619Y-87044761D01*
X77412380Y-87092380D01*
X77221904Y-87092380D01*
X77840952Y-87187619D02*
X78602857Y-87187619D01*
X79412380Y-86997142D02*
X79364761Y-87044761D01*
X79221904Y-87092380D01*
X79126666Y-87092380D01*
X78983809Y-87044761D01*
X78888571Y-86949523D01*
X78840952Y-86854285D01*
X78793333Y-86663809D01*
X78793333Y-86520952D01*
X78840952Y-86330476D01*
X78888571Y-86235238D01*
X78983809Y-86140000D01*
X79126666Y-86092380D01*
X79221904Y-86092380D01*
X79364761Y-86140000D01*
X79412380Y-86187619D01*
X79698095Y-86092380D02*
X80269523Y-86092380D01*
X79983809Y-87092380D02*
X79983809Y-86092380D01*
X81174285Y-87092380D02*
X80840952Y-86616190D01*
X80602857Y-87092380D02*
X80602857Y-86092380D01*
X80983809Y-86092380D01*
X81079047Y-86140000D01*
X81126666Y-86187619D01*
X81174285Y-86282857D01*
X81174285Y-86425714D01*
X81126666Y-86520952D01*
X81079047Y-86568571D01*
X80983809Y-86616190D01*
X80602857Y-86616190D01*
X82079047Y-87092380D02*
X81602857Y-87092380D01*
X81602857Y-86092380D01*
X82936190Y-87092380D02*
X82364761Y-87092380D01*
X82650476Y-87092380D02*
X82650476Y-86092380D01*
X82555238Y-86235238D01*
X82460000Y-86330476D01*
X82364761Y-86378095D01*
%TO.C,J6*%
X77271428Y-135166666D02*
X77747619Y-135166666D01*
X77176190Y-135452380D02*
X77509523Y-134452380D01*
X77842857Y-135452380D01*
X78604761Y-134785714D02*
X78604761Y-135452380D01*
X78176190Y-134785714D02*
X78176190Y-135309523D01*
X78223809Y-135404761D01*
X78319047Y-135452380D01*
X78461904Y-135452380D01*
X78557142Y-135404761D01*
X78604761Y-135357142D01*
X79509523Y-135452380D02*
X79509523Y-134452380D01*
X79509523Y-135404761D02*
X79414285Y-135452380D01*
X79223809Y-135452380D01*
X79128571Y-135404761D01*
X79080952Y-135357142D01*
X79033333Y-135261904D01*
X79033333Y-134976190D01*
X79080952Y-134880952D01*
X79128571Y-134833333D01*
X79223809Y-134785714D01*
X79414285Y-134785714D01*
X79509523Y-134833333D01*
X79985714Y-135452380D02*
X79985714Y-134785714D01*
X79985714Y-134452380D02*
X79938095Y-134500000D01*
X79985714Y-134547619D01*
X80033333Y-134500000D01*
X79985714Y-134452380D01*
X79985714Y-134547619D01*
X80604761Y-135452380D02*
X80509523Y-135404761D01*
X80461904Y-135357142D01*
X80414285Y-135261904D01*
X80414285Y-134976190D01*
X80461904Y-134880952D01*
X80509523Y-134833333D01*
X80604761Y-134785714D01*
X80747619Y-134785714D01*
X80842857Y-134833333D01*
X80890476Y-134880952D01*
X80938095Y-134976190D01*
X80938095Y-135261904D01*
X80890476Y-135357142D01*
X80842857Y-135404761D01*
X80747619Y-135452380D01*
X80604761Y-135452380D01*
X81128571Y-135547619D02*
X81890476Y-135547619D01*
X82128571Y-135452380D02*
X82128571Y-134452380D01*
X82461904Y-135166666D01*
X82795238Y-134452380D01*
X82795238Y-135452380D01*
X83271428Y-135452380D02*
X83271428Y-134785714D01*
X83271428Y-134452380D02*
X83223809Y-134500000D01*
X83271428Y-134547619D01*
X83319047Y-134500000D01*
X83271428Y-134452380D01*
X83271428Y-134547619D01*
X83652380Y-135452380D02*
X84176190Y-134785714D01*
X83652380Y-134785714D02*
X84176190Y-135452380D01*
%TO.C,J4*%
X77095238Y-93866666D02*
X77571428Y-93866666D01*
X77000000Y-94152380D02*
X77333333Y-93152380D01*
X77666666Y-94152380D01*
X78428571Y-93485714D02*
X78428571Y-94152380D01*
X78000000Y-93485714D02*
X78000000Y-94009523D01*
X78047619Y-94104761D01*
X78142857Y-94152380D01*
X78285714Y-94152380D01*
X78380952Y-94104761D01*
X78428571Y-94057142D01*
X79333333Y-94152380D02*
X79333333Y-93152380D01*
X79333333Y-94104761D02*
X79238095Y-94152380D01*
X79047619Y-94152380D01*
X78952380Y-94104761D01*
X78904761Y-94057142D01*
X78857142Y-93961904D01*
X78857142Y-93676190D01*
X78904761Y-93580952D01*
X78952380Y-93533333D01*
X79047619Y-93485714D01*
X79238095Y-93485714D01*
X79333333Y-93533333D01*
X79809523Y-94152380D02*
X79809523Y-93485714D01*
X79809523Y-93152380D02*
X79761904Y-93200000D01*
X79809523Y-93247619D01*
X79857142Y-93200000D01*
X79809523Y-93152380D01*
X79809523Y-93247619D01*
X80428571Y-94152380D02*
X80333333Y-94104761D01*
X80285714Y-94057142D01*
X80238095Y-93961904D01*
X80238095Y-93676190D01*
X80285714Y-93580952D01*
X80333333Y-93533333D01*
X80428571Y-93485714D01*
X80571428Y-93485714D01*
X80666666Y-93533333D01*
X80714285Y-93580952D01*
X80761904Y-93676190D01*
X80761904Y-93961904D01*
X80714285Y-94057142D01*
X80666666Y-94104761D01*
X80571428Y-94152380D01*
X80428571Y-94152380D01*
X80952380Y-94247619D02*
X81714285Y-94247619D01*
X81952380Y-94152380D02*
X81952380Y-93152380D01*
X82428571Y-93485714D02*
X82428571Y-94152380D01*
X82428571Y-93580952D02*
X82476190Y-93533333D01*
X82571428Y-93485714D01*
X82714285Y-93485714D01*
X82809523Y-93533333D01*
X82857142Y-93628571D01*
X82857142Y-94152380D01*
%TO.C,J5*%
X76523809Y-114266666D02*
X77000000Y-114266666D01*
X76428571Y-114552380D02*
X76761904Y-113552380D01*
X77095238Y-114552380D01*
X77857142Y-113885714D02*
X77857142Y-114552380D01*
X77428571Y-113885714D02*
X77428571Y-114409523D01*
X77476190Y-114504761D01*
X77571428Y-114552380D01*
X77714285Y-114552380D01*
X77809523Y-114504761D01*
X77857142Y-114457142D01*
X78761904Y-114552380D02*
X78761904Y-113552380D01*
X78761904Y-114504761D02*
X78666666Y-114552380D01*
X78476190Y-114552380D01*
X78380952Y-114504761D01*
X78333333Y-114457142D01*
X78285714Y-114361904D01*
X78285714Y-114076190D01*
X78333333Y-113980952D01*
X78380952Y-113933333D01*
X78476190Y-113885714D01*
X78666666Y-113885714D01*
X78761904Y-113933333D01*
X79238095Y-114552380D02*
X79238095Y-113885714D01*
X79238095Y-113552380D02*
X79190476Y-113600000D01*
X79238095Y-113647619D01*
X79285714Y-113600000D01*
X79238095Y-113552380D01*
X79238095Y-113647619D01*
X79857142Y-114552380D02*
X79761904Y-114504761D01*
X79714285Y-114457142D01*
X79666666Y-114361904D01*
X79666666Y-114076190D01*
X79714285Y-113980952D01*
X79761904Y-113933333D01*
X79857142Y-113885714D01*
X80000000Y-113885714D01*
X80095238Y-113933333D01*
X80142857Y-113980952D01*
X80190476Y-114076190D01*
X80190476Y-114361904D01*
X80142857Y-114457142D01*
X80095238Y-114504761D01*
X80000000Y-114552380D01*
X79857142Y-114552380D01*
X80380952Y-114647619D02*
X81142857Y-114647619D01*
X81571428Y-113552380D02*
X81761904Y-113552380D01*
X81857142Y-113600000D01*
X81952380Y-113695238D01*
X82000000Y-113885714D01*
X82000000Y-114219047D01*
X81952380Y-114409523D01*
X81857142Y-114504761D01*
X81761904Y-114552380D01*
X81571428Y-114552380D01*
X81476190Y-114504761D01*
X81380952Y-114409523D01*
X81333333Y-114219047D01*
X81333333Y-113885714D01*
X81380952Y-113695238D01*
X81476190Y-113600000D01*
X81571428Y-113552380D01*
X82857142Y-113885714D02*
X82857142Y-114552380D01*
X82428571Y-113885714D02*
X82428571Y-114409523D01*
X82476190Y-114504761D01*
X82571428Y-114552380D01*
X82714285Y-114552380D01*
X82809523Y-114504761D01*
X82857142Y-114457142D01*
X83190476Y-113885714D02*
X83571428Y-113885714D01*
X83333333Y-113552380D02*
X83333333Y-114409523D01*
X83380952Y-114504761D01*
X83476190Y-114552380D01*
X83571428Y-114552380D01*
%TO.C,J8*%
X55590476Y-114028571D02*
X55257142Y-114028571D01*
X55257142Y-114552380D02*
X55257142Y-113552380D01*
X55733333Y-113552380D01*
X56114285Y-114552380D02*
X56114285Y-113885714D01*
X56114285Y-114076190D02*
X56161904Y-113980952D01*
X56209523Y-113933333D01*
X56304761Y-113885714D01*
X56400000Y-113885714D01*
X57114285Y-114504761D02*
X57019047Y-114552380D01*
X56828571Y-114552380D01*
X56733333Y-114504761D01*
X56685714Y-114409523D01*
X56685714Y-114028571D01*
X56733333Y-113933333D01*
X56828571Y-113885714D01*
X57019047Y-113885714D01*
X57114285Y-113933333D01*
X57161904Y-114028571D01*
X57161904Y-114123809D01*
X56685714Y-114219047D01*
X58019047Y-113885714D02*
X58019047Y-114885714D01*
X58019047Y-114504761D02*
X57923809Y-114552380D01*
X57733333Y-114552380D01*
X57638095Y-114504761D01*
X57590476Y-114457142D01*
X57542857Y-114361904D01*
X57542857Y-114076190D01*
X57590476Y-113980952D01*
X57638095Y-113933333D01*
X57733333Y-113885714D01*
X57923809Y-113885714D01*
X58019047Y-113933333D01*
X58257142Y-114647619D02*
X59019047Y-114647619D01*
X59828571Y-114457142D02*
X59780952Y-114504761D01*
X59638095Y-114552380D01*
X59542857Y-114552380D01*
X59400000Y-114504761D01*
X59304761Y-114409523D01*
X59257142Y-114314285D01*
X59209523Y-114123809D01*
X59209523Y-113980952D01*
X59257142Y-113790476D01*
X59304761Y-113695238D01*
X59400000Y-113600000D01*
X59542857Y-113552380D01*
X59638095Y-113552380D01*
X59780952Y-113600000D01*
X59828571Y-113647619D01*
X60114285Y-113552380D02*
X60447619Y-114552380D01*
X60780952Y-113552380D01*
X60876190Y-114647619D02*
X61638095Y-114647619D01*
X61876190Y-114552380D02*
X61876190Y-113552380D01*
X62114285Y-113552380D01*
X62257142Y-113600000D01*
X62352380Y-113695238D01*
X62400000Y-113790476D01*
X62447619Y-113980952D01*
X62447619Y-114123809D01*
X62400000Y-114314285D01*
X62352380Y-114409523D01*
X62257142Y-114504761D01*
X62114285Y-114552380D01*
X61876190Y-114552380D01*
X63304761Y-114552380D02*
X63304761Y-114028571D01*
X63257142Y-113933333D01*
X63161904Y-113885714D01*
X62971428Y-113885714D01*
X62876190Y-113933333D01*
X63304761Y-114504761D02*
X63209523Y-114552380D01*
X62971428Y-114552380D01*
X62876190Y-114504761D01*
X62828571Y-114409523D01*
X62828571Y-114314285D01*
X62876190Y-114219047D01*
X62971428Y-114171428D01*
X63209523Y-114171428D01*
X63304761Y-114123809D01*
X63780952Y-114552380D02*
X63780952Y-113885714D01*
X63780952Y-113980952D02*
X63828571Y-113933333D01*
X63923809Y-113885714D01*
X64066666Y-113885714D01*
X64161904Y-113933333D01*
X64209523Y-114028571D01*
X64209523Y-114552380D01*
X64209523Y-114028571D02*
X64257142Y-113933333D01*
X64352380Y-113885714D01*
X64495238Y-113885714D01*
X64590476Y-113933333D01*
X64638095Y-114028571D01*
X64638095Y-114552380D01*
X65114285Y-113885714D02*
X65114285Y-114885714D01*
X65114285Y-113933333D02*
X65209523Y-113885714D01*
X65400000Y-113885714D01*
X65495238Y-113933333D01*
X65542857Y-113980952D01*
X65590476Y-114076190D01*
X65590476Y-114361904D01*
X65542857Y-114457142D01*
X65495238Y-114504761D01*
X65400000Y-114552380D01*
X65209523Y-114552380D01*
X65114285Y-114504761D01*
%TO.C,J7*%
X56923809Y-93628571D02*
X56590476Y-93628571D01*
X56590476Y-94152380D02*
X56590476Y-93152380D01*
X57066666Y-93152380D01*
X57447619Y-94152380D02*
X57447619Y-93485714D01*
X57447619Y-93676190D02*
X57495238Y-93580952D01*
X57542857Y-93533333D01*
X57638095Y-93485714D01*
X57733333Y-93485714D01*
X58447619Y-94104761D02*
X58352380Y-94152380D01*
X58161904Y-94152380D01*
X58066666Y-94104761D01*
X58019047Y-94009523D01*
X58019047Y-93628571D01*
X58066666Y-93533333D01*
X58161904Y-93485714D01*
X58352380Y-93485714D01*
X58447619Y-93533333D01*
X58495238Y-93628571D01*
X58495238Y-93723809D01*
X58019047Y-93819047D01*
X59352380Y-93485714D02*
X59352380Y-94485714D01*
X59352380Y-94104761D02*
X59257142Y-94152380D01*
X59066666Y-94152380D01*
X58971428Y-94104761D01*
X58923809Y-94057142D01*
X58876190Y-93961904D01*
X58876190Y-93676190D01*
X58923809Y-93580952D01*
X58971428Y-93533333D01*
X59066666Y-93485714D01*
X59257142Y-93485714D01*
X59352380Y-93533333D01*
X59590476Y-94247619D02*
X60352380Y-94247619D01*
X60447619Y-93152380D02*
X60780952Y-94152380D01*
X61114285Y-93152380D01*
X61209523Y-94247619D02*
X61971428Y-94247619D01*
X62400000Y-93152380D02*
X62590476Y-93152380D01*
X62685714Y-93200000D01*
X62780952Y-93295238D01*
X62828571Y-93485714D01*
X62828571Y-93819047D01*
X62780952Y-94009523D01*
X62685714Y-94104761D01*
X62590476Y-94152380D01*
X62400000Y-94152380D01*
X62304761Y-94104761D01*
X62209523Y-94009523D01*
X62161904Y-93819047D01*
X62161904Y-93485714D01*
X62209523Y-93295238D01*
X62304761Y-93200000D01*
X62400000Y-93152380D01*
X63685714Y-94104761D02*
X63590476Y-94152380D01*
X63400000Y-94152380D01*
X63304761Y-94104761D01*
X63257142Y-94057142D01*
X63209523Y-93961904D01*
X63209523Y-93676190D01*
X63257142Y-93580952D01*
X63304761Y-93533333D01*
X63400000Y-93485714D01*
X63590476Y-93485714D01*
X63685714Y-93533333D01*
X63971428Y-93485714D02*
X64352380Y-93485714D01*
X64114285Y-93152380D02*
X64114285Y-94009523D01*
X64161904Y-94104761D01*
X64257142Y-94152380D01*
X64352380Y-94152380D01*
%TO.C,FREQ_POT1*%
X61364761Y-63568571D02*
X61031428Y-63568571D01*
X61031428Y-64092380D02*
X61031428Y-63092380D01*
X61507619Y-63092380D01*
X62460000Y-64092380D02*
X62126666Y-63616190D01*
X61888571Y-64092380D02*
X61888571Y-63092380D01*
X62269523Y-63092380D01*
X62364761Y-63140000D01*
X62412380Y-63187619D01*
X62460000Y-63282857D01*
X62460000Y-63425714D01*
X62412380Y-63520952D01*
X62364761Y-63568571D01*
X62269523Y-63616190D01*
X61888571Y-63616190D01*
X62888571Y-63568571D02*
X63221904Y-63568571D01*
X63364761Y-64092380D02*
X62888571Y-64092380D01*
X62888571Y-63092380D01*
X63364761Y-63092380D01*
X64460000Y-64187619D02*
X64364761Y-64140000D01*
X64269523Y-64044761D01*
X64126666Y-63901904D01*
X64031428Y-63854285D01*
X63936190Y-63854285D01*
X63983809Y-64092380D02*
X63888571Y-64044761D01*
X63793333Y-63949523D01*
X63745714Y-63759047D01*
X63745714Y-63425714D01*
X63793333Y-63235238D01*
X63888571Y-63140000D01*
X63983809Y-63092380D01*
X64174285Y-63092380D01*
X64269523Y-63140000D01*
X64364761Y-63235238D01*
X64412380Y-63425714D01*
X64412380Y-63759047D01*
X64364761Y-63949523D01*
X64269523Y-64044761D01*
X64174285Y-64092380D01*
X63983809Y-64092380D01*
X64602857Y-64187619D02*
X65364761Y-64187619D01*
X65602857Y-64092380D02*
X65602857Y-63092380D01*
X65983809Y-63092380D01*
X66079047Y-63140000D01*
X66126666Y-63187619D01*
X66174285Y-63282857D01*
X66174285Y-63425714D01*
X66126666Y-63520952D01*
X66079047Y-63568571D01*
X65983809Y-63616190D01*
X65602857Y-63616190D01*
X66793333Y-63092380D02*
X66983809Y-63092380D01*
X67079047Y-63140000D01*
X67174285Y-63235238D01*
X67221904Y-63425714D01*
X67221904Y-63759047D01*
X67174285Y-63949523D01*
X67079047Y-64044761D01*
X66983809Y-64092380D01*
X66793333Y-64092380D01*
X66698095Y-64044761D01*
X66602857Y-63949523D01*
X66555238Y-63759047D01*
X66555238Y-63425714D01*
X66602857Y-63235238D01*
X66698095Y-63140000D01*
X66793333Y-63092380D01*
X67507619Y-63092380D02*
X68079047Y-63092380D01*
X67793333Y-64092380D02*
X67793333Y-63092380D01*
X68936190Y-64092380D02*
X68364761Y-64092380D01*
X68650476Y-64092380D02*
X68650476Y-63092380D01*
X68555238Y-63235238D01*
X68460000Y-63330476D01*
X68364761Y-63378095D01*
%TO.C,J11*%
X58495000Y-142505000D02*
X58495000Y-138695000D01*
X56590000Y-136155000D02*
X56590000Y-138695000D01*
X66400000Y-136100000D02*
X66400000Y-145100000D01*
X66400000Y-145100000D02*
X55900000Y-145100000D01*
X56590000Y-138695000D02*
X55955000Y-138695000D01*
X56590000Y-142505000D02*
X56590000Y-145045000D01*
X55900000Y-136100000D02*
X55900000Y-145100000D01*
X55955000Y-142505000D02*
X56590000Y-142505000D01*
X66400000Y-136100000D02*
X55900000Y-136100000D01*
X62305000Y-138695000D02*
X62305000Y-142505000D01*
X55955000Y-138695000D02*
X55955000Y-142505000D01*
X58495000Y-142505000D02*
G75*
G03*
X62305000Y-142505000I1905000J1905000D01*
G01*
X62305000Y-138695000D02*
G75*
G03*
X58495000Y-138695000I-1905000J-1904999D01*
G01*
X62196051Y-140600000D02*
G75*
G03*
X62196051Y-140600000I-1796051J0D01*
G01*
D12*
%TO.C,Q_CTRL1*%
X75039000Y-83160000D02*
X76675000Y-83160000D01*
X80825000Y-83160000D02*
X81675000Y-83160000D01*
X78325000Y-83160000D02*
X79175000Y-83160000D01*
X84960000Y-74905000D02*
X84960000Y-71040000D01*
X75039000Y-83160000D02*
X75039000Y-79294000D01*
X75039000Y-71040000D02*
X84960000Y-71040000D01*
X84960000Y-83160000D02*
X84960000Y-79294000D01*
X83325000Y-83160000D02*
X84960000Y-83160000D01*
X75039000Y-74905000D02*
X75039000Y-71040000D01*
X77702000Y-78528000D02*
G75*
G03*
X82297753Y-78528295I2298000J1928000D01*
G01*
X82762000Y-75427000D02*
G75*
G03*
X77237568Y-75428018I-2762000J-1173000D01*
G01*
D10*
%TO.C,J6*%
X81905000Y-138695000D02*
X81905000Y-142505000D01*
X86000000Y-136100000D02*
X75500000Y-136100000D01*
X78095000Y-142505000D02*
X78095000Y-138695000D01*
X76190000Y-136155000D02*
X76190000Y-138695000D01*
X76190000Y-142505000D02*
X76190000Y-145045000D01*
X86000000Y-136100000D02*
X86000000Y-145100000D01*
X75555000Y-138695000D02*
X75555000Y-142505000D01*
X75555000Y-142505000D02*
X76190000Y-142505000D01*
X76190000Y-138695000D02*
X75555000Y-138695000D01*
X75500000Y-136100000D02*
X75500000Y-145100000D01*
X86000000Y-145100000D02*
X75500000Y-145100000D01*
X78095000Y-142505000D02*
G75*
G03*
X81905000Y-142505000I1905000J1905000D01*
G01*
X81905000Y-138695000D02*
G75*
G03*
X78095000Y-138695000I-1905000J-1904999D01*
G01*
X81796051Y-140600000D02*
G75*
G03*
X81796051Y-140600000I-1796051J0D01*
G01*
D12*
%TO.C,J4*%
X71850000Y-95580000D02*
X71850000Y-112220000D01*
X88200000Y-95580000D02*
X88200000Y-112220000D01*
X88200000Y-95580000D02*
X71850000Y-95580000D01*
X71600000Y-99750000D02*
X72100000Y-99250000D01*
X88200000Y-112220000D02*
X71850000Y-112220000D01*
X72100000Y-99250000D02*
X71600000Y-98750000D01*
X71600000Y-98750000D02*
X71600000Y-99750000D01*
%TO.C,J5*%
X72100000Y-119450000D02*
X71600000Y-118950000D01*
X88200000Y-115780000D02*
X88200000Y-132420000D01*
X88200000Y-115780000D02*
X71850000Y-115780000D01*
X88200000Y-132420000D02*
X71850000Y-132420000D01*
X71850000Y-115780000D02*
X71850000Y-132420000D01*
X71600000Y-118950000D02*
X71600000Y-119950000D01*
X71600000Y-119950000D02*
X72100000Y-119450000D01*
%TO.C,J8*%
X52250000Y-115780000D02*
X52250000Y-132420000D01*
X52500000Y-119450000D02*
X52000000Y-118950000D01*
X52000000Y-118950000D02*
X52000000Y-119950000D01*
X68600000Y-115780000D02*
X52250000Y-115780000D01*
X52000000Y-119950000D02*
X52500000Y-119450000D01*
X68600000Y-115780000D02*
X68600000Y-132420000D01*
X68600000Y-132420000D02*
X52250000Y-132420000D01*
%TO.C,J7*%
X68600000Y-112220000D02*
X52250000Y-112220000D01*
X68600000Y-95580000D02*
X68600000Y-112220000D01*
X52000000Y-98750000D02*
X52000000Y-99750000D01*
X52250000Y-95580000D02*
X52250000Y-112220000D01*
X52500000Y-99250000D02*
X52000000Y-98750000D01*
X52000000Y-99750000D02*
X52500000Y-99250000D01*
X68600000Y-95580000D02*
X52250000Y-95580000D01*
%TO.C,FREQ_POT1*%
X60039000Y-60160000D02*
X61675000Y-60160000D01*
X60039000Y-48040000D02*
X69960000Y-48040000D01*
X60039000Y-60160000D02*
X60039000Y-56294000D01*
X68325000Y-60160000D02*
X69960000Y-60160000D01*
X65825000Y-60160000D02*
X66675000Y-60160000D01*
X63325000Y-60160000D02*
X64175000Y-60160000D01*
X69960000Y-51905000D02*
X69960000Y-48040000D01*
X69960000Y-60160000D02*
X69960000Y-56294000D01*
X60039000Y-51905000D02*
X60039000Y-48040000D01*
X67762000Y-52427000D02*
G75*
G03*
X62237568Y-52428018I-2762000J-1173000D01*
G01*
X62702000Y-55528000D02*
G75*
G03*
X67297753Y-55528295I2298000J1928000D01*
G01*
%TD*%
D13*
%TO.C,J11*%
X53920000Y-140600000D03*
X57020000Y-140600000D03*
X65320000Y-140600000D03*
%TD*%
%TO.C,J6*%
X73520000Y-140600000D03*
X76620000Y-140600000D03*
X84920000Y-140600000D03*
%TD*%
D14*
%TO.C,J4*%
X85760000Y-105600000D03*
X74330000Y-105600000D03*
%TD*%
%TO.C,J5*%
X74330000Y-125800000D03*
X85760000Y-125800000D03*
%TD*%
%TO.C,J8*%
X66160000Y-125800000D03*
X54730000Y-125800000D03*
%TD*%
%TO.C,J7*%
X54730000Y-105600000D03*
X66160000Y-105600000D03*
%TD*%
M02*
