%TF.GenerationSoftware,KiCad,Pcbnew,(6.0.11)*%
%TF.CreationDate,2023-07-06T17:32:08+01:00*%
%TF.ProjectId,Quilter_Controls,5175696c-7465-4725-9f43-6f6e74726f6c,rev?*%
%TF.SameCoordinates,Original*%
%TF.FileFunction,Copper,L1,Top*%
%TF.FilePolarity,Positive*%
%FSLAX46Y46*%
G04 Gerber Fmt 4.6, Leading zero omitted, Abs format (unit mm)*
G04 Created by KiCad (PCBNEW (6.0.11)) date 2023-07-06 17:32:08*
%MOMM*%
%LPD*%
G01*
G04 APERTURE LIST*
%TA.AperFunction,ComponentPad*%
%ADD10C,2.000000*%
%TD*%
%TA.AperFunction,ComponentPad*%
%ADD11R,1.000000X2.500000*%
%TD*%
%TA.AperFunction,WasherPad*%
%ADD12C,4.000000*%
%TD*%
%TA.AperFunction,ComponentPad*%
%ADD13C,1.800000*%
%TD*%
%TA.AperFunction,WasherPad*%
%ADD14C,3.650000*%
%TD*%
%TA.AperFunction,ComponentPad*%
%ADD15R,1.500000X1.500000*%
%TD*%
%TA.AperFunction,ComponentPad*%
%ADD16C,1.500000*%
%TD*%
%TA.AperFunction,ComponentPad*%
%ADD17R,1.700000X1.700000*%
%TD*%
%TA.AperFunction,ComponentPad*%
%ADD18O,1.700000X1.700000*%
%TD*%
%TA.AperFunction,ViaPad*%
%ADD19C,0.800000*%
%TD*%
%TA.AperFunction,Conductor*%
%ADD20C,0.250000*%
%TD*%
G04 APERTURE END LIST*
D10*
%TO.P,TP3,1,1*%
%TO.N,GND*%
X70200000Y-42970000D03*
%TD*%
D11*
%TO.P,J11,1*%
%TO.N,GND*%
X53920000Y-140600000D03*
%TO.P,J11,2*%
X57020000Y-140600000D03*
%TO.P,J11,3*%
%TO.N,/FREQ_JACK*%
X65320000Y-140600000D03*
%TD*%
D12*
%TO.P,Q_CTRL1,*%
%TO.N,*%
X84400000Y-77100000D03*
X75600000Y-77100000D03*
D13*
%TO.P,Q_CTRL1,1,1*%
%TO.N,+12V*%
X82500000Y-84100000D03*
%TO.P,Q_CTRL1,2,2*%
%TO.N,/Q_POT*%
X80000000Y-84100000D03*
%TO.P,Q_CTRL1,3,3*%
%TO.N,GND*%
X77500000Y-84100000D03*
%TD*%
D10*
%TO.P,TP4,1,1*%
%TO.N,GND*%
X86900000Y-146970000D03*
%TD*%
D11*
%TO.P,J6,1*%
%TO.N,GND*%
X73520000Y-140600000D03*
%TO.P,J6,2*%
%TO.N,unconnected-(J6-Pad2)*%
X76620000Y-140600000D03*
%TO.P,J6,3*%
%TO.N,/AUDIO_MIX*%
X84920000Y-140600000D03*
%TD*%
D14*
%TO.P,J4,*%
%TO.N,*%
X85760000Y-105600000D03*
X74330000Y-105600000D03*
D15*
%TO.P,J4,1*%
%TO.N,/AUDIO_IN1*%
X75600000Y-99250000D03*
D16*
%TO.P,J4,2*%
%TO.N,/AUDIO_IN2*%
X76870000Y-96710000D03*
%TO.P,J4,3*%
%TO.N,/AUDIO_IN3*%
X78140000Y-99250000D03*
%TO.P,J4,4*%
%TO.N,/AUDIO_IN4*%
X79410000Y-96710000D03*
%TO.P,J4,5*%
%TO.N,unconnected-(J4-Pad5)*%
X80680000Y-99250000D03*
%TO.P,J4,6*%
%TO.N,unconnected-(J4-Pad6)*%
X81950000Y-96710000D03*
%TO.P,J4,7*%
%TO.N,unconnected-(J4-Pad7)*%
X83220000Y-99250000D03*
%TO.P,J4,8*%
%TO.N,unconnected-(J4-Pad8)*%
X84490000Y-96710000D03*
%TD*%
D10*
%TO.P,TP1,1,1*%
%TO.N,+12V*%
X53700000Y-55470000D03*
%TD*%
D14*
%TO.P,J5,*%
%TO.N,*%
X74330000Y-125800000D03*
X85760000Y-125800000D03*
D15*
%TO.P,J5,1*%
%TO.N,/AUDIO_BUFF1*%
X75600000Y-119450000D03*
D16*
%TO.P,J5,2*%
%TO.N,/AUDIO_BUFF2*%
X76870000Y-116910000D03*
%TO.P,J5,3*%
%TO.N,/AUDIO_BUFF3*%
X78140000Y-119450000D03*
%TO.P,J5,4*%
%TO.N,/AUDIO_BUFF4*%
X79410000Y-116910000D03*
%TO.P,J5,5*%
%TO.N,unconnected-(J5-Pad5)*%
X80680000Y-119450000D03*
%TO.P,J5,6*%
%TO.N,unconnected-(J5-Pad6)*%
X81950000Y-116910000D03*
%TO.P,J5,7*%
%TO.N,unconnected-(J5-Pad7)*%
X83220000Y-119450000D03*
%TO.P,J5,8*%
%TO.N,unconnected-(J5-Pad8)*%
X84490000Y-116910000D03*
%TD*%
D14*
%TO.P,J8,*%
%TO.N,*%
X66160000Y-125800000D03*
X54730000Y-125800000D03*
D15*
%TO.P,J8,1*%
%TO.N,/FREQ_CV_DAMP1*%
X56000000Y-119450000D03*
D16*
%TO.P,J8,2*%
%TO.N,/FREQ_CV_DAMP2*%
X57270000Y-116910000D03*
%TO.P,J8,3*%
%TO.N,/FREQ_CV_DAMP3*%
X58540000Y-119450000D03*
%TO.P,J8,4*%
%TO.N,/FREQ_CV_DAMP4*%
X59810000Y-116910000D03*
%TO.P,J8,5*%
%TO.N,unconnected-(J8-Pad5)*%
X61080000Y-119450000D03*
%TO.P,J8,6*%
%TO.N,unconnected-(J8-Pad6)*%
X62350000Y-116910000D03*
%TO.P,J8,7*%
%TO.N,unconnected-(J8-Pad7)*%
X63620000Y-119450000D03*
%TO.P,J8,8*%
%TO.N,unconnected-(J8-Pad8)*%
X64890000Y-116910000D03*
%TD*%
D14*
%TO.P,J7,*%
%TO.N,*%
X54730000Y-105600000D03*
X66160000Y-105600000D03*
D15*
%TO.P,J7,1*%
%TO.N,/FREQ_V_OCT1*%
X56000000Y-99250000D03*
D16*
%TO.P,J7,2*%
%TO.N,/FREQ_V_OCT2*%
X57270000Y-96710000D03*
%TO.P,J7,3*%
%TO.N,/FREQ_V_OCT3*%
X58540000Y-99250000D03*
%TO.P,J7,4*%
%TO.N,/FREQ_V_OCT4*%
X59810000Y-96710000D03*
%TO.P,J7,5*%
%TO.N,unconnected-(J7-Pad5)*%
X61080000Y-99250000D03*
%TO.P,J7,6*%
%TO.N,unconnected-(J7-Pad6)*%
X62350000Y-96710000D03*
%TO.P,J7,7*%
%TO.N,unconnected-(J7-Pad7)*%
X63620000Y-99250000D03*
%TO.P,J7,8*%
%TO.N,unconnected-(J7-Pad8)*%
X64890000Y-96710000D03*
%TD*%
D12*
%TO.P,FREQ_POT1,*%
%TO.N,*%
X69400000Y-54100000D03*
X60600000Y-54100000D03*
D13*
%TO.P,FREQ_POT1,1,1*%
%TO.N,/FREQ_POT_5V*%
X67500000Y-61100000D03*
%TO.P,FREQ_POT1,2,2*%
%TO.N,/FREQ_POT*%
X65000000Y-61100000D03*
%TO.P,FREQ_POT1,3,3*%
%TO.N,/FREQ_POT_-5V*%
X62500000Y-61100000D03*
%TD*%
D17*
%TO.P,J3,1,Pin_1*%
%TO.N,/AUDIO_IN3*%
X58800000Y-147900000D03*
D18*
%TO.P,J3,2,Pin_2*%
%TO.N,/FREQ_V_OCT4*%
X61340000Y-147900000D03*
%TO.P,J3,3,Pin_3*%
%TO.N,/FREQ_CV_DAMP4*%
X63880000Y-147900000D03*
%TO.P,J3,4,Pin_4*%
%TO.N,GND*%
X66420000Y-147900000D03*
%TO.P,J3,5,Pin_5*%
%TO.N,/AUDIO_IN4*%
X68960000Y-147900000D03*
%TO.P,J3,6,Pin_6*%
%TO.N,GND*%
X71500000Y-147900000D03*
%TO.P,J3,7,Pin_7*%
%TO.N,/FREQ_CV_DAMP1*%
X74040000Y-147900000D03*
%TO.P,J3,8,Pin_8*%
%TO.N,/FREQ_JACK*%
X76580000Y-147900000D03*
%TO.P,J3,9,Pin_9*%
%TO.N,/FREQ_CV_DAMP3*%
X79120000Y-147900000D03*
%TO.P,J3,10,Pin_10*%
%TO.N,/FREQ_V_OCT3*%
X81660000Y-147900000D03*
%TD*%
D17*
%TO.P,J1,1,Pin_1*%
%TO.N,/FREQ_POT_-5V*%
X87900000Y-62800000D03*
D18*
%TO.P,J1,2,Pin_2*%
%TO.N,/AUDIO_BUFF2*%
X87900000Y-65340000D03*
%TO.P,J1,3,Pin_3*%
%TO.N,/AUDIO_BUFF4*%
X87900000Y-67880000D03*
%TO.P,J1,4,Pin_4*%
%TO.N,/FREQ_POT_5V*%
X87900000Y-70420000D03*
%TO.P,J1,5,Pin_5*%
%TO.N,/FREQ_POT*%
X87900000Y-72960000D03*
%TO.P,J1,6,Pin_6*%
%TO.N,GND*%
X87900000Y-75500000D03*
%TO.P,J1,7,Pin_7*%
%TO.N,/FREQ_V_OCT1*%
X87900000Y-78040000D03*
%TO.P,J1,8,Pin_8*%
%TO.N,/Q_POT*%
X87900000Y-80580000D03*
%TO.P,J1,9,Pin_9*%
%TO.N,/AUDIO_MIX*%
X87900000Y-83120000D03*
%TO.P,J1,10,Pin_10*%
%TO.N,/AUDIO_IN2*%
X87900000Y-85660000D03*
%TD*%
D17*
%TO.P,J2,1,Pin_1*%
%TO.N,+12V*%
X52400000Y-62800000D03*
D18*
%TO.P,J2,2,Pin_2*%
%TO.N,/AUDIO_BUFF1*%
X52400000Y-65340000D03*
%TO.P,J2,3,Pin_3*%
%TO.N,/AUDIO_BUFF3*%
X52400000Y-67880000D03*
%TO.P,J2,4,Pin_4*%
%TO.N,GND*%
X52400000Y-70420000D03*
%TO.P,J2,5,Pin_5*%
X52400000Y-72960000D03*
%TO.P,J2,6,Pin_6*%
X52400000Y-75500000D03*
%TO.P,J2,7,Pin_7*%
X52400000Y-78040000D03*
%TO.P,J2,8,Pin_8*%
%TO.N,/AUDIO_IN1*%
X52400000Y-80580000D03*
%TO.P,J2,9,Pin_9*%
%TO.N,/FREQ_CV_DAMP2*%
X52400000Y-83120000D03*
%TO.P,J2,10,Pin_10*%
%TO.N,/FREQ_V_OCT2*%
X52400000Y-85660000D03*
%TD*%
D17*
%TO.P,J9,1,Pin_1*%
%TO.N,/FREQ_V_OCT1*%
X60600000Y-46375000D03*
D18*
%TO.P,J9,2,Pin_2*%
%TO.N,/AUDIO_IN1*%
X60600000Y-43835000D03*
%TO.P,J9,3,Pin_3*%
%TO.N,/FREQ_V_OCT2*%
X58060000Y-46375000D03*
%TO.P,J9,4,Pin_4*%
%TO.N,/AUDIO_IN2*%
X58060000Y-43835000D03*
%TO.P,J9,5,Pin_5*%
%TO.N,/FREQ_V_OCT3*%
X55520000Y-46375000D03*
%TO.P,J9,6,Pin_6*%
%TO.N,/AUDIO_IN3*%
X55520000Y-43835000D03*
%TO.P,J9,7,Pin_7*%
%TO.N,/FREQ_V_OCT4*%
X52980000Y-46375000D03*
%TO.P,J9,8,Pin_8*%
%TO.N,/AUDIO_IN4*%
X52980000Y-43835000D03*
%TD*%
D17*
%TO.P,J10,1,Pin_1*%
%TO.N,/AUDIO_BUFF1*%
X87800000Y-43700000D03*
D18*
%TO.P,J10,2,Pin_2*%
%TO.N,/AUDIO_BUFF2*%
X85260000Y-43700000D03*
%TO.P,J10,3,Pin_3*%
%TO.N,/AUDIO_BUFF3*%
X82720000Y-43700000D03*
%TO.P,J10,4,Pin_4*%
%TO.N,/AUDIO_BUFF4*%
X80180000Y-43700000D03*
%TD*%
D19*
%TO.N,GND*%
X85200000Y-137400000D03*
X51100000Y-138900000D03*
X74600000Y-134200000D03*
X83300000Y-50100000D03*
X82900000Y-66500000D03*
X54400000Y-67900000D03*
X64600000Y-136600000D03*
X53100000Y-148000000D03*
X78200000Y-53400000D03*
X65700000Y-114200000D03*
X62800000Y-102100000D03*
X73800000Y-114800000D03*
X80800000Y-89000000D03*
X80700000Y-108800000D03*
X88700000Y-120100000D03*
X58900000Y-107600000D03*
X74400000Y-122300000D03*
X67500000Y-93100000D03*
X62900000Y-127700000D03*
X68300000Y-133200000D03*
X51100000Y-125400000D03*
X79900000Y-122300000D03*
X57300000Y-121600000D03*
X80200000Y-144300000D03*
X67400000Y-72500000D03*
X67400000Y-64700000D03*
X54400000Y-114000000D03*
X86800000Y-116800000D03*
X67400000Y-79100000D03*
X82900000Y-69100000D03*
X76700000Y-114600000D03*
X87100000Y-108800000D03*
%TO.N,/AUDIO_BUFF1*%
X80200000Y-49400000D03*
%TO.N,/FREQ_CV_DAMP4*%
X59810000Y-132890000D03*
%TO.N,+12V*%
X54400000Y-62700000D03*
%TD*%
D20*
%TO.N,/FREQ_V_OCT3*%
X57290000Y-100500000D02*
X58540000Y-99250000D01*
X52800000Y-100500000D02*
X57290000Y-100500000D01*
X51100000Y-98800000D02*
X52800000Y-100500000D01*
X51100000Y-85000000D02*
X51100000Y-98800000D01*
X51700000Y-84400000D02*
X51100000Y-85000000D01*
X56500000Y-82400000D02*
X54500000Y-84400000D01*
X55520000Y-46375000D02*
X56500000Y-47355000D01*
X56500000Y-47355000D02*
X56500000Y-82400000D01*
X54500000Y-84400000D02*
X51700000Y-84400000D01*
%TO.N,/FREQ_V_OCT1*%
X56950000Y-99250000D02*
X56000000Y-99250000D01*
X63300000Y-56200000D02*
X58500000Y-61000000D01*
X63300000Y-53000000D02*
X63300000Y-56200000D01*
X60600000Y-46375000D02*
X60600000Y-50300000D01*
X60600000Y-50300000D02*
X63300000Y-53000000D01*
X58500000Y-97700000D02*
X56950000Y-99250000D01*
X58500000Y-61000000D02*
X58500000Y-97700000D01*
%TO.N,/AUDIO_BUFF1*%
X80200000Y-78000000D02*
X80200000Y-49400000D01*
X78500000Y-47700000D02*
X78500000Y-43100000D01*
X75600000Y-119450000D02*
X75600000Y-110700000D01*
X85850499Y-83650499D02*
X80200000Y-78000000D01*
X85850499Y-100449501D02*
X85850499Y-83650499D01*
X86200000Y-42100000D02*
X87800000Y-43700000D01*
X79500000Y-42100000D02*
X86200000Y-42100000D01*
X75600000Y-110700000D02*
X85850499Y-100449501D01*
X78500000Y-43100000D02*
X79500000Y-42100000D01*
X80200000Y-49400000D02*
X78500000Y-47700000D01*
%TO.N,/AUDIO_BUFF4*%
X81520000Y-67880000D02*
X81400000Y-68000000D01*
X79410000Y-108190000D02*
X86600000Y-101000000D01*
X86600000Y-101000000D02*
X86600000Y-82900000D01*
X87900000Y-67880000D02*
X81520000Y-67880000D01*
X86600000Y-82900000D02*
X81400000Y-77700000D01*
X81400000Y-68000000D02*
X81400000Y-44920000D01*
X79410000Y-116910000D02*
X79410000Y-108190000D01*
X81400000Y-44920000D02*
X80180000Y-43700000D01*
X81400000Y-77700000D02*
X81400000Y-68000000D01*
%TO.N,/AUDIO_MIX*%
X83300000Y-138980000D02*
X84920000Y-140600000D01*
X83300000Y-122300000D02*
X83300000Y-138980000D01*
X87900000Y-83120000D02*
X89400000Y-84620000D01*
X89400000Y-84620000D02*
X89400000Y-116200000D01*
X89400000Y-116200000D02*
X83300000Y-122300000D01*
%TO.N,/AUDIO_IN1*%
X59335000Y-45100000D02*
X60600000Y-43835000D01*
X52400000Y-80580000D02*
X54120000Y-80580000D01*
X54120000Y-80580000D02*
X55500000Y-79200000D01*
X69900000Y-93400000D02*
X69900000Y-60700000D01*
X69900000Y-60700000D02*
X64800000Y-55600000D01*
X55500000Y-79200000D02*
X55500000Y-54100000D01*
X62035000Y-43835000D02*
X60600000Y-43835000D01*
X54200000Y-52800000D02*
X54200000Y-45500000D01*
X64800000Y-46600000D02*
X62035000Y-43835000D01*
X54200000Y-45500000D02*
X54600000Y-45100000D01*
X64800000Y-55600000D02*
X64800000Y-46600000D01*
X55500000Y-54100000D02*
X54200000Y-52800000D01*
X75600000Y-99250000D02*
X75600000Y-99100000D01*
X54600000Y-45100000D02*
X59335000Y-45100000D01*
X75600000Y-99100000D02*
X69900000Y-93400000D01*
%TO.N,/AUDIO_BUFF2*%
X87900000Y-65340000D02*
X86240000Y-65340000D01*
X86240000Y-65340000D02*
X85260000Y-64360000D01*
X85260000Y-64360000D02*
X85260000Y-43700000D01*
%TO.N,/FREQ_V_OCT2*%
X54940000Y-85660000D02*
X52400000Y-85660000D01*
X52400000Y-88840000D02*
X57270000Y-93710000D01*
X58060000Y-46375000D02*
X57500000Y-46935000D01*
X57500000Y-83100000D02*
X54940000Y-85660000D01*
X57270000Y-93710000D02*
X57270000Y-96710000D01*
X52400000Y-85660000D02*
X52400000Y-88840000D01*
X57500000Y-46935000D02*
X57500000Y-83100000D01*
%TO.N,/FREQ_V_OCT4*%
X52000000Y-101100000D02*
X52000000Y-144800000D01*
X52980000Y-46375000D02*
X52980000Y-52820000D01*
X59440000Y-149800000D02*
X61340000Y-147900000D01*
X50500000Y-99600000D02*
X52000000Y-101100000D01*
X59100000Y-101100000D02*
X59810000Y-100390000D01*
X52000000Y-144800000D02*
X57000000Y-149800000D01*
X52000000Y-101100000D02*
X59100000Y-101100000D01*
X59810000Y-100390000D02*
X59810000Y-96710000D01*
X50500000Y-55300000D02*
X50500000Y-99600000D01*
X57000000Y-149800000D02*
X59440000Y-149800000D01*
X52980000Y-52820000D02*
X50500000Y-55300000D01*
%TO.N,/FREQ_CV_DAMP4*%
X59810000Y-116910000D02*
X59810000Y-132890000D01*
%TO.N,/AUDIO_IN4*%
X55115000Y-41700000D02*
X52980000Y-43835000D01*
X84000000Y-83200000D02*
X79100000Y-78300000D01*
X79100000Y-78300000D02*
X79100000Y-58000000D01*
X79410000Y-105490000D02*
X70300000Y-114600000D01*
X70300000Y-114600000D02*
X70300000Y-146560000D01*
X84000000Y-92120000D02*
X84000000Y-83200000D01*
X79410000Y-96710000D02*
X84000000Y-92120000D01*
X62800000Y-41700000D02*
X55115000Y-41700000D01*
X79100000Y-58000000D02*
X62800000Y-41700000D01*
X79410000Y-96710000D02*
X79410000Y-105490000D01*
X70300000Y-146560000D02*
X68960000Y-147900000D01*
%TO.N,/AUDIO_IN3*%
X76400000Y-98000000D02*
X76890000Y-98000000D01*
X65800000Y-55300000D02*
X71000000Y-60500000D01*
X62100000Y-42400000D02*
X65800000Y-46100000D01*
X76890000Y-98000000D02*
X78140000Y-99250000D01*
X58700000Y-139000000D02*
X58700000Y-147800000D01*
X78140000Y-105360000D02*
X68900000Y-114600000D01*
X65800000Y-46100000D02*
X65800000Y-55300000D01*
X68900000Y-114600000D02*
X68900000Y-128800000D01*
X78140000Y-99250000D02*
X78140000Y-105360000D01*
X68900000Y-128800000D02*
X58700000Y-139000000D01*
X71000000Y-60500000D02*
X71000000Y-92600000D01*
X71000000Y-92600000D02*
X76400000Y-98000000D01*
X55520000Y-43835000D02*
X55520000Y-43780000D01*
X58700000Y-147800000D02*
X58800000Y-147900000D01*
X55520000Y-43780000D02*
X56900000Y-42400000D01*
X56900000Y-42400000D02*
X62100000Y-42400000D01*
%TO.N,+12V*%
X54300000Y-62800000D02*
X54400000Y-62700000D01*
X52400000Y-62800000D02*
X54300000Y-62800000D01*
X53700000Y-55470000D02*
X52400000Y-56770000D01*
X52400000Y-56770000D02*
X52400000Y-62800000D01*
%TD*%
%TA.AperFunction,Conductor*%
%TO.N,GND*%
G36*
X50717012Y-100713370D02*
G01*
X50723595Y-100719499D01*
X51329595Y-101325499D01*
X51363621Y-101387811D01*
X51366500Y-101414594D01*
X51366500Y-144721233D01*
X51365973Y-144732416D01*
X51364298Y-144739909D01*
X51364547Y-144747835D01*
X51364547Y-144747836D01*
X51366438Y-144807986D01*
X51366500Y-144811945D01*
X51366500Y-144839856D01*
X51366997Y-144843790D01*
X51366997Y-144843791D01*
X51367005Y-144843856D01*
X51367938Y-144855693D01*
X51369327Y-144899889D01*
X51374978Y-144919339D01*
X51378987Y-144938700D01*
X51381526Y-144958797D01*
X51384445Y-144966168D01*
X51384445Y-144966170D01*
X51397804Y-144999912D01*
X51401649Y-145011142D01*
X51413982Y-145053593D01*
X51418015Y-145060412D01*
X51418017Y-145060417D01*
X51424293Y-145071028D01*
X51432988Y-145088776D01*
X51440448Y-145107617D01*
X51445110Y-145114033D01*
X51445110Y-145114034D01*
X51466436Y-145143387D01*
X51472952Y-145153307D01*
X51495458Y-145191362D01*
X51509779Y-145205683D01*
X51522619Y-145220716D01*
X51534528Y-145237107D01*
X51540634Y-145242158D01*
X51568605Y-145265298D01*
X51577384Y-145273288D01*
X56480500Y-150176405D01*
X56514526Y-150238717D01*
X56509461Y-150309532D01*
X56466914Y-150366368D01*
X56400394Y-150391179D01*
X56391405Y-150391500D01*
X50634500Y-150391500D01*
X50566379Y-150371498D01*
X50519886Y-150317842D01*
X50508500Y-150265500D01*
X50508500Y-100808594D01*
X50528502Y-100740473D01*
X50582158Y-100693980D01*
X50652432Y-100683876D01*
X50717012Y-100713370D01*
G37*
%TD.AperFunction*%
%TA.AperFunction,Conductor*%
G36*
X74884532Y-111015538D02*
G01*
X74941368Y-111058085D01*
X74966179Y-111124605D01*
X74966500Y-111133594D01*
X74966500Y-118065500D01*
X74946498Y-118133621D01*
X74892842Y-118180114D01*
X74840500Y-118191500D01*
X74801866Y-118191500D01*
X74739684Y-118198255D01*
X74603295Y-118249385D01*
X74486739Y-118336739D01*
X74399385Y-118453295D01*
X74348255Y-118589684D01*
X74341500Y-118651866D01*
X74341500Y-120248134D01*
X74348255Y-120310316D01*
X74399385Y-120446705D01*
X74486739Y-120563261D01*
X74603295Y-120650615D01*
X74739684Y-120701745D01*
X74801866Y-120708500D01*
X76398134Y-120708500D01*
X76460316Y-120701745D01*
X76596705Y-120650615D01*
X76713261Y-120563261D01*
X76800615Y-120446705D01*
X76851745Y-120310316D01*
X76858500Y-120248134D01*
X76858500Y-120213576D01*
X76878502Y-120145455D01*
X76932158Y-120098962D01*
X77002432Y-120088858D01*
X77067012Y-120118352D01*
X77087713Y-120141305D01*
X77160123Y-120244717D01*
X77172251Y-120262038D01*
X77327962Y-120417749D01*
X77508346Y-120544056D01*
X77707924Y-120637120D01*
X77920629Y-120694115D01*
X78140000Y-120713307D01*
X78359371Y-120694115D01*
X78572076Y-120637120D01*
X78771654Y-120544056D01*
X78952038Y-120417749D01*
X79107749Y-120262038D01*
X79119878Y-120244717D01*
X79230899Y-120086162D01*
X79230900Y-120086160D01*
X79234056Y-120081653D01*
X79236379Y-120076671D01*
X79236382Y-120076666D01*
X79295805Y-119949231D01*
X79342722Y-119895946D01*
X79410999Y-119876485D01*
X79478959Y-119897027D01*
X79524195Y-119949231D01*
X79583618Y-120076666D01*
X79583621Y-120076671D01*
X79585944Y-120081653D01*
X79589100Y-120086160D01*
X79589101Y-120086162D01*
X79700123Y-120244717D01*
X79712251Y-120262038D01*
X79867962Y-120417749D01*
X80048346Y-120544056D01*
X80247924Y-120637120D01*
X80460629Y-120694115D01*
X80680000Y-120713307D01*
X80899371Y-120694115D01*
X81112076Y-120637120D01*
X81311654Y-120544056D01*
X81492038Y-120417749D01*
X81647749Y-120262038D01*
X81659878Y-120244717D01*
X81770899Y-120086162D01*
X81770900Y-120086160D01*
X81774056Y-120081653D01*
X81776379Y-120076671D01*
X81776382Y-120076666D01*
X81835805Y-119949231D01*
X81882722Y-119895946D01*
X81950999Y-119876485D01*
X82018959Y-119897027D01*
X82064195Y-119949231D01*
X82123618Y-120076666D01*
X82123621Y-120076671D01*
X82125944Y-120081653D01*
X82129100Y-120086160D01*
X82129101Y-120086162D01*
X82240123Y-120244717D01*
X82252251Y-120262038D01*
X82407962Y-120417749D01*
X82588346Y-120544056D01*
X82787924Y-120637120D01*
X83000629Y-120694115D01*
X83220000Y-120713307D01*
X83439371Y-120694115D01*
X83652076Y-120637120D01*
X83781858Y-120576602D01*
X83852050Y-120565941D01*
X83916863Y-120594921D01*
X83955719Y-120654341D01*
X83956282Y-120725335D01*
X83924203Y-120779892D01*
X82907747Y-121796348D01*
X82899461Y-121803888D01*
X82892982Y-121808000D01*
X82887557Y-121813777D01*
X82846357Y-121857651D01*
X82843602Y-121860493D01*
X82823865Y-121880230D01*
X82821385Y-121883427D01*
X82813682Y-121892447D01*
X82783414Y-121924679D01*
X82779595Y-121931625D01*
X82779593Y-121931628D01*
X82773652Y-121942434D01*
X82762801Y-121958953D01*
X82750386Y-121974959D01*
X82747241Y-121982228D01*
X82747238Y-121982232D01*
X82732826Y-122015537D01*
X82727609Y-122026187D01*
X82706305Y-122064940D01*
X82704334Y-122072615D01*
X82704334Y-122072616D01*
X82701267Y-122084562D01*
X82694863Y-122103266D01*
X82686819Y-122121855D01*
X82685580Y-122129678D01*
X82685577Y-122129688D01*
X82679901Y-122165524D01*
X82677495Y-122177144D01*
X82666500Y-122219970D01*
X82666500Y-122240224D01*
X82664949Y-122259934D01*
X82661780Y-122279943D01*
X82662526Y-122287835D01*
X82665941Y-122323961D01*
X82666500Y-122335819D01*
X82666500Y-138901233D01*
X82665973Y-138912416D01*
X82664298Y-138919909D01*
X82664547Y-138927835D01*
X82664547Y-138927836D01*
X82666438Y-138987986D01*
X82666500Y-138991945D01*
X82666500Y-139019856D01*
X82666997Y-139023790D01*
X82666997Y-139023791D01*
X82667005Y-139023856D01*
X82667938Y-139035693D01*
X82669327Y-139079889D01*
X82674110Y-139096351D01*
X82674978Y-139099339D01*
X82678987Y-139118700D01*
X82681526Y-139138797D01*
X82684445Y-139146168D01*
X82684445Y-139146170D01*
X82697804Y-139179912D01*
X82701649Y-139191142D01*
X82713982Y-139233593D01*
X82718015Y-139240412D01*
X82718017Y-139240417D01*
X82724293Y-139251028D01*
X82732988Y-139268776D01*
X82740448Y-139287617D01*
X82745110Y-139294033D01*
X82745110Y-139294034D01*
X82766436Y-139323387D01*
X82772952Y-139333307D01*
X82795458Y-139371362D01*
X82809779Y-139385683D01*
X82822619Y-139400716D01*
X82834528Y-139417107D01*
X82840634Y-139422158D01*
X82868605Y-139445298D01*
X82877384Y-139453288D01*
X83874595Y-140450500D01*
X83908621Y-140512812D01*
X83911500Y-140539595D01*
X83911500Y-141898134D01*
X83918255Y-141960316D01*
X83969385Y-142096705D01*
X84056739Y-142213261D01*
X84173295Y-142300615D01*
X84309684Y-142351745D01*
X84371866Y-142358500D01*
X85468134Y-142358500D01*
X85530316Y-142351745D01*
X85666705Y-142300615D01*
X85783261Y-142213261D01*
X85870615Y-142096705D01*
X85921745Y-141960316D01*
X85928500Y-141898134D01*
X85928500Y-139301866D01*
X85921745Y-139239684D01*
X85870615Y-139103295D01*
X85783261Y-138986739D01*
X85666705Y-138899385D01*
X85530316Y-138848255D01*
X85468134Y-138841500D01*
X84371866Y-138841500D01*
X84309684Y-138848255D01*
X84302288Y-138851027D01*
X84302282Y-138851029D01*
X84207066Y-138886724D01*
X84136259Y-138891907D01*
X84073742Y-138857837D01*
X83970405Y-138754500D01*
X83936379Y-138692188D01*
X83933500Y-138665405D01*
X83933500Y-127580010D01*
X83953502Y-127511889D01*
X84007158Y-127465396D01*
X84077432Y-127455292D01*
X84142577Y-127485277D01*
X84223721Y-127556439D01*
X84333307Y-127652544D01*
X84333313Y-127652548D01*
X84336407Y-127655262D01*
X84339833Y-127657551D01*
X84339838Y-127657555D01*
X84587311Y-127822911D01*
X84590746Y-127825206D01*
X84594449Y-127827032D01*
X84861388Y-127958673D01*
X84861396Y-127958676D01*
X84865092Y-127960499D01*
X84869006Y-127961828D01*
X84869007Y-127961828D01*
X85150837Y-128057496D01*
X85150841Y-128057497D01*
X85154750Y-128058824D01*
X85158794Y-128059628D01*
X85158800Y-128059630D01*
X85450725Y-128117698D01*
X85450731Y-128117699D01*
X85454764Y-128118501D01*
X85458869Y-128118770D01*
X85458876Y-128118771D01*
X85755881Y-128138237D01*
X85760000Y-128138507D01*
X85764119Y-128138237D01*
X86061124Y-128118771D01*
X86061131Y-128118770D01*
X86065236Y-128118501D01*
X86069269Y-128117699D01*
X86069275Y-128117698D01*
X86361200Y-128059630D01*
X86361206Y-128059628D01*
X86365250Y-128058824D01*
X86369159Y-128057497D01*
X86369163Y-128057496D01*
X86650993Y-127961828D01*
X86650994Y-127961828D01*
X86654908Y-127960499D01*
X86658604Y-127958676D01*
X86658612Y-127958673D01*
X86925551Y-127827032D01*
X86929254Y-127825206D01*
X86932689Y-127822911D01*
X87180162Y-127657555D01*
X87180167Y-127657551D01*
X87183593Y-127655262D01*
X87186687Y-127652548D01*
X87186693Y-127652544D01*
X87410485Y-127456283D01*
X87413574Y-127453574D01*
X87567618Y-127277921D01*
X87612544Y-127226693D01*
X87612548Y-127226687D01*
X87615262Y-127223593D01*
X87785206Y-126969253D01*
X87866500Y-126804406D01*
X87918673Y-126698612D01*
X87918676Y-126698604D01*
X87920499Y-126694908D01*
X88018824Y-126405250D01*
X88078501Y-126105236D01*
X88098507Y-125800000D01*
X88078501Y-125494764D01*
X88018824Y-125194750D01*
X87920499Y-124905092D01*
X87918676Y-124901396D01*
X87918673Y-124901388D01*
X87787032Y-124634450D01*
X87785206Y-124630747D01*
X87615262Y-124376407D01*
X87612548Y-124373313D01*
X87612544Y-124373307D01*
X87416283Y-124149515D01*
X87413574Y-124146426D01*
X87347796Y-124088740D01*
X87186693Y-123947456D01*
X87186687Y-123947452D01*
X87183593Y-123944738D01*
X87180163Y-123942446D01*
X87180162Y-123942445D01*
X86932689Y-123777089D01*
X86932687Y-123777088D01*
X86929254Y-123774794D01*
X86880747Y-123750873D01*
X86658612Y-123641327D01*
X86658604Y-123641324D01*
X86654908Y-123639501D01*
X86650993Y-123638172D01*
X86369163Y-123542504D01*
X86369159Y-123542503D01*
X86365250Y-123541176D01*
X86361206Y-123540372D01*
X86361200Y-123540370D01*
X86069275Y-123482302D01*
X86069269Y-123482301D01*
X86065236Y-123481499D01*
X86061131Y-123481230D01*
X86061124Y-123481229D01*
X85764119Y-123461763D01*
X85760000Y-123461493D01*
X85755881Y-123461763D01*
X85458876Y-123481229D01*
X85458869Y-123481230D01*
X85454764Y-123481499D01*
X85450731Y-123482301D01*
X85450725Y-123482302D01*
X85158800Y-123540370D01*
X85158794Y-123540372D01*
X85154750Y-123541176D01*
X85150841Y-123542503D01*
X85150837Y-123542504D01*
X84869007Y-123638172D01*
X84865092Y-123639501D01*
X84861396Y-123641324D01*
X84861388Y-123641327D01*
X84640816Y-123750103D01*
X84590747Y-123774794D01*
X84336407Y-123944738D01*
X84333313Y-123947452D01*
X84333307Y-123947456D01*
X84223721Y-124043561D01*
X84142577Y-124114723D01*
X84078174Y-124144599D01*
X84007841Y-124134913D01*
X83953909Y-124088740D01*
X83933500Y-124019990D01*
X83933500Y-122614594D01*
X83953502Y-122546473D01*
X83970405Y-122525499D01*
X89676405Y-116819500D01*
X89738717Y-116785474D01*
X89809532Y-116790539D01*
X89866368Y-116833086D01*
X89891179Y-116899606D01*
X89891500Y-116908595D01*
X89891500Y-150265500D01*
X89871498Y-150333621D01*
X89817842Y-150380114D01*
X89765500Y-150391500D01*
X60048594Y-150391500D01*
X59980473Y-150371498D01*
X59933980Y-150317842D01*
X59923876Y-150247568D01*
X59953370Y-150182988D01*
X59959499Y-150176405D01*
X60884549Y-149251355D01*
X60946861Y-149217329D01*
X60998762Y-149216979D01*
X61178597Y-149253567D01*
X61183772Y-149253757D01*
X61183774Y-149253757D01*
X61396673Y-149261564D01*
X61396677Y-149261564D01*
X61401837Y-149261753D01*
X61406957Y-149261097D01*
X61406959Y-149261097D01*
X61618288Y-149234025D01*
X61618289Y-149234025D01*
X61623416Y-149233368D01*
X61628366Y-149231883D01*
X61832429Y-149170661D01*
X61832434Y-149170659D01*
X61837384Y-149169174D01*
X62037994Y-149070896D01*
X62219860Y-148941173D01*
X62378096Y-148783489D01*
X62508453Y-148602077D01*
X62509776Y-148603028D01*
X62556645Y-148559857D01*
X62626580Y-148547625D01*
X62692026Y-148575144D01*
X62719875Y-148606994D01*
X62779987Y-148705088D01*
X62926250Y-148873938D01*
X63098126Y-149016632D01*
X63291000Y-149129338D01*
X63499692Y-149209030D01*
X63504760Y-149210061D01*
X63504763Y-149210062D01*
X63599862Y-149229410D01*
X63718597Y-149253567D01*
X63723772Y-149253757D01*
X63723774Y-149253757D01*
X63936673Y-149261564D01*
X63936677Y-149261564D01*
X63941837Y-149261753D01*
X63946957Y-149261097D01*
X63946959Y-149261097D01*
X64158288Y-149234025D01*
X64158289Y-149234025D01*
X64163416Y-149233368D01*
X64168366Y-149231883D01*
X64372429Y-149170661D01*
X64372434Y-149170659D01*
X64377384Y-149169174D01*
X64577994Y-149070896D01*
X64759860Y-148941173D01*
X64918096Y-148783489D01*
X65048453Y-148602077D01*
X65049640Y-148602930D01*
X65096960Y-148559362D01*
X65166897Y-148547145D01*
X65232338Y-148574678D01*
X65260166Y-148606511D01*
X65317694Y-148700388D01*
X65323777Y-148708699D01*
X65463213Y-148869667D01*
X65470580Y-148876883D01*
X65634434Y-149012916D01*
X65642881Y-149018831D01*
X65826756Y-149126279D01*
X65836042Y-149130729D01*
X66035001Y-149206703D01*
X66044899Y-149209579D01*
X66148250Y-149230606D01*
X66162299Y-149229410D01*
X66166000Y-149219065D01*
X66166000Y-146583102D01*
X66162082Y-146569758D01*
X66147806Y-146567771D01*
X66109324Y-146573660D01*
X66099288Y-146576051D01*
X65896868Y-146642212D01*
X65887359Y-146646209D01*
X65698463Y-146744542D01*
X65689738Y-146750036D01*
X65519433Y-146877905D01*
X65511726Y-146884748D01*
X65364590Y-147038717D01*
X65358109Y-147046722D01*
X65253498Y-147200074D01*
X65198587Y-147245076D01*
X65128062Y-147253247D01*
X65064315Y-147221993D01*
X65043618Y-147197509D01*
X64962822Y-147072617D01*
X64962820Y-147072614D01*
X64960014Y-147068277D01*
X64809670Y-146903051D01*
X64805619Y-146899852D01*
X64805615Y-146899848D01*
X64638414Y-146767800D01*
X64638410Y-146767798D01*
X64634359Y-146764598D01*
X64598028Y-146744542D01*
X64569065Y-146728554D01*
X64438789Y-146656638D01*
X64433920Y-146654914D01*
X64433916Y-146654912D01*
X64233087Y-146583795D01*
X64233083Y-146583794D01*
X64228212Y-146582069D01*
X64223119Y-146581162D01*
X64223116Y-146581161D01*
X64013373Y-146543800D01*
X64013367Y-146543799D01*
X64008284Y-146542894D01*
X63934452Y-146541992D01*
X63790081Y-146540228D01*
X63790079Y-146540228D01*
X63784911Y-146540165D01*
X63564091Y-146573955D01*
X63351756Y-146643357D01*
X63278757Y-146681358D01*
X63169371Y-146738301D01*
X63153607Y-146746507D01*
X63149474Y-146749610D01*
X63149471Y-146749612D01*
X63030395Y-146839017D01*
X62974965Y-146880635D01*
X62971393Y-146884373D01*
X62863729Y-146997037D01*
X62820629Y-147042138D01*
X62713201Y-147199621D01*
X62658293Y-147244621D01*
X62587768Y-147252792D01*
X62524021Y-147221538D01*
X62503324Y-147197054D01*
X62422822Y-147072617D01*
X62422820Y-147072614D01*
X62420014Y-147068277D01*
X62269670Y-146903051D01*
X62265619Y-146899852D01*
X62265615Y-146899848D01*
X62098414Y-146767800D01*
X62098410Y-146767798D01*
X62094359Y-146764598D01*
X62058028Y-146744542D01*
X62029065Y-146728554D01*
X61898789Y-146656638D01*
X61893920Y-146654914D01*
X61893916Y-146654912D01*
X61693087Y-146583795D01*
X61693083Y-146583794D01*
X61688212Y-146582069D01*
X61683119Y-146581162D01*
X61683116Y-146581161D01*
X61473373Y-146543800D01*
X61473367Y-146543799D01*
X61468284Y-146542894D01*
X61394452Y-146541992D01*
X61250081Y-146540228D01*
X61250079Y-146540228D01*
X61244911Y-146540165D01*
X61024091Y-146573955D01*
X60811756Y-146643357D01*
X60738757Y-146681358D01*
X60629371Y-146738301D01*
X60613607Y-146746507D01*
X60609474Y-146749610D01*
X60609471Y-146749612D01*
X60490395Y-146839017D01*
X60434965Y-146880635D01*
X60378537Y-146939684D01*
X60354283Y-146965064D01*
X60292759Y-147000494D01*
X60221846Y-146997037D01*
X60164060Y-146955791D01*
X60145207Y-146922243D01*
X60103767Y-146811703D01*
X60100615Y-146803295D01*
X60013261Y-146686739D01*
X59896705Y-146599385D01*
X59760316Y-146548255D01*
X59698134Y-146541500D01*
X59459500Y-146541500D01*
X59391379Y-146521498D01*
X59344886Y-146467842D01*
X59333500Y-146415500D01*
X59333500Y-142233708D01*
X59353502Y-142165587D01*
X59407158Y-142119094D01*
X59477432Y-142108990D01*
X59524865Y-142125989D01*
X59595422Y-142168804D01*
X59595426Y-142168806D01*
X59599419Y-142171229D01*
X59840455Y-142272303D01*
X60093783Y-142336641D01*
X60098434Y-142337109D01*
X60098438Y-142337110D01*
X60289297Y-142356328D01*
X60310867Y-142358500D01*
X60466354Y-142358500D01*
X60468679Y-142358327D01*
X60468685Y-142358327D01*
X60656000Y-142344407D01*
X60656004Y-142344406D01*
X60660652Y-142344061D01*
X60665200Y-142343032D01*
X60665206Y-142343031D01*
X60878415Y-142294786D01*
X60915577Y-142286377D01*
X60951769Y-142272303D01*
X61154824Y-142193340D01*
X61154827Y-142193339D01*
X61159177Y-142191647D01*
X61386098Y-142061951D01*
X61591357Y-141900138D01*
X61593242Y-141898134D01*
X64311500Y-141898134D01*
X64318255Y-141960316D01*
X64369385Y-142096705D01*
X64456739Y-142213261D01*
X64573295Y-142300615D01*
X64709684Y-142351745D01*
X64771866Y-142358500D01*
X65868134Y-142358500D01*
X65930316Y-142351745D01*
X66066705Y-142300615D01*
X66183261Y-142213261D01*
X66270615Y-142096705D01*
X66321745Y-141960316D01*
X66328500Y-141898134D01*
X66328500Y-139301866D01*
X66321745Y-139239684D01*
X66270615Y-139103295D01*
X66183261Y-138986739D01*
X66066705Y-138899385D01*
X65930316Y-138848255D01*
X65868134Y-138841500D01*
X64771866Y-138841500D01*
X64709684Y-138848255D01*
X64573295Y-138899385D01*
X64456739Y-138986739D01*
X64369385Y-139103295D01*
X64318255Y-139239684D01*
X64311500Y-139301866D01*
X64311500Y-141898134D01*
X61593242Y-141898134D01*
X61770443Y-141709763D01*
X61919424Y-141495009D01*
X62035025Y-141260593D01*
X62114707Y-141011665D01*
X62156721Y-140753693D01*
X62160142Y-140492345D01*
X62124896Y-140233362D01*
X62110473Y-140183877D01*
X62053068Y-139986932D01*
X62051757Y-139982433D01*
X61942332Y-139745072D01*
X61909519Y-139695024D01*
X61801590Y-139530404D01*
X61801586Y-139530399D01*
X61799024Y-139526491D01*
X61624982Y-139331494D01*
X61424030Y-139164363D01*
X61385432Y-139140941D01*
X61204578Y-139031196D01*
X61204574Y-139031194D01*
X61200581Y-139028771D01*
X60959545Y-138927697D01*
X60706217Y-138863359D01*
X60701566Y-138862891D01*
X60701562Y-138862890D01*
X60494108Y-138842001D01*
X60489133Y-138841500D01*
X60333646Y-138841500D01*
X60331321Y-138841673D01*
X60331315Y-138841673D01*
X60144000Y-138855593D01*
X60143996Y-138855594D01*
X60139348Y-138855939D01*
X60134800Y-138856968D01*
X60134794Y-138856969D01*
X60077038Y-138870038D01*
X60048239Y-138876555D01*
X59977385Y-138872081D01*
X59920197Y-138830009D01*
X59894832Y-138763698D01*
X59909345Y-138694200D01*
X59931337Y-138664567D01*
X69292247Y-129303657D01*
X69300537Y-129296113D01*
X69307018Y-129292000D01*
X69353659Y-129242332D01*
X69356413Y-129239491D01*
X69376134Y-129219770D01*
X69378612Y-129216575D01*
X69386318Y-129207553D01*
X69411158Y-129181101D01*
X69416586Y-129175321D01*
X69426346Y-129157568D01*
X69437197Y-129141048D01*
X69440937Y-129136226D01*
X69498492Y-129094657D01*
X69569384Y-129090803D01*
X69631105Y-129125888D01*
X69664060Y-129188773D01*
X69666500Y-129213448D01*
X69666500Y-146245405D01*
X69646498Y-146313526D01*
X69629595Y-146334500D01*
X69417345Y-146546750D01*
X69355033Y-146580776D01*
X69306154Y-146581702D01*
X69093373Y-146543800D01*
X69093367Y-146543799D01*
X69088284Y-146542894D01*
X69014452Y-146541992D01*
X68870081Y-146540228D01*
X68870079Y-146540228D01*
X68864911Y-146540165D01*
X68644091Y-146573955D01*
X68431756Y-146643357D01*
X68358757Y-146681358D01*
X68249371Y-146738301D01*
X68233607Y-146746507D01*
X68229474Y-146749610D01*
X68229471Y-146749612D01*
X68110395Y-146839017D01*
X68054965Y-146880635D01*
X68051393Y-146884373D01*
X67943729Y-146997037D01*
X67900629Y-147042138D01*
X67897720Y-147046403D01*
X67897714Y-147046411D01*
X67890212Y-147057409D01*
X67793204Y-147199618D01*
X67792898Y-147200066D01*
X67737987Y-147245069D01*
X67667462Y-147253240D01*
X67603715Y-147221986D01*
X67583018Y-147197502D01*
X67502426Y-147072926D01*
X67496136Y-147064757D01*
X67352806Y-146907240D01*
X67345273Y-146900215D01*
X67178139Y-146768222D01*
X67169552Y-146762517D01*
X66983117Y-146659599D01*
X66973705Y-146655369D01*
X66772959Y-146584280D01*
X66762988Y-146581646D01*
X66691837Y-146568972D01*
X66678540Y-146570432D01*
X66674000Y-146584989D01*
X66674000Y-149218517D01*
X66678064Y-149232359D01*
X66691478Y-149234393D01*
X66698184Y-149233534D01*
X66708262Y-149231392D01*
X66912255Y-149170191D01*
X66921842Y-149166433D01*
X67113095Y-149072739D01*
X67121945Y-149067464D01*
X67295328Y-148943792D01*
X67303200Y-148937139D01*
X67454052Y-148786812D01*
X67460730Y-148778965D01*
X67588022Y-148601819D01*
X67589279Y-148602722D01*
X67636373Y-148559362D01*
X67706311Y-148547145D01*
X67771751Y-148574678D01*
X67799579Y-148606511D01*
X67859987Y-148705088D01*
X68006250Y-148873938D01*
X68178126Y-149016632D01*
X68371000Y-149129338D01*
X68579692Y-149209030D01*
X68584760Y-149210061D01*
X68584763Y-149210062D01*
X68679862Y-149229410D01*
X68798597Y-149253567D01*
X68803772Y-149253757D01*
X68803774Y-149253757D01*
X69016673Y-149261564D01*
X69016677Y-149261564D01*
X69021837Y-149261753D01*
X69026957Y-149261097D01*
X69026959Y-149261097D01*
X69238288Y-149234025D01*
X69238289Y-149234025D01*
X69243416Y-149233368D01*
X69248366Y-149231883D01*
X69452429Y-149170661D01*
X69452434Y-149170659D01*
X69457384Y-149169174D01*
X69657994Y-149070896D01*
X69839860Y-148941173D01*
X69998096Y-148783489D01*
X70128453Y-148602077D01*
X70129640Y-148602930D01*
X70176960Y-148559362D01*
X70246897Y-148547145D01*
X70312338Y-148574678D01*
X70340166Y-148606511D01*
X70397694Y-148700388D01*
X70403777Y-148708699D01*
X70543213Y-148869667D01*
X70550580Y-148876883D01*
X70714434Y-149012916D01*
X70722881Y-149018831D01*
X70906756Y-149126279D01*
X70916042Y-149130729D01*
X71115001Y-149206703D01*
X71124899Y-149209579D01*
X71228250Y-149230606D01*
X71242299Y-149229410D01*
X71246000Y-149219065D01*
X71246000Y-149218517D01*
X71754000Y-149218517D01*
X71758064Y-149232359D01*
X71771478Y-149234393D01*
X71778184Y-149233534D01*
X71788262Y-149231392D01*
X71992255Y-149170191D01*
X72001842Y-149166433D01*
X72193095Y-149072739D01*
X72201945Y-149067464D01*
X72375328Y-148943792D01*
X72383200Y-148937139D01*
X72534052Y-148786812D01*
X72540730Y-148778965D01*
X72668022Y-148601819D01*
X72669279Y-148602722D01*
X72716373Y-148559362D01*
X72786311Y-148547145D01*
X72851751Y-148574678D01*
X72879579Y-148606511D01*
X72939987Y-148705088D01*
X73086250Y-148873938D01*
X73258126Y-149016632D01*
X73451000Y-149129338D01*
X73659692Y-149209030D01*
X73664760Y-149210061D01*
X73664763Y-149210062D01*
X73759862Y-149229410D01*
X73878597Y-149253567D01*
X73883772Y-149253757D01*
X73883774Y-149253757D01*
X74096673Y-149261564D01*
X74096677Y-149261564D01*
X74101837Y-149261753D01*
X74106957Y-149261097D01*
X74106959Y-149261097D01*
X74318288Y-149234025D01*
X74318289Y-149234025D01*
X74323416Y-149233368D01*
X74328366Y-149231883D01*
X74532429Y-149170661D01*
X74532434Y-149170659D01*
X74537384Y-149169174D01*
X74737994Y-149070896D01*
X74919860Y-148941173D01*
X75078096Y-148783489D01*
X75208453Y-148602077D01*
X75209776Y-148603028D01*
X75256645Y-148559857D01*
X75326580Y-148547625D01*
X75392026Y-148575144D01*
X75419875Y-148606994D01*
X75479987Y-148705088D01*
X75626250Y-148873938D01*
X75798126Y-149016632D01*
X75991000Y-149129338D01*
X76199692Y-149209030D01*
X76204760Y-149210061D01*
X76204763Y-149210062D01*
X76299862Y-149229410D01*
X76418597Y-149253567D01*
X76423772Y-149253757D01*
X76423774Y-149253757D01*
X76636673Y-149261564D01*
X76636677Y-149261564D01*
X76641837Y-149261753D01*
X76646957Y-149261097D01*
X76646959Y-149261097D01*
X76858288Y-149234025D01*
X76858289Y-149234025D01*
X76863416Y-149233368D01*
X76868366Y-149231883D01*
X77072429Y-149170661D01*
X77072434Y-149170659D01*
X77077384Y-149169174D01*
X77277994Y-149070896D01*
X77459860Y-148941173D01*
X77618096Y-148783489D01*
X77748453Y-148602077D01*
X77749776Y-148603028D01*
X77796645Y-148559857D01*
X77866580Y-148547625D01*
X77932026Y-148575144D01*
X77959875Y-148606994D01*
X78019987Y-148705088D01*
X78166250Y-148873938D01*
X78338126Y-149016632D01*
X78531000Y-149129338D01*
X78739692Y-149209030D01*
X78744760Y-149210061D01*
X78744763Y-149210062D01*
X78839862Y-149229410D01*
X78958597Y-149253567D01*
X78963772Y-149253757D01*
X78963774Y-149253757D01*
X79176673Y-149261564D01*
X79176677Y-149261564D01*
X79181837Y-149261753D01*
X79186957Y-149261097D01*
X79186959Y-149261097D01*
X79398288Y-149234025D01*
X79398289Y-149234025D01*
X79403416Y-149233368D01*
X79408366Y-149231883D01*
X79612429Y-149170661D01*
X79612434Y-149170659D01*
X79617384Y-149169174D01*
X79817994Y-149070896D01*
X79999860Y-148941173D01*
X80158096Y-148783489D01*
X80288453Y-148602077D01*
X80289776Y-148603028D01*
X80336645Y-148559857D01*
X80406580Y-148547625D01*
X80472026Y-148575144D01*
X80499875Y-148606994D01*
X80559987Y-148705088D01*
X80706250Y-148873938D01*
X80878126Y-149016632D01*
X81071000Y-149129338D01*
X81279692Y-149209030D01*
X81284760Y-149210061D01*
X81284763Y-149210062D01*
X81379862Y-149229410D01*
X81498597Y-149253567D01*
X81503772Y-149253757D01*
X81503774Y-149253757D01*
X81716673Y-149261564D01*
X81716677Y-149261564D01*
X81721837Y-149261753D01*
X81726957Y-149261097D01*
X81726959Y-149261097D01*
X81938288Y-149234025D01*
X81938289Y-149234025D01*
X81943416Y-149233368D01*
X81948366Y-149231883D01*
X82152429Y-149170661D01*
X82152434Y-149170659D01*
X82157384Y-149169174D01*
X82357994Y-149070896D01*
X82539860Y-148941173D01*
X82698096Y-148783489D01*
X82828453Y-148602077D01*
X82841995Y-148574678D01*
X82925136Y-148406453D01*
X82925137Y-148406451D01*
X82927430Y-148401811D01*
X82987934Y-148202670D01*
X86032160Y-148202670D01*
X86037887Y-148210320D01*
X86209042Y-148315205D01*
X86217837Y-148319687D01*
X86427988Y-148406734D01*
X86437373Y-148409783D01*
X86658554Y-148462885D01*
X86668301Y-148464428D01*
X86895070Y-148482275D01*
X86904930Y-148482275D01*
X87131699Y-148464428D01*
X87141446Y-148462885D01*
X87362627Y-148409783D01*
X87372012Y-148406734D01*
X87582163Y-148319687D01*
X87590958Y-148315205D01*
X87758445Y-148212568D01*
X87767907Y-148202110D01*
X87764124Y-148193334D01*
X86912812Y-147342022D01*
X86898868Y-147334408D01*
X86897035Y-147334539D01*
X86890420Y-147338790D01*
X86038920Y-148190290D01*
X86032160Y-148202670D01*
X82987934Y-148202670D01*
X82988104Y-148202110D01*
X82990865Y-148193023D01*
X82990865Y-148193021D01*
X82992370Y-148188069D01*
X83021529Y-147966590D01*
X83023156Y-147900000D01*
X83004852Y-147677361D01*
X82950431Y-147460702D01*
X82861354Y-147255840D01*
X82740014Y-147068277D01*
X82655075Y-146974930D01*
X85387725Y-146974930D01*
X85405572Y-147201699D01*
X85407115Y-147211446D01*
X85460217Y-147432627D01*
X85463266Y-147442012D01*
X85550313Y-147652163D01*
X85554795Y-147660958D01*
X85657432Y-147828445D01*
X85667890Y-147837907D01*
X85676666Y-147834124D01*
X86527978Y-146982812D01*
X86534356Y-146971132D01*
X87264408Y-146971132D01*
X87264539Y-146972965D01*
X87268790Y-146979580D01*
X88120290Y-147831080D01*
X88132670Y-147837840D01*
X88140320Y-147832113D01*
X88245205Y-147660958D01*
X88249687Y-147652163D01*
X88336734Y-147442012D01*
X88339783Y-147432627D01*
X88392885Y-147211446D01*
X88394428Y-147201699D01*
X88412275Y-146974930D01*
X88412275Y-146965064D01*
X88394428Y-146738301D01*
X88392885Y-146728554D01*
X88339783Y-146507373D01*
X88336734Y-146497988D01*
X88249687Y-146287837D01*
X88245205Y-146279042D01*
X88142568Y-146111555D01*
X88132110Y-146102093D01*
X88123334Y-146105876D01*
X87272022Y-146957188D01*
X87264408Y-146971132D01*
X86534356Y-146971132D01*
X86535592Y-146968868D01*
X86535461Y-146967035D01*
X86531210Y-146960420D01*
X85679710Y-146108920D01*
X85667330Y-146102160D01*
X85659680Y-146107887D01*
X85554795Y-146279042D01*
X85550313Y-146287837D01*
X85463266Y-146497988D01*
X85460217Y-146507373D01*
X85407115Y-146728554D01*
X85405572Y-146738301D01*
X85387725Y-146965064D01*
X85387725Y-146974930D01*
X82655075Y-146974930D01*
X82589670Y-146903051D01*
X82585619Y-146899852D01*
X82585615Y-146899848D01*
X82418414Y-146767800D01*
X82418410Y-146767798D01*
X82414359Y-146764598D01*
X82378028Y-146744542D01*
X82349065Y-146728554D01*
X82218789Y-146656638D01*
X82213920Y-146654914D01*
X82213916Y-146654912D01*
X82013087Y-146583795D01*
X82013083Y-146583794D01*
X82008212Y-146582069D01*
X82003119Y-146581162D01*
X82003116Y-146581161D01*
X81793373Y-146543800D01*
X81793367Y-146543799D01*
X81788284Y-146542894D01*
X81714452Y-146541992D01*
X81570081Y-146540228D01*
X81570079Y-146540228D01*
X81564911Y-146540165D01*
X81344091Y-146573955D01*
X81131756Y-146643357D01*
X81058757Y-146681358D01*
X80949371Y-146738301D01*
X80933607Y-146746507D01*
X80929474Y-146749610D01*
X80929471Y-146749612D01*
X80810395Y-146839017D01*
X80754965Y-146880635D01*
X80751393Y-146884373D01*
X80643729Y-146997037D01*
X80600629Y-147042138D01*
X80493201Y-147199621D01*
X80438293Y-147244621D01*
X80367768Y-147252792D01*
X80304021Y-147221538D01*
X80283324Y-147197054D01*
X80202822Y-147072617D01*
X80202820Y-147072614D01*
X80200014Y-147068277D01*
X80049670Y-146903051D01*
X80045619Y-146899852D01*
X80045615Y-146899848D01*
X79878414Y-146767800D01*
X79878410Y-146767798D01*
X79874359Y-146764598D01*
X79838028Y-146744542D01*
X79809065Y-146728554D01*
X79678789Y-146656638D01*
X79673920Y-146654914D01*
X79673916Y-146654912D01*
X79473087Y-146583795D01*
X79473083Y-146583794D01*
X79468212Y-146582069D01*
X79463119Y-146581162D01*
X79463116Y-146581161D01*
X79253373Y-146543800D01*
X79253367Y-146543799D01*
X79248284Y-146542894D01*
X79174452Y-146541992D01*
X79030081Y-146540228D01*
X79030079Y-146540228D01*
X79024911Y-146540165D01*
X78804091Y-146573955D01*
X78591756Y-146643357D01*
X78518757Y-146681358D01*
X78409371Y-146738301D01*
X78393607Y-146746507D01*
X78389474Y-146749610D01*
X78389471Y-146749612D01*
X78270395Y-146839017D01*
X78214965Y-146880635D01*
X78211393Y-146884373D01*
X78103729Y-146997037D01*
X78060629Y-147042138D01*
X77953201Y-147199621D01*
X77898293Y-147244621D01*
X77827768Y-147252792D01*
X77764021Y-147221538D01*
X77743324Y-147197054D01*
X77662822Y-147072617D01*
X77662820Y-147072614D01*
X77660014Y-147068277D01*
X77509670Y-146903051D01*
X77505619Y-146899852D01*
X77505615Y-146899848D01*
X77338414Y-146767800D01*
X77338410Y-146767798D01*
X77334359Y-146764598D01*
X77298028Y-146744542D01*
X77269065Y-146728554D01*
X77138789Y-146656638D01*
X77133920Y-146654914D01*
X77133916Y-146654912D01*
X76933087Y-146583795D01*
X76933083Y-146583794D01*
X76928212Y-146582069D01*
X76923119Y-146581162D01*
X76923116Y-146581161D01*
X76713373Y-146543800D01*
X76713367Y-146543799D01*
X76708284Y-146542894D01*
X76634452Y-146541992D01*
X76490081Y-146540228D01*
X76490079Y-146540228D01*
X76484911Y-146540165D01*
X76264091Y-146573955D01*
X76051756Y-146643357D01*
X75978757Y-146681358D01*
X75869371Y-146738301D01*
X75853607Y-146746507D01*
X75849474Y-146749610D01*
X75849471Y-146749612D01*
X75730395Y-146839017D01*
X75674965Y-146880635D01*
X75671393Y-146884373D01*
X75563729Y-146997037D01*
X75520629Y-147042138D01*
X75413201Y-147199621D01*
X75358293Y-147244621D01*
X75287768Y-147252792D01*
X75224021Y-147221538D01*
X75203324Y-147197054D01*
X75122822Y-147072617D01*
X75122820Y-147072614D01*
X75120014Y-147068277D01*
X74969670Y-146903051D01*
X74965619Y-146899852D01*
X74965615Y-146899848D01*
X74798414Y-146767800D01*
X74798410Y-146767798D01*
X74794359Y-146764598D01*
X74758028Y-146744542D01*
X74729065Y-146728554D01*
X74598789Y-146656638D01*
X74593920Y-146654914D01*
X74593916Y-146654912D01*
X74393087Y-146583795D01*
X74393083Y-146583794D01*
X74388212Y-146582069D01*
X74383119Y-146581162D01*
X74383116Y-146581161D01*
X74173373Y-146543800D01*
X74173367Y-146543799D01*
X74168284Y-146542894D01*
X74094452Y-146541992D01*
X73950081Y-146540228D01*
X73950079Y-146540228D01*
X73944911Y-146540165D01*
X73724091Y-146573955D01*
X73511756Y-146643357D01*
X73438757Y-146681358D01*
X73329371Y-146738301D01*
X73313607Y-146746507D01*
X73309474Y-146749610D01*
X73309471Y-146749612D01*
X73190395Y-146839017D01*
X73134965Y-146880635D01*
X73131393Y-146884373D01*
X73023729Y-146997037D01*
X72980629Y-147042138D01*
X72977720Y-147046403D01*
X72977714Y-147046411D01*
X72970212Y-147057409D01*
X72873204Y-147199618D01*
X72872898Y-147200066D01*
X72817987Y-147245069D01*
X72747462Y-147253240D01*
X72683715Y-147221986D01*
X72663018Y-147197502D01*
X72582426Y-147072926D01*
X72576136Y-147064757D01*
X72432806Y-146907240D01*
X72425273Y-146900215D01*
X72258139Y-146768222D01*
X72249552Y-146762517D01*
X72063117Y-146659599D01*
X72053705Y-146655369D01*
X71852959Y-146584280D01*
X71842988Y-146581646D01*
X71771837Y-146568972D01*
X71758540Y-146570432D01*
X71754000Y-146584989D01*
X71754000Y-149218517D01*
X71246000Y-149218517D01*
X71246000Y-146583102D01*
X71242082Y-146569758D01*
X71227806Y-146567771D01*
X71189324Y-146573660D01*
X71179288Y-146576051D01*
X71098645Y-146602409D01*
X71027681Y-146604560D01*
X70966819Y-146568004D01*
X70935383Y-146504346D01*
X70933500Y-146482644D01*
X70933500Y-145737890D01*
X86032093Y-145737890D01*
X86035876Y-145746666D01*
X86887188Y-146597978D01*
X86901132Y-146605592D01*
X86902965Y-146605461D01*
X86909580Y-146601210D01*
X87761080Y-145749710D01*
X87767840Y-145737330D01*
X87762113Y-145729680D01*
X87590958Y-145624795D01*
X87582163Y-145620313D01*
X87372012Y-145533266D01*
X87362627Y-145530217D01*
X87141446Y-145477115D01*
X87131699Y-145475572D01*
X86904930Y-145457725D01*
X86895070Y-145457725D01*
X86668301Y-145475572D01*
X86658554Y-145477115D01*
X86437373Y-145530217D01*
X86427988Y-145533266D01*
X86217837Y-145620313D01*
X86209042Y-145624795D01*
X86041555Y-145727432D01*
X86032093Y-145737890D01*
X70933500Y-145737890D01*
X70933500Y-141894669D01*
X72512001Y-141894669D01*
X72512371Y-141901490D01*
X72517895Y-141952352D01*
X72521521Y-141967604D01*
X72566676Y-142088054D01*
X72575214Y-142103649D01*
X72651715Y-142205724D01*
X72664276Y-142218285D01*
X72766351Y-142294786D01*
X72781946Y-142303324D01*
X72902394Y-142348478D01*
X72917649Y-142352105D01*
X72968514Y-142357631D01*
X72975328Y-142358000D01*
X73247885Y-142358000D01*
X73263124Y-142353525D01*
X73264329Y-142352135D01*
X73266000Y-142344452D01*
X73266000Y-142339884D01*
X73774000Y-142339884D01*
X73778475Y-142355123D01*
X73779865Y-142356328D01*
X73787548Y-142357999D01*
X74064669Y-142357999D01*
X74071490Y-142357629D01*
X74122352Y-142352105D01*
X74137604Y-142348479D01*
X74258054Y-142303324D01*
X74273649Y-142294786D01*
X74375724Y-142218285D01*
X74388285Y-142205724D01*
X74464786Y-142103649D01*
X74473324Y-142088054D01*
X74518478Y-141967606D01*
X74522105Y-141952351D01*
X74527631Y-141901486D01*
X74527813Y-141898134D01*
X75611500Y-141898134D01*
X75618255Y-141960316D01*
X75669385Y-142096705D01*
X75756739Y-142213261D01*
X75873295Y-142300615D01*
X76009684Y-142351745D01*
X76071866Y-142358500D01*
X77168134Y-142358500D01*
X77230316Y-142351745D01*
X77366705Y-142300615D01*
X77483261Y-142213261D01*
X77570615Y-142096705D01*
X77621745Y-141960316D01*
X77628500Y-141898134D01*
X77628500Y-140707655D01*
X78239858Y-140707655D01*
X78275104Y-140966638D01*
X78276412Y-140971124D01*
X78276412Y-140971126D01*
X78296098Y-141038664D01*
X78348243Y-141217567D01*
X78457668Y-141454928D01*
X78460231Y-141458837D01*
X78598410Y-141669596D01*
X78598414Y-141669601D01*
X78600976Y-141673509D01*
X78775018Y-141868506D01*
X78975970Y-142035637D01*
X78979973Y-142038066D01*
X79195422Y-142168804D01*
X79195426Y-142168806D01*
X79199419Y-142171229D01*
X79440455Y-142272303D01*
X79693783Y-142336641D01*
X79698434Y-142337109D01*
X79698438Y-142337110D01*
X79889297Y-142356328D01*
X79910867Y-142358500D01*
X80066354Y-142358500D01*
X80068679Y-142358327D01*
X80068685Y-142358327D01*
X80256000Y-142344407D01*
X80256004Y-142344406D01*
X80260652Y-142344061D01*
X80265200Y-142343032D01*
X80265206Y-142343031D01*
X80478415Y-142294786D01*
X80515577Y-142286377D01*
X80551769Y-142272303D01*
X80754824Y-142193340D01*
X80754827Y-142193339D01*
X80759177Y-142191647D01*
X80986098Y-142061951D01*
X81191357Y-141900138D01*
X81370443Y-141709763D01*
X81519424Y-141495009D01*
X81635025Y-141260593D01*
X81714707Y-141011665D01*
X81756721Y-140753693D01*
X81760142Y-140492345D01*
X81724896Y-140233362D01*
X81710473Y-140183877D01*
X81653068Y-139986932D01*
X81651757Y-139982433D01*
X81542332Y-139745072D01*
X81509519Y-139695024D01*
X81401590Y-139530404D01*
X81401586Y-139530399D01*
X81399024Y-139526491D01*
X81224982Y-139331494D01*
X81024030Y-139164363D01*
X80985432Y-139140941D01*
X80804578Y-139031196D01*
X80804574Y-139031194D01*
X80800581Y-139028771D01*
X80559545Y-138927697D01*
X80306217Y-138863359D01*
X80301566Y-138862891D01*
X80301562Y-138862890D01*
X80094108Y-138842001D01*
X80089133Y-138841500D01*
X79933646Y-138841500D01*
X79931321Y-138841673D01*
X79931315Y-138841673D01*
X79744000Y-138855593D01*
X79743996Y-138855594D01*
X79739348Y-138855939D01*
X79734800Y-138856968D01*
X79734794Y-138856969D01*
X79580393Y-138891907D01*
X79484423Y-138913623D01*
X79480071Y-138915315D01*
X79480069Y-138915316D01*
X79245176Y-139006660D01*
X79245173Y-139006661D01*
X79240823Y-139008353D01*
X79236769Y-139010670D01*
X79236767Y-139010671D01*
X79203167Y-139029875D01*
X79013902Y-139138049D01*
X78808643Y-139299862D01*
X78629557Y-139490237D01*
X78480576Y-139704991D01*
X78364975Y-139939407D01*
X78285293Y-140188335D01*
X78243279Y-140446307D01*
X78239858Y-140707655D01*
X77628500Y-140707655D01*
X77628500Y-139301866D01*
X77621745Y-139239684D01*
X77570615Y-139103295D01*
X77483261Y-138986739D01*
X77366705Y-138899385D01*
X77230316Y-138848255D01*
X77168134Y-138841500D01*
X76071866Y-138841500D01*
X76009684Y-138848255D01*
X75873295Y-138899385D01*
X75756739Y-138986739D01*
X75669385Y-139103295D01*
X75618255Y-139239684D01*
X75611500Y-139301866D01*
X75611500Y-141898134D01*
X74527813Y-141898134D01*
X74528000Y-141894672D01*
X74528000Y-140872115D01*
X74523525Y-140856876D01*
X74522135Y-140855671D01*
X74514452Y-140854000D01*
X73792115Y-140854000D01*
X73776876Y-140858475D01*
X73775671Y-140859865D01*
X73774000Y-140867548D01*
X73774000Y-142339884D01*
X73266000Y-142339884D01*
X73266000Y-140872115D01*
X73261525Y-140856876D01*
X73260135Y-140855671D01*
X73252452Y-140854000D01*
X72530116Y-140854000D01*
X72514877Y-140858475D01*
X72513672Y-140859865D01*
X72512001Y-140867548D01*
X72512001Y-141894669D01*
X70933500Y-141894669D01*
X70933500Y-140327885D01*
X72512000Y-140327885D01*
X72516475Y-140343124D01*
X72517865Y-140344329D01*
X72525548Y-140346000D01*
X73247885Y-140346000D01*
X73263124Y-140341525D01*
X73264329Y-140340135D01*
X73266000Y-140332452D01*
X73266000Y-140327885D01*
X73774000Y-140327885D01*
X73778475Y-140343124D01*
X73779865Y-140344329D01*
X73787548Y-140346000D01*
X74509884Y-140346000D01*
X74525123Y-140341525D01*
X74526328Y-140340135D01*
X74527999Y-140332452D01*
X74527999Y-139305331D01*
X74527629Y-139298510D01*
X74522105Y-139247648D01*
X74518479Y-139232396D01*
X74473324Y-139111946D01*
X74464786Y-139096351D01*
X74388285Y-138994276D01*
X74375724Y-138981715D01*
X74273649Y-138905214D01*
X74258054Y-138896676D01*
X74137606Y-138851522D01*
X74122351Y-138847895D01*
X74071486Y-138842369D01*
X74064672Y-138842000D01*
X73792115Y-138842000D01*
X73776876Y-138846475D01*
X73775671Y-138847865D01*
X73774000Y-138855548D01*
X73774000Y-140327885D01*
X73266000Y-140327885D01*
X73266000Y-138860116D01*
X73261525Y-138844877D01*
X73260135Y-138843672D01*
X73252452Y-138842001D01*
X72975331Y-138842001D01*
X72968510Y-138842371D01*
X72917648Y-138847895D01*
X72902396Y-138851521D01*
X72781946Y-138896676D01*
X72766351Y-138905214D01*
X72664276Y-138981715D01*
X72651715Y-138994276D01*
X72575214Y-139096351D01*
X72566676Y-139111946D01*
X72521522Y-139232394D01*
X72517895Y-139247649D01*
X72512369Y-139298514D01*
X72512000Y-139305328D01*
X72512000Y-140327885D01*
X70933500Y-140327885D01*
X70933500Y-125800000D01*
X71991493Y-125800000D01*
X72011499Y-126105236D01*
X72071176Y-126405250D01*
X72169501Y-126694908D01*
X72171324Y-126698604D01*
X72171327Y-126698612D01*
X72223500Y-126804406D01*
X72304794Y-126969253D01*
X72474738Y-127223593D01*
X72477452Y-127226687D01*
X72477456Y-127226693D01*
X72522382Y-127277921D01*
X72676426Y-127453574D01*
X72679515Y-127456283D01*
X72903307Y-127652544D01*
X72903313Y-127652548D01*
X72906407Y-127655262D01*
X72909833Y-127657551D01*
X72909838Y-127657555D01*
X73157311Y-127822911D01*
X73160746Y-127825206D01*
X73164449Y-127827032D01*
X73431388Y-127958673D01*
X73431396Y-127958676D01*
X73435092Y-127960499D01*
X73439006Y-127961828D01*
X73439007Y-127961828D01*
X73720837Y-128057496D01*
X73720841Y-128057497D01*
X73724750Y-128058824D01*
X73728794Y-128059628D01*
X73728800Y-128059630D01*
X74020725Y-128117698D01*
X74020731Y-128117699D01*
X74024764Y-128118501D01*
X74028869Y-128118770D01*
X74028876Y-128118771D01*
X74325881Y-128138237D01*
X74330000Y-128138507D01*
X74334119Y-128138237D01*
X74631124Y-128118771D01*
X74631131Y-128118770D01*
X74635236Y-128118501D01*
X74639269Y-128117699D01*
X74639275Y-128117698D01*
X74931200Y-128059630D01*
X74931206Y-128059628D01*
X74935250Y-128058824D01*
X74939159Y-128057497D01*
X74939163Y-128057496D01*
X75220993Y-127961828D01*
X75220994Y-127961828D01*
X75224908Y-127960499D01*
X75228604Y-127958676D01*
X75228612Y-127958673D01*
X75495551Y-127827032D01*
X75499254Y-127825206D01*
X75502689Y-127822911D01*
X75750162Y-127657555D01*
X75750167Y-127657551D01*
X75753593Y-127655262D01*
X75756687Y-127652548D01*
X75756693Y-127652544D01*
X75980485Y-127456283D01*
X75983574Y-127453574D01*
X76137618Y-127277921D01*
X76182544Y-127226693D01*
X76182548Y-127226687D01*
X76185262Y-127223593D01*
X76355206Y-126969253D01*
X76436500Y-126804406D01*
X76488673Y-126698612D01*
X76488676Y-126698604D01*
X76490499Y-126694908D01*
X76588824Y-126405250D01*
X76648501Y-126105236D01*
X76668507Y-125800000D01*
X76648501Y-125494764D01*
X76588824Y-125194750D01*
X76490499Y-124905092D01*
X76488676Y-124901396D01*
X76488673Y-124901388D01*
X76357032Y-124634450D01*
X76355206Y-124630747D01*
X76185262Y-124376407D01*
X76182548Y-124373313D01*
X76182544Y-124373307D01*
X75986283Y-124149515D01*
X75983574Y-124146426D01*
X75917796Y-124088740D01*
X75756693Y-123947456D01*
X75756687Y-123947452D01*
X75753593Y-123944738D01*
X75750163Y-123942446D01*
X75750162Y-123942445D01*
X75502689Y-123777089D01*
X75502687Y-123777088D01*
X75499254Y-123774794D01*
X75450747Y-123750873D01*
X75228612Y-123641327D01*
X75228604Y-123641324D01*
X75224908Y-123639501D01*
X75220993Y-123638172D01*
X74939163Y-123542504D01*
X74939159Y-123542503D01*
X74935250Y-123541176D01*
X74931206Y-123540372D01*
X74931200Y-123540370D01*
X74639275Y-123482302D01*
X74639269Y-123482301D01*
X74635236Y-123481499D01*
X74631131Y-123481230D01*
X74631124Y-123481229D01*
X74334119Y-123461763D01*
X74330000Y-123461493D01*
X74325881Y-123461763D01*
X74028876Y-123481229D01*
X74028869Y-123481230D01*
X74024764Y-123481499D01*
X74020731Y-123482301D01*
X74020725Y-123482302D01*
X73728800Y-123540370D01*
X73728794Y-123540372D01*
X73724750Y-123541176D01*
X73720841Y-123542503D01*
X73720837Y-123542504D01*
X73439007Y-123638172D01*
X73435092Y-123639501D01*
X73431396Y-123641324D01*
X73431388Y-123641327D01*
X73210816Y-123750103D01*
X73160747Y-123774794D01*
X72906407Y-123944738D01*
X72903313Y-123947452D01*
X72903307Y-123947456D01*
X72742204Y-124088740D01*
X72676426Y-124146426D01*
X72673717Y-124149515D01*
X72477456Y-124373307D01*
X72477452Y-124373313D01*
X72474738Y-124376407D01*
X72304794Y-124630747D01*
X72302968Y-124634450D01*
X72171327Y-124901388D01*
X72171324Y-124901396D01*
X72169501Y-124905092D01*
X72071176Y-125194750D01*
X72011499Y-125494764D01*
X71991493Y-125800000D01*
X70933500Y-125800000D01*
X70933500Y-114914594D01*
X70953502Y-114846473D01*
X70970405Y-114825499D01*
X74751405Y-111044499D01*
X74813717Y-111010473D01*
X74884532Y-111015538D01*
G37*
%TD.AperFunction*%
%TA.AperFunction,Conductor*%
G36*
X64142012Y-55690973D02*
G01*
X64180898Y-55753822D01*
X64181526Y-55758797D01*
X64184445Y-55766168D01*
X64184445Y-55766170D01*
X64197804Y-55799912D01*
X64201649Y-55811142D01*
X64213982Y-55853593D01*
X64218015Y-55860412D01*
X64218017Y-55860417D01*
X64224293Y-55871028D01*
X64232988Y-55888776D01*
X64240448Y-55907617D01*
X64245110Y-55914033D01*
X64245110Y-55914034D01*
X64266436Y-55943387D01*
X64272952Y-55953307D01*
X64288948Y-55980354D01*
X64295458Y-55991362D01*
X64309779Y-56005683D01*
X64322619Y-56020716D01*
X64334528Y-56037107D01*
X64368605Y-56065298D01*
X64377384Y-56073288D01*
X67792504Y-59488408D01*
X67826530Y-59550720D01*
X67821465Y-59621535D01*
X67778918Y-59678371D01*
X67712398Y-59703182D01*
X67681315Y-59701550D01*
X67633006Y-59692945D01*
X67560096Y-59692054D01*
X67406581Y-59690179D01*
X67406579Y-59690179D01*
X67401411Y-59690116D01*
X67172464Y-59725150D01*
X66952314Y-59797106D01*
X66947726Y-59799494D01*
X66947722Y-59799496D01*
X66751461Y-59901663D01*
X66746872Y-59904052D01*
X66742739Y-59907155D01*
X66742736Y-59907157D01*
X66565790Y-60040012D01*
X66561655Y-60043117D01*
X66401639Y-60210564D01*
X66354836Y-60279174D01*
X66299927Y-60324175D01*
X66229402Y-60332346D01*
X66165655Y-60301092D01*
X66144959Y-60276609D01*
X66122577Y-60242013D01*
X66122576Y-60242012D01*
X66119764Y-60237665D01*
X65963887Y-60066358D01*
X65959836Y-60063159D01*
X65959832Y-60063155D01*
X65786177Y-59926011D01*
X65786172Y-59926008D01*
X65782123Y-59922810D01*
X65777607Y-59920317D01*
X65777604Y-59920315D01*
X65583879Y-59813373D01*
X65583875Y-59813371D01*
X65579355Y-59810876D01*
X65574486Y-59809152D01*
X65574482Y-59809150D01*
X65365903Y-59735288D01*
X65365899Y-59735287D01*
X65361028Y-59733562D01*
X65355935Y-59732655D01*
X65355932Y-59732654D01*
X65138095Y-59693851D01*
X65138089Y-59693850D01*
X65133006Y-59692945D01*
X65060096Y-59692054D01*
X64906581Y-59690179D01*
X64906579Y-59690179D01*
X64901411Y-59690116D01*
X64672464Y-59725150D01*
X64452314Y-59797106D01*
X64447726Y-59799494D01*
X64447722Y-59799496D01*
X64251461Y-59901663D01*
X64246872Y-59904052D01*
X64242739Y-59907155D01*
X64242736Y-59907157D01*
X64065790Y-60040012D01*
X64061655Y-60043117D01*
X63901639Y-60210564D01*
X63854836Y-60279174D01*
X63799927Y-60324175D01*
X63729402Y-60332346D01*
X63665655Y-60301092D01*
X63644959Y-60276609D01*
X63622577Y-60242013D01*
X63622576Y-60242012D01*
X63619764Y-60237665D01*
X63463887Y-60066358D01*
X63459836Y-60063159D01*
X63459832Y-60063155D01*
X63286177Y-59926011D01*
X63286172Y-59926008D01*
X63282123Y-59922810D01*
X63277607Y-59920317D01*
X63277604Y-59920315D01*
X63083879Y-59813373D01*
X63083875Y-59813371D01*
X63079355Y-59810876D01*
X63074486Y-59809152D01*
X63074482Y-59809150D01*
X62865903Y-59735288D01*
X62865899Y-59735287D01*
X62861028Y-59733562D01*
X62855935Y-59732655D01*
X62855932Y-59732654D01*
X62638095Y-59693851D01*
X62638089Y-59693850D01*
X62633006Y-59692945D01*
X62560096Y-59692054D01*
X62406581Y-59690179D01*
X62406579Y-59690179D01*
X62401411Y-59690116D01*
X62172464Y-59725150D01*
X61952314Y-59797106D01*
X61947726Y-59799494D01*
X61947722Y-59799496D01*
X61751461Y-59901663D01*
X61746872Y-59904052D01*
X61742739Y-59907155D01*
X61742736Y-59907157D01*
X61565790Y-60040012D01*
X61561655Y-60043117D01*
X61401639Y-60210564D01*
X61398730Y-60214829D01*
X61398724Y-60214837D01*
X61371997Y-60254017D01*
X61271119Y-60401899D01*
X61173602Y-60611981D01*
X61111707Y-60835169D01*
X61087095Y-61065469D01*
X61087392Y-61070622D01*
X61087392Y-61070625D01*
X61093067Y-61169041D01*
X61100427Y-61296697D01*
X61101564Y-61301743D01*
X61101565Y-61301749D01*
X61125562Y-61408229D01*
X61151346Y-61522642D01*
X61153288Y-61527424D01*
X61153289Y-61527428D01*
X61236540Y-61732450D01*
X61238484Y-61737237D01*
X61359501Y-61934719D01*
X61511147Y-62109784D01*
X61689349Y-62257730D01*
X61889322Y-62374584D01*
X62105694Y-62457209D01*
X62110760Y-62458240D01*
X62110761Y-62458240D01*
X62163846Y-62469040D01*
X62332656Y-62503385D01*
X62463324Y-62508176D01*
X62558949Y-62511683D01*
X62558953Y-62511683D01*
X62564113Y-62511872D01*
X62569233Y-62511216D01*
X62569235Y-62511216D01*
X62642270Y-62501860D01*
X62793847Y-62482442D01*
X62798795Y-62480957D01*
X62798802Y-62480956D01*
X63010747Y-62417369D01*
X63015690Y-62415886D01*
X63096236Y-62376427D01*
X63219049Y-62316262D01*
X63219052Y-62316260D01*
X63223684Y-62313991D01*
X63412243Y-62179494D01*
X63576303Y-62016005D01*
X63645370Y-61919888D01*
X63701365Y-61876240D01*
X63772068Y-61869794D01*
X63835033Y-61902597D01*
X63855128Y-61927584D01*
X63856799Y-61930311D01*
X63856804Y-61930317D01*
X63859501Y-61934719D01*
X64011147Y-62109784D01*
X64189349Y-62257730D01*
X64389322Y-62374584D01*
X64605694Y-62457209D01*
X64610760Y-62458240D01*
X64610761Y-62458240D01*
X64663846Y-62469040D01*
X64832656Y-62503385D01*
X64963324Y-62508176D01*
X65058949Y-62511683D01*
X65058953Y-62511683D01*
X65064113Y-62511872D01*
X65069233Y-62511216D01*
X65069235Y-62511216D01*
X65142270Y-62501860D01*
X65293847Y-62482442D01*
X65298795Y-62480957D01*
X65298802Y-62480956D01*
X65510747Y-62417369D01*
X65515690Y-62415886D01*
X65596236Y-62376427D01*
X65719049Y-62316262D01*
X65719052Y-62316260D01*
X65723684Y-62313991D01*
X65912243Y-62179494D01*
X66076303Y-62016005D01*
X66145370Y-61919888D01*
X66201365Y-61876240D01*
X66272068Y-61869794D01*
X66335033Y-61902597D01*
X66355128Y-61927584D01*
X66356799Y-61930311D01*
X66356804Y-61930317D01*
X66359501Y-61934719D01*
X66511147Y-62109784D01*
X66689349Y-62257730D01*
X66889322Y-62374584D01*
X67105694Y-62457209D01*
X67110760Y-62458240D01*
X67110761Y-62458240D01*
X67163846Y-62469040D01*
X67332656Y-62503385D01*
X67463324Y-62508176D01*
X67558949Y-62511683D01*
X67558953Y-62511683D01*
X67564113Y-62511872D01*
X67569233Y-62511216D01*
X67569235Y-62511216D01*
X67642270Y-62501860D01*
X67793847Y-62482442D01*
X67798795Y-62480957D01*
X67798802Y-62480956D01*
X68010747Y-62417369D01*
X68015690Y-62415886D01*
X68096236Y-62376427D01*
X68219049Y-62316262D01*
X68219052Y-62316260D01*
X68223684Y-62313991D01*
X68412243Y-62179494D01*
X68576303Y-62016005D01*
X68711458Y-61827917D01*
X68729457Y-61791500D01*
X68811784Y-61624922D01*
X68811785Y-61624920D01*
X68814078Y-61620280D01*
X68881408Y-61398671D01*
X68911640Y-61169041D01*
X68913327Y-61100000D01*
X68897500Y-60907494D01*
X68911853Y-60837964D01*
X68961518Y-60787231D01*
X69030728Y-60771403D01*
X69097508Y-60795505D01*
X69112171Y-60808075D01*
X69229595Y-60925499D01*
X69263621Y-60987811D01*
X69266500Y-61014594D01*
X69266500Y-93321233D01*
X69265973Y-93332416D01*
X69264298Y-93339909D01*
X69264547Y-93347835D01*
X69264547Y-93347836D01*
X69266438Y-93407986D01*
X69266500Y-93411945D01*
X69266500Y-93439856D01*
X69266997Y-93443790D01*
X69266997Y-93443791D01*
X69267005Y-93443856D01*
X69267938Y-93455693D01*
X69269327Y-93499889D01*
X69274978Y-93519339D01*
X69278987Y-93538700D01*
X69281526Y-93558797D01*
X69284445Y-93566168D01*
X69284445Y-93566170D01*
X69297804Y-93599912D01*
X69301649Y-93611142D01*
X69313982Y-93653593D01*
X69318015Y-93660412D01*
X69318017Y-93660417D01*
X69324293Y-93671028D01*
X69332988Y-93688776D01*
X69340448Y-93707617D01*
X69345110Y-93714033D01*
X69345110Y-93714034D01*
X69366436Y-93743387D01*
X69372952Y-93753307D01*
X69395458Y-93791362D01*
X69409779Y-93805683D01*
X69422619Y-93820716D01*
X69434528Y-93837107D01*
X69440634Y-93842158D01*
X69468605Y-93865298D01*
X69477384Y-93873288D01*
X74304595Y-98700499D01*
X74338621Y-98762811D01*
X74341500Y-98789594D01*
X74341500Y-100048134D01*
X74348255Y-100110316D01*
X74399385Y-100246705D01*
X74486739Y-100363261D01*
X74603295Y-100450615D01*
X74739684Y-100501745D01*
X74801866Y-100508500D01*
X76398134Y-100508500D01*
X76460316Y-100501745D01*
X76596705Y-100450615D01*
X76713261Y-100363261D01*
X76800615Y-100246705D01*
X76851745Y-100110316D01*
X76858500Y-100048134D01*
X76858500Y-100013576D01*
X76878502Y-99945455D01*
X76932158Y-99898962D01*
X77002432Y-99888858D01*
X77067012Y-99918352D01*
X77087713Y-99941305D01*
X77160123Y-100044717D01*
X77172251Y-100062038D01*
X77327962Y-100217749D01*
X77332470Y-100220906D01*
X77332473Y-100220908D01*
X77369315Y-100246705D01*
X77452772Y-100305142D01*
X77497099Y-100360598D01*
X77506500Y-100408354D01*
X77506500Y-105045405D01*
X77486498Y-105113526D01*
X77469595Y-105134500D01*
X76881689Y-105722406D01*
X76819377Y-105756432D01*
X76748562Y-105751367D01*
X76691726Y-105708820D01*
X76666915Y-105642300D01*
X76666864Y-105625071D01*
X76668237Y-105604121D01*
X76668237Y-105604119D01*
X76668507Y-105600000D01*
X76667128Y-105578958D01*
X76648771Y-105298876D01*
X76648770Y-105298869D01*
X76648501Y-105294764D01*
X76647127Y-105287852D01*
X76589630Y-104998800D01*
X76589628Y-104998794D01*
X76588824Y-104994750D01*
X76490499Y-104705092D01*
X76488676Y-104701396D01*
X76488673Y-104701388D01*
X76357032Y-104434450D01*
X76355206Y-104430747D01*
X76185262Y-104176407D01*
X76182548Y-104173313D01*
X76182544Y-104173307D01*
X75986283Y-103949515D01*
X75983574Y-103946426D01*
X75980485Y-103943717D01*
X75756693Y-103747456D01*
X75756687Y-103747452D01*
X75753593Y-103744738D01*
X75750163Y-103742446D01*
X75750162Y-103742445D01*
X75502689Y-103577089D01*
X75502687Y-103577088D01*
X75499254Y-103574794D01*
X75450747Y-103550873D01*
X75228612Y-103441327D01*
X75228604Y-103441324D01*
X75224908Y-103439501D01*
X75220993Y-103438172D01*
X74939163Y-103342504D01*
X74939159Y-103342503D01*
X74935250Y-103341176D01*
X74931206Y-103340372D01*
X74931200Y-103340370D01*
X74639275Y-103282302D01*
X74639269Y-103282301D01*
X74635236Y-103281499D01*
X74631131Y-103281230D01*
X74631124Y-103281229D01*
X74334119Y-103261763D01*
X74330000Y-103261493D01*
X74325881Y-103261763D01*
X74028876Y-103281229D01*
X74028869Y-103281230D01*
X74024764Y-103281499D01*
X74020731Y-103282301D01*
X74020725Y-103282302D01*
X73728800Y-103340370D01*
X73728794Y-103340372D01*
X73724750Y-103341176D01*
X73720841Y-103342503D01*
X73720837Y-103342504D01*
X73439007Y-103438172D01*
X73435092Y-103439501D01*
X73431396Y-103441324D01*
X73431388Y-103441327D01*
X73210816Y-103550103D01*
X73160747Y-103574794D01*
X72906407Y-103744738D01*
X72903313Y-103747452D01*
X72903307Y-103747456D01*
X72679515Y-103943717D01*
X72676426Y-103946426D01*
X72673717Y-103949515D01*
X72477456Y-104173307D01*
X72477452Y-104173313D01*
X72474738Y-104176407D01*
X72304794Y-104430747D01*
X72302968Y-104434450D01*
X72171327Y-104701388D01*
X72171324Y-104701396D01*
X72169501Y-104705092D01*
X72071176Y-104994750D01*
X72070372Y-104998794D01*
X72070370Y-104998800D01*
X72012874Y-105287852D01*
X72011499Y-105294764D01*
X72011230Y-105298869D01*
X72011229Y-105298876D01*
X71992872Y-105578958D01*
X71991493Y-105600000D01*
X72011499Y-105905236D01*
X72071176Y-106205250D01*
X72169501Y-106494908D01*
X72171324Y-106498604D01*
X72171327Y-106498612D01*
X72233500Y-106624684D01*
X72304794Y-106769253D01*
X72474738Y-107023593D01*
X72477452Y-107026687D01*
X72477456Y-107026693D01*
X72522382Y-107077921D01*
X72676426Y-107253574D01*
X72679515Y-107256283D01*
X72903307Y-107452544D01*
X72903313Y-107452548D01*
X72906407Y-107455262D01*
X72909833Y-107457551D01*
X72909838Y-107457555D01*
X73157311Y-107622911D01*
X73160746Y-107625206D01*
X73164449Y-107627032D01*
X73431388Y-107758673D01*
X73431396Y-107758676D01*
X73435092Y-107760499D01*
X73439006Y-107761828D01*
X73439007Y-107761828D01*
X73720837Y-107857496D01*
X73720841Y-107857497D01*
X73724750Y-107858824D01*
X73728794Y-107859628D01*
X73728800Y-107859630D01*
X74020725Y-107917698D01*
X74020731Y-107917699D01*
X74024764Y-107918501D01*
X74028869Y-107918770D01*
X74028876Y-107918771D01*
X74325881Y-107938237D01*
X74330000Y-107938507D01*
X74334119Y-107938237D01*
X74334121Y-107938237D01*
X74355071Y-107936864D01*
X74424354Y-107952368D01*
X74474256Y-108002868D01*
X74488934Y-108072331D01*
X74463728Y-108138703D01*
X74452406Y-108151689D01*
X68507747Y-114096348D01*
X68499461Y-114103888D01*
X68492982Y-114108000D01*
X68487557Y-114113777D01*
X68446357Y-114157651D01*
X68443602Y-114160493D01*
X68423865Y-114180230D01*
X68421385Y-114183427D01*
X68413682Y-114192447D01*
X68383414Y-114224679D01*
X68379595Y-114231625D01*
X68379593Y-114231628D01*
X68373652Y-114242434D01*
X68362801Y-114258953D01*
X68350386Y-114274959D01*
X68347241Y-114282228D01*
X68347238Y-114282232D01*
X68332826Y-114315537D01*
X68327609Y-114326187D01*
X68306305Y-114364940D01*
X68304334Y-114372615D01*
X68304334Y-114372616D01*
X68301267Y-114384562D01*
X68294863Y-114403266D01*
X68286819Y-114421855D01*
X68285580Y-114429678D01*
X68285577Y-114429688D01*
X68279901Y-114465524D01*
X68277495Y-114477144D01*
X68266500Y-114519970D01*
X68266500Y-114540224D01*
X68264949Y-114559934D01*
X68261780Y-114579943D01*
X68262526Y-114587835D01*
X68265941Y-114623961D01*
X68266500Y-114635819D01*
X68266500Y-124337045D01*
X68246498Y-124405166D01*
X68192842Y-124451659D01*
X68122568Y-124461763D01*
X68057988Y-124432269D01*
X68035735Y-124407047D01*
X68017555Y-124379838D01*
X68017551Y-124379833D01*
X68015262Y-124376407D01*
X68012548Y-124373313D01*
X68012544Y-124373307D01*
X67816283Y-124149515D01*
X67813574Y-124146426D01*
X67747796Y-124088740D01*
X67586693Y-123947456D01*
X67586687Y-123947452D01*
X67583593Y-123944738D01*
X67580163Y-123942446D01*
X67580162Y-123942445D01*
X67332689Y-123777089D01*
X67332687Y-123777088D01*
X67329254Y-123774794D01*
X67280747Y-123750873D01*
X67058612Y-123641327D01*
X67058604Y-123641324D01*
X67054908Y-123639501D01*
X67050993Y-123638172D01*
X66769163Y-123542504D01*
X66769159Y-123542503D01*
X66765250Y-123541176D01*
X66761206Y-123540372D01*
X66761200Y-123540370D01*
X66469275Y-123482302D01*
X66469269Y-123482301D01*
X66465236Y-123481499D01*
X66461131Y-123481230D01*
X66461124Y-123481229D01*
X66164119Y-123461763D01*
X66160000Y-123461493D01*
X66155881Y-123461763D01*
X65858876Y-123481229D01*
X65858869Y-123481230D01*
X65854764Y-123481499D01*
X65850731Y-123482301D01*
X65850725Y-123482302D01*
X65558800Y-123540370D01*
X65558794Y-123540372D01*
X65554750Y-123541176D01*
X65550841Y-123542503D01*
X65550837Y-123542504D01*
X65269007Y-123638172D01*
X65265092Y-123639501D01*
X65261396Y-123641324D01*
X65261388Y-123641327D01*
X65040816Y-123750103D01*
X64990747Y-123774794D01*
X64736407Y-123944738D01*
X64733313Y-123947452D01*
X64733307Y-123947456D01*
X64572204Y-124088740D01*
X64506426Y-124146426D01*
X64503717Y-124149515D01*
X64307456Y-124373307D01*
X64307452Y-124373313D01*
X64304738Y-124376407D01*
X64134794Y-124630747D01*
X64132968Y-124634450D01*
X64001327Y-124901388D01*
X64001324Y-124901396D01*
X63999501Y-124905092D01*
X63901176Y-125194750D01*
X63841499Y-125494764D01*
X63821493Y-125800000D01*
X63841499Y-126105236D01*
X63901176Y-126405250D01*
X63999501Y-126694908D01*
X64001324Y-126698604D01*
X64001327Y-126698612D01*
X64053500Y-126804406D01*
X64134794Y-126969253D01*
X64304738Y-127223593D01*
X64307452Y-127226687D01*
X64307456Y-127226693D01*
X64352382Y-127277921D01*
X64506426Y-127453574D01*
X64509515Y-127456283D01*
X64733307Y-127652544D01*
X64733313Y-127652548D01*
X64736407Y-127655262D01*
X64739833Y-127657551D01*
X64739838Y-127657555D01*
X64987311Y-127822911D01*
X64990746Y-127825206D01*
X64994449Y-127827032D01*
X65261388Y-127958673D01*
X65261396Y-127958676D01*
X65265092Y-127960499D01*
X65269006Y-127961828D01*
X65269007Y-127961828D01*
X65550837Y-128057496D01*
X65550841Y-128057497D01*
X65554750Y-128058824D01*
X65558794Y-128059628D01*
X65558800Y-128059630D01*
X65850725Y-128117698D01*
X65850731Y-128117699D01*
X65854764Y-128118501D01*
X65858869Y-128118770D01*
X65858876Y-128118771D01*
X66155881Y-128138237D01*
X66160000Y-128138507D01*
X66164119Y-128138237D01*
X66461124Y-128118771D01*
X66461131Y-128118770D01*
X66465236Y-128118501D01*
X66469269Y-128117699D01*
X66469275Y-128117698D01*
X66761200Y-128059630D01*
X66761206Y-128059628D01*
X66765250Y-128058824D01*
X66769159Y-128057497D01*
X66769163Y-128057496D01*
X67050993Y-127961828D01*
X67050994Y-127961828D01*
X67054908Y-127960499D01*
X67058604Y-127958676D01*
X67058612Y-127958673D01*
X67325551Y-127827032D01*
X67329254Y-127825206D01*
X67332689Y-127822911D01*
X67580162Y-127657555D01*
X67580167Y-127657551D01*
X67583593Y-127655262D01*
X67586687Y-127652548D01*
X67586693Y-127652544D01*
X67810485Y-127456283D01*
X67813574Y-127453574D01*
X67967618Y-127277921D01*
X68012544Y-127226693D01*
X68012548Y-127226687D01*
X68015262Y-127223593D01*
X68035735Y-127192953D01*
X68090212Y-127147425D01*
X68160655Y-127138577D01*
X68224699Y-127169219D01*
X68262010Y-127229620D01*
X68266500Y-127262955D01*
X68266500Y-128485405D01*
X68246498Y-128553526D01*
X68229595Y-128574500D01*
X58307747Y-138496348D01*
X58299461Y-138503888D01*
X58292982Y-138508000D01*
X58287557Y-138513777D01*
X58246357Y-138557651D01*
X58243602Y-138560493D01*
X58223865Y-138580230D01*
X58221385Y-138583427D01*
X58213682Y-138592447D01*
X58183414Y-138624679D01*
X58179595Y-138631625D01*
X58179593Y-138631628D01*
X58173652Y-138642434D01*
X58162801Y-138658953D01*
X58150386Y-138674959D01*
X58147241Y-138682228D01*
X58147238Y-138682232D01*
X58132826Y-138715537D01*
X58127609Y-138726187D01*
X58106305Y-138764940D01*
X58104334Y-138772615D01*
X58104334Y-138772616D01*
X58101267Y-138784562D01*
X58094863Y-138803266D01*
X58086819Y-138821855D01*
X58085580Y-138829678D01*
X58085577Y-138829688D01*
X58079901Y-138865524D01*
X58077495Y-138877145D01*
X58069270Y-138909180D01*
X58032955Y-138970187D01*
X57969423Y-139001876D01*
X57898844Y-138994186D01*
X57871663Y-138978672D01*
X57773648Y-138905214D01*
X57758054Y-138896676D01*
X57637606Y-138851522D01*
X57622351Y-138847895D01*
X57571486Y-138842369D01*
X57564672Y-138842000D01*
X57292115Y-138842000D01*
X57276876Y-138846475D01*
X57275671Y-138847865D01*
X57274000Y-138855548D01*
X57274000Y-142339884D01*
X57278475Y-142355123D01*
X57279865Y-142356328D01*
X57287548Y-142357999D01*
X57564669Y-142357999D01*
X57571490Y-142357629D01*
X57622352Y-142352105D01*
X57637604Y-142348479D01*
X57758054Y-142303324D01*
X57773649Y-142294786D01*
X57864935Y-142226371D01*
X57931442Y-142201523D01*
X58000824Y-142216576D01*
X58051054Y-142266750D01*
X58066500Y-142327197D01*
X58066500Y-146415500D01*
X58046498Y-146483621D01*
X57992842Y-146530114D01*
X57940500Y-146541500D01*
X57901866Y-146541500D01*
X57839684Y-146548255D01*
X57703295Y-146599385D01*
X57586739Y-146686739D01*
X57499385Y-146803295D01*
X57448255Y-146939684D01*
X57441500Y-147001866D01*
X57441500Y-148798134D01*
X57448255Y-148860316D01*
X57451029Y-148867715D01*
X57499222Y-148996270D01*
X57504405Y-149067078D01*
X57470484Y-149129447D01*
X57408229Y-149163576D01*
X57381240Y-149166500D01*
X57314594Y-149166500D01*
X57246473Y-149146498D01*
X57225499Y-149129595D01*
X52670405Y-144574500D01*
X52636379Y-144512188D01*
X52633500Y-144485405D01*
X52633500Y-141894669D01*
X52912001Y-141894669D01*
X52912371Y-141901490D01*
X52917895Y-141952352D01*
X52921521Y-141967604D01*
X52966676Y-142088054D01*
X52975214Y-142103649D01*
X53051715Y-142205724D01*
X53064276Y-142218285D01*
X53166351Y-142294786D01*
X53181946Y-142303324D01*
X53302394Y-142348478D01*
X53317649Y-142352105D01*
X53368514Y-142357631D01*
X53375328Y-142358000D01*
X53647885Y-142358000D01*
X53663124Y-142353525D01*
X53664329Y-142352135D01*
X53666000Y-142344452D01*
X53666000Y-142339884D01*
X54174000Y-142339884D01*
X54178475Y-142355123D01*
X54179865Y-142356328D01*
X54187548Y-142357999D01*
X54464669Y-142357999D01*
X54471490Y-142357629D01*
X54522352Y-142352105D01*
X54537604Y-142348479D01*
X54658054Y-142303324D01*
X54673649Y-142294786D01*
X54775724Y-142218285D01*
X54788285Y-142205724D01*
X54864786Y-142103649D01*
X54873324Y-142088054D01*
X54918478Y-141967606D01*
X54922105Y-141952351D01*
X54927631Y-141901486D01*
X54928000Y-141894672D01*
X54928000Y-141894669D01*
X56012001Y-141894669D01*
X56012371Y-141901490D01*
X56017895Y-141952352D01*
X56021521Y-141967604D01*
X56066676Y-142088054D01*
X56075214Y-142103649D01*
X56151715Y-142205724D01*
X56164276Y-142218285D01*
X56266351Y-142294786D01*
X56281946Y-142303324D01*
X56402394Y-142348478D01*
X56417649Y-142352105D01*
X56468514Y-142357631D01*
X56475328Y-142358000D01*
X56747885Y-142358000D01*
X56763124Y-142353525D01*
X56764329Y-142352135D01*
X56766000Y-142344452D01*
X56766000Y-140872115D01*
X56761525Y-140856876D01*
X56760135Y-140855671D01*
X56752452Y-140854000D01*
X56030116Y-140854000D01*
X56014877Y-140858475D01*
X56013672Y-140859865D01*
X56012001Y-140867548D01*
X56012001Y-141894669D01*
X54928000Y-141894669D01*
X54928000Y-140872115D01*
X54923525Y-140856876D01*
X54922135Y-140855671D01*
X54914452Y-140854000D01*
X54192115Y-140854000D01*
X54176876Y-140858475D01*
X54175671Y-140859865D01*
X54174000Y-140867548D01*
X54174000Y-142339884D01*
X53666000Y-142339884D01*
X53666000Y-140872115D01*
X53661525Y-140856876D01*
X53660135Y-140855671D01*
X53652452Y-140854000D01*
X52930116Y-140854000D01*
X52914877Y-140858475D01*
X52913672Y-140859865D01*
X52912001Y-140867548D01*
X52912001Y-141894669D01*
X52633500Y-141894669D01*
X52633500Y-140327885D01*
X52912000Y-140327885D01*
X52916475Y-140343124D01*
X52917865Y-140344329D01*
X52925548Y-140346000D01*
X53647885Y-140346000D01*
X53663124Y-140341525D01*
X53664329Y-140340135D01*
X53666000Y-140332452D01*
X53666000Y-140327885D01*
X54174000Y-140327885D01*
X54178475Y-140343124D01*
X54179865Y-140344329D01*
X54187548Y-140346000D01*
X54909884Y-140346000D01*
X54925123Y-140341525D01*
X54926328Y-140340135D01*
X54927999Y-140332452D01*
X54927999Y-140327885D01*
X56012000Y-140327885D01*
X56016475Y-140343124D01*
X56017865Y-140344329D01*
X56025548Y-140346000D01*
X56747885Y-140346000D01*
X56763124Y-140341525D01*
X56764329Y-140340135D01*
X56766000Y-140332452D01*
X56766000Y-138860116D01*
X56761525Y-138844877D01*
X56760135Y-138843672D01*
X56752452Y-138842001D01*
X56475331Y-138842001D01*
X56468510Y-138842371D01*
X56417648Y-138847895D01*
X56402396Y-138851521D01*
X56281946Y-138896676D01*
X56266351Y-138905214D01*
X56164276Y-138981715D01*
X56151715Y-138994276D01*
X56075214Y-139096351D01*
X56066676Y-139111946D01*
X56021522Y-139232394D01*
X56017895Y-139247649D01*
X56012369Y-139298514D01*
X56012000Y-139305328D01*
X56012000Y-140327885D01*
X54927999Y-140327885D01*
X54927999Y-139305331D01*
X54927629Y-139298510D01*
X54922105Y-139247648D01*
X54918479Y-139232396D01*
X54873324Y-139111946D01*
X54864786Y-139096351D01*
X54788285Y-138994276D01*
X54775724Y-138981715D01*
X54673649Y-138905214D01*
X54658054Y-138896676D01*
X54537606Y-138851522D01*
X54522351Y-138847895D01*
X54471486Y-138842369D01*
X54464672Y-138842000D01*
X54192115Y-138842000D01*
X54176876Y-138846475D01*
X54175671Y-138847865D01*
X54174000Y-138855548D01*
X54174000Y-140327885D01*
X53666000Y-140327885D01*
X53666000Y-138860116D01*
X53661525Y-138844877D01*
X53660135Y-138843672D01*
X53652452Y-138842001D01*
X53375331Y-138842001D01*
X53368510Y-138842371D01*
X53317648Y-138847895D01*
X53302396Y-138851521D01*
X53181946Y-138896676D01*
X53166351Y-138905214D01*
X53064276Y-138981715D01*
X53051715Y-138994276D01*
X52975214Y-139096351D01*
X52966676Y-139111946D01*
X52921522Y-139232394D01*
X52917895Y-139247649D01*
X52912369Y-139298514D01*
X52912000Y-139305328D01*
X52912000Y-140327885D01*
X52633500Y-140327885D01*
X52633500Y-127277921D01*
X52653502Y-127209800D01*
X52707158Y-127163307D01*
X52777432Y-127153203D01*
X52842012Y-127182697D01*
X52864265Y-127207919D01*
X52874738Y-127223593D01*
X52877452Y-127226687D01*
X52877456Y-127226693D01*
X52922382Y-127277921D01*
X53076426Y-127453574D01*
X53079515Y-127456283D01*
X53303307Y-127652544D01*
X53303313Y-127652548D01*
X53306407Y-127655262D01*
X53309833Y-127657551D01*
X53309838Y-127657555D01*
X53557311Y-127822911D01*
X53560746Y-127825206D01*
X53564449Y-127827032D01*
X53831388Y-127958673D01*
X53831396Y-127958676D01*
X53835092Y-127960499D01*
X53839006Y-127961828D01*
X53839007Y-127961828D01*
X54120837Y-128057496D01*
X54120841Y-128057497D01*
X54124750Y-128058824D01*
X54128794Y-128059628D01*
X54128800Y-128059630D01*
X54420725Y-128117698D01*
X54420731Y-128117699D01*
X54424764Y-128118501D01*
X54428869Y-128118770D01*
X54428876Y-128118771D01*
X54725881Y-128138237D01*
X54730000Y-128138507D01*
X54734119Y-128138237D01*
X55031124Y-128118771D01*
X55031131Y-128118770D01*
X55035236Y-128118501D01*
X55039269Y-128117699D01*
X55039275Y-128117698D01*
X55331200Y-128059630D01*
X55331206Y-128059628D01*
X55335250Y-128058824D01*
X55339159Y-128057497D01*
X55339163Y-128057496D01*
X55620993Y-127961828D01*
X55620994Y-127961828D01*
X55624908Y-127960499D01*
X55628604Y-127958676D01*
X55628612Y-127958673D01*
X55895551Y-127827032D01*
X55899254Y-127825206D01*
X55902689Y-127822911D01*
X56150162Y-127657555D01*
X56150167Y-127657551D01*
X56153593Y-127655262D01*
X56156687Y-127652548D01*
X56156693Y-127652544D01*
X56380485Y-127456283D01*
X56383574Y-127453574D01*
X56537618Y-127277921D01*
X56582544Y-127226693D01*
X56582548Y-127226687D01*
X56585262Y-127223593D01*
X56755206Y-126969253D01*
X56836500Y-126804406D01*
X56888673Y-126698612D01*
X56888676Y-126698604D01*
X56890499Y-126694908D01*
X56988824Y-126405250D01*
X57048501Y-126105236D01*
X57068507Y-125800000D01*
X57048501Y-125494764D01*
X56988824Y-125194750D01*
X56890499Y-124905092D01*
X56888676Y-124901396D01*
X56888673Y-124901388D01*
X56757032Y-124634450D01*
X56755206Y-124630747D01*
X56585262Y-124376407D01*
X56582548Y-124373313D01*
X56582544Y-124373307D01*
X56386283Y-124149515D01*
X56383574Y-124146426D01*
X56317796Y-124088740D01*
X56156693Y-123947456D01*
X56156687Y-123947452D01*
X56153593Y-123944738D01*
X56150163Y-123942446D01*
X56150162Y-123942445D01*
X55902689Y-123777089D01*
X55902687Y-123777088D01*
X55899254Y-123774794D01*
X55850747Y-123750873D01*
X55628612Y-123641327D01*
X55628604Y-123641324D01*
X55624908Y-123639501D01*
X55620993Y-123638172D01*
X55339163Y-123542504D01*
X55339159Y-123542503D01*
X55335250Y-123541176D01*
X55331206Y-123540372D01*
X55331200Y-123540370D01*
X55039275Y-123482302D01*
X55039269Y-123482301D01*
X55035236Y-123481499D01*
X55031131Y-123481230D01*
X55031124Y-123481229D01*
X54734119Y-123461763D01*
X54730000Y-123461493D01*
X54725881Y-123461763D01*
X54428876Y-123481229D01*
X54428869Y-123481230D01*
X54424764Y-123481499D01*
X54420731Y-123482301D01*
X54420725Y-123482302D01*
X54128800Y-123540370D01*
X54128794Y-123540372D01*
X54124750Y-123541176D01*
X54120841Y-123542503D01*
X54120837Y-123542504D01*
X53839007Y-123638172D01*
X53835092Y-123639501D01*
X53831396Y-123641324D01*
X53831388Y-123641327D01*
X53610816Y-123750103D01*
X53560747Y-123774794D01*
X53306407Y-123944738D01*
X53303313Y-123947452D01*
X53303307Y-123947456D01*
X53142204Y-124088740D01*
X53076426Y-124146426D01*
X53073717Y-124149515D01*
X52877456Y-124373307D01*
X52877452Y-124373313D01*
X52874738Y-124376407D01*
X52864300Y-124392028D01*
X52864265Y-124392081D01*
X52809788Y-124437609D01*
X52739345Y-124446457D01*
X52675301Y-124415816D01*
X52637990Y-124355414D01*
X52633500Y-124322079D01*
X52633500Y-120248134D01*
X54741500Y-120248134D01*
X54748255Y-120310316D01*
X54799385Y-120446705D01*
X54886739Y-120563261D01*
X55003295Y-120650615D01*
X55139684Y-120701745D01*
X55201866Y-120708500D01*
X56798134Y-120708500D01*
X56860316Y-120701745D01*
X56996705Y-120650615D01*
X57113261Y-120563261D01*
X57200615Y-120446705D01*
X57251745Y-120310316D01*
X57258500Y-120248134D01*
X57258500Y-120213576D01*
X57278502Y-120145455D01*
X57332158Y-120098962D01*
X57402432Y-120088858D01*
X57467012Y-120118352D01*
X57487713Y-120141305D01*
X57560123Y-120244717D01*
X57572251Y-120262038D01*
X57727962Y-120417749D01*
X57908346Y-120544056D01*
X58107924Y-120637120D01*
X58320629Y-120694115D01*
X58540000Y-120713307D01*
X58759371Y-120694115D01*
X58972076Y-120637120D01*
X58977058Y-120634797D01*
X58977066Y-120634794D01*
X58997249Y-120625382D01*
X59067441Y-120614720D01*
X59132254Y-120643700D01*
X59171110Y-120703119D01*
X59176500Y-120739576D01*
X59176500Y-132187476D01*
X59156498Y-132255597D01*
X59144142Y-132271779D01*
X59070960Y-132353056D01*
X58975473Y-132518444D01*
X58916458Y-132700072D01*
X58896496Y-132890000D01*
X58916458Y-133079928D01*
X58975473Y-133261556D01*
X59070960Y-133426944D01*
X59198747Y-133568866D01*
X59353248Y-133681118D01*
X59359276Y-133683802D01*
X59359278Y-133683803D01*
X59521681Y-133756109D01*
X59527712Y-133758794D01*
X59621113Y-133778647D01*
X59708056Y-133797128D01*
X59708061Y-133797128D01*
X59714513Y-133798500D01*
X59905487Y-133798500D01*
X59911939Y-133797128D01*
X59911944Y-133797128D01*
X59998887Y-133778647D01*
X60092288Y-133758794D01*
X60098319Y-133756109D01*
X60260722Y-133683803D01*
X60260724Y-133683802D01*
X60266752Y-133681118D01*
X60421253Y-133568866D01*
X60549040Y-133426944D01*
X60644527Y-133261556D01*
X60703542Y-133079928D01*
X60723504Y-132890000D01*
X60703542Y-132700072D01*
X60644527Y-132518444D01*
X60549040Y-132353056D01*
X60475863Y-132271785D01*
X60445147Y-132207779D01*
X60443500Y-132187476D01*
X60443500Y-120739576D01*
X60463502Y-120671455D01*
X60517158Y-120624962D01*
X60587432Y-120614858D01*
X60622751Y-120625382D01*
X60642934Y-120634794D01*
X60642942Y-120634797D01*
X60647924Y-120637120D01*
X60860629Y-120694115D01*
X61080000Y-120713307D01*
X61299371Y-120694115D01*
X61512076Y-120637120D01*
X61711654Y-120544056D01*
X61892038Y-120417749D01*
X62047749Y-120262038D01*
X62059878Y-120244717D01*
X62170899Y-120086162D01*
X62170900Y-120086160D01*
X62174056Y-120081653D01*
X62176379Y-120076671D01*
X62176382Y-120076666D01*
X62235805Y-119949231D01*
X62282722Y-119895946D01*
X62350999Y-119876485D01*
X62418959Y-119897027D01*
X62464195Y-119949231D01*
X62523618Y-120076666D01*
X62523621Y-120076671D01*
X62525944Y-120081653D01*
X62529100Y-120086160D01*
X62529101Y-120086162D01*
X62640123Y-120244717D01*
X62652251Y-120262038D01*
X62807962Y-120417749D01*
X62988346Y-120544056D01*
X63187924Y-120637120D01*
X63400629Y-120694115D01*
X63620000Y-120713307D01*
X63839371Y-120694115D01*
X64052076Y-120637120D01*
X64251654Y-120544056D01*
X64432038Y-120417749D01*
X64587749Y-120262038D01*
X64599878Y-120244717D01*
X64710899Y-120086162D01*
X64710900Y-120086160D01*
X64714056Y-120081653D01*
X64716379Y-120076671D01*
X64716382Y-120076666D01*
X64804795Y-119887061D01*
X64807120Y-119882076D01*
X64864115Y-119669371D01*
X64883307Y-119450000D01*
X64864115Y-119230629D01*
X64807120Y-119017924D01*
X64763585Y-118924562D01*
X64716382Y-118823334D01*
X64716379Y-118823329D01*
X64714056Y-118818347D01*
X64703326Y-118803023D01*
X64590908Y-118642473D01*
X64590906Y-118642470D01*
X64587749Y-118637962D01*
X64432038Y-118482251D01*
X64251654Y-118355944D01*
X64052076Y-118262880D01*
X63839371Y-118205885D01*
X63620000Y-118186693D01*
X63400629Y-118205885D01*
X63187924Y-118262880D01*
X63140183Y-118285142D01*
X62993334Y-118353618D01*
X62993329Y-118353621D01*
X62988347Y-118355944D01*
X62983840Y-118359100D01*
X62983838Y-118359101D01*
X62812473Y-118479092D01*
X62812470Y-118479094D01*
X62807962Y-118482251D01*
X62652251Y-118637962D01*
X62649094Y-118642470D01*
X62649092Y-118642473D01*
X62536674Y-118803023D01*
X62525944Y-118818347D01*
X62523621Y-118823329D01*
X62523618Y-118823334D01*
X62464195Y-118950769D01*
X62417278Y-119004054D01*
X62349001Y-119023515D01*
X62281041Y-119002973D01*
X62235805Y-118950769D01*
X62176382Y-118823334D01*
X62176379Y-118823329D01*
X62174056Y-118818347D01*
X62163326Y-118803023D01*
X62050908Y-118642473D01*
X62050906Y-118642470D01*
X62047749Y-118637962D01*
X61892038Y-118482251D01*
X61711654Y-118355944D01*
X61512076Y-118262880D01*
X61299371Y-118205885D01*
X61080000Y-118186693D01*
X60860629Y-118205885D01*
X60647924Y-118262880D01*
X60642942Y-118265203D01*
X60642934Y-118265206D01*
X60622751Y-118274618D01*
X60552559Y-118285280D01*
X60487746Y-118256300D01*
X60448890Y-118196881D01*
X60443500Y-118160424D01*
X60443500Y-118068354D01*
X60463502Y-118000233D01*
X60497228Y-117965142D01*
X60564134Y-117918294D01*
X60617527Y-117880908D01*
X60617530Y-117880906D01*
X60622038Y-117877749D01*
X60777749Y-117722038D01*
X60904056Y-117541653D01*
X60906379Y-117536671D01*
X60906382Y-117536666D01*
X60965805Y-117409231D01*
X61012722Y-117355946D01*
X61080999Y-117336485D01*
X61148959Y-117357027D01*
X61194195Y-117409231D01*
X61253618Y-117536666D01*
X61253621Y-117536671D01*
X61255944Y-117541653D01*
X61382251Y-117722038D01*
X61537962Y-117877749D01*
X61718346Y-118004056D01*
X61917924Y-118097120D01*
X62130629Y-118154115D01*
X62350000Y-118173307D01*
X62569371Y-118154115D01*
X62782076Y-118097120D01*
X62981654Y-118004056D01*
X63162038Y-117877749D01*
X63317749Y-117722038D01*
X63444056Y-117541653D01*
X63446379Y-117536671D01*
X63446382Y-117536666D01*
X63505805Y-117409231D01*
X63552722Y-117355946D01*
X63620999Y-117336485D01*
X63688959Y-117357027D01*
X63734195Y-117409231D01*
X63793618Y-117536666D01*
X63793621Y-117536671D01*
X63795944Y-117541653D01*
X63922251Y-117722038D01*
X64077962Y-117877749D01*
X64258346Y-118004056D01*
X64457924Y-118097120D01*
X64670629Y-118154115D01*
X64890000Y-118173307D01*
X65109371Y-118154115D01*
X65322076Y-118097120D01*
X65521654Y-118004056D01*
X65702038Y-117877749D01*
X65857749Y-117722038D01*
X65984056Y-117541653D01*
X65986379Y-117536671D01*
X65986382Y-117536666D01*
X66074795Y-117347061D01*
X66077120Y-117342076D01*
X66134115Y-117129371D01*
X66153307Y-116910000D01*
X66134115Y-116690629D01*
X66077120Y-116477924D01*
X66033585Y-116384562D01*
X65986382Y-116283334D01*
X65986379Y-116283329D01*
X65984056Y-116278347D01*
X65857749Y-116097962D01*
X65702038Y-115942251D01*
X65521654Y-115815944D01*
X65322076Y-115722880D01*
X65109371Y-115665885D01*
X64890000Y-115646693D01*
X64670629Y-115665885D01*
X64457924Y-115722880D01*
X64432752Y-115734618D01*
X64263334Y-115813618D01*
X64263329Y-115813621D01*
X64258347Y-115815944D01*
X64253840Y-115819100D01*
X64253838Y-115819101D01*
X64082473Y-115939092D01*
X64082470Y-115939094D01*
X64077962Y-115942251D01*
X63922251Y-116097962D01*
X63795944Y-116278347D01*
X63793621Y-116283329D01*
X63793618Y-116283334D01*
X63734195Y-116410769D01*
X63687278Y-116464054D01*
X63619001Y-116483515D01*
X63551041Y-116462973D01*
X63505805Y-116410769D01*
X63446382Y-116283334D01*
X63446379Y-116283329D01*
X63444056Y-116278347D01*
X63317749Y-116097962D01*
X63162038Y-115942251D01*
X62981654Y-115815944D01*
X62782076Y-115722880D01*
X62569371Y-115665885D01*
X62350000Y-115646693D01*
X62130629Y-115665885D01*
X61917924Y-115722880D01*
X61892752Y-115734618D01*
X61723334Y-115813618D01*
X61723329Y-115813621D01*
X61718347Y-115815944D01*
X61713840Y-115819100D01*
X61713838Y-115819101D01*
X61542473Y-115939092D01*
X61542470Y-115939094D01*
X61537962Y-115942251D01*
X61382251Y-116097962D01*
X61255944Y-116278347D01*
X61253621Y-116283329D01*
X61253618Y-116283334D01*
X61194195Y-116410769D01*
X61147278Y-116464054D01*
X61079001Y-116483515D01*
X61011041Y-116462973D01*
X60965805Y-116410769D01*
X60906382Y-116283334D01*
X60906379Y-116283329D01*
X60904056Y-116278347D01*
X60777749Y-116097962D01*
X60622038Y-115942251D01*
X60441654Y-115815944D01*
X60242076Y-115722880D01*
X60029371Y-115665885D01*
X59810000Y-115646693D01*
X59590629Y-115665885D01*
X59377924Y-115722880D01*
X59352752Y-115734618D01*
X59183334Y-115813618D01*
X59183329Y-115813621D01*
X59178347Y-115815944D01*
X59173840Y-115819100D01*
X59173838Y-115819101D01*
X59002473Y-115939092D01*
X59002470Y-115939094D01*
X58997962Y-115942251D01*
X58842251Y-116097962D01*
X58715944Y-116278347D01*
X58713621Y-116283329D01*
X58713618Y-116283334D01*
X58654195Y-116410769D01*
X58607278Y-116464054D01*
X58539001Y-116483515D01*
X58471041Y-116462973D01*
X58425805Y-116410769D01*
X58366382Y-116283334D01*
X58366379Y-116283329D01*
X58364056Y-116278347D01*
X58237749Y-116097962D01*
X58082038Y-115942251D01*
X57901654Y-115815944D01*
X57702076Y-115722880D01*
X57489371Y-115665885D01*
X57270000Y-115646693D01*
X57050629Y-115665885D01*
X56837924Y-115722880D01*
X56812752Y-115734618D01*
X56643334Y-115813618D01*
X56643329Y-115813621D01*
X56638347Y-115815944D01*
X56633840Y-115819100D01*
X56633838Y-115819101D01*
X56462473Y-115939092D01*
X56462470Y-115939094D01*
X56457962Y-115942251D01*
X56302251Y-116097962D01*
X56175944Y-116278347D01*
X56173621Y-116283329D01*
X56173618Y-116283334D01*
X56126415Y-116384562D01*
X56082880Y-116477924D01*
X56025885Y-116690629D01*
X56006693Y-116910000D01*
X56025885Y-117129371D01*
X56082880Y-117342076D01*
X56085205Y-117347061D01*
X56173618Y-117536666D01*
X56173621Y-117536671D01*
X56175944Y-117541653D01*
X56302251Y-117722038D01*
X56457962Y-117877749D01*
X56462471Y-117880906D01*
X56462473Y-117880908D01*
X56578694Y-117962287D01*
X56623022Y-118017744D01*
X56630331Y-118088364D01*
X56598300Y-118151724D01*
X56537099Y-118187709D01*
X56506423Y-118191500D01*
X55201866Y-118191500D01*
X55139684Y-118198255D01*
X55003295Y-118249385D01*
X54886739Y-118336739D01*
X54799385Y-118453295D01*
X54748255Y-118589684D01*
X54741500Y-118651866D01*
X54741500Y-120248134D01*
X52633500Y-120248134D01*
X52633500Y-107077921D01*
X52653502Y-107009800D01*
X52707158Y-106963307D01*
X52777432Y-106953203D01*
X52842012Y-106982697D01*
X52864265Y-107007919D01*
X52874738Y-107023593D01*
X52877452Y-107026687D01*
X52877456Y-107026693D01*
X52922382Y-107077921D01*
X53076426Y-107253574D01*
X53079515Y-107256283D01*
X53303307Y-107452544D01*
X53303313Y-107452548D01*
X53306407Y-107455262D01*
X53309833Y-107457551D01*
X53309838Y-107457555D01*
X53557311Y-107622911D01*
X53560746Y-107625206D01*
X53564449Y-107627032D01*
X53831388Y-107758673D01*
X53831396Y-107758676D01*
X53835092Y-107760499D01*
X53839006Y-107761828D01*
X53839007Y-107761828D01*
X54120837Y-107857496D01*
X54120841Y-107857497D01*
X54124750Y-107858824D01*
X54128794Y-107859628D01*
X54128800Y-107859630D01*
X54420725Y-107917698D01*
X54420731Y-107917699D01*
X54424764Y-107918501D01*
X54428869Y-107918770D01*
X54428876Y-107918771D01*
X54725881Y-107938237D01*
X54730000Y-107938507D01*
X54734119Y-107938237D01*
X55031124Y-107918771D01*
X55031131Y-107918770D01*
X55035236Y-107918501D01*
X55039269Y-107917699D01*
X55039275Y-107917698D01*
X55331200Y-107859630D01*
X55331206Y-107859628D01*
X55335250Y-107858824D01*
X55339159Y-107857497D01*
X55339163Y-107857496D01*
X55620993Y-107761828D01*
X55620994Y-107761828D01*
X55624908Y-107760499D01*
X55628604Y-107758676D01*
X55628612Y-107758673D01*
X55895551Y-107627032D01*
X55899254Y-107625206D01*
X55902689Y-107622911D01*
X56150162Y-107457555D01*
X56150167Y-107457551D01*
X56153593Y-107455262D01*
X56156687Y-107452548D01*
X56156693Y-107452544D01*
X56380485Y-107256283D01*
X56383574Y-107253574D01*
X56537618Y-107077921D01*
X56582544Y-107026693D01*
X56582548Y-107026687D01*
X56585262Y-107023593D01*
X56755206Y-106769253D01*
X56826500Y-106624684D01*
X56888673Y-106498612D01*
X56888676Y-106498604D01*
X56890499Y-106494908D01*
X56988824Y-106205250D01*
X57048501Y-105905236D01*
X57068507Y-105600000D01*
X63821493Y-105600000D01*
X63841499Y-105905236D01*
X63901176Y-106205250D01*
X63999501Y-106494908D01*
X64001324Y-106498604D01*
X64001327Y-106498612D01*
X64063500Y-106624684D01*
X64134794Y-106769253D01*
X64304738Y-107023593D01*
X64307452Y-107026687D01*
X64307456Y-107026693D01*
X64352382Y-107077921D01*
X64506426Y-107253574D01*
X64509515Y-107256283D01*
X64733307Y-107452544D01*
X64733313Y-107452548D01*
X64736407Y-107455262D01*
X64739833Y-107457551D01*
X64739838Y-107457555D01*
X64987311Y-107622911D01*
X64990746Y-107625206D01*
X64994449Y-107627032D01*
X65261388Y-107758673D01*
X65261396Y-107758676D01*
X65265092Y-107760499D01*
X65269006Y-107761828D01*
X65269007Y-107761828D01*
X65550837Y-107857496D01*
X65550841Y-107857497D01*
X65554750Y-107858824D01*
X65558794Y-107859628D01*
X65558800Y-107859630D01*
X65850725Y-107917698D01*
X65850731Y-107917699D01*
X65854764Y-107918501D01*
X65858869Y-107918770D01*
X65858876Y-107918771D01*
X66155881Y-107938237D01*
X66160000Y-107938507D01*
X66164119Y-107938237D01*
X66461124Y-107918771D01*
X66461131Y-107918770D01*
X66465236Y-107918501D01*
X66469269Y-107917699D01*
X66469275Y-107917698D01*
X66761200Y-107859630D01*
X66761206Y-107859628D01*
X66765250Y-107858824D01*
X66769159Y-107857497D01*
X66769163Y-107857496D01*
X67050993Y-107761828D01*
X67050994Y-107761828D01*
X67054908Y-107760499D01*
X67058604Y-107758676D01*
X67058612Y-107758673D01*
X67325551Y-107627032D01*
X67329254Y-107625206D01*
X67332689Y-107622911D01*
X67580162Y-107457555D01*
X67580167Y-107457551D01*
X67583593Y-107455262D01*
X67586687Y-107452548D01*
X67586693Y-107452544D01*
X67810485Y-107256283D01*
X67813574Y-107253574D01*
X67967618Y-107077921D01*
X68012544Y-107026693D01*
X68012548Y-107026687D01*
X68015262Y-107023593D01*
X68185206Y-106769253D01*
X68256500Y-106624684D01*
X68318673Y-106498612D01*
X68318676Y-106498604D01*
X68320499Y-106494908D01*
X68418824Y-106205250D01*
X68478501Y-105905236D01*
X68498507Y-105600000D01*
X68497128Y-105578957D01*
X68478771Y-105298876D01*
X68478770Y-105298869D01*
X68478501Y-105294764D01*
X68477127Y-105287852D01*
X68419630Y-104998800D01*
X68419628Y-104998794D01*
X68418824Y-104994750D01*
X68320499Y-104705092D01*
X68318676Y-104701396D01*
X68318673Y-104701388D01*
X68187032Y-104434450D01*
X68185206Y-104430747D01*
X68015262Y-104176407D01*
X68012548Y-104173313D01*
X68012544Y-104173307D01*
X67816283Y-103949515D01*
X67813574Y-103946426D01*
X67810485Y-103943717D01*
X67586693Y-103747456D01*
X67586687Y-103747452D01*
X67583593Y-103744738D01*
X67580163Y-103742446D01*
X67580162Y-103742445D01*
X67332689Y-103577089D01*
X67332687Y-103577088D01*
X67329254Y-103574794D01*
X67280747Y-103550873D01*
X67058612Y-103441327D01*
X67058604Y-103441324D01*
X67054908Y-103439501D01*
X67050993Y-103438172D01*
X66769163Y-103342504D01*
X66769159Y-103342503D01*
X66765250Y-103341176D01*
X66761206Y-103340372D01*
X66761200Y-103340370D01*
X66469275Y-103282302D01*
X66469269Y-103282301D01*
X66465236Y-103281499D01*
X66461131Y-103281230D01*
X66461124Y-103281229D01*
X66164119Y-103261763D01*
X66160000Y-103261493D01*
X66155881Y-103261763D01*
X65858876Y-103281229D01*
X65858869Y-103281230D01*
X65854764Y-103281499D01*
X65850731Y-103282301D01*
X65850725Y-103282302D01*
X65558800Y-103340370D01*
X65558794Y-103340372D01*
X65554750Y-103341176D01*
X65550841Y-103342503D01*
X65550837Y-103342504D01*
X65269007Y-103438172D01*
X65265092Y-103439501D01*
X65261396Y-103441324D01*
X65261388Y-103441327D01*
X65040816Y-103550103D01*
X64990747Y-103574794D01*
X64736407Y-103744738D01*
X64733313Y-103747452D01*
X64733307Y-103747456D01*
X64509515Y-103943717D01*
X64506426Y-103946426D01*
X64503717Y-103949515D01*
X64307456Y-104173307D01*
X64307452Y-104173313D01*
X64304738Y-104176407D01*
X64134794Y-104430747D01*
X64132968Y-104434450D01*
X64001327Y-104701388D01*
X64001324Y-104701396D01*
X63999501Y-104705092D01*
X63901176Y-104994750D01*
X63900372Y-104998794D01*
X63900370Y-104998800D01*
X63842874Y-105287852D01*
X63841499Y-105294764D01*
X63841230Y-105298869D01*
X63841229Y-105298876D01*
X63822872Y-105578958D01*
X63821493Y-105600000D01*
X57068507Y-105600000D01*
X57067128Y-105578957D01*
X57048771Y-105298876D01*
X57048770Y-105298869D01*
X57048501Y-105294764D01*
X57047127Y-105287852D01*
X56989630Y-104998800D01*
X56989628Y-104998794D01*
X56988824Y-104994750D01*
X56890499Y-104705092D01*
X56888676Y-104701396D01*
X56888673Y-104701388D01*
X56757032Y-104434450D01*
X56755206Y-104430747D01*
X56585262Y-104176407D01*
X56582548Y-104173313D01*
X56582544Y-104173307D01*
X56386283Y-103949515D01*
X56383574Y-103946426D01*
X56380485Y-103943717D01*
X56156693Y-103747456D01*
X56156687Y-103747452D01*
X56153593Y-103744738D01*
X56150163Y-103742446D01*
X56150162Y-103742445D01*
X55902689Y-103577089D01*
X55902687Y-103577088D01*
X55899254Y-103574794D01*
X55850747Y-103550873D01*
X55628612Y-103441327D01*
X55628604Y-103441324D01*
X55624908Y-103439501D01*
X55620993Y-103438172D01*
X55339163Y-103342504D01*
X55339159Y-103342503D01*
X55335250Y-103341176D01*
X55331206Y-103340372D01*
X55331200Y-103340370D01*
X55039275Y-103282302D01*
X55039269Y-103282301D01*
X55035236Y-103281499D01*
X55031131Y-103281230D01*
X55031124Y-103281229D01*
X54734119Y-103261763D01*
X54730000Y-103261493D01*
X54725881Y-103261763D01*
X54428876Y-103281229D01*
X54428869Y-103281230D01*
X54424764Y-103281499D01*
X54420731Y-103282301D01*
X54420725Y-103282302D01*
X54128800Y-103340370D01*
X54128794Y-103340372D01*
X54124750Y-103341176D01*
X54120841Y-103342503D01*
X54120837Y-103342504D01*
X53839007Y-103438172D01*
X53835092Y-103439501D01*
X53831396Y-103441324D01*
X53831388Y-103441327D01*
X53610816Y-103550103D01*
X53560747Y-103574794D01*
X53306407Y-103744738D01*
X53303313Y-103747452D01*
X53303307Y-103747456D01*
X53079515Y-103943717D01*
X53076426Y-103946426D01*
X53073717Y-103949515D01*
X52877456Y-104173307D01*
X52877452Y-104173313D01*
X52874738Y-104176407D01*
X52864300Y-104192028D01*
X52864265Y-104192081D01*
X52809788Y-104237609D01*
X52739345Y-104246457D01*
X52675301Y-104215816D01*
X52637990Y-104155414D01*
X52633500Y-104122079D01*
X52633500Y-101859500D01*
X52653502Y-101791379D01*
X52707158Y-101744886D01*
X52759500Y-101733500D01*
X59021233Y-101733500D01*
X59032416Y-101734027D01*
X59039909Y-101735702D01*
X59047835Y-101735453D01*
X59047836Y-101735453D01*
X59107986Y-101733562D01*
X59111945Y-101733500D01*
X59139856Y-101733500D01*
X59143791Y-101733003D01*
X59143856Y-101732995D01*
X59155693Y-101732062D01*
X59187951Y-101731048D01*
X59191970Y-101730922D01*
X59199889Y-101730673D01*
X59219343Y-101725021D01*
X59238700Y-101721013D01*
X59250930Y-101719468D01*
X59250931Y-101719468D01*
X59258797Y-101718474D01*
X59266168Y-101715555D01*
X59266170Y-101715555D01*
X59299912Y-101702196D01*
X59311142Y-101698351D01*
X59345983Y-101688229D01*
X59345984Y-101688229D01*
X59353593Y-101686018D01*
X59360412Y-101681985D01*
X59360417Y-101681983D01*
X59371028Y-101675707D01*
X59388776Y-101667012D01*
X59407617Y-101659552D01*
X59443387Y-101633564D01*
X59453307Y-101627048D01*
X59484535Y-101608580D01*
X59484538Y-101608578D01*
X59491362Y-101604542D01*
X59505683Y-101590221D01*
X59520717Y-101577380D01*
X59530694Y-101570131D01*
X59537107Y-101565472D01*
X59565298Y-101531395D01*
X59573288Y-101522616D01*
X60202247Y-100893657D01*
X60210537Y-100886113D01*
X60217018Y-100882000D01*
X60263659Y-100832332D01*
X60266413Y-100829491D01*
X60286135Y-100809769D01*
X60288612Y-100806576D01*
X60296317Y-100797555D01*
X60321159Y-100771100D01*
X60326586Y-100765321D01*
X60330407Y-100758371D01*
X60336346Y-100747568D01*
X60347202Y-100731041D01*
X60354757Y-100721302D01*
X60354758Y-100721300D01*
X60359614Y-100715040D01*
X60377174Y-100674460D01*
X60382391Y-100663812D01*
X60399875Y-100632009D01*
X60399876Y-100632007D01*
X60403695Y-100625060D01*
X60408733Y-100605437D01*
X60415137Y-100586734D01*
X60420033Y-100575420D01*
X60420033Y-100575419D01*
X60423181Y-100568145D01*
X60424420Y-100560322D01*
X60424423Y-100560312D01*
X60430099Y-100524476D01*
X60432504Y-100512861D01*
X60435160Y-100502514D01*
X60471471Y-100441506D01*
X60535001Y-100409813D01*
X60610453Y-100419647D01*
X60647924Y-100437120D01*
X60860629Y-100494115D01*
X61080000Y-100513307D01*
X61299371Y-100494115D01*
X61512076Y-100437120D01*
X61711654Y-100344056D01*
X61892038Y-100217749D01*
X62047749Y-100062038D01*
X62059878Y-100044717D01*
X62170899Y-99886162D01*
X62170900Y-99886160D01*
X62174056Y-99881653D01*
X62176379Y-99876671D01*
X62176382Y-99876666D01*
X62235805Y-99749231D01*
X62282722Y-99695946D01*
X62350999Y-99676485D01*
X62418959Y-99697027D01*
X62464195Y-99749231D01*
X62523618Y-99876666D01*
X62523621Y-99876671D01*
X62525944Y-99881653D01*
X62529100Y-99886160D01*
X62529101Y-99886162D01*
X62640123Y-100044717D01*
X62652251Y-100062038D01*
X62807962Y-100217749D01*
X62988346Y-100344056D01*
X63187924Y-100437120D01*
X63400629Y-100494115D01*
X63620000Y-100513307D01*
X63839371Y-100494115D01*
X64052076Y-100437120D01*
X64251654Y-100344056D01*
X64432038Y-100217749D01*
X64587749Y-100062038D01*
X64599878Y-100044717D01*
X64710899Y-99886162D01*
X64710900Y-99886160D01*
X64714056Y-99881653D01*
X64716379Y-99876671D01*
X64716382Y-99876666D01*
X64775805Y-99749231D01*
X64807120Y-99682076D01*
X64864115Y-99469371D01*
X64883307Y-99250000D01*
X64864115Y-99030629D01*
X64807120Y-98817924D01*
X64752364Y-98700499D01*
X64716382Y-98623334D01*
X64716379Y-98623329D01*
X64714056Y-98618347D01*
X64620969Y-98485405D01*
X64590908Y-98442473D01*
X64590906Y-98442470D01*
X64587749Y-98437962D01*
X64432038Y-98282251D01*
X64251654Y-98155944D01*
X64052076Y-98062880D01*
X63839371Y-98005885D01*
X63620000Y-97986693D01*
X63400629Y-98005885D01*
X63187924Y-98062880D01*
X63148845Y-98081103D01*
X62993334Y-98153618D01*
X62993329Y-98153621D01*
X62988347Y-98155944D01*
X62983840Y-98159100D01*
X62983838Y-98159101D01*
X62812473Y-98279092D01*
X62812470Y-98279094D01*
X62807962Y-98282251D01*
X62652251Y-98437962D01*
X62649094Y-98442470D01*
X62649092Y-98442473D01*
X62619031Y-98485405D01*
X62525944Y-98618347D01*
X62523621Y-98623329D01*
X62523618Y-98623334D01*
X62464195Y-98750769D01*
X62417278Y-98804054D01*
X62349001Y-98823515D01*
X62281041Y-98802973D01*
X62235805Y-98750769D01*
X62176382Y-98623334D01*
X62176379Y-98623329D01*
X62174056Y-98618347D01*
X62080969Y-98485405D01*
X62050908Y-98442473D01*
X62050906Y-98442470D01*
X62047749Y-98437962D01*
X61892038Y-98282251D01*
X61711654Y-98155944D01*
X61512076Y-98062880D01*
X61299371Y-98005885D01*
X61080000Y-97986693D01*
X60860629Y-98005885D01*
X60647924Y-98062880D01*
X60642942Y-98065203D01*
X60642934Y-98065206D01*
X60622751Y-98074618D01*
X60552559Y-98085280D01*
X60487746Y-98056300D01*
X60448890Y-97996881D01*
X60443500Y-97960424D01*
X60443500Y-97868354D01*
X60463502Y-97800233D01*
X60497228Y-97765142D01*
X60564134Y-97718294D01*
X60617527Y-97680908D01*
X60617532Y-97680904D01*
X60622038Y-97677749D01*
X60777749Y-97522038D01*
X60904056Y-97341653D01*
X60906379Y-97336671D01*
X60906382Y-97336666D01*
X60965805Y-97209231D01*
X61012722Y-97155946D01*
X61080999Y-97136485D01*
X61148959Y-97157027D01*
X61194195Y-97209231D01*
X61253618Y-97336666D01*
X61253621Y-97336671D01*
X61255944Y-97341653D01*
X61382251Y-97522038D01*
X61537962Y-97677749D01*
X61542468Y-97680904D01*
X61542473Y-97680908D01*
X61617241Y-97733261D01*
X61718346Y-97804056D01*
X61917924Y-97897120D01*
X62130629Y-97954115D01*
X62350000Y-97973307D01*
X62569371Y-97954115D01*
X62782076Y-97897120D01*
X62981654Y-97804056D01*
X63082759Y-97733261D01*
X63157527Y-97680908D01*
X63157532Y-97680904D01*
X63162038Y-97677749D01*
X63317749Y-97522038D01*
X63444056Y-97341653D01*
X63446379Y-97336671D01*
X63446382Y-97336666D01*
X63505805Y-97209231D01*
X63552722Y-97155946D01*
X63620999Y-97136485D01*
X63688959Y-97157027D01*
X63734195Y-97209231D01*
X63793618Y-97336666D01*
X63793621Y-97336671D01*
X63795944Y-97341653D01*
X63922251Y-97522038D01*
X64077962Y-97677749D01*
X64082468Y-97680904D01*
X64082473Y-97680908D01*
X64157241Y-97733261D01*
X64258346Y-97804056D01*
X64457924Y-97897120D01*
X64670629Y-97954115D01*
X64890000Y-97973307D01*
X65109371Y-97954115D01*
X65322076Y-97897120D01*
X65521654Y-97804056D01*
X65622759Y-97733261D01*
X65697527Y-97680908D01*
X65697532Y-97680904D01*
X65702038Y-97677749D01*
X65857749Y-97522038D01*
X65984056Y-97341653D01*
X65986379Y-97336671D01*
X65986382Y-97336666D01*
X66074795Y-97147061D01*
X66077120Y-97142076D01*
X66134115Y-96929371D01*
X66153307Y-96710000D01*
X66134115Y-96490629D01*
X66077120Y-96277924D01*
X66033585Y-96184562D01*
X65986382Y-96083334D01*
X65986379Y-96083329D01*
X65984056Y-96078347D01*
X65857749Y-95897962D01*
X65702038Y-95742251D01*
X65521654Y-95615944D01*
X65322076Y-95522880D01*
X65109371Y-95465885D01*
X64890000Y-95446693D01*
X64670629Y-95465885D01*
X64457924Y-95522880D01*
X64411268Y-95544636D01*
X64263334Y-95613618D01*
X64263329Y-95613621D01*
X64258347Y-95615944D01*
X64253840Y-95619100D01*
X64253838Y-95619101D01*
X64082473Y-95739092D01*
X64082470Y-95739094D01*
X64077962Y-95742251D01*
X63922251Y-95897962D01*
X63795944Y-96078347D01*
X63793621Y-96083329D01*
X63793618Y-96083334D01*
X63734195Y-96210769D01*
X63687278Y-96264054D01*
X63619001Y-96283515D01*
X63551041Y-96262973D01*
X63505805Y-96210769D01*
X63446382Y-96083334D01*
X63446379Y-96083329D01*
X63444056Y-96078347D01*
X63317749Y-95897962D01*
X63162038Y-95742251D01*
X62981654Y-95615944D01*
X62782076Y-95522880D01*
X62569371Y-95465885D01*
X62350000Y-95446693D01*
X62130629Y-95465885D01*
X61917924Y-95522880D01*
X61871268Y-95544636D01*
X61723334Y-95613618D01*
X61723329Y-95613621D01*
X61718347Y-95615944D01*
X61713840Y-95619100D01*
X61713838Y-95619101D01*
X61542473Y-95739092D01*
X61542470Y-95739094D01*
X61537962Y-95742251D01*
X61382251Y-95897962D01*
X61255944Y-96078347D01*
X61253621Y-96083329D01*
X61253618Y-96083334D01*
X61194195Y-96210769D01*
X61147278Y-96264054D01*
X61079001Y-96283515D01*
X61011041Y-96262973D01*
X60965805Y-96210769D01*
X60906382Y-96083334D01*
X60906379Y-96083329D01*
X60904056Y-96078347D01*
X60777749Y-95897962D01*
X60622038Y-95742251D01*
X60441654Y-95615944D01*
X60242076Y-95522880D01*
X60029371Y-95465885D01*
X59810000Y-95446693D01*
X59590629Y-95465885D01*
X59377924Y-95522880D01*
X59331268Y-95544636D01*
X59312750Y-95553271D01*
X59242558Y-95563932D01*
X59177745Y-95534952D01*
X59138889Y-95475532D01*
X59133500Y-95439076D01*
X59133500Y-61314594D01*
X59153502Y-61246473D01*
X59170405Y-61225499D01*
X63692253Y-56703652D01*
X63700539Y-56696112D01*
X63707018Y-56692000D01*
X63753644Y-56642348D01*
X63756398Y-56639507D01*
X63776135Y-56619770D01*
X63778615Y-56616573D01*
X63786320Y-56607551D01*
X63793704Y-56599688D01*
X63816586Y-56575321D01*
X63820405Y-56568375D01*
X63820407Y-56568372D01*
X63826348Y-56557566D01*
X63837199Y-56541047D01*
X63844758Y-56531301D01*
X63849614Y-56525041D01*
X63852759Y-56517772D01*
X63852762Y-56517768D01*
X63867174Y-56484463D01*
X63872391Y-56473813D01*
X63893695Y-56435060D01*
X63898733Y-56415437D01*
X63905137Y-56396734D01*
X63910033Y-56385420D01*
X63910033Y-56385419D01*
X63913181Y-56378145D01*
X63914420Y-56370322D01*
X63914423Y-56370312D01*
X63920099Y-56334476D01*
X63922505Y-56322856D01*
X63931528Y-56287711D01*
X63931528Y-56287710D01*
X63933500Y-56280030D01*
X63933500Y-56259776D01*
X63935051Y-56240065D01*
X63936980Y-56227886D01*
X63938220Y-56220057D01*
X63934059Y-56176038D01*
X63933500Y-56164181D01*
X63933500Y-55786197D01*
X63953502Y-55718076D01*
X64007158Y-55671583D01*
X64077432Y-55661479D01*
X64142012Y-55690973D01*
G37*
%TD.AperFunction*%
%TA.AperFunction,Conductor*%
G36*
X88720399Y-86852951D02*
G01*
X88760389Y-86911614D01*
X88766500Y-86950379D01*
X88766500Y-115885406D01*
X88746498Y-115953527D01*
X88729595Y-115974501D01*
X84549891Y-120154204D01*
X84487579Y-120188230D01*
X84416763Y-120183165D01*
X84359928Y-120140618D01*
X84335117Y-120074098D01*
X84346601Y-120011859D01*
X84404795Y-119887061D01*
X84407120Y-119882076D01*
X84464115Y-119669371D01*
X84483307Y-119450000D01*
X84464115Y-119230629D01*
X84407120Y-119017924D01*
X84363585Y-118924562D01*
X84316382Y-118823334D01*
X84316379Y-118823329D01*
X84314056Y-118818347D01*
X84303326Y-118803023D01*
X84190908Y-118642473D01*
X84190906Y-118642470D01*
X84187749Y-118637962D01*
X84032038Y-118482251D01*
X83851654Y-118355944D01*
X83652076Y-118262880D01*
X83439371Y-118205885D01*
X83220000Y-118186693D01*
X83000629Y-118205885D01*
X82787924Y-118262880D01*
X82740183Y-118285142D01*
X82593334Y-118353618D01*
X82593329Y-118353621D01*
X82588347Y-118355944D01*
X82583840Y-118359100D01*
X82583838Y-118359101D01*
X82412473Y-118479092D01*
X82412470Y-118479094D01*
X82407962Y-118482251D01*
X82252251Y-118637962D01*
X82249094Y-118642470D01*
X82249092Y-118642473D01*
X82136674Y-118803023D01*
X82125944Y-118818347D01*
X82123621Y-118823329D01*
X82123618Y-118823334D01*
X82064195Y-118950769D01*
X82017278Y-119004054D01*
X81949001Y-119023515D01*
X81881041Y-119002973D01*
X81835805Y-118950769D01*
X81776382Y-118823334D01*
X81776379Y-118823329D01*
X81774056Y-118818347D01*
X81763326Y-118803023D01*
X81650908Y-118642473D01*
X81650906Y-118642470D01*
X81647749Y-118637962D01*
X81492038Y-118482251D01*
X81311654Y-118355944D01*
X81112076Y-118262880D01*
X80899371Y-118205885D01*
X80680000Y-118186693D01*
X80460629Y-118205885D01*
X80247924Y-118262880D01*
X80200183Y-118285142D01*
X80053334Y-118353618D01*
X80053329Y-118353621D01*
X80048347Y-118355944D01*
X80043840Y-118359100D01*
X80043838Y-118359101D01*
X79872473Y-118479092D01*
X79872470Y-118479094D01*
X79867962Y-118482251D01*
X79712251Y-118637962D01*
X79709094Y-118642470D01*
X79709092Y-118642473D01*
X79596674Y-118803023D01*
X79585944Y-118818347D01*
X79583621Y-118823329D01*
X79583618Y-118823334D01*
X79524195Y-118950769D01*
X79477278Y-119004054D01*
X79409001Y-119023515D01*
X79341041Y-119002973D01*
X79295805Y-118950769D01*
X79236382Y-118823334D01*
X79236379Y-118823329D01*
X79234056Y-118818347D01*
X79223326Y-118803023D01*
X79110908Y-118642473D01*
X79110906Y-118642470D01*
X79107749Y-118637962D01*
X78952038Y-118482251D01*
X78771654Y-118355944D01*
X78572076Y-118262880D01*
X78359371Y-118205885D01*
X78140000Y-118186693D01*
X77920629Y-118205885D01*
X77707924Y-118262880D01*
X77660183Y-118285142D01*
X77513334Y-118353618D01*
X77513329Y-118353621D01*
X77508347Y-118355944D01*
X77503840Y-118359100D01*
X77503838Y-118359101D01*
X77332473Y-118479092D01*
X77332470Y-118479094D01*
X77327962Y-118482251D01*
X77172251Y-118637962D01*
X77169094Y-118642470D01*
X77169092Y-118642473D01*
X77087713Y-118758695D01*
X77032256Y-118803023D01*
X76961637Y-118810332D01*
X76898276Y-118778301D01*
X76862291Y-118717100D01*
X76858500Y-118686424D01*
X76858500Y-118651866D01*
X76851745Y-118589684D01*
X76800615Y-118453295D01*
X76740308Y-118372827D01*
X76715461Y-118306321D01*
X76730514Y-118236939D01*
X76780689Y-118186709D01*
X76852119Y-118171743D01*
X76864518Y-118172828D01*
X76864525Y-118172828D01*
X76870000Y-118173307D01*
X77089371Y-118154115D01*
X77302076Y-118097120D01*
X77501654Y-118004056D01*
X77682038Y-117877749D01*
X77837749Y-117722038D01*
X77964056Y-117541653D01*
X77966379Y-117536671D01*
X77966382Y-117536666D01*
X78025805Y-117409231D01*
X78072722Y-117355946D01*
X78140999Y-117336485D01*
X78208959Y-117357027D01*
X78254195Y-117409231D01*
X78313618Y-117536666D01*
X78313621Y-117536671D01*
X78315944Y-117541653D01*
X78442251Y-117722038D01*
X78597962Y-117877749D01*
X78778346Y-118004056D01*
X78977924Y-118097120D01*
X79190629Y-118154115D01*
X79410000Y-118173307D01*
X79629371Y-118154115D01*
X79842076Y-118097120D01*
X80041654Y-118004056D01*
X80222038Y-117877749D01*
X80377749Y-117722038D01*
X80504056Y-117541653D01*
X80506379Y-117536671D01*
X80506382Y-117536666D01*
X80565805Y-117409231D01*
X80612722Y-117355946D01*
X80680999Y-117336485D01*
X80748959Y-117357027D01*
X80794195Y-117409231D01*
X80853618Y-117536666D01*
X80853621Y-117536671D01*
X80855944Y-117541653D01*
X80982251Y-117722038D01*
X81137962Y-117877749D01*
X81318346Y-118004056D01*
X81517924Y-118097120D01*
X81730629Y-118154115D01*
X81950000Y-118173307D01*
X82169371Y-118154115D01*
X82382076Y-118097120D01*
X82581654Y-118004056D01*
X82762038Y-117877749D01*
X82917749Y-117722038D01*
X83044056Y-117541653D01*
X83046379Y-117536671D01*
X83046382Y-117536666D01*
X83105805Y-117409231D01*
X83152722Y-117355946D01*
X83220999Y-117336485D01*
X83288959Y-117357027D01*
X83334195Y-117409231D01*
X83393618Y-117536666D01*
X83393621Y-117536671D01*
X83395944Y-117541653D01*
X83522251Y-117722038D01*
X83677962Y-117877749D01*
X83858346Y-118004056D01*
X84057924Y-118097120D01*
X84270629Y-118154115D01*
X84490000Y-118173307D01*
X84709371Y-118154115D01*
X84922076Y-118097120D01*
X85121654Y-118004056D01*
X85302038Y-117877749D01*
X85457749Y-117722038D01*
X85584056Y-117541653D01*
X85586379Y-117536671D01*
X85586382Y-117536666D01*
X85674795Y-117347061D01*
X85677120Y-117342076D01*
X85734115Y-117129371D01*
X85753307Y-116910000D01*
X85734115Y-116690629D01*
X85677120Y-116477924D01*
X85633585Y-116384562D01*
X85586382Y-116283334D01*
X85586379Y-116283329D01*
X85584056Y-116278347D01*
X85457749Y-116097962D01*
X85302038Y-115942251D01*
X85121654Y-115815944D01*
X84922076Y-115722880D01*
X84709371Y-115665885D01*
X84490000Y-115646693D01*
X84270629Y-115665885D01*
X84057924Y-115722880D01*
X84032752Y-115734618D01*
X83863334Y-115813618D01*
X83863329Y-115813621D01*
X83858347Y-115815944D01*
X83853840Y-115819100D01*
X83853838Y-115819101D01*
X83682473Y-115939092D01*
X83682470Y-115939094D01*
X83677962Y-115942251D01*
X83522251Y-116097962D01*
X83395944Y-116278347D01*
X83393621Y-116283329D01*
X83393618Y-116283334D01*
X83334195Y-116410769D01*
X83287278Y-116464054D01*
X83219001Y-116483515D01*
X83151041Y-116462973D01*
X83105805Y-116410769D01*
X83046382Y-116283334D01*
X83046379Y-116283329D01*
X83044056Y-116278347D01*
X82917749Y-116097962D01*
X82762038Y-115942251D01*
X82581654Y-115815944D01*
X82382076Y-115722880D01*
X82169371Y-115665885D01*
X81950000Y-115646693D01*
X81730629Y-115665885D01*
X81517924Y-115722880D01*
X81492752Y-115734618D01*
X81323334Y-115813618D01*
X81323329Y-115813621D01*
X81318347Y-115815944D01*
X81313840Y-115819100D01*
X81313838Y-115819101D01*
X81142473Y-115939092D01*
X81142470Y-115939094D01*
X81137962Y-115942251D01*
X80982251Y-116097962D01*
X80855944Y-116278347D01*
X80853621Y-116283329D01*
X80853618Y-116283334D01*
X80794195Y-116410769D01*
X80747278Y-116464054D01*
X80679001Y-116483515D01*
X80611041Y-116462973D01*
X80565805Y-116410769D01*
X80506382Y-116283334D01*
X80506379Y-116283329D01*
X80504056Y-116278347D01*
X80377749Y-116097962D01*
X80222038Y-115942251D01*
X80217530Y-115939094D01*
X80217527Y-115939092D01*
X80140855Y-115885406D01*
X80097228Y-115854858D01*
X80052901Y-115799402D01*
X80043500Y-115751646D01*
X80043500Y-108504594D01*
X80063502Y-108436473D01*
X80080405Y-108415499D01*
X83221638Y-105274266D01*
X83283950Y-105240240D01*
X83354765Y-105245305D01*
X83411601Y-105287852D01*
X83436412Y-105354372D01*
X83436463Y-105371599D01*
X83421493Y-105600000D01*
X83441499Y-105905236D01*
X83501176Y-106205250D01*
X83599501Y-106494908D01*
X83601324Y-106498604D01*
X83601327Y-106498612D01*
X83663500Y-106624684D01*
X83734794Y-106769253D01*
X83904738Y-107023593D01*
X83907452Y-107026687D01*
X83907456Y-107026693D01*
X83952382Y-107077921D01*
X84106426Y-107253574D01*
X84109515Y-107256283D01*
X84333307Y-107452544D01*
X84333313Y-107452548D01*
X84336407Y-107455262D01*
X84339833Y-107457551D01*
X84339838Y-107457555D01*
X84587311Y-107622911D01*
X84590746Y-107625206D01*
X84594449Y-107627032D01*
X84861388Y-107758673D01*
X84861396Y-107758676D01*
X84865092Y-107760499D01*
X84869006Y-107761828D01*
X84869007Y-107761828D01*
X85150837Y-107857496D01*
X85150841Y-107857497D01*
X85154750Y-107858824D01*
X85158794Y-107859628D01*
X85158800Y-107859630D01*
X85450725Y-107917698D01*
X85450731Y-107917699D01*
X85454764Y-107918501D01*
X85458869Y-107918770D01*
X85458876Y-107918771D01*
X85755881Y-107938237D01*
X85760000Y-107938507D01*
X85764119Y-107938237D01*
X86061124Y-107918771D01*
X86061131Y-107918770D01*
X86065236Y-107918501D01*
X86069269Y-107917699D01*
X86069275Y-107917698D01*
X86361200Y-107859630D01*
X86361206Y-107859628D01*
X86365250Y-107858824D01*
X86369159Y-107857497D01*
X86369163Y-107857496D01*
X86650993Y-107761828D01*
X86650994Y-107761828D01*
X86654908Y-107760499D01*
X86658604Y-107758676D01*
X86658612Y-107758673D01*
X86925551Y-107627032D01*
X86929254Y-107625206D01*
X86932689Y-107622911D01*
X87180162Y-107457555D01*
X87180167Y-107457551D01*
X87183593Y-107455262D01*
X87186687Y-107452548D01*
X87186693Y-107452544D01*
X87410485Y-107256283D01*
X87413574Y-107253574D01*
X87567618Y-107077921D01*
X87612544Y-107026693D01*
X87612548Y-107026687D01*
X87615262Y-107023593D01*
X87785206Y-106769253D01*
X87856500Y-106624684D01*
X87918673Y-106498612D01*
X87918676Y-106498604D01*
X87920499Y-106494908D01*
X88018824Y-106205250D01*
X88078501Y-105905236D01*
X88098507Y-105600000D01*
X88097128Y-105578958D01*
X88078771Y-105298876D01*
X88078770Y-105298869D01*
X88078501Y-105294764D01*
X88077127Y-105287852D01*
X88019630Y-104998800D01*
X88019628Y-104998794D01*
X88018824Y-104994750D01*
X87920499Y-104705092D01*
X87918676Y-104701396D01*
X87918673Y-104701388D01*
X87787032Y-104434450D01*
X87785206Y-104430747D01*
X87615262Y-104176407D01*
X87612548Y-104173313D01*
X87612544Y-104173307D01*
X87416283Y-103949515D01*
X87413574Y-103946426D01*
X87410485Y-103943717D01*
X87186693Y-103747456D01*
X87186687Y-103747452D01*
X87183593Y-103744738D01*
X87180163Y-103742446D01*
X87180162Y-103742445D01*
X86932689Y-103577089D01*
X86932687Y-103577088D01*
X86929254Y-103574794D01*
X86880747Y-103550873D01*
X86658612Y-103441327D01*
X86658604Y-103441324D01*
X86654908Y-103439501D01*
X86650993Y-103438172D01*
X86369163Y-103342504D01*
X86369159Y-103342503D01*
X86365250Y-103341176D01*
X86361206Y-103340372D01*
X86361200Y-103340370D01*
X86069275Y-103282302D01*
X86069269Y-103282301D01*
X86065236Y-103281499D01*
X86061131Y-103281230D01*
X86061124Y-103281229D01*
X85764119Y-103261763D01*
X85760000Y-103261493D01*
X85531601Y-103276463D01*
X85462319Y-103260959D01*
X85412416Y-103210459D01*
X85397738Y-103140997D01*
X85422944Y-103074625D01*
X85434266Y-103061638D01*
X86992247Y-101503657D01*
X87000537Y-101496113D01*
X87007018Y-101492000D01*
X87053659Y-101442332D01*
X87056413Y-101439491D01*
X87076135Y-101419769D01*
X87078612Y-101416576D01*
X87086317Y-101407555D01*
X87111159Y-101381100D01*
X87116586Y-101375321D01*
X87123687Y-101362404D01*
X87126346Y-101357568D01*
X87137202Y-101341041D01*
X87144757Y-101331302D01*
X87144758Y-101331300D01*
X87149614Y-101325040D01*
X87167174Y-101284460D01*
X87172391Y-101273812D01*
X87189875Y-101242009D01*
X87189876Y-101242007D01*
X87193695Y-101235060D01*
X87198733Y-101215437D01*
X87205137Y-101196734D01*
X87210033Y-101185420D01*
X87210033Y-101185419D01*
X87213181Y-101178145D01*
X87214420Y-101170322D01*
X87214423Y-101170312D01*
X87220099Y-101134476D01*
X87222505Y-101122856D01*
X87231528Y-101087711D01*
X87231528Y-101087710D01*
X87233500Y-101080030D01*
X87233500Y-101059776D01*
X87235051Y-101040065D01*
X87236980Y-101027886D01*
X87238220Y-101020057D01*
X87234059Y-100976038D01*
X87233500Y-100964181D01*
X87233500Y-87042733D01*
X87253502Y-86974612D01*
X87307158Y-86928119D01*
X87377432Y-86918015D01*
X87404449Y-86925023D01*
X87419214Y-86930661D01*
X87519692Y-86969030D01*
X87524760Y-86970061D01*
X87524763Y-86970062D01*
X87632017Y-86991883D01*
X87738597Y-87013567D01*
X87743772Y-87013757D01*
X87743774Y-87013757D01*
X87956673Y-87021564D01*
X87956677Y-87021564D01*
X87961837Y-87021753D01*
X87966957Y-87021097D01*
X87966959Y-87021097D01*
X88178288Y-86994025D01*
X88178289Y-86994025D01*
X88183416Y-86993368D01*
X88188366Y-86991883D01*
X88392429Y-86930661D01*
X88392434Y-86930659D01*
X88397384Y-86929174D01*
X88585070Y-86837228D01*
X88655041Y-86825221D01*
X88720399Y-86852951D01*
G37*
%TD.AperFunction*%
%TA.AperFunction,Conductor*%
G36*
X78694532Y-108605538D02*
G01*
X78751368Y-108648085D01*
X78776179Y-108714605D01*
X78776500Y-108723594D01*
X78776500Y-115751646D01*
X78756498Y-115819767D01*
X78722772Y-115854858D01*
X78679145Y-115885406D01*
X78602473Y-115939092D01*
X78602470Y-115939094D01*
X78597962Y-115942251D01*
X78442251Y-116097962D01*
X78315944Y-116278347D01*
X78313621Y-116283329D01*
X78313618Y-116283334D01*
X78254195Y-116410769D01*
X78207278Y-116464054D01*
X78139001Y-116483515D01*
X78071041Y-116462973D01*
X78025805Y-116410769D01*
X77966382Y-116283334D01*
X77966379Y-116283329D01*
X77964056Y-116278347D01*
X77837749Y-116097962D01*
X77682038Y-115942251D01*
X77501654Y-115815944D01*
X77302076Y-115722880D01*
X77089371Y-115665885D01*
X76870000Y-115646693D01*
X76650629Y-115665885D01*
X76437924Y-115722880D01*
X76432942Y-115725203D01*
X76432934Y-115725206D01*
X76412751Y-115734618D01*
X76342559Y-115745280D01*
X76277746Y-115716300D01*
X76238890Y-115656881D01*
X76233500Y-115620424D01*
X76233500Y-111014594D01*
X76253502Y-110946473D01*
X76270405Y-110925499D01*
X78561405Y-108634499D01*
X78623717Y-108600473D01*
X78694532Y-108605538D01*
G37*
%TD.AperFunction*%
%TA.AperFunction,Conductor*%
G36*
X66642012Y-46438370D02*
G01*
X66648595Y-46444499D01*
X78429595Y-58225500D01*
X78463621Y-58287812D01*
X78466500Y-58314595D01*
X78466500Y-78221233D01*
X78465973Y-78232416D01*
X78464298Y-78239909D01*
X78464547Y-78247835D01*
X78464547Y-78247836D01*
X78466438Y-78307986D01*
X78466500Y-78311945D01*
X78466500Y-78339856D01*
X78466997Y-78343790D01*
X78466997Y-78343791D01*
X78467005Y-78343856D01*
X78467938Y-78355693D01*
X78469327Y-78399889D01*
X78474978Y-78419339D01*
X78478987Y-78438700D01*
X78481526Y-78458797D01*
X78484445Y-78466168D01*
X78484445Y-78466170D01*
X78497804Y-78499912D01*
X78501649Y-78511142D01*
X78511771Y-78545983D01*
X78513982Y-78553593D01*
X78518015Y-78560412D01*
X78518017Y-78560417D01*
X78524293Y-78571028D01*
X78532988Y-78588776D01*
X78540448Y-78607617D01*
X78545110Y-78614033D01*
X78545110Y-78614034D01*
X78566436Y-78643387D01*
X78572952Y-78653307D01*
X78595458Y-78691362D01*
X78609779Y-78705683D01*
X78622619Y-78720716D01*
X78634528Y-78737107D01*
X78640634Y-78742158D01*
X78668605Y-78765298D01*
X78677384Y-78773288D01*
X82392628Y-82488532D01*
X82426654Y-82550844D01*
X82421589Y-82621659D01*
X82379042Y-82678495D01*
X82322592Y-82702177D01*
X82172464Y-82725150D01*
X81952314Y-82797106D01*
X81947726Y-82799494D01*
X81947722Y-82799496D01*
X81759725Y-82897361D01*
X81746872Y-82904052D01*
X81742739Y-82907155D01*
X81742736Y-82907157D01*
X81683284Y-82951795D01*
X81561655Y-83043117D01*
X81401639Y-83210564D01*
X81354836Y-83279174D01*
X81299927Y-83324175D01*
X81229402Y-83332346D01*
X81165655Y-83301092D01*
X81144959Y-83276609D01*
X81122577Y-83242013D01*
X81122576Y-83242012D01*
X81119764Y-83237665D01*
X80963887Y-83066358D01*
X80959836Y-83063159D01*
X80959832Y-83063155D01*
X80786177Y-82926011D01*
X80786172Y-82926008D01*
X80782123Y-82922810D01*
X80777607Y-82920317D01*
X80777604Y-82920315D01*
X80583879Y-82813373D01*
X80583875Y-82813371D01*
X80579355Y-82810876D01*
X80574486Y-82809152D01*
X80574482Y-82809150D01*
X80365903Y-82735288D01*
X80365899Y-82735287D01*
X80361028Y-82733562D01*
X80355935Y-82732655D01*
X80355932Y-82732654D01*
X80138095Y-82693851D01*
X80138089Y-82693850D01*
X80133006Y-82692945D01*
X80060096Y-82692054D01*
X79906581Y-82690179D01*
X79906579Y-82690179D01*
X79901411Y-82690116D01*
X79672464Y-82725150D01*
X79452314Y-82797106D01*
X79447726Y-82799494D01*
X79447722Y-82799496D01*
X79259725Y-82897361D01*
X79246872Y-82904052D01*
X79242739Y-82907155D01*
X79242736Y-82907157D01*
X79183284Y-82951795D01*
X79061655Y-83043117D01*
X78901639Y-83210564D01*
X78898730Y-83214829D01*
X78898724Y-83214837D01*
X78850199Y-83285972D01*
X78795288Y-83330975D01*
X78724763Y-83339146D01*
X78663884Y-83310439D01*
X78658538Y-83305835D01*
X78648973Y-83310238D01*
X77872021Y-84087189D01*
X77864408Y-84101132D01*
X77864539Y-84102966D01*
X77868790Y-84109580D01*
X78646307Y-84887096D01*
X78658313Y-84893652D01*
X78667244Y-84886829D01*
X78733519Y-84861370D01*
X78803037Y-84875783D01*
X78851165Y-84921117D01*
X78856800Y-84930311D01*
X78859501Y-84934719D01*
X79011147Y-85109784D01*
X79189349Y-85257730D01*
X79389322Y-85374584D01*
X79605694Y-85457209D01*
X79610760Y-85458240D01*
X79610761Y-85458240D01*
X79663846Y-85469040D01*
X79832656Y-85503385D01*
X79963324Y-85508176D01*
X80058949Y-85511683D01*
X80058953Y-85511683D01*
X80064113Y-85511872D01*
X80069233Y-85511216D01*
X80069235Y-85511216D01*
X80142291Y-85501857D01*
X80293847Y-85482442D01*
X80298795Y-85480957D01*
X80298802Y-85480956D01*
X80510747Y-85417369D01*
X80515690Y-85415886D01*
X80521287Y-85413144D01*
X80719049Y-85316262D01*
X80719052Y-85316260D01*
X80723684Y-85313991D01*
X80912243Y-85179494D01*
X81076303Y-85016005D01*
X81145370Y-84919888D01*
X81201365Y-84876240D01*
X81272068Y-84869794D01*
X81335033Y-84902597D01*
X81355128Y-84927584D01*
X81356799Y-84930311D01*
X81356802Y-84930315D01*
X81359501Y-84934719D01*
X81511147Y-85109784D01*
X81689349Y-85257730D01*
X81889322Y-85374584D01*
X82105694Y-85457209D01*
X82110760Y-85458240D01*
X82110761Y-85458240D01*
X82163846Y-85469040D01*
X82332656Y-85503385D01*
X82463324Y-85508176D01*
X82558949Y-85511683D01*
X82558953Y-85511683D01*
X82564113Y-85511872D01*
X82569233Y-85511216D01*
X82569235Y-85511216D01*
X82642291Y-85501857D01*
X82793847Y-85482442D01*
X82798795Y-85480957D01*
X82798802Y-85480956D01*
X83010747Y-85417369D01*
X83015690Y-85415886D01*
X83021287Y-85413144D01*
X83185068Y-85332909D01*
X83255042Y-85320903D01*
X83320399Y-85348633D01*
X83360389Y-85407296D01*
X83366500Y-85446061D01*
X83366500Y-91805405D01*
X83346498Y-91873526D01*
X83329595Y-91894500D01*
X79782423Y-95441672D01*
X79720111Y-95475698D01*
X79660717Y-95474284D01*
X79634685Y-95467309D01*
X79634686Y-95467309D01*
X79629371Y-95465885D01*
X79410000Y-95446693D01*
X79190629Y-95465885D01*
X78977924Y-95522880D01*
X78931268Y-95544636D01*
X78783334Y-95613618D01*
X78783329Y-95613621D01*
X78778347Y-95615944D01*
X78773840Y-95619100D01*
X78773838Y-95619101D01*
X78602473Y-95739092D01*
X78602470Y-95739094D01*
X78597962Y-95742251D01*
X78442251Y-95897962D01*
X78315944Y-96078347D01*
X78313621Y-96083329D01*
X78313618Y-96083334D01*
X78254195Y-96210769D01*
X78207278Y-96264054D01*
X78139001Y-96283515D01*
X78071041Y-96262973D01*
X78025805Y-96210769D01*
X77966382Y-96083334D01*
X77966379Y-96083329D01*
X77964056Y-96078347D01*
X77837749Y-95897962D01*
X77682038Y-95742251D01*
X77501654Y-95615944D01*
X77302076Y-95522880D01*
X77089371Y-95465885D01*
X76870000Y-95446693D01*
X76650629Y-95465885D01*
X76437924Y-95522880D01*
X76391268Y-95544636D01*
X76243334Y-95613618D01*
X76243329Y-95613621D01*
X76238347Y-95615944D01*
X76233840Y-95619100D01*
X76233838Y-95619101D01*
X76062473Y-95739092D01*
X76062470Y-95739094D01*
X76057962Y-95742251D01*
X75902251Y-95897962D01*
X75775944Y-96078347D01*
X75773619Y-96083332D01*
X75773616Y-96083338D01*
X75724249Y-96189208D01*
X75677332Y-96242494D01*
X75609055Y-96261955D01*
X75541095Y-96241414D01*
X75520959Y-96225054D01*
X71670405Y-92374500D01*
X71636379Y-92312188D01*
X71633500Y-92285405D01*
X71633500Y-85261406D01*
X76703423Y-85261406D01*
X76708704Y-85268461D01*
X76885080Y-85371527D01*
X76894363Y-85375974D01*
X77101003Y-85454883D01*
X77110901Y-85457759D01*
X77327653Y-85501857D01*
X77337883Y-85503076D01*
X77558914Y-85511182D01*
X77569223Y-85510714D01*
X77788623Y-85482608D01*
X77798688Y-85480468D01*
X78010557Y-85416905D01*
X78020152Y-85413144D01*
X78218778Y-85315838D01*
X78227636Y-85310559D01*
X78285097Y-85269572D01*
X78293497Y-85258874D01*
X78286510Y-85245721D01*
X77512811Y-84472021D01*
X77498868Y-84464408D01*
X77497034Y-84464539D01*
X77490420Y-84468790D01*
X76710180Y-85249031D01*
X76703423Y-85261406D01*
X71633500Y-85261406D01*
X71633500Y-84070638D01*
X76087893Y-84070638D01*
X76100627Y-84291468D01*
X76102061Y-84301670D01*
X76150685Y-84517439D01*
X76153773Y-84527292D01*
X76236986Y-84732220D01*
X76241634Y-84741421D01*
X76330097Y-84885781D01*
X76340553Y-84895242D01*
X76349331Y-84891458D01*
X77127979Y-84112811D01*
X77135592Y-84098868D01*
X77135461Y-84097034D01*
X77131210Y-84090420D01*
X76353862Y-83313073D01*
X76342330Y-83306776D01*
X76330048Y-83316399D01*
X76274467Y-83397877D01*
X76269379Y-83406833D01*
X76176252Y-83607459D01*
X76172689Y-83617146D01*
X76113581Y-83830280D01*
X76111650Y-83840400D01*
X76088145Y-84060349D01*
X76087893Y-84070638D01*
X71633500Y-84070638D01*
X71633500Y-82940711D01*
X76705508Y-82940711D01*
X76712251Y-82953040D01*
X77487189Y-83727979D01*
X77501132Y-83735592D01*
X77502966Y-83735461D01*
X77509580Y-83731210D01*
X78288994Y-82951795D01*
X78296011Y-82938944D01*
X78288237Y-82928274D01*
X78285902Y-82926430D01*
X78277320Y-82920729D01*
X78083678Y-82813833D01*
X78074272Y-82809606D01*
X77865772Y-82735772D01*
X77855809Y-82733140D01*
X77638047Y-82694350D01*
X77627796Y-82693381D01*
X77406616Y-82690679D01*
X77396332Y-82691399D01*
X77177693Y-82724855D01*
X77167666Y-82727244D01*
X76957426Y-82795961D01*
X76947916Y-82799958D01*
X76751725Y-82902089D01*
X76743007Y-82907578D01*
X76713961Y-82929386D01*
X76705508Y-82940711D01*
X71633500Y-82940711D01*
X71633500Y-77100000D01*
X73086540Y-77100000D01*
X73106359Y-77415020D01*
X73165505Y-77725072D01*
X73263044Y-78025266D01*
X73264731Y-78028852D01*
X73264733Y-78028856D01*
X73395750Y-78307283D01*
X73395754Y-78307290D01*
X73397438Y-78310869D01*
X73566568Y-78577375D01*
X73767767Y-78820582D01*
X73997860Y-79036654D01*
X74253221Y-79222184D01*
X74256690Y-79224091D01*
X74256693Y-79224093D01*
X74432283Y-79320625D01*
X74529821Y-79374247D01*
X74533490Y-79375700D01*
X74533495Y-79375702D01*
X74707507Y-79444598D01*
X74823298Y-79490443D01*
X75129025Y-79568940D01*
X75442179Y-79608500D01*
X75757821Y-79608500D01*
X76070975Y-79568940D01*
X76376702Y-79490443D01*
X76492493Y-79444598D01*
X76666505Y-79375702D01*
X76666510Y-79375700D01*
X76670179Y-79374247D01*
X76767717Y-79320625D01*
X76943307Y-79224093D01*
X76943310Y-79224091D01*
X76946779Y-79222184D01*
X77202140Y-79036654D01*
X77432233Y-78820582D01*
X77633432Y-78577375D01*
X77802562Y-78310869D01*
X77804246Y-78307290D01*
X77804250Y-78307283D01*
X77935267Y-78028856D01*
X77935269Y-78028852D01*
X77936956Y-78025266D01*
X78034495Y-77725072D01*
X78093641Y-77415020D01*
X78113460Y-77100000D01*
X78093641Y-76784980D01*
X78034495Y-76474928D01*
X77966500Y-76265661D01*
X77938182Y-76178507D01*
X77938182Y-76178506D01*
X77936956Y-76174734D01*
X77853167Y-75996672D01*
X77804250Y-75892717D01*
X77804246Y-75892710D01*
X77802562Y-75889131D01*
X77633432Y-75622625D01*
X77432233Y-75379418D01*
X77202140Y-75163346D01*
X76946779Y-74977816D01*
X76733955Y-74860814D01*
X76673648Y-74827660D01*
X76673647Y-74827659D01*
X76670179Y-74825753D01*
X76666510Y-74824300D01*
X76666505Y-74824298D01*
X76380372Y-74711010D01*
X76380371Y-74711010D01*
X76376702Y-74709557D01*
X76070975Y-74631060D01*
X75757821Y-74591500D01*
X75442179Y-74591500D01*
X75129025Y-74631060D01*
X74823298Y-74709557D01*
X74819629Y-74711010D01*
X74819628Y-74711010D01*
X74533495Y-74824298D01*
X74533490Y-74824300D01*
X74529821Y-74825753D01*
X74526353Y-74827659D01*
X74526352Y-74827660D01*
X74466046Y-74860814D01*
X74253221Y-74977816D01*
X73997860Y-75163346D01*
X73767767Y-75379418D01*
X73566568Y-75622625D01*
X73397438Y-75889131D01*
X73395754Y-75892710D01*
X73395750Y-75892717D01*
X73346833Y-75996672D01*
X73263044Y-76174734D01*
X73261818Y-76178506D01*
X73261818Y-76178507D01*
X73233500Y-76265661D01*
X73165505Y-76474928D01*
X73106359Y-76784980D01*
X73086540Y-77100000D01*
X71633500Y-77100000D01*
X71633500Y-60578768D01*
X71634027Y-60567585D01*
X71635702Y-60560092D01*
X71633562Y-60492001D01*
X71633500Y-60488044D01*
X71633500Y-60460144D01*
X71632996Y-60456153D01*
X71632063Y-60444311D01*
X71631681Y-60432131D01*
X71630674Y-60400111D01*
X71625021Y-60380652D01*
X71621012Y-60361293D01*
X71620846Y-60359983D01*
X71618474Y-60341203D01*
X71615558Y-60333837D01*
X71615556Y-60333831D01*
X71602200Y-60300098D01*
X71598355Y-60288868D01*
X71588230Y-60254017D01*
X71588230Y-60254016D01*
X71586019Y-60246407D01*
X71575705Y-60228966D01*
X71567008Y-60211213D01*
X71562472Y-60199758D01*
X71559552Y-60192383D01*
X71533563Y-60156612D01*
X71527047Y-60146692D01*
X71508578Y-60115463D01*
X71504542Y-60108638D01*
X71490221Y-60094317D01*
X71477380Y-60079283D01*
X71470131Y-60069306D01*
X71465472Y-60062893D01*
X71431395Y-60034702D01*
X71422616Y-60026712D01*
X67474682Y-56078777D01*
X67440656Y-56016465D01*
X67441819Y-56000206D01*
X67379511Y-55980354D01*
X67360940Y-55965035D01*
X66470405Y-55074500D01*
X66436379Y-55012188D01*
X66433500Y-54985405D01*
X66433500Y-54100000D01*
X66886540Y-54100000D01*
X66906359Y-54415020D01*
X66965505Y-54725072D01*
X67063044Y-55025266D01*
X67064731Y-55028852D01*
X67064733Y-55028856D01*
X67195750Y-55307283D01*
X67195754Y-55307290D01*
X67197438Y-55310869D01*
X67366568Y-55577375D01*
X67491889Y-55728861D01*
X67547120Y-55795624D01*
X67575130Y-55860862D01*
X67573909Y-55868163D01*
X67624162Y-55879094D01*
X67650029Y-55897831D01*
X67797860Y-56036654D01*
X67801062Y-56038981D01*
X67801064Y-56038982D01*
X67814108Y-56048459D01*
X68053221Y-56222184D01*
X68056690Y-56224091D01*
X68056693Y-56224093D01*
X68322663Y-56370312D01*
X68329821Y-56374247D01*
X68333490Y-56375700D01*
X68333495Y-56375702D01*
X68594424Y-56479011D01*
X68623298Y-56490443D01*
X68929025Y-56568940D01*
X69242179Y-56608500D01*
X69557821Y-56608500D01*
X69870975Y-56568940D01*
X70176702Y-56490443D01*
X70205576Y-56479011D01*
X70466505Y-56375702D01*
X70466510Y-56375700D01*
X70470179Y-56374247D01*
X70477337Y-56370312D01*
X70743307Y-56224093D01*
X70743310Y-56224091D01*
X70746779Y-56222184D01*
X70985892Y-56048459D01*
X70998936Y-56038982D01*
X70998938Y-56038981D01*
X71002140Y-56036654D01*
X71232233Y-55820582D01*
X71240043Y-55811142D01*
X71430907Y-55580427D01*
X71433432Y-55577375D01*
X71602562Y-55310869D01*
X71604246Y-55307290D01*
X71604250Y-55307283D01*
X71735267Y-55028856D01*
X71735269Y-55028852D01*
X71736956Y-55025266D01*
X71834495Y-54725072D01*
X71893641Y-54415020D01*
X71913460Y-54100000D01*
X71893641Y-53784980D01*
X71834495Y-53474928D01*
X71757050Y-53236576D01*
X71738182Y-53178507D01*
X71738182Y-53178506D01*
X71736956Y-53174734D01*
X71726094Y-53151650D01*
X71604250Y-52892717D01*
X71604246Y-52892710D01*
X71602562Y-52889131D01*
X71433432Y-52622625D01*
X71232233Y-52379418D01*
X71002140Y-52163346D01*
X70746779Y-51977816D01*
X70470179Y-51825753D01*
X70466510Y-51824300D01*
X70466505Y-51824298D01*
X70180372Y-51711010D01*
X70180371Y-51711010D01*
X70176702Y-51709557D01*
X69870975Y-51631060D01*
X69557821Y-51591500D01*
X69242179Y-51591500D01*
X68929025Y-51631060D01*
X68623298Y-51709557D01*
X68619629Y-51711010D01*
X68619628Y-51711010D01*
X68333495Y-51824298D01*
X68333490Y-51824300D01*
X68329821Y-51825753D01*
X68053221Y-51977816D01*
X67797860Y-52163346D01*
X67567767Y-52379418D01*
X67366568Y-52622625D01*
X67197438Y-52889131D01*
X67195754Y-52892710D01*
X67195750Y-52892717D01*
X67073906Y-53151650D01*
X67063044Y-53174734D01*
X67061818Y-53178506D01*
X67061818Y-53178507D01*
X67042950Y-53236576D01*
X66965505Y-53474928D01*
X66906359Y-53784980D01*
X66886540Y-54100000D01*
X66433500Y-54100000D01*
X66433500Y-46533594D01*
X66453502Y-46465473D01*
X66507158Y-46418980D01*
X66577432Y-46408876D01*
X66642012Y-46438370D01*
G37*
%TD.AperFunction*%
%TA.AperFunction,Conductor*%
G36*
X89833621Y-41428502D02*
G01*
X89880114Y-41482158D01*
X89891500Y-41534500D01*
X89891500Y-83911405D01*
X89871498Y-83979526D01*
X89817842Y-84026019D01*
X89747568Y-84036123D01*
X89682988Y-84006629D01*
X89676405Y-84000500D01*
X89251218Y-83575313D01*
X89217192Y-83513001D01*
X89219755Y-83449589D01*
X89230865Y-83413022D01*
X89230867Y-83413015D01*
X89232370Y-83408069D01*
X89261529Y-83186590D01*
X89263156Y-83120000D01*
X89244852Y-82897361D01*
X89190431Y-82680702D01*
X89101354Y-82475840D01*
X88980014Y-82288277D01*
X88829670Y-82123051D01*
X88825619Y-82119852D01*
X88825615Y-82119848D01*
X88658414Y-81987800D01*
X88658410Y-81987798D01*
X88654359Y-81984598D01*
X88613053Y-81961796D01*
X88563084Y-81911364D01*
X88548312Y-81841921D01*
X88573428Y-81775516D01*
X88600780Y-81748909D01*
X88644603Y-81717650D01*
X88779860Y-81621173D01*
X88938096Y-81463489D01*
X88949016Y-81448293D01*
X89065435Y-81286277D01*
X89068453Y-81282077D01*
X89072145Y-81274608D01*
X89165136Y-81086453D01*
X89165137Y-81086451D01*
X89167430Y-81081811D01*
X89232370Y-80868069D01*
X89261529Y-80646590D01*
X89263156Y-80580000D01*
X89244852Y-80357361D01*
X89190431Y-80140702D01*
X89101354Y-79935840D01*
X89061906Y-79874862D01*
X88982822Y-79752617D01*
X88982820Y-79752614D01*
X88980014Y-79748277D01*
X88829670Y-79583051D01*
X88825619Y-79579852D01*
X88825615Y-79579848D01*
X88658414Y-79447800D01*
X88658410Y-79447798D01*
X88654359Y-79444598D01*
X88613053Y-79421796D01*
X88563084Y-79371364D01*
X88548312Y-79301921D01*
X88573428Y-79235516D01*
X88600780Y-79208909D01*
X88644603Y-79177650D01*
X88779860Y-79081173D01*
X88938096Y-78923489D01*
X88997594Y-78840689D01*
X89065435Y-78746277D01*
X89068453Y-78742077D01*
X89070910Y-78737107D01*
X89165136Y-78546453D01*
X89165137Y-78546451D01*
X89167430Y-78541811D01*
X89232370Y-78328069D01*
X89261529Y-78106590D01*
X89263156Y-78040000D01*
X89244852Y-77817361D01*
X89190431Y-77600702D01*
X89101354Y-77395840D01*
X88980014Y-77208277D01*
X88829670Y-77043051D01*
X88825619Y-77039852D01*
X88825615Y-77039848D01*
X88658414Y-76907800D01*
X88658410Y-76907798D01*
X88654359Y-76904598D01*
X88612569Y-76881529D01*
X88562598Y-76831097D01*
X88547826Y-76761654D01*
X88572942Y-76695248D01*
X88600294Y-76668641D01*
X88775328Y-76543792D01*
X88783200Y-76537139D01*
X88934052Y-76386812D01*
X88940730Y-76378965D01*
X89065003Y-76206020D01*
X89070313Y-76197183D01*
X89164670Y-76006267D01*
X89168469Y-75996672D01*
X89230377Y-75792910D01*
X89232555Y-75782837D01*
X89233986Y-75771962D01*
X89231775Y-75757778D01*
X89218617Y-75754000D01*
X86586074Y-75754000D01*
X86517953Y-75733998D01*
X86479689Y-75695514D01*
X86435559Y-75625976D01*
X86435556Y-75625972D01*
X86433432Y-75622625D01*
X86232233Y-75379418D01*
X86002140Y-75163346D01*
X85746779Y-74977816D01*
X85533955Y-74860814D01*
X85473648Y-74827660D01*
X85473647Y-74827659D01*
X85470179Y-74825753D01*
X85466510Y-74824300D01*
X85466505Y-74824298D01*
X85180372Y-74711010D01*
X85180371Y-74711010D01*
X85176702Y-74709557D01*
X84870975Y-74631060D01*
X84557821Y-74591500D01*
X84242179Y-74591500D01*
X83929025Y-74631060D01*
X83623298Y-74709557D01*
X83619629Y-74711010D01*
X83619628Y-74711010D01*
X83333495Y-74824298D01*
X83333490Y-74824300D01*
X83329821Y-74825753D01*
X83326353Y-74827659D01*
X83326352Y-74827660D01*
X83266046Y-74860814D01*
X83053221Y-74977816D01*
X82797860Y-75163346D01*
X82567767Y-75379418D01*
X82366568Y-75622625D01*
X82285765Y-75749950D01*
X82265885Y-75781276D01*
X82212496Y-75828075D01*
X82142281Y-75838580D01*
X82077533Y-75809456D01*
X82038809Y-75749950D01*
X82033500Y-75713762D01*
X82033500Y-68639500D01*
X82053502Y-68571379D01*
X82107158Y-68524886D01*
X82159500Y-68513500D01*
X86624274Y-68513500D01*
X86692395Y-68533502D01*
X86731707Y-68573665D01*
X86799987Y-68685088D01*
X86946250Y-68853938D01*
X87118126Y-68996632D01*
X87188595Y-69037811D01*
X87191445Y-69039476D01*
X87240169Y-69091114D01*
X87253240Y-69160897D01*
X87226509Y-69226669D01*
X87186055Y-69260027D01*
X87173607Y-69266507D01*
X87169474Y-69269610D01*
X87169471Y-69269612D01*
X87145247Y-69287800D01*
X86994965Y-69400635D01*
X86840629Y-69562138D01*
X86714743Y-69746680D01*
X86620688Y-69949305D01*
X86560989Y-70164570D01*
X86537251Y-70386695D01*
X86537548Y-70391848D01*
X86537548Y-70391851D01*
X86543011Y-70486590D01*
X86550110Y-70609715D01*
X86551247Y-70614761D01*
X86551248Y-70614767D01*
X86564597Y-70674000D01*
X86599222Y-70827639D01*
X86683266Y-71034616D01*
X86799987Y-71225088D01*
X86946250Y-71393938D01*
X87118126Y-71536632D01*
X87188595Y-71577811D01*
X87191445Y-71579476D01*
X87240169Y-71631114D01*
X87253240Y-71700897D01*
X87226509Y-71766669D01*
X87186055Y-71800027D01*
X87173607Y-71806507D01*
X87169474Y-71809610D01*
X87169471Y-71809612D01*
X87145247Y-71827800D01*
X86994965Y-71940635D01*
X86840629Y-72102138D01*
X86714743Y-72286680D01*
X86620688Y-72489305D01*
X86560989Y-72704570D01*
X86537251Y-72926695D01*
X86537548Y-72931848D01*
X86537548Y-72931851D01*
X86543011Y-73026590D01*
X86550110Y-73149715D01*
X86551247Y-73154761D01*
X86551248Y-73154767D01*
X86564597Y-73214000D01*
X86599222Y-73367639D01*
X86683266Y-73574616D01*
X86799987Y-73765088D01*
X86946250Y-73933938D01*
X87118126Y-74076632D01*
X87191488Y-74119501D01*
X87191955Y-74119774D01*
X87240679Y-74171412D01*
X87253750Y-74241195D01*
X87227019Y-74306967D01*
X87186562Y-74340327D01*
X87178457Y-74344546D01*
X87169738Y-74350036D01*
X86999433Y-74477905D01*
X86991726Y-74484748D01*
X86844590Y-74638717D01*
X86838104Y-74646727D01*
X86718098Y-74822649D01*
X86713000Y-74831623D01*
X86623338Y-75024783D01*
X86619775Y-75034470D01*
X86564389Y-75234183D01*
X86565912Y-75242607D01*
X86578292Y-75246000D01*
X89218344Y-75246000D01*
X89231875Y-75242027D01*
X89233180Y-75232947D01*
X89191214Y-75065875D01*
X89187894Y-75056124D01*
X89102972Y-74860814D01*
X89098105Y-74851739D01*
X88982426Y-74672926D01*
X88976136Y-74664757D01*
X88832806Y-74507240D01*
X88825273Y-74500215D01*
X88658139Y-74368222D01*
X88649556Y-74362520D01*
X88612602Y-74342120D01*
X88562631Y-74291687D01*
X88547859Y-74222245D01*
X88572975Y-74155839D01*
X88600327Y-74129232D01*
X88623797Y-74112491D01*
X88779860Y-74001173D01*
X88938096Y-73843489D01*
X88997594Y-73760689D01*
X89065435Y-73666277D01*
X89068453Y-73662077D01*
X89167430Y-73461811D01*
X89232370Y-73248069D01*
X89261529Y-73026590D01*
X89263156Y-72960000D01*
X89244852Y-72737361D01*
X89190431Y-72520702D01*
X89101354Y-72315840D01*
X88980014Y-72128277D01*
X88829670Y-71963051D01*
X88825619Y-71959852D01*
X88825615Y-71959848D01*
X88658414Y-71827800D01*
X88658410Y-71827798D01*
X88654359Y-71824598D01*
X88613053Y-71801796D01*
X88563084Y-71751364D01*
X88548312Y-71681921D01*
X88573428Y-71615516D01*
X88600780Y-71588909D01*
X88644603Y-71557650D01*
X88779860Y-71461173D01*
X88938096Y-71303489D01*
X88997594Y-71220689D01*
X89065435Y-71126277D01*
X89068453Y-71122077D01*
X89167430Y-70921811D01*
X89232370Y-70708069D01*
X89261529Y-70486590D01*
X89263156Y-70420000D01*
X89244852Y-70197361D01*
X89190431Y-69980702D01*
X89101354Y-69775840D01*
X88980014Y-69588277D01*
X88829670Y-69423051D01*
X88825619Y-69419852D01*
X88825615Y-69419848D01*
X88658414Y-69287800D01*
X88658410Y-69287798D01*
X88654359Y-69284598D01*
X88613053Y-69261796D01*
X88563084Y-69211364D01*
X88548312Y-69141921D01*
X88573428Y-69075516D01*
X88600780Y-69048909D01*
X88644603Y-69017650D01*
X88779860Y-68921173D01*
X88938096Y-68763489D01*
X88949016Y-68748293D01*
X89065435Y-68586277D01*
X89068453Y-68582077D01*
X89072611Y-68573665D01*
X89165136Y-68386453D01*
X89165137Y-68386451D01*
X89167430Y-68381811D01*
X89232370Y-68168069D01*
X89261529Y-67946590D01*
X89263156Y-67880000D01*
X89244852Y-67657361D01*
X89190431Y-67440702D01*
X89101354Y-67235840D01*
X88980014Y-67048277D01*
X88829670Y-66883051D01*
X88825619Y-66879852D01*
X88825615Y-66879848D01*
X88658414Y-66747800D01*
X88658410Y-66747798D01*
X88654359Y-66744598D01*
X88613053Y-66721796D01*
X88563084Y-66671364D01*
X88548312Y-66601921D01*
X88573428Y-66535516D01*
X88600780Y-66508909D01*
X88644603Y-66477650D01*
X88779860Y-66381173D01*
X88938096Y-66223489D01*
X88949016Y-66208293D01*
X89065435Y-66046277D01*
X89068453Y-66042077D01*
X89072611Y-66033665D01*
X89165136Y-65846453D01*
X89165137Y-65846451D01*
X89167430Y-65841811D01*
X89232370Y-65628069D01*
X89261529Y-65406590D01*
X89263156Y-65340000D01*
X89244852Y-65117361D01*
X89190431Y-64900702D01*
X89101354Y-64695840D01*
X88980014Y-64508277D01*
X88962347Y-64488861D01*
X88832798Y-64346488D01*
X88801746Y-64282642D01*
X88810141Y-64212143D01*
X88855317Y-64157375D01*
X88881761Y-64143706D01*
X88988297Y-64103767D01*
X88996705Y-64100615D01*
X89113261Y-64013261D01*
X89200615Y-63896705D01*
X89251745Y-63760316D01*
X89258500Y-63698134D01*
X89258500Y-61901866D01*
X89251745Y-61839684D01*
X89200615Y-61703295D01*
X89113261Y-61586739D01*
X88996705Y-61499385D01*
X88860316Y-61448255D01*
X88798134Y-61441500D01*
X87001866Y-61441500D01*
X86939684Y-61448255D01*
X86803295Y-61499385D01*
X86686739Y-61586739D01*
X86599385Y-61703295D01*
X86548255Y-61839684D01*
X86541500Y-61901866D01*
X86541500Y-63698134D01*
X86548255Y-63760316D01*
X86599385Y-63896705D01*
X86686739Y-64013261D01*
X86803295Y-64100615D01*
X86811704Y-64103767D01*
X86811705Y-64103768D01*
X86920451Y-64144535D01*
X86977216Y-64187176D01*
X87001916Y-64253738D01*
X86986709Y-64323087D01*
X86967316Y-64349568D01*
X86840629Y-64482138D01*
X86837715Y-64486410D01*
X86837714Y-64486411D01*
X86725095Y-64651504D01*
X86670184Y-64696507D01*
X86621007Y-64706500D01*
X86554595Y-64706500D01*
X86486474Y-64686498D01*
X86465500Y-64669595D01*
X85930405Y-64134500D01*
X85896379Y-64072188D01*
X85893500Y-64045405D01*
X85893500Y-44980427D01*
X85913502Y-44912306D01*
X85954618Y-44872550D01*
X85957994Y-44870896D01*
X86139860Y-44741173D01*
X86248091Y-44633319D01*
X86310462Y-44599404D01*
X86381268Y-44604592D01*
X86438030Y-44647238D01*
X86455012Y-44678341D01*
X86499385Y-44796705D01*
X86586739Y-44913261D01*
X86703295Y-45000615D01*
X86839684Y-45051745D01*
X86901866Y-45058500D01*
X88698134Y-45058500D01*
X88760316Y-45051745D01*
X88896705Y-45000615D01*
X89013261Y-44913261D01*
X89100615Y-44796705D01*
X89151745Y-44660316D01*
X89158500Y-44598134D01*
X89158500Y-42801866D01*
X89151745Y-42739684D01*
X89100615Y-42603295D01*
X89013261Y-42486739D01*
X88896705Y-42399385D01*
X88760316Y-42348255D01*
X88698134Y-42341500D01*
X87389595Y-42341500D01*
X87321474Y-42321498D01*
X87300500Y-42304595D01*
X86703652Y-41707747D01*
X86696112Y-41699461D01*
X86692000Y-41692982D01*
X86666034Y-41668598D01*
X86642349Y-41646357D01*
X86639507Y-41643602D01*
X86619770Y-41623865D01*
X86621121Y-41622514D01*
X86587349Y-41568911D01*
X86587987Y-41497917D01*
X86626905Y-41438538D01*
X86691748Y-41409626D01*
X86708559Y-41408500D01*
X89765500Y-41408500D01*
X89833621Y-41428502D01*
G37*
%TD.AperFunction*%
%TA.AperFunction,Conductor*%
G36*
X53943176Y-63491280D02*
G01*
X53943248Y-63491118D01*
X53949276Y-63493802D01*
X53949278Y-63493803D01*
X54110747Y-63565693D01*
X54117712Y-63568794D01*
X54200391Y-63586368D01*
X54298056Y-63607128D01*
X54298061Y-63607128D01*
X54304513Y-63608500D01*
X54495487Y-63608500D01*
X54501939Y-63607128D01*
X54501944Y-63607128D01*
X54599609Y-63586368D01*
X54682288Y-63568794D01*
X54689253Y-63565693D01*
X54689842Y-63565614D01*
X54694600Y-63564068D01*
X54694883Y-63564938D01*
X54759620Y-63556260D01*
X54823917Y-63586368D01*
X54861729Y-63646457D01*
X54866500Y-63680801D01*
X54866500Y-78885406D01*
X54846498Y-78953527D01*
X54829599Y-78974497D01*
X53894498Y-79909597D01*
X53832188Y-79943621D01*
X53805405Y-79946500D01*
X53676805Y-79946500D01*
X53608684Y-79926498D01*
X53571013Y-79888940D01*
X53482822Y-79752617D01*
X53482820Y-79752614D01*
X53480014Y-79748277D01*
X53329670Y-79583051D01*
X53325619Y-79579852D01*
X53325615Y-79579848D01*
X53158414Y-79447800D01*
X53158410Y-79447798D01*
X53154359Y-79444598D01*
X53112569Y-79421529D01*
X53062598Y-79371097D01*
X53047826Y-79301654D01*
X53072942Y-79235248D01*
X53100294Y-79208641D01*
X53275328Y-79083792D01*
X53283200Y-79077139D01*
X53434052Y-78926812D01*
X53440730Y-78918965D01*
X53565003Y-78746020D01*
X53570313Y-78737183D01*
X53664670Y-78546267D01*
X53668469Y-78536672D01*
X53730377Y-78332910D01*
X53732555Y-78322837D01*
X53733986Y-78311962D01*
X53731775Y-78297778D01*
X53718617Y-78294000D01*
X52272000Y-78294000D01*
X52203879Y-78273998D01*
X52157386Y-78220342D01*
X52146000Y-78168000D01*
X52146000Y-77767885D01*
X52654000Y-77767885D01*
X52658475Y-77783124D01*
X52659865Y-77784329D01*
X52667548Y-77786000D01*
X53718344Y-77786000D01*
X53731875Y-77782027D01*
X53733180Y-77772947D01*
X53691214Y-77605875D01*
X53687894Y-77596124D01*
X53602972Y-77400814D01*
X53598105Y-77391739D01*
X53482426Y-77212926D01*
X53476136Y-77204757D01*
X53332806Y-77047240D01*
X53325273Y-77040215D01*
X53158139Y-76908222D01*
X53149552Y-76902517D01*
X53112116Y-76881851D01*
X53062146Y-76831419D01*
X53047374Y-76761976D01*
X53072490Y-76695571D01*
X53099842Y-76668964D01*
X53275327Y-76543792D01*
X53283200Y-76537139D01*
X53434052Y-76386812D01*
X53440730Y-76378965D01*
X53565003Y-76206020D01*
X53570313Y-76197183D01*
X53664670Y-76006267D01*
X53668469Y-75996672D01*
X53730377Y-75792910D01*
X53732555Y-75782837D01*
X53733986Y-75771962D01*
X53731775Y-75757778D01*
X53718617Y-75754000D01*
X52672115Y-75754000D01*
X52656876Y-75758475D01*
X52655671Y-75759865D01*
X52654000Y-75767548D01*
X52654000Y-77767885D01*
X52146000Y-77767885D01*
X52146000Y-75227885D01*
X52654000Y-75227885D01*
X52658475Y-75243124D01*
X52659865Y-75244329D01*
X52667548Y-75246000D01*
X53718344Y-75246000D01*
X53731875Y-75242027D01*
X53733180Y-75232947D01*
X53691214Y-75065875D01*
X53687894Y-75056124D01*
X53602972Y-74860814D01*
X53598105Y-74851739D01*
X53482426Y-74672926D01*
X53476136Y-74664757D01*
X53332806Y-74507240D01*
X53325273Y-74500215D01*
X53158139Y-74368222D01*
X53149552Y-74362517D01*
X53112116Y-74341851D01*
X53062146Y-74291419D01*
X53047374Y-74221976D01*
X53072490Y-74155571D01*
X53099842Y-74128964D01*
X53275327Y-74003792D01*
X53283200Y-73997139D01*
X53434052Y-73846812D01*
X53440730Y-73838965D01*
X53565003Y-73666020D01*
X53570313Y-73657183D01*
X53664670Y-73466267D01*
X53668469Y-73456672D01*
X53730377Y-73252910D01*
X53732555Y-73242837D01*
X53733986Y-73231962D01*
X53731775Y-73217778D01*
X53718617Y-73214000D01*
X52672115Y-73214000D01*
X52656876Y-73218475D01*
X52655671Y-73219865D01*
X52654000Y-73227548D01*
X52654000Y-75227885D01*
X52146000Y-75227885D01*
X52146000Y-72687885D01*
X52654000Y-72687885D01*
X52658475Y-72703124D01*
X52659865Y-72704329D01*
X52667548Y-72706000D01*
X53718344Y-72706000D01*
X53731875Y-72702027D01*
X53733180Y-72692947D01*
X53691214Y-72525875D01*
X53687894Y-72516124D01*
X53602972Y-72320814D01*
X53598105Y-72311739D01*
X53482426Y-72132926D01*
X53476136Y-72124757D01*
X53332806Y-71967240D01*
X53325273Y-71960215D01*
X53158139Y-71828222D01*
X53149552Y-71822517D01*
X53112116Y-71801851D01*
X53062146Y-71751419D01*
X53047374Y-71681976D01*
X53072490Y-71615571D01*
X53099842Y-71588964D01*
X53275327Y-71463792D01*
X53283200Y-71457139D01*
X53434052Y-71306812D01*
X53440730Y-71298965D01*
X53565003Y-71126020D01*
X53570313Y-71117183D01*
X53664670Y-70926267D01*
X53668469Y-70916672D01*
X53730377Y-70712910D01*
X53732555Y-70702837D01*
X53733986Y-70691962D01*
X53731775Y-70677778D01*
X53718617Y-70674000D01*
X52672115Y-70674000D01*
X52656876Y-70678475D01*
X52655671Y-70679865D01*
X52654000Y-70687548D01*
X52654000Y-72687885D01*
X52146000Y-72687885D01*
X52146000Y-70292000D01*
X52166002Y-70223879D01*
X52219658Y-70177386D01*
X52272000Y-70166000D01*
X53718344Y-70166000D01*
X53731875Y-70162027D01*
X53733180Y-70152947D01*
X53691214Y-69985875D01*
X53687894Y-69976124D01*
X53602972Y-69780814D01*
X53598105Y-69771739D01*
X53482426Y-69592926D01*
X53476136Y-69584757D01*
X53332806Y-69427240D01*
X53325273Y-69420215D01*
X53158139Y-69288222D01*
X53149556Y-69282520D01*
X53112602Y-69262120D01*
X53062631Y-69211687D01*
X53047859Y-69142245D01*
X53072975Y-69075839D01*
X53100327Y-69049232D01*
X53123797Y-69032491D01*
X53279860Y-68921173D01*
X53438096Y-68763489D01*
X53449016Y-68748293D01*
X53565435Y-68586277D01*
X53568453Y-68582077D01*
X53572611Y-68573665D01*
X53665136Y-68386453D01*
X53665137Y-68386451D01*
X53667430Y-68381811D01*
X53732370Y-68168069D01*
X53761529Y-67946590D01*
X53763156Y-67880000D01*
X53744852Y-67657361D01*
X53690431Y-67440702D01*
X53601354Y-67235840D01*
X53480014Y-67048277D01*
X53329670Y-66883051D01*
X53325619Y-66879852D01*
X53325615Y-66879848D01*
X53158414Y-66747800D01*
X53158410Y-66747798D01*
X53154359Y-66744598D01*
X53113053Y-66721796D01*
X53063084Y-66671364D01*
X53048312Y-66601921D01*
X53073428Y-66535516D01*
X53100780Y-66508909D01*
X53144603Y-66477650D01*
X53279860Y-66381173D01*
X53438096Y-66223489D01*
X53449016Y-66208293D01*
X53565435Y-66046277D01*
X53568453Y-66042077D01*
X53572611Y-66033665D01*
X53665136Y-65846453D01*
X53665137Y-65846451D01*
X53667430Y-65841811D01*
X53732370Y-65628069D01*
X53761529Y-65406590D01*
X53763156Y-65340000D01*
X53744852Y-65117361D01*
X53690431Y-64900702D01*
X53601354Y-64695840D01*
X53480014Y-64508277D01*
X53462347Y-64488861D01*
X53332798Y-64346488D01*
X53301746Y-64282642D01*
X53310141Y-64212143D01*
X53355317Y-64157375D01*
X53381761Y-64143706D01*
X53488297Y-64103767D01*
X53496705Y-64100615D01*
X53613261Y-64013261D01*
X53700615Y-63896705D01*
X53751745Y-63760316D01*
X53758500Y-63698134D01*
X53758500Y-63601895D01*
X53778502Y-63533774D01*
X53832158Y-63487281D01*
X53902432Y-63477177D01*
X53943176Y-63491280D01*
G37*
%TD.AperFunction*%
%TA.AperFunction,Conductor*%
G36*
X84072026Y-44375144D02*
G01*
X84099875Y-44406994D01*
X84159987Y-44505088D01*
X84306250Y-44673938D01*
X84443996Y-44788297D01*
X84468859Y-44808938D01*
X84478126Y-44816632D01*
X84564070Y-44866853D01*
X84612794Y-44918491D01*
X84626500Y-44975641D01*
X84626500Y-64281233D01*
X84625973Y-64292416D01*
X84624298Y-64299909D01*
X84624547Y-64307835D01*
X84624547Y-64307836D01*
X84626438Y-64367986D01*
X84626500Y-64371945D01*
X84626500Y-64399856D01*
X84626997Y-64403790D01*
X84626997Y-64403791D01*
X84627005Y-64403856D01*
X84627938Y-64415693D01*
X84629327Y-64459889D01*
X84634978Y-64479339D01*
X84638987Y-64498700D01*
X84639617Y-64503683D01*
X84641526Y-64518797D01*
X84644445Y-64526168D01*
X84644445Y-64526170D01*
X84657804Y-64559912D01*
X84661649Y-64571142D01*
X84673982Y-64613593D01*
X84678015Y-64620412D01*
X84678017Y-64620417D01*
X84684293Y-64631028D01*
X84692988Y-64648776D01*
X84700448Y-64667617D01*
X84705110Y-64674033D01*
X84705110Y-64674034D01*
X84726436Y-64703387D01*
X84732952Y-64713307D01*
X84755458Y-64751362D01*
X84769779Y-64765683D01*
X84782619Y-64780716D01*
X84794528Y-64797107D01*
X84800634Y-64802158D01*
X84828605Y-64825298D01*
X84837384Y-64833288D01*
X85736343Y-65732247D01*
X85743887Y-65740537D01*
X85748000Y-65747018D01*
X85753777Y-65752443D01*
X85797667Y-65793658D01*
X85800509Y-65796413D01*
X85820230Y-65816134D01*
X85823425Y-65818612D01*
X85832447Y-65826318D01*
X85864679Y-65856586D01*
X85871628Y-65860406D01*
X85882432Y-65866346D01*
X85898956Y-65877199D01*
X85914959Y-65889613D01*
X85955543Y-65907176D01*
X85966173Y-65912383D01*
X86004940Y-65933695D01*
X86012617Y-65935666D01*
X86012622Y-65935668D01*
X86024558Y-65938732D01*
X86043266Y-65945137D01*
X86061855Y-65953181D01*
X86069683Y-65954421D01*
X86069690Y-65954423D01*
X86105524Y-65960099D01*
X86117144Y-65962505D01*
X86152289Y-65971528D01*
X86159970Y-65973500D01*
X86180224Y-65973500D01*
X86199934Y-65975051D01*
X86219943Y-65978220D01*
X86227835Y-65977474D01*
X86263961Y-65974059D01*
X86275819Y-65973500D01*
X86624274Y-65973500D01*
X86692395Y-65993502D01*
X86731707Y-66033665D01*
X86799987Y-66145088D01*
X86946250Y-66313938D01*
X87118126Y-66456632D01*
X87188595Y-66497811D01*
X87191445Y-66499476D01*
X87240169Y-66551114D01*
X87253240Y-66620897D01*
X87226509Y-66686669D01*
X87186055Y-66720027D01*
X87173607Y-66726507D01*
X87169474Y-66729610D01*
X87169471Y-66729612D01*
X87145247Y-66747800D01*
X86994965Y-66860635D01*
X86840629Y-67022138D01*
X86837715Y-67026410D01*
X86837714Y-67026411D01*
X86725095Y-67191504D01*
X86670184Y-67236507D01*
X86621007Y-67246500D01*
X82159500Y-67246500D01*
X82091379Y-67226498D01*
X82044886Y-67172842D01*
X82033500Y-67120500D01*
X82033500Y-45075096D01*
X82053502Y-45006975D01*
X82107158Y-44960482D01*
X82177432Y-44950378D01*
X82204449Y-44957386D01*
X82252255Y-44975641D01*
X82339692Y-45009030D01*
X82344760Y-45010061D01*
X82344763Y-45010062D01*
X82452012Y-45031882D01*
X82558597Y-45053567D01*
X82563772Y-45053757D01*
X82563774Y-45053757D01*
X82776673Y-45061564D01*
X82776677Y-45061564D01*
X82781837Y-45061753D01*
X82786957Y-45061097D01*
X82786959Y-45061097D01*
X82998288Y-45034025D01*
X82998289Y-45034025D01*
X83003416Y-45033368D01*
X83008369Y-45031882D01*
X83212429Y-44970661D01*
X83212434Y-44970659D01*
X83217384Y-44969174D01*
X83417994Y-44870896D01*
X83599860Y-44741173D01*
X83622624Y-44718489D01*
X83706878Y-44634528D01*
X83758096Y-44583489D01*
X83767844Y-44569924D01*
X83888453Y-44402077D01*
X83889776Y-44403028D01*
X83936645Y-44359857D01*
X84006580Y-44347625D01*
X84072026Y-44375144D01*
G37*
%TD.AperFunction*%
%TA.AperFunction,Conductor*%
G36*
X69483363Y-41428502D02*
G01*
X69529856Y-41482158D01*
X69539960Y-41552432D01*
X69510466Y-41617012D01*
X69481077Y-41641932D01*
X69341555Y-41727432D01*
X69332093Y-41737890D01*
X69335876Y-41746666D01*
X70187188Y-42597978D01*
X70201132Y-42605592D01*
X70202965Y-42605461D01*
X70209580Y-42601210D01*
X71061080Y-41749710D01*
X71067840Y-41737330D01*
X71062113Y-41729680D01*
X70918923Y-41641932D01*
X70871292Y-41589285D01*
X70859685Y-41519243D01*
X70887788Y-41454046D01*
X70946679Y-41414392D01*
X70984758Y-41408500D01*
X78986800Y-41408500D01*
X79054921Y-41428502D01*
X79101414Y-41482158D01*
X79111518Y-41552432D01*
X79082024Y-41617012D01*
X79073051Y-41626352D01*
X79069306Y-41629869D01*
X79062893Y-41634528D01*
X79057843Y-41640632D01*
X79057838Y-41640637D01*
X79034707Y-41668598D01*
X79026717Y-41677379D01*
X78107742Y-42596353D01*
X78099463Y-42603887D01*
X78092982Y-42608000D01*
X78046357Y-42657651D01*
X78043602Y-42660493D01*
X78023865Y-42680230D01*
X78021385Y-42683427D01*
X78013682Y-42692447D01*
X77983414Y-42724679D01*
X77979595Y-42731625D01*
X77979593Y-42731628D01*
X77973652Y-42742434D01*
X77962801Y-42758953D01*
X77950386Y-42774959D01*
X77947241Y-42782228D01*
X77947238Y-42782232D01*
X77932826Y-42815537D01*
X77927609Y-42826187D01*
X77906305Y-42864940D01*
X77904334Y-42872615D01*
X77904334Y-42872616D01*
X77901267Y-42884562D01*
X77894863Y-42903266D01*
X77886819Y-42921855D01*
X77885580Y-42929678D01*
X77885577Y-42929688D01*
X77879901Y-42965524D01*
X77877495Y-42977144D01*
X77866500Y-43019970D01*
X77866500Y-43040224D01*
X77864949Y-43059934D01*
X77861780Y-43079943D01*
X77862526Y-43087835D01*
X77865941Y-43123961D01*
X77866500Y-43135819D01*
X77866500Y-47621233D01*
X77865973Y-47632416D01*
X77864298Y-47639909D01*
X77864547Y-47647835D01*
X77864547Y-47647836D01*
X77866438Y-47707986D01*
X77866500Y-47711945D01*
X77866500Y-47739856D01*
X77866997Y-47743790D01*
X77866997Y-47743791D01*
X77867005Y-47743856D01*
X77867938Y-47755693D01*
X77869327Y-47799889D01*
X77874978Y-47819339D01*
X77878987Y-47838700D01*
X77881526Y-47858797D01*
X77884445Y-47866168D01*
X77884445Y-47866170D01*
X77897804Y-47899912D01*
X77901649Y-47911142D01*
X77913982Y-47953593D01*
X77918015Y-47960412D01*
X77918017Y-47960417D01*
X77924293Y-47971028D01*
X77932988Y-47988776D01*
X77940448Y-48007617D01*
X77945110Y-48014033D01*
X77945110Y-48014034D01*
X77966436Y-48043387D01*
X77972952Y-48053307D01*
X77995458Y-48091362D01*
X78009779Y-48105683D01*
X78022619Y-48120716D01*
X78034528Y-48137107D01*
X78040634Y-48142158D01*
X78068605Y-48165298D01*
X78077384Y-48173288D01*
X79252878Y-49348783D01*
X79286904Y-49411095D01*
X79289093Y-49424706D01*
X79306458Y-49589928D01*
X79365473Y-49771556D01*
X79460960Y-49936944D01*
X79534137Y-50018215D01*
X79564853Y-50082221D01*
X79566500Y-50102524D01*
X79566500Y-57266406D01*
X79546498Y-57334527D01*
X79492842Y-57381020D01*
X79422568Y-57391124D01*
X79357988Y-57361630D01*
X79351405Y-57355501D01*
X66198575Y-44202670D01*
X69332160Y-44202670D01*
X69337887Y-44210320D01*
X69509042Y-44315205D01*
X69517837Y-44319687D01*
X69727988Y-44406734D01*
X69737373Y-44409783D01*
X69958554Y-44462885D01*
X69968301Y-44464428D01*
X70195070Y-44482275D01*
X70204930Y-44482275D01*
X70431699Y-44464428D01*
X70441446Y-44462885D01*
X70662627Y-44409783D01*
X70672012Y-44406734D01*
X70882163Y-44319687D01*
X70890958Y-44315205D01*
X71058445Y-44212568D01*
X71067907Y-44202110D01*
X71064124Y-44193334D01*
X70212812Y-43342022D01*
X70198868Y-43334408D01*
X70197035Y-43334539D01*
X70190420Y-43338790D01*
X69338920Y-44190290D01*
X69332160Y-44202670D01*
X66198575Y-44202670D01*
X64970835Y-42974930D01*
X68687725Y-42974930D01*
X68705572Y-43201699D01*
X68707115Y-43211446D01*
X68760217Y-43432627D01*
X68763266Y-43442012D01*
X68850313Y-43652163D01*
X68854795Y-43660958D01*
X68957432Y-43828445D01*
X68967890Y-43837907D01*
X68976666Y-43834124D01*
X69827978Y-42982812D01*
X69834356Y-42971132D01*
X70564408Y-42971132D01*
X70564539Y-42972965D01*
X70568790Y-42979580D01*
X71420290Y-43831080D01*
X71432670Y-43837840D01*
X71440320Y-43832113D01*
X71545205Y-43660958D01*
X71549687Y-43652163D01*
X71636734Y-43442012D01*
X71639783Y-43432627D01*
X71692885Y-43211446D01*
X71694428Y-43201699D01*
X71712275Y-42974930D01*
X71712275Y-42965070D01*
X71694428Y-42738301D01*
X71692885Y-42728554D01*
X71639783Y-42507373D01*
X71636734Y-42497988D01*
X71549687Y-42287837D01*
X71545205Y-42279042D01*
X71442568Y-42111555D01*
X71432110Y-42102093D01*
X71423334Y-42105876D01*
X70572022Y-42957188D01*
X70564408Y-42971132D01*
X69834356Y-42971132D01*
X69835592Y-42968868D01*
X69835461Y-42967035D01*
X69831210Y-42960420D01*
X68979710Y-42108920D01*
X68967330Y-42102160D01*
X68959680Y-42107887D01*
X68854795Y-42279042D01*
X68850313Y-42287837D01*
X68763266Y-42497988D01*
X68760217Y-42507373D01*
X68707115Y-42728554D01*
X68705572Y-42738301D01*
X68687725Y-42965070D01*
X68687725Y-42974930D01*
X64970835Y-42974930D01*
X63619500Y-41623595D01*
X63585474Y-41561283D01*
X63590539Y-41490468D01*
X63633086Y-41433632D01*
X63699606Y-41408821D01*
X63708595Y-41408500D01*
X69415242Y-41408500D01*
X69483363Y-41428502D01*
G37*
%TD.AperFunction*%
%TD*%
M02*
