%TF.GenerationSoftware,KiCad,Pcbnew,(6.0.11)*%
%TF.CreationDate,2023-07-06T17:32:09+01:00*%
%TF.ProjectId,Quilter_Controls,5175696c-7465-4725-9f43-6f6e74726f6c,rev?*%
%TF.SameCoordinates,Original*%
%TF.FileFunction,Legend,Bot*%
%TF.FilePolarity,Positive*%
%FSLAX46Y46*%
G04 Gerber Fmt 4.6, Leading zero omitted, Abs format (unit mm)*
G04 Created by KiCad (PCBNEW (6.0.11)) date 2023-07-06 17:32:09*
%MOMM*%
%LPD*%
G01*
G04 APERTURE LIST*
%ADD10C,0.200000*%
%ADD11C,0.300000*%
%ADD12C,0.150000*%
%ADD13C,0.120000*%
%ADD14C,3.650000*%
G04 APERTURE END LIST*
D10*
X85000000Y-46042857D02*
X84771428Y-46042857D01*
X84657142Y-46100000D01*
X84542857Y-46214285D01*
X84485714Y-46442857D01*
X84485714Y-46842857D01*
X84542857Y-47071428D01*
X84657142Y-47185714D01*
X84771428Y-47242857D01*
X85000000Y-47242857D01*
X85114285Y-47185714D01*
X85228571Y-47071428D01*
X85285714Y-46842857D01*
X85285714Y-46442857D01*
X85228571Y-46214285D01*
X85114285Y-46100000D01*
X85000000Y-46042857D01*
X83457142Y-46442857D02*
X83457142Y-47242857D01*
X83971428Y-46442857D02*
X83971428Y-47071428D01*
X83914285Y-47185714D01*
X83800000Y-47242857D01*
X83628571Y-47242857D01*
X83514285Y-47185714D01*
X83457142Y-47128571D01*
X83057142Y-46442857D02*
X82600000Y-46442857D01*
X82885714Y-46042857D02*
X82885714Y-47071428D01*
X82828571Y-47185714D01*
X82714285Y-47242857D01*
X82600000Y-47242857D01*
X71114285Y-44400000D02*
X71228571Y-44342857D01*
X71400000Y-44342857D01*
X71571428Y-44400000D01*
X71685714Y-44514285D01*
X71742857Y-44628571D01*
X71800000Y-44857142D01*
X71800000Y-45028571D01*
X71742857Y-45257142D01*
X71685714Y-45371428D01*
X71571428Y-45485714D01*
X71400000Y-45542857D01*
X71285714Y-45542857D01*
X71114285Y-45485714D01*
X71057142Y-45428571D01*
X71057142Y-45028571D01*
X71285714Y-45028571D01*
X70542857Y-45542857D02*
X70542857Y-44342857D01*
X69857142Y-45542857D01*
X69857142Y-44342857D01*
X69285714Y-45542857D02*
X69285714Y-44342857D01*
X69000000Y-44342857D01*
X68828571Y-44400000D01*
X68714285Y-44514285D01*
X68657142Y-44628571D01*
X68600000Y-44857142D01*
X68600000Y-45028571D01*
X68657142Y-45257142D01*
X68714285Y-45371428D01*
X68828571Y-45485714D01*
X69000000Y-45542857D01*
X69285714Y-45542857D01*
X68157142Y-43800000D02*
X67585714Y-43800000D01*
X68271428Y-44142857D02*
X67871428Y-42942857D01*
X67471428Y-44142857D01*
X66557142Y-43342857D02*
X66557142Y-44142857D01*
X67071428Y-43342857D02*
X67071428Y-43971428D01*
X67014285Y-44085714D01*
X66900000Y-44142857D01*
X66728571Y-44142857D01*
X66614285Y-44085714D01*
X66557142Y-44028571D01*
X65471428Y-44142857D02*
X65471428Y-42942857D01*
X65471428Y-44085714D02*
X65585714Y-44142857D01*
X65814285Y-44142857D01*
X65928571Y-44085714D01*
X65985714Y-44028571D01*
X66042857Y-43914285D01*
X66042857Y-43571428D01*
X65985714Y-43457142D01*
X65928571Y-43400000D01*
X65814285Y-43342857D01*
X65585714Y-43342857D01*
X65471428Y-43400000D01*
X63985714Y-44142857D02*
X63985714Y-42942857D01*
X63414285Y-43342857D02*
X63414285Y-44142857D01*
X63414285Y-43457142D02*
X63357142Y-43400000D01*
X63242857Y-43342857D01*
X63071428Y-43342857D01*
X62957142Y-43400000D01*
X62900000Y-43514285D01*
X62900000Y-44142857D01*
X87761904Y-148500000D02*
X87857142Y-148452380D01*
X88000000Y-148452380D01*
X88142857Y-148500000D01*
X88238095Y-148595238D01*
X88285714Y-148690476D01*
X88333333Y-148880952D01*
X88333333Y-149023809D01*
X88285714Y-149214285D01*
X88238095Y-149309523D01*
X88142857Y-149404761D01*
X88000000Y-149452380D01*
X87904761Y-149452380D01*
X87761904Y-149404761D01*
X87714285Y-149357142D01*
X87714285Y-149023809D01*
X87904761Y-149023809D01*
X87285714Y-149452380D02*
X87285714Y-148452380D01*
X86714285Y-149452380D01*
X86714285Y-148452380D01*
X86238095Y-149452380D02*
X86238095Y-148452380D01*
X86000000Y-148452380D01*
X85857142Y-148500000D01*
X85761904Y-148595238D01*
X85714285Y-148690476D01*
X85666666Y-148880952D01*
X85666666Y-149023809D01*
X85714285Y-149214285D01*
X85761904Y-149309523D01*
X85857142Y-149404761D01*
X86000000Y-149452380D01*
X86238095Y-149452380D01*
D11*
X59971428Y-50178571D02*
X60828571Y-50178571D01*
X60400000Y-50178571D02*
X60400000Y-48678571D01*
X60542857Y-48892857D01*
X60685714Y-49035714D01*
X60828571Y-49107142D01*
D10*
X54199999Y-57952380D02*
X54771428Y-57952380D01*
X54485713Y-57952380D02*
X54485713Y-56952380D01*
X54580952Y-57095238D01*
X54676190Y-57190476D01*
X54771428Y-57238095D01*
X53819047Y-57047619D02*
X53771428Y-57000000D01*
X53676190Y-56952380D01*
X53438094Y-56952380D01*
X53342856Y-57000000D01*
X53295237Y-57047619D01*
X53247618Y-57142857D01*
X53247618Y-57238095D01*
X53295237Y-57380952D01*
X53866666Y-57952380D01*
X53247618Y-57952380D01*
X52961904Y-56952380D02*
X52628571Y-57952380D01*
X52295237Y-56952380D01*
D11*
X87371428Y-47278571D02*
X88228571Y-47278571D01*
X87800000Y-47278571D02*
X87800000Y-45778571D01*
X87942857Y-45992857D01*
X88085714Y-46135714D01*
X88228571Y-46207142D01*
D10*
X66157142Y-45742857D02*
X65757142Y-46942857D01*
X65357142Y-45742857D01*
X64100000Y-45685714D02*
X65128571Y-47228571D01*
X63471428Y-45742857D02*
X63242857Y-45742857D01*
X63128571Y-45800000D01*
X63014285Y-45914285D01*
X62957142Y-46142857D01*
X62957142Y-46542857D01*
X63014285Y-46771428D01*
X63128571Y-46885714D01*
X63242857Y-46942857D01*
X63471428Y-46942857D01*
X63585714Y-46885714D01*
X63700000Y-46771428D01*
X63757142Y-46542857D01*
X63757142Y-46142857D01*
X63700000Y-45914285D01*
X63585714Y-45800000D01*
X63471428Y-45742857D01*
D12*
%TO.C,J3*%
X56803333Y-147352380D02*
X56803333Y-148066666D01*
X56850952Y-148209523D01*
X56946190Y-148304761D01*
X57089047Y-148352380D01*
X57184285Y-148352380D01*
X56422380Y-147352380D02*
X55803333Y-147352380D01*
X56136666Y-147733333D01*
X55993809Y-147733333D01*
X55898571Y-147780952D01*
X55850952Y-147828571D01*
X55803333Y-147923809D01*
X55803333Y-148161904D01*
X55850952Y-148257142D01*
X55898571Y-148304761D01*
X55993809Y-148352380D01*
X56279523Y-148352380D01*
X56374761Y-148304761D01*
X56422380Y-148257142D01*
%TO.C,J1*%
X88233333Y-59922380D02*
X88233333Y-60636666D01*
X88280952Y-60779523D01*
X88376190Y-60874761D01*
X88519047Y-60922380D01*
X88614285Y-60922380D01*
X87233333Y-60922380D02*
X87804761Y-60922380D01*
X87519047Y-60922380D02*
X87519047Y-59922380D01*
X87614285Y-60065238D01*
X87709523Y-60160476D01*
X87804761Y-60208095D01*
%TO.C,J2*%
X52733333Y-59922380D02*
X52733333Y-60636666D01*
X52780952Y-60779523D01*
X52876190Y-60874761D01*
X53019047Y-60922380D01*
X53114285Y-60922380D01*
X52304761Y-60017619D02*
X52257142Y-59970000D01*
X52161904Y-59922380D01*
X51923809Y-59922380D01*
X51828571Y-59970000D01*
X51780952Y-60017619D01*
X51733333Y-60112857D01*
X51733333Y-60208095D01*
X51780952Y-60350952D01*
X52352380Y-60922380D01*
X51733333Y-60922380D01*
D13*
%TO.C,J3*%
X58800000Y-146570000D02*
X57470000Y-146570000D01*
X57470000Y-146570000D02*
X57470000Y-147900000D01*
X60070000Y-149230000D02*
X82990000Y-149230000D01*
X82990000Y-146570000D02*
X82990000Y-149230000D01*
X60070000Y-146570000D02*
X60070000Y-149230000D01*
X60070000Y-146570000D02*
X82990000Y-146570000D01*
%TO.C,J1*%
X89230000Y-61470000D02*
X87900000Y-61470000D01*
X86570000Y-64070000D02*
X86570000Y-86990000D01*
X89230000Y-64070000D02*
X86570000Y-64070000D01*
X89230000Y-64070000D02*
X89230000Y-86990000D01*
X89230000Y-62800000D02*
X89230000Y-61470000D01*
X89230000Y-86990000D02*
X86570000Y-86990000D01*
%TO.C,J2*%
X53730000Y-61470000D02*
X52400000Y-61470000D01*
X53730000Y-64070000D02*
X53730000Y-86990000D01*
X53730000Y-64070000D02*
X51070000Y-64070000D01*
X53730000Y-86990000D02*
X51070000Y-86990000D01*
X51070000Y-64070000D02*
X51070000Y-86990000D01*
X53730000Y-62800000D02*
X53730000Y-61470000D01*
%TO.C,J9*%
X61930000Y-42505000D02*
X51650000Y-42505000D01*
X61930000Y-45105000D02*
X61930000Y-42505000D01*
X61930000Y-47705000D02*
X61930000Y-46375000D01*
X51650000Y-47705000D02*
X51650000Y-42505000D01*
X60600000Y-47705000D02*
X61930000Y-47705000D01*
X59330000Y-47705000D02*
X51650000Y-47705000D01*
X59330000Y-47705000D02*
X59330000Y-45105000D01*
X59330000Y-45105000D02*
X61930000Y-45105000D01*
%TO.C,J10*%
X78850000Y-45030000D02*
X78850000Y-42370000D01*
X86530000Y-45030000D02*
X86530000Y-42370000D01*
X86530000Y-45030000D02*
X78850000Y-45030000D01*
X89130000Y-45030000D02*
X89130000Y-43700000D01*
X86530000Y-42370000D02*
X78850000Y-42370000D01*
X87800000Y-45030000D02*
X89130000Y-45030000D01*
%TD*%
D14*
%TO.C,J4*%
X85760000Y-105600000D03*
X74330000Y-105600000D03*
%TD*%
%TO.C,J5*%
X74330000Y-125800000D03*
X85760000Y-125800000D03*
%TD*%
%TO.C,J8*%
X66160000Y-125800000D03*
X54730000Y-125800000D03*
%TD*%
%TO.C,J7*%
X54730000Y-105600000D03*
X66160000Y-105600000D03*
%TD*%
M02*
