M48
; DRILL file {KiCad (6.0.11)} date Thu Jul  6 17:32:11 2023
; FORMAT={-:-/ absolute / inch / decimal}
; #@! TF.CreationDate,2023-07-06T17:32:11+01:00
; #@! TF.GenerationSoftware,Kicad,Pcbnew,(6.0.11)
; #@! TF.FileFunction,Plated,1,2,PTH
FMAT,2
INCH
; #@! TA.AperFunction,Plated,PTH,ViaDrill
T1C0.0157
; #@! TA.AperFunction,Plated,PTH,ComponentDrill
T2C0.0197
; #@! TA.AperFunction,Plated,PTH,ComponentDrill
T3C0.0354
; #@! TA.AperFunction,Plated,PTH,ComponentDrill
T4C0.0394
; #@! TA.AperFunction,Plated,PTH,ComponentDrill
T5C0.0512
%
G90
G05
T1
X2.0118Y-4.937
X2.0118Y-5.4685
X2.0906Y-5.8268
X2.1417Y-2.4685
X2.1417Y-2.6732
X2.1417Y-4.4882
X2.2559Y-4.7874
X2.3189Y-4.2362
X2.3547Y-5.2319
X2.4724Y-4.0197
X2.4764Y-5.0276
X2.5433Y-5.378
X2.5866Y-4.4961
X2.6535Y-2.5472
X2.6535Y-2.8543
X2.6535Y-3.1142
X2.6575Y-3.6654
X2.689Y-5.2441
X2.9055Y-4.5197
X2.9291Y-4.815
X2.937Y-5.2835
X3.0197Y-4.5118
X3.0787Y-2.1024
X3.1457Y-4.815
X3.1575Y-1.9449
X3.1575Y-5.6811
X3.1772Y-4.2835
X3.1811Y-3.5039
X3.2638Y-2.6181
X3.2638Y-2.7205
X3.2795Y-1.9724
X3.3543Y-5.4094
X3.4173Y-4.5984
X3.4291Y-4.2835
X3.4921Y-4.7283
T3
X2.2047Y-3.9075
X2.2047Y-4.7028
X2.2547Y-3.8075
X2.2547Y-4.6028
X2.3047Y-3.9075
X2.3047Y-4.7028
X2.3547Y-3.8075
X2.3547Y-4.6028
X2.4047Y-3.9075
X2.4047Y-4.7028
X2.4547Y-3.8075
X2.4547Y-4.6028
X2.5047Y-3.9075
X2.5047Y-4.7028
X2.5547Y-3.8075
X2.5547Y-4.6028
X2.9764Y-3.9075
X2.9764Y-4.7028
X3.0264Y-3.8075
X3.0264Y-4.6028
X3.0764Y-3.9075
X3.0764Y-4.7028
X3.1264Y-3.8075
X3.1264Y-4.6028
X3.1764Y-3.9075
X3.1764Y-4.7028
X3.2264Y-3.8075
X3.2264Y-4.6028
X3.2764Y-3.9075
X3.2764Y-4.7028
X3.3264Y-3.8075
X3.3264Y-4.6028
T4
X2.063Y-2.4724
X2.063Y-2.5724
X2.063Y-2.6724
X2.063Y-2.7724
X2.063Y-2.8724
X2.063Y-2.9724
X2.063Y-3.0724
X2.063Y-3.1724
X2.063Y-3.2724
X2.063Y-3.3724
X2.0858Y-1.7258
X2.0858Y-1.8258
X2.1858Y-1.7258
X2.1858Y-1.8258
X2.2858Y-1.7258
X2.2858Y-1.8258
X2.315Y-5.8228
X2.3858Y-1.7258
X2.3858Y-1.8258
X2.415Y-5.8228
X2.4606Y-2.4055
X2.515Y-5.8228
X2.5591Y-2.4055
X2.615Y-5.8228
X2.6575Y-2.4055
X2.715Y-5.8228
X2.815Y-5.8228
X2.915Y-5.8228
X3.015Y-5.8228
X3.0512Y-3.311
X3.115Y-5.8228
X3.1496Y-3.311
X3.1567Y-1.7205
X3.215Y-5.8228
X3.248Y-3.311
X3.2567Y-1.7205
X3.3567Y-1.7205
X3.4567Y-1.7205
X3.4606Y-2.4724
X3.4606Y-2.5724
X3.4606Y-2.6724
X3.4606Y-2.7724
X3.4606Y-2.8724
X3.4606Y-2.9724
X3.4606Y-3.0724
X3.4606Y-3.1724
X3.4606Y-3.2724
X3.4606Y-3.3724
T5
X2.1142Y-2.1839
X2.7638Y-1.6917
X3.4213Y-5.7862
T2
G00X2.1228Y-5.5157
M15
G01X2.1228Y-5.5551
M16
G05
G00X2.2449Y-5.5157
M15
G01X2.2449Y-5.5551
M16
G05
G00X2.5717Y-5.5157
M15
G01X2.5717Y-5.5551
M16
G05
G00X2.8945Y-5.5157
M15
G01X2.8945Y-5.5551
M16
G05
G00X3.0165Y-5.5157
M15
G01X3.0165Y-5.5551
M16
G05
G00X3.3433Y-5.5157
M15
G01X3.3433Y-5.5551
M16
G05
T0
M30
